<?xml version="1.0" encoding="UTF-8" standalone="no"?>
<!DOCTYPE svg PUBLIC "-//W3C//DTD SVG 1.1//EN"
 "http://www.w3.org/Graphics/SVG/1.1/DTD/svg11.dtd">
<!-- Generated by graphviz version 12.2.1 (20241206.2353)
 -->
<!-- Title: include/modes/AppMode.h Pages: 1 -->
<svg width="886pt" height="149pt"
 viewBox="0.00 0.00 885.75 149.00" xmlns="http://www.w3.org/2000/svg" xmlns:xlink="http://www.w3.org/1999/xlink">
<g id="graph0" class="graph" transform="scale(1 1) rotate(0) translate(4 145)">
<title>include/modes/AppMode.h</title>
<!-- Node1 -->
<g id="Node000001" class="node">
<title>Node1</title>
<g id="a_Node000001"><a xlink:title="Abstract interface for application mode behavior.">
<polygon fill="#999999" stroke="#666666" points="474.75,-141 343.25,-141 343.25,-121.75 474.75,-121.75 474.75,-141"/>
<text text-anchor="middle" x="409" y="-127.5" font-family="Helvetica,sans-Serif" font-size="10.00">include/modes/AppMode.h</text>
</a>
</g>
</g>
<!-- Node2 -->
<g id="Node000002" class="node">
<title>Node2</title>
<g id="a_Node000002"><a xlink:href="_mode_manager_8h.html" target="_top" xlink:title="Declares the ModeManager class for managing application modes in JMR800&#45;V2.">
<polygon fill="white" stroke="#666666" points="161.38,-80.12 42.62,-80.12 42.62,-60.88 161.38,-60.88 161.38,-80.12"/>
<text text-anchor="middle" x="102" y="-66.62" font-family="Helvetica,sans-Serif" font-size="10.00">include/ModeManager.h</text>
</a>
</g>
</g>
<!-- Node1&#45;&gt;Node2 -->
<g id="edge1_Node000001_Node000002" class="edge">
<title>Node1&#45;&gt;Node2</title>
<g id="a_edge1_Node000001_Node000002"><a xlink:title=" ">
<path fill="none" stroke="#63b8ff" d="M348.1,-119.27C299.98,-110.43 231.14,-97.6 171,-85.75 162.72,-84.12 153.89,-82.33 145.41,-80.59"/>
<polygon fill="#63b8ff" stroke="#63b8ff" points="347.31,-122.69 357.77,-121.05 348.57,-115.8 347.31,-122.69"/>
</a>
</g>
</g>
<!-- Node5 -->
<g id="Node000005" class="node">
<title>Node5</title>
<g id="a_Node000005"><a xlink:href="_config_mode_8h.html" target="_top" xlink:title="Application mode for accessing and modifying system configuration.">
<polygon fill="white" stroke="#666666" points="322.38,-80.12 179.62,-80.12 179.62,-60.88 322.38,-60.88 322.38,-80.12"/>
<text text-anchor="middle" x="251" y="-66.62" font-family="Helvetica,sans-Serif" font-size="10.00">include/modes/ConfigMode.h</text>
</a>
</g>
</g>
<!-- Node1&#45;&gt;Node5 -->
<g id="edge4_Node000001_Node000005" class="edge">
<title>Node1&#45;&gt;Node5</title>
<g id="a_edge4_Node000001_Node000005"><a xlink:title=" ">
<path fill="none" stroke="#63b8ff" d="M374.24,-117.42C344.29,-106.26 301.82,-90.44 275.37,-80.58"/>
<polygon fill="#63b8ff" stroke="#63b8ff" points="372.65,-120.56 383.24,-120.78 375.09,-114 372.65,-120.56"/>
</a>
</g>
</g>
<!-- Node7 -->
<g id="Node000007" class="node">
<title>Node7</title>
<g id="a_Node000007"><a xlink:href="_controls_test_mode_8h.html" target="_top" xlink:title="Application mode for verifying control inputs in real&#45;time.">
<polygon fill="white" stroke="#666666" points="477.75,-85.75 340.25,-85.75 340.25,-55.25 477.75,-55.25 477.75,-85.75"/>
<text text-anchor="start" x="348.25" y="-72.25" font-family="Helvetica,sans-Serif" font-size="10.00">include/modes/ControlsTest</text>
<text text-anchor="middle" x="409" y="-61" font-family="Helvetica,sans-Serif" font-size="10.00">Mode.h</text>
</a>
</g>
</g>
<!-- Node1&#45;&gt;Node7 -->
<g id="edge7_Node000001_Node000007" class="edge">
<title>Node1&#45;&gt;Node7</title>
<g id="a_edge7_Node000001_Node000007"><a xlink:title=" ">
<path fill="none" stroke="#63b8ff" d="M409,-110.17C409,-102.24 409,-93.31 409,-86.03"/>
<polygon fill="#63b8ff" stroke="#63b8ff" points="405.5,-109.92 409,-119.92 412.5,-109.92 405.5,-109.92"/>
</a>
</g>
</g>
<!-- Node9 -->
<g id="Node000009" class="node">
<title>Node9</title>
<g id="a_Node000009"><a xlink:href="_direct_command_mode_8h.html" target="_top" xlink:title="Application mode for sending direct parameter/value commands.">
<polygon fill="white" stroke="#666666" points="648.62,-85.75 495.38,-85.75 495.38,-55.25 648.62,-55.25 648.62,-85.75"/>
<text text-anchor="start" x="503.38" y="-72.25" font-family="Helvetica,sans-Serif" font-size="10.00">include/modes/DirectCommand</text>
<text text-anchor="middle" x="572" y="-61" font-family="Helvetica,sans-Serif" font-size="10.00">Mode.h</text>
</a>
</g>
</g>
<!-- Node1&#45;&gt;Node9 -->
<g id="edge10_Node000001_Node000009" class="edge">
<title>Node1&#45;&gt;Node9</title>
<g id="a_edge10_Node000001_Node000009"><a xlink:title=" ">
<path fill="none" stroke="#63b8ff" d="M444.82,-117.44C470.36,-108.21 504.74,-95.79 531.32,-86.19"/>
<polygon fill="#63b8ff" stroke="#63b8ff" points="443.75,-114.1 435.54,-120.79 446.13,-120.69 443.75,-114.1"/>
</a>
</g>
</g>
<!-- Node11 -->
<g id="Node000011" class="node">
<title>Node11</title>
<g id="a_Node000011"><a xlink:href="_run_mode_8h.html" target="_top" xlink:title="Defines the main runtime mode of the application.">
<polygon fill="white" stroke="#666666" points="799.12,-80.12 666.88,-80.12 666.88,-60.88 799.12,-60.88 799.12,-80.12"/>
<text text-anchor="middle" x="733" y="-66.62" font-family="Helvetica,sans-Serif" font-size="10.00">include/modes/RunMode.h</text>
</a>
</g>
</g>
<!-- Node1&#45;&gt;Node11 -->
<g id="edge13_Node000001_Node000011" class="edge">
<title>Node1&#45;&gt;Node11</title>
<g id="a_edge13_Node000001_Node000011"><a xlink:title=" ">
<path fill="none" stroke="#63b8ff" d="M471.57,-119.35C521.94,-110.42 594.56,-97.46 658,-85.75 666.86,-84.11 676.31,-82.34 685.4,-80.62"/>
<polygon fill="#63b8ff" stroke="#63b8ff" points="471.26,-115.85 462.02,-121.04 472.48,-122.74 471.26,-115.85"/>
</a>
</g>
</g>
<!-- Node3 -->
<g id="Node000003" class="node">
<title>Node3</title>
<g id="a_Node000003"><a xlink:href="_mode_manager_8cpp.html" target="_top" xlink:title="Implements the ModeManager class responsible for managing application modes.">
<polygon fill="white" stroke="#666666" points="112,-19.25 0,-19.25 0,0 112,0 112,-19.25"/>
<text text-anchor="middle" x="56" y="-5.75" font-family="Helvetica,sans-Serif" font-size="10.00">src/ModeManager.cpp</text>
</a>
</g>
</g>
<!-- Node2&#45;&gt;Node3 -->
<g id="edge2_Node000002_Node000003" class="edge">
<title>Node2&#45;&gt;Node3</title>
<g id="a_edge2_Node000002_Node000003"><a xlink:title=" ">
<path fill="none" stroke="#63b8ff" d="M88.1,-51.71C79.83,-41.13 69.69,-28.15 63.05,-19.65"/>
<polygon fill="#63b8ff" stroke="#63b8ff" points="85.17,-53.64 94.08,-59.37 90.68,-49.33 85.17,-53.64"/>
</a>
</g>
</g>
<!-- Node4 -->
<g id="Node000004" class="node">
<title>Node4</title>
<g id="a_Node000004"><a xlink:href="main_8cpp.html" target="_top" xlink:title="Entry point for the JMR800&#45;V2 firmware.">
<polygon fill="white" stroke="#666666" points="356.12,-19.25 283.88,-19.25 283.88,0 356.12,0 356.12,-19.25"/>
<text text-anchor="middle" x="320" y="-5.75" font-family="Helvetica,sans-Serif" font-size="10.00">src/main.cpp</text>
</a>
</g>
</g>
<!-- Node2&#45;&gt;Node4 -->
<g id="edge3_Node000002_Node000004" class="edge">
<title>Node2&#45;&gt;Node4</title>
<g id="a_edge3_Node000002_Node000004"><a xlink:title=" ">
<path fill="none" stroke="#63b8ff" d="M146.46,-57.49C187.92,-46.3 248.84,-29.84 286.38,-19.71"/>
<polygon fill="#63b8ff" stroke="#63b8ff" points="145.79,-54.05 137.05,-60.04 147.61,-60.81 145.79,-54.05"/>
</a>
</g>
</g>
<!-- Node5&#45;&gt;Node4 -->
<g id="edge5_Node000005_Node000004" class="edge">
<title>Node5&#45;&gt;Node4</title>
<g id="a_edge5_Node000005_Node000004"><a xlink:title=" ">
<path fill="none" stroke="#63b8ff" d="M269.97,-53.31C282.69,-42.46 298.95,-28.59 309.42,-19.65"/>
<polygon fill="#63b8ff" stroke="#63b8ff" points="267.97,-50.42 262.63,-59.58 272.51,-55.75 267.97,-50.42"/>
</a>
</g>
</g>
<!-- Node6 -->
<g id="Node000006" class="node">
<title>Node6</title>
<g id="a_Node000006"><a xlink:href="_config_mode_8cpp.html" target="_top" xlink:title="Implements the System Configuration Mode for knob setup.">
<polygon fill="white" stroke="#666666" points="266,-19.25 130,-19.25 130,0 266,0 266,-19.25"/>
<text text-anchor="middle" x="198" y="-5.75" font-family="Helvetica,sans-Serif" font-size="10.00">src/modes/ConfigMode.cpp</text>
</a>
</g>
</g>
<!-- Node5&#45;&gt;Node6 -->
<g id="edge6_Node000005_Node000006" class="edge">
<title>Node5&#45;&gt;Node6</title>
<g id="a_edge6_Node000005_Node000006"><a xlink:title=" ">
<path fill="none" stroke="#63b8ff" d="M235.28,-52.03C225.7,-41.39 213.86,-28.24 206.13,-19.65"/>
<polygon fill="#63b8ff" stroke="#63b8ff" points="232.65,-54.34 241.94,-59.43 237.85,-49.66 232.65,-54.34"/>
</a>
</g>
</g>
<!-- Node7&#45;&gt;Node4 -->
<g id="edge8_Node000007_Node000004" class="edge">
<title>Node7&#45;&gt;Node4</title>
<g id="a_edge8_Node000007_Node000004"><a xlink:title=" ">
<path fill="none" stroke="#63b8ff" d="M377.54,-48.69C362.54,-38.76 345.37,-27.41 333.72,-19.7"/>
<polygon fill="#63b8ff" stroke="#63b8ff" points="375.47,-51.51 385.74,-54.11 379.33,-45.68 375.47,-51.51"/>
</a>
</g>
</g>
<!-- Node8 -->
<g id="Node000008" class="node">
<title>Node8</title>
<g id="a_Node000008"><a xlink:href="_controls_test_mode_8cpp.html" target="_top" xlink:title="Implements the Controls Test Mode for button interaction diagnostics.">
<polygon fill="white" stroke="#666666" points="537.5,-19.25 374.5,-19.25 374.5,0 537.5,0 537.5,-19.25"/>
<text text-anchor="middle" x="456" y="-5.75" font-family="Helvetica,sans-Serif" font-size="10.00">src/modes/ControlsTestMode.cpp</text>
</a>
</g>
</g>
<!-- Node7&#45;&gt;Node8 -->
<g id="edge9_Node000007_Node000008" class="edge">
<title>Node7&#45;&gt;Node8</title>
<g id="a_edge9_Node000007_Node000008"><a xlink:title=" ">
<path fill="none" stroke="#63b8ff" d="M427.68,-46.11C435.07,-36.84 443.13,-26.75 448.75,-19.7"/>
<polygon fill="#63b8ff" stroke="#63b8ff" points="425.07,-43.76 421.56,-53.76 430.54,-48.13 425.07,-43.76"/>
</a>
</g>
</g>
<!-- Node9&#45;&gt;Node4 -->
<g id="edge11_Node000009_Node000004" class="edge">
<title>Node9&#45;&gt;Node4</title>
<g id="a_edge11_Node000009_Node000004"><a xlink:title=" ">
<path fill="none" stroke="#63b8ff" d="M498.09,-52.23C451.49,-41.35 393.36,-27.76 356.45,-19.14"/>
<polygon fill="#63b8ff" stroke="#63b8ff" points="497.05,-55.58 507.59,-54.45 498.64,-48.77 497.05,-55.58"/>
</a>
</g>
</g>
<!-- Node10 -->
<g id="Node000010" class="node">
<title>Node10</title>
<g id="a_Node000010"><a xlink:href="_direct_command_mode_8cpp.html" target="_top" xlink:title="Implements behavior for Direct Command Mode.">
<polygon fill="white" stroke="#666666" points="734.38,-19.25 555.62,-19.25 555.62,0 734.38,0 734.38,-19.25"/>
<text text-anchor="middle" x="645" y="-5.75" font-family="Helvetica,sans-Serif" font-size="10.00">src/modes/DirectCommandMode.cpp</text>
</a>
</g>
</g>
<!-- Node9&#45;&gt;Node10 -->
<g id="edge12_Node000009_Node000010" class="edge">
<title>Node9&#45;&gt;Node10</title>
<g id="a_edge12_Node000009_Node000010"><a xlink:title=" ">
<path fill="none" stroke="#63b8ff" d="M598.87,-47.83C610.91,-38.12 624.46,-27.19 633.75,-19.7"/>
<polygon fill="#63b8ff" stroke="#63b8ff" points="596.81,-44.99 591.22,-54 601.2,-50.44 596.81,-44.99"/>
</a>
</g>
</g>
<!-- Node11&#45;&gt;Node4 -->
<g id="edge14_Node000011_Node000004" class="edge">
<title>Node11&#45;&gt;Node4</title>
<g id="a_edge14_Node000011_Node000004"><a xlink:title=" ">
<path fill="none" stroke="#63b8ff" d="M676.66,-58.39C670.37,-57.27 664.06,-56.2 658,-55.25 528.81,-35.04 495.21,-39.31 366,-19.25 362.95,-18.78 359.79,-18.25 356.62,-17.71"/>
<polygon fill="#63b8ff" stroke="#63b8ff" points="675.92,-61.81 686.38,-60.16 677.17,-54.92 675.92,-61.81"/>
</a>
</g>
</g>
<!-- Node12 -->
<g id="Node000012" class="node">
<title>Node12</title>
<g id="a_Node000012"><a xlink:href="_run_mode_8cpp.html" target="_top" xlink:title="Implements the behavior of the Run Mode application state.">
<polygon fill="white" stroke="#666666" points="877.75,-19.25 752.25,-19.25 752.25,0 877.75,0 877.75,-19.25"/>
<text text-anchor="middle" x="815" y="-5.75" font-family="Helvetica,sans-Serif" font-size="10.00">src/modes/RunMode.cpp</text>
</a>
</g>
</g>
<!-- Node11&#45;&gt;Node12 -->
<g id="edge15_Node000011_Node000012" class="edge">
<title>Node11&#45;&gt;Node12</title>
<g id="a_edge15_Node000011_Node000012"><a xlink:title=" ">
<path fill="none" stroke="#63b8ff" d="M754.67,-53.94C769.9,-43.01 789.74,-28.76 802.43,-19.65"/>
<polygon fill="#63b8ff" stroke="#63b8ff" points="752.77,-51 746.68,-59.68 756.85,-56.69 752.77,-51"/>
</a>
</g>
</g>
</g>
</svg>
