<?xml version="1.0" encoding="UTF-8" standalone="no"?>
<!DOCTYPE svg PUBLIC "-//W3C//DTD SVG 1.1//EN"
 "http://www.w3.org/Graphics/SVG/1.1/DTD/svg11.dtd">
<!-- Generated by graphviz version 12.2.1 (20241206.2353)
 -->
<!-- Title: src/widgets/ButtonWidget.cpp Pages: 1 -->
<svg width="848pt" height="193pt"
 viewBox="0.00 0.00 847.88 193.00" xmlns="http://www.w3.org/2000/svg" xmlns:xlink="http://www.w3.org/1999/xlink">
<g id="graph0" class="graph" transform="scale(1 1) rotate(0) translate(4 189)">
<title>src/widgets/ButtonWidget.cpp</title>
<!-- Node1 -->
<g id="Node000001" class="node">
<title>Node1</title>
<g id="a_Node000001"><a xlink:title="Implements the ButtonWidget class, representing a physical button with LED indicators.">
<polygon fill="#999999" stroke="#666666" points="452.5,-185 305.25,-185 305.25,-165.75 452.5,-165.75 452.5,-185"/>
<text text-anchor="middle" x="378.88" y="-171.5" font-family="Helvetica,sans-Serif" font-size="10.00">src/widgets/ButtonWidget.cpp</text>
</a>
</g>
</g>
<!-- Node2 -->
<g id="Node000002" class="node">
<title>Node2</title>
<g id="a_Node000002"><a xlink:href="_widget_8h.html" target="_top" xlink:title="Abstract base class for UI widgets in the JMR800&#45;V2 OLED interface.">
<polygon fill="white" stroke="#666666" points="91.75,-74.5 0,-74.5 0,-55.25 91.75,-55.25 91.75,-74.5"/>
<text text-anchor="middle" x="45.88" y="-61" font-family="Helvetica,sans-Serif" font-size="10.00">widgets/Widget.h</text>
</a>
</g>
</g>
<!-- Node1&#45;&gt;Node2 -->
<g id="edge1_Node000001_Node000002" class="edge">
<title>Node1&#45;&gt;Node2</title>
<g id="a_edge1_Node000001_Node000002"><a xlink:title=" ">
<path fill="none" stroke="#63b8ff" d="M326.89,-165.3C287.59,-157.73 232.6,-145.63 185.88,-129.75 145.23,-115.94 100.46,-94.3 72.75,-80.1"/>
<polygon fill="#63b8ff" stroke="#63b8ff" points="74.5,-77.07 64.01,-75.58 71.28,-83.28 74.5,-77.07"/>
</a>
</g>
</g>
<!-- Node3 -->
<g id="Node000003" class="node">
<title>Node3</title>
<g id="a_Node000003"><a xlink:href="_button_widget_8h.html" target="_top" xlink:title="Represents an on&#45;screen button widget with LED state indicators.">
<polygon fill="white" stroke="#666666" points="315,-129.75 194.75,-129.75 194.75,-110.5 315,-110.5 315,-129.75"/>
<text text-anchor="middle" x="254.88" y="-116.25" font-family="Helvetica,sans-Serif" font-size="10.00">widgets/ButtonWidget.h</text>
</a>
</g>
</g>
<!-- Node1&#45;&gt;Node3 -->
<g id="edge2_Node000001_Node000003" class="edge">
<title>Node1&#45;&gt;Node3</title>
<g id="a_edge2_Node000001_Node000003"><a xlink:title=" ">
<path fill="none" stroke="#63b8ff" d="M357.84,-165.34C338.24,-156.93 308.77,-144.27 286.37,-134.65"/>
<polygon fill="#63b8ff" stroke="#63b8ff" points="287.97,-131.53 277.4,-130.8 285.21,-137.96 287.97,-131.53"/>
</a>
</g>
</g>
<!-- Node6 -->
<g id="Node000006" class="node">
<title>Node6</title>
<g id="a_Node000006"><a xlink:href="_screen_manager_8h.html" target="_top" xlink:title="Declares the ScreenManager class responsible for UI screen control on the OLED display.">
<polygon fill="white" stroke="#666666" points="424.75,-129.75 333,-129.75 333,-110.5 424.75,-110.5 424.75,-129.75"/>
<text text-anchor="middle" x="378.88" y="-116.25" font-family="Helvetica,sans-Serif" font-size="10.00">ScreenManager.h</text>
</a>
</g>
</g>
<!-- Node1&#45;&gt;Node6 -->
<g id="edge6_Node000001_Node000006" class="edge">
<title>Node1&#45;&gt;Node6</title>
<g id="a_edge6_Node000001_Node000006"><a xlink:title=" ">
<path fill="none" stroke="#63b8ff" d="M378.88,-165.58C378.88,-159.07 378.88,-149.92 378.88,-141.62"/>
<polygon fill="#63b8ff" stroke="#63b8ff" points="382.38,-141.62 378.88,-131.62 375.38,-141.62 382.38,-141.62"/>
</a>
</g>
</g>
<!-- Node8 -->
<g id="Node000008" class="node">
<title>Node8</title>
<g id="a_Node000008"><a xlink:href="_logging_8h.html" target="_top" xlink:title="Lightweight logging utility for serial output in the JMR800&#45;V2 project.">
<polygon fill="white" stroke="#666666" points="839.88,-74.5 781.88,-74.5 781.88,-55.25 839.88,-55.25 839.88,-74.5"/>
<text text-anchor="middle" x="810.88" y="-61" font-family="Helvetica,sans-Serif" font-size="10.00">Logging.h</text>
</a>
</g>
</g>
<!-- Node1&#45;&gt;Node8 -->
<g id="edge9_Node000001_Node000008" class="edge">
<title>Node1&#45;&gt;Node8</title>
<g id="a_edge9_Node000001_Node000008"><a xlink:title=" ">
<path fill="none" stroke="#63b8ff" d="M430.06,-165.3C474.63,-157.07 540.86,-144.08 597.88,-129.75 659.61,-114.24 730.18,-92.21 772.6,-78.49"/>
<polygon fill="#63b8ff" stroke="#63b8ff" points="773.65,-81.83 782.08,-75.41 771.49,-75.17 773.65,-81.83"/>
</a>
</g>
</g>
<!-- Node11 -->
<g id="Node000011" class="node">
<title>Node11</title>
<g id="a_Node000011"><a xlink:href="_hardware_manager_8h.html" target="_top" xlink:title="Manages hardware input/output for analog controls, digital buttons, encoder, and serial communication...">
<polygon fill="white" stroke="#666666" points="588.38,-129.75 485.38,-129.75 485.38,-110.5 588.38,-110.5 588.38,-129.75"/>
<text text-anchor="middle" x="536.88" y="-116.25" font-family="Helvetica,sans-Serif" font-size="10.00">HardwareManager.h</text>
</a>
</g>
</g>
<!-- Node1&#45;&gt;Node11 -->
<g id="edge12_Node000001_Node000011" class="edge">
<title>Node1&#45;&gt;Node11</title>
<g id="a_edge12_Node000001_Node000011"><a xlink:title=" ">
<path fill="none" stroke="#63b8ff" d="M405.68,-165.34C431.33,-156.7 470.26,-143.57 499.06,-133.87"/>
<polygon fill="#63b8ff" stroke="#63b8ff" points="500.15,-137.2 508.51,-130.69 497.91,-130.56 500.15,-137.2"/>
</a>
</g>
</g>
<!-- Node3&#45;&gt;Node2 -->
<g id="edge3_Node000003_Node000002" class="edge">
<title>Node3&#45;&gt;Node2</title>
<g id="a_edge3_Node000003_Node000002"><a xlink:title=" ">
<path fill="none" stroke="#63b8ff" d="M219.42,-110.09C184.44,-101.18 130.78,-87.51 92.39,-77.73"/>
<polygon fill="#63b8ff" stroke="#63b8ff" points="93.52,-74.4 82.97,-75.33 91.8,-81.19 93.52,-74.4"/>
</a>
</g>
</g>
<!-- Node4 -->
<g id="Node000004" class="node">
<title>Node4</title>
<g id="a_Node000004"><a xlink:title=" ">
<polygon fill="#e0e0e0" stroke="#999999" points="303.62,-74.5 220.12,-74.5 220.12,-55.25 303.62,-55.25 303.62,-74.5"/>
<text text-anchor="middle" x="261.88" y="-61" font-family="Helvetica,sans-Serif" font-size="10.00">Adafruit_GFX.h</text>
</a>
</g>
</g>
<!-- Node3&#45;&gt;Node4 -->
<g id="edge4_Node000003_Node000004" class="edge">
<title>Node3&#45;&gt;Node4</title>
<g id="a_edge4_Node000003_Node000004"><a xlink:title=" ">
<path fill="none" stroke="#63b8ff" d="M256.03,-110.33C256.9,-103.74 258.12,-94.46 259.22,-86.07"/>
<polygon fill="#63b8ff" stroke="#63b8ff" points="262.66,-86.73 260.5,-76.36 255.72,-85.82 262.66,-86.73"/>
</a>
</g>
</g>
<!-- Node5 -->
<g id="Node000005" class="node">
<title>Node5</title>
<g id="a_Node000005"><a xlink:title=" ">
<polygon fill="#e0e0e0" stroke="#999999" points="421.88,-74.5 321.88,-74.5 321.88,-55.25 421.88,-55.25 421.88,-74.5"/>
<text text-anchor="middle" x="371.88" y="-61" font-family="Helvetica,sans-Serif" font-size="10.00">Adafruit_SH110X.h</text>
</a>
</g>
</g>
<!-- Node3&#45;&gt;Node5 -->
<g id="edge5_Node000003_Node000005" class="edge">
<title>Node3&#45;&gt;Node5</title>
<g id="a_edge5_Node000003_Node000005"><a xlink:title=" ">
<path fill="none" stroke="#63b8ff" d="M274.72,-110.09C293.04,-101.75 320.52,-89.25 341.58,-79.66"/>
<polygon fill="#63b8ff" stroke="#63b8ff" points="342.9,-82.91 350.55,-75.58 340,-76.54 342.9,-82.91"/>
</a>
</g>
</g>
<!-- Node6&#45;&gt;Node5 -->
<g id="edge7_Node000006_Node000005" class="edge">
<title>Node6&#45;&gt;Node5</title>
<g id="a_edge7_Node000006_Node000005"><a xlink:title=" ">
<path fill="none" stroke="#63b8ff" d="M377.72,-110.33C376.85,-103.74 375.63,-94.46 374.53,-86.07"/>
<polygon fill="#63b8ff" stroke="#63b8ff" points="378.03,-85.82 373.25,-76.36 371.09,-86.73 378.03,-85.82"/>
</a>
</g>
</g>
<!-- Node7 -->
<g id="Node000007" class="node">
<title>Node7</title>
<g id="a_Node000007"><a xlink:href="_screen_8h.html" target="_top" xlink:title="Abstract interface for all UI screens in the JMR800&#45;V2 system.">
<polygon fill="white" stroke="#666666" points="202.12,-74.5 109.62,-74.5 109.62,-55.25 202.12,-55.25 202.12,-74.5"/>
<text text-anchor="middle" x="155.88" y="-61" font-family="Helvetica,sans-Serif" font-size="10.00">screens/Screen.h</text>
</a>
</g>
</g>
<!-- Node6&#45;&gt;Node7 -->
<g id="edge8_Node000006_Node000007" class="edge">
<title>Node6&#45;&gt;Node7</title>
<g id="a_edge8_Node000006_Node000007"><a xlink:title=" ">
<path fill="none" stroke="#63b8ff" d="M340.79,-110.03C303.27,-101.07 245.78,-87.34 204.87,-77.57"/>
<polygon fill="#63b8ff" stroke="#63b8ff" points="205.81,-74.2 195.27,-75.28 204.19,-81.01 205.81,-74.2"/>
</a>
</g>
</g>
<!-- Node9 -->
<g id="Node000009" class="node">
<title>Node9</title>
<g id="a_Node000009"><a xlink:title=" ">
<polygon fill="#e0e0e0" stroke="#999999" points="716.5,-19.25 659.25,-19.25 659.25,0 716.5,0 716.5,-19.25"/>
<text text-anchor="middle" x="687.88" y="-5.75" font-family="Helvetica,sans-Serif" font-size="10.00">Arduino.h</text>
</a>
</g>
</g>
<!-- Node8&#45;&gt;Node9 -->
<g id="edge10_Node000008_Node000009" class="edge">
<title>Node8&#45;&gt;Node9</title>
<g id="a_edge10_Node000008_Node000009"><a xlink:title=" ">
<path fill="none" stroke="#63b8ff" d="M790.01,-54.84C770.57,-46.43 741.33,-33.77 719.11,-24.15"/>
<polygon fill="#63b8ff" stroke="#63b8ff" points="720.8,-21.06 710.23,-20.3 718.02,-27.49 720.8,-21.06"/>
</a>
</g>
</g>
<!-- Node10 -->
<g id="Node000010" class="node">
<title>Node10</title>
<g id="a_Node000010"><a xlink:href="defines_8h.html" target="_top" xlink:title="Hardware pin definitions and global constants for JMR800&#45;V2.">
<polygon fill="white" stroke="#666666" points="620.75,-19.25 565,-19.25 565,0 620.75,0 620.75,-19.25"/>
<text text-anchor="middle" x="592.88" y="-5.75" font-family="Helvetica,sans-Serif" font-size="10.00">defines.h</text>
</a>
</g>
</g>
<!-- Node8&#45;&gt;Node10 -->
<g id="edge11_Node000008_Node000010" class="edge">
<title>Node8&#45;&gt;Node10</title>
<g id="a_edge11_Node000008_Node000010"><a xlink:title=" ">
<path fill="none" stroke="#63b8ff" d="M781.47,-56.69C742.94,-47.28 675.21,-30.74 632.26,-20.25"/>
<polygon fill="#63b8ff" stroke="#63b8ff" points="633.14,-16.86 622.59,-17.88 631.47,-23.66 633.14,-16.86"/>
</a>
</g>
</g>
<!-- Node11&#45;&gt;Node4 -->
<g id="edge14_Node000011_Node000004" class="edge">
<title>Node11&#45;&gt;Node4</title>
<g id="a_edge14_Node000011_Node000004"><a xlink:title=" ">
<path fill="none" stroke="#63b8ff" d="M489.91,-110.03C441.28,-100.61 365.45,-85.93 314.74,-76.11"/>
<polygon fill="#63b8ff" stroke="#63b8ff" points="315.66,-72.72 305.17,-74.26 314.33,-79.6 315.66,-72.72"/>
</a>
</g>
</g>
<!-- Node11&#45;&gt;Node5 -->
<g id="edge15_Node000011_Node000005" class="edge">
<title>Node11&#45;&gt;Node5</title>
<g id="a_edge15_Node000011_Node000005"><a xlink:title=" ">
<path fill="none" stroke="#63b8ff" d="M508.88,-110.09C481.86,-101.37 440.72,-88.09 410.57,-78.36"/>
<polygon fill="#63b8ff" stroke="#63b8ff" points="412.03,-75.16 401.44,-75.42 409.88,-81.82 412.03,-75.16"/>
</a>
</g>
</g>
<!-- Node11&#45;&gt;Node8 -->
<g id="edge21_Node000011_Node000008" class="edge">
<title>Node11&#45;&gt;Node8</title>
<g id="a_edge21_Node000011_Node000008"><a xlink:title=" ">
<path fill="none" stroke="#63b8ff" d="M587.62,-110.08C633.05,-101.86 701.77,-89.12 770.42,-74.95"/>
<polygon fill="#63b8ff" stroke="#63b8ff" points="770.88,-78.43 779.96,-72.97 769.46,-71.58 770.88,-78.43"/>
</a>
</g>
</g>
<!-- Node11&#45;&gt;Node9 -->
<g id="edge13_Node000011_Node000009" class="edge">
<title>Node11&#45;&gt;Node9</title>
<g id="a_edge13_Node000011_Node000009"><a xlink:title=" ">
<path fill="none" stroke="#63b8ff" d="M541.77,-110.13C549.53,-96.6 565.85,-70.93 585.88,-55.25 604.36,-40.77 628.28,-29.98 648.3,-22.64"/>
<polygon fill="#63b8ff" stroke="#63b8ff" points="649.25,-26.02 657.54,-19.42 646.95,-19.41 649.25,-26.02"/>
</a>
</g>
</g>
<!-- Node11&#45;&gt;Node10 -->
<g id="edge20_Node000011_Node000010" class="edge">
<title>Node11&#45;&gt;Node10</title>
<g id="a_edge20_Node000011_Node000010"><a xlink:title=" ">
<path fill="none" stroke="#63b8ff" d="M514.1,-110.17C488.64,-98.8 452.95,-77.91 468.88,-55.25 487.84,-28.27 524.76,-17.52 553.4,-13.29"/>
<polygon fill="#63b8ff" stroke="#63b8ff" points="553.71,-16.77 563.2,-12.07 552.84,-9.83 553.71,-16.77"/>
</a>
</g>
</g>
<!-- Node12 -->
<g id="Node000012" class="node">
<title>Node12</title>
<g id="a_Node000012"><a xlink:title=" ">
<polygon fill="#e0e0e0" stroke="#999999" points="700.12,-74.5 655.62,-74.5 655.62,-55.25 700.12,-55.25 700.12,-74.5"/>
<text text-anchor="middle" x="677.88" y="-61" font-family="Helvetica,sans-Serif" font-size="10.00">Wire.h</text>
</a>
</g>
</g>
<!-- Node11&#45;&gt;Node12 -->
<g id="edge16_Node000011_Node000012" class="edge">
<title>Node11&#45;&gt;Node12</title>
<g id="a_edge16_Node000011_Node000012"><a xlink:title=" ">
<path fill="none" stroke="#63b8ff" d="M560.79,-110.09C583.79,-101.41 618.76,-88.2 644.49,-78.48"/>
<polygon fill="#63b8ff" stroke="#63b8ff" points="645.71,-81.77 653.82,-74.96 643.23,-75.22 645.71,-81.77"/>
</a>
</g>
</g>
<!-- Node13 -->
<g id="Node000013" class="node">
<title>Node13</title>
<g id="a_Node000013"><a xlink:title=" ">
<polygon fill="#e0e0e0" stroke="#999999" points="763.88,-74.5 717.88,-74.5 717.88,-55.25 763.88,-55.25 763.88,-74.5"/>
<text text-anchor="middle" x="740.88" y="-61" font-family="Helvetica,sans-Serif" font-size="10.00">ADC.h</text>
</a>
</g>
</g>
<!-- Node11&#45;&gt;Node13 -->
<g id="edge17_Node000011_Node000013" class="edge">
<title>Node11&#45;&gt;Node13</title>
<g id="a_edge17_Node000011_Node000013"><a xlink:title=" ">
<path fill="none" stroke="#63b8ff" d="M572.15,-110.08C604.62,-101.72 654.43,-88.86 706.36,-75.15"/>
<polygon fill="#63b8ff" stroke="#63b8ff" points="707.23,-78.54 716,-72.6 705.44,-71.77 707.23,-78.54"/>
</a>
</g>
</g>
<!-- Node14 -->
<g id="Node000014" class="node">
<title>Node14</title>
<g id="a_Node000014"><a xlink:title=" ">
<polygon fill="#e0e0e0" stroke="#999999" points="537.62,-74.5 478.12,-74.5 478.12,-55.25 537.62,-55.25 537.62,-74.5"/>
<text text-anchor="middle" x="507.88" y="-61" font-family="Helvetica,sans-Serif" font-size="10.00">Encoder.h</text>
</a>
</g>
</g>
<!-- Node11&#45;&gt;Node14 -->
<g id="edge18_Node000011_Node000014" class="edge">
<title>Node11&#45;&gt;Node14</title>
<g id="a_edge18_Node000011_Node000014"><a xlink:title=" ">
<path fill="none" stroke="#63b8ff" d="M532.09,-110.33C528.33,-103.44 522.97,-93.59 518.24,-84.91"/>
<polygon fill="#63b8ff" stroke="#63b8ff" points="521.35,-83.3 513.49,-76.19 515.2,-86.64 521.35,-83.3"/>
</a>
</g>
</g>
<!-- Node15 -->
<g id="Node000015" class="node">
<title>Node15</title>
<g id="a_Node000015"><a xlink:title=" ">
<polygon fill="#e0e0e0" stroke="#999999" points="637.38,-74.5 594.38,-74.5 594.38,-55.25 637.38,-55.25 637.38,-74.5"/>
<text text-anchor="middle" x="615.88" y="-61" font-family="Helvetica,sans-Serif" font-size="10.00">vector</text>
</a>
</g>
</g>
<!-- Node11&#45;&gt;Node15 -->
<g id="edge19_Node000011_Node000015" class="edge">
<title>Node11&#45;&gt;Node15</title>
<g id="a_edge19_Node000011_Node000015"><a xlink:title=" ">
<path fill="none" stroke="#63b8ff" d="M550.28,-110.09C561.97,-102.21 579.18,-90.61 593.04,-81.27"/>
<polygon fill="#63b8ff" stroke="#63b8ff" points="594.82,-84.29 601.15,-75.8 590.9,-78.49 594.82,-84.29"/>
</a>
</g>
</g>
</g>
</svg>
