<?xml version="1.0" encoding="UTF-8" standalone="no"?>
<!DOCTYPE svg PUBLIC "-//W3C//DTD SVG 1.1//EN"
 "http://www.w3.org/Graphics/SVG/1.1/DTD/svg11.dtd">
<!-- Generated by graphviz version 12.2.1 (20241206.2353)
 -->
<!-- Title: include/widgets/ButtonWidget.h Pages: 1 -->
<svg width="320pt" height="83pt"
 viewBox="0.00 0.00 319.88 82.50" xmlns="http://www.w3.org/2000/svg" xmlns:xlink="http://www.w3.org/1999/xlink">
<g id="graph0" class="graph" transform="scale(1 1) rotate(0) translate(4 78.5)">
<title>include/widgets/ButtonWidget.h</title>
<!-- Node1 -->
<g id="Node000001" class="node">
<title>Node1</title>
<g id="a_Node000001"><a xlink:title="Represents an on&#45;screen button widget with LED state indicators.">
<polygon fill="#999999" stroke="#666666" points="228.88,-74.5 74.88,-74.5 74.88,-55.25 228.88,-55.25 228.88,-74.5"/>
<text text-anchor="middle" x="151.88" y="-61" font-family="Helvetica,sans-Serif" font-size="10.00">include/widgets/ButtonWidget.h</text>
</a>
</g>
</g>
<!-- Node2 -->
<g id="Node000002" class="node">
<title>Node2</title>
<g id="a_Node000002"><a xlink:href="_widget_8h.html" target="_top" xlink:title="Abstract base class for UI widgets in the JMR800&#45;V2 OLED interface.">
<polygon fill="white" stroke="#666666" points="91.75,-19.25 0,-19.25 0,0 91.75,0 91.75,-19.25"/>
<text text-anchor="middle" x="45.88" y="-5.75" font-family="Helvetica,sans-Serif" font-size="10.00">widgets/Widget.h</text>
</a>
</g>
</g>
<!-- Node1&#45;&gt;Node2 -->
<g id="edge1_Node000001_Node000002" class="edge">
<title>Node1&#45;&gt;Node2</title>
<g id="a_edge1_Node000001_Node000002"><a xlink:title=" ">
<path fill="none" stroke="#63b8ff" d="M133.89,-54.84C117.52,-46.62 93.09,-34.34 74.11,-24.81"/>
<polygon fill="#63b8ff" stroke="#63b8ff" points="75.8,-21.74 65.3,-20.38 72.66,-28 75.8,-21.74"/>
</a>
</g>
</g>
<!-- Node3 -->
<g id="Node000003" class="node">
<title>Node3</title>
<g id="a_Node000003"><a xlink:title=" ">
<polygon fill="#e0e0e0" stroke="#999999" points="193.62,-19.25 110.12,-19.25 110.12,0 193.62,0 193.62,-19.25"/>
<text text-anchor="middle" x="151.88" y="-5.75" font-family="Helvetica,sans-Serif" font-size="10.00">Adafruit_GFX.h</text>
</a>
</g>
</g>
<!-- Node1&#45;&gt;Node3 -->
<g id="edge2_Node000001_Node000003" class="edge">
<title>Node1&#45;&gt;Node3</title>
<g id="a_edge2_Node000001_Node000003"><a xlink:title=" ">
<path fill="none" stroke="#63b8ff" d="M151.88,-55.08C151.88,-48.57 151.88,-39.42 151.88,-31.12"/>
<polygon fill="#63b8ff" stroke="#63b8ff" points="155.38,-31.12 151.88,-21.12 148.38,-31.12 155.38,-31.12"/>
</a>
</g>
</g>
<!-- Node4 -->
<g id="Node000004" class="node">
<title>Node4</title>
<g id="a_Node000004"><a xlink:title=" ">
<polygon fill="#e0e0e0" stroke="#999999" points="311.88,-19.25 211.88,-19.25 211.88,0 311.88,0 311.88,-19.25"/>
<text text-anchor="middle" x="261.88" y="-5.75" font-family="Helvetica,sans-Serif" font-size="10.00">Adafruit_SH110X.h</text>
</a>
</g>
</g>
<!-- Node1&#45;&gt;Node4 -->
<g id="edge3_Node000001_Node000004" class="edge">
<title>Node1&#45;&gt;Node4</title>
<g id="a_edge3_Node000001_Node000004"><a xlink:title=" ">
<path fill="none" stroke="#63b8ff" d="M170.54,-54.84C187.6,-46.58 213.12,-34.23 232.85,-24.68"/>
<polygon fill="#63b8ff" stroke="#63b8ff" points="234.29,-27.87 241.76,-20.36 231.24,-21.57 234.29,-27.87"/>
</a>
</g>
</g>
</g>
</svg>
