<?xml version="1.0" encoding="UTF-8" standalone="no"?>
<!DOCTYPE svg PUBLIC "-//W3C//DTD SVG 1.1//EN"
 "http://www.w3.org/Graphics/SVG/1.1/DTD/svg11.dtd">
<!-- Generated by graphviz version 12.2.1 (20241206.2353)
 -->
<!-- Title: include/widgets/ButtonWidget.h Pages: 1 -->
<svg width="552pt" height="160pt"
 viewBox="0.00 0.00 551.62 160.25" xmlns="http://www.w3.org/2000/svg" xmlns:xlink="http://www.w3.org/1999/xlink">
<g id="graph0" class="graph" transform="scale(1 1) rotate(0) translate(4 156.25)">
<title>include/widgets/ButtonWidget.h</title>
<!-- Node1 -->
<g id="Node000001" class="node">
<title>Node1</title>
<g id="a_Node000001"><a xlink:title="Represents an on&#45;screen button widget with LED state indicators.">
<polygon fill="#999999" stroke="#666666" points="445,-152.25 291,-152.25 291,-133 445,-133 445,-152.25"/>
<text text-anchor="middle" x="368" y="-138.75" font-family="Helvetica,sans-Serif" font-size="10.00">include/widgets/ButtonWidget.h</text>
</a>
</g>
</g>
<!-- Node2 -->
<g id="Node000002" class="node">
<title>Node2</title>
<g id="a_Node000002"><a xlink:href="_shared_control_screen_utility_8h.html" target="_top" xlink:title="Provides utility functions for initializing common screen layouts.">
<polygon fill="white" stroke="#666666" points="328.75,-97 179.25,-97 179.25,-66.5 328.75,-66.5 328.75,-97"/>
<text text-anchor="start" x="187.25" y="-83.5" font-family="Helvetica,sans-Serif" font-size="10.00">include/screens/SharedControl</text>
<text text-anchor="middle" x="254" y="-72.25" font-family="Helvetica,sans-Serif" font-size="10.00">ScreenUtility.h</text>
</a>
</g>
</g>
<!-- Node1&#45;&gt;Node2 -->
<g id="edge1_Node000001_Node000002" class="edge">
<title>Node1&#45;&gt;Node2</title>
<g id="a_edge1_Node000001_Node000002"><a xlink:title=" ">
<path fill="none" stroke="#63b8ff" d="M340.95,-127.66C323.22,-118.5 300.09,-106.55 282.14,-97.28"/>
<polygon fill="#63b8ff" stroke="#63b8ff" points="338.85,-130.51 349.34,-131.99 342.06,-124.29 338.85,-130.51"/>
</a>
</g>
</g>
<!-- Node4 -->
<g id="Node000004" class="node">
<title>Node4</title>
<g id="a_Node000004"><a xlink:href="_controls_test_screen_8cpp.html" target="_top" xlink:title="Implements a screen for testing all physical controls: knobs, buttons, and encoder.">
<polygon fill="white" stroke="#666666" points="441.75,-30.5 316.25,-30.5 316.25,0 441.75,0 441.75,-30.5"/>
<text text-anchor="start" x="324.25" y="-17" font-family="Helvetica,sans-Serif" font-size="10.00">src/screens/ControlsTest</text>
<text text-anchor="middle" x="379" y="-5.75" font-family="Helvetica,sans-Serif" font-size="10.00">Screen.cpp</text>
</a>
</g>
</g>
<!-- Node1&#45;&gt;Node4 -->
<g id="edge5_Node000001_Node000004" class="edge">
<title>Node1&#45;&gt;Node4</title>
<g id="a_edge5_Node000001_Node000004"><a xlink:title=" ">
<path fill="none" stroke="#63b8ff" d="M369.77,-121.44C372,-96.07 375.76,-53.17 377.72,-30.8"/>
<polygon fill="#63b8ff" stroke="#63b8ff" points="366.31,-120.83 368.92,-131.1 373.28,-121.44 366.31,-120.83"/>
</a>
</g>
</g>
<!-- Node6 -->
<g id="Node000006" class="node">
<title>Node6</title>
<g id="a_Node000006"><a xlink:href="_button_widget_8cpp.html" target="_top" xlink:title="Implements the ButtonWidget class, representing a physical button with LED indicators.">
<polygon fill="white" stroke="#666666" points="543.62,-91.38 396.38,-91.38 396.38,-72.12 543.62,-72.12 543.62,-91.38"/>
<text text-anchor="middle" x="470" y="-77.88" font-family="Helvetica,sans-Serif" font-size="10.00">src/widgets/ButtonWidget.cpp</text>
</a>
</g>
</g>
<!-- Node1&#45;&gt;Node6 -->
<g id="edge6_Node000001_Node000006" class="edge">
<title>Node1&#45;&gt;Node6</title>
<g id="a_edge6_Node000001_Node000006"><a xlink:title=" ">
<path fill="none" stroke="#63b8ff" d="M393.35,-126.99C412.48,-115.95 438.13,-101.15 454.36,-91.78"/>
<polygon fill="#63b8ff" stroke="#63b8ff" points="391.71,-123.9 384.8,-131.93 395.21,-129.96 391.71,-123.9"/>
</a>
</g>
</g>
<!-- Node3 -->
<g id="Node000003" class="node">
<title>Node3</title>
<g id="a_Node000003"><a xlink:href="_config_screen_8cpp.html" target="_top" xlink:title="Implements the configuration screen for knob mapping and diagnostics.">
<polygon fill="white" stroke="#666666" points="148,-24.88 0,-24.88 0,-5.63 148,-5.63 148,-24.88"/>
<text text-anchor="middle" x="74" y="-11.38" font-family="Helvetica,sans-Serif" font-size="10.00">src/screens/ConfigScreen.cpp</text>
</a>
</g>
</g>
<!-- Node2&#45;&gt;Node3 -->
<g id="edge2_Node000002_Node000003" class="edge">
<title>Node2&#45;&gt;Node3</title>
<g id="a_edge2_Node000002_Node000003"><a xlink:title=" ">
<path fill="none" stroke="#63b8ff" d="M202.54,-62.31C168.77,-50.21 126.09,-34.91 99.41,-25.35"/>
<polygon fill="#63b8ff" stroke="#63b8ff" points="201.14,-65.52 211.73,-65.6 203.5,-58.94 201.14,-65.52"/>
</a>
</g>
</g>
<!-- Node2&#45;&gt;Node4 -->
<g id="edge3_Node000002_Node000004" class="edge">
<title>Node2&#45;&gt;Node4</title>
<g id="a_edge3_Node000002_Node000004"><a xlink:title=" ">
<path fill="none" stroke="#63b8ff" d="M292.42,-60.93C311.24,-51.21 333.51,-39.72 350.75,-30.83"/>
<polygon fill="#63b8ff" stroke="#63b8ff" points="290.99,-57.72 283.71,-65.42 294.2,-63.94 290.99,-57.72"/>
</a>
</g>
</g>
<!-- Node5 -->
<g id="Node000005" class="node">
<title>Node5</title>
<g id="a_Node000005"><a xlink:href="_shared_control_screen_utility_8cpp.html" target="_top" xlink:title="Provides layout helper utilities for constructing shared UI control screens.">
<polygon fill="white" stroke="#666666" points="298.12,-30.5 165.88,-30.5 165.88,0 298.12,0 298.12,-30.5"/>
<text text-anchor="start" x="173.88" y="-17" font-family="Helvetica,sans-Serif" font-size="10.00">src/screens/SharedControl</text>
<text text-anchor="middle" x="232" y="-5.75" font-family="Helvetica,sans-Serif" font-size="10.00">ScreenUtility.cpp</text>
</a>
</g>
</g>
<!-- Node2&#45;&gt;Node5 -->
<g id="edge4_Node000002_Node000005" class="edge">
<title>Node2&#45;&gt;Node5</title>
<g id="a_edge4_Node000002_Node000005"><a xlink:title=" ">
<path fill="none" stroke="#63b8ff" d="M245.35,-55.38C242.5,-47.05 239.44,-38.08 236.97,-30.83"/>
<polygon fill="#63b8ff" stroke="#63b8ff" points="241.98,-56.35 248.52,-64.68 248.6,-54.09 241.98,-56.35"/>
</a>
</g>
</g>
</g>
</svg>
