<?xml version="1.0" encoding="UTF-8" standalone="no"?>
<!DOCTYPE svg PUBLIC "-//W3C//DTD SVG 1.1//EN"
 "http://www.w3.org/Graphics/SVG/1.1/DTD/svg11.dtd">
<!-- Generated by graphviz version 12.2.1 (20241206.2353)
 -->
<!-- Title: include/modes/ConfigMode.h Pages: 1 -->
<svg width="234pt" height="83pt"
 viewBox="0.00 0.00 234.12 82.50" xmlns="http://www.w3.org/2000/svg" xmlns:xlink="http://www.w3.org/1999/xlink">
<g id="graph0" class="graph" transform="scale(1 1) rotate(0) translate(4 78.5)">
<title>include/modes/ConfigMode.h</title>
<!-- Node1 -->
<g id="Node000001" class="node">
<title>Node1</title>
<g id="a_Node000001"><a xlink:title="Application mode for accessing and modifying system configuration.">
<polygon fill="#999999" stroke="#666666" points="168.5,-74.5 25.75,-74.5 25.75,-55.25 168.5,-55.25 168.5,-74.5"/>
<text text-anchor="middle" x="97.12" y="-61" font-family="Helvetica,sans-Serif" font-size="10.00">include/modes/ConfigMode.h</text>
</a>
</g>
</g>
<!-- Node2 -->
<g id="Node000002" class="node">
<title>Node2</title>
<g id="a_Node000002"><a xlink:href="main_8cpp.html" target="_top" xlink:title="Entry point for the JMR800&#45;V2 firmware.">
<polygon fill="white" stroke="#666666" points="72.25,-19.25 0,-19.25 0,0 72.25,0 72.25,-19.25"/>
<text text-anchor="middle" x="36.12" y="-5.75" font-family="Helvetica,sans-Serif" font-size="10.00">src/main.cpp</text>
</a>
</g>
</g>
<!-- Node1&#45;&gt;Node2 -->
<g id="edge1_Node000001_Node000002" class="edge">
<title>Node1&#45;&gt;Node2</title>
<g id="a_edge1_Node000001_Node000002"><a xlink:title=" ">
<path fill="none" stroke="#63b8ff" d="M78.24,-47.39C67.7,-38.19 55,-27.1 46.32,-19.52"/>
<polygon fill="#63b8ff" stroke="#63b8ff" points="75.8,-49.91 85.64,-53.85 80.41,-44.63 75.8,-49.91"/>
</a>
</g>
</g>
<!-- Node3 -->
<g id="Node000003" class="node">
<title>Node3</title>
<g id="a_Node000003"><a xlink:href="_config_mode_8cpp.html" target="_top" xlink:title="Implements the System Configuration Mode for knob setup.">
<polygon fill="white" stroke="#666666" points="226.12,-19.25 90.12,-19.25 90.12,0 226.12,0 226.12,-19.25"/>
<text text-anchor="middle" x="158.12" y="-5.75" font-family="Helvetica,sans-Serif" font-size="10.00">src/modes/ConfigMode.cpp</text>
</a>
</g>
</g>
<!-- Node1&#45;&gt;Node3 -->
<g id="edge2_Node000001_Node000003" class="edge">
<title>Node1&#45;&gt;Node3</title>
<g id="a_edge2_Node000001_Node000003"><a xlink:title=" ">
<path fill="none" stroke="#63b8ff" d="M116.01,-47.39C126.55,-38.19 139.25,-27.1 147.93,-19.52"/>
<polygon fill="#63b8ff" stroke="#63b8ff" points="113.84,-44.63 108.61,-53.85 118.45,-49.91 113.84,-44.63"/>
</a>
</g>
</g>
</g>
</svg>
