<?xml version="1.0" encoding="UTF-8" standalone="no"?>
<!DOCTYPE svg PUBLIC "-//W3C//DTD SVG 1.1//EN"
 "http://www.w3.org/Graphics/SVG/1.1/DTD/svg11.dtd">
<!-- Generated by graphviz version 12.2.1 (20241206.2353)
 -->
<!-- Title: include/modes/ConfigMode.h Pages: 1 -->
<svg width="643pt" height="248pt"
 viewBox="0.00 0.00 642.62 248.25" xmlns="http://www.w3.org/2000/svg" xmlns:xlink="http://www.w3.org/1999/xlink">
<g id="graph0" class="graph" transform="scale(1 1) rotate(0) translate(4 244.25)">
<title>include/modes/ConfigMode.h</title>
<!-- Node1 -->
<g id="Node000001" class="node">
<title>Node1</title>
<g id="a_Node000001"><a xlink:title="Application mode for accessing and modifying system configuration.">
<polygon fill="#999999" stroke="#666666" points="183.25,-240.25 40.5,-240.25 40.5,-221 183.25,-221 183.25,-240.25"/>
<text text-anchor="middle" x="111.88" y="-226.75" font-family="Helvetica,sans-Serif" font-size="10.00">include/modes/ConfigMode.h</text>
</a>
</g>
</g>
<!-- Node2 -->
<g id="Node000002" class="node">
<title>Node2</title>
<g id="a_Node000002"><a xlink:href="_app_mode_8h.html" target="_top" xlink:title="Abstract interface for application mode behavior.">
<polygon fill="white" stroke="#666666" points="97.75,-185 0,-185 0,-165.75 97.75,-165.75 97.75,-185"/>
<text text-anchor="middle" x="48.88" y="-171.5" font-family="Helvetica,sans-Serif" font-size="10.00">modes/AppMode.h</text>
</a>
</g>
</g>
<!-- Node1&#45;&gt;Node2 -->
<g id="edge1_Node000001_Node000002" class="edge">
<title>Node1&#45;&gt;Node2</title>
<g id="a_edge1_Node000001_Node000002"><a xlink:title=" ">
<path fill="none" stroke="#63b8ff" d="M101.19,-220.59C92.17,-212.97 79.04,-201.87 68.19,-192.7"/>
<polygon fill="#63b8ff" stroke="#63b8ff" points="70.46,-190.03 60.56,-186.25 65.94,-195.38 70.46,-190.03"/>
</a>
</g>
</g>
<!-- Node4 -->
<g id="Node000004" class="node">
<title>Node4</title>
<g id="a_Node000004"><a xlink:href="_config_screen_8h.html" target="_top" xlink:title="Screen for accessing and modifying configuration settings.">
<polygon fill="white" stroke="#666666" points="269.38,-185 148.38,-185 148.38,-165.75 269.38,-165.75 269.38,-185"/>
<text text-anchor="middle" x="208.88" y="-171.5" font-family="Helvetica,sans-Serif" font-size="10.00">screens/ConfigScreen.h</text>
</a>
</g>
</g>
<!-- Node1&#45;&gt;Node4 -->
<g id="edge3_Node000001_Node000004" class="edge">
<title>Node1&#45;&gt;Node4</title>
<g id="a_edge3_Node000001_Node000004"><a xlink:title=" ">
<path fill="none" stroke="#63b8ff" d="M128.33,-220.59C143.1,-212.48 165.05,-200.43 182.31,-190.96"/>
<polygon fill="#63b8ff" stroke="#63b8ff" points="183.93,-194.06 191.01,-186.18 180.56,-187.93 183.93,-194.06"/>
</a>
</g>
</g>
<!-- Node3 -->
<g id="Node000003" class="node">
<title>Node3</title>
<g id="a_Node000003"><a xlink:href="_screen_8h.html" target="_top" xlink:title="Abstract interface for all UI screens in the JMR800&#45;V2 system.">
<polygon fill="white" stroke="#666666" points="483.12,-19.25 390.62,-19.25 390.62,0 483.12,0 483.12,-19.25"/>
<text text-anchor="middle" x="436.88" y="-5.75" font-family="Helvetica,sans-Serif" font-size="10.00">screens/Screen.h</text>
</a>
</g>
</g>
<!-- Node2&#45;&gt;Node3 -->
<g id="edge2_Node000002_Node000003" class="edge">
<title>Node2&#45;&gt;Node3</title>
<g id="a_edge2_Node000002_Node000003"><a xlink:title=" ">
<path fill="none" stroke="#63b8ff" d="M43.84,-165.58C37.39,-153.16 27.74,-129.83 33.88,-110.5 42.97,-81.85 47.08,-70.68 72.88,-55.25 123.19,-25.15 289.51,-15.26 378.88,-12.08"/>
<polygon fill="#63b8ff" stroke="#63b8ff" points="378.78,-15.59 388.66,-11.76 378.55,-8.59 378.78,-15.59"/>
</a>
</g>
</g>
<!-- Node4&#45;&gt;Node3 -->
<g id="edge8_Node000004_Node000003" class="edge">
<title>Node4&#45;&gt;Node3</title>
<g id="a_edge8_Node000004_Node000003"><a xlink:title=" ">
<path fill="none" stroke="#63b8ff" d="M269.68,-174.39C340.64,-170.66 454.55,-152.06 503.88,-74.5 516.59,-54.51 492.44,-36.36 469.67,-24.56"/>
<polygon fill="#63b8ff" stroke="#63b8ff" points="471.33,-21.48 460.8,-20.26 468.28,-27.77 471.33,-21.48"/>
</a>
</g>
</g>
<!-- Node5 -->
<g id="Node000005" class="node">
<title>Node5</title>
<g id="a_Node000005"><a xlink:title=" ">
<polygon fill="#e0e0e0" stroke="#999999" points="634.62,-129.75 551.12,-129.75 551.12,-110.5 634.62,-110.5 634.62,-129.75"/>
<text text-anchor="middle" x="592.88" y="-116.25" font-family="Helvetica,sans-Serif" font-size="10.00">Adafruit_GFX.h</text>
</a>
</g>
</g>
<!-- Node4&#45;&gt;Node5 -->
<g id="edge4_Node000004_Node000005" class="edge">
<title>Node4&#45;&gt;Node5</title>
<g id="a_edge4_Node000004_Node000005"><a xlink:title=" ">
<path fill="none" stroke="#63b8ff" d="M269.67,-166.43C335.55,-157.74 443.74,-143.26 536.88,-129.75 537.71,-129.63 538.56,-129.5 539.41,-129.38"/>
<polygon fill="#63b8ff" stroke="#63b8ff" points="539.82,-132.86 549.19,-127.93 538.79,-125.94 539.82,-132.86"/>
</a>
</g>
</g>
<!-- Node6 -->
<g id="Node000006" class="node">
<title>Node6</title>
<g id="a_Node000006"><a xlink:title=" ">
<polygon fill="#e0e0e0" stroke="#999999" points="142.88,-129.75 42.88,-129.75 42.88,-110.5 142.88,-110.5 142.88,-129.75"/>
<text text-anchor="middle" x="92.88" y="-116.25" font-family="Helvetica,sans-Serif" font-size="10.00">Adafruit_SH110X.h</text>
</a>
</g>
</g>
<!-- Node4&#45;&gt;Node6 -->
<g id="edge5_Node000004_Node000006" class="edge">
<title>Node4&#45;&gt;Node6</title>
<g id="a_edge5_Node000004_Node000006"><a xlink:title=" ">
<path fill="none" stroke="#63b8ff" d="M189.2,-165.34C171.03,-157 143.79,-144.5 122.91,-134.91"/>
<polygon fill="#63b8ff" stroke="#63b8ff" points="124.57,-131.83 114.02,-130.83 121.65,-138.19 124.57,-131.83"/>
</a>
</g>
</g>
<!-- Node7 -->
<g id="Node000007" class="node">
<title>Node7</title>
<g id="a_Node000007"><a xlink:title=" ">
<polygon fill="#e0e0e0" stroke="#999999" points="125.38,-74.5 82.38,-74.5 82.38,-55.25 125.38,-55.25 125.38,-74.5"/>
<text text-anchor="middle" x="103.88" y="-61" font-family="Helvetica,sans-Serif" font-size="10.00">vector</text>
</a>
</g>
</g>
<!-- Node4&#45;&gt;Node7 -->
<g id="edge6_Node000004_Node000007" class="edge">
<title>Node4&#45;&gt;Node7</title>
<g id="a_edge6_Node000004_Node000007"><a xlink:title=" ">
<path fill="none" stroke="#63b8ff" d="M201.38,-165.46C190.71,-152.9 170.39,-129.4 151.88,-110.5 142.44,-100.87 131.45,-90.59 122.38,-82.33"/>
<polygon fill="#63b8ff" stroke="#63b8ff" points="124.96,-79.95 115.19,-75.85 120.27,-85.15 124.96,-79.95"/>
</a>
</g>
</g>
<!-- Node8 -->
<g id="Node000008" class="node">
<title>Node8</title>
<g id="a_Node000008"><a xlink:href="_widget_8h.html" target="_top" xlink:title="Abstract base class for UI widgets in the JMR800&#45;V2 OLED interface.">
<polygon fill="white" stroke="#666666" points="234.75,-74.5 143,-74.5 143,-55.25 234.75,-55.25 234.75,-74.5"/>
<text text-anchor="middle" x="188.88" y="-61" font-family="Helvetica,sans-Serif" font-size="10.00">widgets/Widget.h</text>
</a>
</g>
</g>
<!-- Node4&#45;&gt;Node8 -->
<g id="edge7_Node000004_Node000008" class="edge">
<title>Node4&#45;&gt;Node8</title>
<g id="a_edge7_Node000004_Node000008"><a xlink:title=" ">
<path fill="none" stroke="#63b8ff" d="M207.24,-165.5C204.06,-148.25 196.98,-109.83 192.6,-86.06"/>
<polygon fill="#63b8ff" stroke="#63b8ff" points="196.06,-85.56 190.81,-76.37 189.18,-86.83 196.06,-85.56"/>
</a>
</g>
</g>
<!-- Node9 -->
<g id="Node000009" class="node">
<title>Node9</title>
<g id="a_Node000009"><a xlink:href="_knob_config_dialog_8h.html" target="_top" xlink:title="Modal dialog for editing knob assignments and configuration parameters.">
<polygon fill="white" stroke="#666666" points="377.12,-129.75 236.62,-129.75 236.62,-110.5 377.12,-110.5 377.12,-129.75"/>
<text text-anchor="middle" x="306.88" y="-116.25" font-family="Helvetica,sans-Serif" font-size="10.00">screens/KnobConfigDialog.h</text>
</a>
</g>
</g>
<!-- Node4&#45;&gt;Node9 -->
<g id="edge9_Node000004_Node000009" class="edge">
<title>Node4&#45;&gt;Node9</title>
<g id="a_edge9_Node000004_Node000009"><a xlink:title=" ">
<path fill="none" stroke="#63b8ff" d="M225.5,-165.34C240.56,-157.16 263.02,-144.96 280.53,-135.44"/>
<polygon fill="#63b8ff" stroke="#63b8ff" points="281.72,-138.77 288.84,-130.93 278.38,-132.62 281.72,-138.77"/>
</a>
</g>
</g>
<!-- Node9&#45;&gt;Node7 -->
<g id="edge10_Node000009_Node000007" class="edge">
<title>Node9&#45;&gt;Node7</title>
<g id="a_edge10_Node000009_Node000007"><a xlink:title=" ">
<path fill="none" stroke="#63b8ff" d="M270.35,-110.01C237.61,-101.78 188,-89.13 136.76,-75.24"/>
<polygon fill="#63b8ff" stroke="#63b8ff" points="137.84,-71.9 127.27,-72.65 136,-78.66 137.84,-71.9"/>
</a>
</g>
</g>
<!-- Node9&#45;&gt;Node8 -->
<g id="edge11_Node000009_Node000008" class="edge">
<title>Node9&#45;&gt;Node8</title>
<g id="a_edge11_Node000009_Node000008"><a xlink:title=" ">
<path fill="none" stroke="#63b8ff" d="M286.86,-110.09C268.38,-101.75 240.67,-89.25 219.43,-79.66"/>
<polygon fill="#63b8ff" stroke="#63b8ff" points="220.92,-76.5 210.37,-75.58 218.05,-82.88 220.92,-76.5"/>
</a>
</g>
</g>
<!-- Node10 -->
<g id="Node000010" class="node">
<title>Node10</title>
<g id="a_Node000010"><a xlink:href="_modal_dialog_8h.html" target="_top" xlink:title="Abstract base class for modal dialogs in the JMR800&#45;V2 UI.">
<polygon fill="white" stroke="#666666" points="494.75,-74.5 379,-74.5 379,-55.25 494.75,-55.25 494.75,-74.5"/>
<text text-anchor="middle" x="436.88" y="-61" font-family="Helvetica,sans-Serif" font-size="10.00">screens/ModalDialog.h</text>
</a>
</g>
</g>
<!-- Node9&#45;&gt;Node10 -->
<g id="edge12_Node000009_Node000010" class="edge">
<title>Node9&#45;&gt;Node10</title>
<g id="a_edge12_Node000009_Node000010"><a xlink:title=" ">
<path fill="none" stroke="#63b8ff" d="M328.93,-110.09C349.56,-101.64 380.66,-88.9 404.18,-79.27"/>
<polygon fill="#63b8ff" stroke="#63b8ff" points="405.39,-82.56 413.31,-75.53 402.73,-76.08 405.39,-82.56"/>
</a>
</g>
</g>
<!-- Node11 -->
<g id="Node000011" class="node">
<title>Node11</title>
<g id="a_Node000011"><a xlink:href="_i_widget_nav_handler_8h.html" target="_top" xlink:title="Interface for handling horizontal navigation events between UI widgets.">
<polygon fill="white" stroke="#666666" points="361.38,-74.5 252.38,-74.5 252.38,-55.25 361.38,-55.25 361.38,-74.5"/>
<text text-anchor="middle" x="306.88" y="-61" font-family="Helvetica,sans-Serif" font-size="10.00">IWidgetNavHandler.h</text>
</a>
</g>
</g>
<!-- Node9&#45;&gt;Node11 -->
<g id="edge14_Node000009_Node000011" class="edge">
<title>Node9&#45;&gt;Node11</title>
<g id="a_edge14_Node000009_Node000011"><a xlink:title=" ">
<path fill="none" stroke="#63b8ff" d="M306.88,-110.33C306.88,-103.82 306.88,-94.67 306.88,-86.37"/>
<polygon fill="#63b8ff" stroke="#63b8ff" points="310.38,-86.37 306.88,-76.37 303.38,-86.37 310.38,-86.37"/>
</a>
</g>
</g>
<!-- Node10&#45;&gt;Node3 -->
<g id="edge13_Node000010_Node000003" class="edge">
<title>Node10&#45;&gt;Node3</title>
<g id="a_edge13_Node000010_Node000003"><a xlink:title=" ">
<path fill="none" stroke="#63b8ff" d="M436.88,-55.08C436.88,-48.57 436.88,-39.42 436.88,-31.12"/>
<polygon fill="#63b8ff" stroke="#63b8ff" points="440.38,-31.12 436.88,-21.12 433.38,-31.12 440.38,-31.12"/>
</a>
</g>
</g>
</g>
</svg>
