<?xml version="1.0" encoding="UTF-8" standalone="no"?>
<!DOCTYPE svg PUBLIC "-//W3C//DTD SVG 1.1//EN"
 "http://www.w3.org/Graphics/SVG/1.1/DTD/svg11.dtd">
<!-- Generated by graphviz version 12.2.1 (20241206.2353)
 -->
<!-- Title: src/screens/ConfigScreen.cpp Pages: 1 -->
<svg width="1468pt" height="271pt"
 viewBox="0.00 0.00 1468.30 270.75" xmlns="http://www.w3.org/2000/svg" xmlns:xlink="http://www.w3.org/1999/xlink">
<g id="graph0" class="graph" transform="scale(1 1) rotate(0) translate(4 266.75)">
<title>src/screens/ConfigScreen.cpp</title>
<!-- Node1 -->
<g id="Node000001" class="node">
<title>Node1</title>
<g id="a_Node000001"><a xlink:title="Implements the configuration screen for knob mapping and diagnostics.">
<polygon fill="#999999" stroke="#666666" points="663.42,-262.75 515.42,-262.75 515.42,-243.5 663.42,-243.5 663.42,-262.75"/>
<text text-anchor="middle" x="589.42" y="-249.25" font-family="Helvetica,sans-Serif" font-size="10.00">src/screens/ConfigScreen.cpp</text>
</a>
</g>
</g>
<!-- Node2 -->
<g id="Node000002" class="node">
<title>Node2</title>
<g id="a_Node000002"><a xlink:href="_config_screen_8h.html" target="_top" xlink:title="Screen for accessing and modifying configuration settings.">
<polygon fill="white" stroke="#666666" points="516.92,-201.88 395.92,-201.88 395.92,-182.62 516.92,-182.62 516.92,-201.88"/>
<text text-anchor="middle" x="456.42" y="-188.38" font-family="Helvetica,sans-Serif" font-size="10.00">screens/ConfigScreen.h</text>
</a>
</g>
</g>
<!-- Node1&#45;&gt;Node2 -->
<g id="edge1_Node000001_Node000002" class="edge">
<title>Node1&#45;&gt;Node2</title>
<g id="a_edge1_Node000001_Node000002"><a xlink:title=" ">
<path fill="none" stroke="#63b8ff" d="M568.93,-243.05C547.1,-233.39 512.28,-217.98 487.16,-206.86"/>
<polygon fill="#63b8ff" stroke="#63b8ff" points="488.66,-203.69 478.1,-202.85 485.83,-210.09 488.66,-203.69"/>
</a>
</g>
</g>
<!-- Node8 -->
<g id="Node000008" class="node">
<title>Node8</title>
<g id="a_Node000008"><a xlink:href="_knob_config_dialog_8h.html" target="_top" xlink:title="Modal dialog for editing knob assignments and configuration parameters.">
<polygon fill="white" stroke="#666666" points="390.67,-135.38 250.17,-135.38 250.17,-116.12 390.67,-116.12 390.67,-135.38"/>
<text text-anchor="middle" x="320.42" y="-121.88" font-family="Helvetica,sans-Serif" font-size="10.00">screens/KnobConfigDialog.h</text>
</a>
</g>
</g>
<!-- Node1&#45;&gt;Node8 -->
<g id="edge46_Node000001_Node000008" class="edge">
<title>Node1&#45;&gt;Node8</title>
<g id="a_edge46_Node000001_Node000008"><a xlink:title=" ">
<path fill="none" stroke="#63b8ff" d="M515.03,-247.64C474.55,-242.4 425.01,-231.21 386.42,-207.5 361.53,-192.21 341.8,-164.12 330.61,-145.44"/>
<polygon fill="#63b8ff" stroke="#63b8ff" points="333.79,-143.95 325.79,-137 327.72,-147.42 333.79,-143.95"/>
</a>
</g>
</g>
<!-- Node11 -->
<g id="Node000011" class="node">
<title>Node11</title>
<g id="a_Node000011"><a xlink:href="_screen_manager_8h.html" target="_top" xlink:title="Declares the ScreenManager class responsible for UI screen control on the OLED display.">
<polygon fill="white" stroke="#666666" points="239.3,-74.5 147.55,-74.5 147.55,-55.25 239.3,-55.25 239.3,-74.5"/>
<text text-anchor="middle" x="193.42" y="-61" font-family="Helvetica,sans-Serif" font-size="10.00">ScreenManager.h</text>
</a>
</g>
</g>
<!-- Node1&#45;&gt;Node11 -->
<g id="edge13_Node000001_Node000011" class="edge">
<title>Node1&#45;&gt;Node11</title>
<g id="a_edge13_Node000001_Node000011"><a xlink:title=" ">
<path fill="none" stroke="#63b8ff" d="M515.03,-245.43C466.63,-239.36 402.81,-228.08 349.42,-207.5 296.82,-187.23 281.61,-180.53 241.42,-141 224.56,-124.42 210.73,-100.88 202.32,-84.59"/>
<polygon fill="#63b8ff" stroke="#63b8ff" points="205.64,-83.4 198.06,-76 199.37,-86.51 205.64,-83.4"/>
</a>
</g>
</g>
<!-- Node12 -->
<g id="Node000012" class="node">
<title>Node12</title>
<g id="a_Node000012"><a xlink:href="_logging_8h.html" target="_top" xlink:title="Lightweight logging utility for serial output in the JMR800&#45;V2 project.">
<polygon fill="white" stroke="#666666" points="618.42,-135.38 560.42,-135.38 560.42,-116.12 618.42,-116.12 618.42,-135.38"/>
<text text-anchor="middle" x="589.42" y="-121.88" font-family="Helvetica,sans-Serif" font-size="10.00">Logging.h</text>
</a>
</g>
</g>
<!-- Node1&#45;&gt;Node12 -->
<g id="edge16_Node000001_Node000012" class="edge">
<title>Node1&#45;&gt;Node12</title>
<g id="a_edge16_Node000001_Node000012"><a xlink:title=" ">
<path fill="none" stroke="#63b8ff" d="M589.42,-243.11C589.42,-223.14 589.42,-174.76 589.42,-147.08"/>
<polygon fill="#63b8ff" stroke="#63b8ff" points="592.92,-147.2 589.42,-137.2 585.92,-147.2 592.92,-147.2"/>
</a>
</g>
</g>
<!-- Node15 -->
<g id="Node000015" class="node">
<title>Node15</title>
<g id="a_Node000015"><a xlink:href="_rectangle_widget_8h.html" target="_top" xlink:title="Displays a static rectangle, optionally filled, as part of the OLED UI.">
<polygon fill="white" stroke="#666666" points="772.42,-135.38 636.42,-135.38 636.42,-116.12 772.42,-116.12 772.42,-135.38"/>
<text text-anchor="middle" x="704.42" y="-121.88" font-family="Helvetica,sans-Serif" font-size="10.00">widgets/RectangleWidget.h</text>
</a>
</g>
</g>
<!-- Node1&#45;&gt;Node15 -->
<g id="edge19_Node000001_Node000015" class="edge">
<title>Node1&#45;&gt;Node15</title>
<g id="a_edge19_Node000001_Node000015"><a xlink:title=" ">
<path fill="none" stroke="#63b8ff" d="M597.69,-243.11C616.67,-222.42 663.63,-171.22 688.45,-144.16"/>
<polygon fill="#63b8ff" stroke="#63b8ff" points="691.02,-146.54 695.2,-136.8 685.86,-141.8 691.02,-146.54"/>
</a>
</g>
</g>
<!-- Node16 -->
<g id="Node000016" class="node">
<title>Node16</title>
<g id="a_Node000016"><a xlink:href="_text_label_widget_8h.html" target="_top" xlink:title="Displays static or dynamic text labels on the OLED UI.">
<polygon fill="white" stroke="#666666" points="1460.3,-135.38 1326.55,-135.38 1326.55,-116.12 1460.3,-116.12 1460.3,-135.38"/>
<text text-anchor="middle" x="1393.42" y="-121.88" font-family="Helvetica,sans-Serif" font-size="10.00">widgets/TextLabelWidget.h</text>
</a>
</g>
</g>
<!-- Node1&#45;&gt;Node16 -->
<g id="edge22_Node000001_Node000016" class="edge">
<title>Node1&#45;&gt;Node16</title>
<g id="a_edge22_Node000001_Node000016"><a xlink:title=" ">
<path fill="none" stroke="#63b8ff" d="M653.81,-243.05C780.91,-224.97 1072.9,-182.6 1317.42,-141 1323.29,-140 1329.41,-138.92 1335.52,-137.82"/>
<polygon fill="#63b8ff" stroke="#63b8ff" points="1335.74,-141.33 1344.95,-136.09 1334.48,-134.45 1335.74,-141.33"/>
</a>
</g>
</g>
<!-- Node17 -->
<g id="Node000017" class="node">
<title>Node17</title>
<g id="a_Node000017"><a xlink:href="_shared_control_screen_utility_8h.html" target="_top" xlink:title="Provides utility functions for initializing common screen layouts.">
<polygon fill="white" stroke="#666666" points="873.67,-207.5 727.17,-207.5 727.17,-177 873.67,-177 873.67,-207.5"/>
<text text-anchor="start" x="735.17" y="-194" font-family="Helvetica,sans-Serif" font-size="10.00">screens/SharedControlScreen</text>
<text text-anchor="middle" x="800.42" y="-182.75" font-family="Helvetica,sans-Serif" font-size="10.00">Utility.h</text>
</a>
</g>
</g>
<!-- Node1&#45;&gt;Node17 -->
<g id="edge26_Node000001_Node000017" class="edge">
<title>Node1&#45;&gt;Node17</title>
<g id="a_edge26_Node000001_Node000017"><a xlink:title=" ">
<path fill="none" stroke="#63b8ff" d="M621.93,-243.05C652.44,-234.54 698.93,-221.57 736.81,-211"/>
<polygon fill="#63b8ff" stroke="#63b8ff" points="737.61,-214.41 746.3,-208.35 735.73,-207.67 737.61,-214.41"/>
</a>
</g>
</g>
<!-- Node3 -->
<g id="Node000003" class="node">
<title>Node3</title>
<g id="a_Node000003"><a xlink:title=" ">
<polygon fill="#e0e0e0" stroke="#999999" points="1026.17,-74.5 942.67,-74.5 942.67,-55.25 1026.17,-55.25 1026.17,-74.5"/>
<text text-anchor="middle" x="984.42" y="-61" font-family="Helvetica,sans-Serif" font-size="10.00">Adafruit_GFX.h</text>
</a>
</g>
</g>
<!-- Node2&#45;&gt;Node3 -->
<g id="edge2_Node000002_Node000003" class="edge">
<title>Node2&#45;&gt;Node3</title>
<g id="a_edge2_Node000002_Node000003"><a xlink:title=" ">
<path fill="none" stroke="#63b8ff" d="M517.32,-186.88C647.05,-177.32 940.28,-154.38 957.42,-141 974.21,-127.89 980.57,-103.44 982.98,-86"/>
<polygon fill="#63b8ff" stroke="#63b8ff" points="986.43,-86.6 983.96,-76.3 979.47,-85.89 986.43,-86.6"/>
</a>
</g>
</g>
<!-- Node4 -->
<g id="Node000004" class="node">
<title>Node4</title>
<g id="a_Node000004"><a xlink:title=" ">
<polygon fill="#e0e0e0" stroke="#999999" points="1057.42,-19.25 957.42,-19.25 957.42,0 1057.42,0 1057.42,-19.25"/>
<text text-anchor="middle" x="1007.42" y="-5.75" font-family="Helvetica,sans-Serif" font-size="10.00">Adafruit_SH110X.h</text>
</a>
</g>
</g>
<!-- Node2&#45;&gt;Node4 -->
<g id="edge3_Node000002_Node000004" class="edge">
<title>Node2&#45;&gt;Node4</title>
<g id="a_edge3_Node000002_Node000004"><a xlink:title=" ">
<path fill="none" stroke="#63b8ff" d="M461.38,-182.34C477.02,-154.6 525.82,-70.73 552.42,-55.25 585.66,-35.91 829.32,-20.28 945.77,-13.82"/>
<polygon fill="#63b8ff" stroke="#63b8ff" points="945.67,-17.33 955.46,-13.29 945.28,-10.35 945.67,-17.33"/>
</a>
</g>
</g>
<!-- Node5 -->
<g id="Node000005" class="node">
<title>Node5</title>
<g id="a_Node000005"><a xlink:title=" ">
<polygon fill="#e0e0e0" stroke="#999999" points="465.92,-74.5 422.92,-74.5 422.92,-55.25 465.92,-55.25 465.92,-74.5"/>
<text text-anchor="middle" x="444.42" y="-61" font-family="Helvetica,sans-Serif" font-size="10.00">vector</text>
</a>
</g>
</g>
<!-- Node2&#45;&gt;Node5 -->
<g id="edge4_Node000002_Node000005" class="edge">
<title>Node2&#45;&gt;Node5</title>
<g id="a_edge4_Node000002_Node000005"><a xlink:title=" ">
<path fill="none" stroke="#63b8ff" d="M453.08,-182.15C449.61,-172.2 444.43,-155.72 442.42,-141 440.58,-127.57 442.12,-124.05 442.42,-110.5 442.6,-102.55 442.95,-93.82 443.32,-86.2"/>
<polygon fill="#63b8ff" stroke="#63b8ff" points="446.81,-86.44 443.83,-76.27 439.82,-86.08 446.81,-86.44"/>
</a>
</g>
</g>
<!-- Node6 -->
<g id="Node000006" class="node">
<title>Node6</title>
<g id="a_Node000006"><a xlink:href="_widget_8h.html" target="_top" xlink:title="Abstract base class for UI widgets in the JMR800&#45;V2 OLED interface.">
<polygon fill="white" stroke="#666666" points="846.3,-19.25 754.55,-19.25 754.55,0 846.3,0 846.3,-19.25"/>
<text text-anchor="middle" x="800.42" y="-5.75" font-family="Helvetica,sans-Serif" font-size="10.00">widgets/Widget.h</text>
</a>
</g>
</g>
<!-- Node2&#45;&gt;Node6 -->
<g id="edge5_Node000002_Node000006" class="edge">
<title>Node2&#45;&gt;Node6</title>
<g id="a_edge5_Node000002_Node000006"><a xlink:title=" ">
<path fill="none" stroke="#63b8ff" d="M457.61,-182.14C461.38,-157.28 475.45,-87.91 518.42,-55.25 552.79,-29.12 670.94,-17.89 742.95,-13.38"/>
<polygon fill="#63b8ff" stroke="#63b8ff" points="742.81,-16.9 752.58,-12.8 742.39,-9.91 742.81,-16.9"/>
</a>
</g>
</g>
<!-- Node7 -->
<g id="Node000007" class="node">
<title>Node7</title>
<g id="a_Node000007"><a xlink:href="_screen_8h.html" target="_top" xlink:title="Abstract interface for all UI screens in the JMR800&#45;V2 system.">
<polygon fill="white" stroke="#666666" points="117.67,-19.25 25.17,-19.25 25.17,0 117.67,0 117.67,-19.25"/>
<text text-anchor="middle" x="71.42" y="-5.75" font-family="Helvetica,sans-Serif" font-size="10.00">screens/Screen.h</text>
</a>
</g>
</g>
<!-- Node2&#45;&gt;Node7 -->
<g id="edge6_Node000002_Node000007" class="edge">
<title>Node2&#45;&gt;Node7</title>
<g id="a_edge6_Node000002_Node000007"><a xlink:title=" ">
<path fill="none" stroke="#63b8ff" d="M395.48,-184.74C283.37,-171.35 51.54,-136.67 4.42,-74.5 -10.13,-55.31 15.31,-36.7 38.9,-24.57"/>
<polygon fill="#63b8ff" stroke="#63b8ff" points="40.28,-27.79 47.76,-20.29 37.23,-21.49 40.28,-27.79"/>
</a>
</g>
</g>
<!-- Node2&#45;&gt;Node8 -->
<g id="edge7_Node000002_Node000008" class="edge">
<title>Node2&#45;&gt;Node8</title>
<g id="a_edge7_Node000002_Node000008"><a xlink:title=" ">
<path fill="none" stroke="#63b8ff" d="M437.22,-182.15C414.44,-171.34 376.22,-153.21 349.73,-140.65"/>
<polygon fill="#63b8ff" stroke="#63b8ff" points="351.42,-137.58 340.89,-136.46 348.42,-143.9 351.42,-137.58"/>
</a>
</g>
</g>
<!-- Node8&#45;&gt;Node5 -->
<g id="edge8_Node000008_Node000005" class="edge">
<title>Node8&#45;&gt;Node5</title>
<g id="a_edge8_Node000008_Node000005"><a xlink:title=" ">
<path fill="none" stroke="#63b8ff" d="M339.52,-115.68C359.7,-106.1 391.76,-90.88 415.13,-79.78"/>
<polygon fill="#63b8ff" stroke="#63b8ff" points="416.6,-82.96 424.13,-75.51 413.6,-76.64 416.6,-82.96"/>
</a>
</g>
</g>
<!-- Node8&#45;&gt;Node6 -->
<g id="edge9_Node000008_Node000006" class="edge">
<title>Node8&#45;&gt;Node6</title>
<g id="a_edge9_Node000008_Node000006"><a xlink:title=" ">
<path fill="none" stroke="#63b8ff" d="M328.68,-116.09C343.84,-100.83 377.83,-69.39 413.42,-55.25 471.96,-31.98 650.22,-18.95 742.97,-13.57"/>
<polygon fill="#63b8ff" stroke="#63b8ff" points="743.09,-17.07 752.88,-13.01 742.69,-10.08 743.09,-17.07"/>
</a>
</g>
</g>
<!-- Node9 -->
<g id="Node000009" class="node">
<title>Node9</title>
<g id="a_Node000009"><a xlink:href="_modal_dialog_8h.html" target="_top" xlink:title="Abstract base class for modal dialogs in the JMR800&#45;V2 UI.">
<polygon fill="white" stroke="#666666" points="129.3,-74.5 13.55,-74.5 13.55,-55.25 129.3,-55.25 129.3,-74.5"/>
<text text-anchor="middle" x="71.42" y="-61" font-family="Helvetica,sans-Serif" font-size="10.00">screens/ModalDialog.h</text>
</a>
</g>
</g>
<!-- Node8&#45;&gt;Node9 -->
<g id="edge10_Node000008_Node000009" class="edge">
<title>Node8&#45;&gt;Node9</title>
<g id="a_edge10_Node000008_Node000009"><a xlink:title=" ">
<path fill="none" stroke="#63b8ff" d="M282.06,-115.68C238.74,-105.44 168.13,-88.74 120.75,-77.54"/>
<polygon fill="#63b8ff" stroke="#63b8ff" points="121.83,-74.2 111.3,-75.3 120.22,-81.01 121.83,-74.2"/>
</a>
</g>
</g>
<!-- Node10 -->
<g id="Node000010" class="node">
<title>Node10</title>
<g id="a_Node000010"><a xlink:href="_i_widget_nav_handler_8h.html" target="_top" xlink:title="Interface for handling horizontal navigation events between UI widgets.">
<polygon fill="white" stroke="#666666" points="365.92,-74.5 256.92,-74.5 256.92,-55.25 365.92,-55.25 365.92,-74.5"/>
<text text-anchor="middle" x="311.42" y="-61" font-family="Helvetica,sans-Serif" font-size="10.00">IWidgetNavHandler.h</text>
</a>
</g>
</g>
<!-- Node8&#45;&gt;Node10 -->
<g id="edge12_Node000008_Node000010" class="edge">
<title>Node8&#45;&gt;Node10</title>
<g id="a_edge12_Node000008_Node000010"><a xlink:title=" ">
<path fill="none" stroke="#63b8ff" d="M319.05,-115.81C317.85,-107.94 316.06,-96.2 314.51,-86.07"/>
<polygon fill="#63b8ff" stroke="#63b8ff" points="318,-85.75 313.03,-76.4 311.08,-86.81 318,-85.75"/>
</a>
</g>
</g>
<!-- Node9&#45;&gt;Node7 -->
<g id="edge11_Node000009_Node000007" class="edge">
<title>Node9&#45;&gt;Node7</title>
<g id="a_edge11_Node000009_Node000007"><a xlink:title=" ">
<path fill="none" stroke="#63b8ff" d="M71.42,-55.08C71.42,-48.57 71.42,-39.42 71.42,-31.12"/>
<polygon fill="#63b8ff" stroke="#63b8ff" points="74.92,-31.12 71.42,-21.12 67.92,-31.12 74.92,-31.12"/>
</a>
</g>
</g>
<!-- Node11&#45;&gt;Node4 -->
<g id="edge14_Node000011_Node000004" class="edge">
<title>Node11&#45;&gt;Node4</title>
<g id="a_edge14_Node000011_Node000004"><a xlink:title=" ">
<path fill="none" stroke="#63b8ff" d="M239.63,-56.18C242.26,-55.84 244.87,-55.53 247.42,-55.25 264.72,-53.37 768.02,-24.37 945.89,-14.16"/>
<polygon fill="#63b8ff" stroke="#63b8ff" points="945.83,-17.67 955.61,-13.6 945.43,-10.68 945.83,-17.67"/>
</a>
</g>
</g>
<!-- Node11&#45;&gt;Node7 -->
<g id="edge15_Node000011_Node000007" class="edge">
<title>Node11&#45;&gt;Node7</title>
<g id="a_edge15_Node000011_Node000007"><a xlink:title=" ">
<path fill="none" stroke="#63b8ff" d="M172.73,-54.84C153.53,-46.47 124.71,-33.88 102.71,-24.28"/>
<polygon fill="#63b8ff" stroke="#63b8ff" points="104.17,-21.1 93.61,-20.31 101.37,-27.52 104.17,-21.1"/>
</a>
</g>
</g>
<!-- Node13 -->
<g id="Node000013" class="node">
<title>Node13</title>
<g id="a_Node000013"><a xlink:title=" ">
<polygon fill="#e0e0e0" stroke="#999999" points="693.05,-74.5 635.8,-74.5 635.8,-55.25 693.05,-55.25 693.05,-74.5"/>
<text text-anchor="middle" x="664.42" y="-61" font-family="Helvetica,sans-Serif" font-size="10.00">Arduino.h</text>
</a>
</g>
</g>
<!-- Node12&#45;&gt;Node13 -->
<g id="edge17_Node000012_Node000013" class="edge">
<title>Node12&#45;&gt;Node13</title>
<g id="a_edge17_Node000012_Node000013"><a xlink:title=" ">
<path fill="none" stroke="#63b8ff" d="M600.81,-115.81C612.27,-106.82 630.17,-92.76 644.07,-81.85"/>
<polygon fill="#63b8ff" stroke="#63b8ff" points="646.03,-84.76 651.73,-75.84 641.7,-79.26 646.03,-84.76"/>
</a>
</g>
</g>
<!-- Node14 -->
<g id="Node000014" class="node">
<title>Node14</title>
<g id="a_Node000014"><a xlink:href="defines_8h.html" target="_top" xlink:title="Hardware pin definitions and global constants for JMR800&#45;V2.">
<polygon fill="white" stroke="#666666" points="617.3,-74.5 561.55,-74.5 561.55,-55.25 617.3,-55.25 617.3,-74.5"/>
<text text-anchor="middle" x="589.42" y="-61" font-family="Helvetica,sans-Serif" font-size="10.00">defines.h</text>
</a>
</g>
</g>
<!-- Node12&#45;&gt;Node14 -->
<g id="edge18_Node000012_Node000014" class="edge">
<title>Node12&#45;&gt;Node14</title>
<g id="a_edge18_Node000012_Node000014"><a xlink:title=" ">
<path fill="none" stroke="#63b8ff" d="M589.42,-115.81C589.42,-108.03 589.42,-96.45 589.42,-86.41"/>
<polygon fill="#63b8ff" stroke="#63b8ff" points="592.92,-86.41 589.42,-76.41 585.92,-86.41 592.92,-86.41"/>
</a>
</g>
</g>
<!-- Node15&#45;&gt;Node4 -->
<g id="edge21_Node000015_Node000004" class="edge">
<title>Node15&#45;&gt;Node4</title>
<g id="a_edge21_Node000015_Node000004"><a xlink:title=" ">
<path fill="none" stroke="#63b8ff" d="M728.45,-115.7C781.93,-95.56 910.93,-46.97 972.97,-23.6"/>
<polygon fill="#63b8ff" stroke="#63b8ff" points="973.85,-27.01 981.97,-20.21 971.38,-20.46 973.85,-27.01"/>
</a>
</g>
</g>
<!-- Node15&#45;&gt;Node6 -->
<g id="edge20_Node000015_Node000006" class="edge">
<title>Node15&#45;&gt;Node6</title>
<g id="a_edge20_Node000015_Node000006"><a xlink:title=" ">
<path fill="none" stroke="#63b8ff" d="M711.95,-115.79C727.8,-96.96 764.81,-52.96 785.59,-28.25"/>
<polygon fill="#63b8ff" stroke="#63b8ff" points="788.19,-30.6 791.95,-20.7 782.83,-26.1 788.19,-30.6"/>
</a>
</g>
</g>
<!-- Node16&#45;&gt;Node3 -->
<g id="edge24_Node000016_Node000003" class="edge">
<title>Node16&#45;&gt;Node3</title>
<g id="a_edge24_Node000016_Node000003"><a xlink:title=" ">
<path fill="none" stroke="#63b8ff" d="M1347.28,-115.65C1337.44,-113.84 1327.1,-112.02 1317.42,-110.5 1196.14,-91.41 1162.3,-92.93 1037.57,-74.76"/>
<polygon fill="#63b8ff" stroke="#63b8ff" points="1038.32,-71.33 1027.92,-73.34 1037.3,-78.26 1038.32,-71.33"/>
</a>
</g>
</g>
<!-- Node16&#45;&gt;Node4 -->
<g id="edge25_Node000016_Node000004" class="edge">
<title>Node16&#45;&gt;Node4</title>
<g id="a_edge25_Node000016_Node000004"><a xlink:title=" ">
<path fill="none" stroke="#63b8ff" d="M1385.32,-115.72C1371.04,-100.45 1339.74,-69.77 1306.42,-55.25 1229.2,-21.59 1131.27,-12.59 1068.96,-10.57"/>
<polygon fill="#63b8ff" stroke="#63b8ff" points="1069.35,-7.08 1059.26,-10.31 1069.16,-14.07 1069.35,-7.08"/>
</a>
</g>
</g>
<!-- Node16&#45;&gt;Node6 -->
<g id="edge23_Node000016_Node000006" class="edge">
<title>Node16&#45;&gt;Node6</title>
<g id="a_edge23_Node000016_Node000006"><a xlink:title=" ">
<path fill="none" stroke="#63b8ff" d="M1369.05,-115.69C1328.02,-100.79 1242.3,-71.18 1167.42,-55.25 1059.26,-32.23 930.47,-19.99 857.79,-14.44"/>
<polygon fill="#63b8ff" stroke="#63b8ff" points="858.37,-10.97 848.13,-13.72 857.85,-17.95 858.37,-10.97"/>
</a>
</g>
</g>
<!-- Node17&#45;&gt;Node5 -->
<g id="edge27_Node000017_Node000005" class="edge">
<title>Node17&#45;&gt;Node5</title>
<g id="a_edge27_Node000017_Node000005"><a xlink:title=" ">
<path fill="none" stroke="#63b8ff" d="M726.68,-184.44C675.82,-177.83 607.54,-165.1 551.42,-141 517.21,-126.31 482.91,-99.6 462.68,-82.31"/>
<polygon fill="#63b8ff" stroke="#63b8ff" points="465.16,-79.83 455.33,-75.88 460.56,-85.1 465.16,-79.83"/>
</a>
</g>
</g>
<!-- Node17&#45;&gt;Node6 -->
<g id="edge28_Node000017_Node000006" class="edge">
<title>Node17&#45;&gt;Node6</title>
<g id="a_edge28_Node000017_Node000006"><a xlink:title=" ">
<path fill="none" stroke="#63b8ff" d="M800.42,-176.77C800.42,-144.72 800.42,-67.7 800.42,-30.89"/>
<polygon fill="#63b8ff" stroke="#63b8ff" points="803.92,-31.19 800.42,-21.19 796.92,-31.19 803.92,-31.19"/>
</a>
</g>
</g>
<!-- Node17&#45;&gt;Node12 -->
<g id="edge45_Node000017_Node000012" class="edge">
<title>Node17&#45;&gt;Node12</title>
<g id="a_edge45_Node000017_Node000012"><a xlink:title=" ">
<path fill="none" stroke="#63b8ff" d="M745.94,-176.57C711.71,-167.07 666.75,-154.06 627.42,-141 626.07,-140.55 624.69,-140.08 623.3,-139.6"/>
<polygon fill="#63b8ff" stroke="#63b8ff" points="624.65,-136.37 614.06,-136.29 622.29,-142.96 624.65,-136.37"/>
</a>
</g>
</g>
<!-- Node17&#45;&gt;Node15 -->
<g id="edge30_Node000017_Node000015" class="edge">
<title>Node17&#45;&gt;Node15</title>
<g id="a_edge30_Node000017_Node000015"><a xlink:title=" ">
<path fill="none" stroke="#63b8ff" d="M778.64,-176.61C763.3,-166.31 742.81,-152.54 727.24,-142.08"/>
<polygon fill="#63b8ff" stroke="#63b8ff" points="729.34,-139.28 719.09,-136.6 725.44,-145.09 729.34,-139.28"/>
</a>
</g>
</g>
<!-- Node17&#45;&gt;Node16 -->
<g id="edge29_Node000017_Node000016" class="edge">
<title>Node17&#45;&gt;Node16</title>
<g id="a_edge29_Node000017_Node000016"><a xlink:title=" ">
<path fill="none" stroke="#63b8ff" d="M873.87,-186.17C974.32,-178.75 1160.06,-163.36 1317.42,-141 1323.89,-140.08 1330.65,-139 1337.35,-137.84"/>
<polygon fill="#63b8ff" stroke="#63b8ff" points="1337.8,-141.32 1347.03,-136.12 1336.57,-134.43 1337.8,-141.32"/>
</a>
</g>
</g>
<!-- Node18 -->
<g id="Node000018" class="node">
<title>Node18</title>
<g id="a_Node000018"><a xlink:href="_potentiometer_knob_widget_8h.html" target="_top" xlink:title="Visual representation of a physical potentiometer for the OLED UI.">
<polygon fill="white" stroke="#666666" points="1140.42,-141 1004.42,-141 1004.42,-110.5 1140.42,-110.5 1140.42,-141"/>
<text text-anchor="start" x="1012.42" y="-127.5" font-family="Helvetica,sans-Serif" font-size="10.00">widgets/PotentiometerKnob</text>
<text text-anchor="middle" x="1072.42" y="-116.25" font-family="Helvetica,sans-Serif" font-size="10.00">Widget.h</text>
</a>
</g>
</g>
<!-- Node17&#45;&gt;Node18 -->
<g id="edge31_Node000017_Node000018" class="edge">
<title>Node17&#45;&gt;Node18</title>
<g id="a_edge31_Node000017_Node000018"><a xlink:title=" ">
<path fill="none" stroke="#63b8ff" d="M862.48,-176.53C903.21,-166.87 956.66,-154.2 999.43,-144.06"/>
<polygon fill="#63b8ff" stroke="#63b8ff" points="1000.23,-147.47 1009.15,-141.75 998.62,-140.65 1000.23,-147.47"/>
</a>
</g>
</g>
<!-- Node20 -->
<g id="Node000020" class="node">
<title>Node20</title>
<g id="a_Node000020"><a xlink:href="_encoder_knob_widget_8h.html" target="_top" xlink:title="Represents a virtual knob controlled by an encoder input.">
<polygon fill="white" stroke="#666666" points="1308.55,-135.38 1158.3,-135.38 1158.3,-116.12 1308.55,-116.12 1308.55,-135.38"/>
<text text-anchor="middle" x="1233.42" y="-121.88" font-family="Helvetica,sans-Serif" font-size="10.00">widgets/EncoderKnobWidget.h</text>
</a>
</g>
</g>
<!-- Node17&#45;&gt;Node20 -->
<g id="edge37_Node000017_Node000020" class="edge">
<title>Node17&#45;&gt;Node20</title>
<g id="a_edge37_Node000017_Node000020"><a xlink:title=" ">
<path fill="none" stroke="#63b8ff" d="M874.03,-181.2C944.72,-171.41 1054.47,-155.89 1149.42,-141 1156.13,-139.95 1163.14,-138.81 1170.12,-137.66"/>
<polygon fill="#63b8ff" stroke="#63b8ff" points="1170.25,-141.19 1179.53,-136.1 1169.1,-134.29 1170.25,-141.19"/>
</a>
</g>
</g>
<!-- Node21 -->
<g id="Node000021" class="node">
<title>Node21</title>
<g id="a_Node000021"><a xlink:href="_button_widget_8h.html" target="_top" xlink:title="Represents an on&#45;screen button widget with LED state indicators.">
<polygon fill="white" stroke="#666666" points="948.55,-135.38 828.3,-135.38 828.3,-116.12 948.55,-116.12 948.55,-135.38"/>
<text text-anchor="middle" x="888.42" y="-121.88" font-family="Helvetica,sans-Serif" font-size="10.00">widgets/ButtonWidget.h</text>
</a>
</g>
</g>
<!-- Node17&#45;&gt;Node21 -->
<g id="edge41_Node000017_Node000021" class="edge">
<title>Node17&#45;&gt;Node21</title>
<g id="a_edge41_Node000017_Node000021"><a xlink:title=" ">
<path fill="none" stroke="#63b8ff" d="M820.39,-176.61C834.32,-166.41 852.88,-152.8 867.09,-142.38"/>
<polygon fill="#63b8ff" stroke="#63b8ff" points="868.91,-145.39 874.91,-136.65 864.77,-139.74 868.91,-145.39"/>
</a>
</g>
</g>
<!-- Node18&#45;&gt;Node3 -->
<g id="edge35_Node000018_Node000003" class="edge">
<title>Node18&#45;&gt;Node3</title>
<g id="a_edge35_Node000018_Node000003"><a xlink:title=" ">
<path fill="none" stroke="#63b8ff" d="M1050.67,-110.2C1037.53,-101.4 1020.79,-90.21 1007.43,-81.27"/>
<polygon fill="#63b8ff" stroke="#63b8ff" points="1009.5,-78.44 999.24,-75.79 1005.61,-84.26 1009.5,-78.44"/>
</a>
</g>
</g>
<!-- Node18&#45;&gt;Node4 -->
<g id="edge36_Node000018_Node000004" class="edge">
<title>Node18&#45;&gt;Node4</title>
<g id="a_edge36_Node000018_Node000004"><a xlink:title=" ">
<path fill="none" stroke="#63b8ff" d="M1120.95,-110.07C1152.71,-97.88 1185.28,-78.77 1167.42,-55.25 1155.25,-39.22 1108.8,-27.41 1069.07,-19.98"/>
<polygon fill="#63b8ff" stroke="#63b8ff" points="1069.75,-16.54 1059.29,-18.22 1068.51,-23.43 1069.75,-16.54"/>
</a>
</g>
</g>
<!-- Node19 -->
<g id="Node000019" class="node">
<title>Node19</title>
<g id="a_Node000019"><a xlink:href="_knob_widget_8h.html" target="_top" xlink:title="Base class for knob&#45;style widgets in the JMR800&#45;V2 interface.">
<polygon fill="white" stroke="#666666" points="1158.55,-74.5 1044.3,-74.5 1044.3,-55.25 1158.55,-55.25 1158.55,-74.5"/>
<text text-anchor="middle" x="1101.42" y="-61" font-family="Helvetica,sans-Serif" font-size="10.00">widgets/KnobWidget.h</text>
</a>
</g>
</g>
<!-- Node18&#45;&gt;Node19 -->
<g id="edge32_Node000018_Node000019" class="edge">
<title>Node18&#45;&gt;Node19</title>
<g id="a_edge32_Node000018_Node000019"><a xlink:title=" ">
<path fill="none" stroke="#63b8ff" d="M1079.59,-110.2C1083.33,-102.61 1087.94,-93.24 1091.97,-85.07"/>
<polygon fill="#63b8ff" stroke="#63b8ff" points="1095,-86.83 1096.28,-76.31 1088.72,-83.73 1095,-86.83"/>
</a>
</g>
</g>
<!-- Node19&#45;&gt;Node4 -->
<g id="edge34_Node000019_Node000004" class="edge">
<title>Node19&#45;&gt;Node4</title>
<g id="a_edge34_Node000019_Node000004"><a xlink:title=" ">
<path fill="none" stroke="#63b8ff" d="M1085.47,-54.84C1071.16,-46.73 1049.89,-34.68 1033.17,-25.21"/>
<polygon fill="#63b8ff" stroke="#63b8ff" points="1035.19,-22.33 1024.76,-20.45 1031.74,-28.42 1035.19,-22.33"/>
</a>
</g>
</g>
<!-- Node19&#45;&gt;Node6 -->
<g id="edge33_Node000019_Node000006" class="edge">
<title>Node19&#45;&gt;Node6</title>
<g id="a_edge33_Node000019_Node000006"><a xlink:title=" ">
<path fill="none" stroke="#63b8ff" d="M1050.02,-54.78C996.61,-45.33 913.23,-30.58 857.73,-20.76"/>
<polygon fill="#63b8ff" stroke="#63b8ff" points="858.62,-17.37 848.16,-19.07 857.4,-24.26 858.62,-17.37"/>
</a>
</g>
</g>
<!-- Node20&#45;&gt;Node3 -->
<g id="edge39_Node000020_Node000003" class="edge">
<title>Node20&#45;&gt;Node3</title>
<g id="a_edge39_Node000020_Node000003"><a xlink:title=" ">
<path fill="none" stroke="#63b8ff" d="M1195.06,-115.68C1151.74,-105.44 1081.13,-88.74 1033.75,-77.54"/>
<polygon fill="#63b8ff" stroke="#63b8ff" points="1034.83,-74.2 1024.3,-75.3 1033.22,-81.01 1034.83,-74.2"/>
</a>
</g>
</g>
<!-- Node20&#45;&gt;Node4 -->
<g id="edge40_Node000020_Node000004" class="edge">
<title>Node20&#45;&gt;Node4</title>
<g id="a_edge40_Node000020_Node000004"><a xlink:title=" ">
<path fill="none" stroke="#63b8ff" d="M1229.73,-115.97C1223,-101.08 1207.3,-70.96 1184.42,-55.25 1150.48,-31.94 1105.39,-20.79 1069.22,-15.47"/>
<polygon fill="#63b8ff" stroke="#63b8ff" points="1069.69,-12 1059.31,-14.14 1068.76,-18.94 1069.69,-12"/>
</a>
</g>
</g>
<!-- Node20&#45;&gt;Node19 -->
<g id="edge38_Node000020_Node000019" class="edge">
<title>Node20&#45;&gt;Node19</title>
<g id="a_edge38_Node000020_Node000019"><a xlink:title=" ">
<path fill="none" stroke="#63b8ff" d="M1213.08,-115.68C1191.41,-106.01 1156.86,-90.6 1131.93,-79.48"/>
<polygon fill="#63b8ff" stroke="#63b8ff" points="1133.5,-76.35 1122.95,-75.48 1130.65,-82.75 1133.5,-76.35"/>
</a>
</g>
</g>
<!-- Node21&#45;&gt;Node3 -->
<g id="edge43_Node000021_Node000003" class="edge">
<title>Node21&#45;&gt;Node3</title>
<g id="a_edge43_Node000021_Node000003"><a xlink:title=" ">
<path fill="none" stroke="#63b8ff" d="M903,-115.81C918.08,-106.56 941.91,-91.95 959.9,-80.92"/>
<polygon fill="#63b8ff" stroke="#63b8ff" points="961.72,-83.9 968.41,-75.69 958.06,-77.94 961.72,-83.9"/>
</a>
</g>
</g>
<!-- Node21&#45;&gt;Node4 -->
<g id="edge44_Node000021_Node000004" class="edge">
<title>Node21&#45;&gt;Node4</title>
<g id="a_edge44_Node000021_Node000004"><a xlink:title=" ">
<path fill="none" stroke="#63b8ff" d="M892.59,-115.72C899.49,-101.5 914.42,-73.65 933.42,-55.25 946.17,-42.9 962.93,-32.44 977.28,-24.75"/>
<polygon fill="#63b8ff" stroke="#63b8ff" points="978.57,-28.03 985.87,-20.35 975.37,-21.8 978.57,-28.03"/>
</a>
</g>
</g>
<!-- Node21&#45;&gt;Node6 -->
<g id="edge42_Node000021_Node000006" class="edge">
<title>Node21&#45;&gt;Node6</title>
<g id="a_edge42_Node000021_Node000006"><a xlink:title=" ">
<path fill="none" stroke="#63b8ff" d="M881.52,-115.79C867.06,-97.04 833.36,-53.35 814.27,-28.58"/>
<polygon fill="#63b8ff" stroke="#63b8ff" points="817.1,-26.52 808.22,-20.74 811.55,-30.79 817.1,-26.52"/>
</a>
</g>
</g>
</g>
</svg>
