<?xml version="1.0" encoding="UTF-8" standalone="no"?>
<!DOCTYPE svg PUBLIC "-//W3C//DTD SVG 1.1//EN"
 "http://www.w3.org/Graphics/SVG/1.1/DTD/svg11.dtd">
<!-- Generated by graphviz version 12.2.1 (20241206.2353)
 -->
<!-- Title: include/screens/ConfigScreen.h Pages: 1 -->
<svg width="342pt" height="138pt"
 viewBox="0.00 0.00 342.12 137.75" xmlns="http://www.w3.org/2000/svg" xmlns:xlink="http://www.w3.org/1999/xlink">
<g id="graph0" class="graph" transform="scale(1 1) rotate(0) translate(4 133.75)">
<title>include/screens/ConfigScreen.h</title>
<!-- Node1 -->
<g id="Node000001" class="node">
<title>Node1</title>
<g id="a_Node000001"><a xlink:title="Screen for accessing and modifying configuration settings.">
<polygon fill="#999999" stroke="#666666" points="255.5,-129.75 100.75,-129.75 100.75,-110.5 255.5,-110.5 255.5,-129.75"/>
<text text-anchor="middle" x="178.12" y="-116.25" font-family="Helvetica,sans-Serif" font-size="10.00">include/screens/ConfigScreen.h</text>
</a>
</g>
</g>
<!-- Node2 -->
<g id="Node000002" class="node">
<title>Node2</title>
<g id="a_Node000002"><a xlink:href="_config_mode_8h.html" target="_top" xlink:title="Application mode for accessing and modifying system configuration.">
<polygon fill="white" stroke="#666666" points="168.5,-74.5 25.75,-74.5 25.75,-55.25 168.5,-55.25 168.5,-74.5"/>
<text text-anchor="middle" x="97.12" y="-61" font-family="Helvetica,sans-Serif" font-size="10.00">include/modes/ConfigMode.h</text>
</a>
</g>
</g>
<!-- Node1&#45;&gt;Node2 -->
<g id="edge1_Node000001_Node000002" class="edge">
<title>Node1&#45;&gt;Node2</title>
<g id="a_edge1_Node000001_Node000002"><a xlink:title=" ">
<path fill="none" stroke="#63b8ff" d="M154.79,-103.78C140.59,-94.45 122.94,-82.85 110.93,-74.95"/>
<polygon fill="#63b8ff" stroke="#63b8ff" points="152.84,-106.69 163.12,-109.26 156.69,-100.84 152.84,-106.69"/>
</a>
</g>
</g>
<!-- Node5 -->
<g id="Node000005" class="node">
<title>Node5</title>
<g id="a_Node000005"><a xlink:href="_config_screen_8cpp.html" target="_top" xlink:title="Implements the configuration screen for knob mapping and diagnostics.">
<polygon fill="white" stroke="#666666" points="334.12,-74.5 186.12,-74.5 186.12,-55.25 334.12,-55.25 334.12,-74.5"/>
<text text-anchor="middle" x="260.12" y="-61" font-family="Helvetica,sans-Serif" font-size="10.00">src/screens/ConfigScreen.cpp</text>
</a>
</g>
</g>
<!-- Node1&#45;&gt;Node5 -->
<g id="edge4_Node000001_Node000005" class="edge">
<title>Node1&#45;&gt;Node5</title>
<g id="a_edge4_Node000001_Node000005"><a xlink:title=" ">
<path fill="none" stroke="#63b8ff" d="M201.33,-104.05C215.78,-94.67 233.87,-82.92 246.15,-74.95"/>
<polygon fill="#63b8ff" stroke="#63b8ff" points="199.79,-100.89 193.3,-109.27 203.6,-106.76 199.79,-100.89"/>
</a>
</g>
</g>
<!-- Node3 -->
<g id="Node000003" class="node">
<title>Node3</title>
<g id="a_Node000003"><a xlink:href="main_8cpp.html" target="_top" xlink:title="Entry point for the JMR800&#45;V2 firmware.">
<polygon fill="white" stroke="#666666" points="72.25,-19.25 0,-19.25 0,0 72.25,0 72.25,-19.25"/>
<text text-anchor="middle" x="36.12" y="-5.75" font-family="Helvetica,sans-Serif" font-size="10.00">src/main.cpp</text>
</a>
</g>
</g>
<!-- Node2&#45;&gt;Node3 -->
<g id="edge2_Node000002_Node000003" class="edge">
<title>Node2&#45;&gt;Node3</title>
<g id="a_edge2_Node000002_Node000003"><a xlink:title=" ">
<path fill="none" stroke="#63b8ff" d="M78.24,-47.39C67.7,-38.19 55,-27.1 46.32,-19.52"/>
<polygon fill="#63b8ff" stroke="#63b8ff" points="75.8,-49.91 85.64,-53.85 80.41,-44.63 75.8,-49.91"/>
</a>
</g>
</g>
<!-- Node4 -->
<g id="Node000004" class="node">
<title>Node4</title>
<g id="a_Node000004"><a xlink:href="_config_mode_8cpp.html" target="_top" xlink:title="Implements the System Configuration Mode for knob setup.">
<polygon fill="white" stroke="#666666" points="226.12,-19.25 90.12,-19.25 90.12,0 226.12,0 226.12,-19.25"/>
<text text-anchor="middle" x="158.12" y="-5.75" font-family="Helvetica,sans-Serif" font-size="10.00">src/modes/ConfigMode.cpp</text>
</a>
</g>
</g>
<!-- Node2&#45;&gt;Node4 -->
<g id="edge3_Node000002_Node000004" class="edge">
<title>Node2&#45;&gt;Node4</title>
<g id="a_edge3_Node000002_Node000004"><a xlink:title=" ">
<path fill="none" stroke="#63b8ff" d="M116.01,-47.39C126.55,-38.19 139.25,-27.1 147.93,-19.52"/>
<polygon fill="#63b8ff" stroke="#63b8ff" points="113.84,-44.63 108.61,-53.85 118.45,-49.91 113.84,-44.63"/>
</a>
</g>
</g>
</g>
</svg>
