<?xml version="1.0" encoding="UTF-8" standalone="no"?>
<!DOCTYPE svg PUBLIC "-//W3C//DTD SVG 1.1//EN"
 "http://www.w3.org/Graphics/SVG/1.1/DTD/svg11.dtd">
<!-- Generated by graphviz version 12.2.1 (20241206.2353)
 -->
<!-- Title: src/modes/ConfigMode.cpp Pages: 1 -->
<svg width="999pt" height="304pt"
 viewBox="0.00 0.00 999.45 303.50" xmlns="http://www.w3.org/2000/svg" xmlns:xlink="http://www.w3.org/1999/xlink">
<g id="graph0" class="graph" transform="scale(1 1) rotate(0) translate(4 299.5)">
<title>src/modes/ConfigMode.cpp</title>
<!-- Node1 -->
<g id="Node000001" class="node">
<title>Node1</title>
<g id="a_Node000001"><a xlink:title="Implements the System Configuration Mode for knob setup.">
<polygon fill="#999999" stroke="#666666" points="701.83,-295.5 565.83,-295.5 565.83,-276.25 701.83,-276.25 701.83,-295.5"/>
<text text-anchor="middle" x="633.83" y="-282" font-family="Helvetica,sans-Serif" font-size="10.00">src/modes/ConfigMode.cpp</text>
</a>
</g>
</g>
<!-- Node2 -->
<g id="Node000002" class="node">
<title>Node2</title>
<g id="a_Node000002"><a xlink:href="_config_mode_8h.html" target="_top" xlink:title="Application mode for accessing and modifying system configuration.">
<polygon fill="white" stroke="#666666" points="345.33,-240.25 236.33,-240.25 236.33,-221 345.33,-221 345.33,-240.25"/>
<text text-anchor="middle" x="290.83" y="-226.75" font-family="Helvetica,sans-Serif" font-size="10.00">modes/ConfigMode.h</text>
</a>
</g>
</g>
<!-- Node1&#45;&gt;Node2 -->
<g id="edge1_Node000001_Node000002" class="edge">
<title>Node1&#45;&gt;Node2</title>
<g id="a_edge1_Node000001_Node000002"><a xlink:title=" ">
<path fill="none" stroke="#63b8ff" d="M575.25,-275.78C514.6,-266.37 420.04,-251.69 356.8,-241.87"/>
<polygon fill="#63b8ff" stroke="#63b8ff" points="357.67,-238.46 347.25,-240.39 356.6,-245.38 357.67,-238.46"/>
</a>
</g>
</g>
<!-- Node13 -->
<g id="Node000013" class="node">
<title>Node13</title>
<g id="a_Node000013"><a xlink:href="_screen_manager_8h.html" target="_top" xlink:title="Declares the ScreenManager class responsible for UI screen control on the OLED display.">
<polygon fill="white" stroke="#666666" points="541.7,-185 449.95,-185 449.95,-165.75 541.7,-165.75 541.7,-185"/>
<text text-anchor="middle" x="495.83" y="-171.5" font-family="Helvetica,sans-Serif" font-size="10.00">ScreenManager.h</text>
</a>
</g>
</g>
<!-- Node1&#45;&gt;Node13 -->
<g id="edge16_Node000001_Node000013" class="edge">
<title>Node1&#45;&gt;Node13</title>
<g id="a_edge16_Node000001_Node000013"><a xlink:title=" ">
<path fill="none" stroke="#63b8ff" d="M622.53,-276C599.28,-257.72 545.79,-215.65 516.28,-192.46"/>
<polygon fill="#63b8ff" stroke="#63b8ff" points="518.49,-189.74 508.47,-186.31 514.16,-195.24 518.49,-189.74"/>
</a>
</g>
</g>
<!-- Node14 -->
<g id="Node000014" class="node">
<title>Node14</title>
<g id="a_Node000014"><a xlink:href="_logging_8h.html" target="_top" xlink:title="Lightweight logging utility for serial output in the JMR800&#45;V2 project.">
<polygon fill="white" stroke="#666666" points="963.83,-129.75 905.83,-129.75 905.83,-110.5 963.83,-110.5 963.83,-129.75"/>
<text text-anchor="middle" x="934.83" y="-116.25" font-family="Helvetica,sans-Serif" font-size="10.00">Logging.h</text>
</a>
</g>
</g>
<!-- Node1&#45;&gt;Node14 -->
<g id="edge19_Node000001_Node000014" class="edge">
<title>Node1&#45;&gt;Node14</title>
<g id="a_edge19_Node000001_Node000014"><a xlink:title=" ">
<path fill="none" stroke="#63b8ff" d="M650.44,-275.84C700.08,-248.83 847.64,-168.56 908.32,-135.55"/>
<polygon fill="#63b8ff" stroke="#63b8ff" points="909.83,-138.71 916.94,-130.86 906.48,-132.56 909.83,-138.71"/>
</a>
</g>
</g>
<!-- Node17 -->
<g id="Node000017" class="node">
<title>Node17</title>
<g id="a_Node000017"><a xlink:href="_hardware_manager_8h.html" target="_top" xlink:title="Manages hardware input/output for analog controls, digital buttons, encoder, and serial communication...">
<polygon fill="white" stroke="#666666" points="774.33,-185 671.33,-185 671.33,-165.75 774.33,-165.75 774.33,-185"/>
<text text-anchor="middle" x="722.83" y="-171.5" font-family="Helvetica,sans-Serif" font-size="10.00">HardwareManager.h</text>
</a>
</g>
</g>
<!-- Node1&#45;&gt;Node17 -->
<g id="edge22_Node000001_Node000017" class="edge">
<title>Node1&#45;&gt;Node17</title>
<g id="a_edge22_Node000001_Node000017"><a xlink:title=" ">
<path fill="none" stroke="#63b8ff" d="M641.11,-276C655.78,-258.11 689.12,-217.47 708.37,-194"/>
<polygon fill="#63b8ff" stroke="#63b8ff" points="710.85,-196.5 714.48,-186.55 705.43,-192.06 710.85,-196.5"/>
</a>
</g>
</g>
<!-- Node3 -->
<g id="Node000003" class="node">
<title>Node3</title>
<g id="a_Node000003"><a xlink:href="_app_mode_8h.html" target="_top" xlink:title="Abstract interface for application mode behavior.">
<polygon fill="white" stroke="#666666" points="100.7,-185 2.95,-185 2.95,-165.75 100.7,-165.75 100.7,-185"/>
<text text-anchor="middle" x="51.83" y="-171.5" font-family="Helvetica,sans-Serif" font-size="10.00">modes/AppMode.h</text>
</a>
</g>
</g>
<!-- Node2&#45;&gt;Node3 -->
<g id="edge2_Node000002_Node000003" class="edge">
<title>Node2&#45;&gt;Node3</title>
<g id="a_edge2_Node000002_Node000003"><a xlink:title=" ">
<path fill="none" stroke="#63b8ff" d="M250.01,-220.53C209.54,-211.51 147.39,-197.67 103.49,-187.89"/>
<polygon fill="#63b8ff" stroke="#63b8ff" points="104.47,-184.52 93.95,-185.76 102.95,-191.35 104.47,-184.52"/>
</a>
</g>
</g>
<!-- Node5 -->
<g id="Node000005" class="node">
<title>Node5</title>
<g id="a_Node000005"><a xlink:href="_config_screen_8h.html" target="_top" xlink:title="Screen for accessing and modifying configuration settings.">
<polygon fill="white" stroke="#666666" points="351.33,-185 230.33,-185 230.33,-165.75 351.33,-165.75 351.33,-185"/>
<text text-anchor="middle" x="290.83" y="-171.5" font-family="Helvetica,sans-Serif" font-size="10.00">screens/ConfigScreen.h</text>
</a>
</g>
</g>
<!-- Node2&#45;&gt;Node5 -->
<g id="edge4_Node000002_Node000005" class="edge">
<title>Node2&#45;&gt;Node5</title>
<g id="a_edge4_Node000002_Node000005"><a xlink:title=" ">
<path fill="none" stroke="#63b8ff" d="M290.83,-220.83C290.83,-214.32 290.83,-205.17 290.83,-196.87"/>
<polygon fill="#63b8ff" stroke="#63b8ff" points="294.33,-196.87 290.83,-186.87 287.33,-196.87 294.33,-196.87"/>
</a>
</g>
</g>
<!-- Node4 -->
<g id="Node000004" class="node">
<title>Node4</title>
<g id="a_Node000004"><a xlink:href="_screen_8h.html" target="_top" xlink:title="Abstract interface for all UI screens in the JMR800&#45;V2 system.">
<polygon fill="white" stroke="#666666" points="170.08,-19.25 77.58,-19.25 77.58,0 170.08,0 170.08,-19.25"/>
<text text-anchor="middle" x="123.83" y="-5.75" font-family="Helvetica,sans-Serif" font-size="10.00">screens/Screen.h</text>
</a>
</g>
</g>
<!-- Node3&#45;&gt;Node4 -->
<g id="edge3_Node000003_Node000004" class="edge">
<title>Node3&#45;&gt;Node4</title>
<g id="a_edge3_Node000003_Node000004"><a xlink:title=" ">
<path fill="none" stroke="#63b8ff" d="M39.8,-165.26C30.18,-157.14 17.4,-144.33 11.83,-129.75 0,-98.82 -6.75,-82.66 11.83,-55.25 24.22,-36.97 45.43,-26.17 66.08,-19.8"/>
<polygon fill="#63b8ff" stroke="#63b8ff" points="66.93,-23.2 75.65,-17.18 65.08,-16.45 66.93,-23.2"/>
</a>
</g>
</g>
<!-- Node5&#45;&gt;Node4 -->
<g id="edge9_Node000005_Node000004" class="edge">
<title>Node5&#45;&gt;Node4</title>
<g id="a_edge9_Node000005_Node000004"><a xlink:title=" ">
<path fill="none" stroke="#63b8ff" d="M229.94,-170.11C169.68,-162.14 81.33,-139.38 44.83,-74.5 32.36,-52.34 58.98,-34.89 84.62,-23.86"/>
<polygon fill="#63b8ff" stroke="#63b8ff" points="85.67,-27.21 93.65,-20.24 83.07,-20.71 85.67,-27.21"/>
</a>
</g>
</g>
<!-- Node6 -->
<g id="Node000006" class="node">
<title>Node6</title>
<g id="a_Node000006"><a xlink:title=" ">
<polygon fill="#e0e0e0" stroke="#999999" points="607.58,-129.75 524.08,-129.75 524.08,-110.5 607.58,-110.5 607.58,-129.75"/>
<text text-anchor="middle" x="565.83" y="-116.25" font-family="Helvetica,sans-Serif" font-size="10.00">Adafruit_GFX.h</text>
</a>
</g>
</g>
<!-- Node5&#45;&gt;Node6 -->
<g id="edge5_Node000005_Node000006" class="edge">
<title>Node5&#45;&gt;Node6</title>
<g id="a_edge5_Node000005_Node000006"><a xlink:title=" ">
<path fill="none" stroke="#63b8ff" d="M337.79,-165.28C386.42,-155.86 462.26,-141.18 512.96,-131.36"/>
<polygon fill="#63b8ff" stroke="#63b8ff" points="513.37,-134.85 522.53,-129.51 512.04,-127.97 513.37,-134.85"/>
</a>
</g>
</g>
<!-- Node7 -->
<g id="Node000007" class="node">
<title>Node7</title>
<g id="a_Node000007"><a xlink:title=" ">
<polygon fill="#e0e0e0" stroke="#999999" points="467.83,-129.75 367.83,-129.75 367.83,-110.5 467.83,-110.5 467.83,-129.75"/>
<text text-anchor="middle" x="417.83" y="-116.25" font-family="Helvetica,sans-Serif" font-size="10.00">Adafruit_SH110X.h</text>
</a>
</g>
</g>
<!-- Node5&#45;&gt;Node7 -->
<g id="edge6_Node000005_Node000007" class="edge">
<title>Node5&#45;&gt;Node7</title>
<g id="a_edge6_Node000005_Node000007"><a xlink:title=" ">
<path fill="none" stroke="#63b8ff" d="M312.37,-165.34C332.44,-156.93 362.63,-144.27 385.57,-134.65"/>
<polygon fill="#63b8ff" stroke="#63b8ff" points="386.91,-137.88 394.78,-130.79 384.21,-131.43 386.91,-137.88"/>
</a>
</g>
</g>
<!-- Node8 -->
<g id="Node000008" class="node">
<title>Node8</title>
<g id="a_Node000008"><a xlink:title=" ">
<polygon fill="#e0e0e0" stroke="#999999" points="467.33,-74.5 424.33,-74.5 424.33,-55.25 467.33,-55.25 467.33,-74.5"/>
<text text-anchor="middle" x="445.83" y="-61" font-family="Helvetica,sans-Serif" font-size="10.00">vector</text>
</a>
</g>
</g>
<!-- Node5&#45;&gt;Node8 -->
<g id="edge7_Node000005_Node000008" class="edge">
<title>Node5&#45;&gt;Node8</title>
<g id="a_edge7_Node000005_Node000008"><a xlink:title=" ">
<path fill="none" stroke="#63b8ff" d="M298.95,-165.27C311.06,-152.05 335,-127.3 358.83,-110.5 376.06,-98.35 397.05,-87.48 414.1,-79.52"/>
<polygon fill="#63b8ff" stroke="#63b8ff" points="415.11,-82.9 422.76,-75.57 412.21,-76.53 415.11,-82.9"/>
</a>
</g>
</g>
<!-- Node9 -->
<g id="Node000009" class="node">
<title>Node9</title>
<g id="a_Node000009"><a xlink:href="_widget_8h.html" target="_top" xlink:title="Abstract base class for UI widgets in the JMR800&#45;V2 OLED interface.">
<polygon fill="white" stroke="#666666" points="145.7,-74.5 53.95,-74.5 53.95,-55.25 145.7,-55.25 145.7,-74.5"/>
<text text-anchor="middle" x="99.83" y="-61" font-family="Helvetica,sans-Serif" font-size="10.00">widgets/Widget.h</text>
</a>
</g>
</g>
<!-- Node5&#45;&gt;Node9 -->
<g id="edge8_Node000005_Node000009" class="edge">
<title>Node5&#45;&gt;Node9</title>
<g id="a_edge8_Node000005_Node000009"><a xlink:title=" ">
<path fill="none" stroke="#63b8ff" d="M250.07,-165.27C223.81,-158.21 189.68,-146.73 162.83,-129.75 143.15,-117.3 124.97,-97.61 113.25,-83.38"/>
<polygon fill="#63b8ff" stroke="#63b8ff" points="116.13,-81.39 107.17,-75.74 110.66,-85.74 116.13,-81.39"/>
</a>
</g>
</g>
<!-- Node10 -->
<g id="Node000010" class="node">
<title>Node10</title>
<g id="a_Node000010"><a xlink:href="_knob_config_dialog_8h.html" target="_top" xlink:title="Modal dialog for editing knob assignments and configuration parameters.">
<polygon fill="white" stroke="#666666" points="312.08,-129.75 171.58,-129.75 171.58,-110.5 312.08,-110.5 312.08,-129.75"/>
<text text-anchor="middle" x="241.83" y="-116.25" font-family="Helvetica,sans-Serif" font-size="10.00">screens/KnobConfigDialog.h</text>
</a>
</g>
</g>
<!-- Node5&#45;&gt;Node10 -->
<g id="edge10_Node000005_Node000010" class="edge">
<title>Node5&#45;&gt;Node10</title>
<g id="a_edge10_Node000005_Node000010"><a xlink:title=" ">
<path fill="none" stroke="#63b8ff" d="M282.74,-165.58C275.97,-158.23 266.11,-147.51 257.76,-138.44"/>
<polygon fill="#63b8ff" stroke="#63b8ff" points="260.47,-136.21 251.12,-131.22 255.31,-140.95 260.47,-136.21"/>
</a>
</g>
</g>
<!-- Node10&#45;&gt;Node8 -->
<g id="edge11_Node000010_Node000008" class="edge">
<title>Node10&#45;&gt;Node8</title>
<g id="a_edge11_Node000010_Node000008"><a xlink:title=" ">
<path fill="none" stroke="#63b8ff" d="M278,-110.01C310.77,-101.7 360.68,-88.93 413.26,-74.88"/>
<polygon fill="#63b8ff" stroke="#63b8ff" points="413.95,-78.32 422.7,-72.35 412.13,-71.56 413.95,-78.32"/>
</a>
</g>
</g>
<!-- Node10&#45;&gt;Node9 -->
<g id="edge12_Node000010_Node000009" class="edge">
<title>Node10&#45;&gt;Node9</title>
<g id="a_edge12_Node000010_Node000009"><a xlink:title=" ">
<path fill="none" stroke="#63b8ff" d="M217.74,-110.09C194.89,-101.52 160.31,-88.56 134.5,-78.88"/>
<polygon fill="#63b8ff" stroke="#63b8ff" points="136.04,-75.72 125.45,-75.48 133.58,-82.27 136.04,-75.72"/>
</a>
</g>
</g>
<!-- Node11 -->
<g id="Node000011" class="node">
<title>Node11</title>
<g id="a_Node000011"><a xlink:href="_modal_dialog_8h.html" target="_top" xlink:title="Abstract base class for modal dialogs in the JMR800&#45;V2 UI.">
<polygon fill="white" stroke="#666666" points="279.7,-74.5 163.95,-74.5 163.95,-55.25 279.7,-55.25 279.7,-74.5"/>
<text text-anchor="middle" x="221.83" y="-61" font-family="Helvetica,sans-Serif" font-size="10.00">screens/ModalDialog.h</text>
</a>
</g>
</g>
<!-- Node10&#45;&gt;Node11 -->
<g id="edge13_Node000010_Node000011" class="edge">
<title>Node10&#45;&gt;Node11</title>
<g id="a_edge13_Node000010_Node000011"><a xlink:title=" ">
<path fill="none" stroke="#63b8ff" d="M238.52,-110.33C235.99,-103.59 232.4,-94.02 229.19,-85.49"/>
<polygon fill="#63b8ff" stroke="#63b8ff" points="232.53,-84.41 225.73,-76.28 225.97,-86.87 232.53,-84.41"/>
</a>
</g>
</g>
<!-- Node12 -->
<g id="Node000012" class="node">
<title>Node12</title>
<g id="a_Node000012"><a xlink:href="_i_widget_nav_handler_8h.html" target="_top" xlink:title="Interface for handling horizontal navigation events between UI widgets.">
<polygon fill="white" stroke="#666666" points="406.33,-74.5 297.33,-74.5 297.33,-55.25 406.33,-55.25 406.33,-74.5"/>
<text text-anchor="middle" x="351.83" y="-61" font-family="Helvetica,sans-Serif" font-size="10.00">IWidgetNavHandler.h</text>
</a>
</g>
</g>
<!-- Node10&#45;&gt;Node12 -->
<g id="edge15_Node000010_Node000012" class="edge">
<title>Node10&#45;&gt;Node12</title>
<g id="a_edge15_Node000010_Node000012"><a xlink:title=" ">
<path fill="none" stroke="#63b8ff" d="M260.49,-110.09C277.55,-101.83 303.07,-89.48 322.8,-79.93"/>
<polygon fill="#63b8ff" stroke="#63b8ff" points="324.24,-83.12 331.71,-75.61 321.19,-76.82 324.24,-83.12"/>
</a>
</g>
</g>
<!-- Node11&#45;&gt;Node4 -->
<g id="edge14_Node000011_Node000004" class="edge">
<title>Node11&#45;&gt;Node4</title>
<g id="a_edge14_Node000011_Node000004"><a xlink:title=" ">
<path fill="none" stroke="#63b8ff" d="M205.2,-54.84C190.14,-46.66 167.68,-34.46 150.18,-24.94"/>
<polygon fill="#63b8ff" stroke="#63b8ff" points="152.32,-22.12 141.86,-20.43 148.98,-28.27 152.32,-22.12"/>
</a>
</g>
</g>
<!-- Node13&#45;&gt;Node4 -->
<g id="edge18_Node000013_Node000004" class="edge">
<title>Node13&#45;&gt;Node4</title>
<g id="a_edge18_Node000013_Node000004"><a xlink:title=" ">
<path fill="none" stroke="#63b8ff" d="M497.51,-165.29C501.06,-142.94 506.68,-84.89 475.83,-55.25 434.92,-15.95 270.68,-10.1 181.74,-9.91"/>
<polygon fill="#63b8ff" stroke="#63b8ff" points="182.01,-6.41 172.01,-9.92 182.01,-13.41 182.01,-6.41"/>
</a>
</g>
</g>
<!-- Node13&#45;&gt;Node7 -->
<g id="edge17_Node000013_Node000007" class="edge">
<title>Node13&#45;&gt;Node7</title>
<g id="a_edge17_Node000013_Node000007"><a xlink:title=" ">
<path fill="none" stroke="#63b8ff" d="M482.6,-165.34C471.05,-157.46 454.06,-145.86 440.38,-136.52"/>
<polygon fill="#63b8ff" stroke="#63b8ff" points="442.61,-133.8 432.37,-131.06 438.66,-139.58 442.61,-133.8"/>
</a>
</g>
</g>
<!-- Node15 -->
<g id="Node000015" class="node">
<title>Node15</title>
<g id="a_Node000015"><a xlink:title=" ">
<polygon fill="#e0e0e0" stroke="#999999" points="991.45,-74.5 934.2,-74.5 934.2,-55.25 991.45,-55.25 991.45,-74.5"/>
<text text-anchor="middle" x="962.83" y="-61" font-family="Helvetica,sans-Serif" font-size="10.00">Arduino.h</text>
</a>
</g>
</g>
<!-- Node14&#45;&gt;Node15 -->
<g id="edge20_Node000014_Node000015" class="edge">
<title>Node14&#45;&gt;Node15</title>
<g id="a_edge20_Node000014_Node000015"><a xlink:title=" ">
<path fill="none" stroke="#63b8ff" d="M939.45,-110.33C943.08,-103.44 948.26,-93.59 952.82,-84.91"/>
<polygon fill="#63b8ff" stroke="#63b8ff" points="955.84,-86.68 957.4,-76.2 949.65,-83.42 955.84,-86.68"/>
</a>
</g>
</g>
<!-- Node16 -->
<g id="Node000016" class="node">
<title>Node16</title>
<g id="a_Node000016"><a xlink:href="defines_8h.html" target="_top" xlink:title="Hardware pin definitions and global constants for JMR800&#45;V2.">
<polygon fill="white" stroke="#666666" points="833.7,-74.5 777.95,-74.5 777.95,-55.25 833.7,-55.25 833.7,-74.5"/>
<text text-anchor="middle" x="805.83" y="-61" font-family="Helvetica,sans-Serif" font-size="10.00">defines.h</text>
</a>
</g>
</g>
<!-- Node14&#45;&gt;Node16 -->
<g id="edge21_Node000014_Node000016" class="edge">
<title>Node14&#45;&gt;Node16</title>
<g id="a_edge21_Node000014_Node000016"><a xlink:title=" ">
<path fill="none" stroke="#63b8ff" d="M912.94,-110.09C892.47,-101.64 861.61,-88.9 838.27,-79.27"/>
<polygon fill="#63b8ff" stroke="#63b8ff" points="839.8,-76.11 829.22,-75.53 837.12,-82.58 839.8,-76.11"/>
</a>
</g>
</g>
<!-- Node17&#45;&gt;Node6 -->
<g id="edge24_Node000017_Node000006" class="edge">
<title>Node17&#45;&gt;Node6</title>
<g id="a_edge24_Node000017_Node000006"><a xlink:title=" ">
<path fill="none" stroke="#63b8ff" d="M696.19,-165.34C670.71,-156.7 632.02,-143.57 603.4,-133.87"/>
<polygon fill="#63b8ff" stroke="#63b8ff" points="604.62,-130.59 594.02,-130.69 602.37,-137.22 604.62,-130.59"/>
</a>
</g>
</g>
<!-- Node17&#45;&gt;Node7 -->
<g id="edge25_Node000017_Node000007" class="edge">
<title>Node17&#45;&gt;Node7</title>
<g id="a_edge25_Node000017_Node000007"><a xlink:title=" ">
<path fill="none" stroke="#63b8ff" d="M671.09,-165.34C618.14,-156.1 535.86,-141.73 479.55,-131.9"/>
<polygon fill="#63b8ff" stroke="#63b8ff" points="480.24,-128.47 469.79,-130.2 479.04,-135.36 480.24,-128.47"/>
</a>
</g>
</g>
<!-- Node17&#45;&gt;Node8 -->
<g id="edge29_Node000017_Node000008" class="edge">
<title>Node17&#45;&gt;Node8</title>
<g id="a_edge29_Node000017_Node000008"><a xlink:title=" ">
<path fill="none" stroke="#63b8ff" d="M709.07,-165.41C684.91,-149.77 635.64,-118.43 616.83,-110.5 570.72,-91.07 513.97,-78.29 478.84,-71.57"/>
<polygon fill="#63b8ff" stroke="#63b8ff" points="479.76,-68.18 469.29,-69.8 478.49,-75.06 479.76,-68.18"/>
</a>
</g>
</g>
<!-- Node17&#45;&gt;Node14 -->
<g id="edge31_Node000017_Node000014" class="edge">
<title>Node17&#45;&gt;Node14</title>
<g id="a_edge31_Node000017_Node000014"><a xlink:title=" ">
<path fill="none" stroke="#63b8ff" d="M758.79,-165.34C796.42,-155.89 855.37,-141.08 894.54,-131.24"/>
<polygon fill="#63b8ff" stroke="#63b8ff" points="895.21,-134.68 904.06,-128.85 893.51,-127.89 895.21,-134.68"/>
</a>
</g>
</g>
<!-- Node17&#45;&gt;Node15 -->
<g id="edge23_Node000017_Node000015" class="edge">
<title>Node17&#45;&gt;Node15</title>
<g id="a_edge23_Node000017_Node000015"><a xlink:title=" ">
<path fill="none" stroke="#63b8ff" d="M774.63,-172.68C840.33,-169.32 948.06,-159.33 972.83,-129.75 983.07,-117.51 978.85,-99.16 973.07,-85.27"/>
<polygon fill="#63b8ff" stroke="#63b8ff" points="976.24,-83.77 968.79,-76.24 969.92,-86.78 976.24,-83.77"/>
</a>
</g>
</g>
<!-- Node17&#45;&gt;Node16 -->
<g id="edge30_Node000017_Node000016" class="edge">
<title>Node17&#45;&gt;Node16</title>
<g id="a_edge30_Node000017_Node000016"><a xlink:title=" ">
<path fill="none" stroke="#63b8ff" d="M729.29,-165.65C738.46,-153.32 755.79,-130.08 770.83,-110.5 777.65,-101.62 785.32,-91.82 791.73,-83.67"/>
<polygon fill="#63b8ff" stroke="#63b8ff" points="794.41,-85.93 797.86,-75.91 788.92,-81.59 794.41,-85.93"/>
</a>
</g>
</g>
<!-- Node18 -->
<g id="Node000018" class="node">
<title>Node18</title>
<g id="a_Node000018"><a xlink:title=" ">
<polygon fill="#e0e0e0" stroke="#999999" points="824.08,-129.75 779.58,-129.75 779.58,-110.5 824.08,-110.5 824.08,-129.75"/>
<text text-anchor="middle" x="801.83" y="-116.25" font-family="Helvetica,sans-Serif" font-size="10.00">Wire.h</text>
</a>
</g>
</g>
<!-- Node17&#45;&gt;Node18 -->
<g id="edge26_Node000017_Node000018" class="edge">
<title>Node17&#45;&gt;Node18</title>
<g id="a_edge26_Node000017_Node000018"><a xlink:title=" ">
<path fill="none" stroke="#63b8ff" d="M736.23,-165.34C747.92,-157.46 765.13,-145.86 778.99,-136.52"/>
<polygon fill="#63b8ff" stroke="#63b8ff" points="780.77,-139.54 787.1,-131.05 776.86,-133.74 780.77,-139.54"/>
</a>
</g>
</g>
<!-- Node19 -->
<g id="Node000019" class="node">
<title>Node19</title>
<g id="a_Node000019"><a xlink:title=" ">
<polygon fill="#e0e0e0" stroke="#999999" points="887.83,-129.75 841.83,-129.75 841.83,-110.5 887.83,-110.5 887.83,-129.75"/>
<text text-anchor="middle" x="864.83" y="-116.25" font-family="Helvetica,sans-Serif" font-size="10.00">ADC.h</text>
</a>
</g>
</g>
<!-- Node17&#45;&gt;Node19 -->
<g id="edge27_Node000017_Node000019" class="edge">
<title>Node17&#45;&gt;Node19</title>
<g id="a_edge27_Node000017_Node000019"><a xlink:title=" ">
<path fill="none" stroke="#63b8ff" d="M746.92,-165.34C770.04,-156.67 805.18,-143.49 831.09,-133.78"/>
<polygon fill="#63b8ff" stroke="#63b8ff" points="832.01,-137.17 840.15,-130.38 829.56,-130.61 832.01,-137.17"/>
</a>
</g>
</g>
<!-- Node20 -->
<g id="Node000020" class="node">
<title>Node20</title>
<g id="a_Node000020"><a xlink:title=" ">
<polygon fill="#e0e0e0" stroke="#999999" points="723.58,-129.75 664.08,-129.75 664.08,-110.5 723.58,-110.5 723.58,-129.75"/>
<text text-anchor="middle" x="693.83" y="-116.25" font-family="Helvetica,sans-Serif" font-size="10.00">Encoder.h</text>
</a>
</g>
</g>
<!-- Node17&#45;&gt;Node20 -->
<g id="edge28_Node000017_Node000020" class="edge">
<title>Node17&#45;&gt;Node20</title>
<g id="a_edge28_Node000017_Node000020"><a xlink:title=" ">
<path fill="none" stroke="#63b8ff" d="M718.04,-165.58C714.28,-158.69 708.92,-148.84 704.19,-140.16"/>
<polygon fill="#63b8ff" stroke="#63b8ff" points="707.3,-138.55 699.44,-131.44 701.15,-141.89 707.3,-138.55"/>
</a>
</g>
</g>
</g>
</svg>
