<?xml version="1.0" encoding="UTF-8" standalone="no"?>
<!DOCTYPE svg PUBLIC "-//W3C//DTD SVG 1.1//EN"
 "http://www.w3.org/Graphics/SVG/1.1/DTD/svg11.dtd">
<!-- Generated by graphviz version 12.2.1 (20241206.2353)
 -->
<!-- Title: include/screens/ConfigScreen.h Pages: 1 -->
<svg width="513pt" height="193pt"
 viewBox="0.00 0.00 512.52 193.00" xmlns="http://www.w3.org/2000/svg" xmlns:xlink="http://www.w3.org/1999/xlink">
<g id="graph0" class="graph" transform="scale(1 1) rotate(0) translate(4 189)">
<title>include/screens/ConfigScreen.h</title>
<!-- Node1 -->
<g id="Node000001" class="node">
<title>Node1</title>
<g id="a_Node000001"><a xlink:title="Screen for accessing and modifying configuration settings.">
<polygon fill="#999999" stroke="#666666" points="356.12,-185 201.38,-185 201.38,-165.75 356.12,-165.75 356.12,-185"/>
<text text-anchor="middle" x="278.75" y="-171.5" font-family="Helvetica,sans-Serif" font-size="10.00">include/screens/ConfigScreen.h</text>
</a>
</g>
</g>
<!-- Node2 -->
<g id="Node000002" class="node">
<title>Node2</title>
<g id="a_Node000002"><a xlink:title=" ">
<polygon fill="#e0e0e0" stroke="#999999" points="83.5,-129.75 0,-129.75 0,-110.5 83.5,-110.5 83.5,-129.75"/>
<text text-anchor="middle" x="41.75" y="-116.25" font-family="Helvetica,sans-Serif" font-size="10.00">Adafruit_GFX.h</text>
</a>
</g>
</g>
<!-- Node1&#45;&gt;Node2 -->
<g id="edge1_Node000001_Node000002" class="edge">
<title>Node1&#45;&gt;Node2</title>
<g id="a_edge1_Node000001_Node000002"><a xlink:title=" ">
<path fill="none" stroke="#63b8ff" d="M238.28,-165.28C198.23,-156.28 136.77,-142.48 93.26,-132.7"/>
<polygon fill="#63b8ff" stroke="#63b8ff" points="94.06,-129.29 83.53,-130.51 92.52,-136.12 94.06,-129.29"/>
</a>
</g>
</g>
<!-- Node3 -->
<g id="Node000003" class="node">
<title>Node3</title>
<g id="a_Node000003"><a xlink:title=" ">
<polygon fill="#e0e0e0" stroke="#999999" points="201.75,-129.75 101.75,-129.75 101.75,-110.5 201.75,-110.5 201.75,-129.75"/>
<text text-anchor="middle" x="151.75" y="-116.25" font-family="Helvetica,sans-Serif" font-size="10.00">Adafruit_SH110X.h</text>
</a>
</g>
</g>
<!-- Node1&#45;&gt;Node3 -->
<g id="edge2_Node000001_Node000003" class="edge">
<title>Node1&#45;&gt;Node3</title>
<g id="a_edge2_Node000001_Node000003"><a xlink:title=" ">
<path fill="none" stroke="#63b8ff" d="M257.21,-165.34C237.14,-156.93 206.95,-144.27 184,-134.65"/>
<polygon fill="#63b8ff" stroke="#63b8ff" points="185.37,-131.43 174.8,-130.79 182.66,-137.88 185.37,-131.43"/>
</a>
</g>
</g>
<!-- Node4 -->
<g id="Node000004" class="node">
<title>Node4</title>
<g id="a_Node000004"><a xlink:title=" ">
<polygon fill="#e0e0e0" stroke="#999999" points="122.25,-74.5 79.25,-74.5 79.25,-55.25 122.25,-55.25 122.25,-74.5"/>
<text text-anchor="middle" x="100.75" y="-61" font-family="Helvetica,sans-Serif" font-size="10.00">vector</text>
</a>
</g>
</g>
<!-- Node1&#45;&gt;Node4 -->
<g id="edge3_Node000001_Node000004" class="edge">
<title>Node1&#45;&gt;Node4</title>
<g id="a_edge3_Node000001_Node000004"><a xlink:title=" ">
<path fill="none" stroke="#63b8ff" d="M271.21,-165.44C259.47,-151.98 235.57,-126.4 210.75,-110.5 186.55,-95 156.08,-83.14 133.35,-75.56"/>
<polygon fill="#63b8ff" stroke="#63b8ff" points="134.59,-72.29 124,-72.55 132.44,-78.95 134.59,-72.29"/>
</a>
</g>
</g>
<!-- Node5 -->
<g id="Node000005" class="node">
<title>Node5</title>
<g id="a_Node000005"><a xlink:href="_widget_8h.html" target="_top" xlink:title="Abstract base class for UI widgets in the JMR800&#45;V2 OLED interface.">
<polygon fill="white" stroke="#666666" points="491.62,-74.5 399.88,-74.5 399.88,-55.25 491.62,-55.25 491.62,-74.5"/>
<text text-anchor="middle" x="445.75" y="-61" font-family="Helvetica,sans-Serif" font-size="10.00">widgets/Widget.h</text>
</a>
</g>
</g>
<!-- Node1&#45;&gt;Node5 -->
<g id="edge4_Node000001_Node000005" class="edge">
<title>Node1&#45;&gt;Node5</title>
<g id="a_edge4_Node000001_Node000005"><a xlink:title=" ">
<path fill="none" stroke="#63b8ff" d="M328.88,-165.32C354.29,-158.76 384.41,-147.78 406.75,-129.75 421.28,-118.02 431.79,-99.32 438.21,-85.18"/>
<polygon fill="#63b8ff" stroke="#63b8ff" points="441.42,-86.6 442.06,-76.02 434.96,-83.89 441.42,-86.6"/>
</a>
</g>
</g>
<!-- Node6 -->
<g id="Node000006" class="node">
<title>Node6</title>
<g id="a_Node000006"><a xlink:href="_screen_8h.html" target="_top" xlink:title="Abstract interface for all UI screens in the JMR800&#45;V2 system.">
<polygon fill="white" stroke="#666666" points="405,-19.25 312.5,-19.25 312.5,0 405,0 405,-19.25"/>
<text text-anchor="middle" x="358.75" y="-5.75" font-family="Helvetica,sans-Serif" font-size="10.00">screens/Screen.h</text>
</a>
</g>
</g>
<!-- Node1&#45;&gt;Node6 -->
<g id="edge5_Node000001_Node000006" class="edge">
<title>Node1&#45;&gt;Node6</title>
<g id="a_edge5_Node000001_Node000006"><a xlink:title=" ">
<path fill="none" stroke="#63b8ff" d="M352.76,-165.27C406.26,-154.12 473.69,-129.37 500.75,-74.5 519.25,-36.98 463.5,-21.48 416.51,-15.09"/>
<polygon fill="#63b8ff" stroke="#63b8ff" points="416.96,-11.62 406.61,-13.87 416.11,-18.57 416.96,-11.62"/>
</a>
</g>
</g>
<!-- Node7 -->
<g id="Node000007" class="node">
<title>Node7</title>
<g id="a_Node000007"><a xlink:href="_knob_config_dialog_8h.html" target="_top" xlink:title="Modal dialog for editing knob assignments and configuration parameters.">
<polygon fill="white" stroke="#666666" points="398,-129.75 257.5,-129.75 257.5,-110.5 398,-110.5 398,-129.75"/>
<text text-anchor="middle" x="327.75" y="-116.25" font-family="Helvetica,sans-Serif" font-size="10.00">screens/KnobConfigDialog.h</text>
</a>
</g>
</g>
<!-- Node1&#45;&gt;Node7 -->
<g id="edge6_Node000001_Node000007" class="edge">
<title>Node1&#45;&gt;Node7</title>
<g id="a_edge6_Node000001_Node000007"><a xlink:title=" ">
<path fill="none" stroke="#63b8ff" d="M286.84,-165.58C293.61,-158.23 303.47,-147.51 311.81,-138.44"/>
<polygon fill="#63b8ff" stroke="#63b8ff" points="314.26,-140.95 318.46,-131.22 309.11,-136.21 314.26,-140.95"/>
</a>
</g>
</g>
<!-- Node7&#45;&gt;Node4 -->
<g id="edge7_Node000007_Node000004" class="edge">
<title>Node7&#45;&gt;Node4</title>
<g id="a_edge7_Node000007_Node000004"><a xlink:title=" ">
<path fill="none" stroke="#63b8ff" d="M284.54,-110.08C246.93,-102.04 190.72,-89.64 133.7,-75.16"/>
<polygon fill="#63b8ff" stroke="#63b8ff" points="134.69,-71.8 124.13,-72.71 132.95,-78.58 134.69,-71.8"/>
</a>
</g>
</g>
<!-- Node7&#45;&gt;Node5 -->
<g id="edge8_Node000007_Node000005" class="edge">
<title>Node7&#45;&gt;Node5</title>
<g id="a_edge8_Node000007_Node000005"><a xlink:title=" ">
<path fill="none" stroke="#63b8ff" d="M347.77,-110.09C366.24,-101.75 393.96,-89.25 415.2,-79.66"/>
<polygon fill="#63b8ff" stroke="#63b8ff" points="416.58,-82.88 424.26,-75.58 413.7,-76.5 416.58,-82.88"/>
</a>
</g>
</g>
<!-- Node8 -->
<g id="Node000008" class="node">
<title>Node8</title>
<g id="a_Node000008"><a xlink:href="_modal_dialog_8h.html" target="_top" xlink:title="Abstract base class for modal dialogs in the JMR800&#45;V2 UI.">
<polygon fill="white" stroke="#666666" points="255.62,-74.5 139.88,-74.5 139.88,-55.25 255.62,-55.25 255.62,-74.5"/>
<text text-anchor="middle" x="197.75" y="-61" font-family="Helvetica,sans-Serif" font-size="10.00">screens/ModalDialog.h</text>
</a>
</g>
</g>
<!-- Node7&#45;&gt;Node8 -->
<g id="edge9_Node000007_Node000008" class="edge">
<title>Node7&#45;&gt;Node8</title>
<g id="a_edge9_Node000007_Node000008"><a xlink:title=" ">
<path fill="none" stroke="#63b8ff" d="M305.7,-110.09C285.06,-101.64 253.97,-88.9 230.45,-79.27"/>
<polygon fill="#63b8ff" stroke="#63b8ff" points="231.89,-76.08 221.31,-75.53 229.24,-82.56 231.89,-76.08"/>
</a>
</g>
</g>
<!-- Node9 -->
<g id="Node000009" class="node">
<title>Node9</title>
<g id="a_Node000009"><a xlink:href="_i_widget_nav_handler_8h.html" target="_top" xlink:title="Interface for handling horizontal navigation events between UI widgets.">
<polygon fill="white" stroke="#666666" points="382.25,-74.5 273.25,-74.5 273.25,-55.25 382.25,-55.25 382.25,-74.5"/>
<text text-anchor="middle" x="327.75" y="-61" font-family="Helvetica,sans-Serif" font-size="10.00">IWidgetNavHandler.h</text>
</a>
</g>
</g>
<!-- Node7&#45;&gt;Node9 -->
<g id="edge11_Node000007_Node000009" class="edge">
<title>Node7&#45;&gt;Node9</title>
<g id="a_edge11_Node000007_Node000009"><a xlink:title=" ">
<path fill="none" stroke="#63b8ff" d="M327.75,-110.33C327.75,-103.82 327.75,-94.67 327.75,-86.37"/>
<polygon fill="#63b8ff" stroke="#63b8ff" points="331.25,-86.37 327.75,-76.37 324.25,-86.37 331.25,-86.37"/>
</a>
</g>
</g>
<!-- Node8&#45;&gt;Node6 -->
<g id="edge10_Node000008_Node000006" class="edge">
<title>Node8&#45;&gt;Node6</title>
<g id="a_edge10_Node000008_Node000006"><a xlink:title=" ">
<path fill="none" stroke="#63b8ff" d="M225.06,-54.84C251.31,-46.16 291.23,-32.96 320.61,-23.24"/>
<polygon fill="#63b8ff" stroke="#63b8ff" points="321.47,-26.64 329.87,-20.18 319.27,-19.99 321.47,-26.64"/>
</a>
</g>
</g>
</g>
</svg>
