<?xml version="1.0" encoding="UTF-8" standalone="no"?>
<!DOCTYPE svg PUBLIC "-//W3C//DTD SVG 1.1//EN"
 "http://www.w3.org/Graphics/SVG/1.1/DTD/svg11.dtd">
<!-- Generated by graphviz version 12.2.1 (20241206.2353)
 -->
<!-- Title: include/screens/DirectCommandScreen.h Pages: 1 -->
<svg width="596pt" height="160pt"
 viewBox="0.00 0.00 596.39 160.25" xmlns="http://www.w3.org/2000/svg" xmlns:xlink="http://www.w3.org/1999/xlink">
<g id="graph0" class="graph" transform="scale(1 1) rotate(0) translate(4 156.25)">
<title>include/screens/DirectCommandScreen.h</title>
<!-- Node1 -->
<g id="Node000001" class="node">
<title>Node1</title>
<g id="a_Node000001"><a xlink:title="UI screen for manually sending raw commands to the synthesizer interface.">
<polygon fill="#999999" stroke="#666666" points="447.39,-152.25 288.89,-152.25 288.89,-121.75 447.39,-121.75 447.39,-152.25"/>
<text text-anchor="start" x="296.89" y="-138.75" font-family="Helvetica,sans-Serif" font-size="10.00">include/screens/DirectCommand</text>
<text text-anchor="middle" x="368.14" y="-127.5" font-family="Helvetica,sans-Serif" font-size="10.00">Screen.h</text>
</a>
</g>
</g>
<!-- Node2 -->
<g id="Node000002" class="node">
<title>Node2</title>
<g id="a_Node000002"><a xlink:title=" ">
<polygon fill="#e0e0e0" stroke="#999999" points="138.89,-19.25 55.39,-19.25 55.39,0 138.89,0 138.89,-19.25"/>
<text text-anchor="middle" x="97.14" y="-5.75" font-family="Helvetica,sans-Serif" font-size="10.00">Adafruit_GFX.h</text>
</a>
</g>
</g>
<!-- Node1&#45;&gt;Node2 -->
<g id="edge1_Node000001_Node000002" class="edge">
<title>Node1&#45;&gt;Node2</title>
<g id="a_edge1_Node000001_Node000002"><a xlink:title=" ">
<path fill="none" stroke="#63b8ff" d="M288.78,-136.62C193.5,-135.46 42.02,-126.96 6.14,-85.75 -2.77,-75.53 -1.04,-66.75 6.14,-55.25 15.37,-40.43 31.13,-30.39 46.96,-23.66"/>
<polygon fill="#63b8ff" stroke="#63b8ff" points="47.81,-27.08 55.89,-20.23 45.3,-20.55 47.81,-27.08"/>
</a>
</g>
</g>
<!-- Node3 -->
<g id="Node000003" class="node">
<title>Node3</title>
<g id="a_Node000003"><a xlink:title=" ">
<polygon fill="#e0e0e0" stroke="#999999" points="400.14,-19.25 300.14,-19.25 300.14,0 400.14,0 400.14,-19.25"/>
<text text-anchor="middle" x="350.14" y="-5.75" font-family="Helvetica,sans-Serif" font-size="10.00">Adafruit_SH110X.h</text>
</a>
</g>
</g>
<!-- Node1&#45;&gt;Node3 -->
<g id="edge2_Node000001_Node000003" class="edge">
<title>Node1&#45;&gt;Node3</title>
<g id="a_edge2_Node000001_Node000003"><a xlink:title=" ">
<path fill="none" stroke="#63b8ff" d="M374.79,-121.41C381.33,-105.01 389.36,-77.74 382.14,-55.25 378.98,-45.42 372.76,-35.92 366.65,-28.24"/>
<polygon fill="#63b8ff" stroke="#63b8ff" points="369.35,-26.01 360.18,-20.72 364.05,-30.58 369.35,-26.01"/>
</a>
</g>
</g>
<!-- Node4 -->
<g id="Node000004" class="node">
<title>Node4</title>
<g id="a_Node000004"><a xlink:title=" ">
<polygon fill="#e0e0e0" stroke="#999999" points="477.64,-80.12 434.64,-80.12 434.64,-60.88 477.64,-60.88 477.64,-80.12"/>
<text text-anchor="middle" x="456.14" y="-66.62" font-family="Helvetica,sans-Serif" font-size="10.00">vector</text>
</a>
</g>
</g>
<!-- Node1&#45;&gt;Node4 -->
<g id="edge3_Node000001_Node000004" class="edge">
<title>Node1&#45;&gt;Node4</title>
<g id="a_edge3_Node000001_Node000004"><a xlink:title=" ">
<path fill="none" stroke="#63b8ff" d="M388.1,-121.36C402.03,-111.16 420.59,-97.55 434.81,-87.13"/>
<polygon fill="#63b8ff" stroke="#63b8ff" points="436.63,-90.14 442.62,-81.4 432.49,-84.49 436.63,-90.14"/>
</a>
</g>
</g>
<!-- Node5 -->
<g id="Node000005" class="node">
<title>Node5</title>
<g id="a_Node000005"><a xlink:href="_widget_8h.html" target="_top" xlink:title="Abstract base class for UI widgets in the JMR800&#45;V2 OLED interface.">
<polygon fill="white" stroke="#666666" points="282.01,-19.25 190.26,-19.25 190.26,0 282.01,0 282.01,-19.25"/>
<text text-anchor="middle" x="236.14" y="-5.75" font-family="Helvetica,sans-Serif" font-size="10.00">widgets/Widget.h</text>
</a>
</g>
</g>
<!-- Node1&#45;&gt;Node5 -->
<g id="edge4_Node000001_Node000005" class="edge">
<title>Node1&#45;&gt;Node5</title>
<g id="a_edge4_Node000001_Node000005"><a xlink:title=" ">
<path fill="none" stroke="#63b8ff" d="M368.57,-121.37C368.31,-103.65 365.24,-73.88 349.14,-55.25 334.81,-38.68 313.52,-28.21 293.26,-21.62"/>
<polygon fill="#63b8ff" stroke="#63b8ff" points="294.52,-18.34 283.94,-18.86 292.53,-25.05 294.52,-18.34"/>
</a>
</g>
</g>
<!-- Node6 -->
<g id="Node000006" class="node">
<title>Node6</title>
<g id="a_Node000006"><a xlink:href="_screen_8h.html" target="_top" xlink:title="Abstract interface for all UI screens in the JMR800&#45;V2 system.">
<polygon fill="white" stroke="#666666" points="588.39,-80.12 495.89,-80.12 495.89,-60.88 588.39,-60.88 588.39,-80.12"/>
<text text-anchor="middle" x="542.14" y="-66.62" font-family="Helvetica,sans-Serif" font-size="10.00">screens/Screen.h</text>
</a>
</g>
</g>
<!-- Node1&#45;&gt;Node6 -->
<g id="edge5_Node000001_Node000006" class="edge">
<title>Node1&#45;&gt;Node6</title>
<g id="a_edge5_Node000001_Node000006"><a xlink:title=" ">
<path fill="none" stroke="#63b8ff" d="M407.62,-121.36C437.45,-110.31 478.03,-95.26 506.8,-84.6"/>
<polygon fill="#63b8ff" stroke="#63b8ff" points="508,-87.89 516.16,-81.13 505.56,-81.32 508,-87.89"/>
</a>
</g>
</g>
<!-- Node7 -->
<g id="Node000007" class="node">
<title>Node7</title>
<g id="a_Node000007"><a xlink:href="_encoder_attached_numeric_widget_8h.html" target="_top" xlink:title="Widget for displaying and adjusting numeric values using an encoder.">
<polygon fill="white" stroke="#666666" points="179.39,-85.75 14.89,-85.75 14.89,-55.25 179.39,-55.25 179.39,-85.75"/>
<text text-anchor="start" x="22.89" y="-72.25" font-family="Helvetica,sans-Serif" font-size="10.00">widgets/EncoderAttachedNumeric</text>
<text text-anchor="middle" x="97.14" y="-61" font-family="Helvetica,sans-Serif" font-size="10.00">Widget.h</text>
</a>
</g>
</g>
<!-- Node1&#45;&gt;Node7 -->
<g id="edge6_Node000001_Node000007" class="edge">
<title>Node1&#45;&gt;Node7</title>
<g id="a_edge6_Node000001_Node000007"><a xlink:title=" ">
<path fill="none" stroke="#63b8ff" d="M306.3,-121.28C265.72,-111.62 212.47,-98.95 169.86,-88.81"/>
<polygon fill="#63b8ff" stroke="#63b8ff" points="170.71,-85.41 160.18,-86.5 169.09,-92.22 170.71,-85.41"/>
</a>
</g>
</g>
<!-- Node8 -->
<g id="Node000008" class="node">
<title>Node8</title>
<g id="a_Node000008"><a xlink:href="_push_button_widget_8h.html" target="_top" xlink:title="Represents an interactive on&#45;screen push button for the JMR800&#45;V2 UI.">
<polygon fill="white" stroke="#666666" points="340.51,-80.12 197.76,-80.12 197.76,-60.88 340.51,-60.88 340.51,-80.12"/>
<text text-anchor="middle" x="269.14" y="-66.62" font-family="Helvetica,sans-Serif" font-size="10.00">widgets/PushButtonWidget.h</text>
</a>
</g>
</g>
<!-- Node1&#45;&gt;Node8 -->
<g id="edge10_Node000001_Node000008" class="edge">
<title>Node1&#45;&gt;Node8</title>
<g id="a_edge10_Node000001_Node000008"><a xlink:title=" ">
<path fill="none" stroke="#63b8ff" d="M345.67,-121.36C329.7,-110.96 308.32,-97.03 292.21,-86.54"/>
<polygon fill="#63b8ff" stroke="#63b8ff" points="294.52,-83.86 284.23,-81.34 290.7,-89.73 294.52,-83.86"/>
</a>
</g>
</g>
<!-- Node7&#45;&gt;Node2 -->
<g id="edge8_Node000007_Node000002" class="edge">
<title>Node7&#45;&gt;Node2</title>
<g id="a_edge8_Node000007_Node000002"><a xlink:title=" ">
<path fill="none" stroke="#63b8ff" d="M97.14,-54.95C97.14,-47.71 97.14,-38.84 97.14,-30.94"/>
<polygon fill="#63b8ff" stroke="#63b8ff" points="100.64,-31.21 97.14,-21.21 93.64,-31.21 100.64,-31.21"/>
</a>
</g>
</g>
<!-- Node7&#45;&gt;Node3 -->
<g id="edge9_Node000007_Node000003" class="edge">
<title>Node7&#45;&gt;Node3</title>
<g id="a_edge9_Node000007_Node000003"><a xlink:title=" ">
<path fill="none" stroke="#63b8ff" d="M160.33,-54.8C203.45,-44.76 259.79,-31.65 299.86,-22.32"/>
<polygon fill="#63b8ff" stroke="#63b8ff" points="300.54,-25.76 309.49,-20.08 298.96,-18.94 300.54,-25.76"/>
</a>
</g>
</g>
<!-- Node7&#45;&gt;Node5 -->
<g id="edge7_Node000007_Node000005" class="edge">
<title>Node7&#45;&gt;Node5</title>
<g id="a_edge7_Node000007_Node000005"><a xlink:title=" ">
<path fill="none" stroke="#63b8ff" d="M131.85,-54.8C154.14,-45.35 182.86,-33.19 204.51,-24.02"/>
<polygon fill="#63b8ff" stroke="#63b8ff" points="205.58,-27.37 213.42,-20.24 202.85,-20.92 205.58,-27.37"/>
</a>
</g>
</g>
<!-- Node8&#45;&gt;Node2 -->
<g id="edge12_Node000008_Node000002" class="edge">
<title>Node8&#45;&gt;Node2</title>
<g id="a_edge12_Node000008_Node000002"><a xlink:title=" ">
<path fill="none" stroke="#63b8ff" d="M242.64,-60.43C213.6,-50.49 166.81,-34.47 134.15,-23.29"/>
<polygon fill="#63b8ff" stroke="#63b8ff" points="135.69,-20.12 125.1,-20.2 133.42,-26.75 135.69,-20.12"/>
</a>
</g>
</g>
<!-- Node8&#45;&gt;Node3 -->
<g id="edge13_Node000008_Node000003" class="edge">
<title>Node8&#45;&gt;Node3</title>
<g id="a_edge13_Node000008_Node000003"><a xlink:title=" ">
<path fill="none" stroke="#63b8ff" d="M281.44,-60.56C293.93,-51.48 313.52,-37.24 328.59,-26.29"/>
<polygon fill="#63b8ff" stroke="#63b8ff" points="330.46,-29.25 336.49,-20.54 326.35,-23.59 330.46,-29.25"/>
</a>
</g>
</g>
<!-- Node8&#45;&gt;Node5 -->
<g id="edge11_Node000008_Node000005" class="edge">
<title>Node8&#45;&gt;Node5</title>
<g id="a_edge11_Node000008_Node000005"><a xlink:title=" ">
<path fill="none" stroke="#63b8ff" d="M264.12,-60.56C259.52,-52.35 252.55,-39.91 246.71,-29.5"/>
<polygon fill="#63b8ff" stroke="#63b8ff" points="249.88,-27.98 241.93,-20.97 243.77,-31.41 249.88,-27.98"/>
</a>
</g>
</g>
</g>
</svg>
