<?xml version="1.0" encoding="UTF-8" standalone="no"?>
<!DOCTYPE svg PUBLIC "-//W3C//DTD SVG 1.1//EN"
 "http://www.w3.org/Graphics/SVG/1.1/DTD/svg11.dtd">
<!-- Generated by graphviz version 12.2.1 (20241206.2353)
 -->
<!-- Title: src/modes/DirectCommandMode.cpp Pages: 1 -->
<svg width="1049pt" height="260pt"
 viewBox="0.00 0.00 1048.88 259.50" xmlns="http://www.w3.org/2000/svg" xmlns:xlink="http://www.w3.org/1999/xlink">
<g id="graph0" class="graph" transform="scale(1 1) rotate(0) translate(4 255.5)">
<title>src/modes/DirectCommandMode.cpp</title>
<!-- Node1 -->
<g id="Node000001" class="node">
<title>Node1</title>
<g id="a_Node000001"><a xlink:title="Implements behavior for Direct Command Mode.">
<polygon fill="#999999" stroke="#666666" points="695.25,-251.5 516.5,-251.5 516.5,-232.25 695.25,-232.25 695.25,-251.5"/>
<text text-anchor="middle" x="605.88" y="-238" font-family="Helvetica,sans-Serif" font-size="10.00">src/modes/DirectCommandMode.cpp</text>
</a>
</g>
</g>
<!-- Node2 -->
<g id="Node000002" class="node">
<title>Node2</title>
<g id="a_Node000002"><a xlink:href="_direct_command_mode_8h.html" target="_top" xlink:title="Application mode for sending direct parameter/value commands.">
<polygon fill="white" stroke="#666666" points="538.75,-196.25 387,-196.25 387,-177 538.75,-177 538.75,-196.25"/>
<text text-anchor="middle" x="462.88" y="-182.75" font-family="Helvetica,sans-Serif" font-size="10.00">modes/DirectCommandMode.h</text>
</a>
</g>
</g>
<!-- Node1&#45;&gt;Node2 -->
<g id="edge1_Node000001_Node000002" class="edge">
<title>Node1&#45;&gt;Node2</title>
<g id="a_edge1_Node000001_Node000002"><a xlink:title=" ">
<path fill="none" stroke="#63b8ff" d="M581.62,-231.84C558.61,-223.27 523.78,-210.31 497.79,-200.63"/>
<polygon fill="#63b8ff" stroke="#63b8ff" points="499.26,-197.44 488.67,-197.23 496.82,-204 499.26,-197.44"/>
</a>
</g>
</g>
<!-- Node9 -->
<g id="Node000009" class="node">
<title>Node9</title>
<g id="a_Node000009"><a xlink:href="_widget_8h.html" target="_top" xlink:title="Abstract base class for UI widgets in the JMR800&#45;V2 OLED interface.">
<polygon fill="white" stroke="#666666" points="91.75,-19.25 0,-19.25 0,0 91.75,0 91.75,-19.25"/>
<text text-anchor="middle" x="45.88" y="-5.75" font-family="Helvetica,sans-Serif" font-size="10.00">widgets/Widget.h</text>
</a>
</g>
</g>
<!-- Node1&#45;&gt;Node9 -->
<g id="edge34_Node000001_Node000009" class="edge">
<title>Node1&#45;&gt;Node9</title>
<g id="a_edge34_Node000001_Node000009"><a xlink:title=" ">
<path fill="none" stroke="#63b8ff" d="M520.47,-231.77C369.88,-213.74 67.2,-167.94 5.88,-85.75 -8.05,-67.09 10.31,-42.95 26.5,-27.14"/>
<polygon fill="#63b8ff" stroke="#63b8ff" points="28.48,-30.07 33.47,-20.72 23.74,-24.92 28.48,-30.07"/>
</a>
</g>
</g>
<!-- Node12 -->
<g id="Node000012" class="node">
<title>Node12</title>
<g id="a_Node000012"><a xlink:href="_screen_manager_8h.html" target="_top" xlink:title="Declares the ScreenManager class responsible for UI screen control on the OLED display.">
<polygon fill="white" stroke="#666666" points="651.75,-141 560,-141 560,-121.75 651.75,-121.75 651.75,-141"/>
<text text-anchor="middle" x="605.88" y="-127.5" font-family="Helvetica,sans-Serif" font-size="10.00">ScreenManager.h</text>
</a>
</g>
</g>
<!-- Node1&#45;&gt;Node12 -->
<g id="edge18_Node000001_Node000012" class="edge">
<title>Node1&#45;&gt;Node12</title>
<g id="a_edge18_Node000001_Node000012"><a xlink:title=" ">
<path fill="none" stroke="#63b8ff" d="M605.88,-232C605.88,-214.75 605.88,-176.33 605.88,-152.56"/>
<polygon fill="#63b8ff" stroke="#63b8ff" points="609.38,-152.89 605.88,-142.89 602.38,-152.89 609.38,-152.89"/>
</a>
</g>
</g>
<!-- Node13 -->
<g id="Node000013" class="node">
<title>Node13</title>
<g id="a_Node000013"><a xlink:href="_logging_8h.html" target="_top" xlink:title="Lightweight logging utility for serial output in the JMR800&#45;V2 project.">
<polygon fill="white" stroke="#666666" points="1040.88,-80.12 982.88,-80.12 982.88,-60.88 1040.88,-60.88 1040.88,-80.12"/>
<text text-anchor="middle" x="1011.88" y="-66.62" font-family="Helvetica,sans-Serif" font-size="10.00">Logging.h</text>
</a>
</g>
</g>
<!-- Node1&#45;&gt;Node13 -->
<g id="edge21_Node000001_Node000013" class="edge">
<title>Node1&#45;&gt;Node13</title>
<g id="a_edge21_Node000001_Node000013"><a xlink:title=" ">
<path fill="none" stroke="#63b8ff" d="M627.7,-231.77C695.19,-203.62 900.69,-117.89 980.09,-84.76"/>
<polygon fill="#63b8ff" stroke="#63b8ff" points="981.15,-88.11 989.03,-81.03 978.46,-81.65 981.15,-88.11"/>
</a>
</g>
</g>
<!-- Node16 -->
<g id="Node000016" class="node">
<title>Node16</title>
<g id="a_Node000016"><a xlink:href="_hardware_manager_8h.html" target="_top" xlink:title="Manages hardware input/output for analog controls, digital buttons, encoder, and serial communication...">
<polygon fill="white" stroke="#666666" points="829.38,-141 726.38,-141 726.38,-121.75 829.38,-121.75 829.38,-141"/>
<text text-anchor="middle" x="777.88" y="-127.5" font-family="Helvetica,sans-Serif" font-size="10.00">HardwareManager.h</text>
</a>
</g>
</g>
<!-- Node1&#45;&gt;Node16 -->
<g id="edge24_Node000001_Node000016" class="edge">
<title>Node1&#45;&gt;Node16</title>
<g id="a_edge24_Node000001_Node000016"><a xlink:title=" ">
<path fill="none" stroke="#63b8ff" d="M620.24,-231.81C649.91,-213.1 718.19,-170.03 754.37,-147.2"/>
<polygon fill="#63b8ff" stroke="#63b8ff" points="755.8,-150.44 762.39,-142.14 752.06,-144.52 755.8,-150.44"/>
</a>
</g>
</g>
<!-- Node3 -->
<g id="Node000003" class="node">
<title>Node3</title>
<g id="a_Node000003"><a xlink:href="_app_mode_8h.html" target="_top" xlink:title="Abstract interface for application mode behavior.">
<polygon fill="white" stroke="#666666" points="511.75,-141 414,-141 414,-121.75 511.75,-121.75 511.75,-141"/>
<text text-anchor="middle" x="462.88" y="-127.5" font-family="Helvetica,sans-Serif" font-size="10.00">modes/AppMode.h</text>
</a>
</g>
</g>
<!-- Node2&#45;&gt;Node3 -->
<g id="edge2_Node000002_Node000003" class="edge">
<title>Node2&#45;&gt;Node3</title>
<g id="a_edge2_Node000002_Node000003"><a xlink:title=" ">
<path fill="none" stroke="#63b8ff" d="M462.88,-176.83C462.88,-170.32 462.88,-161.17 462.88,-152.87"/>
<polygon fill="#63b8ff" stroke="#63b8ff" points="466.38,-152.87 462.88,-142.87 459.38,-152.87 466.38,-152.87"/>
</a>
</g>
</g>
<!-- Node5 -->
<g id="Node000005" class="node">
<title>Node5</title>
<g id="a_Node000005"><a xlink:href="_direct_command_screen_8h.html" target="_top" xlink:title="UI screen for manually sending raw commands to the synthesizer interface.">
<polygon fill="white" stroke="#666666" points="377.75,-141 214,-141 214,-121.75 377.75,-121.75 377.75,-141"/>
<text text-anchor="middle" x="295.88" y="-127.5" font-family="Helvetica,sans-Serif" font-size="10.00">screens/DirectCommandScreen.h</text>
</a>
</g>
</g>
<!-- Node2&#45;&gt;Node5 -->
<g id="edge4_Node000002_Node000005" class="edge">
<title>Node2&#45;&gt;Node5</title>
<g id="a_edge4_Node000002_Node000005"><a xlink:title=" ">
<path fill="none" stroke="#63b8ff" d="M434.55,-176.59C407.2,-167.87 365.55,-154.59 335.04,-144.86"/>
<polygon fill="#63b8ff" stroke="#63b8ff" points="336.38,-141.62 325.79,-141.91 334.25,-148.28 336.38,-141.62"/>
</a>
</g>
</g>
<!-- Node4 -->
<g id="Node000004" class="node">
<title>Node4</title>
<g id="a_Node000004"><a xlink:href="_screen_8h.html" target="_top" xlink:title="Abstract interface for all UI screens in the JMR800&#45;V2 system.">
<polygon fill="white" stroke="#666666" points="509.12,-80.12 416.62,-80.12 416.62,-60.88 509.12,-60.88 509.12,-80.12"/>
<text text-anchor="middle" x="462.88" y="-66.62" font-family="Helvetica,sans-Serif" font-size="10.00">screens/Screen.h</text>
</a>
</g>
</g>
<!-- Node3&#45;&gt;Node4 -->
<g id="edge3_Node000003_Node000004" class="edge">
<title>Node3&#45;&gt;Node4</title>
<g id="a_edge3_Node000003_Node000004"><a xlink:title=" ">
<path fill="none" stroke="#63b8ff" d="M462.88,-121.43C462.88,-113.65 462.88,-102.08 462.88,-92.03"/>
<polygon fill="#63b8ff" stroke="#63b8ff" points="466.38,-92.04 462.88,-82.04 459.38,-92.04 466.38,-92.04"/>
</a>
</g>
</g>
<!-- Node5&#45;&gt;Node4 -->
<g id="edge9_Node000005_Node000004" class="edge">
<title>Node5&#45;&gt;Node4</title>
<g id="a_edge9_Node000005_Node000004"><a xlink:title=" ">
<path fill="none" stroke="#63b8ff" d="M321.6,-121.3C349.68,-111.41 394.84,-95.49 426.52,-84.32"/>
<polygon fill="#63b8ff" stroke="#63b8ff" points="427.42,-87.71 435.69,-81.08 425.1,-81.11 427.42,-87.71"/>
</a>
</g>
</g>
<!-- Node6 -->
<g id="Node000006" class="node">
<title>Node6</title>
<g id="a_Node000006"><a xlink:title=" ">
<polygon fill="#e0e0e0" stroke="#999999" points="208.62,-19.25 125.12,-19.25 125.12,0 208.62,0 208.62,-19.25"/>
<text text-anchor="middle" x="166.88" y="-5.75" font-family="Helvetica,sans-Serif" font-size="10.00">Adafruit_GFX.h</text>
</a>
</g>
</g>
<!-- Node5&#45;&gt;Node6 -->
<g id="edge5_Node000005_Node000006" class="edge">
<title>Node5&#45;&gt;Node6</title>
<g id="a_edge5_Node000005_Node000006"><a xlink:title=" ">
<path fill="none" stroke="#63b8ff" d="M213.7,-128.05C143.61,-124.12 50.52,-113.64 26.88,-85.75 -2.23,-51.42 62.63,-30.33 113.51,-19.55"/>
<polygon fill="#63b8ff" stroke="#63b8ff" points="114.17,-22.99 123.28,-17.58 112.79,-16.13 114.17,-22.99"/>
</a>
</g>
</g>
<!-- Node7 -->
<g id="Node000007" class="node">
<title>Node7</title>
<g id="a_Node000007"><a xlink:title=" ">
<polygon fill="#e0e0e0" stroke="#999999" points="438.88,-19.25 338.88,-19.25 338.88,0 438.88,0 438.88,-19.25"/>
<text text-anchor="middle" x="388.88" y="-5.75" font-family="Helvetica,sans-Serif" font-size="10.00">Adafruit_SH110X.h</text>
</a>
</g>
</g>
<!-- Node5&#45;&gt;Node7 -->
<g id="edge6_Node000005_Node000007" class="edge">
<title>Node5&#45;&gt;Node7</title>
<g id="a_edge6_Node000005_Node000007"><a xlink:title=" ">
<path fill="none" stroke="#63b8ff" d="M320.69,-121.27C337.01,-114.05 357.55,-102.38 369.88,-85.75 381.76,-69.72 386.25,-47.04 387.93,-30.8"/>
<polygon fill="#63b8ff" stroke="#63b8ff" points="391.41,-31.15 388.64,-20.92 384.43,-30.64 391.41,-31.15"/>
</a>
</g>
</g>
<!-- Node8 -->
<g id="Node000008" class="node">
<title>Node8</title>
<g id="a_Node000008"><a xlink:title=" ">
<polygon fill="#e0e0e0" stroke="#999999" points="570.38,-80.12 527.38,-80.12 527.38,-60.88 570.38,-60.88 570.38,-80.12"/>
<text text-anchor="middle" x="548.88" y="-66.62" font-family="Helvetica,sans-Serif" font-size="10.00">vector</text>
</a>
</g>
</g>
<!-- Node5&#45;&gt;Node8 -->
<g id="edge7_Node000005_Node000008" class="edge">
<title>Node5&#45;&gt;Node8</title>
<g id="a_edge7_Node000005_Node000008"><a xlink:title=" ">
<path fill="none" stroke="#63b8ff" d="M361.5,-121.29C406.24,-114.11 466.47,-102.48 517.88,-85.75 518.84,-85.44 519.81,-85.1 520.78,-84.75"/>
<polygon fill="#63b8ff" stroke="#63b8ff" points="521.8,-88.12 529.73,-81.09 519.15,-81.64 521.8,-88.12"/>
</a>
</g>
</g>
<!-- Node5&#45;&gt;Node9 -->
<g id="edge8_Node000005_Node000009" class="edge">
<title>Node5&#45;&gt;Node9</title>
<g id="a_edge8_Node000005_Node000009"><a xlink:title=" ">
<path fill="none" stroke="#63b8ff" d="M213.54,-128.69C140.27,-125.24 40.92,-115.1 15.88,-85.75 1.55,-68.96 16.12,-44.47 29.5,-28.07"/>
<polygon fill="#63b8ff" stroke="#63b8ff" points="32.08,-30.43 36.03,-20.6 26.81,-25.83 32.08,-30.43"/>
</a>
</g>
</g>
<!-- Node10 -->
<g id="Node000010" class="node">
<title>Node10</title>
<g id="a_Node000010"><a xlink:href="_encoder_attached_numeric_widget_8h.html" target="_top" xlink:title="Widget for displaying and adjusting numeric values using an encoder.">
<polygon fill="white" stroke="#666666" points="361.12,-85.75 196.62,-85.75 196.62,-55.25 361.12,-55.25 361.12,-85.75"/>
<text text-anchor="start" x="204.62" y="-72.25" font-family="Helvetica,sans-Serif" font-size="10.00">widgets/EncoderAttachedNumeric</text>
<text text-anchor="middle" x="278.88" y="-61" font-family="Helvetica,sans-Serif" font-size="10.00">Widget.h</text>
</a>
</g>
</g>
<!-- Node5&#45;&gt;Node10 -->
<g id="edge10_Node000005_Node000010" class="edge">
<title>Node5&#45;&gt;Node10</title>
<g id="a_edge10_Node000005_Node000010"><a xlink:title=" ">
<path fill="none" stroke="#63b8ff" d="M293.29,-121.43C291.41,-114.9 288.75,-105.7 286.23,-96.97"/>
<polygon fill="#63b8ff" stroke="#63b8ff" points="289.63,-96.12 283.49,-87.49 282.9,-98.06 289.63,-96.12"/>
</a>
</g>
</g>
<!-- Node11 -->
<g id="Node000011" class="node">
<title>Node11</title>
<g id="a_Node000011"><a xlink:href="_push_button_widget_8h.html" target="_top" xlink:title="Represents an interactive on&#45;screen push button for the JMR800&#45;V2 UI.">
<polygon fill="white" stroke="#666666" points="178.25,-80.12 35.5,-80.12 35.5,-60.88 178.25,-60.88 178.25,-80.12"/>
<text text-anchor="middle" x="106.88" y="-66.62" font-family="Helvetica,sans-Serif" font-size="10.00">widgets/PushButtonWidget.h</text>
</a>
</g>
</g>
<!-- Node5&#45;&gt;Node11 -->
<g id="edge14_Node000005_Node000011" class="edge">
<title>Node5&#45;&gt;Node11</title>
<g id="a_edge14_Node000005_Node000011"><a xlink:title=" ">
<path fill="none" stroke="#63b8ff" d="M266.76,-121.3C234.57,-111.28 182.54,-95.07 146.62,-83.88"/>
<polygon fill="#63b8ff" stroke="#63b8ff" points="148.06,-80.66 137.47,-81.03 145.98,-87.35 148.06,-80.66"/>
</a>
</g>
</g>
<!-- Node10&#45;&gt;Node6 -->
<g id="edge12_Node000010_Node000006" class="edge">
<title>Node10&#45;&gt;Node6</title>
<g id="a_edge12_Node000010_Node000006"><a xlink:title=" ">
<path fill="none" stroke="#63b8ff" d="M250.9,-54.8C233.52,-45.66 211.28,-33.97 194.05,-24.91"/>
<polygon fill="#63b8ff" stroke="#63b8ff" points="195.87,-21.91 185.39,-20.36 192.61,-28.11 195.87,-21.91"/>
</a>
</g>
</g>
<!-- Node10&#45;&gt;Node7 -->
<g id="edge13_Node000010_Node000007" class="edge">
<title>Node10&#45;&gt;Node7</title>
<g id="a_edge13_Node000010_Node000007"><a xlink:title=" ">
<path fill="none" stroke="#63b8ff" d="M306.35,-54.8C323.42,-45.66 345.27,-33.97 362.19,-24.91"/>
<polygon fill="#63b8ff" stroke="#63b8ff" points="363.51,-28.17 370.67,-20.37 360.2,-22 363.51,-28.17"/>
</a>
</g>
</g>
<!-- Node10&#45;&gt;Node9 -->
<g id="edge11_Node000010_Node000009" class="edge">
<title>Node10&#45;&gt;Node9</title>
<g id="a_edge11_Node000010_Node000009"><a xlink:title=" ">
<path fill="none" stroke="#63b8ff" d="M220.68,-54.8C181.22,-44.83 129.75,-31.82 92.89,-22.5"/>
<polygon fill="#63b8ff" stroke="#63b8ff" points="93.97,-19.17 83.42,-20.11 92.26,-25.95 93.97,-19.17"/>
</a>
</g>
</g>
<!-- Node11&#45;&gt;Node6 -->
<g id="edge16_Node000011_Node000006" class="edge">
<title>Node11&#45;&gt;Node6</title>
<g id="a_edge16_Node000011_Node000006"><a xlink:title=" ">
<path fill="none" stroke="#63b8ff" d="M115.99,-60.56C124.89,-51.83 138.65,-38.32 149.62,-27.55"/>
<polygon fill="#63b8ff" stroke="#63b8ff" points="151.91,-30.21 156.6,-20.71 147.01,-25.22 151.91,-30.21"/>
</a>
</g>
</g>
<!-- Node11&#45;&gt;Node7 -->
<g id="edge17_Node000011_Node000007" class="edge">
<title>Node11&#45;&gt;Node7</title>
<g id="a_edge17_Node000011_Node000007"><a xlink:title=" ">
<path fill="none" stroke="#63b8ff" d="M150.32,-60.43C199.79,-50.1 280.7,-33.21 334.36,-22.01"/>
<polygon fill="#63b8ff" stroke="#63b8ff" points="334.83,-25.48 343.9,-20.01 333.4,-18.63 334.83,-25.48"/>
</a>
</g>
</g>
<!-- Node11&#45;&gt;Node9 -->
<g id="edge15_Node000011_Node000009" class="edge">
<title>Node11&#45;&gt;Node9</title>
<g id="a_edge15_Node000011_Node000009"><a xlink:title=" ">
<path fill="none" stroke="#63b8ff" d="M97.61,-60.56C88.56,-51.83 74.57,-38.32 63.41,-27.55"/>
<polygon fill="#63b8ff" stroke="#63b8ff" points="65.94,-25.13 56.32,-20.7 61.08,-30.17 65.94,-25.13"/>
</a>
</g>
</g>
<!-- Node12&#45;&gt;Node4 -->
<g id="edge20_Node000012_Node000004" class="edge">
<title>Node12&#45;&gt;Node4</title>
<g id="a_edge20_Node000012_Node000004"><a xlink:title=" ">
<path fill="none" stroke="#63b8ff" d="M583.84,-121.3C560.16,-111.55 522.26,-95.95 495.2,-84.81"/>
<polygon fill="#63b8ff" stroke="#63b8ff" points="496.67,-81.63 486.1,-81.06 494.01,-88.1 496.67,-81.63"/>
</a>
</g>
</g>
<!-- Node12&#45;&gt;Node7 -->
<g id="edge19_Node000012_Node000007" class="edge">
<title>Node12&#45;&gt;Node7</title>
<g id="a_edge19_Node000012_Node000007"><a xlink:title=" ">
<path fill="none" stroke="#63b8ff" d="M605.47,-121.47C604.24,-105.68 599.35,-72.81 579.88,-55.25 560.91,-38.15 498.61,-25.77 450.26,-18.45"/>
<polygon fill="#63b8ff" stroke="#63b8ff" points="450.83,-15 440.43,-17.01 449.82,-21.92 450.83,-15"/>
</a>
</g>
</g>
<!-- Node14 -->
<g id="Node000014" class="node">
<title>Node14</title>
<g id="a_Node000014"><a xlink:title=" ">
<polygon fill="#e0e0e0" stroke="#999999" points="1011.5,-19.25 954.25,-19.25 954.25,0 1011.5,0 1011.5,-19.25"/>
<text text-anchor="middle" x="982.88" y="-5.75" font-family="Helvetica,sans-Serif" font-size="10.00">Arduino.h</text>
</a>
</g>
</g>
<!-- Node13&#45;&gt;Node14 -->
<g id="edge22_Node000013_Node000014" class="edge">
<title>Node13&#45;&gt;Node14</title>
<g id="a_edge22_Node000013_Node000014"><a xlink:title=" ">
<path fill="none" stroke="#63b8ff" d="M1007.47,-60.56C1003.47,-52.43 997.43,-40.17 992.33,-29.83"/>
<polygon fill="#63b8ff" stroke="#63b8ff" points="995.55,-28.43 987.99,-21.01 989.27,-31.53 995.55,-28.43"/>
</a>
</g>
</g>
<!-- Node15 -->
<g id="Node000015" class="node">
<title>Node15</title>
<g id="a_Node000015"><a xlink:href="defines_8h.html" target="_top" xlink:title="Hardware pin definitions and global constants for JMR800&#45;V2.">
<polygon fill="white" stroke="#666666" points="893.75,-19.25 838,-19.25 838,0 893.75,0 893.75,-19.25"/>
<text text-anchor="middle" x="865.88" y="-5.75" font-family="Helvetica,sans-Serif" font-size="10.00">defines.h</text>
</a>
</g>
</g>
<!-- Node13&#45;&gt;Node15 -->
<g id="edge23_Node000013_Node000015" class="edge">
<title>Node13&#45;&gt;Node15</title>
<g id="a_edge23_Node000013_Node000015"><a xlink:title=" ">
<path fill="none" stroke="#63b8ff" d="M989.38,-60.43C965.09,-50.63 926.16,-34.94 898.51,-23.79"/>
<polygon fill="#63b8ff" stroke="#63b8ff" points="900.14,-20.67 889.56,-20.17 897.52,-27.16 900.14,-20.67"/>
</a>
</g>
</g>
<!-- Node16&#45;&gt;Node6 -->
<g id="edge26_Node000016_Node000006" class="edge">
<title>Node16&#45;&gt;Node6</title>
<g id="a_edge26_Node000016_Node000006"><a xlink:title=" ">
<path fill="none" stroke="#63b8ff" d="M752.56,-121.37C727.82,-112.52 689.15,-98.51 655.88,-85.75 621.89,-72.72 615.19,-64.07 579.88,-55.25 513.04,-38.57 315.98,-21.93 220.26,-14.56"/>
<polygon fill="#63b8ff" stroke="#63b8ff" points="220.57,-11.08 210.34,-13.81 220.04,-18.06 220.57,-11.08"/>
</a>
</g>
</g>
<!-- Node16&#45;&gt;Node7 -->
<g id="edge27_Node000016_Node000007" class="edge">
<title>Node16&#45;&gt;Node7</title>
<g id="a_edge27_Node000016_Node000007"><a xlink:title=" ">
<path fill="none" stroke="#63b8ff" d="M775.46,-121.39C770.59,-105.16 757.95,-71.19 733.88,-55.25 688.68,-25.33 537.25,-15.43 450.78,-12.18"/>
<polygon fill="#63b8ff" stroke="#63b8ff" points="450.91,-8.68 440.8,-11.83 450.67,-15.68 450.91,-8.68"/>
</a>
</g>
</g>
<!-- Node16&#45;&gt;Node8 -->
<g id="edge31_Node000016_Node000008" class="edge">
<title>Node16&#45;&gt;Node8</title>
<g id="a_edge31_Node000016_Node000008"><a xlink:title=" ">
<path fill="none" stroke="#63b8ff" d="M729.35,-121.25C690,-113.36 633.3,-100.84 584.88,-85.75 583.54,-85.33 582.18,-84.89 580.82,-84.43"/>
<polygon fill="#63b8ff" stroke="#63b8ff" points="582.4,-81.28 571.81,-81.14 580,-87.86 582.4,-81.28"/>
</a>
</g>
</g>
<!-- Node16&#45;&gt;Node13 -->
<g id="edge33_Node000016_Node000013" class="edge">
<title>Node16&#45;&gt;Node13</title>
<g id="a_edge33_Node000016_Node000013"><a xlink:title=" ">
<path fill="none" stroke="#63b8ff" d="M821.78,-121.3C860.68,-112.98 918.89,-99.84 968.88,-85.75 970.83,-85.2 972.84,-84.61 974.85,-84"/>
<polygon fill="#63b8ff" stroke="#63b8ff" points="975.68,-87.41 984.17,-81.08 973.58,-80.74 975.68,-87.41"/>
</a>
</g>
</g>
<!-- Node16&#45;&gt;Node14 -->
<g id="edge25_Node000016_Node000014" class="edge">
<title>Node16&#45;&gt;Node14</title>
<g id="a_edge25_Node000016_Node000014"><a xlink:title=" ">
<path fill="none" stroke="#63b8ff" d="M829.77,-125.36C862.84,-119.99 905.09,-108.84 935.88,-85.75 954.88,-71.5 968.05,-47.12 975.52,-30"/>
<polygon fill="#63b8ff" stroke="#63b8ff" points="978.68,-31.52 979.21,-20.94 972.2,-28.88 978.68,-31.52"/>
</a>
</g>
</g>
<!-- Node16&#45;&gt;Node15 -->
<g id="edge32_Node000016_Node000015" class="edge">
<title>Node16&#45;&gt;Node15</title>
<g id="a_edge32_Node000016_Node000015"><a xlink:title=" ">
<path fill="none" stroke="#63b8ff" d="M792.92,-121.39C805.3,-113.36 822.59,-100.59 833.88,-85.75 846.6,-69.03 855.31,-46.49 860.4,-30.47"/>
<polygon fill="#63b8ff" stroke="#63b8ff" points="863.68,-31.73 863.16,-21.15 856.96,-29.74 863.68,-31.73"/>
</a>
</g>
</g>
<!-- Node17 -->
<g id="Node000017" class="node">
<title>Node17</title>
<g id="a_Node000017"><a xlink:title=" ">
<polygon fill="#e0e0e0" stroke="#999999" points="825.12,-80.12 780.62,-80.12 780.62,-60.88 825.12,-60.88 825.12,-80.12"/>
<text text-anchor="middle" x="802.88" y="-66.62" font-family="Helvetica,sans-Serif" font-size="10.00">Wire.h</text>
</a>
</g>
</g>
<!-- Node16&#45;&gt;Node17 -->
<g id="edge28_Node000016_Node000017" class="edge">
<title>Node16&#45;&gt;Node17</title>
<g id="a_edge28_Node000016_Node000017"><a xlink:title=" ">
<path fill="none" stroke="#63b8ff" d="M781.67,-121.43C785.09,-113.39 790.22,-101.3 794.58,-91.03"/>
<polygon fill="#63b8ff" stroke="#63b8ff" points="797.76,-92.49 798.45,-81.92 791.32,-89.76 797.76,-92.49"/>
</a>
</g>
</g>
<!-- Node18 -->
<g id="Node000018" class="node">
<title>Node18</title>
<g id="a_Node000018"><a xlink:title=" ">
<polygon fill="#e0e0e0" stroke="#999999" points="926.88,-80.12 880.88,-80.12 880.88,-60.88 926.88,-60.88 926.88,-80.12"/>
<text text-anchor="middle" x="903.88" y="-66.62" font-family="Helvetica,sans-Serif" font-size="10.00">ADC.h</text>
</a>
</g>
</g>
<!-- Node16&#45;&gt;Node18 -->
<g id="edge29_Node000016_Node000018" class="edge">
<title>Node16&#45;&gt;Node18</title>
<g id="a_edge29_Node000016_Node000018"><a xlink:title=" ">
<path fill="none" stroke="#63b8ff" d="M797.29,-121.3C817.88,-111.68 850.66,-96.37 874.43,-85.26"/>
<polygon fill="#63b8ff" stroke="#63b8ff" points="875.7,-88.53 883.28,-81.12 872.74,-82.19 875.7,-88.53"/>
</a>
</g>
</g>
<!-- Node19 -->
<g id="Node000019" class="node">
<title>Node19</title>
<g id="a_Node000019"><a xlink:title=" ">
<polygon fill="#e0e0e0" stroke="#999999" points="724.62,-80.12 665.12,-80.12 665.12,-60.88 724.62,-60.88 724.62,-80.12"/>
<text text-anchor="middle" x="694.88" y="-66.62" font-family="Helvetica,sans-Serif" font-size="10.00">Encoder.h</text>
</a>
</g>
</g>
<!-- Node16&#45;&gt;Node19 -->
<g id="edge30_Node000016_Node000019" class="edge">
<title>Node16&#45;&gt;Node19</title>
<g id="a_edge30_Node000016_Node000019"><a xlink:title=" ">
<path fill="none" stroke="#63b8ff" d="M765.27,-121.43C752.47,-112.36 732.4,-98.12 716.96,-87.16"/>
<polygon fill="#63b8ff" stroke="#63b8ff" points="719.02,-84.33 708.83,-81.4 714.97,-90.04 719.02,-84.33"/>
</a>
</g>
</g>
</g>
</svg>
