<?xml version="1.0" encoding="UTF-8" standalone="no"?>
<!DOCTYPE svg PUBLIC "-//W3C//DTD SVG 1.1//EN"
 "http://www.w3.org/Graphics/SVG/1.1/DTD/svg11.dtd">
<!-- Generated by graphviz version 12.2.1 (20241206.2353)
 -->
<!-- Title: src/screens/DirectCommandScreen.cpp Pages: 1 -->
<svg width="1092pt" height="216pt"
 viewBox="0.00 0.00 1091.86 215.50" xmlns="http://www.w3.org/2000/svg" xmlns:xlink="http://www.w3.org/1999/xlink">
<g id="graph0" class="graph" transform="scale(1 1) rotate(0) translate(4 211.5)">
<title>src/screens/DirectCommandScreen.cpp</title>
<!-- Node1 -->
<g id="Node000001" class="node">
<title>Node1</title>
<g id="a_Node000001"><a xlink:title="Implements a screen for sending raw parameter/value commands to the synthesizer.">
<polygon fill="#999999" stroke="#666666" points="692.61,-207.5 551.36,-207.5 551.36,-177 692.61,-177 692.61,-207.5"/>
<text text-anchor="start" x="559.36" y="-194" font-family="Helvetica,sans-Serif" font-size="10.00">src/screens/DirectCommand</text>
<text text-anchor="middle" x="621.99" y="-182.75" font-family="Helvetica,sans-Serif" font-size="10.00">Screen.cpp</text>
</a>
</g>
</g>
<!-- Node2 -->
<g id="Node000002" class="node">
<title>Node2</title>
<g id="a_Node000002"><a xlink:href="_direct_command_screen_8h.html" target="_top" xlink:title="UI screen for manually sending raw commands to the synthesizer interface.">
<polygon fill="white" stroke="#666666" points="586.86,-141 423.11,-141 423.11,-121.75 586.86,-121.75 586.86,-141"/>
<text text-anchor="middle" x="504.99" y="-127.5" font-family="Helvetica,sans-Serif" font-size="10.00">screens/DirectCommandScreen.h</text>
</a>
</g>
</g>
<!-- Node1&#45;&gt;Node2 -->
<g id="edge1_Node000001_Node000002" class="edge">
<title>Node1&#45;&gt;Node2</title>
<g id="a_edge1_Node000001_Node000002"><a xlink:title=" ">
<path fill="none" stroke="#63b8ff" d="M592.77,-176.55C574.52,-167.36 551.15,-155.61 533.12,-146.53"/>
<polygon fill="#63b8ff" stroke="#63b8ff" points="534.79,-143.45 524.28,-142.08 531.64,-149.71 534.79,-143.45"/>
</a>
</g>
</g>
<!-- Node8 -->
<g id="Node000008" class="node">
<title>Node8</title>
<g id="a_Node000008"><a xlink:href="_encoder_attached_numeric_widget_8h.html" target="_top" xlink:title="Widget for displaying and adjusting numeric values using an encoder.">
<polygon fill="white" stroke="#666666" points="334.24,-85.75 169.74,-85.75 169.74,-55.25 334.24,-55.25 334.24,-85.75"/>
<text text-anchor="start" x="177.74" y="-72.25" font-family="Helvetica,sans-Serif" font-size="10.00">widgets/EncoderAttachedNumeric</text>
<text text-anchor="middle" x="251.99" y="-61" font-family="Helvetica,sans-Serif" font-size="10.00">Widget.h</text>
</a>
</g>
</g>
<!-- Node1&#45;&gt;Node8 -->
<g id="edge28_Node000001_Node000008" class="edge">
<title>Node1&#45;&gt;Node8</title>
<g id="a_edge28_Node000001_Node000008"><a xlink:title=" ">
<path fill="none" stroke="#63b8ff" d="M550.87,-177.18C510.3,-168.38 458.76,-155.89 413.99,-141 371.46,-126.85 324.58,-106.15 292.23,-91.02"/>
<polygon fill="#63b8ff" stroke="#63b8ff" points="293.76,-87.87 283.22,-86.76 290.77,-94.2 293.76,-87.87"/>
</a>
</g>
</g>
<!-- Node10 -->
<g id="Node000010" class="node">
<title>Node10</title>
<g id="a_Node000010"><a xlink:href="_screen_manager_8h.html" target="_top" xlink:title="Declares the ScreenManager class responsible for UI screen control on the OLED display.">
<polygon fill="white" stroke="#666666" points="741.86,-141 650.11,-141 650.11,-121.75 741.86,-121.75 741.86,-141"/>
<text text-anchor="middle" x="695.99" y="-127.5" font-family="Helvetica,sans-Serif" font-size="10.00">ScreenManager.h</text>
</a>
</g>
</g>
<!-- Node1&#45;&gt;Node10 -->
<g id="edge15_Node000001_Node000010" class="edge">
<title>Node1&#45;&gt;Node10</title>
<g id="a_edge15_Node000001_Node000010"><a xlink:title=" ">
<path fill="none" stroke="#63b8ff" d="M640.28,-176.7C651,-168.16 664.58,-157.37 675.64,-148.56"/>
<polygon fill="#63b8ff" stroke="#63b8ff" points="677.75,-151.36 683.39,-142.39 673.39,-145.88 677.75,-151.36"/>
</a>
</g>
</g>
<!-- Node11 -->
<g id="Node000011" class="node">
<title>Node11</title>
<g id="a_Node000011"><a xlink:href="_logging_8h.html" target="_top" xlink:title="Lightweight logging utility for serial output in the JMR800&#45;V2 project.">
<polygon fill="white" stroke="#666666" points="1009.99,-141 951.99,-141 951.99,-121.75 1009.99,-121.75 1009.99,-141"/>
<text text-anchor="middle" x="980.99" y="-127.5" font-family="Helvetica,sans-Serif" font-size="10.00">Logging.h</text>
</a>
</g>
</g>
<!-- Node1&#45;&gt;Node11 -->
<g id="edge18_Node000001_Node000011" class="edge">
<title>Node1&#45;&gt;Node11</title>
<g id="a_edge18_Node000001_Node000011"><a xlink:title=" ">
<path fill="none" stroke="#63b8ff" d="M692.91,-179.62C766.86,-167.49 880.18,-148.91 940.28,-139.05"/>
<polygon fill="#63b8ff" stroke="#63b8ff" points="940.77,-142.52 950.07,-137.44 939.64,-135.61 940.77,-142.52"/>
</a>
</g>
</g>
<!-- Node14 -->
<g id="Node000014" class="node">
<title>Node14</title>
<g id="a_Node000014"><a xlink:href="_rectangle_widget_8h.html" target="_top" xlink:title="Displays a static rectangle, optionally filled, as part of the OLED UI.">
<polygon fill="white" stroke="#666666" points="933.99,-80.12 797.99,-80.12 797.99,-60.88 933.99,-60.88 933.99,-80.12"/>
<text text-anchor="middle" x="865.99" y="-66.62" font-family="Helvetica,sans-Serif" font-size="10.00">widgets/RectangleWidget.h</text>
</a>
</g>
</g>
<!-- Node1&#45;&gt;Node14 -->
<g id="edge21_Node000001_Node000014" class="edge">
<title>Node1&#45;&gt;Node14</title>
<g id="a_edge21_Node000001_Node000014"><a xlink:title=" ">
<path fill="none" stroke="#63b8ff" d="M665.19,-176.53C690.63,-167.35 723.17,-154.7 750.99,-141 784.38,-124.56 820.82,-101.61 843.54,-86.66"/>
<polygon fill="#63b8ff" stroke="#63b8ff" points="845.3,-89.69 851.69,-81.24 841.43,-83.86 845.3,-89.69"/>
</a>
</g>
</g>
<!-- Node15 -->
<g id="Node000015" class="node">
<title>Node15</title>
<g id="a_Node000015"><a xlink:href="_text_label_widget_8h.html" target="_top" xlink:title="Displays static or dynamic text labels on the OLED UI.">
<polygon fill="white" stroke="#666666" points="151.86,-80.12 18.11,-80.12 18.11,-60.88 151.86,-60.88 151.86,-80.12"/>
<text text-anchor="middle" x="84.99" y="-66.62" font-family="Helvetica,sans-Serif" font-size="10.00">widgets/TextLabelWidget.h</text>
</a>
</g>
</g>
<!-- Node1&#45;&gt;Node15 -->
<g id="edge24_Node000001_Node000015" class="edge">
<title>Node1&#45;&gt;Node15</title>
<g id="a_edge24_Node000001_Node000015"><a xlink:title=" ">
<path fill="none" stroke="#63b8ff" d="M550.87,-178.76C498.04,-169.21 424.3,-155.28 359.99,-141 278.08,-122.81 183.39,-98.05 129.21,-83.52"/>
<polygon fill="#63b8ff" stroke="#63b8ff" points="130.31,-80.19 119.74,-80.97 128.49,-86.95 130.31,-80.19"/>
</a>
</g>
</g>
<!-- Node3 -->
<g id="Node000003" class="node">
<title>Node3</title>
<g id="a_Node000003"><a xlink:title=" ">
<polygon fill="#e0e0e0" stroke="#999999" points="210.74,-19.25 127.24,-19.25 127.24,0 210.74,0 210.74,-19.25"/>
<text text-anchor="middle" x="168.99" y="-5.75" font-family="Helvetica,sans-Serif" font-size="10.00">Adafruit_GFX.h</text>
</a>
</g>
</g>
<!-- Node2&#45;&gt;Node3 -->
<g id="edge2_Node000002_Node000003" class="edge">
<title>Node2&#45;&gt;Node3</title>
<g id="a_edge2_Node000002_Node000003"><a xlink:title=" ">
<path fill="none" stroke="#63b8ff" d="M422.79,-128.91C289.02,-125.67 36.29,-115.62 8.99,-85.75 -26.41,-47.02 56.85,-26.51 116.05,-17.16"/>
<polygon fill="#63b8ff" stroke="#63b8ff" points="116.3,-20.67 125.67,-15.72 115.26,-13.75 116.3,-20.67"/>
</a>
</g>
</g>
<!-- Node4 -->
<g id="Node000004" class="node">
<title>Node4</title>
<g id="a_Node000004"><a xlink:title=" ">
<polygon fill="#e0e0e0" stroke="#999999" points="598.99,-19.25 498.99,-19.25 498.99,0 598.99,0 598.99,-19.25"/>
<text text-anchor="middle" x="548.99" y="-5.75" font-family="Helvetica,sans-Serif" font-size="10.00">Adafruit_SH110X.h</text>
</a>
</g>
</g>
<!-- Node2&#45;&gt;Node4 -->
<g id="edge3_Node000002_Node000004" class="edge">
<title>Node2&#45;&gt;Node4</title>
<g id="a_edge3_Node000002_Node000004"><a xlink:title=" ">
<path fill="none" stroke="#63b8ff" d="M550.33,-121.3C570.03,-114.86 591.25,-103.99 602.99,-85.75 610.32,-74.35 608.76,-67.51 602.99,-55.25 597.27,-43.12 586.47,-33.16 576.01,-25.75"/>
<polygon fill="#63b8ff" stroke="#63b8ff" points="578.23,-23.02 567.94,-20.5 574.41,-28.89 578.23,-23.02"/>
</a>
</g>
</g>
<!-- Node5 -->
<g id="Node000005" class="node">
<title>Node5</title>
<g id="a_Node000005"><a xlink:title=" ">
<polygon fill="#e0e0e0" stroke="#999999" points="593.49,-80.12 550.49,-80.12 550.49,-60.88 593.49,-60.88 593.49,-80.12"/>
<text text-anchor="middle" x="571.99" y="-66.62" font-family="Helvetica,sans-Serif" font-size="10.00">vector</text>
</a>
</g>
</g>
<!-- Node2&#45;&gt;Node5 -->
<g id="edge4_Node000002_Node000005" class="edge">
<title>Node2&#45;&gt;Node5</title>
<g id="a_edge4_Node000002_Node000005"><a xlink:title=" ">
<path fill="none" stroke="#63b8ff" d="M515.16,-121.43C525.2,-112.62 540.78,-98.93 553.09,-88.11"/>
<polygon fill="#63b8ff" stroke="#63b8ff" points="555.38,-90.76 560.58,-81.53 550.76,-85.5 555.38,-90.76"/>
</a>
</g>
</g>
<!-- Node6 -->
<g id="Node000006" class="node">
<title>Node6</title>
<g id="a_Node000006"><a xlink:href="_widget_8h.html" target="_top" xlink:title="Abstract base class for UI widgets in the JMR800&#45;V2 OLED interface.">
<polygon fill="white" stroke="#666666" points="407.86,-19.25 316.11,-19.25 316.11,0 407.86,0 407.86,-19.25"/>
<text text-anchor="middle" x="361.99" y="-5.75" font-family="Helvetica,sans-Serif" font-size="10.00">widgets/Widget.h</text>
</a>
</g>
</g>
<!-- Node2&#45;&gt;Node6 -->
<g id="edge5_Node000002_Node000006" class="edge">
<title>Node2&#45;&gt;Node6</title>
<g id="a_edge5_Node000002_Node000006"><a xlink:title=" ">
<path fill="none" stroke="#63b8ff" d="M445.54,-121.32C422.48,-114.96 397.66,-104.14 380.99,-85.75 367.45,-70.82 363.25,-47.64 362.09,-30.97"/>
<polygon fill="#63b8ff" stroke="#63b8ff" points="365.6,-31.13 361.75,-21.26 358.61,-31.37 365.6,-31.13"/>
</a>
</g>
</g>
<!-- Node7 -->
<g id="Node000007" class="node">
<title>Node7</title>
<g id="a_Node000007"><a xlink:href="_screen_8h.html" target="_top" xlink:title="Abstract interface for all UI screens in the JMR800&#45;V2 system.">
<polygon fill="white" stroke="#666666" points="742.24,-80.12 649.74,-80.12 649.74,-60.88 742.24,-60.88 742.24,-80.12"/>
<text text-anchor="middle" x="695.99" y="-66.62" font-family="Helvetica,sans-Serif" font-size="10.00">screens/Screen.h</text>
</a>
</g>
</g>
<!-- Node2&#45;&gt;Node7 -->
<g id="edge6_Node000002_Node000007" class="edge">
<title>Node2&#45;&gt;Node7</title>
<g id="a_edge6_Node000002_Node000007"><a xlink:title=" ">
<path fill="none" stroke="#63b8ff" d="M534.41,-121.3C566.94,-111.28 619.53,-95.07 655.83,-83.88"/>
<polygon fill="#63b8ff" stroke="#63b8ff" points="656.56,-87.32 665.08,-81.03 654.49,-80.63 656.56,-87.32"/>
</a>
</g>
</g>
<!-- Node2&#45;&gt;Node8 -->
<g id="edge7_Node000002_Node000008" class="edge">
<title>Node2&#45;&gt;Node8</title>
<g id="a_edge7_Node000002_Node000008"><a xlink:title=" ">
<path fill="none" stroke="#63b8ff" d="M466.01,-121.3C428.88,-112.66 372,-99.43 326.22,-88.77"/>
<polygon fill="#63b8ff" stroke="#63b8ff" points="327.14,-85.4 316.61,-86.54 325.55,-92.21 327.14,-85.4"/>
</a>
</g>
</g>
<!-- Node9 -->
<g id="Node000009" class="node">
<title>Node9</title>
<g id="a_Node000009"><a xlink:href="_push_button_widget_8h.html" target="_top" xlink:title="Represents an interactive on&#45;screen push button for the JMR800&#45;V2 UI.">
<polygon fill="white" stroke="#666666" points="532.36,-80.12 389.61,-80.12 389.61,-60.88 532.36,-60.88 532.36,-80.12"/>
<text text-anchor="middle" x="460.99" y="-66.62" font-family="Helvetica,sans-Serif" font-size="10.00">widgets/PushButtonWidget.h</text>
</a>
</g>
</g>
<!-- Node2&#45;&gt;Node9 -->
<g id="edge11_Node000002_Node000009" class="edge">
<title>Node2&#45;&gt;Node9</title>
<g id="a_edge11_Node000002_Node000009"><a xlink:title=" ">
<path fill="none" stroke="#63b8ff" d="M498.3,-121.43C492.04,-113.05 482.48,-100.26 474.6,-89.72"/>
<polygon fill="#63b8ff" stroke="#63b8ff" points="477.43,-87.65 468.64,-81.74 471.82,-91.84 477.43,-87.65"/>
</a>
</g>
</g>
<!-- Node8&#45;&gt;Node3 -->
<g id="edge9_Node000008_Node000003" class="edge">
<title>Node8&#45;&gt;Node3</title>
<g id="a_edge9_Node000008_Node000003"><a xlink:title=" ">
<path fill="none" stroke="#63b8ff" d="M231.47,-54.95C219.2,-46.24 203.6,-35.18 191.06,-26.28"/>
<polygon fill="#63b8ff" stroke="#63b8ff" points="193.2,-23.51 183.02,-20.58 189.15,-29.22 193.2,-23.51"/>
</a>
</g>
</g>
<!-- Node8&#45;&gt;Node4 -->
<g id="edge10_Node000008_Node000004" class="edge">
<title>Node8&#45;&gt;Node4</title>
<g id="a_edge10_Node000008_Node000004"><a xlink:title=" ">
<path fill="none" stroke="#63b8ff" d="M326.17,-54.8C377.44,-44.63 444.63,-31.31 491.77,-21.97"/>
<polygon fill="#63b8ff" stroke="#63b8ff" points="492.39,-25.41 501.52,-20.04 491.03,-18.55 492.39,-25.41"/>
</a>
</g>
</g>
<!-- Node8&#45;&gt;Node6 -->
<g id="edge8_Node000008_Node000006" class="edge">
<title>Node8&#45;&gt;Node6</title>
<g id="a_edge8_Node000008_Node000006"><a xlink:title=" ">
<path fill="none" stroke="#63b8ff" d="M279.46,-54.8C296.54,-45.66 318.38,-33.97 335.3,-24.91"/>
<polygon fill="#63b8ff" stroke="#63b8ff" points="336.62,-28.17 343.78,-20.37 333.32,-22 336.62,-28.17"/>
</a>
</g>
</g>
<!-- Node9&#45;&gt;Node3 -->
<g id="edge13_Node000009_Node000003" class="edge">
<title>Node9&#45;&gt;Node3</title>
<g id="a_edge13_Node000009_Node000003"><a xlink:title=" ">
<path fill="none" stroke="#63b8ff" d="M416,-60.43C363.77,-49.9 277.7,-32.54 222.19,-21.35"/>
<polygon fill="#63b8ff" stroke="#63b8ff" points="223.16,-17.98 212.66,-19.43 221.77,-24.84 223.16,-17.98"/>
</a>
</g>
</g>
<!-- Node9&#45;&gt;Node4 -->
<g id="edge14_Node000009_Node000004" class="edge">
<title>Node9&#45;&gt;Node4</title>
<g id="a_edge14_Node000009_Node000004"><a xlink:title=" ">
<path fill="none" stroke="#63b8ff" d="M474.35,-60.56C488.05,-51.39 509.61,-36.97 526.04,-25.98"/>
<polygon fill="#63b8ff" stroke="#63b8ff" points="527.87,-28.96 534.24,-20.49 523.98,-23.14 527.87,-28.96"/>
</a>
</g>
</g>
<!-- Node9&#45;&gt;Node6 -->
<g id="edge12_Node000009_Node000006" class="edge">
<title>Node9&#45;&gt;Node6</title>
<g id="a_edge12_Node000009_Node000006"><a xlink:title=" ">
<path fill="none" stroke="#63b8ff" d="M445.95,-60.56C430.32,-51.26 405.6,-36.56 387.02,-25.51"/>
<polygon fill="#63b8ff" stroke="#63b8ff" points="388.85,-22.53 378.47,-20.42 385.27,-28.54 388.85,-22.53"/>
</a>
</g>
</g>
<!-- Node10&#45;&gt;Node4 -->
<g id="edge16_Node000010_Node000004" class="edge">
<title>Node10&#45;&gt;Node4</title>
<g id="a_edge16_Node000010_Node000004"><a xlink:title=" ">
<path fill="none" stroke="#63b8ff" d="M713.99,-121.4C726.92,-113.86 743.37,-101.74 750.99,-85.75 756.82,-73.51 759.48,-65.82 750.99,-55.25 733.6,-33.6 663.5,-21.82 610.72,-15.89"/>
<polygon fill="#63b8ff" stroke="#63b8ff" points="611.23,-12.42 600.92,-14.84 610.49,-19.38 611.23,-12.42"/>
</a>
</g>
</g>
<!-- Node10&#45;&gt;Node7 -->
<g id="edge17_Node000010_Node000007" class="edge">
<title>Node10&#45;&gt;Node7</title>
<g id="a_edge17_Node000010_Node000007"><a xlink:title=" ">
<path fill="none" stroke="#63b8ff" d="M695.99,-121.43C695.99,-113.65 695.99,-102.08 695.99,-92.03"/>
<polygon fill="#63b8ff" stroke="#63b8ff" points="699.49,-92.04 695.99,-82.04 692.49,-92.04 699.49,-92.04"/>
</a>
</g>
</g>
<!-- Node12 -->
<g id="Node000012" class="node">
<title>Node12</title>
<g id="a_Node000012"><a xlink:title=" ">
<polygon fill="#e0e0e0" stroke="#999999" points="1009.61,-80.12 952.36,-80.12 952.36,-60.88 1009.61,-60.88 1009.61,-80.12"/>
<text text-anchor="middle" x="980.99" y="-66.62" font-family="Helvetica,sans-Serif" font-size="10.00">Arduino.h</text>
</a>
</g>
</g>
<!-- Node11&#45;&gt;Node12 -->
<g id="edge19_Node000011_Node000012" class="edge">
<title>Node11&#45;&gt;Node12</title>
<g id="a_edge19_Node000011_Node000012"><a xlink:title=" ">
<path fill="none" stroke="#63b8ff" d="M980.99,-121.43C980.99,-113.65 980.99,-102.08 980.99,-92.03"/>
<polygon fill="#63b8ff" stroke="#63b8ff" points="984.49,-92.04 980.99,-82.04 977.49,-92.04 984.49,-92.04"/>
</a>
</g>
</g>
<!-- Node13 -->
<g id="Node000013" class="node">
<title>Node13</title>
<g id="a_Node000013"><a xlink:href="defines_8h.html" target="_top" xlink:title="Hardware pin definitions and global constants for JMR800&#45;V2.">
<polygon fill="white" stroke="#666666" points="1083.86,-80.12 1028.11,-80.12 1028.11,-60.88 1083.86,-60.88 1083.86,-80.12"/>
<text text-anchor="middle" x="1055.99" y="-66.62" font-family="Helvetica,sans-Serif" font-size="10.00">defines.h</text>
</a>
</g>
</g>
<!-- Node11&#45;&gt;Node13 -->
<g id="edge20_Node000011_Node000013" class="edge">
<title>Node11&#45;&gt;Node13</title>
<g id="a_edge20_Node000011_Node000013"><a xlink:title=" ">
<path fill="none" stroke="#63b8ff" d="M992.38,-121.43C1003.83,-112.44 1021.74,-98.39 1035.64,-87.48"/>
<polygon fill="#63b8ff" stroke="#63b8ff" points="1037.59,-90.39 1043.3,-81.46 1033.27,-84.88 1037.59,-90.39"/>
</a>
</g>
</g>
<!-- Node14&#45;&gt;Node4 -->
<g id="edge23_Node000014_Node000004" class="edge">
<title>Node14&#45;&gt;Node4</title>
<g id="a_edge23_Node000014_Node000004"><a xlink:title=" ">
<path fill="none" stroke="#63b8ff" d="M817.15,-60.43C761.19,-50.04 669.45,-33 609.13,-21.8"/>
<polygon fill="#63b8ff" stroke="#63b8ff" points="609.84,-18.37 599.37,-19.98 608.56,-25.25 609.84,-18.37"/>
</a>
</g>
</g>
<!-- Node14&#45;&gt;Node6 -->
<g id="edge22_Node000014_Node000006" class="edge">
<title>Node14&#45;&gt;Node6</title>
<g id="a_edge22_Node000014_Node000006"><a xlink:title=" ">
<path fill="none" stroke="#63b8ff" d="M797.59,-60.92C782.26,-59.03 766.07,-57.05 750.99,-55.25 633.17,-41.19 495.19,-25.56 419.3,-17.03"/>
<polygon fill="#63b8ff" stroke="#63b8ff" points="419.94,-13.59 409.62,-15.95 419.16,-20.54 419.94,-13.59"/>
</a>
</g>
</g>
<!-- Node15&#45;&gt;Node3 -->
<g id="edge26_Node000015_Node000003" class="edge">
<title>Node15&#45;&gt;Node3</title>
<g id="a_edge26_Node000015_Node000003"><a xlink:title=" ">
<path fill="none" stroke="#63b8ff" d="M97.75,-60.56C110.82,-51.39 131.4,-36.97 147.09,-25.98"/>
<polygon fill="#63b8ff" stroke="#63b8ff" points="148.69,-29.13 154.87,-20.52 144.67,-23.39 148.69,-29.13"/>
</a>
</g>
</g>
<!-- Node15&#45;&gt;Node4 -->
<g id="edge27_Node000015_Node000004" class="edge">
<title>Node15&#45;&gt;Node4</title>
<g id="a_edge27_Node000015_Node000004"><a xlink:title=" ">
<path fill="none" stroke="#63b8ff" d="M130.71,-60.38C140.67,-58.55 151.16,-56.73 160.99,-55.25 275.77,-37.91 410.57,-23.8 487.27,-16.36"/>
<polygon fill="#63b8ff" stroke="#63b8ff" points="487.49,-19.86 497.1,-15.41 486.81,-12.89 487.49,-19.86"/>
</a>
</g>
</g>
<!-- Node15&#45;&gt;Node6 -->
<g id="edge25_Node000015_Node000006" class="edge">
<title>Node15&#45;&gt;Node6</title>
<g id="a_edge25_Node000015_Node000006"><a xlink:title=" ">
<path fill="none" stroke="#63b8ff" d="M127.66,-60.43C176.16,-50.12 255.4,-33.28 308.11,-22.08"/>
<polygon fill="#63b8ff" stroke="#63b8ff" points="308.73,-25.52 317.78,-20.02 307.27,-18.68 308.73,-25.52"/>
</a>
</g>
</g>
</g>
</svg>
