<?xml version="1.0" encoding="UTF-8" standalone="no"?>
<!DOCTYPE svg PUBLIC "-//W3C//DTD SVG 1.1//EN"
 "http://www.w3.org/Graphics/SVG/1.1/DTD/svg11.dtd">
<!-- Generated by graphviz version 12.2.1 (20241206.2353)
 -->
<!-- Title: include/modes/DirectCommandMode.h Pages: 1 -->
<svg width="278pt" height="94pt"
 viewBox="0.00 0.00 277.50 93.75" xmlns="http://www.w3.org/2000/svg" xmlns:xlink="http://www.w3.org/1999/xlink">
<g id="graph0" class="graph" transform="scale(1 1) rotate(0) translate(4 89.75)">
<title>include/modes/DirectCommandMode.h</title>
<!-- Node1 -->
<g id="Node000001" class="node">
<title>Node1</title>
<g id="a_Node000001"><a xlink:title="Application mode for sending direct parameter/value commands.">
<polygon fill="#999999" stroke="#666666" points="184.75,-85.75 31.5,-85.75 31.5,-55.25 184.75,-55.25 184.75,-85.75"/>
<text text-anchor="start" x="39.5" y="-72.25" font-family="Helvetica,sans-Serif" font-size="10.00">include/modes/DirectCommand</text>
<text text-anchor="middle" x="108.12" y="-61" font-family="Helvetica,sans-Serif" font-size="10.00">Mode.h</text>
</a>
</g>
</g>
<!-- Node2 -->
<g id="Node000002" class="node">
<title>Node2</title>
<g id="a_Node000002"><a xlink:href="main_8cpp.html" target="_top" xlink:title="Entry point for the JMR800&#45;V2 firmware.">
<polygon fill="white" stroke="#666666" points="72.25,-19.25 0,-19.25 0,0 72.25,0 72.25,-19.25"/>
<text text-anchor="middle" x="36.12" y="-5.75" font-family="Helvetica,sans-Serif" font-size="10.00">src/main.cpp</text>
</a>
</g>
</g>
<!-- Node1&#45;&gt;Node2 -->
<g id="edge1_Node000001_Node000002" class="edge">
<title>Node1&#45;&gt;Node2</title>
<g id="a_edge1_Node000001_Node000002"><a xlink:title=" ">
<path fill="none" stroke="#63b8ff" d="M81.63,-47.83C69.75,-38.12 56.38,-27.19 47.22,-19.7"/>
<polygon fill="#63b8ff" stroke="#63b8ff" points="79.2,-50.37 89.16,-53.99 83.63,-44.95 79.2,-50.37"/>
</a>
</g>
</g>
<!-- Node3 -->
<g id="Node000003" class="node">
<title>Node3</title>
<g id="a_Node000003"><a xlink:href="_direct_command_mode_8cpp.html" target="_top" xlink:title="Implements behavior for Direct Command Mode.">
<polygon fill="white" stroke="#666666" points="269.5,-19.25 90.75,-19.25 90.75,0 269.5,0 269.5,-19.25"/>
<text text-anchor="middle" x="180.12" y="-5.75" font-family="Helvetica,sans-Serif" font-size="10.00">src/modes/DirectCommandMode.cpp</text>
</a>
</g>
</g>
<!-- Node1&#45;&gt;Node3 -->
<g id="edge2_Node000001_Node000003" class="edge">
<title>Node1&#45;&gt;Node3</title>
<g id="a_edge2_Node000001_Node000003"><a xlink:title=" ">
<path fill="none" stroke="#63b8ff" d="M134.62,-47.83C146.5,-38.12 159.87,-27.19 169.03,-19.7"/>
<polygon fill="#63b8ff" stroke="#63b8ff" points="132.62,-44.95 127.09,-53.99 137.05,-50.37 132.62,-44.95"/>
</a>
</g>
</g>
</g>
</svg>
