<?xml version="1.0" encoding="UTF-8" standalone="no"?>
<!DOCTYPE svg PUBLIC "-//W3C//DTD SVG 1.1//EN"
 "http://www.w3.org/Graphics/SVG/1.1/DTD/svg11.dtd">
<!-- Generated by graphviz version 12.2.1 (20241206.2353)
 -->
<!-- Title: include/modes/DirectCommandMode.h Pages: 1 -->
<svg width="595pt" height="216pt"
 viewBox="0.00 0.00 595.23 215.50" xmlns="http://www.w3.org/2000/svg" xmlns:xlink="http://www.w3.org/1999/xlink">
<g id="graph0" class="graph" transform="scale(1 1) rotate(0) translate(4 211.5)">
<title>include/modes/DirectCommandMode.h</title>
<!-- Node1 -->
<g id="Node000001" class="node">
<title>Node1</title>
<g id="a_Node000001"><a xlink:title="Application mode for sending direct parameter/value commands.">
<polygon fill="#999999" stroke="#666666" points="275.88,-207.5 122.62,-207.5 122.62,-177 275.88,-177 275.88,-207.5"/>
<text text-anchor="start" x="130.62" y="-194" font-family="Helvetica,sans-Serif" font-size="10.00">include/modes/DirectCommand</text>
<text text-anchor="middle" x="199.25" y="-182.75" font-family="Helvetica,sans-Serif" font-size="10.00">Mode.h</text>
</a>
</g>
</g>
<!-- Node2 -->
<g id="Node000002" class="node">
<title>Node2</title>
<g id="a_Node000002"><a xlink:href="_app_mode_8h.html" target="_top" xlink:title="Abstract interface for application mode behavior.">
<polygon fill="white" stroke="#666666" points="174.12,-141 76.38,-141 76.38,-121.75 174.12,-121.75 174.12,-141"/>
<text text-anchor="middle" x="125.25" y="-127.5" font-family="Helvetica,sans-Serif" font-size="10.00">modes/AppMode.h</text>
</a>
</g>
</g>
<!-- Node1&#45;&gt;Node2 -->
<g id="edge1_Node000001_Node000002" class="edge">
<title>Node1&#45;&gt;Node2</title>
<g id="a_edge1_Node000001_Node000002"><a xlink:title=" ">
<path fill="none" stroke="#63b8ff" d="M180.96,-176.7C170.23,-168.16 156.66,-157.37 145.6,-148.56"/>
<polygon fill="#63b8ff" stroke="#63b8ff" points="147.85,-145.88 137.84,-142.39 143.49,-151.36 147.85,-145.88"/>
</a>
</g>
</g>
<!-- Node4 -->
<g id="Node000004" class="node">
<title>Node4</title>
<g id="a_Node000004"><a xlink:href="_direct_command_screen_8h.html" target="_top" xlink:title="UI screen for manually sending raw commands to the synthesizer interface.">
<polygon fill="white" stroke="#666666" points="373.12,-141 209.38,-141 209.38,-121.75 373.12,-121.75 373.12,-141"/>
<text text-anchor="middle" x="291.25" y="-127.5" font-family="Helvetica,sans-Serif" font-size="10.00">screens/DirectCommandScreen.h</text>
</a>
</g>
</g>
<!-- Node1&#45;&gt;Node4 -->
<g id="edge3_Node000001_Node000004" class="edge">
<title>Node1&#45;&gt;Node4</title>
<g id="a_edge3_Node000001_Node000004"><a xlink:title=" ">
<path fill="none" stroke="#63b8ff" d="M221.99,-176.7C235.86,-167.82 253.57,-156.49 267.6,-147.51"/>
<polygon fill="#63b8ff" stroke="#63b8ff" points="269.26,-150.61 275.79,-142.27 265.48,-144.71 269.26,-150.61"/>
</a>
</g>
</g>
<!-- Node3 -->
<g id="Node000003" class="node">
<title>Node3</title>
<g id="a_Node000003"><a xlink:href="_screen_8h.html" target="_top" xlink:title="Abstract interface for all UI screens in the JMR800&#45;V2 system.">
<polygon fill="white" stroke="#666666" points="92.5,-80.12 0,-80.12 0,-60.88 92.5,-60.88 92.5,-80.12"/>
<text text-anchor="middle" x="46.25" y="-66.62" font-family="Helvetica,sans-Serif" font-size="10.00">screens/Screen.h</text>
</a>
</g>
</g>
<!-- Node2&#45;&gt;Node3 -->
<g id="edge2_Node000002_Node000003" class="edge">
<title>Node2&#45;&gt;Node3</title>
<g id="a_edge2_Node000002_Node000003"><a xlink:title=" ">
<path fill="none" stroke="#63b8ff" d="M113.25,-121.43C101.07,-112.36 81.96,-98.12 67.27,-87.16"/>
<polygon fill="#63b8ff" stroke="#63b8ff" points="69.68,-84.6 59.57,-81.43 65.5,-90.21 69.68,-84.6"/>
</a>
</g>
</g>
<!-- Node4&#45;&gt;Node3 -->
<g id="edge8_Node000004_Node000003" class="edge">
<title>Node4&#45;&gt;Node3</title>
<g id="a_edge8_Node000004_Node000003"><a xlink:title=" ">
<path fill="none" stroke="#63b8ff" d="M253.51,-121.3C210.97,-111.08 141.7,-94.44 95.08,-83.23"/>
<polygon fill="#63b8ff" stroke="#63b8ff" points="96.05,-79.87 85.51,-80.93 94.41,-86.67 96.05,-79.87"/>
</a>
</g>
</g>
<!-- Node5 -->
<g id="Node000005" class="node">
<title>Node5</title>
<g id="a_Node000005"><a xlink:title=" ">
<polygon fill="#e0e0e0" stroke="#999999" points="440,-19.25 356.5,-19.25 356.5,0 440,0 440,-19.25"/>
<text text-anchor="middle" x="398.25" y="-5.75" font-family="Helvetica,sans-Serif" font-size="10.00">Adafruit_GFX.h</text>
</a>
</g>
</g>
<!-- Node4&#45;&gt;Node5 -->
<g id="edge4_Node000004_Node000005" class="edge">
<title>Node4&#45;&gt;Node5</title>
<g id="a_edge4_Node000004_Node000005"><a xlink:title=" ">
<path fill="none" stroke="#63b8ff" d="M327.28,-121.39C346.71,-114.71 369.46,-103.59 383.25,-85.75 395.32,-70.14 398.44,-47.4 398.93,-31.03"/>
<polygon fill="#63b8ff" stroke="#63b8ff" points="402.43,-31.02 398.88,-21.04 395.43,-31.05 402.43,-31.02"/>
</a>
</g>
</g>
<!-- Node6 -->
<g id="Node000006" class="node">
<title>Node6</title>
<g id="a_Node000006"><a xlink:title=" ">
<polygon fill="#e0e0e0" stroke="#999999" points="280.25,-19.25 180.25,-19.25 180.25,0 280.25,0 280.25,-19.25"/>
<text text-anchor="middle" x="230.25" y="-5.75" font-family="Helvetica,sans-Serif" font-size="10.00">Adafruit_SH110X.h</text>
</a>
</g>
</g>
<!-- Node4&#45;&gt;Node6 -->
<g id="edge5_Node000004_Node000006" class="edge">
<title>Node4&#45;&gt;Node6</title>
<g id="a_edge5_Node000004_Node000006"><a xlink:title=" ">
<path fill="none" stroke="#63b8ff" d="M236.24,-121.33C197.73,-113.74 151.12,-101.6 139.25,-85.75 131.13,-74.9 132.08,-66.75 139.25,-55.25 148.49,-40.43 164.24,-30.39 180.07,-23.66"/>
<polygon fill="#63b8ff" stroke="#63b8ff" points="180.92,-27.08 189,-20.23 178.41,-20.55 180.92,-27.08"/>
</a>
</g>
</g>
<!-- Node7 -->
<g id="Node000007" class="node">
<title>Node7</title>
<g id="a_Node000007"><a xlink:title=" ">
<polygon fill="#e0e0e0" stroke="#999999" points="373.75,-80.12 330.75,-80.12 330.75,-60.88 373.75,-60.88 373.75,-80.12"/>
<text text-anchor="middle" x="352.25" y="-66.62" font-family="Helvetica,sans-Serif" font-size="10.00">vector</text>
</a>
</g>
</g>
<!-- Node4&#45;&gt;Node7 -->
<g id="edge6_Node000004_Node000007" class="edge">
<title>Node4&#45;&gt;Node7</title>
<g id="a_edge6_Node000004_Node000007"><a xlink:title=" ">
<path fill="none" stroke="#63b8ff" d="M300.51,-121.43C309.56,-112.7 323.56,-99.19 334.71,-88.43"/>
<polygon fill="#63b8ff" stroke="#63b8ff" points="337.04,-91.04 341.81,-81.58 332.18,-86 337.04,-91.04"/>
</a>
</g>
</g>
<!-- Node8 -->
<g id="Node000008" class="node">
<title>Node8</title>
<g id="a_Node000008"><a xlink:href="_widget_8h.html" target="_top" xlink:title="Abstract base class for UI widgets in the JMR800&#45;V2 OLED interface.">
<polygon fill="white" stroke="#666666" points="550.12,-19.25 458.38,-19.25 458.38,0 550.12,0 550.12,-19.25"/>
<text text-anchor="middle" x="504.25" y="-5.75" font-family="Helvetica,sans-Serif" font-size="10.00">widgets/Widget.h</text>
</a>
</g>
</g>
<!-- Node4&#45;&gt;Node8 -->
<g id="edge7_Node000004_Node000008" class="edge">
<title>Node4&#45;&gt;Node8</title>
<g id="a_edge7_Node000004_Node000008"><a xlink:title=" ">
<path fill="none" stroke="#63b8ff" d="M373.61,-129.23C449.73,-126.23 554.92,-116.44 581.25,-85.75 590.08,-75.46 588.02,-67 581.25,-55.25 573.12,-41.14 558.63,-31.08 544.39,-24.13"/>
<polygon fill="#63b8ff" stroke="#63b8ff" points="546.11,-21.07 535.55,-20.22 543.28,-27.47 546.11,-21.07"/>
</a>
</g>
</g>
<!-- Node9 -->
<g id="Node000009" class="node">
<title>Node9</title>
<g id="a_Node000009"><a xlink:href="_encoder_attached_numeric_widget_8h.html" target="_top" xlink:title="Widget for displaying and adjusting numeric values using an encoder.">
<polygon fill="white" stroke="#666666" points="312.5,-85.75 148,-85.75 148,-55.25 312.5,-55.25 312.5,-85.75"/>
<text text-anchor="start" x="156" y="-72.25" font-family="Helvetica,sans-Serif" font-size="10.00">widgets/EncoderAttachedNumeric</text>
<text text-anchor="middle" x="230.25" y="-61" font-family="Helvetica,sans-Serif" font-size="10.00">Widget.h</text>
</a>
</g>
</g>
<!-- Node4&#45;&gt;Node9 -->
<g id="edge9_Node000004_Node000009" class="edge">
<title>Node4&#45;&gt;Node9</title>
<g id="a_edge9_Node000004_Node000009"><a xlink:title=" ">
<path fill="none" stroke="#63b8ff" d="M281.99,-121.43C274.38,-114.09 263.28,-103.38 253.31,-93.76"/>
<polygon fill="#63b8ff" stroke="#63b8ff" points="256.02,-91.51 246.4,-87.08 251.16,-96.55 256.02,-91.51"/>
</a>
</g>
</g>
<!-- Node10 -->
<g id="Node000010" class="node">
<title>Node10</title>
<g id="a_Node000010"><a xlink:href="_push_button_widget_8h.html" target="_top" xlink:title="Represents an interactive on&#45;screen push button for the JMR800&#45;V2 UI.">
<polygon fill="white" stroke="#666666" points="572.62,-80.12 429.88,-80.12 429.88,-60.88 572.62,-60.88 572.62,-80.12"/>
<text text-anchor="middle" x="501.25" y="-66.62" font-family="Helvetica,sans-Serif" font-size="10.00">widgets/PushButtonWidget.h</text>
</a>
</g>
</g>
<!-- Node4&#45;&gt;Node10 -->
<g id="edge13_Node000004_Node000010" class="edge">
<title>Node4&#45;&gt;Node10</title>
<g id="a_edge13_Node000004_Node000010"><a xlink:title=" ">
<path fill="none" stroke="#63b8ff" d="M323.6,-121.3C359.6,-111.21 417.93,-94.86 457.87,-83.66"/>
<polygon fill="#63b8ff" stroke="#63b8ff" points="458.72,-87.06 467.4,-80.99 456.83,-80.32 458.72,-87.06"/>
</a>
</g>
</g>
<!-- Node9&#45;&gt;Node5 -->
<g id="edge11_Node000009_Node000005" class="edge">
<title>Node9&#45;&gt;Node5</title>
<g id="a_edge11_Node000009_Node000005"><a xlink:title=" ">
<path fill="none" stroke="#63b8ff" d="M272.21,-54.8C299.76,-45.14 335.45,-32.63 361.81,-23.4"/>
<polygon fill="#63b8ff" stroke="#63b8ff" points="362.78,-26.76 371.06,-20.15 360.46,-20.16 362.78,-26.76"/>
</a>
</g>
</g>
<!-- Node9&#45;&gt;Node6 -->
<g id="edge12_Node000009_Node000006" class="edge">
<title>Node9&#45;&gt;Node6</title>
<g id="a_edge12_Node000009_Node000006"><a xlink:title=" ">
<path fill="none" stroke="#63b8ff" d="M230.25,-54.95C230.25,-47.71 230.25,-38.84 230.25,-30.94"/>
<polygon fill="#63b8ff" stroke="#63b8ff" points="233.75,-31.21 230.25,-21.21 226.75,-31.21 233.75,-31.21"/>
</a>
</g>
</g>
<!-- Node9&#45;&gt;Node8 -->
<g id="edge10_Node000009_Node000008" class="edge">
<title>Node9&#45;&gt;Node8</title>
<g id="a_edge10_Node000009_Node000008"><a xlink:title=" ">
<path fill="none" stroke="#63b8ff" d="M298.68,-54.8C345.68,-44.7 407.19,-31.48 450.63,-22.15"/>
<polygon fill="#63b8ff" stroke="#63b8ff" points="451.3,-25.58 460.35,-20.06 449.83,-18.74 451.3,-25.58"/>
</a>
</g>
</g>
<!-- Node10&#45;&gt;Node5 -->
<g id="edge15_Node000010_Node000005" class="edge">
<title>Node10&#45;&gt;Node5</title>
<g id="a_edge15_Node000010_Node000005"><a xlink:title=" ">
<path fill="none" stroke="#63b8ff" d="M485.61,-60.56C469.27,-51.22 443.38,-36.42 424.02,-25.36"/>
<polygon fill="#63b8ff" stroke="#63b8ff" points="425.77,-22.33 415.35,-20.4 422.3,-28.4 425.77,-22.33"/>
</a>
</g>
</g>
<!-- Node10&#45;&gt;Node6 -->
<g id="edge16_Node000010_Node000006" class="edge">
<title>Node10&#45;&gt;Node6</title>
<g id="a_edge16_Node000010_Node000006"><a xlink:title=" ">
<path fill="none" stroke="#63b8ff" d="M459.5,-60.43C412.15,-50.14 334.86,-33.35 283.28,-22.15"/>
<polygon fill="#63b8ff" stroke="#63b8ff" points="284.04,-18.73 273.53,-20.03 282.56,-25.57 284.04,-18.73"/>
</a>
</g>
</g>
<!-- Node10&#45;&gt;Node8 -->
<g id="edge14_Node000010_Node000008" class="edge">
<title>Node10&#45;&gt;Node8</title>
<g id="a_edge14_Node000010_Node000008"><a xlink:title=" ">
<path fill="none" stroke="#63b8ff" d="M501.71,-60.56C502.11,-52.69 502.7,-40.95 503.22,-30.82"/>
<polygon fill="#63b8ff" stroke="#63b8ff" points="506.7,-31.33 503.71,-21.16 499.71,-30.97 506.7,-31.33"/>
</a>
</g>
</g>
</g>
</svg>
