<?xml version="1.0" encoding="UTF-8" standalone="no"?>
<!DOCTYPE svg PUBLIC "-//W3C//DTD SVG 1.1//EN"
 "http://www.w3.org/Graphics/SVG/1.1/DTD/svg11.dtd">
<!-- Generated by graphviz version 12.2.1 (20241206.2353)
 -->
<!-- Title: src/widgets/EncoderKnobWidget.cpp Pages: 1 -->
<svg width="842pt" height="193pt"
 viewBox="0.00 0.00 841.74 193.00" xmlns="http://www.w3.org/2000/svg" xmlns:xlink="http://www.w3.org/1999/xlink">
<g id="graph0" class="graph" transform="scale(1 1) rotate(0) translate(4 189)">
<title>src/widgets/EncoderKnobWidget.cpp</title>
<!-- Node1 -->
<g id="Node000001" class="node">
<title>Node1</title>
<g id="a_Node000001"><a xlink:title="Implements a UI widget that visually represents the encoder knob and its pressed state.">
<polygon fill="#999999" stroke="#666666" points="507.36,-185 330.11,-185 330.11,-165.75 507.36,-165.75 507.36,-185"/>
<text text-anchor="middle" x="418.74" y="-171.5" font-family="Helvetica,sans-Serif" font-size="10.00">src/widgets/EncoderKnobWidget.cpp</text>
</a>
</g>
</g>
<!-- Node2 -->
<g id="Node000002" class="node">
<title>Node2</title>
<g id="a_Node000002"><a xlink:href="_encoder_knob_widget_8h.html" target="_top" xlink:title="Represents a virtual knob controlled by an encoder input.">
<polygon fill="white" stroke="#666666" points="375.86,-129.75 225.61,-129.75 225.61,-110.5 375.86,-110.5 375.86,-129.75"/>
<text text-anchor="middle" x="300.74" y="-116.25" font-family="Helvetica,sans-Serif" font-size="10.00">widgets/EncoderKnobWidget.h</text>
</a>
</g>
</g>
<!-- Node1&#45;&gt;Node2 -->
<g id="edge1_Node000001_Node000002" class="edge">
<title>Node1&#45;&gt;Node2</title>
<g id="a_edge1_Node000001_Node000002"><a xlink:title=" ">
<path fill="none" stroke="#63b8ff" d="M398.72,-165.34C380.24,-157 352.53,-144.5 331.29,-134.91"/>
<polygon fill="#63b8ff" stroke="#63b8ff" points="332.79,-131.75 322.23,-130.83 329.91,-138.13 332.79,-131.75"/>
</a>
</g>
</g>
<!-- Node7 -->
<g id="Node000007" class="node">
<title>Node7</title>
<g id="a_Node000007"><a xlink:href="_screen_manager_8h.html" target="_top" xlink:title="Declares the ScreenManager class responsible for UI screen control on the OLED display.">
<polygon fill="white" stroke="#666666" points="105.61,-129.75 13.86,-129.75 13.86,-110.5 105.61,-110.5 105.61,-129.75"/>
<text text-anchor="middle" x="59.74" y="-116.25" font-family="Helvetica,sans-Serif" font-size="10.00">ScreenManager.h</text>
</a>
</g>
</g>
<!-- Node1&#45;&gt;Node7 -->
<g id="edge7_Node000001_Node000007" class="edge">
<title>Node1&#45;&gt;Node7</title>
<g id="a_edge7_Node000001_Node000007"><a xlink:title=" ">
<path fill="none" stroke="#63b8ff" d="M357.43,-165.28C290.18,-155.31 183.07,-139.42 117.33,-129.67"/>
<polygon fill="#63b8ff" stroke="#63b8ff" points="117.85,-126.21 107.45,-128.2 116.83,-133.13 117.85,-126.21"/>
</a>
</g>
</g>
<!-- Node9 -->
<g id="Node000009" class="node">
<title>Node9</title>
<g id="a_Node000009"><a xlink:href="_logging_8h.html" target="_top" xlink:title="Lightweight logging utility for serial output in the JMR800&#45;V2 project.">
<polygon fill="white" stroke="#666666" points="833.74,-74.5 775.74,-74.5 775.74,-55.25 833.74,-55.25 833.74,-74.5"/>
<text text-anchor="middle" x="804.74" y="-61" font-family="Helvetica,sans-Serif" font-size="10.00">Logging.h</text>
</a>
</g>
</g>
<!-- Node1&#45;&gt;Node9 -->
<g id="edge10_Node000001_Node000009" class="edge">
<title>Node1&#45;&gt;Node9</title>
<g id="a_edge10_Node000001_Node000009"><a xlink:title=" ">
<path fill="none" stroke="#63b8ff" d="M455.63,-165.3C490.74,-156.56 544.98,-142.79 591.74,-129.75 652.5,-112.81 722.47,-91.47 765.14,-78.25"/>
<polygon fill="#63b8ff" stroke="#63b8ff" points="765.94,-81.67 774.46,-75.36 763.87,-74.98 765.94,-81.67"/>
</a>
</g>
</g>
<!-- Node12 -->
<g id="Node000012" class="node">
<title>Node12</title>
<g id="a_Node000012"><a xlink:href="_hardware_manager_8h.html" target="_top" xlink:title="Manages hardware input/output for analog controls, digital buttons, encoder, and serial communication...">
<polygon fill="white" stroke="#666666" points="582.24,-129.75 479.24,-129.75 479.24,-110.5 582.24,-110.5 582.24,-129.75"/>
<text text-anchor="middle" x="530.74" y="-116.25" font-family="Helvetica,sans-Serif" font-size="10.00">HardwareManager.h</text>
</a>
</g>
</g>
<!-- Node1&#45;&gt;Node12 -->
<g id="edge13_Node000001_Node000012" class="edge">
<title>Node1&#45;&gt;Node12</title>
<g id="a_edge13_Node000001_Node000012"><a xlink:title=" ">
<path fill="none" stroke="#63b8ff" d="M437.74,-165.34C455.2,-157.04 481.34,-144.61 501.46,-135.04"/>
<polygon fill="#63b8ff" stroke="#63b8ff" points="502.75,-138.31 510.28,-130.85 499.75,-131.99 502.75,-138.31"/>
</a>
</g>
</g>
<!-- Node3 -->
<g id="Node000003" class="node">
<title>Node3</title>
<g id="a_Node000003"><a xlink:href="_knob_widget_8h.html" target="_top" xlink:title="Base class for knob&#45;style widgets in the JMR800&#45;V2 interface.">
<polygon fill="white" stroke="#666666" points="237.86,-74.5 123.61,-74.5 123.61,-55.25 237.86,-55.25 237.86,-74.5"/>
<text text-anchor="middle" x="180.74" y="-61" font-family="Helvetica,sans-Serif" font-size="10.00">widgets/KnobWidget.h</text>
</a>
</g>
</g>
<!-- Node2&#45;&gt;Node3 -->
<g id="edge2_Node000002_Node000003" class="edge">
<title>Node2&#45;&gt;Node3</title>
<g id="a_edge2_Node000002_Node000003"><a xlink:title=" ">
<path fill="none" stroke="#63b8ff" d="M280.38,-110.09C261.5,-101.72 233.15,-89.13 211.51,-79.53"/>
<polygon fill="#63b8ff" stroke="#63b8ff" points="213.14,-76.42 202.58,-75.57 210.3,-82.82 213.14,-76.42"/>
</a>
</g>
</g>
<!-- Node5 -->
<g id="Node000005" class="node">
<title>Node5</title>
<g id="a_Node000005"><a xlink:title=" ">
<polygon fill="#e0e0e0" stroke="#999999" points="315.74,-19.25 215.74,-19.25 215.74,0 315.74,0 315.74,-19.25"/>
<text text-anchor="middle" x="265.74" y="-5.75" font-family="Helvetica,sans-Serif" font-size="10.00">Adafruit_SH110X.h</text>
</a>
</g>
</g>
<!-- Node2&#45;&gt;Node5 -->
<g id="edge6_Node000002_Node000005" class="edge">
<title>Node2&#45;&gt;Node5</title>
<g id="a_edge6_Node000002_Node000005"><a xlink:title=" ">
<path fill="none" stroke="#63b8ff" d="M297.41,-110.28C294.06,-101.32 288.84,-87.01 284.74,-74.5 279.93,-59.82 274.97,-43.08 271.32,-30.42"/>
<polygon fill="#63b8ff" stroke="#63b8ff" points="274.69,-29.47 268.58,-20.81 267.96,-31.38 274.69,-29.47"/>
</a>
</g>
</g>
<!-- Node6 -->
<g id="Node000006" class="node">
<title>Node6</title>
<g id="a_Node000006"><a xlink:title=" ">
<polygon fill="#e0e0e0" stroke="#999999" points="377.49,-74.5 293.99,-74.5 293.99,-55.25 377.49,-55.25 377.49,-74.5"/>
<text text-anchor="middle" x="335.74" y="-61" font-family="Helvetica,sans-Serif" font-size="10.00">Adafruit_GFX.h</text>
</a>
</g>
</g>
<!-- Node2&#45;&gt;Node6 -->
<g id="edge5_Node000002_Node000006" class="edge">
<title>Node2&#45;&gt;Node6</title>
<g id="a_edge5_Node000002_Node000006"><a xlink:title=" ">
<path fill="none" stroke="#63b8ff" d="M306.52,-110.33C311.15,-103.28 317.81,-93.15 323.61,-84.33"/>
<polygon fill="#63b8ff" stroke="#63b8ff" points="326.43,-86.4 329,-76.12 320.58,-82.56 326.43,-86.4"/>
</a>
</g>
</g>
<!-- Node4 -->
<g id="Node000004" class="node">
<title>Node4</title>
<g id="a_Node000004"><a xlink:href="_widget_8h.html" target="_top" xlink:title="Abstract base class for UI widgets in the JMR800&#45;V2 OLED interface.">
<polygon fill="white" stroke="#666666" points="197.61,-19.25 105.86,-19.25 105.86,0 197.61,0 197.61,-19.25"/>
<text text-anchor="middle" x="151.74" y="-5.75" font-family="Helvetica,sans-Serif" font-size="10.00">widgets/Widget.h</text>
</a>
</g>
</g>
<!-- Node3&#45;&gt;Node4 -->
<g id="edge3_Node000003_Node000004" class="edge">
<title>Node3&#45;&gt;Node4</title>
<g id="a_edge3_Node000003_Node000004"><a xlink:title=" ">
<path fill="none" stroke="#63b8ff" d="M175.95,-55.08C172.19,-48.19 166.83,-38.34 162.11,-29.66"/>
<polygon fill="#63b8ff" stroke="#63b8ff" points="165.21,-28.05 157.36,-20.94 159.06,-31.39 165.21,-28.05"/>
</a>
</g>
</g>
<!-- Node3&#45;&gt;Node5 -->
<g id="edge4_Node000003_Node000005" class="edge">
<title>Node3&#45;&gt;Node5</title>
<g id="a_edge4_Node000003_Node000005"><a xlink:title=" ">
<path fill="none" stroke="#63b8ff" d="M195.16,-54.84C207.86,-46.89 226.61,-35.14 241.6,-25.75"/>
<polygon fill="#63b8ff" stroke="#63b8ff" points="243.35,-28.78 249.97,-20.51 239.63,-22.85 243.35,-28.78"/>
</a>
</g>
</g>
<!-- Node7&#45;&gt;Node5 -->
<g id="edge8_Node000007_Node000005" class="edge">
<title>Node7&#45;&gt;Node5</title>
<g id="a_edge8_Node000007_Node000005"><a xlink:title=" ">
<path fill="none" stroke="#63b8ff" d="M42.12,-110.08C20.36,-97.75 -11.87,-74.94 4.74,-55.25 7.97,-51.42 127.79,-32.12 203.95,-20.19"/>
<polygon fill="#63b8ff" stroke="#63b8ff" points="204.47,-23.65 213.81,-18.65 203.39,-16.73 204.47,-23.65"/>
</a>
</g>
</g>
<!-- Node8 -->
<g id="Node000008" class="node">
<title>Node8</title>
<g id="a_Node000008"><a xlink:href="_screen_8h.html" target="_top" xlink:title="Abstract interface for all UI screens in the JMR800&#45;V2 system.">
<polygon fill="white" stroke="#666666" points="105.99,-74.5 13.49,-74.5 13.49,-55.25 105.99,-55.25 105.99,-74.5"/>
<text text-anchor="middle" x="59.74" y="-61" font-family="Helvetica,sans-Serif" font-size="10.00">screens/Screen.h</text>
</a>
</g>
</g>
<!-- Node7&#45;&gt;Node8 -->
<g id="edge9_Node000007_Node000008" class="edge">
<title>Node7&#45;&gt;Node8</title>
<g id="a_edge9_Node000007_Node000008"><a xlink:title=" ">
<path fill="none" stroke="#63b8ff" d="M59.74,-110.33C59.74,-103.82 59.74,-94.67 59.74,-86.37"/>
<polygon fill="#63b8ff" stroke="#63b8ff" points="63.24,-86.37 59.74,-76.37 56.24,-86.37 63.24,-86.37"/>
</a>
</g>
</g>
<!-- Node10 -->
<g id="Node000010" class="node">
<title>Node10</title>
<g id="a_Node000010"><a xlink:title=" ">
<polygon fill="#e0e0e0" stroke="#999999" points="710.36,-19.25 653.11,-19.25 653.11,0 710.36,0 710.36,-19.25"/>
<text text-anchor="middle" x="681.74" y="-5.75" font-family="Helvetica,sans-Serif" font-size="10.00">Arduino.h</text>
</a>
</g>
</g>
<!-- Node9&#45;&gt;Node10 -->
<g id="edge11_Node000009_Node000010" class="edge">
<title>Node9&#45;&gt;Node10</title>
<g id="a_edge11_Node000009_Node000010"><a xlink:title=" ">
<path fill="none" stroke="#63b8ff" d="M783.87,-54.84C764.44,-46.43 735.2,-33.77 712.98,-24.15"/>
<polygon fill="#63b8ff" stroke="#63b8ff" points="714.66,-21.06 704.1,-20.3 711.88,-27.49 714.66,-21.06"/>
</a>
</g>
</g>
<!-- Node11 -->
<g id="Node000011" class="node">
<title>Node11</title>
<g id="a_Node000011"><a xlink:href="defines_8h.html" target="_top" xlink:title="Hardware pin definitions and global constants for JMR800&#45;V2.">
<polygon fill="white" stroke="#666666" points="491.61,-19.25 435.86,-19.25 435.86,0 491.61,0 491.61,-19.25"/>
<text text-anchor="middle" x="463.74" y="-5.75" font-family="Helvetica,sans-Serif" font-size="10.00">defines.h</text>
</a>
</g>
</g>
<!-- Node9&#45;&gt;Node11 -->
<g id="edge12_Node000009_Node000011" class="edge">
<title>Node9&#45;&gt;Node11</title>
<g id="a_edge12_Node000009_Node000011"><a xlink:title=" ">
<path fill="none" stroke="#63b8ff" d="M775.33,-56.96C772.43,-56.35 769.53,-55.77 766.74,-55.25 672.61,-37.66 560.96,-22.74 503.03,-15.43"/>
<polygon fill="#63b8ff" stroke="#63b8ff" points="503.71,-11.99 493.35,-14.22 502.84,-18.93 503.71,-11.99"/>
</a>
</g>
</g>
<!-- Node12&#45;&gt;Node5 -->
<g id="edge16_Node000012_Node000005" class="edge">
<title>Node12&#45;&gt;Node5</title>
<g id="a_edge16_Node000012_Node000005"><a xlink:title=" ">
<path fill="none" stroke="#63b8ff" d="M511.34,-110.05C483.85,-97.28 431.85,-73.55 386.74,-55.25 358.8,-43.91 326.77,-32.16 302.68,-23.56"/>
<polygon fill="#63b8ff" stroke="#63b8ff" points="303.91,-20.28 293.31,-20.23 301.57,-26.87 303.91,-20.28"/>
</a>
</g>
</g>
<!-- Node12&#45;&gt;Node6 -->
<g id="edge15_Node000012_Node000006" class="edge">
<title>Node12&#45;&gt;Node6</title>
<g id="a_edge15_Node000012_Node000006"><a xlink:title=" ">
<path fill="none" stroke="#63b8ff" d="M497.66,-110.09C465.3,-101.26 415.81,-87.74 380.06,-77.98"/>
<polygon fill="#63b8ff" stroke="#63b8ff" points="381.01,-74.61 370.44,-75.35 379.16,-81.36 381.01,-74.61"/>
</a>
</g>
</g>
<!-- Node12&#45;&gt;Node9 -->
<g id="edge22_Node000012_Node000009" class="edge">
<title>Node12&#45;&gt;Node9</title>
<g id="a_edge22_Node000012_Node000009"><a xlink:title=" ">
<path fill="none" stroke="#63b8ff" d="M581.48,-110.08C626.92,-101.86 695.63,-89.12 764.29,-74.95"/>
<polygon fill="#63b8ff" stroke="#63b8ff" points="764.74,-78.43 773.82,-72.97 763.32,-71.58 764.74,-78.43"/>
</a>
</g>
</g>
<!-- Node12&#45;&gt;Node10 -->
<g id="edge14_Node000012_Node000010" class="edge">
<title>Node12&#45;&gt;Node10</title>
<g id="a_edge14_Node000012_Node000010"><a xlink:title=" ">
<path fill="none" stroke="#63b8ff" d="M535.63,-110.13C543.39,-96.6 559.71,-70.93 579.74,-55.25 598.23,-40.77 622.14,-29.98 642.17,-22.64"/>
<polygon fill="#63b8ff" stroke="#63b8ff" points="643.12,-26.02 651.41,-19.42 640.81,-19.41 643.12,-26.02"/>
</a>
</g>
</g>
<!-- Node12&#45;&gt;Node11 -->
<g id="edge21_Node000012_Node000011" class="edge">
<title>Node12&#45;&gt;Node11</title>
<g id="a_edge21_Node000012_Node000011"><a xlink:title=" ">
<path fill="none" stroke="#63b8ff" d="M505.94,-110.04C490.48,-102.94 471.86,-91.4 462.74,-74.5 455.55,-61.19 456.31,-43.93 458.58,-30.7"/>
<polygon fill="#63b8ff" stroke="#63b8ff" points="461.99,-31.52 460.7,-21.01 455.15,-30.03 461.99,-31.52"/>
</a>
</g>
</g>
<!-- Node13 -->
<g id="Node000013" class="node">
<title>Node13</title>
<g id="a_Node000013"><a xlink:title=" ">
<polygon fill="#e0e0e0" stroke="#999999" points="693.99,-74.5 649.49,-74.5 649.49,-55.25 693.99,-55.25 693.99,-74.5"/>
<text text-anchor="middle" x="671.74" y="-61" font-family="Helvetica,sans-Serif" font-size="10.00">Wire.h</text>
</a>
</g>
</g>
<!-- Node12&#45;&gt;Node13 -->
<g id="edge17_Node000012_Node000013" class="edge">
<title>Node12&#45;&gt;Node13</title>
<g id="a_edge17_Node000012_Node000013"><a xlink:title=" ">
<path fill="none" stroke="#63b8ff" d="M554.66,-110.09C577.65,-101.41 612.62,-88.2 638.35,-78.48"/>
<polygon fill="#63b8ff" stroke="#63b8ff" points="639.57,-81.77 647.69,-74.96 637.1,-75.22 639.57,-81.77"/>
</a>
</g>
</g>
<!-- Node14 -->
<g id="Node000014" class="node">
<title>Node14</title>
<g id="a_Node000014"><a xlink:title=" ">
<polygon fill="#e0e0e0" stroke="#999999" points="757.74,-74.5 711.74,-74.5 711.74,-55.25 757.74,-55.25 757.74,-74.5"/>
<text text-anchor="middle" x="734.74" y="-61" font-family="Helvetica,sans-Serif" font-size="10.00">ADC.h</text>
</a>
</g>
</g>
<!-- Node12&#45;&gt;Node14 -->
<g id="edge18_Node000012_Node000014" class="edge">
<title>Node12&#45;&gt;Node14</title>
<g id="a_edge18_Node000012_Node000014"><a xlink:title=" ">
<path fill="none" stroke="#63b8ff" d="M566.01,-110.08C598.49,-101.72 648.29,-88.86 700.22,-75.15"/>
<polygon fill="#63b8ff" stroke="#63b8ff" points="701.09,-78.54 709.86,-72.6 699.3,-71.77 701.09,-78.54"/>
</a>
</g>
</g>
<!-- Node15 -->
<g id="Node000015" class="node">
<title>Node15</title>
<g id="a_Node000015"><a xlink:title=" ">
<polygon fill="#e0e0e0" stroke="#999999" points="531.49,-74.5 471.99,-74.5 471.99,-55.25 531.49,-55.25 531.49,-74.5"/>
<text text-anchor="middle" x="501.74" y="-61" font-family="Helvetica,sans-Serif" font-size="10.00">Encoder.h</text>
</a>
</g>
</g>
<!-- Node12&#45;&gt;Node15 -->
<g id="edge19_Node000012_Node000015" class="edge">
<title>Node12&#45;&gt;Node15</title>
<g id="a_edge19_Node000012_Node000015"><a xlink:title=" ">
<path fill="none" stroke="#63b8ff" d="M525.95,-110.33C522.19,-103.44 516.83,-93.59 512.11,-84.91"/>
<polygon fill="#63b8ff" stroke="#63b8ff" points="515.21,-83.3 507.36,-76.19 509.06,-86.64 515.21,-83.3"/>
</a>
</g>
</g>
<!-- Node16 -->
<g id="Node000016" class="node">
<title>Node16</title>
<g id="a_Node000016"><a xlink:title=" ">
<polygon fill="#e0e0e0" stroke="#999999" points="631.24,-74.5 588.24,-74.5 588.24,-55.25 631.24,-55.25 631.24,-74.5"/>
<text text-anchor="middle" x="609.74" y="-61" font-family="Helvetica,sans-Serif" font-size="10.00">vector</text>
</a>
</g>
</g>
<!-- Node12&#45;&gt;Node16 -->
<g id="edge20_Node000012_Node000016" class="edge">
<title>Node12&#45;&gt;Node16</title>
<g id="a_edge20_Node000012_Node000016"><a xlink:title=" ">
<path fill="none" stroke="#63b8ff" d="M544.14,-110.09C555.83,-102.21 573.04,-90.61 586.9,-81.27"/>
<polygon fill="#63b8ff" stroke="#63b8ff" points="588.68,-84.29 595.02,-75.8 584.77,-78.49 588.68,-84.29"/>
</a>
</g>
</g>
</g>
</svg>
