<?xml version="1.0" encoding="UTF-8" standalone="no"?>
<!DOCTYPE svg PUBLIC "-//W3C//DTD SVG 1.1//EN"
 "http://www.w3.org/Graphics/SVG/1.1/DTD/svg11.dtd">
<!-- Generated by graphviz version 12.2.1 (20241206.2353)
 -->
<!-- Title: include/widgets/EncoderAttachedNumericWidget.h Pages: 1 -->
<svg width="320pt" height="94pt"
 viewBox="0.00 0.00 319.88 93.75" xmlns="http://www.w3.org/2000/svg" xmlns:xlink="http://www.w3.org/1999/xlink">
<g id="graph0" class="graph" transform="scale(1 1) rotate(0) translate(4 89.75)">
<title>include/widgets/EncoderAttachedNumericWidget.h</title>
<!-- Node1 -->
<g id="Node000001" class="node">
<title>Node1</title>
<g id="a_Node000001"><a xlink:title="Widget for displaying and adjusting numeric values using an encoder.">
<polygon fill="#999999" stroke="#666666" points="232.62,-85.75 71.12,-85.75 71.12,-55.25 232.62,-55.25 232.62,-85.75"/>
<text text-anchor="start" x="79.12" y="-72.25" font-family="Helvetica,sans-Serif" font-size="10.00">include/widgets/EncoderAttached</text>
<text text-anchor="middle" x="151.88" y="-61" font-family="Helvetica,sans-Serif" font-size="10.00">NumericWidget.h</text>
</a>
</g>
</g>
<!-- Node2 -->
<g id="Node000002" class="node">
<title>Node2</title>
<g id="a_Node000002"><a xlink:href="_widget_8h.html" target="_top" xlink:title="Abstract base class for UI widgets in the JMR800&#45;V2 OLED interface.">
<polygon fill="white" stroke="#666666" points="91.75,-19.25 0,-19.25 0,0 91.75,0 91.75,-19.25"/>
<text text-anchor="middle" x="45.88" y="-5.75" font-family="Helvetica,sans-Serif" font-size="10.00">widgets/Widget.h</text>
</a>
</g>
</g>
<!-- Node1&#45;&gt;Node2 -->
<g id="edge1_Node000001_Node000002" class="edge">
<title>Node1&#45;&gt;Node2</title>
<g id="a_edge1_Node000001_Node000002"><a xlink:title=" ">
<path fill="none" stroke="#63b8ff" d="M125.4,-54.8C109.1,-45.74 88.3,-34.19 72.05,-25.16"/>
<polygon fill="#63b8ff" stroke="#63b8ff" points="73.9,-22.18 63.45,-20.39 70.5,-28.3 73.9,-22.18"/>
</a>
</g>
</g>
<!-- Node3 -->
<g id="Node000003" class="node">
<title>Node3</title>
<g id="a_Node000003"><a xlink:title=" ">
<polygon fill="#e0e0e0" stroke="#999999" points="193.62,-19.25 110.12,-19.25 110.12,0 193.62,0 193.62,-19.25"/>
<text text-anchor="middle" x="151.88" y="-5.75" font-family="Helvetica,sans-Serif" font-size="10.00">Adafruit_GFX.h</text>
</a>
</g>
</g>
<!-- Node1&#45;&gt;Node3 -->
<g id="edge2_Node000001_Node000003" class="edge">
<title>Node1&#45;&gt;Node3</title>
<g id="a_edge2_Node000001_Node000003"><a xlink:title=" ">
<path fill="none" stroke="#63b8ff" d="M151.88,-54.95C151.88,-47.71 151.88,-38.84 151.88,-30.94"/>
<polygon fill="#63b8ff" stroke="#63b8ff" points="155.38,-31.21 151.88,-21.21 148.38,-31.21 155.38,-31.21"/>
</a>
</g>
</g>
<!-- Node4 -->
<g id="Node000004" class="node">
<title>Node4</title>
<g id="a_Node000004"><a xlink:title=" ">
<polygon fill="#e0e0e0" stroke="#999999" points="311.88,-19.25 211.88,-19.25 211.88,0 311.88,0 311.88,-19.25"/>
<text text-anchor="middle" x="261.88" y="-5.75" font-family="Helvetica,sans-Serif" font-size="10.00">Adafruit_SH110X.h</text>
</a>
</g>
</g>
<!-- Node1&#45;&gt;Node4 -->
<g id="edge3_Node000001_Node000004" class="edge">
<title>Node1&#45;&gt;Node4</title>
<g id="a_edge3_Node000001_Node000004"><a xlink:title=" ">
<path fill="none" stroke="#63b8ff" d="M179.35,-54.8C196.42,-45.66 218.27,-33.97 235.19,-24.91"/>
<polygon fill="#63b8ff" stroke="#63b8ff" points="236.51,-28.17 243.67,-20.37 233.2,-22 236.51,-28.17"/>
</a>
</g>
</g>
</g>
</svg>
