<?xml version="1.0" encoding="UTF-8" standalone="no"?>
<!DOCTYPE svg PUBLIC "-//W3C//DTD SVG 1.1//EN"
 "http://www.w3.org/Graphics/SVG/1.1/DTD/svg11.dtd">
<!-- Generated by graphviz version 12.2.1 (20241206.2353)
 -->
<!-- Title: src/widgets/EncoderAttachedNumericWidget.cpp Pages: 1 -->
<svg width="849pt" height="216pt"
 viewBox="0.00 0.00 848.88 215.50" xmlns="http://www.w3.org/2000/svg" xmlns:xlink="http://www.w3.org/1999/xlink">
<g id="graph0" class="graph" transform="scale(1 1) rotate(0) translate(4 211.5)">
<title>src/widgets/EncoderAttachedNumericWidget.cpp</title>
<!-- Node1 -->
<g id="Node000001" class="node">
<title>Node1</title>
<g id="a_Node000001"><a xlink:title="UI widget displaying and controlling a numeric value using an encoder.">
<polygon fill="#999999" stroke="#666666" points="355,-207.5 210.75,-207.5 210.75,-177 355,-177 355,-207.5"/>
<text text-anchor="start" x="218.75" y="-194" font-family="Helvetica,sans-Serif" font-size="10.00">src/widgets/EncoderAttached</text>
<text text-anchor="middle" x="282.88" y="-182.75" font-family="Helvetica,sans-Serif" font-size="10.00">NumericWidget.cpp</text>
</a>
</g>
</g>
<!-- Node2 -->
<g id="Node000002" class="node">
<title>Node2</title>
<g id="a_Node000002"><a xlink:href="_encoder_attached_numeric_widget_8h.html" target="_top" xlink:title="Widget for displaying and adjusting numeric values using an encoder.">
<polygon fill="white" stroke="#666666" points="236.12,-141 71.62,-141 71.62,-110.5 236.12,-110.5 236.12,-141"/>
<text text-anchor="start" x="79.62" y="-127.5" font-family="Helvetica,sans-Serif" font-size="10.00">widgets/EncoderAttachedNumeric</text>
<text text-anchor="middle" x="153.88" y="-116.25" font-family="Helvetica,sans-Serif" font-size="10.00">Widget.h</text>
</a>
</g>
</g>
<!-- Node1&#45;&gt;Node2 -->
<g id="edge1_Node000001_Node000002" class="edge">
<title>Node1&#45;&gt;Node2</title>
<g id="a_edge1_Node000001_Node000002"><a xlink:title=" ">
<path fill="none" stroke="#63b8ff" d="M253.6,-176.61C235.71,-167.67 212.59,-156.11 193.12,-146.37"/>
<polygon fill="#63b8ff" stroke="#63b8ff" points="194.89,-143.35 184.39,-142.01 191.76,-149.61 194.89,-143.35"/>
</a>
</g>
</g>
<!-- Node3 -->
<g id="Node000003" class="node">
<title>Node3</title>
<g id="a_Node000003"><a xlink:href="_widget_8h.html" target="_top" xlink:title="Abstract base class for UI widgets in the JMR800&#45;V2 OLED interface.">
<polygon fill="white" stroke="#666666" points="91.75,-74.5 0,-74.5 0,-55.25 91.75,-55.25 91.75,-74.5"/>
<text text-anchor="middle" x="45.88" y="-61" font-family="Helvetica,sans-Serif" font-size="10.00">widgets/Widget.h</text>
</a>
</g>
</g>
<!-- Node1&#45;&gt;Node3 -->
<g id="edge5_Node000001_Node000003" class="edge">
<title>Node1&#45;&gt;Node3</title>
<g id="a_edge5_Node000001_Node000003"><a xlink:title=" ">
<path fill="none" stroke="#63b8ff" d="M210.51,-183.08C154.64,-175.29 83.49,-161.66 62.88,-141 48.57,-126.67 45.24,-103.01 44.91,-86.07"/>
<polygon fill="#63b8ff" stroke="#63b8ff" points="48.4,-86.27 45.08,-76.21 41.41,-86.15 48.4,-86.27"/>
</a>
</g>
</g>
<!-- Node4 -->
<g id="Node000004" class="node">
<title>Node4</title>
<g id="a_Node000004"><a xlink:title=" ">
<polygon fill="#e0e0e0" stroke="#999999" points="195.62,-74.5 112.12,-74.5 112.12,-55.25 195.62,-55.25 195.62,-74.5"/>
<text text-anchor="middle" x="153.88" y="-61" font-family="Helvetica,sans-Serif" font-size="10.00">Adafruit_GFX.h</text>
</a>
</g>
</g>
<!-- Node1&#45;&gt;Node4 -->
<g id="edge9_Node000001_Node000004" class="edge">
<title>Node1&#45;&gt;Node4</title>
<g id="a_edge9_Node000001_Node000004"><a xlink:title=" ">
<path fill="none" stroke="#63b8ff" d="M279.24,-176.7C274.17,-159.07 263.46,-129.38 244.88,-110.5 230.98,-96.37 211.69,-86.04 194.45,-78.9"/>
<polygon fill="#63b8ff" stroke="#63b8ff" points="196.05,-75.76 185.46,-75.4 193.52,-82.29 196.05,-75.76"/>
</a>
</g>
</g>
<!-- Node5 -->
<g id="Node000005" class="node">
<title>Node5</title>
<g id="a_Node000005"><a xlink:title=" ">
<polygon fill="#e0e0e0" stroke="#999999" points="313.88,-74.5 213.88,-74.5 213.88,-55.25 313.88,-55.25 313.88,-74.5"/>
<text text-anchor="middle" x="263.88" y="-61" font-family="Helvetica,sans-Serif" font-size="10.00">Adafruit_SH110X.h</text>
</a>
</g>
</g>
<!-- Node1&#45;&gt;Node5 -->
<g id="edge10_Node000001_Node000005" class="edge">
<title>Node1&#45;&gt;Node5</title>
<g id="a_edge10_Node000001_Node000005"><a xlink:title=" ">
<path fill="none" stroke="#63b8ff" d="M283.03,-176.53C282.95,-160.25 282.09,-133.29 277.88,-110.5 276.34,-102.22 273.76,-93.33 271.22,-85.68"/>
<polygon fill="#63b8ff" stroke="#63b8ff" points="274.56,-84.63 267.94,-76.37 267.96,-86.96 274.56,-84.63"/>
</a>
</g>
</g>
<!-- Node6 -->
<g id="Node000006" class="node">
<title>Node6</title>
<g id="a_Node000006"><a xlink:href="_screen_manager_8h.html" target="_top" xlink:title="Declares the ScreenManager class responsible for UI screen control on the OLED display.">
<polygon fill="white" stroke="#666666" points="421.75,-135.38 330,-135.38 330,-116.12 421.75,-116.12 421.75,-135.38"/>
<text text-anchor="middle" x="375.88" y="-121.88" font-family="Helvetica,sans-Serif" font-size="10.00">ScreenManager.h</text>
</a>
</g>
</g>
<!-- Node1&#45;&gt;Node6 -->
<g id="edge6_Node000001_Node000006" class="edge">
<title>Node1&#45;&gt;Node6</title>
<g id="a_edge6_Node000001_Node000006"><a xlink:title=" ">
<path fill="none" stroke="#63b8ff" d="M303.98,-176.61C318.84,-166.31 338.69,-152.54 353.77,-142.08"/>
<polygon fill="#63b8ff" stroke="#63b8ff" points="355.42,-145.2 361.64,-136.62 351.43,-139.45 355.42,-145.2"/>
</a>
</g>
</g>
<!-- Node8 -->
<g id="Node000008" class="node">
<title>Node8</title>
<g id="a_Node000008"><a xlink:href="_hardware_manager_8h.html" target="_top" xlink:title="Manages hardware input/output for analog controls, digital buttons, encoder, and serial communication...">
<polygon fill="white" stroke="#666666" points="617.38,-135.38 514.38,-135.38 514.38,-116.12 617.38,-116.12 617.38,-135.38"/>
<text text-anchor="middle" x="565.88" y="-121.88" font-family="Helvetica,sans-Serif" font-size="10.00">HardwareManager.h</text>
</a>
</g>
</g>
<!-- Node1&#45;&gt;Node8 -->
<g id="edge11_Node000001_Node000008" class="edge">
<title>Node1&#45;&gt;Node8</title>
<g id="a_edge11_Node000001_Node000008"><a xlink:title=" ">
<path fill="none" stroke="#63b8ff" d="M347.45,-176.53C398.23,-164.96 468.02,-149.05 514.92,-138.36"/>
<polygon fill="#63b8ff" stroke="#63b8ff" points="515.58,-141.8 524.56,-136.17 514.03,-134.98 515.58,-141.8"/>
</a>
</g>
</g>
<!-- Node2&#45;&gt;Node3 -->
<g id="edge2_Node000002_Node000003" class="edge">
<title>Node2&#45;&gt;Node3</title>
<g id="a_edge2_Node000002_Node000003"><a xlink:title=" ">
<path fill="none" stroke="#63b8ff" d="M126.9,-110.05C110.3,-100.99 89.1,-89.44 72.55,-80.41"/>
<polygon fill="#63b8ff" stroke="#63b8ff" points="74.22,-77.34 63.77,-75.63 70.87,-83.49 74.22,-77.34"/>
</a>
</g>
</g>
<!-- Node2&#45;&gt;Node4 -->
<g id="edge3_Node000002_Node000004" class="edge">
<title>Node2&#45;&gt;Node4</title>
<g id="a_edge3_Node000002_Node000004"><a xlink:title=" ">
<path fill="none" stroke="#63b8ff" d="M153.88,-110.2C153.88,-102.96 153.88,-94.09 153.88,-86.19"/>
<polygon fill="#63b8ff" stroke="#63b8ff" points="157.38,-86.46 153.88,-76.46 150.38,-86.46 157.38,-86.46"/>
</a>
</g>
</g>
<!-- Node2&#45;&gt;Node5 -->
<g id="edge4_Node000002_Node000005" class="edge">
<title>Node2&#45;&gt;Node5</title>
<g id="a_edge4_Node000002_Node000005"><a xlink:title=" ">
<path fill="none" stroke="#63b8ff" d="M181.35,-110.05C198.42,-100.91 220.27,-89.22 237.19,-80.16"/>
<polygon fill="#63b8ff" stroke="#63b8ff" points="238.51,-83.42 245.67,-75.62 235.2,-77.25 238.51,-83.42"/>
</a>
</g>
</g>
<!-- Node6&#45;&gt;Node5 -->
<g id="edge7_Node000006_Node000005" class="edge">
<title>Node6&#45;&gt;Node5</title>
<g id="a_edge7_Node000006_Node000005"><a xlink:title=" ">
<path fill="none" stroke="#63b8ff" d="M358.86,-115.81C340.86,-106.34 312.17,-91.26 291.03,-80.15"/>
<polygon fill="#63b8ff" stroke="#63b8ff" points="292.87,-77.16 282.39,-75.61 289.61,-83.36 292.87,-77.16"/>
</a>
</g>
</g>
<!-- Node7 -->
<g id="Node000007" class="node">
<title>Node7</title>
<g id="a_Node000007"><a xlink:href="_screen_8h.html" target="_top" xlink:title="Abstract interface for all UI screens in the JMR800&#45;V2 system.">
<polygon fill="white" stroke="#666666" points="424.12,-74.5 331.62,-74.5 331.62,-55.25 424.12,-55.25 424.12,-74.5"/>
<text text-anchor="middle" x="377.88" y="-61" font-family="Helvetica,sans-Serif" font-size="10.00">screens/Screen.h</text>
</a>
</g>
</g>
<!-- Node6&#45;&gt;Node7 -->
<g id="edge8_Node000006_Node000007" class="edge">
<title>Node6&#45;&gt;Node7</title>
<g id="a_edge8_Node000006_Node000007"><a xlink:title=" ">
<path fill="none" stroke="#63b8ff" d="M376.18,-115.81C376.45,-107.94 376.84,-96.2 377.19,-86.07"/>
<polygon fill="#63b8ff" stroke="#63b8ff" points="380.68,-86.53 377.52,-76.41 373.68,-86.29 380.68,-86.53"/>
</a>
</g>
</g>
<!-- Node8&#45;&gt;Node4 -->
<g id="edge13_Node000008_Node000004" class="edge">
<title>Node8&#45;&gt;Node4</title>
<g id="a_edge13_Node000008_Node000004"><a xlink:title=" ">
<path fill="none" stroke="#63b8ff" d="M514.09,-118.03C446.12,-109.09 322.8,-92.52 207.06,-74.8"/>
<polygon fill="#63b8ff" stroke="#63b8ff" points="207.8,-71.37 197.38,-73.31 206.73,-78.29 207.8,-71.37"/>
</a>
</g>
</g>
<!-- Node8&#45;&gt;Node5 -->
<g id="edge14_Node000008_Node000005" class="edge">
<title>Node8&#45;&gt;Node5</title>
<g id="a_edge14_Node000008_Node000005"><a xlink:title=" ">
<path fill="none" stroke="#63b8ff" d="M519.35,-115.68C466.14,-105.31 379,-88.32 321.53,-77.12"/>
<polygon fill="#63b8ff" stroke="#63b8ff" points="322.42,-73.72 311.94,-75.25 321.08,-80.59 322.42,-73.72"/>
</a>
</g>
</g>
<!-- Node9 -->
<g id="Node000009" class="node">
<title>Node9</title>
<g id="a_Node000009"><a xlink:title=" ">
<polygon fill="#e0e0e0" stroke="#999999" points="638.5,-19.25 581.25,-19.25 581.25,0 638.5,0 638.5,-19.25"/>
<text text-anchor="middle" x="609.88" y="-5.75" font-family="Helvetica,sans-Serif" font-size="10.00">Arduino.h</text>
</a>
</g>
</g>
<!-- Node8&#45;&gt;Node9 -->
<g id="edge12_Node000008_Node000009" class="edge">
<title>Node8&#45;&gt;Node9</title>
<g id="a_edge12_Node000008_Node000009"><a xlink:title=" ">
<path fill="none" stroke="#63b8ff" d="M569.33,-115.79C576.4,-97.46 592.66,-55.28 602.3,-30.26"/>
<polygon fill="#63b8ff" stroke="#63b8ff" points="605.56,-31.54 605.89,-20.95 599.03,-29.02 605.56,-31.54"/>
</a>
</g>
</g>
<!-- Node10 -->
<g id="Node000010" class="node">
<title>Node10</title>
<g id="a_Node000010"><a xlink:title=" ">
<polygon fill="#e0e0e0" stroke="#999999" points="777.12,-74.5 732.62,-74.5 732.62,-55.25 777.12,-55.25 777.12,-74.5"/>
<text text-anchor="middle" x="754.88" y="-61" font-family="Helvetica,sans-Serif" font-size="10.00">Wire.h</text>
</a>
</g>
</g>
<!-- Node8&#45;&gt;Node10 -->
<g id="edge15_Node000008_Node000010" class="edge">
<title>Node8&#45;&gt;Node10</title>
<g id="a_edge15_Node000008_Node000010"><a xlink:title=" ">
<path fill="none" stroke="#63b8ff" d="M594.99,-115.68C629.1,-105.06 685.48,-87.49 721.37,-76.31"/>
<polygon fill="#63b8ff" stroke="#63b8ff" points="722.3,-79.69 730.81,-73.37 720.22,-73.01 722.3,-79.69"/>
</a>
</g>
</g>
<!-- Node11 -->
<g id="Node000011" class="node">
<title>Node11</title>
<g id="a_Node000011"><a xlink:title=" ">
<polygon fill="#e0e0e0" stroke="#999999" points="840.88,-74.5 794.88,-74.5 794.88,-55.25 840.88,-55.25 840.88,-74.5"/>
<text text-anchor="middle" x="817.88" y="-61" font-family="Helvetica,sans-Serif" font-size="10.00">ADC.h</text>
</a>
</g>
</g>
<!-- Node8&#45;&gt;Node11 -->
<g id="edge16_Node000008_Node000011" class="edge">
<title>Node8&#45;&gt;Node11</title>
<g id="a_edge16_Node000008_Node000011"><a xlink:title=" ">
<path fill="none" stroke="#63b8ff" d="M607.76,-115.69C649.76,-106.49 716.58,-91.56 783.34,-75.06"/>
<polygon fill="#63b8ff" stroke="#63b8ff" points="784.15,-78.46 793.01,-72.66 782.47,-71.67 784.15,-78.46"/>
</a>
</g>
</g>
<!-- Node12 -->
<g id="Node000012" class="node">
<title>Node12</title>
<g id="a_Node000012"><a xlink:title=" ">
<polygon fill="#e0e0e0" stroke="#999999" points="501.62,-74.5 442.12,-74.5 442.12,-55.25 501.62,-55.25 501.62,-74.5"/>
<text text-anchor="middle" x="471.88" y="-61" font-family="Helvetica,sans-Serif" font-size="10.00">Encoder.h</text>
</a>
</g>
</g>
<!-- Node8&#45;&gt;Node12 -->
<g id="edge17_Node000008_Node000012" class="edge">
<title>Node8&#45;&gt;Node12</title>
<g id="a_edge17_Node000008_Node000012"><a xlink:title=" ">
<path fill="none" stroke="#63b8ff" d="M551.6,-115.81C536.83,-106.56 513.5,-91.95 495.89,-80.92"/>
<polygon fill="#63b8ff" stroke="#63b8ff" points="497.9,-78.05 487.57,-75.7 494.19,-83.98 497.9,-78.05"/>
</a>
</g>
</g>
<!-- Node13 -->
<g id="Node000013" class="node">
<title>Node13</title>
<g id="a_Node000013"><a xlink:title=" ">
<polygon fill="#e0e0e0" stroke="#999999" points="562.38,-74.5 519.38,-74.5 519.38,-55.25 562.38,-55.25 562.38,-74.5"/>
<text text-anchor="middle" x="540.88" y="-61" font-family="Helvetica,sans-Serif" font-size="10.00">vector</text>
</a>
</g>
</g>
<!-- Node8&#45;&gt;Node13 -->
<g id="edge18_Node000008_Node000013" class="edge">
<title>Node8&#45;&gt;Node13</title>
<g id="a_edge18_Node000008_Node000013"><a xlink:title=" ">
<path fill="none" stroke="#63b8ff" d="M562.08,-115.81C558.66,-107.77 553.53,-95.68 549.17,-85.41"/>
<polygon fill="#63b8ff" stroke="#63b8ff" points="552.43,-84.13 545.3,-76.29 545.99,-86.87 552.43,-84.13"/>
</a>
</g>
</g>
<!-- Node14 -->
<g id="Node000014" class="node">
<title>Node14</title>
<g id="a_Node000014"><a xlink:href="defines_8h.html" target="_top" xlink:title="Hardware pin definitions and global constants for JMR800&#45;V2.">
<polygon fill="white" stroke="#666666" points="722.75,-19.25 667,-19.25 667,0 722.75,0 722.75,-19.25"/>
<text text-anchor="middle" x="694.88" y="-5.75" font-family="Helvetica,sans-Serif" font-size="10.00">defines.h</text>
</a>
</g>
</g>
<!-- Node8&#45;&gt;Node14 -->
<g id="edge19_Node000008_Node000014" class="edge">
<title>Node8&#45;&gt;Node14</title>
<g id="a_edge19_Node000008_Node000014"><a xlink:title=" ">
<path fill="none" stroke="#63b8ff" d="M616.56,-115.71C641.23,-108.65 669.11,-96.23 685.88,-74.5 695.41,-62.14 697.23,-44.31 696.91,-30.63"/>
<polygon fill="#63b8ff" stroke="#63b8ff" points="700.43,-30.76 696.27,-21.02 693.44,-31.23 700.43,-30.76"/>
</a>
</g>
</g>
<!-- Node15 -->
<g id="Node000015" class="node">
<title>Node15</title>
<g id="a_Node000015"><a xlink:href="_logging_8h.html" target="_top" xlink:title="Lightweight logging utility for serial output in the JMR800&#45;V2 project.">
<polygon fill="white" stroke="#666666" points="676.88,-74.5 618.88,-74.5 618.88,-55.25 676.88,-55.25 676.88,-74.5"/>
<text text-anchor="middle" x="647.88" y="-61" font-family="Helvetica,sans-Serif" font-size="10.00">Logging.h</text>
</a>
</g>
</g>
<!-- Node8&#45;&gt;Node15 -->
<g id="edge20_Node000008_Node000015" class="edge">
<title>Node8&#45;&gt;Node15</title>
<g id="a_edge20_Node000008_Node000015"><a xlink:title=" ">
<path fill="none" stroke="#63b8ff" d="M578.33,-115.81C590.97,-106.73 610.8,-92.49 626.06,-81.54"/>
<polygon fill="#63b8ff" stroke="#63b8ff" points="627.99,-84.46 634.07,-75.78 623.91,-78.77 627.99,-84.46"/>
</a>
</g>
</g>
<!-- Node15&#45;&gt;Node9 -->
<g id="edge21_Node000015_Node000009" class="edge">
<title>Node15&#45;&gt;Node9</title>
<g id="a_edge21_Node000015_Node000009"><a xlink:title=" ">
<path fill="none" stroke="#63b8ff" d="M641.6,-55.08C636.52,-47.96 629.18,-37.68 622.84,-28.8"/>
<polygon fill="#63b8ff" stroke="#63b8ff" points="625.82,-26.95 617.17,-20.84 620.13,-31.01 625.82,-26.95"/>
</a>
</g>
</g>
<!-- Node15&#45;&gt;Node14 -->
<g id="edge22_Node000015_Node000014" class="edge">
<title>Node15&#45;&gt;Node14</title>
<g id="a_edge22_Node000015_Node000014"><a xlink:title=" ">
<path fill="none" stroke="#63b8ff" d="M655.64,-55.08C662.06,-47.8 671.39,-37.23 679.34,-28.23"/>
<polygon fill="#63b8ff" stroke="#63b8ff" points="681.95,-30.56 685.94,-20.74 676.7,-25.93 681.95,-30.56"/>
</a>
</g>
</g>
</g>
</svg>
