<?xml version="1.0" encoding="UTF-8" standalone="no"?>
<!DOCTYPE svg PUBLIC "-//W3C//DTD SVG 1.1//EN"
 "http://www.w3.org/Graphics/SVG/1.1/DTD/svg11.dtd">
<!-- Generated by graphviz version 12.2.1 (20241206.2353)
 -->
<!-- Title: include/widgets/EncoderAttachedNumericWidget.h Pages: 1 -->
<svg width="639pt" height="227pt"
 viewBox="0.00 0.00 639.25 226.75" xmlns="http://www.w3.org/2000/svg" xmlns:xlink="http://www.w3.org/1999/xlink">
<g id="graph0" class="graph" transform="scale(1 1) rotate(0) translate(4 222.75)">
<title>include/widgets/EncoderAttachedNumericWidget.h</title>
<!-- Node1 -->
<g id="Node000001" class="node">
<title>Node1</title>
<g id="a_Node000001"><a xlink:title="Widget for displaying and adjusting numeric values using an encoder.">
<polygon fill="#999999" stroke="#666666" points="409.88,-218.75 248.38,-218.75 248.38,-188.25 409.88,-188.25 409.88,-218.75"/>
<text text-anchor="start" x="256.38" y="-205.25" font-family="Helvetica,sans-Serif" font-size="10.00">include/widgets/EncoderAttached</text>
<text text-anchor="middle" x="329.12" y="-194" font-family="Helvetica,sans-Serif" font-size="10.00">NumericWidget.h</text>
</a>
</g>
</g>
<!-- Node2 -->
<g id="Node000002" class="node">
<title>Node2</title>
<g id="a_Node000002"><a xlink:href="_direct_command_screen_8h.html" target="_top" xlink:title="UI screen for manually sending raw commands to the synthesizer interface.">
<polygon fill="white" stroke="#666666" points="245.38,-152.25 86.88,-152.25 86.88,-121.75 245.38,-121.75 245.38,-152.25"/>
<text text-anchor="start" x="94.88" y="-138.75" font-family="Helvetica,sans-Serif" font-size="10.00">include/screens/DirectCommand</text>
<text text-anchor="middle" x="166.12" y="-127.5" font-family="Helvetica,sans-Serif" font-size="10.00">Screen.h</text>
</a>
</g>
</g>
<!-- Node1&#45;&gt;Node2 -->
<g id="edge1_Node000001_Node000002" class="edge">
<title>Node1&#45;&gt;Node2</title>
<g id="a_edge1_Node000001_Node000002"><a xlink:title=" ">
<path fill="none" stroke="#63b8ff" d="M281.44,-183.63C256.5,-173.76 226.43,-161.86 203.25,-152.69"/>
<polygon fill="#63b8ff" stroke="#63b8ff" points="280.14,-186.88 290.73,-187.31 282.72,-180.37 280.14,-186.88"/>
</a>
</g>
</g>
<!-- Node6 -->
<g id="Node000006" class="node">
<title>Node6</title>
<g id="a_Node000006"><a xlink:href="_direct_command_screen_8cpp.html" target="_top" xlink:title="Implements a screen for sending raw parameter/value commands to the synthesizer.">
<polygon fill="white" stroke="#666666" points="343.75,-85.75 202.5,-85.75 202.5,-55.25 343.75,-55.25 343.75,-85.75"/>
<text text-anchor="start" x="210.5" y="-72.25" font-family="Helvetica,sans-Serif" font-size="10.00">src/screens/DirectCommand</text>
<text text-anchor="middle" x="273.12" y="-61" font-family="Helvetica,sans-Serif" font-size="10.00">Screen.cpp</text>
</a>
</g>
</g>
<!-- Node1&#45;&gt;Node6 -->
<g id="edge6_Node000001_Node000006" class="edge">
<title>Node1&#45;&gt;Node6</title>
<g id="a_edge6_Node000001_Node000006"><a xlink:title=" ">
<path fill="none" stroke="#63b8ff" d="M309.01,-179.29C302.82,-171.18 296.5,-161.72 292.12,-152.25 282.04,-130.42 277.02,-102.71 274.76,-86.08"/>
<polygon fill="#63b8ff" stroke="#63b8ff" points="306.14,-181.32 315.13,-186.94 311.61,-176.94 306.14,-181.32"/>
</a>
</g>
</g>
<!-- Node7 -->
<g id="Node000007" class="node">
<title>Node7</title>
<g id="a_Node000007"><a xlink:href="_knob_config_dialog_8cpp.html" target="_top" xlink:title=" ">
<polygon fill="white" stroke="#666666" points="468.88,-146.62 301.38,-146.62 301.38,-127.38 468.88,-127.38 468.88,-146.62"/>
<text text-anchor="middle" x="385.12" y="-133.12" font-family="Helvetica,sans-Serif" font-size="10.00">src/screens/KnobConfigDialog.cpp</text>
</a>
</g>
</g>
<!-- Node1&#45;&gt;Node7 -->
<g id="edge7_Node000001_Node000007" class="edge">
<title>Node1&#45;&gt;Node7</title>
<g id="a_edge7_Node000001_Node000007"><a xlink:title=" ">
<path fill="none" stroke="#63b8ff" d="M349.28,-179.29C359.06,-168.02 370.23,-155.16 377.47,-146.82"/>
<polygon fill="#63b8ff" stroke="#63b8ff" points="346.74,-176.88 342.82,-186.72 352.02,-181.46 346.74,-176.88"/>
</a>
</g>
</g>
<!-- Node8 -->
<g id="Node000008" class="node">
<title>Node8</title>
<g id="a_Node000008"><a xlink:href="_encoder_attached_numeric_widget_8cpp.html" target="_top" xlink:title="UI widget displaying and controlling a numeric value using an encoder.">
<polygon fill="white" stroke="#666666" points="631.25,-152.25 487,-152.25 487,-121.75 631.25,-121.75 631.25,-152.25"/>
<text text-anchor="start" x="495" y="-138.75" font-family="Helvetica,sans-Serif" font-size="10.00">src/widgets/EncoderAttached</text>
<text text-anchor="middle" x="559.12" y="-127.5" font-family="Helvetica,sans-Serif" font-size="10.00">NumericWidget.cpp</text>
</a>
</g>
</g>
<!-- Node1&#45;&gt;Node8 -->
<g id="edge8_Node000001_Node000008" class="edge">
<title>Node1&#45;&gt;Node8</title>
<g id="a_edge8_Node000001_Node000008"><a xlink:title=" ">
<path fill="none" stroke="#63b8ff" d="M392.47,-184.74C428.44,-174.65 472.92,-162.18 506.87,-152.65"/>
<polygon fill="#63b8ff" stroke="#63b8ff" points="391.74,-181.3 383.06,-187.37 393.63,-188.04 391.74,-181.3"/>
</a>
</g>
</g>
<!-- Node3 -->
<g id="Node000003" class="node">
<title>Node3</title>
<g id="a_Node000003"><a xlink:href="_direct_command_mode_8h.html" target="_top" xlink:title="Application mode for sending direct parameter/value commands.">
<polygon fill="white" stroke="#666666" points="184.75,-85.75 31.5,-85.75 31.5,-55.25 184.75,-55.25 184.75,-85.75"/>
<text text-anchor="start" x="39.5" y="-72.25" font-family="Helvetica,sans-Serif" font-size="10.00">include/modes/DirectCommand</text>
<text text-anchor="middle" x="108.12" y="-61" font-family="Helvetica,sans-Serif" font-size="10.00">Mode.h</text>
</a>
</g>
</g>
<!-- Node2&#45;&gt;Node3 -->
<g id="edge2_Node000002_Node000003" class="edge">
<title>Node2&#45;&gt;Node3</title>
<g id="a_edge2_Node000002_Node000003"><a xlink:title=" ">
<path fill="none" stroke="#63b8ff" d="M145.33,-112.88C137.3,-103.94 128.34,-93.99 121.23,-86.08"/>
<polygon fill="#63b8ff" stroke="#63b8ff" points="142.66,-115.14 151.95,-120.24 147.87,-110.46 142.66,-115.14"/>
</a>
</g>
</g>
<!-- Node2&#45;&gt;Node6 -->
<g id="edge5_Node000002_Node000006" class="edge">
<title>Node2&#45;&gt;Node6</title>
<g id="a_edge5_Node000002_Node000006"><a xlink:title=" ">
<path fill="none" stroke="#63b8ff" d="M199.91,-115.64C215.83,-106.04 234.46,-94.81 248.94,-86.08"/>
<polygon fill="#63b8ff" stroke="#63b8ff" points="198.46,-112.42 191.7,-120.58 202.07,-118.42 198.46,-112.42"/>
</a>
</g>
</g>
<!-- Node4 -->
<g id="Node000004" class="node">
<title>Node4</title>
<g id="a_Node000004"><a xlink:href="main_8cpp.html" target="_top" xlink:title="Entry point for the JMR800&#45;V2 firmware.">
<polygon fill="white" stroke="#666666" points="72.25,-19.25 0,-19.25 0,0 72.25,0 72.25,-19.25"/>
<text text-anchor="middle" x="36.12" y="-5.75" font-family="Helvetica,sans-Serif" font-size="10.00">src/main.cpp</text>
</a>
</g>
</g>
<!-- Node3&#45;&gt;Node4 -->
<g id="edge3_Node000003_Node000004" class="edge">
<title>Node3&#45;&gt;Node4</title>
<g id="a_edge3_Node000003_Node000004"><a xlink:title=" ">
<path fill="none" stroke="#63b8ff" d="M81.63,-47.83C69.75,-38.12 56.38,-27.19 47.22,-19.7"/>
<polygon fill="#63b8ff" stroke="#63b8ff" points="79.2,-50.37 89.16,-53.99 83.63,-44.95 79.2,-50.37"/>
</a>
</g>
</g>
<!-- Node5 -->
<g id="Node000005" class="node">
<title>Node5</title>
<g id="a_Node000005"><a xlink:href="_direct_command_mode_8cpp.html" target="_top" xlink:title="Implements behavior for Direct Command Mode.">
<polygon fill="white" stroke="#666666" points="269.5,-19.25 90.75,-19.25 90.75,0 269.5,0 269.5,-19.25"/>
<text text-anchor="middle" x="180.12" y="-5.75" font-family="Helvetica,sans-Serif" font-size="10.00">src/modes/DirectCommandMode.cpp</text>
</a>
</g>
</g>
<!-- Node3&#45;&gt;Node5 -->
<g id="edge4_Node000003_Node000005" class="edge">
<title>Node3&#45;&gt;Node5</title>
<g id="a_edge4_Node000003_Node000005"><a xlink:title=" ">
<path fill="none" stroke="#63b8ff" d="M134.62,-47.83C146.5,-38.12 159.87,-27.19 169.03,-19.7"/>
<polygon fill="#63b8ff" stroke="#63b8ff" points="132.62,-44.95 127.09,-53.99 137.05,-50.37 132.62,-44.95"/>
</a>
</g>
</g>
</g>
</svg>
