<?xml version="1.0" encoding="UTF-8" standalone="no"?>
<!DOCTYPE svg PUBLIC "-//W3C//DTD SVG 1.1//EN"
 "http://www.w3.org/Graphics/SVG/1.1/DTD/svg11.dtd">
<!-- Generated by graphviz version 12.2.1 (20241206.2353)
 -->
<!-- Title: src/HardwareManager.cpp Pages: 1 -->
<svg width="751pt" height="193pt"
 viewBox="0.00 0.00 750.88 193.00" xmlns="http://www.w3.org/2000/svg" xmlns:xlink="http://www.w3.org/1999/xlink">
<g id="graph0" class="graph" transform="scale(1 1) rotate(0) translate(4 189)">
<title>src/HardwareManager.cpp</title>
<!-- Node1 -->
<g id="Node000001" class="node">
<title>Node1</title>
<g id="a_Node000001"><a xlink:title="Implements the HardwareManager class which controls all low&#45;level hardware interfaces.">
<polygon fill="#999999" stroke="#666666" points="280.88,-185 150.88,-185 150.88,-165.75 280.88,-165.75 280.88,-185"/>
<text text-anchor="middle" x="215.88" y="-171.5" font-family="Helvetica,sans-Serif" font-size="10.00">src/HardwareManager.cpp</text>
</a>
</g>
</g>
<!-- Node2 -->
<g id="Node000002" class="node">
<title>Node2</title>
<g id="a_Node000002"><a xlink:title=" ">
<polygon fill="#e0e0e0" stroke="#999999" points="67.75,-129.75 0,-129.75 0,-110.5 67.75,-110.5 67.75,-129.75"/>
<text text-anchor="middle" x="33.88" y="-116.25" font-family="Helvetica,sans-Serif" font-size="10.00">EEPROM.h</text>
</a>
</g>
</g>
<!-- Node1&#45;&gt;Node2 -->
<g id="edge1_Node000001_Node000002" class="edge">
<title>Node1&#45;&gt;Node2</title>
<g id="a_edge1_Node000001_Node000002"><a xlink:title=" ">
<path fill="none" stroke="#63b8ff" d="M185,-165.34C154.93,-156.54 109.01,-143.11 75.68,-133.36"/>
<polygon fill="#63b8ff" stroke="#63b8ff" points="76.93,-130.08 66.35,-130.63 74.97,-136.79 76.93,-130.08"/>
</a>
</g>
</g>
<!-- Node3 -->
<g id="Node000003" class="node">
<title>Node3</title>
<g id="a_Node000003"><a xlink:href="_hardware_manager_8h.html" target="_top" xlink:title="Manages hardware input/output for analog controls, digital buttons, encoder, and serial communication...">
<polygon fill="white" stroke="#666666" points="423.38,-129.75 320.38,-129.75 320.38,-110.5 423.38,-110.5 423.38,-129.75"/>
<text text-anchor="middle" x="371.88" y="-116.25" font-family="Helvetica,sans-Serif" font-size="10.00">HardwareManager.h</text>
</a>
</g>
</g>
<!-- Node1&#45;&gt;Node3 -->
<g id="edge2_Node000001_Node000003" class="edge">
<title>Node1&#45;&gt;Node3</title>
<g id="a_edge2_Node000001_Node000003"><a xlink:title=" ">
<path fill="none" stroke="#63b8ff" d="M242.34,-165.34C267.66,-156.7 306.11,-143.57 334.54,-133.87"/>
<polygon fill="#63b8ff" stroke="#63b8ff" points="335.52,-137.23 343.85,-130.69 333.25,-130.61 335.52,-137.23"/>
</a>
</g>
</g>
<!-- Node11 -->
<g id="Node000011" class="node">
<title>Node11</title>
<g id="a_Node000011"><a xlink:href="defines_8h.html" target="_top" xlink:title="Hardware pin definitions and global constants for JMR800&#45;V2.">
<polygon fill="white" stroke="#666666" points="364.75,-19.25 309,-19.25 309,0 364.75,0 364.75,-19.25"/>
<text text-anchor="middle" x="336.88" y="-5.75" font-family="Helvetica,sans-Serif" font-size="10.00">defines.h</text>
</a>
</g>
</g>
<!-- Node1&#45;&gt;Node11 -->
<g id="edge14_Node000001_Node000011" class="edge">
<title>Node1&#45;&gt;Node11</title>
<g id="a_edge14_Node000001_Node000011"><a xlink:title=" ">
<path fill="none" stroke="#63b8ff" d="M197.72,-165.35C160.28,-145.58 80.77,-96.89 114.88,-55.25 137.54,-27.58 240.14,-16.7 297.6,-12.72"/>
<polygon fill="#63b8ff" stroke="#63b8ff" points="297.53,-16.23 307.28,-12.09 297.07,-9.25 297.53,-16.23"/>
</a>
</g>
</g>
<!-- Node12 -->
<g id="Node000012" class="node">
<title>Node12</title>
<g id="a_Node000012"><a xlink:href="_logging_8h.html" target="_top" xlink:title="Lightweight logging utility for serial output in the JMR800&#45;V2 project.">
<polygon fill="white" stroke="#666666" points="742.88,-74.5 684.88,-74.5 684.88,-55.25 742.88,-55.25 742.88,-74.5"/>
<text text-anchor="middle" x="713.88" y="-61" font-family="Helvetica,sans-Serif" font-size="10.00">Logging.h</text>
</a>
</g>
</g>
<!-- Node1&#45;&gt;Node12 -->
<g id="edge15_Node000001_Node000012" class="edge">
<title>Node1&#45;&gt;Node12</title>
<g id="a_edge15_Node000001_Node000012"><a xlink:title=" ">
<path fill="none" stroke="#63b8ff" d="M261.23,-165.33C305.18,-156.5 373.67,-142.57 432.88,-129.75 518.7,-111.17 618.92,-88.04 673.46,-75.34"/>
<polygon fill="#63b8ff" stroke="#63b8ff" points="673.97,-78.81 682.91,-73.13 672.38,-72 673.97,-78.81"/>
</a>
</g>
</g>
<!-- Node4 -->
<g id="Node000004" class="node">
<title>Node4</title>
<g id="a_Node000004"><a xlink:title=" ">
<polygon fill="#e0e0e0" stroke="#999999" points="713.5,-19.25 656.25,-19.25 656.25,0 713.5,0 713.5,-19.25"/>
<text text-anchor="middle" x="684.88" y="-5.75" font-family="Helvetica,sans-Serif" font-size="10.00">Arduino.h</text>
</a>
</g>
</g>
<!-- Node3&#45;&gt;Node4 -->
<g id="edge3_Node000003_Node000004" class="edge">
<title>Node3&#45;&gt;Node4</title>
<g id="a_edge3_Node000003_Node000004"><a xlink:title=" ">
<path fill="none" stroke="#63b8ff" d="M423.86,-115.05C490.85,-109.01 602.87,-96.02 637.88,-74.5 655.26,-63.81 668.27,-44.09 676.14,-29.37"/>
<polygon fill="#63b8ff" stroke="#63b8ff" points="679.14,-31.2 680.47,-20.69 672.88,-28.07 679.14,-31.2"/>
</a>
</g>
</g>
<!-- Node5 -->
<g id="Node000005" class="node">
<title>Node5</title>
<g id="a_Node000005"><a xlink:title=" ">
<polygon fill="#e0e0e0" stroke="#999999" points="448.62,-74.5 365.12,-74.5 365.12,-55.25 448.62,-55.25 448.62,-74.5"/>
<text text-anchor="middle" x="406.88" y="-61" font-family="Helvetica,sans-Serif" font-size="10.00">Adafruit_GFX.h</text>
</a>
</g>
</g>
<!-- Node3&#45;&gt;Node5 -->
<g id="edge4_Node000003_Node000005" class="edge">
<title>Node3&#45;&gt;Node5</title>
<g id="a_edge4_Node000003_Node000005"><a xlink:title=" ">
<path fill="none" stroke="#63b8ff" d="M377.65,-110.33C382.29,-103.28 388.95,-93.15 394.74,-84.33"/>
<polygon fill="#63b8ff" stroke="#63b8ff" points="397.57,-86.4 400.14,-76.12 391.72,-82.56 397.57,-86.4"/>
</a>
</g>
</g>
<!-- Node6 -->
<g id="Node000006" class="node">
<title>Node6</title>
<g id="a_Node000006"><a xlink:title=" ">
<polygon fill="#e0e0e0" stroke="#999999" points="566.88,-74.5 466.88,-74.5 466.88,-55.25 566.88,-55.25 566.88,-74.5"/>
<text text-anchor="middle" x="516.88" y="-61" font-family="Helvetica,sans-Serif" font-size="10.00">Adafruit_SH110X.h</text>
</a>
</g>
</g>
<!-- Node3&#45;&gt;Node6 -->
<g id="edge5_Node000003_Node000006" class="edge">
<title>Node3&#45;&gt;Node6</title>
<g id="a_edge5_Node000003_Node000006"><a xlink:title=" ">
<path fill="none" stroke="#63b8ff" d="M396.47,-110.09C419.8,-101.52 455.11,-88.56 481.47,-78.88"/>
<polygon fill="#63b8ff" stroke="#63b8ff" points="482.56,-82.21 490.74,-75.47 480.14,-75.64 482.56,-82.21"/>
</a>
</g>
</g>
<!-- Node7 -->
<g id="Node000007" class="node">
<title>Node7</title>
<g id="a_Node000007"><a xlink:title=" ">
<polygon fill="#e0e0e0" stroke="#999999" points="629.12,-74.5 584.62,-74.5 584.62,-55.25 629.12,-55.25 629.12,-74.5"/>
<text text-anchor="middle" x="606.88" y="-61" font-family="Helvetica,sans-Serif" font-size="10.00">Wire.h</text>
</a>
</g>
</g>
<!-- Node3&#45;&gt;Node7 -->
<g id="edge6_Node000003_Node000007" class="edge">
<title>Node3&#45;&gt;Node7</title>
<g id="a_edge6_Node000003_Node000007"><a xlink:title=" ">
<path fill="none" stroke="#63b8ff" d="M417.01,-110.01C456.04,-101.96 514.2,-89.56 573.2,-75.06"/>
<polygon fill="#63b8ff" stroke="#63b8ff" points="573.89,-78.5 582.76,-72.7 572.21,-71.7 573.89,-78.5"/>
</a>
</g>
</g>
<!-- Node8 -->
<g id="Node000008" class="node">
<title>Node8</title>
<g id="a_Node000008"><a xlink:title=" ">
<polygon fill="#e0e0e0" stroke="#999999" points="169.88,-74.5 123.88,-74.5 123.88,-55.25 169.88,-55.25 169.88,-74.5"/>
<text text-anchor="middle" x="146.88" y="-61" font-family="Helvetica,sans-Serif" font-size="10.00">ADC.h</text>
</a>
</g>
</g>
<!-- Node3&#45;&gt;Node8 -->
<g id="edge7_Node000003_Node000008" class="edge">
<title>Node3&#45;&gt;Node8</title>
<g id="a_edge7_Node000003_Node000008"><a xlink:title=" ">
<path fill="none" stroke="#63b8ff" d="M330.73,-110.06C293.96,-101.86 238.33,-89.22 181.31,-75.04"/>
<polygon fill="#63b8ff" stroke="#63b8ff" points="182.29,-71.68 171.74,-72.65 180.59,-78.47 182.29,-71.68"/>
</a>
</g>
</g>
<!-- Node9 -->
<g id="Node000009" class="node">
<title>Node9</title>
<g id="a_Node000009"><a xlink:title=" ">
<polygon fill="#e0e0e0" stroke="#999999" points="247.62,-74.5 188.12,-74.5 188.12,-55.25 247.62,-55.25 247.62,-74.5"/>
<text text-anchor="middle" x="217.88" y="-61" font-family="Helvetica,sans-Serif" font-size="10.00">Encoder.h</text>
</a>
</g>
</g>
<!-- Node3&#45;&gt;Node9 -->
<g id="edge8_Node000003_Node000009" class="edge">
<title>Node3&#45;&gt;Node9</title>
<g id="a_edge8_Node000003_Node000009"><a xlink:title=" ">
<path fill="none" stroke="#63b8ff" d="M345.75,-110.09C320.75,-101.45 282.8,-88.32 254.73,-78.62"/>
<polygon fill="#63b8ff" stroke="#63b8ff" points="256.15,-75.41 245.56,-75.45 253.86,-82.02 256.15,-75.41"/>
</a>
</g>
</g>
<!-- Node10 -->
<g id="Node000010" class="node">
<title>Node10</title>
<g id="a_Node000010"><a xlink:title=" ">
<polygon fill="#e0e0e0" stroke="#999999" points="308.38,-74.5 265.38,-74.5 265.38,-55.25 308.38,-55.25 308.38,-74.5"/>
<text text-anchor="middle" x="286.88" y="-61" font-family="Helvetica,sans-Serif" font-size="10.00">vector</text>
</a>
</g>
</g>
<!-- Node3&#45;&gt;Node10 -->
<g id="edge9_Node000003_Node000010" class="edge">
<title>Node3&#45;&gt;Node10</title>
<g id="a_edge9_Node000003_Node000010"><a xlink:title=" ">
<path fill="none" stroke="#63b8ff" d="M357.46,-110.09C344.76,-102.14 326,-90.39 311.02,-81"/>
<polygon fill="#63b8ff" stroke="#63b8ff" points="312.98,-78.1 302.65,-75.76 309.26,-84.03 312.98,-78.1"/>
</a>
</g>
</g>
<!-- Node3&#45;&gt;Node11 -->
<g id="edge10_Node000003_Node000011" class="edge">
<title>Node3&#45;&gt;Node11</title>
<g id="a_edge10_Node000003_Node000011"><a xlink:title=" ">
<path fill="none" stroke="#63b8ff" d="M368.54,-110.28C365.2,-101.32 359.98,-87.01 355.88,-74.5 351.06,-59.82 346.1,-43.08 342.46,-30.42"/>
<polygon fill="#63b8ff" stroke="#63b8ff" points="345.83,-29.47 339.72,-20.81 339.09,-31.38 345.83,-29.47"/>
</a>
</g>
</g>
<!-- Node3&#45;&gt;Node12 -->
<g id="edge11_Node000003_Node000012" class="edge">
<title>Node3&#45;&gt;Node12</title>
<g id="a_edge11_Node000003_Node000012"><a xlink:title=" ">
<path fill="none" stroke="#63b8ff" d="M423.86,-112.17C483.6,-103.98 584.53,-89.59 670.88,-74.5 671.86,-74.33 672.86,-74.15 673.86,-73.97"/>
<polygon fill="#63b8ff" stroke="#63b8ff" points="674.1,-77.49 683.28,-72.2 672.81,-70.61 674.1,-77.49"/>
</a>
</g>
</g>
<!-- Node12&#45;&gt;Node4 -->
<g id="edge12_Node000012_Node000004" class="edge">
<title>Node12&#45;&gt;Node4</title>
<g id="a_edge12_Node000012_Node000004"><a xlink:title=" ">
<path fill="none" stroke="#63b8ff" d="M709.09,-55.08C705.33,-48.19 699.97,-38.34 695.24,-29.66"/>
<polygon fill="#63b8ff" stroke="#63b8ff" points="698.35,-28.05 690.49,-20.94 692.2,-31.39 698.35,-28.05"/>
</a>
</g>
</g>
<!-- Node12&#45;&gt;Node11 -->
<g id="edge13_Node000012_Node000011" class="edge">
<title>Node12&#45;&gt;Node11</title>
<g id="a_edge13_Node000012_Node000011"><a xlink:title=" ">
<path fill="none" stroke="#63b8ff" d="M684.61,-59.74C617.38,-50.25 451.93,-26.88 376.05,-16.16"/>
<polygon fill="#63b8ff" stroke="#63b8ff" points="376.99,-12.76 366.59,-14.82 376.01,-19.69 376.99,-12.76"/>
</a>
</g>
</g>
</g>
</svg>
