<?xml version="1.0" encoding="UTF-8" standalone="no"?>
<!DOCTYPE svg PUBLIC "-//W3C//DTD SVG 1.1//EN"
 "http://www.w3.org/Graphics/SVG/1.1/DTD/svg11.dtd">
<!-- Generated by graphviz version 12.2.1 (20241206.2353)
 -->
<!-- Title: include/HardwareManager.h Pages: 1 -->
<svg width="2656pt" height="94pt"
 viewBox="0.00 0.00 2655.62 93.75" xmlns="http://www.w3.org/2000/svg" xmlns:xlink="http://www.w3.org/1999/xlink">
<g id="graph0" class="graph" transform="scale(1 1) rotate(0) translate(4 89.75)">
<title>include/HardwareManager.h</title>
<!-- Node1 -->
<g id="Node000001" class="node">
<title>Node1</title>
<g id="a_Node000001"><a xlink:title="Manages hardware input/output for analog controls, digital buttons, encoder, and serial communication...">
<polygon fill="#999999" stroke="#666666" points="1279.38,-85.75 1142.62,-85.75 1142.62,-66.5 1279.38,-66.5 1279.38,-85.75"/>
<text text-anchor="middle" x="1211" y="-72.25" font-family="Helvetica,sans-Serif" font-size="10.00">include/HardwareManager.h</text>
</a>
</g>
</g>
<!-- Node2 -->
<g id="Node000002" class="node">
<title>Node2</title>
<g id="a_Node000002"><a xlink:href="_hardware_manager_8cpp.html" target="_top" xlink:title="Implements the HardwareManager class which controls all low&#45;level hardware interfaces.">
<polygon fill="white" stroke="#666666" points="130,-24.88 0,-24.88 0,-5.63 130,-5.63 130,-24.88"/>
<text text-anchor="middle" x="65" y="-11.38" font-family="Helvetica,sans-Serif" font-size="10.00">src/HardwareManager.cpp</text>
</a>
</g>
</g>
<!-- Node1&#45;&gt;Node2 -->
<g id="edge1_Node000001_Node000002" class="edge">
<title>Node1&#45;&gt;Node2</title>
<g id="a_edge1_Node000001_Node000002"><a xlink:title=" ">
<path fill="none" stroke="#63b8ff" d="M1131,-75.85C952.39,-76.57 507.88,-73.45 139,-30.5 128.34,-29.26 116.92,-27.35 106.32,-25.33"/>
<polygon fill="#63b8ff" stroke="#63b8ff" points="1130.87,-79.35 1140.86,-75.8 1130.84,-72.35 1130.87,-79.35"/>
</a>
</g>
</g>
<!-- Node3 -->
<g id="Node000003" class="node">
<title>Node3</title>
<g id="a_Node000003"><a xlink:href="_logging_8cpp.html" target="_top" xlink:title="Implements a simple logging utility for emitting serial debug messages with verbosity filtering.">
<polygon fill="white" stroke="#666666" points="233.5,-24.88 148.5,-24.88 148.5,-5.63 233.5,-5.63 233.5,-24.88"/>
<text text-anchor="middle" x="191" y="-11.38" font-family="Helvetica,sans-Serif" font-size="10.00">src/Logging.cpp</text>
</a>
</g>
</g>
<!-- Node1&#45;&gt;Node3 -->
<g id="edge2_Node000001_Node000003" class="edge">
<title>Node1&#45;&gt;Node3</title>
<g id="a_edge2_Node000001_Node000003"><a xlink:title=" ">
<path fill="none" stroke="#63b8ff" d="M1131.03,-73.72C931.08,-69.83 413.24,-57.41 243,-30.5 235.33,-29.29 227.16,-27.36 219.63,-25.32"/>
<polygon fill="#63b8ff" stroke="#63b8ff" points="1130.73,-77.21 1140.8,-73.9 1130.87,-70.21 1130.73,-77.21"/>
</a>
</g>
</g>
<!-- Node4 -->
<g id="Node000004" class="node">
<title>Node4</title>
<g id="a_Node000004"><a xlink:href="_mode_manager_8cpp.html" target="_top" xlink:title="Implements the ModeManager class responsible for managing application modes.">
<polygon fill="white" stroke="#666666" points="364,-24.88 252,-24.88 252,-5.63 364,-5.63 364,-24.88"/>
<text text-anchor="middle" x="308" y="-11.38" font-family="Helvetica,sans-Serif" font-size="10.00">src/ModeManager.cpp</text>
</a>
</g>
</g>
<!-- Node1&#45;&gt;Node4 -->
<g id="edge3_Node000001_Node000004" class="edge">
<title>Node1&#45;&gt;Node4</title>
<g id="a_edge3_Node000001_Node000004"><a xlink:title=" ">
<path fill="none" stroke="#63b8ff" d="M1130.89,-75.18C981.28,-74.33 649.5,-67.92 373,-30.5 363.73,-29.25 353.81,-27.36 344.6,-25.36"/>
<polygon fill="#63b8ff" stroke="#63b8ff" points="1130.68,-78.68 1140.7,-75.23 1130.72,-71.68 1130.68,-78.68"/>
</a>
</g>
</g>
<!-- Node5 -->
<g id="Node000005" class="node">
<title>Node5</title>
<g id="a_Node000005"><a xlink:href="main_8cpp.html" target="_top" xlink:title="Entry point for the JMR800&#45;V2 firmware.">
<polygon fill="white" stroke="#666666" points="454.12,-24.88 381.88,-24.88 381.88,-5.63 454.12,-5.63 454.12,-24.88"/>
<text text-anchor="middle" x="418" y="-11.38" font-family="Helvetica,sans-Serif" font-size="10.00">src/main.cpp</text>
</a>
</g>
</g>
<!-- Node1&#45;&gt;Node5 -->
<g id="edge4_Node000001_Node000005" class="edge">
<title>Node1&#45;&gt;Node5</title>
<g id="a_edge4_Node000001_Node000005"><a xlink:title=" ">
<path fill="none" stroke="#63b8ff" d="M1131.06,-72.85C965.32,-67.73 589.22,-53.88 463,-30.5 456.39,-29.28 449.4,-27.37 442.95,-25.35"/>
<polygon fill="#63b8ff" stroke="#63b8ff" points="1130.53,-76.34 1140.63,-73.14 1130.74,-69.34 1130.53,-76.34"/>
</a>
</g>
</g>
<!-- Node6 -->
<g id="Node000006" class="node">
<title>Node6</title>
<g id="a_Node000006"><a xlink:href="_config_mode_8cpp.html" target="_top" xlink:title="Implements the System Configuration Mode for knob setup.">
<polygon fill="white" stroke="#666666" points="608,-24.88 472,-24.88 472,-5.63 608,-5.63 608,-24.88"/>
<text text-anchor="middle" x="540" y="-11.38" font-family="Helvetica,sans-Serif" font-size="10.00">src/modes/ConfigMode.cpp</text>
</a>
</g>
</g>
<!-- Node1&#45;&gt;Node6 -->
<g id="edge5_Node000001_Node000006" class="edge">
<title>Node1&#45;&gt;Node6</title>
<g id="a_edge5_Node000001_Node000006"><a xlink:title=" ">
<path fill="none" stroke="#63b8ff" d="M1130.73,-71.85C1016.32,-66.56 799.93,-54.23 617,-30.5 606.48,-29.14 595.23,-27.28 584.66,-25.36"/>
<polygon fill="#63b8ff" stroke="#63b8ff" points="1130.49,-75.34 1140.64,-72.3 1130.81,-68.35 1130.49,-75.34"/>
</a>
</g>
</g>
<!-- Node7 -->
<g id="Node000007" class="node">
<title>Node7</title>
<g id="a_Node000007"><a xlink:href="_controls_test_mode_8cpp.html" target="_top" xlink:title="Implements the Controls Test Mode for button interaction diagnostics.">
<polygon fill="white" stroke="#666666" points="789.5,-24.88 626.5,-24.88 626.5,-5.63 789.5,-5.63 789.5,-24.88"/>
<text text-anchor="middle" x="708" y="-11.38" font-family="Helvetica,sans-Serif" font-size="10.00">src/modes/ControlsTestMode.cpp</text>
</a>
</g>
</g>
<!-- Node1&#45;&gt;Node7 -->
<g id="edge6_Node000001_Node000007" class="edge">
<title>Node1&#45;&gt;Node7</title>
<g id="a_edge6_Node000001_Node000007"><a xlink:title=" ">
<path fill="none" stroke="#63b8ff" d="M1130.97,-67.59C1047.86,-59.5 914.12,-45.74 799,-30.5 787.43,-28.97 775.06,-27.15 763.28,-25.34"/>
<polygon fill="#63b8ff" stroke="#63b8ff" points="1130.56,-71.07 1140.85,-68.55 1131.23,-64.1 1130.56,-71.07"/>
</a>
</g>
</g>
<!-- Node8 -->
<g id="Node000008" class="node">
<title>Node8</title>
<g id="a_Node000008"><a xlink:href="_direct_command_mode_8cpp.html" target="_top" xlink:title="Implements behavior for Direct Command Mode.">
<polygon fill="white" stroke="#666666" points="986.38,-24.88 807.62,-24.88 807.62,-5.63 986.38,-5.63 986.38,-24.88"/>
<text text-anchor="middle" x="897" y="-11.38" font-family="Helvetica,sans-Serif" font-size="10.00">src/modes/DirectCommandMode.cpp</text>
</a>
</g>
</g>
<!-- Node1&#45;&gt;Node8 -->
<g id="edge7_Node000001_Node000008" class="edge">
<title>Node1&#45;&gt;Node8</title>
<g id="a_edge7_Node000001_Node000008"><a xlink:title=" ">
<path fill="none" stroke="#63b8ff" d="M1151.48,-63.97C1091.76,-52.77 1000.89,-35.73 945.43,-25.33"/>
<polygon fill="#63b8ff" stroke="#63b8ff" points="1150.66,-67.37 1161.14,-65.78 1151.95,-60.49 1150.66,-67.37"/>
</a>
</g>
</g>
<!-- Node9 -->
<g id="Node000009" class="node">
<title>Node9</title>
<g id="a_Node000009"><a xlink:href="_run_mode_8cpp.html" target="_top" xlink:title="Implements the behavior of the Run Mode application state.">
<polygon fill="white" stroke="#666666" points="1129.75,-24.88 1004.25,-24.88 1004.25,-5.63 1129.75,-5.63 1129.75,-24.88"/>
<text text-anchor="middle" x="1067" y="-11.38" font-family="Helvetica,sans-Serif" font-size="10.00">src/modes/RunMode.cpp</text>
</a>
</g>
</g>
<!-- Node1&#45;&gt;Node9 -->
<g id="edge8_Node000001_Node000009" class="edge">
<title>Node1&#45;&gt;Node9</title>
<g id="a_edge8_Node000001_Node000009"><a xlink:title=" ">
<path fill="none" stroke="#63b8ff" d="M1178.21,-61.72C1150.89,-50.55 1112.74,-34.95 1088.97,-25.23"/>
<polygon fill="#63b8ff" stroke="#63b8ff" points="1176.83,-64.94 1187.41,-65.48 1179.48,-58.46 1176.83,-64.94"/>
</a>
</g>
</g>
<!-- Node10 -->
<g id="Node000010" class="node">
<title>Node10</title>
<g id="a_Node000010"><a xlink:href="_controls_test_screen_8cpp.html" target="_top" xlink:title="Implements a screen for testing all physical controls: knobs, buttons, and encoder.">
<polygon fill="white" stroke="#666666" points="1273.75,-30.5 1148.25,-30.5 1148.25,0 1273.75,0 1273.75,-30.5"/>
<text text-anchor="start" x="1156.25" y="-17" font-family="Helvetica,sans-Serif" font-size="10.00">src/screens/ControlsTest</text>
<text text-anchor="middle" x="1211" y="-5.75" font-family="Helvetica,sans-Serif" font-size="10.00">Screen.cpp</text>
</a>
</g>
</g>
<!-- Node1&#45;&gt;Node10 -->
<g id="edge9_Node000001_Node000010" class="edge">
<title>Node1&#45;&gt;Node10</title>
<g id="a_edge9_Node000001_Node000010"><a xlink:title=" ">
<path fill="none" stroke="#63b8ff" d="M1211,-54.92C1211,-46.99 1211,-38.06 1211,-30.78"/>
<polygon fill="#63b8ff" stroke="#63b8ff" points="1207.5,-54.67 1211,-64.67 1214.5,-54.67 1207.5,-54.67"/>
</a>
</g>
</g>
<!-- Node11 -->
<g id="Node000011" class="node">
<title>Node11</title>
<g id="a_Node000011"><a xlink:href="_knob_config_dialog_8cpp.html" target="_top" xlink:title=" ">
<polygon fill="white" stroke="#666666" points="1459.75,-24.88 1292.25,-24.88 1292.25,-5.63 1459.75,-5.63 1459.75,-24.88"/>
<text text-anchor="middle" x="1376" y="-11.38" font-family="Helvetica,sans-Serif" font-size="10.00">src/screens/KnobConfigDialog.cpp</text>
</a>
</g>
</g>
<!-- Node1&#45;&gt;Node11 -->
<g id="edge10_Node000001_Node000011" class="edge">
<title>Node1&#45;&gt;Node11</title>
<g id="a_edge10_Node000001_Node000011"><a xlink:title=" ">
<path fill="none" stroke="#63b8ff" d="M1246.88,-62.32C1278.18,-51.15 1322.8,-35.23 1350.55,-25.33"/>
<polygon fill="#63b8ff" stroke="#63b8ff" points="1246.09,-58.89 1237.85,-65.55 1248.44,-65.48 1246.09,-58.89"/>
</a>
</g>
</g>
<!-- Node12 -->
<g id="Node000012" class="node">
<title>Node12</title>
<g id="a_Node000012"><a xlink:href="_shared_control_screen_utility_8cpp.html" target="_top" xlink:title="Provides layout helper utilities for constructing shared UI control screens.">
<polygon fill="white" stroke="#666666" points="1610.12,-30.5 1477.88,-30.5 1477.88,0 1610.12,0 1610.12,-30.5"/>
<text text-anchor="start" x="1485.88" y="-17" font-family="Helvetica,sans-Serif" font-size="10.00">src/screens/SharedControl</text>
<text text-anchor="middle" x="1544" y="-5.75" font-family="Helvetica,sans-Serif" font-size="10.00">ScreenUtility.cpp</text>
</a>
</g>
</g>
<!-- Node1&#45;&gt;Node12 -->
<g id="edge11_Node000001_Node000012" class="edge">
<title>Node1&#45;&gt;Node12</title>
<g id="a_edge11_Node000001_Node000012"><a xlink:title=" ">
<path fill="none" stroke="#63b8ff" d="M1276.01,-64.18C1328.22,-55.33 1403.37,-42.41 1469,-30.5 1471.87,-29.98 1474.8,-29.44 1477.76,-28.9"/>
<polygon fill="#63b8ff" stroke="#63b8ff" points="1275.67,-60.69 1266.4,-65.81 1276.84,-67.59 1275.67,-60.69"/>
</a>
</g>
</g>
<!-- Node13 -->
<g id="Node000013" class="node">
<title>Node13</title>
<g id="a_Node000013"><a xlink:href="_button_widget_8cpp.html" target="_top" xlink:title="Implements the ButtonWidget class, representing a physical button with LED indicators.">
<polygon fill="white" stroke="#666666" points="1775.62,-24.88 1628.38,-24.88 1628.38,-5.63 1775.62,-5.63 1775.62,-24.88"/>
<text text-anchor="middle" x="1702" y="-11.38" font-family="Helvetica,sans-Serif" font-size="10.00">src/widgets/ButtonWidget.cpp</text>
</a>
</g>
</g>
<!-- Node1&#45;&gt;Node13 -->
<g id="edge12_Node000001_Node000013" class="edge">
<title>Node1&#45;&gt;Node13</title>
<g id="a_edge12_Node000001_Node000013"><a xlink:title=" ">
<path fill="none" stroke="#63b8ff" d="M1291.03,-67.83C1373.42,-59.98 1505.44,-46.44 1619,-30.5 1629.71,-29 1641.17,-27.17 1652.04,-25.34"/>
<polygon fill="#63b8ff" stroke="#63b8ff" points="1290.87,-64.33 1281.25,-68.76 1291.53,-71.3 1290.87,-64.33"/>
</a>
</g>
</g>
<!-- Node14 -->
<g id="Node000014" class="node">
<title>Node14</title>
<g id="a_Node000014"><a xlink:href="_encoder_attached_numeric_widget_8cpp.html" target="_top" xlink:title="UI widget displaying and controlling a numeric value using an encoder.">
<polygon fill="white" stroke="#666666" points="1938.12,-30.5 1793.88,-30.5 1793.88,0 1938.12,0 1938.12,-30.5"/>
<text text-anchor="start" x="1801.88" y="-17" font-family="Helvetica,sans-Serif" font-size="10.00">src/widgets/EncoderAttached</text>
<text text-anchor="middle" x="1866" y="-5.75" font-family="Helvetica,sans-Serif" font-size="10.00">NumericWidget.cpp</text>
</a>
</g>
</g>
<!-- Node1&#45;&gt;Node14 -->
<g id="edge13_Node000001_Node000014" class="edge">
<title>Node1&#45;&gt;Node14</title>
<g id="a_edge13_Node000001_Node000014"><a xlink:title=" ">
<path fill="none" stroke="#63b8ff" d="M1291.13,-71.34C1402.31,-65.54 1609.5,-52.71 1785,-30.5 1787.83,-30.14 1790.72,-29.75 1793.63,-29.34"/>
<polygon fill="#63b8ff" stroke="#63b8ff" points="1291.01,-67.84 1281.21,-71.85 1291.37,-74.83 1291.01,-67.84"/>
</a>
</g>
</g>
<!-- Node15 -->
<g id="Node000015" class="node">
<title>Node15</title>
<g id="a_Node000015"><a xlink:href="_encoder_knob_widget_8cpp.html" target="_top" xlink:title="Implements a UI widget that visually represents the encoder knob and its pressed state.">
<polygon fill="white" stroke="#666666" points="2133.62,-24.88 1956.38,-24.88 1956.38,-5.63 2133.62,-5.63 2133.62,-24.88"/>
<text text-anchor="middle" x="2045" y="-11.38" font-family="Helvetica,sans-Serif" font-size="10.00">src/widgets/EncoderKnobWidget.cpp</text>
</a>
</g>
</g>
<!-- Node1&#45;&gt;Node15 -->
<g id="edge14_Node000001_Node000015" class="edge">
<title>Node1&#45;&gt;Node15</title>
<g id="a_edge14_Node000001_Node000015"><a xlink:title=" ">
<path fill="none" stroke="#63b8ff" d="M1291.11,-72.47C1426.5,-67.49 1709.12,-54.96 1947,-30.5 1960.34,-29.13 1974.65,-27.27 1988.1,-25.35"/>
<polygon fill="#63b8ff" stroke="#63b8ff" points="1291.03,-68.97 1281.16,-72.83 1291.28,-75.96 1291.03,-68.97"/>
</a>
</g>
</g>
<!-- Node16 -->
<g id="Node000016" class="node">
<title>Node16</title>
<g id="a_Node000016"><a xlink:href="_potentiometer_knob_widget_8cpp.html" target="_top" xlink:title="Implements the PotentiometerKnobWidget class, which visualizes a physical knob&#39;s current state.">
<polygon fill="white" stroke="#666666" points="2282,-30.5 2152,-30.5 2152,0 2282,0 2282,-30.5"/>
<text text-anchor="start" x="2160" y="-17" font-family="Helvetica,sans-Serif" font-size="10.00">src/widgets/Potentiometer</text>
<text text-anchor="middle" x="2217" y="-5.75" font-family="Helvetica,sans-Serif" font-size="10.00">KnobWidget.cpp</text>
</a>
</g>
</g>
<!-- Node1&#45;&gt;Node16 -->
<g id="edge15_Node000001_Node000016" class="edge">
<title>Node1&#45;&gt;Node16</title>
<g id="a_edge15_Node000001_Node000016"><a xlink:title=" ">
<path fill="none" stroke="#63b8ff" d="M1290.94,-75.12C1452.5,-74.27 1829.24,-68.03 2143,-30.5 2145.86,-30.16 2148.77,-29.77 2151.71,-29.35"/>
<polygon fill="#63b8ff" stroke="#63b8ff" points="1291.18,-71.62 1281.19,-75.17 1291.21,-78.62 1291.18,-71.62"/>
</a>
</g>
</g>
<!-- Node17 -->
<g id="Node000017" class="node">
<title>Node17</title>
<g id="a_Node000017"><a xlink:href="_push_button_widget_8cpp.html" target="_top" xlink:title="Implements the PushButtonWidget class, which represents a UI button with encoder interaction support.">
<polygon fill="white" stroke="#666666" points="2469.88,-24.88 2300.12,-24.88 2300.12,-5.63 2469.88,-5.63 2469.88,-24.88"/>
<text text-anchor="middle" x="2385" y="-11.38" font-family="Helvetica,sans-Serif" font-size="10.00">src/widgets/PushButtonWidget.cpp</text>
</a>
</g>
</g>
<!-- Node1&#45;&gt;Node17 -->
<g id="edge16_Node000001_Node000017" class="edge">
<title>Node1&#45;&gt;Node17</title>
<g id="a_edge16_Node000001_Node000017"><a xlink:title=" ">
<path fill="none" stroke="#63b8ff" d="M1291.16,-74.8C1470.64,-73.42 1918.35,-66.34 2291,-30.5 2304.31,-29.22 2318.61,-27.32 2331.93,-25.33"/>
<polygon fill="#63b8ff" stroke="#63b8ff" points="1291.21,-71.3 1281.24,-74.87 1291.26,-78.3 1291.21,-71.3"/>
</a>
</g>
</g>
<!-- Node18 -->
<g id="Node000018" class="node">
<title>Node18</title>
<g id="a_Node000018"><a xlink:href="_text_input_widget_8cpp.html" target="_top" xlink:title="Implements the TextInputWidget class, allowing user&#45;editable text display with cursor navigation.">
<polygon fill="white" stroke="#666666" points="2647.62,-24.88 2488.38,-24.88 2488.38,-5.63 2647.62,-5.63 2647.62,-24.88"/>
<text text-anchor="middle" x="2568" y="-11.38" font-family="Helvetica,sans-Serif" font-size="10.00">src/widgets/TextInputWidget.cpp</text>
</a>
</g>
</g>
<!-- Node1&#45;&gt;Node18 -->
<g id="edge17_Node000001_Node000018" class="edge">
<title>Node1&#45;&gt;Node18</title>
<g id="a_edge17_Node000001_Node000018"><a xlink:title=" ">
<path fill="none" stroke="#63b8ff" d="M1290.86,-75.73C1491.26,-76.52 2031.4,-74.04 2479,-30.5 2491.77,-29.26 2505.49,-27.35 2518.24,-25.33"/>
<polygon fill="#63b8ff" stroke="#63b8ff" points="1291.11,-72.23 1281.09,-75.69 1291.08,-79.23 1291.11,-72.23"/>
</a>
</g>
</g>
</g>
</svg>
