<?xml version="1.0" encoding="UTF-8" standalone="no"?>
<!DOCTYPE svg PUBLIC "-//W3C//DTD SVG 1.1//EN"
 "http://www.w3.org/Graphics/SVG/1.1/DTD/svg11.dtd">
<!-- Generated by graphviz version 12.2.1 (20241206.2353)
 -->
<!-- Title: include/HardwareManager.h Pages: 1 -->
<svg width="591pt" height="138pt"
 viewBox="0.00 0.00 591.05 137.75" xmlns="http://www.w3.org/2000/svg" xmlns:xlink="http://www.w3.org/1999/xlink">
<g id="graph0" class="graph" transform="scale(1 1) rotate(0) translate(4 133.75)">
<title>include/HardwareManager.h</title>
<!-- Node1 -->
<g id="Node000001" class="node">
<title>Node1</title>
<g id="a_Node000001"><a xlink:title="Manages hardware input/output for analog controls, digital buttons, encoder, and serial communication...">
<polygon fill="#999999" stroke="#666666" points="386.55,-129.75 249.8,-129.75 249.8,-110.5 386.55,-110.5 386.55,-129.75"/>
<text text-anchor="middle" x="318.17" y="-116.25" font-family="Helvetica,sans-Serif" font-size="10.00">include/HardwareManager.h</text>
</a>
</g>
</g>
<!-- Node2 -->
<g id="Node000002" class="node">
<title>Node2</title>
<g id="a_Node000002"><a xlink:title=" ">
<polygon fill="#e0e0e0" stroke="#999999" points="275.8,-19.25 218.55,-19.25 218.55,0 275.8,0 275.8,-19.25"/>
<text text-anchor="middle" x="247.17" y="-5.75" font-family="Helvetica,sans-Serif" font-size="10.00">Arduino.h</text>
</a>
</g>
</g>
<!-- Node1&#45;&gt;Node2 -->
<g id="edge1_Node000001_Node000002" class="edge">
<title>Node1&#45;&gt;Node2</title>
<g id="a_edge1_Node000001_Node000002"><a xlink:title=" ">
<path fill="none" stroke="#63b8ff" d="M249.32,-119.42C166.67,-118.14 35.26,-110.31 4.17,-74.5 -1.43,-68.04 -1.3,-61.82 4.17,-55.25 29.51,-24.83 144.67,-15.08 206.93,-12"/>
<polygon fill="#63b8ff" stroke="#63b8ff" points="206.92,-15.51 216.75,-11.56 206.61,-8.52 206.92,-15.51"/>
</a>
</g>
</g>
<!-- Node3 -->
<g id="Node000003" class="node">
<title>Node3</title>
<g id="a_Node000003"><a xlink:title=" ">
<polygon fill="#e0e0e0" stroke="#999999" points="96.92,-74.5 13.42,-74.5 13.42,-55.25 96.92,-55.25 96.92,-74.5"/>
<text text-anchor="middle" x="55.17" y="-61" font-family="Helvetica,sans-Serif" font-size="10.00">Adafruit_GFX.h</text>
</a>
</g>
</g>
<!-- Node1&#45;&gt;Node3 -->
<g id="edge2_Node000001_Node000003" class="edge">
<title>Node1&#45;&gt;Node3</title>
<g id="a_edge2_Node000001_Node000003"><a xlink:title=" ">
<path fill="none" stroke="#63b8ff" d="M273.26,-110.03C227.62,-100.79 156.94,-86.48 108.49,-76.67"/>
<polygon fill="#63b8ff" stroke="#63b8ff" points="109.27,-73.26 98.78,-74.7 107.88,-80.12 109.27,-73.26"/>
</a>
</g>
</g>
<!-- Node4 -->
<g id="Node000004" class="node">
<title>Node4</title>
<g id="a_Node000004"><a xlink:title=" ">
<polygon fill="#e0e0e0" stroke="#999999" points="215.17,-74.5 115.17,-74.5 115.17,-55.25 215.17,-55.25 215.17,-74.5"/>
<text text-anchor="middle" x="165.17" y="-61" font-family="Helvetica,sans-Serif" font-size="10.00">Adafruit_SH110X.h</text>
</a>
</g>
</g>
<!-- Node1&#45;&gt;Node4 -->
<g id="edge3_Node000001_Node000004" class="edge">
<title>Node1&#45;&gt;Node4</title>
<g id="a_edge3_Node000001_Node000004"><a xlink:title=" ">
<path fill="none" stroke="#63b8ff" d="M292.22,-110.09C267.38,-101.45 229.68,-88.32 201.79,-78.62"/>
<polygon fill="#63b8ff" stroke="#63b8ff" points="203.28,-75.43 192.68,-75.45 200.98,-82.04 203.28,-75.43"/>
</a>
</g>
</g>
<!-- Node5 -->
<g id="Node000005" class="node">
<title>Node5</title>
<g id="a_Node000005"><a xlink:title=" ">
<polygon fill="#e0e0e0" stroke="#999999" points="277.42,-74.5 232.92,-74.5 232.92,-55.25 277.42,-55.25 277.42,-74.5"/>
<text text-anchor="middle" x="255.17" y="-61" font-family="Helvetica,sans-Serif" font-size="10.00">Wire.h</text>
</a>
</g>
</g>
<!-- Node1&#45;&gt;Node5 -->
<g id="edge4_Node000001_Node000005" class="edge">
<title>Node1&#45;&gt;Node5</title>
<g id="a_edge4_Node000001_Node000005"><a xlink:title=" ">
<path fill="none" stroke="#63b8ff" d="M307.49,-110.09C298.47,-102.47 285.34,-91.37 274.49,-82.2"/>
<polygon fill="#63b8ff" stroke="#63b8ff" points="276.75,-79.53 266.86,-75.75 272.24,-84.88 276.75,-79.53"/>
</a>
</g>
</g>
<!-- Node6 -->
<g id="Node000006" class="node">
<title>Node6</title>
<g id="a_Node000006"><a xlink:title=" ">
<polygon fill="#e0e0e0" stroke="#999999" points="341.17,-74.5 295.17,-74.5 295.17,-55.25 341.17,-55.25 341.17,-74.5"/>
<text text-anchor="middle" x="318.17" y="-61" font-family="Helvetica,sans-Serif" font-size="10.00">ADC.h</text>
</a>
</g>
</g>
<!-- Node1&#45;&gt;Node6 -->
<g id="edge5_Node000001_Node000006" class="edge">
<title>Node1&#45;&gt;Node6</title>
<g id="a_edge5_Node000001_Node000006"><a xlink:title=" ">
<path fill="none" stroke="#63b8ff" d="M318.17,-110.33C318.17,-103.82 318.17,-94.67 318.17,-86.37"/>
<polygon fill="#63b8ff" stroke="#63b8ff" points="321.67,-86.37 318.17,-76.37 314.67,-86.37 321.67,-86.37"/>
</a>
</g>
</g>
<!-- Node7 -->
<g id="Node000007" class="node">
<title>Node7</title>
<g id="a_Node000007"><a xlink:title=" ">
<polygon fill="#e0e0e0" stroke="#999999" points="418.92,-74.5 359.42,-74.5 359.42,-55.25 418.92,-55.25 418.92,-74.5"/>
<text text-anchor="middle" x="389.17" y="-61" font-family="Helvetica,sans-Serif" font-size="10.00">Encoder.h</text>
</a>
</g>
</g>
<!-- Node1&#45;&gt;Node7 -->
<g id="edge6_Node000001_Node000007" class="edge">
<title>Node1&#45;&gt;Node7</title>
<g id="a_edge6_Node000001_Node000007"><a xlink:title=" ">
<path fill="none" stroke="#63b8ff" d="M330.22,-110.09C340.58,-102.32 355.77,-90.92 368.14,-81.65"/>
<polygon fill="#63b8ff" stroke="#63b8ff" points="370.2,-84.48 376.1,-75.68 366,-78.88 370.2,-84.48"/>
</a>
</g>
</g>
<!-- Node8 -->
<g id="Node000008" class="node">
<title>Node8</title>
<g id="a_Node000008"><a xlink:title=" ">
<polygon fill="#e0e0e0" stroke="#999999" points="479.67,-74.5 436.67,-74.5 436.67,-55.25 479.67,-55.25 479.67,-74.5"/>
<text text-anchor="middle" x="458.17" y="-61" font-family="Helvetica,sans-Serif" font-size="10.00">vector</text>
</a>
</g>
</g>
<!-- Node1&#45;&gt;Node8 -->
<g id="edge7_Node000001_Node000008" class="edge">
<title>Node1&#45;&gt;Node8</title>
<g id="a_edge7_Node000001_Node000008"><a xlink:title=" ">
<path fill="none" stroke="#63b8ff" d="M341.92,-110.09C365.03,-101.3 400.3,-87.89 425.93,-78.14"/>
<polygon fill="#63b8ff" stroke="#63b8ff" points="427.09,-81.44 435.19,-74.61 424.6,-74.9 427.09,-81.44"/>
</a>
</g>
</g>
<!-- Node9 -->
<g id="Node000009" class="node">
<title>Node9</title>
<g id="a_Node000009"><a xlink:href="defines_8h.html" target="_top" xlink:title="Hardware pin definitions and global constants for JMR800&#45;V2.">
<polygon fill="white" stroke="#666666" points="583.05,-19.25 527.3,-19.25 527.3,0 583.05,0 583.05,-19.25"/>
<text text-anchor="middle" x="555.17" y="-5.75" font-family="Helvetica,sans-Serif" font-size="10.00">defines.h</text>
</a>
</g>
</g>
<!-- Node1&#45;&gt;Node9 -->
<g id="edge8_Node000001_Node000009" class="edge">
<title>Node1&#45;&gt;Node9</title>
<g id="a_edge8_Node000001_Node000009"><a xlink:title=" ">
<path fill="none" stroke="#63b8ff" d="M386.9,-116.29C451.92,-112 542.82,-101.25 565.17,-74.5 575.41,-62.25 571.19,-43.91 565.41,-30.01"/>
<polygon fill="#63b8ff" stroke="#63b8ff" points="568.58,-28.52 561.13,-20.99 562.26,-31.52 568.58,-28.52"/>
</a>
</g>
</g>
<!-- Node10 -->
<g id="Node000010" class="node">
<title>Node10</title>
<g id="a_Node000010"><a xlink:href="_logging_8h.html" target="_top" xlink:title="Lightweight logging utility for serial output in the JMR800&#45;V2 project.">
<polygon fill="white" stroke="#666666" points="556.17,-74.5 498.17,-74.5 498.17,-55.25 556.17,-55.25 556.17,-74.5"/>
<text text-anchor="middle" x="527.17" y="-61" font-family="Helvetica,sans-Serif" font-size="10.00">Logging.h</text>
</a>
</g>
</g>
<!-- Node1&#45;&gt;Node10 -->
<g id="edge9_Node000001_Node000010" class="edge">
<title>Node1&#45;&gt;Node10</title>
<g id="a_edge9_Node000001_Node000010"><a xlink:title=" ">
<path fill="none" stroke="#63b8ff" d="M353.63,-110.09C390.62,-100.67 448.51,-85.92 487.13,-76.08"/>
<polygon fill="#63b8ff" stroke="#63b8ff" points="487.67,-79.55 496.5,-73.69 485.94,-72.77 487.67,-79.55"/>
</a>
</g>
</g>
<!-- Node10&#45;&gt;Node2 -->
<g id="edge10_Node000010_Node000002" class="edge">
<title>Node10&#45;&gt;Node2</title>
<g id="a_edge10_Node000010_Node000002"><a xlink:title=" ">
<path fill="none" stroke="#63b8ff" d="M497.74,-57.07C494.85,-56.44 491.96,-55.82 489.17,-55.25 418.23,-40.66 335.13,-25.83 287.08,-17.47"/>
<polygon fill="#63b8ff" stroke="#63b8ff" points="287.87,-14.05 277.42,-15.79 286.68,-20.95 287.87,-14.05"/>
</a>
</g>
</g>
<!-- Node10&#45;&gt;Node9 -->
<g id="edge11_Node000010_Node000009" class="edge">
<title>Node10&#45;&gt;Node9</title>
<g id="a_edge11_Node000010_Node000009"><a xlink:title=" ">
<path fill="none" stroke="#63b8ff" d="M531.8,-55.08C535.42,-48.19 540.6,-38.34 545.16,-29.66"/>
<polygon fill="#63b8ff" stroke="#63b8ff" points="548.19,-31.43 549.74,-20.95 541.99,-28.17 548.19,-31.43"/>
</a>
</g>
</g>
</g>
</svg>
