<?xml version="1.0" encoding="UTF-8" standalone="no"?>
<!DOCTYPE svg PUBLIC "-//W3C//DTD SVG 1.1//EN"
 "http://www.w3.org/Graphics/SVG/1.1/DTD/svg11.dtd">
<!-- Generated by graphviz version 12.2.1 (20241206.2353)
 -->
<!-- Title: include/IWidgetNavHandler.h Pages: 1 -->
<svg width="641pt" height="260pt"
 viewBox="0.00 0.00 640.75 259.50" xmlns="http://www.w3.org/2000/svg" xmlns:xlink="http://www.w3.org/1999/xlink">
<g id="graph0" class="graph" transform="scale(1 1) rotate(0) translate(4 255.5)">
<title>include/IWidgetNavHandler.h</title>
<!-- Node1 -->
<g id="Node000001" class="node">
<title>Node1</title>
<g id="a_Node000001"><a xlink:title="Interface for handling horizontal navigation events between UI widgets.">
<polygon fill="#999999" stroke="#666666" points="519.5,-251.5 376.75,-251.5 376.75,-232.25 519.5,-232.25 519.5,-251.5"/>
<text text-anchor="middle" x="448.12" y="-238" font-family="Helvetica,sans-Serif" font-size="10.00">include/IWidgetNavHandler.h</text>
</a>
</g>
</g>
<!-- Node2 -->
<g id="Node000002" class="node">
<title>Node2</title>
<g id="a_Node000002"><a xlink:href="_knob_config_dialog_8h.html" target="_top" xlink:title="Modal dialog for editing knob assignments and configuration parameters.">
<polygon fill="white" stroke="#666666" points="354.25,-196.25 216,-196.25 216,-165.75 354.25,-165.75 354.25,-196.25"/>
<text text-anchor="start" x="224" y="-182.75" font-family="Helvetica,sans-Serif" font-size="10.00">include/screens/KnobConfig</text>
<text text-anchor="middle" x="285.12" y="-171.5" font-family="Helvetica,sans-Serif" font-size="10.00">Dialog.h</text>
</a>
</g>
</g>
<!-- Node1&#45;&gt;Node2 -->
<g id="edge1_Node000001_Node000002" class="edge">
<title>Node1&#45;&gt;Node2</title>
<g id="a_edge1_Node000001_Node000002"><a xlink:title=" ">
<path fill="none" stroke="#63b8ff" d="M412.31,-227.94C386.77,-218.71 352.39,-206.29 325.81,-196.69"/>
<polygon fill="#63b8ff" stroke="#63b8ff" points="411,-231.19 421.59,-231.29 413.37,-224.6 411,-231.19"/>
</a>
</g>
</g>
<!-- Node9 -->
<g id="Node000009" class="node">
<title>Node9</title>
<g id="a_Node000009"><a xlink:href="_text_input_widget_8h.html" target="_top" xlink:title="Editable text input field for alphanumeric data entry on the OLED interface.">
<polygon fill="white" stroke="#666666" points="511.62,-196.25 384.62,-196.25 384.62,-165.75 511.62,-165.75 511.62,-196.25"/>
<text text-anchor="start" x="392.62" y="-182.75" font-family="Helvetica,sans-Serif" font-size="10.00">include/widgets/TextInput</text>
<text text-anchor="middle" x="448.12" y="-171.5" font-family="Helvetica,sans-Serif" font-size="10.00">Widget.h</text>
</a>
</g>
</g>
<!-- Node1&#45;&gt;Node9 -->
<g id="edge9_Node000001_Node000009" class="edge">
<title>Node1&#45;&gt;Node9</title>
<g id="a_edge9_Node000001_Node000009"><a xlink:title=" ">
<path fill="none" stroke="#63b8ff" d="M448.12,-220.67C448.12,-212.74 448.12,-203.81 448.12,-196.53"/>
<polygon fill="#63b8ff" stroke="#63b8ff" points="444.63,-220.42 448.13,-230.42 451.63,-220.42 444.63,-220.42"/>
</a>
</g>
</g>
<!-- Node10 -->
<g id="Node000010" class="node">
<title>Node10</title>
<g id="a_Node000010"><a xlink:href="_text_input_widget_8cpp.html" target="_top" xlink:title="Implements the TextInputWidget class, allowing user&#45;editable text display with cursor navigation.">
<polygon fill="white" stroke="#666666" points="632.75,-129.75 473.5,-129.75 473.5,-110.5 632.75,-110.5 632.75,-129.75"/>
<text text-anchor="middle" x="553.12" y="-116.25" font-family="Helvetica,sans-Serif" font-size="10.00">src/widgets/TextInputWidget.cpp</text>
</a>
</g>
</g>
<!-- Node1&#45;&gt;Node10 -->
<g id="edge12_Node000001_Node000010" class="edge">
<title>Node1&#45;&gt;Node10</title>
<g id="a_edge12_Node000001_Node000010"><a xlink:title=" ">
<path fill="none" stroke="#63b8ff" d="M480.39,-226.74C494.38,-219.31 510.06,-209.06 521.12,-196.25 538.55,-176.08 547.64,-145.02 551.24,-129.94"/>
<polygon fill="#63b8ff" stroke="#63b8ff" points="478.86,-223.59 471.48,-231.19 481.99,-229.85 478.86,-223.59"/>
</a>
</g>
</g>
<!-- Node3 -->
<g id="Node000003" class="node">
<title>Node3</title>
<g id="a_Node000003"><a xlink:href="_config_screen_8h.html" target="_top" xlink:title="Screen for accessing and modifying configuration settings.">
<polygon fill="white" stroke="#666666" points="232.5,-129.75 77.75,-129.75 77.75,-110.5 232.5,-110.5 232.5,-129.75"/>
<text text-anchor="middle" x="155.12" y="-116.25" font-family="Helvetica,sans-Serif" font-size="10.00">include/screens/ConfigScreen.h</text>
</a>
</g>
</g>
<!-- Node2&#45;&gt;Node3 -->
<g id="edge2_Node000002_Node000003" class="edge">
<title>Node2&#45;&gt;Node3</title>
<g id="a_edge2_Node000002_Node000003"><a xlink:title=" ">
<path fill="none" stroke="#63b8ff" d="M242.25,-160.58C219.6,-150.33 192.88,-138.22 175.06,-130.15"/>
<polygon fill="#63b8ff" stroke="#63b8ff" points="240.72,-163.73 251.28,-164.67 243.61,-157.36 240.72,-163.73"/>
</a>
</g>
</g>
<!-- Node7 -->
<g id="Node000007" class="node">
<title>Node7</title>
<g id="a_Node000007"><a xlink:href="_config_screen_8cpp.html" target="_top" xlink:title="Implements the configuration screen for knob mapping and diagnostics.">
<polygon fill="white" stroke="#666666" points="334.12,-74.5 186.12,-74.5 186.12,-55.25 334.12,-55.25 334.12,-74.5"/>
<text text-anchor="middle" x="260.12" y="-61" font-family="Helvetica,sans-Serif" font-size="10.00">src/screens/ConfigScreen.cpp</text>
</a>
</g>
</g>
<!-- Node2&#45;&gt;Node7 -->
<g id="edge7_Node000002_Node000007" class="edge">
<title>Node2&#45;&gt;Node7</title>
<g id="a_edge7_Node000002_Node000007"><a xlink:title=" ">
<path fill="none" stroke="#63b8ff" d="M279.56,-154.59C274.03,-129.34 265.85,-91.99 262.11,-74.95"/>
<polygon fill="#63b8ff" stroke="#63b8ff" points="276.08,-155.05 281.63,-164.07 282.91,-153.55 276.08,-155.05"/>
</a>
</g>
</g>
<!-- Node8 -->
<g id="Node000008" class="node">
<title>Node8</title>
<g id="a_Node000008"><a xlink:href="_knob_config_dialog_8cpp.html" target="_top" xlink:title=" ">
<polygon fill="white" stroke="#666666" points="455.88,-129.75 288.38,-129.75 288.38,-110.5 455.88,-110.5 455.88,-129.75"/>
<text text-anchor="middle" x="372.12" y="-116.25" font-family="Helvetica,sans-Serif" font-size="10.00">src/screens/KnobConfigDialog.cpp</text>
</a>
</g>
</g>
<!-- Node2&#45;&gt;Node8 -->
<g id="edge8_Node000002_Node000008" class="edge">
<title>Node2&#45;&gt;Node8</title>
<g id="a_edge8_Node000002_Node000008"><a xlink:title=" ">
<path fill="none" stroke="#63b8ff" d="M315.88,-159.19C330.54,-149.26 347.33,-137.91 358.71,-130.2"/>
<polygon fill="#63b8ff" stroke="#63b8ff" points="314.2,-156.1 307.88,-164.6 318.13,-161.89 314.2,-156.1"/>
</a>
</g>
</g>
<!-- Node4 -->
<g id="Node000004" class="node">
<title>Node4</title>
<g id="a_Node000004"><a xlink:href="_config_mode_8h.html" target="_top" xlink:title="Application mode for accessing and modifying system configuration.">
<polygon fill="white" stroke="#666666" points="168.5,-74.5 25.75,-74.5 25.75,-55.25 168.5,-55.25 168.5,-74.5"/>
<text text-anchor="middle" x="97.12" y="-61" font-family="Helvetica,sans-Serif" font-size="10.00">include/modes/ConfigMode.h</text>
</a>
</g>
</g>
<!-- Node3&#45;&gt;Node4 -->
<g id="edge3_Node000003_Node000004" class="edge">
<title>Node3&#45;&gt;Node4</title>
<g id="a_edge3_Node000003_Node000004"><a xlink:title=" ">
<path fill="none" stroke="#63b8ff" d="M136.86,-102.36C126.91,-93.22 114.99,-82.28 106.82,-74.77"/>
<polygon fill="#63b8ff" stroke="#63b8ff" points="134.44,-104.88 144.17,-109.07 139.17,-99.73 134.44,-104.88"/>
</a>
</g>
</g>
<!-- Node3&#45;&gt;Node7 -->
<g id="edge6_Node000003_Node000007" class="edge">
<title>Node3&#45;&gt;Node7</title>
<g id="a_edge6_Node000003_Node000007"><a xlink:title=" ">
<path fill="none" stroke="#63b8ff" d="M182.99,-104.99C201.77,-95.47 225.98,-83.19 242.23,-74.95"/>
<polygon fill="#63b8ff" stroke="#63b8ff" points="181.62,-101.76 174.29,-109.41 184.79,-108.01 181.62,-101.76"/>
</a>
</g>
</g>
<!-- Node5 -->
<g id="Node000005" class="node">
<title>Node5</title>
<g id="a_Node000005"><a xlink:href="main_8cpp.html" target="_top" xlink:title="Entry point for the JMR800&#45;V2 firmware.">
<polygon fill="white" stroke="#666666" points="72.25,-19.25 0,-19.25 0,0 72.25,0 72.25,-19.25"/>
<text text-anchor="middle" x="36.12" y="-5.75" font-family="Helvetica,sans-Serif" font-size="10.00">src/main.cpp</text>
</a>
</g>
</g>
<!-- Node4&#45;&gt;Node5 -->
<g id="edge4_Node000004_Node000005" class="edge">
<title>Node4&#45;&gt;Node5</title>
<g id="a_edge4_Node000004_Node000005"><a xlink:title=" ">
<path fill="none" stroke="#63b8ff" d="M78.24,-47.39C67.7,-38.19 55,-27.1 46.32,-19.52"/>
<polygon fill="#63b8ff" stroke="#63b8ff" points="75.8,-49.91 85.64,-53.85 80.41,-44.63 75.8,-49.91"/>
</a>
</g>
</g>
<!-- Node6 -->
<g id="Node000006" class="node">
<title>Node6</title>
<g id="a_Node000006"><a xlink:href="_config_mode_8cpp.html" target="_top" xlink:title="Implements the System Configuration Mode for knob setup.">
<polygon fill="white" stroke="#666666" points="226.12,-19.25 90.12,-19.25 90.12,0 226.12,0 226.12,-19.25"/>
<text text-anchor="middle" x="158.12" y="-5.75" font-family="Helvetica,sans-Serif" font-size="10.00">src/modes/ConfigMode.cpp</text>
</a>
</g>
</g>
<!-- Node4&#45;&gt;Node6 -->
<g id="edge5_Node000004_Node000006" class="edge">
<title>Node4&#45;&gt;Node6</title>
<g id="a_edge5_Node000004_Node000006"><a xlink:title=" ">
<path fill="none" stroke="#63b8ff" d="M116.01,-47.39C126.55,-38.19 139.25,-27.1 147.93,-19.52"/>
<polygon fill="#63b8ff" stroke="#63b8ff" points="113.84,-44.63 108.61,-53.85 118.45,-49.91 113.84,-44.63"/>
</a>
</g>
</g>
<!-- Node9&#45;&gt;Node8 -->
<g id="edge10_Node000009_Node000008" class="edge">
<title>Node9&#45;&gt;Node8</title>
<g id="a_edge10_Node000009_Node000008"><a xlink:title=" ">
<path fill="none" stroke="#63b8ff" d="M420.52,-158.62C407.89,-148.83 393.6,-137.76 383.84,-130.2"/>
<polygon fill="#63b8ff" stroke="#63b8ff" points="418.09,-161.16 428.14,-164.52 422.38,-155.63 418.09,-161.16"/>
</a>
</g>
</g>
<!-- Node9&#45;&gt;Node10 -->
<g id="edge11_Node000009_Node000010" class="edge">
<title>Node9&#45;&gt;Node10</title>
<g id="a_edge11_Node000009_Node000010"><a xlink:title=" ">
<path fill="none" stroke="#63b8ff" d="M484.25,-159.74C502.21,-149.67 523.02,-138.01 537.02,-130.15"/>
<polygon fill="#63b8ff" stroke="#63b8ff" points="482.68,-156.61 475.67,-164.55 486.1,-162.72 482.68,-156.61"/>
</a>
</g>
</g>
</g>
</svg>
