<?xml version="1.0" encoding="UTF-8" standalone="no"?>
<!DOCTYPE svg PUBLIC "-//W3C//DTD SVG 1.1//EN"
 "http://www.w3.org/Graphics/SVG/1.1/DTD/svg11.dtd">
<!-- Generated by graphviz version 12.2.1 (20241206.2353)
 -->
<!-- Title: src/screens/KnobConfigDialog.cpp Pages: 1 -->
<svg width="1310pt" height="204pt"
 viewBox="0.00 0.00 1309.75 204.25" xmlns="http://www.w3.org/2000/svg" xmlns:xlink="http://www.w3.org/1999/xlink">
<g id="graph0" class="graph" transform="scale(1 1) rotate(0) translate(4 200.25)">
<title>src/screens/KnobConfigDialog.cpp</title>
<!-- Node1 -->
<g id="Node000001" class="node">
<title>Node1</title>
<g id="a_Node000001"><a xlink:title=" ">
<polygon fill="#999999" stroke="#666666" points="553.62,-196.25 386.12,-196.25 386.12,-177 553.62,-177 553.62,-196.25"/>
<text text-anchor="middle" x="469.88" y="-182.75" font-family="Helvetica,sans-Serif" font-size="10.00">src/screens/KnobConfigDialog.cpp</text>
</a>
</g>
</g>
<!-- Node2 -->
<g id="Node000002" class="node">
<title>Node2</title>
<g id="a_Node000002"><a xlink:href="_knob_config_dialog_8h.html" target="_top" xlink:title="Modal dialog for editing knob assignments and configuration parameters.">
<polygon fill="white" stroke="#666666" points="346.12,-135.38 205.62,-135.38 205.62,-116.12 346.12,-116.12 346.12,-135.38"/>
<text text-anchor="middle" x="275.88" y="-121.88" font-family="Helvetica,sans-Serif" font-size="10.00">screens/KnobConfigDialog.h</text>
</a>
</g>
</g>
<!-- Node1&#45;&gt;Node2 -->
<g id="edge1_Node000001_Node000002" class="edge">
<title>Node1&#45;&gt;Node2</title>
<g id="a_edge1_Node000001_Node000002"><a xlink:title=" ">
<path fill="none" stroke="#63b8ff" d="M439.99,-176.55C406.95,-166.53 353.54,-150.32 316.67,-139.13"/>
<polygon fill="#63b8ff" stroke="#63b8ff" points="317.83,-135.82 307.24,-136.27 315.8,-142.52 317.83,-135.82"/>
</a>
</g>
</g>
<!-- Node4 -->
<g id="Node000004" class="node">
<title>Node4</title>
<g id="a_Node000004"><a xlink:href="_widget_8h.html" target="_top" xlink:title="Abstract base class for UI widgets in the JMR800&#45;V2 OLED interface.">
<polygon fill="white" stroke="#666666" points="515.75,-74.5 424,-74.5 424,-55.25 515.75,-55.25 515.75,-74.5"/>
<text text-anchor="middle" x="469.88" y="-61" font-family="Helvetica,sans-Serif" font-size="10.00">widgets/Widget.h</text>
</a>
</g>
</g>
<!-- Node1&#45;&gt;Node4 -->
<g id="edge8_Node000001_Node000004" class="edge">
<title>Node1&#45;&gt;Node4</title>
<g id="a_edge8_Node000001_Node000004"><a xlink:title=" ">
<path fill="none" stroke="#63b8ff" d="M439.96,-176.64C422.91,-169.81 402.98,-158.54 392.88,-141 386.11,-129.25 386.11,-122.25 392.88,-110.5 401.01,-96.39 415.5,-86.33 429.73,-79.38"/>
<polygon fill="#63b8ff" stroke="#63b8ff" points="430.84,-82.72 438.57,-75.47 428.01,-76.32 430.84,-82.72"/>
</a>
</g>
</g>
<!-- Node5 -->
<g id="Node000005" class="node">
<title>Node5</title>
<g id="a_Node000005"><a xlink:href="_modal_dialog_8h.html" target="_top" xlink:title="Abstract base class for modal dialogs in the JMR800&#45;V2 UI.">
<polygon fill="white" stroke="#666666" points="115.75,-74.5 0,-74.5 0,-55.25 115.75,-55.25 115.75,-74.5"/>
<text text-anchor="middle" x="57.88" y="-61" font-family="Helvetica,sans-Serif" font-size="10.00">screens/ModalDialog.h</text>
</a>
</g>
</g>
<!-- Node1&#45;&gt;Node5 -->
<g id="edge7_Node000001_Node000005" class="edge">
<title>Node1&#45;&gt;Node5</title>
<g id="a_edge7_Node000001_Node000005"><a xlink:title=" ">
<path fill="none" stroke="#63b8ff" d="M386.05,-182.69C269.2,-177.73 69.11,-165.7 46.88,-141 33.26,-125.88 40.07,-101.67 47.62,-84.84"/>
<polygon fill="#63b8ff" stroke="#63b8ff" points="50.73,-86.44 52.04,-75.92 44.46,-83.32 50.73,-86.44"/>
</a>
</g>
</g>
<!-- Node8 -->
<g id="Node000008" class="node">
<title>Node8</title>
<g id="a_Node000008"><a xlink:href="_rectangle_widget_8h.html" target="_top" xlink:title="Displays a static rectangle, optionally filled, as part of the OLED UI.">
<polygon fill="white" stroke="#666666" points="537.88,-135.38 401.88,-135.38 401.88,-116.12 537.88,-116.12 537.88,-135.38"/>
<text text-anchor="middle" x="469.88" y="-121.88" font-family="Helvetica,sans-Serif" font-size="10.00">widgets/RectangleWidget.h</text>
</a>
</g>
</g>
<!-- Node1&#45;&gt;Node8 -->
<g id="edge9_Node000001_Node000008" class="edge">
<title>Node1&#45;&gt;Node8</title>
<g id="a_edge9_Node000001_Node000008"><a xlink:title=" ">
<path fill="none" stroke="#63b8ff" d="M469.88,-176.68C469.88,-168.9 469.88,-157.33 469.88,-147.28"/>
<polygon fill="#63b8ff" stroke="#63b8ff" points="473.38,-147.29 469.88,-137.29 466.38,-147.29 473.38,-147.29"/>
</a>
</g>
</g>
<!-- Node10 -->
<g id="Node000010" class="node">
<title>Node10</title>
<g id="a_Node000010"><a xlink:href="_text_label_widget_8h.html" target="_top" xlink:title="Displays static or dynamic text labels on the OLED UI.">
<polygon fill="white" stroke="#666666" points="689.75,-135.38 556,-135.38 556,-116.12 689.75,-116.12 689.75,-135.38"/>
<text text-anchor="middle" x="622.88" y="-121.88" font-family="Helvetica,sans-Serif" font-size="10.00">widgets/TextLabelWidget.h</text>
</a>
</g>
</g>
<!-- Node1&#45;&gt;Node10 -->
<g id="edge12_Node000001_Node000010" class="edge">
<title>Node1&#45;&gt;Node10</title>
<g id="a_edge12_Node000001_Node000010"><a xlink:title=" ">
<path fill="none" stroke="#63b8ff" d="M493.45,-176.55C518.94,-166.74 559.82,-151.01 588.81,-139.86"/>
<polygon fill="#63b8ff" stroke="#63b8ff" points="589.79,-143.23 597.86,-136.37 587.27,-136.7 589.79,-143.23"/>
</a>
</g>
</g>
<!-- Node12 -->
<g id="Node000012" class="node">
<title>Node12</title>
<g id="a_Node000012"><a xlink:href="_text_input_widget_8h.html" target="_top" xlink:title="Editable text input field for alphanumeric data entry on the OLED interface.">
<polygon fill="white" stroke="#666666" points="188,-135.38 55.75,-135.38 55.75,-116.12 188,-116.12 188,-135.38"/>
<text text-anchor="middle" x="121.88" y="-121.88" font-family="Helvetica,sans-Serif" font-size="10.00">widgets/TextInputWidget.h</text>
</a>
</g>
</g>
<!-- Node1&#45;&gt;Node12 -->
<g id="edge16_Node000001_Node000012" class="edge">
<title>Node1&#45;&gt;Node12</title>
<g id="a_edge16_Node000001_Node000012"><a xlink:title=" ">
<path fill="none" stroke="#63b8ff" d="M411.49,-176.53C356.16,-167.8 270.77,-154.06 196.88,-141 191.31,-140.02 185.51,-138.96 179.72,-137.9"/>
<polygon fill="#63b8ff" stroke="#63b8ff" points="180.61,-134.5 170.14,-136.11 179.33,-141.38 180.61,-134.5"/>
</a>
</g>
</g>
<!-- Node13 -->
<g id="Node000013" class="node">
<title>Node13</title>
<g id="a_Node000013"><a xlink:href="_hardware_manager_8h.html" target="_top" xlink:title="Manages hardware input/output for analog controls, digital buttons, encoder, and serial communication...">
<polygon fill="white" stroke="#666666" points="1154.38,-135.38 1051.38,-135.38 1051.38,-116.12 1154.38,-116.12 1154.38,-135.38"/>
<text text-anchor="middle" x="1102.88" y="-121.88" font-family="Helvetica,sans-Serif" font-size="10.00">HardwareManager.h</text>
</a>
</g>
</g>
<!-- Node1&#45;&gt;Node13 -->
<g id="edge19_Node000001_Node000013" class="edge">
<title>Node1&#45;&gt;Node13</title>
<g id="a_edge19_Node000001_Node000013"><a xlink:title=" ">
<path fill="none" stroke="#63b8ff" d="M553.7,-183.06C665.57,-178.74 869.62,-167.68 1041.88,-141 1046.85,-140.23 1052.01,-139.27 1057.14,-138.22"/>
<polygon fill="#63b8ff" stroke="#63b8ff" points="1057.71,-141.68 1066.74,-136.13 1056.22,-134.84 1057.71,-141.68"/>
</a>
</g>
</g>
<!-- Node20 -->
<g id="Node000020" class="node">
<title>Node20</title>
<g id="a_Node000020"><a xlink:href="_encoder_attached_numeric_widget_8h.html" target="_top" xlink:title="Widget for displaying and adjusting numeric values using an encoder.">
<polygon fill="white" stroke="#666666" points="872.12,-141 707.62,-141 707.62,-110.5 872.12,-110.5 872.12,-141"/>
<text text-anchor="start" x="715.62" y="-127.5" font-family="Helvetica,sans-Serif" font-size="10.00">widgets/EncoderAttachedNumeric</text>
<text text-anchor="middle" x="789.88" y="-116.25" font-family="Helvetica,sans-Serif" font-size="10.00">Widget.h</text>
</a>
</g>
</g>
<!-- Node1&#45;&gt;Node20 -->
<g id="edge31_Node000001_Node000020" class="edge">
<title>Node1&#45;&gt;Node20</title>
<g id="a_edge31_Node000001_Node000020"><a xlink:title=" ">
<path fill="none" stroke="#63b8ff" d="M519.17,-176.55C566.94,-167.77 640.52,-154.23 698.91,-143.49"/>
<polygon fill="#63b8ff" stroke="#63b8ff" points="699.32,-146.97 708.52,-141.72 698.05,-140.09 699.32,-146.97"/>
</a>
</g>
</g>
<!-- Node21 -->
<g id="Node000021" class="node">
<title>Node21</title>
<g id="a_Node000021"><a xlink:href="_push_button_widget_8h.html" target="_top" xlink:title="Represents an interactive on&#45;screen push button for the JMR800&#45;V2 UI.">
<polygon fill="white" stroke="#666666" points="1033.25,-135.38 890.5,-135.38 890.5,-116.12 1033.25,-116.12 1033.25,-135.38"/>
<text text-anchor="middle" x="961.88" y="-121.88" font-family="Helvetica,sans-Serif" font-size="10.00">widgets/PushButtonWidget.h</text>
</a>
</g>
</g>
<!-- Node1&#45;&gt;Node21 -->
<g id="edge35_Node000001_Node000021" class="edge">
<title>Node1&#45;&gt;Node21</title>
<g id="a_edge35_Node000001_Node000021"><a xlink:title=" ">
<path fill="none" stroke="#63b8ff" d="M553.91,-178.14C637.12,-170.34 768.07,-157.03 880.88,-141 887.66,-140.04 894.74,-138.93 901.78,-137.78"/>
<polygon fill="#63b8ff" stroke="#63b8ff" points="902.36,-141.23 911.64,-136.11 901.19,-134.33 902.36,-141.23"/>
</a>
</g>
</g>
<!-- Node3 -->
<g id="Node000003" class="node">
<title>Node3</title>
<g id="a_Node000003"><a xlink:title=" ">
<polygon fill="#e0e0e0" stroke="#999999" points="649.38,-74.5 606.38,-74.5 606.38,-55.25 649.38,-55.25 649.38,-74.5"/>
<text text-anchor="middle" x="627.88" y="-61" font-family="Helvetica,sans-Serif" font-size="10.00">vector</text>
</a>
</g>
</g>
<!-- Node2&#45;&gt;Node3 -->
<g id="edge2_Node000002_Node000003" class="edge">
<title>Node2&#45;&gt;Node3</title>
<g id="a_edge2_Node000002_Node000003"><a xlink:title=" ">
<path fill="none" stroke="#63b8ff" d="M330.1,-115.68C404.05,-103.31 534.24,-81.54 594.97,-71.38"/>
<polygon fill="#63b8ff" stroke="#63b8ff" points="595.37,-74.86 604.65,-69.76 594.21,-67.96 595.37,-74.86"/>
</a>
</g>
</g>
<!-- Node2&#45;&gt;Node4 -->
<g id="edge3_Node000002_Node000004" class="edge">
<title>Node2&#45;&gt;Node4</title>
<g id="a_edge3_Node000002_Node000004"><a xlink:title=" ">
<path fill="none" stroke="#63b8ff" d="M305.76,-115.68C338.8,-105.65 392.21,-89.44 429.08,-78.25"/>
<polygon fill="#63b8ff" stroke="#63b8ff" points="429.95,-81.65 438.51,-75.4 427.92,-74.95 429.95,-81.65"/>
</a>
</g>
</g>
<!-- Node2&#45;&gt;Node5 -->
<g id="edge4_Node000002_Node000005" class="edge">
<title>Node2&#45;&gt;Node5</title>
<g id="a_edge4_Node000002_Node000005"><a xlink:title=" ">
<path fill="none" stroke="#63b8ff" d="M242.29,-115.68C204.76,-105.55 143.85,-89.09 102.38,-77.89"/>
<polygon fill="#63b8ff" stroke="#63b8ff" points="103.53,-74.58 92.96,-75.35 101.7,-81.34 103.53,-74.58"/>
</a>
</g>
</g>
<!-- Node7 -->
<g id="Node000007" class="node">
<title>Node7</title>
<g id="a_Node000007"><a xlink:href="_i_widget_nav_handler_8h.html" target="_top" xlink:title="Interface for handling horizontal navigation events between UI widgets.">
<polygon fill="white" stroke="#666666" points="301.38,-74.5 192.38,-74.5 192.38,-55.25 301.38,-55.25 301.38,-74.5"/>
<text text-anchor="middle" x="246.88" y="-61" font-family="Helvetica,sans-Serif" font-size="10.00">IWidgetNavHandler.h</text>
</a>
</g>
</g>
<!-- Node2&#45;&gt;Node7 -->
<g id="edge6_Node000002_Node000007" class="edge">
<title>Node2&#45;&gt;Node7</title>
<g id="a_edge6_Node000002_Node000007"><a xlink:title=" ">
<path fill="none" stroke="#63b8ff" d="M271.47,-115.81C267.47,-107.68 261.43,-95.42 256.33,-85.08"/>
<polygon fill="#63b8ff" stroke="#63b8ff" points="259.55,-83.68 251.99,-76.26 253.27,-86.78 259.55,-83.68"/>
</a>
</g>
</g>
<!-- Node6 -->
<g id="Node000006" class="node">
<title>Node6</title>
<g id="a_Node000006"><a xlink:href="_screen_8h.html" target="_top" xlink:title="Abstract interface for all UI screens in the JMR800&#45;V2 system.">
<polygon fill="white" stroke="#666666" points="104.12,-19.25 11.62,-19.25 11.62,0 104.12,0 104.12,-19.25"/>
<text text-anchor="middle" x="57.88" y="-5.75" font-family="Helvetica,sans-Serif" font-size="10.00">screens/Screen.h</text>
</a>
</g>
</g>
<!-- Node5&#45;&gt;Node6 -->
<g id="edge5_Node000005_Node000006" class="edge">
<title>Node5&#45;&gt;Node6</title>
<g id="a_edge5_Node000005_Node000006"><a xlink:title=" ">
<path fill="none" stroke="#63b8ff" d="M57.88,-55.08C57.88,-48.57 57.88,-39.42 57.88,-31.12"/>
<polygon fill="#63b8ff" stroke="#63b8ff" points="61.38,-31.12 57.88,-21.12 54.38,-31.12 61.38,-31.12"/>
</a>
</g>
</g>
<!-- Node8&#45;&gt;Node4 -->
<g id="edge10_Node000008_Node000004" class="edge">
<title>Node8&#45;&gt;Node4</title>
<g id="a_edge10_Node000008_Node000004"><a xlink:title=" ">
<path fill="none" stroke="#63b8ff" d="M469.88,-115.81C469.88,-108.03 469.88,-96.45 469.88,-86.41"/>
<polygon fill="#63b8ff" stroke="#63b8ff" points="473.38,-86.41 469.88,-76.41 466.38,-86.41 473.38,-86.41"/>
</a>
</g>
</g>
<!-- Node9 -->
<g id="Node000009" class="node">
<title>Node9</title>
<g id="a_Node000009"><a xlink:title=" ">
<polygon fill="#e0e0e0" stroke="#999999" points="839.88,-74.5 739.88,-74.5 739.88,-55.25 839.88,-55.25 839.88,-74.5"/>
<text text-anchor="middle" x="789.88" y="-61" font-family="Helvetica,sans-Serif" font-size="10.00">Adafruit_SH110X.h</text>
</a>
</g>
</g>
<!-- Node8&#45;&gt;Node9 -->
<g id="edge11_Node000008_Node000009" class="edge">
<title>Node8&#45;&gt;Node9</title>
<g id="a_edge11_Node000008_Node000009"><a xlink:title=" ">
<path fill="none" stroke="#63b8ff" d="M518.75,-115.69C528.09,-113.97 537.78,-112.18 546.88,-110.5 608.9,-99.07 679.85,-86.04 729,-77.03"/>
<polygon fill="#63b8ff" stroke="#63b8ff" points="729.38,-80.52 738.59,-75.27 728.12,-73.63 729.38,-80.52"/>
</a>
</g>
</g>
<!-- Node10&#45;&gt;Node4 -->
<g id="edge13_Node000010_Node000004" class="edge">
<title>Node10&#45;&gt;Node4</title>
<g id="a_edge13_Node000010_Node000004"><a xlink:title=" ">
<path fill="none" stroke="#63b8ff" d="M599.3,-115.68C573.81,-105.87 532.93,-90.14 503.94,-78.98"/>
<polygon fill="#63b8ff" stroke="#63b8ff" points="505.48,-75.82 494.89,-75.5 502.96,-82.36 505.48,-75.82"/>
</a>
</g>
</g>
<!-- Node10&#45;&gt;Node9 -->
<g id="edge15_Node000010_Node000009" class="edge">
<title>Node10&#45;&gt;Node9</title>
<g id="a_edge15_Node000010_Node000009"><a xlink:title=" ">
<path fill="none" stroke="#63b8ff" d="M648.6,-115.68C676.68,-105.78 721.84,-89.86 753.52,-78.69"/>
<polygon fill="#63b8ff" stroke="#63b8ff" points="754.42,-82.08 762.69,-75.46 752.1,-75.48 754.42,-82.08"/>
</a>
</g>
</g>
<!-- Node11 -->
<g id="Node000011" class="node">
<title>Node11</title>
<g id="a_Node000011"><a xlink:title=" ">
<polygon fill="#e0e0e0" stroke="#999999" points="951.62,-74.5 868.12,-74.5 868.12,-55.25 951.62,-55.25 951.62,-74.5"/>
<text text-anchor="middle" x="909.88" y="-61" font-family="Helvetica,sans-Serif" font-size="10.00">Adafruit_GFX.h</text>
</a>
</g>
</g>
<!-- Node10&#45;&gt;Node11 -->
<g id="edge14_Node000010_Node000011" class="edge">
<title>Node10&#45;&gt;Node11</title>
<g id="a_edge14_Node000010_Node000011"><a xlink:title=" ">
<path fill="none" stroke="#63b8ff" d="M667.09,-115.68C718.17,-105.2 802.19,-87.97 856.77,-76.77"/>
<polygon fill="#63b8ff" stroke="#63b8ff" points="857.37,-80.22 866.46,-74.78 855.96,-73.36 857.37,-80.22"/>
</a>
</g>
</g>
<!-- Node12&#45;&gt;Node4 -->
<g id="edge17_Node000012_Node000004" class="edge">
<title>Node12&#45;&gt;Node4</title>
<g id="a_edge17_Node000012_Node000004"><a xlink:title=" ">
<path fill="none" stroke="#63b8ff" d="M168.65,-115.67C177.99,-113.91 187.74,-112.11 196.88,-110.5 271.27,-97.35 357.32,-83.51 412.61,-74.8"/>
<polygon fill="#63b8ff" stroke="#63b8ff" points="413.1,-78.26 422.43,-73.25 412.01,-71.35 413.1,-78.26"/>
</a>
</g>
</g>
<!-- Node12&#45;&gt;Node7 -->
<g id="edge18_Node000012_Node000007" class="edge">
<title>Node12&#45;&gt;Node7</title>
<g id="a_edge18_Node000012_Node000007"><a xlink:title=" ">
<path fill="none" stroke="#63b8ff" d="M141.13,-115.68C161.56,-106.06 194.08,-90.74 217.67,-79.63"/>
<polygon fill="#63b8ff" stroke="#63b8ff" points="218.88,-82.93 226.43,-75.5 215.89,-76.6 218.88,-82.93"/>
</a>
</g>
</g>
<!-- Node13&#45;&gt;Node3 -->
<g id="edge26_Node000013_Node000003" class="edge">
<title>Node13&#45;&gt;Node3</title>
<g id="a_edge26_Node000013_Node000003"><a xlink:title=" ">
<path fill="none" stroke="#63b8ff" d="M1067.22,-115.65C1058.94,-113.75 1050.13,-111.9 1041.88,-110.5 968.52,-98.03 745.46,-76.76 660.87,-68.91"/>
<polygon fill="#63b8ff" stroke="#63b8ff" points="661.44,-65.44 651.16,-68.01 660.8,-72.41 661.44,-65.44"/>
</a>
</g>
</g>
<!-- Node13&#45;&gt;Node9 -->
<g id="edge22_Node000013_Node000009" class="edge">
<title>Node13&#45;&gt;Node9</title>
<g id="a_edge22_Node000013_Node000009"><a xlink:title=" ">
<path fill="none" stroke="#63b8ff" d="M1065.52,-115.69C1057.73,-113.89 1049.55,-112.07 1041.88,-110.5 977.13,-97.22 902.55,-84.3 851.42,-75.81"/>
<polygon fill="#63b8ff" stroke="#63b8ff" points="852.16,-72.39 841.72,-74.21 851.02,-79.3 852.16,-72.39"/>
</a>
</g>
</g>
<!-- Node13&#45;&gt;Node11 -->
<g id="edge21_Node000013_Node000011" class="edge">
<title>Node13&#45;&gt;Node11</title>
<g id="a_edge21_Node000013_Node000011"><a xlink:title=" ">
<path fill="none" stroke="#63b8ff" d="M1073.14,-115.68C1040.27,-105.65 987.14,-89.44 950.46,-78.25"/>
<polygon fill="#63b8ff" stroke="#63b8ff" points="951.68,-74.97 941.09,-75.4 949.63,-81.66 951.68,-74.97"/>
</a>
</g>
</g>
<!-- Node14 -->
<g id="Node000014" class="node">
<title>Node14</title>
<g id="a_Node000014"><a xlink:title=" ">
<polygon fill="#e0e0e0" stroke="#999999" points="1106.5,-19.25 1049.25,-19.25 1049.25,0 1106.5,0 1106.5,-19.25"/>
<text text-anchor="middle" x="1077.88" y="-5.75" font-family="Helvetica,sans-Serif" font-size="10.00">Arduino.h</text>
</a>
</g>
</g>
<!-- Node13&#45;&gt;Node14 -->
<g id="edge20_Node000013_Node000014" class="edge">
<title>Node13&#45;&gt;Node14</title>
<g id="a_edge20_Node000013_Node000014"><a xlink:title=" ">
<path fill="none" stroke="#63b8ff" d="M1063.81,-115.65C1042.11,-108.38 1016.93,-95.77 1003.88,-74.5 990.9,-53.37 1016.85,-35.55 1041.51,-24.14"/>
<polygon fill="#63b8ff" stroke="#63b8ff" points="1042.71,-27.44 1050.5,-20.26 1039.93,-21.02 1042.71,-27.44"/>
</a>
</g>
</g>
<!-- Node15 -->
<g id="Node000015" class="node">
<title>Node15</title>
<g id="a_Node000015"><a xlink:title=" ">
<polygon fill="#e0e0e0" stroke="#999999" points="1057.12,-74.5 1012.62,-74.5 1012.62,-55.25 1057.12,-55.25 1057.12,-74.5"/>
<text text-anchor="middle" x="1034.88" y="-61" font-family="Helvetica,sans-Serif" font-size="10.00">Wire.h</text>
</a>
</g>
</g>
<!-- Node13&#45;&gt;Node15 -->
<g id="edge23_Node000013_Node000015" class="edge">
<title>Node13&#45;&gt;Node15</title>
<g id="a_edge23_Node000013_Node000015"><a xlink:title=" ">
<path fill="none" stroke="#63b8ff" d="M1092.55,-115.81C1082.26,-106.9 1066.24,-93.03 1053.69,-82.17"/>
<polygon fill="#63b8ff" stroke="#63b8ff" points="1056.3,-79.79 1046.44,-75.89 1051.71,-85.08 1056.3,-79.79"/>
</a>
</g>
</g>
<!-- Node16 -->
<g id="Node000016" class="node">
<title>Node16</title>
<g id="a_Node000016"><a xlink:title=" ">
<polygon fill="#e0e0e0" stroke="#999999" points="1120.88,-74.5 1074.88,-74.5 1074.88,-55.25 1120.88,-55.25 1120.88,-74.5"/>
<text text-anchor="middle" x="1097.88" y="-61" font-family="Helvetica,sans-Serif" font-size="10.00">ADC.h</text>
</a>
</g>
</g>
<!-- Node13&#45;&gt;Node16 -->
<g id="edge24_Node000013_Node000016" class="edge">
<title>Node13&#45;&gt;Node16</title>
<g id="a_edge24_Node000013_Node000016"><a xlink:title=" ">
<path fill="none" stroke="#63b8ff" d="M1102.12,-115.81C1101.45,-107.94 1100.45,-96.2 1099.59,-86.07"/>
<polygon fill="#63b8ff" stroke="#63b8ff" points="1103.1,-86.08 1098.77,-76.41 1096.13,-86.67 1103.1,-86.08"/>
</a>
</g>
</g>
<!-- Node17 -->
<g id="Node000017" class="node">
<title>Node17</title>
<g id="a_Node000017"><a xlink:title=" ">
<polygon fill="#e0e0e0" stroke="#999999" points="1198.62,-74.5 1139.12,-74.5 1139.12,-55.25 1198.62,-55.25 1198.62,-74.5"/>
<text text-anchor="middle" x="1168.88" y="-61" font-family="Helvetica,sans-Serif" font-size="10.00">Encoder.h</text>
</a>
</g>
</g>
<!-- Node13&#45;&gt;Node17 -->
<g id="edge25_Node000013_Node000017" class="edge">
<title>Node13&#45;&gt;Node17</title>
<g id="a_edge25_Node000013_Node000017"><a xlink:title=" ">
<path fill="none" stroke="#63b8ff" d="M1112.9,-115.81C1122.78,-106.99 1138.13,-93.3 1150.26,-82.48"/>
<polygon fill="#63b8ff" stroke="#63b8ff" points="1152.49,-85.18 1157.63,-75.91 1147.83,-79.95 1152.49,-85.18"/>
</a>
</g>
</g>
<!-- Node18 -->
<g id="Node000018" class="node">
<title>Node18</title>
<g id="a_Node000018"><a xlink:href="defines_8h.html" target="_top" xlink:title="Hardware pin definitions and global constants for JMR800&#45;V2.">
<polygon fill="white" stroke="#666666" points="1301.75,-19.25 1246,-19.25 1246,0 1301.75,0 1301.75,-19.25"/>
<text text-anchor="middle" x="1273.88" y="-5.75" font-family="Helvetica,sans-Serif" font-size="10.00">defines.h</text>
</a>
</g>
</g>
<!-- Node13&#45;&gt;Node18 -->
<g id="edge27_Node000013_Node000018" class="edge">
<title>Node13&#45;&gt;Node18</title>
<g id="a_edge27_Node000013_Node000018"><a xlink:title=" ">
<path fill="none" stroke="#63b8ff" d="M1154.83,-117.39C1202.58,-109.43 1268.23,-95.07 1283.88,-74.5 1293.53,-61.79 1289.38,-43.5 1283.77,-29.74"/>
<polygon fill="#63b8ff" stroke="#63b8ff" points="1287.03,-28.44 1279.64,-20.85 1280.68,-31.39 1287.03,-28.44"/>
</a>
</g>
</g>
<!-- Node19 -->
<g id="Node000019" class="node">
<title>Node19</title>
<g id="a_Node000019"><a xlink:href="_logging_8h.html" target="_top" xlink:title="Lightweight logging utility for serial output in the JMR800&#45;V2 project.">
<polygon fill="white" stroke="#666666" points="1274.88,-74.5 1216.88,-74.5 1216.88,-55.25 1274.88,-55.25 1274.88,-74.5"/>
<text text-anchor="middle" x="1245.88" y="-61" font-family="Helvetica,sans-Serif" font-size="10.00">Logging.h</text>
</a>
</g>
</g>
<!-- Node13&#45;&gt;Node19 -->
<g id="edge28_Node000013_Node000019" class="edge">
<title>Node13&#45;&gt;Node19</title>
<g id="a_edge28_Node000013_Node000019"><a xlink:title=" ">
<path fill="none" stroke="#63b8ff" d="M1124.91,-115.68C1148.59,-105.93 1186.49,-90.33 1213.55,-79.18"/>
<polygon fill="#63b8ff" stroke="#63b8ff" points="1214.74,-82.48 1222.65,-75.44 1212.08,-76.01 1214.74,-82.48"/>
</a>
</g>
</g>
<!-- Node19&#45;&gt;Node14 -->
<g id="edge29_Node000019_Node000014" class="edge">
<title>Node19&#45;&gt;Node14</title>
<g id="a_edge29_Node000019_Node000014"><a xlink:title=" ">
<path fill="none" stroke="#63b8ff" d="M1217.38,-54.84C1189.86,-46.12 1147.97,-32.84 1117.27,-23.11"/>
<polygon fill="#63b8ff" stroke="#63b8ff" points="1118.55,-19.84 1107.96,-20.16 1116.43,-26.52 1118.55,-19.84"/>
</a>
</g>
</g>
<!-- Node19&#45;&gt;Node18 -->
<g id="edge30_Node000019_Node000018" class="edge">
<title>Node19&#45;&gt;Node18</title>
<g id="a_edge30_Node000019_Node000018"><a xlink:title=" ">
<path fill="none" stroke="#63b8ff" d="M1250.5,-55.08C1254.12,-48.19 1259.3,-38.34 1263.87,-29.66"/>
<polygon fill="#63b8ff" stroke="#63b8ff" points="1266.89,-31.43 1268.45,-20.95 1260.69,-28.17 1266.89,-31.43"/>
</a>
</g>
</g>
<!-- Node20&#45;&gt;Node4 -->
<g id="edge32_Node000020_Node000004" class="edge">
<title>Node20&#45;&gt;Node4</title>
<g id="a_edge32_Node000020_Node000004"><a xlink:title=" ">
<path fill="none" stroke="#63b8ff" d="M709.95,-110.05C653.16,-99.6 578.23,-85.81 527.29,-76.44"/>
<polygon fill="#63b8ff" stroke="#63b8ff" points="528.11,-73.03 517.65,-74.66 526.85,-79.92 528.11,-73.03"/>
</a>
</g>
</g>
<!-- Node20&#45;&gt;Node9 -->
<g id="edge34_Node000020_Node000009" class="edge">
<title>Node20&#45;&gt;Node9</title>
<g id="a_edge34_Node000020_Node000009"><a xlink:title=" ">
<path fill="none" stroke="#63b8ff" d="M789.88,-110.2C789.88,-102.96 789.88,-94.09 789.88,-86.19"/>
<polygon fill="#63b8ff" stroke="#63b8ff" points="793.38,-86.46 789.88,-76.46 786.38,-86.46 793.38,-86.46"/>
</a>
</g>
</g>
<!-- Node20&#45;&gt;Node11 -->
<g id="edge33_Node000020_Node000011" class="edge">
<title>Node20&#45;&gt;Node11</title>
<g id="a_edge33_Node000020_Node000011"><a xlink:title=" ">
<path fill="none" stroke="#63b8ff" d="M819.85,-110.05C838.65,-100.82 862.75,-89 881.29,-79.9"/>
<polygon fill="#63b8ff" stroke="#63b8ff" points="882.68,-83.12 890.11,-75.57 879.59,-76.83 882.68,-83.12"/>
</a>
</g>
</g>
<!-- Node21&#45;&gt;Node4 -->
<g id="edge36_Node000021_Node000004" class="edge">
<title>Node21&#45;&gt;Node4</title>
<g id="a_edge36_Node000021_Node000004"><a xlink:title=" ">
<path fill="none" stroke="#63b8ff" d="M913.13,-115.64C902.52,-113.8 891.34,-111.99 880.88,-110.5 755.24,-92.65 607.1,-78.17 527.47,-70.92"/>
<polygon fill="#63b8ff" stroke="#63b8ff" points="528.01,-67.45 517.73,-70.04 527.38,-74.43 528.01,-67.45"/>
</a>
</g>
</g>
<!-- Node21&#45;&gt;Node9 -->
<g id="edge38_Node000021_Node000009" class="edge">
<title>Node21&#45;&gt;Node9</title>
<g id="a_edge38_Node000021_Node000009"><a xlink:title=" ">
<path fill="none" stroke="#63b8ff" d="M935.38,-115.68C906.34,-105.74 859.54,-89.72 826.89,-78.54"/>
<polygon fill="#63b8ff" stroke="#63b8ff" points="828.43,-75.37 817.84,-75.45 826.16,-82 828.43,-75.37"/>
</a>
</g>
</g>
<!-- Node21&#45;&gt;Node11 -->
<g id="edge37_Node000021_Node000011" class="edge">
<title>Node21&#45;&gt;Node11</title>
<g id="a_edge37_Node000021_Node000011"><a xlink:title=" ">
<path fill="none" stroke="#63b8ff" d="M953.98,-115.81C946.42,-107.25 934.81,-94.1 925.39,-83.45"/>
<polygon fill="#63b8ff" stroke="#63b8ff" points="928.09,-81.21 918.85,-76.04 922.85,-85.85 928.09,-81.21"/>
</a>
</g>
</g>
</g>
</svg>
