<?xml version="1.0" encoding="UTF-8" standalone="no"?>
<!DOCTYPE svg PUBLIC "-//W3C//DTD SVG 1.1//EN"
 "http://www.w3.org/Graphics/SVG/1.1/DTD/svg11.dtd">
<!-- Generated by graphviz version 12.2.1 (20241206.2353)
 -->
<!-- Title: include/screens/KnobConfigDialog.h Pages: 1 -->
<svg width="464pt" height="204pt"
 viewBox="0.00 0.00 463.88 204.25" xmlns="http://www.w3.org/2000/svg" xmlns:xlink="http://www.w3.org/1999/xlink">
<g id="graph0" class="graph" transform="scale(1 1) rotate(0) translate(4 200.25)">
<title>include/screens/KnobConfigDialog.h</title>
<!-- Node1 -->
<g id="Node000001" class="node">
<title>Node1</title>
<g id="a_Node000001"><a xlink:title="Modal dialog for editing knob assignments and configuration parameters.">
<polygon fill="#999999" stroke="#666666" points="329.25,-196.25 191,-196.25 191,-165.75 329.25,-165.75 329.25,-196.25"/>
<text text-anchor="start" x="199" y="-182.75" font-family="Helvetica,sans-Serif" font-size="10.00">include/screens/KnobConfig</text>
<text text-anchor="middle" x="260.12" y="-171.5" font-family="Helvetica,sans-Serif" font-size="10.00">Dialog.h</text>
</a>
</g>
</g>
<!-- Node2 -->
<g id="Node000002" class="node">
<title>Node2</title>
<g id="a_Node000002"><a xlink:href="_config_screen_8h.html" target="_top" xlink:title="Screen for accessing and modifying configuration settings.">
<polygon fill="white" stroke="#666666" points="232.5,-129.75 77.75,-129.75 77.75,-110.5 232.5,-110.5 232.5,-129.75"/>
<text text-anchor="middle" x="155.12" y="-116.25" font-family="Helvetica,sans-Serif" font-size="10.00">include/screens/ConfigScreen.h</text>
</a>
</g>
</g>
<!-- Node1&#45;&gt;Node2 -->
<g id="edge1_Node000001_Node000002" class="edge">
<title>Node1&#45;&gt;Node2</title>
<g id="a_edge1_Node000001_Node000002"><a xlink:title=" ">
<path fill="none" stroke="#63b8ff" d="M224,-159.74C206.04,-149.67 185.23,-138.01 171.23,-130.15"/>
<polygon fill="#63b8ff" stroke="#63b8ff" points="222.15,-162.72 232.58,-164.55 225.57,-156.61 222.15,-162.72"/>
</a>
</g>
</g>
<!-- Node6 -->
<g id="Node000006" class="node">
<title>Node6</title>
<g id="a_Node000006"><a xlink:href="_config_screen_8cpp.html" target="_top" xlink:title="Implements the configuration screen for knob mapping and diagnostics.">
<polygon fill="white" stroke="#666666" points="334.12,-74.5 186.12,-74.5 186.12,-55.25 334.12,-55.25 334.12,-74.5"/>
<text text-anchor="middle" x="260.12" y="-61" font-family="Helvetica,sans-Serif" font-size="10.00">src/screens/ConfigScreen.cpp</text>
</a>
</g>
</g>
<!-- Node1&#45;&gt;Node6 -->
<g id="edge6_Node000001_Node000006" class="edge">
<title>Node1&#45;&gt;Node6</title>
<g id="a_edge6_Node000001_Node000006"><a xlink:title=" ">
<path fill="none" stroke="#63b8ff" d="M260.12,-154.24C260.12,-129 260.12,-91.91 260.12,-74.95"/>
<polygon fill="#63b8ff" stroke="#63b8ff" points="256.63,-154.03 260.13,-164.03 263.63,-154.03 256.63,-154.03"/>
</a>
</g>
</g>
<!-- Node7 -->
<g id="Node000007" class="node">
<title>Node7</title>
<g id="a_Node000007"><a xlink:href="_knob_config_dialog_8cpp.html" target="_top" xlink:title=" ">
<polygon fill="white" stroke="#666666" points="455.88,-129.75 288.38,-129.75 288.38,-110.5 455.88,-110.5 455.88,-129.75"/>
<text text-anchor="middle" x="372.12" y="-116.25" font-family="Helvetica,sans-Serif" font-size="10.00">src/screens/KnobConfigDialog.cpp</text>
</a>
</g>
</g>
<!-- Node1&#45;&gt;Node7 -->
<g id="edge7_Node000001_Node000007" class="edge">
<title>Node1&#45;&gt;Node7</title>
<g id="a_edge7_Node000001_Node000007"><a xlink:title=" ">
<path fill="none" stroke="#63b8ff" d="M298.12,-160.02C317.41,-149.89 339.87,-138.08 354.95,-130.15"/>
<polygon fill="#63b8ff" stroke="#63b8ff" points="296.66,-156.84 289.44,-164.59 299.92,-163.04 296.66,-156.84"/>
</a>
</g>
</g>
<!-- Node3 -->
<g id="Node000003" class="node">
<title>Node3</title>
<g id="a_Node000003"><a xlink:href="_config_mode_8h.html" target="_top" xlink:title="Application mode for accessing and modifying system configuration.">
<polygon fill="white" stroke="#666666" points="168.5,-74.5 25.75,-74.5 25.75,-55.25 168.5,-55.25 168.5,-74.5"/>
<text text-anchor="middle" x="97.12" y="-61" font-family="Helvetica,sans-Serif" font-size="10.00">include/modes/ConfigMode.h</text>
</a>
</g>
</g>
<!-- Node2&#45;&gt;Node3 -->
<g id="edge2_Node000002_Node000003" class="edge">
<title>Node2&#45;&gt;Node3</title>
<g id="a_edge2_Node000002_Node000003"><a xlink:title=" ">
<path fill="none" stroke="#63b8ff" d="M136.86,-102.36C126.91,-93.22 114.99,-82.28 106.82,-74.77"/>
<polygon fill="#63b8ff" stroke="#63b8ff" points="134.44,-104.88 144.17,-109.07 139.17,-99.73 134.44,-104.88"/>
</a>
</g>
</g>
<!-- Node2&#45;&gt;Node6 -->
<g id="edge5_Node000002_Node000006" class="edge">
<title>Node2&#45;&gt;Node6</title>
<g id="a_edge5_Node000002_Node000006"><a xlink:title=" ">
<path fill="none" stroke="#63b8ff" d="M182.99,-104.99C201.77,-95.47 225.98,-83.19 242.23,-74.95"/>
<polygon fill="#63b8ff" stroke="#63b8ff" points="181.62,-101.76 174.29,-109.41 184.79,-108.01 181.62,-101.76"/>
</a>
</g>
</g>
<!-- Node4 -->
<g id="Node000004" class="node">
<title>Node4</title>
<g id="a_Node000004"><a xlink:href="main_8cpp.html" target="_top" xlink:title="Entry point for the JMR800&#45;V2 firmware.">
<polygon fill="white" stroke="#666666" points="72.25,-19.25 0,-19.25 0,0 72.25,0 72.25,-19.25"/>
<text text-anchor="middle" x="36.12" y="-5.75" font-family="Helvetica,sans-Serif" font-size="10.00">src/main.cpp</text>
</a>
</g>
</g>
<!-- Node3&#45;&gt;Node4 -->
<g id="edge3_Node000003_Node000004" class="edge">
<title>Node3&#45;&gt;Node4</title>
<g id="a_edge3_Node000003_Node000004"><a xlink:title=" ">
<path fill="none" stroke="#63b8ff" d="M78.24,-47.39C67.7,-38.19 55,-27.1 46.32,-19.52"/>
<polygon fill="#63b8ff" stroke="#63b8ff" points="75.8,-49.91 85.64,-53.85 80.41,-44.63 75.8,-49.91"/>
</a>
</g>
</g>
<!-- Node5 -->
<g id="Node000005" class="node">
<title>Node5</title>
<g id="a_Node000005"><a xlink:href="_config_mode_8cpp.html" target="_top" xlink:title="Implements the System Configuration Mode for knob setup.">
<polygon fill="white" stroke="#666666" points="226.12,-19.25 90.12,-19.25 90.12,0 226.12,0 226.12,-19.25"/>
<text text-anchor="middle" x="158.12" y="-5.75" font-family="Helvetica,sans-Serif" font-size="10.00">src/modes/ConfigMode.cpp</text>
</a>
</g>
</g>
<!-- Node3&#45;&gt;Node5 -->
<g id="edge4_Node000003_Node000005" class="edge">
<title>Node3&#45;&gt;Node5</title>
<g id="a_edge4_Node000003_Node000005"><a xlink:title=" ">
<path fill="none" stroke="#63b8ff" d="M116.01,-47.39C126.55,-38.19 139.25,-27.1 147.93,-19.52"/>
<polygon fill="#63b8ff" stroke="#63b8ff" points="113.84,-44.63 108.61,-53.85 118.45,-49.91 113.84,-44.63"/>
</a>
</g>
</g>
</g>
</svg>
