<?xml version="1.0" encoding="UTF-8" standalone="no"?>
<!DOCTYPE svg PUBLIC "-//W3C//DTD SVG 1.1//EN"
 "http://www.w3.org/Graphics/SVG/1.1/DTD/svg11.dtd">
<!-- Generated by graphviz version 12.2.1 (20241206.2353)
 -->
<!-- Title: include/screens/KnobConfigDialog.h Pages: 1 -->
<svg width="421pt" height="149pt"
 viewBox="0.00 0.00 421.00 149.00" xmlns="http://www.w3.org/2000/svg" xmlns:xlink="http://www.w3.org/1999/xlink">
<g id="graph0" class="graph" transform="scale(1 1) rotate(0) translate(4 145)">
<title>include/screens/KnobConfigDialog.h</title>
<!-- Node1 -->
<g id="Node000001" class="node">
<title>Node1</title>
<g id="a_Node000001"><a xlink:title="Modal dialog for editing knob assignments and configuration parameters.">
<polygon fill="#999999" stroke="#666666" points="236.62,-141 98.38,-141 98.38,-110.5 236.62,-110.5 236.62,-141"/>
<text text-anchor="start" x="106.38" y="-127.5" font-family="Helvetica,sans-Serif" font-size="10.00">include/screens/KnobConfig</text>
<text text-anchor="middle" x="167.5" y="-116.25" font-family="Helvetica,sans-Serif" font-size="10.00">Dialog.h</text>
</a>
</g>
</g>
<!-- Node2 -->
<g id="Node000002" class="node">
<title>Node2</title>
<g id="a_Node000002"><a xlink:title=" ">
<polygon fill="#e0e0e0" stroke="#999999" points="43,-74.5 0,-74.5 0,-55.25 43,-55.25 43,-74.5"/>
<text text-anchor="middle" x="21.5" y="-61" font-family="Helvetica,sans-Serif" font-size="10.00">vector</text>
</a>
</g>
</g>
<!-- Node1&#45;&gt;Node2 -->
<g id="edge1_Node000001_Node000002" class="edge">
<title>Node1&#45;&gt;Node2</title>
<g id="a_edge1_Node000001_Node000002"><a xlink:title=" ">
<path fill="none" stroke="#63b8ff" d="M131.03,-110.05C107.37,-100.5 76.81,-88.18 53.98,-78.97"/>
<polygon fill="#63b8ff" stroke="#63b8ff" points="55.45,-75.79 44.87,-75.3 52.83,-82.28 55.45,-75.79"/>
</a>
</g>
</g>
<!-- Node3 -->
<g id="Node000003" class="node">
<title>Node3</title>
<g id="a_Node000003"><a xlink:href="_widget_8h.html" target="_top" xlink:title="Abstract base class for UI widgets in the JMR800&#45;V2 OLED interface.">
<polygon fill="white" stroke="#666666" points="152.38,-74.5 60.62,-74.5 60.62,-55.25 152.38,-55.25 152.38,-74.5"/>
<text text-anchor="middle" x="106.5" y="-61" font-family="Helvetica,sans-Serif" font-size="10.00">widgets/Widget.h</text>
</a>
</g>
</g>
<!-- Node1&#45;&gt;Node3 -->
<g id="edge2_Node000001_Node000003" class="edge">
<title>Node1&#45;&gt;Node3</title>
<g id="a_edge2_Node000001_Node000003"><a xlink:title=" ">
<path fill="none" stroke="#63b8ff" d="M152.42,-110.2C143.85,-101.92 133.07,-91.52 124.11,-82.87"/>
<polygon fill="#63b8ff" stroke="#63b8ff" points="126.62,-80.43 116.99,-76 121.76,-85.47 126.62,-80.43"/>
</a>
</g>
</g>
<!-- Node4 -->
<g id="Node000004" class="node">
<title>Node4</title>
<g id="a_Node000004"><a xlink:href="_modal_dialog_8h.html" target="_top" xlink:title="Abstract base class for modal dialogs in the JMR800&#45;V2 UI.">
<polygon fill="white" stroke="#666666" points="286.38,-74.5 170.62,-74.5 170.62,-55.25 286.38,-55.25 286.38,-74.5"/>
<text text-anchor="middle" x="228.5" y="-61" font-family="Helvetica,sans-Serif" font-size="10.00">screens/ModalDialog.h</text>
</a>
</g>
</g>
<!-- Node1&#45;&gt;Node4 -->
<g id="edge3_Node000001_Node000004" class="edge">
<title>Node1&#45;&gt;Node4</title>
<g id="a_edge3_Node000001_Node000004"><a xlink:title=" ">
<path fill="none" stroke="#63b8ff" d="M182.58,-110.2C191.15,-101.92 201.93,-91.52 210.89,-82.87"/>
<polygon fill="#63b8ff" stroke="#63b8ff" points="213.24,-85.47 218.01,-76 208.38,-80.43 213.24,-85.47"/>
</a>
</g>
</g>
<!-- Node6 -->
<g id="Node000006" class="node">
<title>Node6</title>
<g id="a_Node000006"><a xlink:href="_i_widget_nav_handler_8h.html" target="_top" xlink:title="Interface for handling horizontal navigation events between UI widgets.">
<polygon fill="white" stroke="#666666" points="413,-74.5 304,-74.5 304,-55.25 413,-55.25 413,-74.5"/>
<text text-anchor="middle" x="358.5" y="-61" font-family="Helvetica,sans-Serif" font-size="10.00">IWidgetNavHandler.h</text>
</a>
</g>
</g>
<!-- Node1&#45;&gt;Node6 -->
<g id="edge5_Node000001_Node000006" class="edge">
<title>Node1&#45;&gt;Node6</title>
<g id="a_edge5_Node000001_Node000006"><a xlink:title=" ">
<path fill="none" stroke="#63b8ff" d="M215.2,-110.05C246.85,-100.29 287.93,-87.63 317.99,-78.36"/>
<polygon fill="#63b8ff" stroke="#63b8ff" points="318.96,-81.73 327.48,-75.44 316.89,-75.04 318.96,-81.73"/>
</a>
</g>
</g>
<!-- Node5 -->
<g id="Node000005" class="node">
<title>Node5</title>
<g id="a_Node000005"><a xlink:href="_screen_8h.html" target="_top" xlink:title="Abstract interface for all UI screens in the JMR800&#45;V2 system.">
<polygon fill="white" stroke="#666666" points="274.75,-19.25 182.25,-19.25 182.25,0 274.75,0 274.75,-19.25"/>
<text text-anchor="middle" x="228.5" y="-5.75" font-family="Helvetica,sans-Serif" font-size="10.00">screens/Screen.h</text>
</a>
</g>
</g>
<!-- Node4&#45;&gt;Node5 -->
<g id="edge4_Node000004_Node000005" class="edge">
<title>Node4&#45;&gt;Node5</title>
<g id="a_edge4_Node000004_Node000005"><a xlink:title=" ">
<path fill="none" stroke="#63b8ff" d="M228.5,-55.08C228.5,-48.57 228.5,-39.42 228.5,-31.12"/>
<polygon fill="#63b8ff" stroke="#63b8ff" points="232,-31.12 228.5,-21.12 225,-31.12 232,-31.12"/>
</a>
</g>
</g>
</g>
</svg>
