<?xml version="1.0" encoding="UTF-8" standalone="no"?>
<!DOCTYPE svg PUBLIC "-//W3C//DTD SVG 1.1//EN"
 "http://www.w3.org/Graphics/SVG/1.1/DTD/svg11.dtd">
<!-- Generated by graphviz version 12.2.1 (20241206.2353)
 -->
<!-- Title: src/widgets/KnobWidget.cpp Pages: 1 -->
<svg width="478pt" height="138pt"
 viewBox="0.00 0.00 477.75 137.75" xmlns="http://www.w3.org/2000/svg" xmlns:xlink="http://www.w3.org/1999/xlink">
<g id="graph0" class="graph" transform="scale(1 1) rotate(0) translate(4 133.75)">
<title>src/widgets/KnobWidget.cpp</title>
<!-- Node1 -->
<g id="Node000001" class="node">
<title>Node1</title>
<g id="a_Node000001"><a xlink:title="Defines the base class for knob&#45;based widgets, providing shared bezel drawing behavior.">
<polygon fill="#999999" stroke="#666666" points="287.5,-129.75 146.25,-129.75 146.25,-110.5 287.5,-110.5 287.5,-129.75"/>
<text text-anchor="middle" x="216.88" y="-116.25" font-family="Helvetica,sans-Serif" font-size="10.00">src/widgets/KnobWidget.cpp</text>
</a>
</g>
</g>
<!-- Node2 -->
<g id="Node000002" class="node">
<title>Node2</title>
<g id="a_Node000002"><a xlink:href="_knob_widget_8h.html" target="_top" xlink:title="Base class for knob&#45;style widgets in the JMR800&#45;V2 interface.">
<polygon fill="white" stroke="#666666" points="152,-74.5 37.75,-74.5 37.75,-55.25 152,-55.25 152,-74.5"/>
<text text-anchor="middle" x="94.88" y="-61" font-family="Helvetica,sans-Serif" font-size="10.00">widgets/KnobWidget.h</text>
</a>
</g>
</g>
<!-- Node1&#45;&gt;Node2 -->
<g id="edge1_Node000001_Node000002" class="edge">
<title>Node1&#45;&gt;Node2</title>
<g id="a_edge1_Node000001_Node000002"><a xlink:title=" ">
<path fill="none" stroke="#63b8ff" d="M196.18,-110.09C176.99,-101.72 148.16,-89.13 126.16,-79.53"/>
<polygon fill="#63b8ff" stroke="#63b8ff" points="127.62,-76.35 117.06,-75.56 124.82,-82.77 127.62,-76.35"/>
</a>
</g>
</g>
<!-- Node4 -->
<g id="Node000004" class="node">
<title>Node4</title>
<g id="a_Node000004"><a xlink:title=" ">
<polygon fill="#e0e0e0" stroke="#999999" points="209.88,-19.25 109.88,-19.25 109.88,0 209.88,0 209.88,-19.25"/>
<text text-anchor="middle" x="159.88" y="-5.75" font-family="Helvetica,sans-Serif" font-size="10.00">Adafruit_SH110X.h</text>
</a>
</g>
</g>
<!-- Node1&#45;&gt;Node4 -->
<g id="edge4_Node000001_Node000004" class="edge">
<title>Node1&#45;&gt;Node4</title>
<g id="a_edge4_Node000001_Node000004"><a xlink:title=" ">
<path fill="none" stroke="#63b8ff" d="M212.21,-110.25C202.98,-92.68 182.22,-53.16 169.8,-29.52"/>
<polygon fill="#63b8ff" stroke="#63b8ff" points="173.06,-28.19 165.31,-20.97 166.86,-31.45 173.06,-28.19"/>
</a>
</g>
</g>
<!-- Node5 -->
<g id="Node000005" class="node">
<title>Node5</title>
<g id="a_Node000005"><a xlink:href="_screen_manager_8h.html" target="_top" xlink:title="Declares the ScreenManager class responsible for UI screen control on the OLED display.">
<polygon fill="white" stroke="#666666" points="299.75,-74.5 208,-74.5 208,-55.25 299.75,-55.25 299.75,-74.5"/>
<text text-anchor="middle" x="253.88" y="-61" font-family="Helvetica,sans-Serif" font-size="10.00">ScreenManager.h</text>
</a>
</g>
</g>
<!-- Node1&#45;&gt;Node5 -->
<g id="edge5_Node000001_Node000005" class="edge">
<title>Node1&#45;&gt;Node5</title>
<g id="a_edge5_Node000001_Node000005"><a xlink:title=" ">
<path fill="none" stroke="#63b8ff" d="M222.98,-110.33C227.94,-103.21 235.08,-92.93 241.25,-84.05"/>
<polygon fill="#63b8ff" stroke="#63b8ff" points="243.94,-86.31 246.77,-76.1 238.19,-82.32 243.94,-86.31"/>
</a>
</g>
</g>
<!-- Node7 -->
<g id="Node000007" class="node">
<title>Node7</title>
<g id="a_Node000007"><a xlink:href="_logging_8h.html" target="_top" xlink:title="Lightweight logging utility for serial output in the JMR800&#45;V2 project.">
<polygon fill="white" stroke="#666666" points="395.88,-74.5 337.88,-74.5 337.88,-55.25 395.88,-55.25 395.88,-74.5"/>
<text text-anchor="middle" x="366.88" y="-61" font-family="Helvetica,sans-Serif" font-size="10.00">Logging.h</text>
</a>
</g>
</g>
<!-- Node1&#45;&gt;Node7 -->
<g id="edge8_Node000001_Node000007" class="edge">
<title>Node1&#45;&gt;Node7</title>
<g id="a_edge8_Node000001_Node000007"><a xlink:title=" ">
<path fill="none" stroke="#63b8ff" d="M242.32,-110.09C266.56,-101.49 303.31,-88.44 330.61,-78.75"/>
<polygon fill="#63b8ff" stroke="#63b8ff" points="331.63,-82.1 339.88,-75.46 329.28,-75.51 331.63,-82.1"/>
</a>
</g>
</g>
<!-- Node3 -->
<g id="Node000003" class="node">
<title>Node3</title>
<g id="a_Node000003"><a xlink:href="_widget_8h.html" target="_top" xlink:title="Abstract base class for UI widgets in the JMR800&#45;V2 OLED interface.">
<polygon fill="white" stroke="#666666" points="91.75,-19.25 0,-19.25 0,0 91.75,0 91.75,-19.25"/>
<text text-anchor="middle" x="45.88" y="-5.75" font-family="Helvetica,sans-Serif" font-size="10.00">widgets/Widget.h</text>
</a>
</g>
</g>
<!-- Node2&#45;&gt;Node3 -->
<g id="edge2_Node000002_Node000003" class="edge">
<title>Node2&#45;&gt;Node3</title>
<g id="a_edge2_Node000002_Node000003"><a xlink:title=" ">
<path fill="none" stroke="#63b8ff" d="M86.78,-55.08C80.02,-47.73 70.15,-37.01 61.81,-27.94"/>
<polygon fill="#63b8ff" stroke="#63b8ff" points="64.51,-25.71 55.17,-20.72 59.36,-30.45 64.51,-25.71"/>
</a>
</g>
</g>
<!-- Node2&#45;&gt;Node4 -->
<g id="edge3_Node000002_Node000004" class="edge">
<title>Node2&#45;&gt;Node4</title>
<g id="a_edge3_Node000002_Node000004"><a xlink:title=" ">
<path fill="none" stroke="#63b8ff" d="M105.9,-54.84C115.3,-47.15 129.02,-35.9 140.28,-26.68"/>
<polygon fill="#63b8ff" stroke="#63b8ff" points="142.32,-29.53 147.84,-20.48 137.89,-24.11 142.32,-29.53"/>
</a>
</g>
</g>
<!-- Node5&#45;&gt;Node4 -->
<g id="edge6_Node000005_Node000004" class="edge">
<title>Node5&#45;&gt;Node4</title>
<g id="a_edge6_Node000005_Node000004"><a xlink:title=" ">
<path fill="none" stroke="#63b8ff" d="M237.93,-54.84C223.61,-46.73 202.34,-34.68 185.62,-25.21"/>
<polygon fill="#63b8ff" stroke="#63b8ff" points="187.64,-22.33 177.22,-20.45 184.19,-28.42 187.64,-22.33"/>
</a>
</g>
</g>
<!-- Node6 -->
<g id="Node000006" class="node">
<title>Node6</title>
<g id="a_Node000006"><a xlink:href="_screen_8h.html" target="_top" xlink:title="Abstract interface for all UI screens in the JMR800&#45;V2 system.">
<polygon fill="white" stroke="#666666" points="320.12,-19.25 227.62,-19.25 227.62,0 320.12,0 320.12,-19.25"/>
<text text-anchor="middle" x="273.88" y="-5.75" font-family="Helvetica,sans-Serif" font-size="10.00">screens/Screen.h</text>
</a>
</g>
</g>
<!-- Node5&#45;&gt;Node6 -->
<g id="edge7_Node000005_Node000006" class="edge">
<title>Node5&#45;&gt;Node6</title>
<g id="a_edge7_Node000005_Node000006"><a xlink:title=" ">
<path fill="none" stroke="#63b8ff" d="M257.18,-55.08C259.71,-48.34 263.3,-38.77 266.51,-30.24"/>
<polygon fill="#63b8ff" stroke="#63b8ff" points="269.73,-31.62 269.97,-21.03 263.18,-29.16 269.73,-31.62"/>
</a>
</g>
</g>
<!-- Node8 -->
<g id="Node000008" class="node">
<title>Node8</title>
<g id="a_Node000008"><a xlink:title=" ">
<polygon fill="#e0e0e0" stroke="#999999" points="395.5,-19.25 338.25,-19.25 338.25,0 395.5,0 395.5,-19.25"/>
<text text-anchor="middle" x="366.88" y="-5.75" font-family="Helvetica,sans-Serif" font-size="10.00">Arduino.h</text>
</a>
</g>
</g>
<!-- Node7&#45;&gt;Node8 -->
<g id="edge9_Node000007_Node000008" class="edge">
<title>Node7&#45;&gt;Node8</title>
<g id="a_edge9_Node000007_Node000008"><a xlink:title=" ">
<path fill="none" stroke="#63b8ff" d="M366.88,-55.08C366.88,-48.57 366.88,-39.42 366.88,-31.12"/>
<polygon fill="#63b8ff" stroke="#63b8ff" points="370.38,-31.12 366.88,-21.12 363.38,-31.12 370.38,-31.12"/>
</a>
</g>
</g>
<!-- Node9 -->
<g id="Node000009" class="node">
<title>Node9</title>
<g id="a_Node000009"><a xlink:href="defines_8h.html" target="_top" xlink:title="Hardware pin definitions and global constants for JMR800&#45;V2.">
<polygon fill="white" stroke="#666666" points="469.75,-19.25 414,-19.25 414,0 469.75,0 469.75,-19.25"/>
<text text-anchor="middle" x="441.88" y="-5.75" font-family="Helvetica,sans-Serif" font-size="10.00">defines.h</text>
</a>
</g>
</g>
<!-- Node7&#45;&gt;Node9 -->
<g id="edge10_Node000007_Node000009" class="edge">
<title>Node7&#45;&gt;Node9</title>
<g id="a_edge10_Node000007_Node000009"><a xlink:title=" ">
<path fill="none" stroke="#63b8ff" d="M379.6,-54.84C390.59,-47.04 406.72,-35.59 419.81,-26.29"/>
<polygon fill="#63b8ff" stroke="#63b8ff" points="421.73,-29.22 427.86,-20.58 417.68,-23.51 421.73,-29.22"/>
</a>
</g>
</g>
</g>
</svg>
