<?xml version="1.0" encoding="UTF-8" standalone="no"?>
<!DOCTYPE svg PUBLIC "-//W3C//DTD SVG 1.1//EN"
 "http://www.w3.org/Graphics/SVG/1.1/DTD/svg11.dtd">
<!-- Generated by graphviz version 12.2.1 (20241206.2353)
 -->
<!-- Title: include/widgets/KnobWidget.h Pages: 1 -->
<svg width="604pt" height="227pt"
 viewBox="0.00 0.00 604.25 226.75" xmlns="http://www.w3.org/2000/svg" xmlns:xlink="http://www.w3.org/1999/xlink">
<g id="graph0" class="graph" transform="scale(1 1) rotate(0) translate(4 222.75)">
<title>include/widgets/KnobWidget.h</title>
<!-- Node1 -->
<g id="Node000001" class="node">
<title>Node1</title>
<g id="a_Node000001"><a xlink:title="Base class for knob&#45;style widgets in the JMR800&#45;V2 interface.">
<polygon fill="#999999" stroke="#666666" points="437.62,-218.75 289.62,-218.75 289.62,-199.5 437.62,-199.5 437.62,-218.75"/>
<text text-anchor="middle" x="363.62" y="-205.25" font-family="Helvetica,sans-Serif" font-size="10.00">include/widgets/KnobWidget.h</text>
</a>
</g>
</g>
<!-- Node2 -->
<g id="Node000002" class="node">
<title>Node2</title>
<g id="a_Node000002"><a xlink:href="_encoder_knob_widget_8h.html" target="_top" xlink:title="Represents a virtual knob controlled by an encoder input.">
<polygon fill="white" stroke="#666666" points="272.12,-163.5 127.12,-163.5 127.12,-133 272.12,-133 272.12,-163.5"/>
<text text-anchor="start" x="135.12" y="-150" font-family="Helvetica,sans-Serif" font-size="10.00">include/widgets/EncoderKnob</text>
<text text-anchor="middle" x="199.62" y="-138.75" font-family="Helvetica,sans-Serif" font-size="10.00">Widget.h</text>
</a>
</g>
</g>
<!-- Node1&#45;&gt;Node2 -->
<g id="edge1_Node000001_Node000002" class="edge">
<title>Node1&#45;&gt;Node2</title>
<g id="a_edge1_Node000001_Node000002"><a xlink:title=" ">
<path fill="none" stroke="#63b8ff" d="M327.59,-195.19C301.89,-185.96 267.3,-173.54 240.56,-163.94"/>
<polygon fill="#63b8ff" stroke="#63b8ff" points="326.34,-198.46 336.93,-198.54 328.71,-191.87 326.34,-198.46"/>
</a>
</g>
</g>
<!-- Node8 -->
<g id="Node000008" class="node">
<title>Node8</title>
<g id="a_Node000008"><a xlink:href="_potentiometer_knob_widget_8h.html" target="_top" xlink:title="Visual representation of a physical potentiometer for the OLED UI.">
<polygon fill="white" stroke="#666666" points="437.25,-163.5 290,-163.5 290,-133 437.25,-133 437.25,-163.5"/>
<text text-anchor="start" x="298" y="-150" font-family="Helvetica,sans-Serif" font-size="10.00">include/widgets/Potentiometer</text>
<text text-anchor="middle" x="363.62" y="-138.75" font-family="Helvetica,sans-Serif" font-size="10.00">KnobWidget.h</text>
</a>
</g>
</g>
<!-- Node1&#45;&gt;Node8 -->
<g id="edge8_Node000001_Node000008" class="edge">
<title>Node1&#45;&gt;Node8</title>
<g id="a_edge8_Node000001_Node000008"><a xlink:title=" ">
<path fill="none" stroke="#63b8ff" d="M363.62,-187.92C363.62,-179.99 363.62,-171.06 363.62,-163.78"/>
<polygon fill="#63b8ff" stroke="#63b8ff" points="360.13,-187.67 363.63,-197.67 367.13,-187.67 360.13,-187.67"/>
</a>
</g>
</g>
<!-- Node10 -->
<g id="Node000010" class="node">
<title>Node10</title>
<g id="a_Node000010"><a xlink:href="_knob_widget_8cpp.html" target="_top" xlink:title="Defines the base class for knob&#45;based widgets, providing shared bezel drawing behavior.">
<polygon fill="white" stroke="#666666" points="596.25,-157.88 455,-157.88 455,-138.62 596.25,-138.62 596.25,-157.88"/>
<text text-anchor="middle" x="525.62" y="-144.38" font-family="Helvetica,sans-Serif" font-size="10.00">src/widgets/KnobWidget.cpp</text>
</a>
</g>
</g>
<!-- Node1&#45;&gt;Node10 -->
<g id="edge12_Node000001_Node000010" class="edge">
<title>Node1&#45;&gt;Node10</title>
<g id="a_edge12_Node000001_Node000010"><a xlink:title=" ">
<path fill="none" stroke="#63b8ff" d="M399.26,-195.17C429.97,-184.01 473.51,-168.19 500.64,-158.33"/>
<polygon fill="#63b8ff" stroke="#63b8ff" points="398.21,-191.83 390,-198.54 400.6,-198.41 398.21,-191.83"/>
</a>
</g>
</g>
<!-- Node3 -->
<g id="Node000003" class="node">
<title>Node3</title>
<g id="a_Node000003"><a xlink:href="_shared_control_screen_utility_8h.html" target="_top" xlink:title="Provides utility functions for initializing common screen layouts.">
<polygon fill="white" stroke="#666666" points="432.38,-97 282.88,-97 282.88,-66.5 432.38,-66.5 432.38,-97"/>
<text text-anchor="start" x="290.88" y="-83.5" font-family="Helvetica,sans-Serif" font-size="10.00">include/screens/SharedControl</text>
<text text-anchor="middle" x="357.62" y="-72.25" font-family="Helvetica,sans-Serif" font-size="10.00">ScreenUtility.h</text>
</a>
</g>
</g>
<!-- Node2&#45;&gt;Node3 -->
<g id="edge2_Node000002_Node000003" class="edge">
<title>Node2&#45;&gt;Node3</title>
<g id="a_edge2_Node000002_Node000003"><a xlink:title=" ">
<path fill="none" stroke="#63b8ff" d="M245.84,-128.38C270.02,-118.51 299.17,-106.61 321.64,-97.44"/>
<polygon fill="#63b8ff" stroke="#63b8ff" points="244.81,-125.02 236.88,-132.04 247.46,-131.5 244.81,-125.02"/>
</a>
</g>
</g>
<!-- Node5 -->
<g id="Node000005" class="node">
<title>Node5</title>
<g id="a_Node000005"><a xlink:href="_controls_test_screen_8cpp.html" target="_top" xlink:title="Implements a screen for testing all physical controls: knobs, buttons, and encoder.">
<polygon fill="white" stroke="#666666" points="268.38,-30.5 142.88,-30.5 142.88,0 268.38,0 268.38,-30.5"/>
<text text-anchor="start" x="150.88" y="-17" font-family="Helvetica,sans-Serif" font-size="10.00">src/screens/ControlsTest</text>
<text text-anchor="middle" x="205.62" y="-5.75" font-family="Helvetica,sans-Serif" font-size="10.00">Screen.cpp</text>
</a>
</g>
</g>
<!-- Node2&#45;&gt;Node5 -->
<g id="edge6_Node000002_Node000005" class="edge">
<title>Node2&#45;&gt;Node5</title>
<g id="a_edge6_Node000002_Node000005"><a xlink:title=" ">
<path fill="none" stroke="#63b8ff" d="M200.81,-121.43C202.05,-94.34 203.96,-52.71 204.96,-30.83"/>
<polygon fill="#63b8ff" stroke="#63b8ff" points="197.32,-121.07 200.36,-131.22 204.31,-121.39 197.32,-121.07"/>
</a>
</g>
</g>
<!-- Node7 -->
<g id="Node000007" class="node">
<title>Node7</title>
<g id="a_Node000007"><a xlink:href="_encoder_knob_widget_8cpp.html" target="_top" xlink:title="Implements a UI widget that visually represents the encoder knob and its pressed state.">
<polygon fill="white" stroke="#666666" points="177.25,-91.38 0,-91.38 0,-72.12 177.25,-72.12 177.25,-91.38"/>
<text text-anchor="middle" x="88.62" y="-77.88" font-family="Helvetica,sans-Serif" font-size="10.00">src/widgets/EncoderKnobWidget.cpp</text>
</a>
</g>
</g>
<!-- Node2&#45;&gt;Node7 -->
<g id="edge7_Node000002_Node000007" class="edge">
<title>Node2&#45;&gt;Node7</title>
<g id="a_edge7_Node000002_Node000007"><a xlink:title=" ">
<path fill="none" stroke="#63b8ff" d="M164.57,-126.88C144.27,-115.08 119.71,-100.81 104.13,-91.76"/>
<polygon fill="#63b8ff" stroke="#63b8ff" points="162.72,-129.86 173.13,-131.85 166.24,-123.8 162.72,-129.86"/>
</a>
</g>
</g>
<!-- Node4 -->
<g id="Node000004" class="node">
<title>Node4</title>
<g id="a_Node000004"><a xlink:href="_config_screen_8cpp.html" target="_top" xlink:title="Implements the configuration screen for knob mapping and diagnostics.">
<polygon fill="white" stroke="#666666" points="434.62,-24.88 286.62,-24.88 286.62,-5.63 434.62,-5.63 434.62,-24.88"/>
<text text-anchor="middle" x="360.62" y="-11.38" font-family="Helvetica,sans-Serif" font-size="10.00">src/screens/ConfigScreen.cpp</text>
</a>
</g>
</g>
<!-- Node3&#45;&gt;Node4 -->
<g id="edge3_Node000003_Node000004" class="edge">
<title>Node3&#45;&gt;Node4</title>
<g id="a_edge3_Node000003_Node000004"><a xlink:title=" ">
<path fill="none" stroke="#63b8ff" d="M358.83,-54.84C359.32,-44.26 359.86,-32.75 360.21,-25.07"/>
<polygon fill="#63b8ff" stroke="#63b8ff" points="355.34,-54.45 358.38,-64.6 362.34,-54.78 355.34,-54.45"/>
</a>
</g>
</g>
<!-- Node3&#45;&gt;Node5 -->
<g id="edge4_Node000003_Node000005" class="edge">
<title>Node3&#45;&gt;Node5</title>
<g id="a_edge4_Node000003_Node000005"><a xlink:title=" ">
<path fill="none" stroke="#63b8ff" d="M312.85,-61.75C289.65,-51.91 261.76,-40.07 240.24,-30.94"/>
<polygon fill="#63b8ff" stroke="#63b8ff" points="311.17,-64.84 321.74,-65.52 313.9,-58.39 311.17,-64.84"/>
</a>
</g>
</g>
<!-- Node6 -->
<g id="Node000006" class="node">
<title>Node6</title>
<g id="a_Node000006"><a xlink:href="_shared_control_screen_utility_8cpp.html" target="_top" xlink:title="Provides layout helper utilities for constructing shared UI control screens.">
<polygon fill="white" stroke="#666666" points="584.75,-30.5 452.5,-30.5 452.5,0 584.75,0 584.75,-30.5"/>
<text text-anchor="start" x="460.5" y="-17" font-family="Helvetica,sans-Serif" font-size="10.00">src/screens/SharedControl</text>
<text text-anchor="middle" x="518.62" y="-5.75" font-family="Helvetica,sans-Serif" font-size="10.00">ScreenUtility.cpp</text>
</a>
</g>
</g>
<!-- Node3&#45;&gt;Node6 -->
<g id="edge5_Node000003_Node000006" class="edge">
<title>Node3&#45;&gt;Node6</title>
<g id="a_edge5_Node000003_Node000006"><a xlink:title=" ">
<path fill="none" stroke="#63b8ff" d="M404.72,-61.88C429.35,-52.01 459.06,-40.11 481.96,-30.94"/>
<polygon fill="#63b8ff" stroke="#63b8ff" points="403.54,-58.58 395.56,-65.55 406.15,-65.08 403.54,-58.58"/>
</a>
</g>
</g>
<!-- Node8&#45;&gt;Node3 -->
<g id="edge9_Node000008_Node000003" class="edge">
<title>Node8&#45;&gt;Node3</title>
<g id="a_edge9_Node000008_Node000003"><a xlink:title=" ">
<path fill="none" stroke="#63b8ff" d="M361.21,-121.31C360.45,-113.14 359.64,-104.41 358.98,-97.33"/>
<polygon fill="#63b8ff" stroke="#63b8ff" points="357.71,-121.47 362.12,-131.11 364.68,-120.83 357.71,-121.47"/>
</a>
</g>
</g>
<!-- Node8&#45;&gt;Node5 -->
<g id="edge10_Node000008_Node000005" class="edge">
<title>Node8&#45;&gt;Node5</title>
<g id="a_edge10_Node000008_Node000005"><a xlink:title=" ">
<path fill="none" stroke="#63b8ff" d="M321.01,-127.52C305.31,-119.23 287.89,-108.77 273.62,-97 249.6,-77.17 227.49,-48.06 215.36,-30.75"/>
<polygon fill="#63b8ff" stroke="#63b8ff" points="319.18,-130.51 329.68,-131.95 322.37,-124.28 319.18,-130.51"/>
</a>
</g>
</g>
<!-- Node9 -->
<g id="Node000009" class="node">
<title>Node9</title>
<g id="a_Node000009"><a xlink:href="_potentiometer_knob_widget_8cpp.html" target="_top" xlink:title="Implements the PotentiometerKnobWidget class, which visualizes a physical knob&#39;s current state.">
<polygon fill="white" stroke="#666666" points="580.62,-97 450.62,-97 450.62,-66.5 580.62,-66.5 580.62,-97"/>
<text text-anchor="start" x="458.62" y="-83.5" font-family="Helvetica,sans-Serif" font-size="10.00">src/widgets/Potentiometer</text>
<text text-anchor="middle" x="515.62" y="-72.25" font-family="Helvetica,sans-Serif" font-size="10.00">KnobWidget.cpp</text>
</a>
</g>
</g>
<!-- Node8&#45;&gt;Node9 -->
<g id="edge11_Node000008_Node000009" class="edge">
<title>Node8&#45;&gt;Node9</title>
<g id="a_edge11_Node000008_Node000009"><a xlink:title=" ">
<path fill="none" stroke="#63b8ff" d="M408.4,-128.25C431.6,-118.41 459.49,-106.57 481.01,-97.44"/>
<polygon fill="#63b8ff" stroke="#63b8ff" points="407.35,-124.89 399.51,-132.02 410.08,-131.34 407.35,-124.89"/>
</a>
</g>
</g>
</g>
</svg>
