<?xml version="1.0" encoding="UTF-8" standalone="no"?>
<!DOCTYPE svg PUBLIC "-//W3C//DTD SVG 1.1//EN"
 "http://www.w3.org/Graphics/SVG/1.1/DTD/svg11.dtd">
<!-- Generated by graphviz version 12.2.1 (20241206.2353)
 -->
<!-- Title: src/Logging.cpp Pages: 1 -->
<svg width="627pt" height="193pt"
 viewBox="0.00 0.00 626.75 193.00" xmlns="http://www.w3.org/2000/svg" xmlns:xlink="http://www.w3.org/1999/xlink">
<g id="graph0" class="graph" transform="scale(1 1) rotate(0) translate(4 189)">
<title>src/Logging.cpp</title>
<!-- Node1 -->
<g id="Node000001" class="node">
<title>Node1</title>
<g id="a_Node000001"><a xlink:title="Implements a simple logging utility for emitting serial debug messages with verbosity filtering.">
<polygon fill="#999999" stroke="#666666" points="492.25,-185 407.25,-185 407.25,-165.75 492.25,-165.75 492.25,-185"/>
<text text-anchor="middle" x="449.75" y="-171.5" font-family="Helvetica,sans-Serif" font-size="10.00">src/Logging.cpp</text>
</a>
</g>
</g>
<!-- Node2 -->
<g id="Node000002" class="node">
<title>Node2</title>
<g id="a_Node000002"><a xlink:href="_logging_8h.html" target="_top" xlink:title="Lightweight logging utility for serial output in the JMR800&#45;V2 project.">
<polygon fill="white" stroke="#666666" points="618.75,-74.5 560.75,-74.5 560.75,-55.25 618.75,-55.25 618.75,-74.5"/>
<text text-anchor="middle" x="589.75" y="-61" font-family="Helvetica,sans-Serif" font-size="10.00">Logging.h</text>
</a>
</g>
</g>
<!-- Node1&#45;&gt;Node2 -->
<g id="edge1_Node000001_Node000002" class="edge">
<title>Node1&#45;&gt;Node2</title>
<g id="a_edge1_Node000001_Node000002"><a xlink:title=" ">
<path fill="none" stroke="#63b8ff" d="M461.21,-165.5C484.9,-147.14 539.54,-104.79 569.39,-81.66"/>
<polygon fill="#63b8ff" stroke="#63b8ff" points="571.18,-84.7 576.94,-75.8 566.89,-79.16 571.18,-84.7"/>
</a>
</g>
</g>
<!-- Node5 -->
<g id="Node000005" class="node">
<title>Node5</title>
<g id="a_Node000005"><a xlink:href="_hardware_manager_8h.html" target="_top" xlink:title="Manages hardware input/output for analog controls, digital buttons, encoder, and serial communication...">
<polygon fill="white" stroke="#666666" points="461.25,-129.75 358.25,-129.75 358.25,-110.5 461.25,-110.5 461.25,-129.75"/>
<text text-anchor="middle" x="409.75" y="-116.25" font-family="Helvetica,sans-Serif" font-size="10.00">HardwareManager.h</text>
</a>
</g>
</g>
<!-- Node1&#45;&gt;Node5 -->
<g id="edge4_Node000001_Node000005" class="edge">
<title>Node1&#45;&gt;Node5</title>
<g id="a_edge4_Node000001_Node000005"><a xlink:title=" ">
<path fill="none" stroke="#63b8ff" d="M443.14,-165.58C437.79,-158.46 430.07,-148.18 423.4,-139.3"/>
<polygon fill="#63b8ff" stroke="#63b8ff" points="426.21,-137.21 417.41,-131.32 420.62,-141.42 426.21,-137.21"/>
</a>
</g>
</g>
<!-- Node3 -->
<g id="Node000003" class="node">
<title>Node3</title>
<g id="a_Node000003"><a xlink:title=" ">
<polygon fill="#e0e0e0" stroke="#999999" points="613.38,-19.25 556.12,-19.25 556.12,0 613.38,0 613.38,-19.25"/>
<text text-anchor="middle" x="584.75" y="-5.75" font-family="Helvetica,sans-Serif" font-size="10.00">Arduino.h</text>
</a>
</g>
</g>
<!-- Node2&#45;&gt;Node3 -->
<g id="edge2_Node000002_Node000003" class="edge">
<title>Node2&#45;&gt;Node3</title>
<g id="a_edge2_Node000002_Node000003"><a xlink:title=" ">
<path fill="none" stroke="#63b8ff" d="M588.92,-55.08C588.31,-48.49 587.43,-39.21 586.65,-30.82"/>
<polygon fill="#63b8ff" stroke="#63b8ff" points="590.15,-30.75 585.74,-21.12 583.19,-31.4 590.15,-30.75"/>
</a>
</g>
</g>
<!-- Node4 -->
<g id="Node000004" class="node">
<title>Node4</title>
<g id="a_Node000004"><a xlink:href="defines_8h.html" target="_top" xlink:title="Hardware pin definitions and global constants for JMR800&#45;V2.">
<polygon fill="white" stroke="#666666" points="532.62,-19.25 476.88,-19.25 476.88,0 532.62,0 532.62,-19.25"/>
<text text-anchor="middle" x="504.75" y="-5.75" font-family="Helvetica,sans-Serif" font-size="10.00">defines.h</text>
</a>
</g>
</g>
<!-- Node2&#45;&gt;Node4 -->
<g id="edge3_Node000002_Node000004" class="edge">
<title>Node2&#45;&gt;Node4</title>
<g id="a_edge3_Node000002_Node000004"><a xlink:title=" ">
<path fill="none" stroke="#63b8ff" d="M575.33,-54.84C562.63,-46.89 543.88,-35.14 528.89,-25.75"/>
<polygon fill="#63b8ff" stroke="#63b8ff" points="530.85,-22.85 520.52,-20.51 527.14,-28.78 530.85,-22.85"/>
</a>
</g>
</g>
<!-- Node5&#45;&gt;Node2 -->
<g id="edge13_Node000005_Node000002" class="edge">
<title>Node5&#45;&gt;Node2</title>
<g id="a_edge13_Node000005_Node000002"><a xlink:title=" ">
<path fill="none" stroke="#63b8ff" d="M440.28,-110.09C470.38,-101.19 516.54,-87.53 549.6,-77.75"/>
<polygon fill="#63b8ff" stroke="#63b8ff" points="550.22,-81.22 558.81,-75.03 548.23,-74.51 550.22,-81.22"/>
</a>
</g>
</g>
<!-- Node5&#45;&gt;Node3 -->
<g id="edge5_Node000005_Node000003" class="edge">
<title>Node5&#45;&gt;Node3</title>
<g id="a_edge5_Node000005_Node000003"><a xlink:title=" ">
<path fill="none" stroke="#63b8ff" d="M428.97,-110.14C446.69,-101.62 473.53,-88.14 495.75,-74.5 520.23,-59.47 546.8,-39.94 564.48,-26.46"/>
<polygon fill="#63b8ff" stroke="#63b8ff" points="566.33,-29.45 572.11,-20.57 562.06,-23.9 566.33,-29.45"/>
</a>
</g>
</g>
<!-- Node5&#45;&gt;Node4 -->
<g id="edge12_Node000005_Node000004" class="edge">
<title>Node5&#45;&gt;Node4</title>
<g id="a_edge12_Node000005_Node000004"><a xlink:title=" ">
<path fill="none" stroke="#63b8ff" d="M428.62,-110.03C443.09,-102.27 462.72,-89.93 475.75,-74.5 486.58,-61.68 494.15,-44.15 498.84,-30.7"/>
<polygon fill="#63b8ff" stroke="#63b8ff" points="502.17,-31.78 501.88,-21.18 495.5,-29.64 502.17,-31.78"/>
</a>
</g>
</g>
<!-- Node6 -->
<g id="Node000006" class="node">
<title>Node6</title>
<g id="a_Node000006"><a xlink:title=" ">
<polygon fill="#e0e0e0" stroke="#999999" points="83.5,-74.5 0,-74.5 0,-55.25 83.5,-55.25 83.5,-74.5"/>
<text text-anchor="middle" x="41.75" y="-61" font-family="Helvetica,sans-Serif" font-size="10.00">Adafruit_GFX.h</text>
</a>
</g>
</g>
<!-- Node5&#45;&gt;Node6 -->
<g id="edge6_Node000005_Node000006" class="edge">
<title>Node5&#45;&gt;Node6</title>
<g id="a_edge6_Node000005_Node000006"><a xlink:title=" ">
<path fill="none" stroke="#63b8ff" d="M357.8,-112.26C297.22,-104.16 193.8,-90.01 94.86,-74.79"/>
<polygon fill="#63b8ff" stroke="#63b8ff" points="95.67,-71.37 85.26,-73.31 94.6,-78.29 95.67,-71.37"/>
</a>
</g>
</g>
<!-- Node7 -->
<g id="Node000007" class="node">
<title>Node7</title>
<g id="a_Node000007"><a xlink:title=" ">
<polygon fill="#e0e0e0" stroke="#999999" points="201.75,-74.5 101.75,-74.5 101.75,-55.25 201.75,-55.25 201.75,-74.5"/>
<text text-anchor="middle" x="151.75" y="-61" font-family="Helvetica,sans-Serif" font-size="10.00">Adafruit_SH110X.h</text>
</a>
</g>
</g>
<!-- Node5&#45;&gt;Node7 -->
<g id="edge7_Node000005_Node000007" class="edge">
<title>Node5&#45;&gt;Node7</title>
<g id="a_edge7_Node000005_Node000007"><a xlink:title=" ">
<path fill="none" stroke="#63b8ff" d="M365.69,-110.03C321.72,-100.96 254.05,-86.99 206.62,-77.2"/>
<polygon fill="#63b8ff" stroke="#63b8ff" points="207.61,-73.83 197.11,-75.24 206.2,-80.69 207.61,-73.83"/>
</a>
</g>
</g>
<!-- Node8 -->
<g id="Node000008" class="node">
<title>Node8</title>
<g id="a_Node000008"><a xlink:title=" ">
<polygon fill="#e0e0e0" stroke="#999999" points="264,-74.5 219.5,-74.5 219.5,-55.25 264,-55.25 264,-74.5"/>
<text text-anchor="middle" x="241.75" y="-61" font-family="Helvetica,sans-Serif" font-size="10.00">Wire.h</text>
</a>
</g>
</g>
<!-- Node5&#45;&gt;Node8 -->
<g id="edge8_Node000005_Node000008" class="edge">
<title>Node5&#45;&gt;Node8</title>
<g id="a_edge8_Node000005_Node000008"><a xlink:title=" ">
<path fill="none" stroke="#63b8ff" d="M381.25,-110.09C351.9,-100.79 306.19,-86.3 275.16,-76.47"/>
<polygon fill="#63b8ff" stroke="#63b8ff" points="276.48,-73.21 265.89,-73.53 274.37,-79.89 276.48,-73.21"/>
</a>
</g>
</g>
<!-- Node9 -->
<g id="Node000009" class="node">
<title>Node9</title>
<g id="a_Node000009"><a xlink:title=" ">
<polygon fill="#e0e0e0" stroke="#999999" points="327.75,-74.5 281.75,-74.5 281.75,-55.25 327.75,-55.25 327.75,-74.5"/>
<text text-anchor="middle" x="304.75" y="-61" font-family="Helvetica,sans-Serif" font-size="10.00">ADC.h</text>
</a>
</g>
</g>
<!-- Node5&#45;&gt;Node9 -->
<g id="edge9_Node000005_Node000009" class="edge">
<title>Node5&#45;&gt;Node9</title>
<g id="a_edge9_Node000005_Node000009"><a xlink:title=" ">
<path fill="none" stroke="#63b8ff" d="M391.94,-110.09C375.72,-101.87 351.51,-89.59 332.72,-80.06"/>
<polygon fill="#63b8ff" stroke="#63b8ff" points="334.5,-77.04 324,-75.64 331.33,-83.28 334.5,-77.04"/>
</a>
</g>
</g>
<!-- Node10 -->
<g id="Node000010" class="node">
<title>Node10</title>
<g id="a_Node000010"><a xlink:title=" ">
<polygon fill="#e0e0e0" stroke="#999999" points="405.5,-74.5 346,-74.5 346,-55.25 405.5,-55.25 405.5,-74.5"/>
<text text-anchor="middle" x="375.75" y="-61" font-family="Helvetica,sans-Serif" font-size="10.00">Encoder.h</text>
</a>
</g>
</g>
<!-- Node5&#45;&gt;Node10 -->
<g id="edge10_Node000005_Node000010" class="edge">
<title>Node5&#45;&gt;Node10</title>
<g id="a_edge10_Node000005_Node000010"><a xlink:title=" ">
<path fill="none" stroke="#63b8ff" d="M404.14,-110.33C399.63,-103.28 393.16,-93.15 387.54,-84.33"/>
<polygon fill="#63b8ff" stroke="#63b8ff" points="390.63,-82.68 382.3,-76.13 384.73,-86.45 390.63,-82.68"/>
</a>
</g>
</g>
<!-- Node11 -->
<g id="Node000011" class="node">
<title>Node11</title>
<g id="a_Node000011"><a xlink:title=" ">
<polygon fill="#e0e0e0" stroke="#999999" points="466.25,-74.5 423.25,-74.5 423.25,-55.25 466.25,-55.25 466.25,-74.5"/>
<text text-anchor="middle" x="444.75" y="-61" font-family="Helvetica,sans-Serif" font-size="10.00">vector</text>
</a>
</g>
</g>
<!-- Node5&#45;&gt;Node11 -->
<g id="edge11_Node000005_Node000011" class="edge">
<title>Node5&#45;&gt;Node11</title>
<g id="a_edge11_Node000005_Node000011"><a xlink:title=" ">
<path fill="none" stroke="#63b8ff" d="M415.53,-110.33C420.16,-103.28 426.82,-93.15 432.62,-84.33"/>
<polygon fill="#63b8ff" stroke="#63b8ff" points="435.45,-86.4 438.01,-76.12 429.6,-82.56 435.45,-86.4"/>
</a>
</g>
</g>
</g>
</svg>
