<?xml version="1.0" encoding="UTF-8" standalone="no"?>
<!DOCTYPE svg PUBLIC "-//W3C//DTD SVG 1.1//EN"
 "http://www.w3.org/Graphics/SVG/1.1/DTD/svg11.dtd">
<!-- Generated by graphviz version 12.2.1 (20241206.2353)
 -->
<!-- Title: include/Logging.h Pages: 1 -->
<svg width="2999pt" height="160pt"
 viewBox="0.00 0.00 2999.38 160.25" xmlns="http://www.w3.org/2000/svg" xmlns:xlink="http://www.w3.org/1999/xlink">
<g id="graph0" class="graph" transform="scale(1 1) rotate(0) translate(4 156.25)">
<title>include/Logging.h</title>
<!-- Node1 -->
<g id="Node000001" class="node">
<title>Node1</title>
<g id="a_Node000001"><a xlink:title="Lightweight logging utility for serial output in the JMR800&#45;V2 project.">
<polygon fill="#999999" stroke="#666666" points="1732.88,-152.25 1641.12,-152.25 1641.12,-133 1732.88,-133 1732.88,-152.25"/>
<text text-anchor="middle" x="1687" y="-138.75" font-family="Helvetica,sans-Serif" font-size="10.00">include/Logging.h</text>
</a>
</g>
</g>
<!-- Node2 -->
<g id="Node000002" class="node">
<title>Node2</title>
<g id="a_Node000002"><a xlink:href="_hardware_manager_8h.html" target="_top" xlink:title="Manages hardware input/output for analog controls, digital buttons, encoder, and serial communication...">
<polygon fill="white" stroke="#666666" points="1387.38,-91.38 1250.62,-91.38 1250.62,-72.12 1387.38,-72.12 1387.38,-91.38"/>
<text text-anchor="middle" x="1319" y="-77.88" font-family="Helvetica,sans-Serif" font-size="10.00">include/HardwareManager.h</text>
</a>
</g>
</g>
<!-- Node1&#45;&gt;Node2 -->
<g id="edge1_Node000001_Node000002" class="edge">
<title>Node1&#45;&gt;Node2</title>
<g id="a_edge1_Node000001_Node000002"><a xlink:title=" ">
<path fill="none" stroke="#63b8ff" d="M1629.66,-132.45C1560.48,-121.38 1444.88,-102.89 1375.9,-91.85"/>
<polygon fill="#63b8ff" stroke="#63b8ff" points="1628.84,-135.87 1639.27,-133.99 1629.95,-128.95 1628.84,-135.87"/>
</a>
</g>
</g>
<!-- Node3 -->
<g id="Node000003" class="node">
<title>Node3</title>
<g id="a_Node000003"><a xlink:href="_hardware_manager_8cpp.html" target="_top" xlink:title="Implements the HardwareManager class which controls all low&#45;level hardware interfaces.">
<polygon fill="white" stroke="#666666" points="130,-24.88 0,-24.88 0,-5.63 130,-5.63 130,-24.88"/>
<text text-anchor="middle" x="65" y="-11.38" font-family="Helvetica,sans-Serif" font-size="10.00">src/HardwareManager.cpp</text>
</a>
</g>
</g>
<!-- Node1&#45;&gt;Node3 -->
<g id="edge23_Node000001_Node000003" class="edge">
<title>Node1&#45;&gt;Node3</title>
<g id="a_edge23_Node000001_Node000003"><a xlink:title=" ">
<path fill="none" stroke="#63b8ff" d="M1629.3,-141.69C1404.96,-141.62 590.72,-138.45 336,-97 241.75,-81.66 134.28,-43.02 88.09,-25.34"/>
<polygon fill="#63b8ff" stroke="#63b8ff" points="1629.25,-145.19 1639.25,-141.69 1629.25,-138.19 1629.25,-145.19"/>
</a>
</g>
</g>
<!-- Node4 -->
<g id="Node000004" class="node">
<title>Node4</title>
<g id="a_Node000004"><a xlink:href="_logging_8cpp.html" target="_top" xlink:title="Implements a simple logging utility for emitting serial debug messages with verbosity filtering.">
<polygon fill="white" stroke="#666666" points="233.5,-24.88 148.5,-24.88 148.5,-5.63 233.5,-5.63 233.5,-24.88"/>
<text text-anchor="middle" x="191" y="-11.38" font-family="Helvetica,sans-Serif" font-size="10.00">src/Logging.cpp</text>
</a>
</g>
</g>
<!-- Node1&#45;&gt;Node4 -->
<g id="edge24_Node000001_Node000004" class="edge">
<title>Node1&#45;&gt;Node4</title>
<g id="a_edge24_Node000001_Node000004"><a xlink:title=" ">
<path fill="none" stroke="#63b8ff" d="M1629.44,-141.48C1418.67,-140.63 689.36,-134.95 460,-97 366.43,-81.52 259.77,-42.95 213.92,-25.31"/>
<polygon fill="#63b8ff" stroke="#63b8ff" points="1629.3,-144.98 1639.32,-141.51 1629.33,-137.98 1629.3,-144.98"/>
</a>
</g>
</g>
<!-- Node5 -->
<g id="Node000005" class="node">
<title>Node5</title>
<g id="a_Node000005"><a xlink:href="_mode_manager_8cpp.html" target="_top" xlink:title="Implements the ModeManager class responsible for managing application modes.">
<polygon fill="white" stroke="#666666" points="364,-24.88 252,-24.88 252,-5.63 364,-5.63 364,-24.88"/>
<text text-anchor="middle" x="308" y="-11.38" font-family="Helvetica,sans-Serif" font-size="10.00">src/ModeManager.cpp</text>
</a>
</g>
</g>
<!-- Node1&#45;&gt;Node5 -->
<g id="edge25_Node000001_Node000005" class="edge">
<title>Node1&#45;&gt;Node5</title>
<g id="a_edge25_Node000001_Node000005"><a xlink:title=" ">
<path fill="none" stroke="#63b8ff" d="M1629.37,-141.11C1433.06,-139.07 791.43,-129.97 588,-97 490.87,-81.26 379.7,-42.82 331.9,-25.27"/>
<polygon fill="#63b8ff" stroke="#63b8ff" points="1629.28,-144.61 1639.32,-141.21 1629.36,-137.61 1629.28,-144.61"/>
</a>
</g>
</g>
<!-- Node6 -->
<g id="Node000006" class="node">
<title>Node6</title>
<g id="a_Node000006"><a xlink:href="main_8cpp.html" target="_top" xlink:title="Entry point for the JMR800&#45;V2 firmware.">
<polygon fill="white" stroke="#666666" points="454.12,-24.88 381.88,-24.88 381.88,-5.63 454.12,-5.63 454.12,-24.88"/>
<text text-anchor="middle" x="418" y="-11.38" font-family="Helvetica,sans-Serif" font-size="10.00">src/main.cpp</text>
</a>
</g>
</g>
<!-- Node1&#45;&gt;Node6 -->
<g id="edge27_Node000001_Node000006" class="edge">
<title>Node1&#45;&gt;Node6</title>
<g id="a_edge27_Node000001_Node000006"><a xlink:title=" ">
<path fill="none" stroke="#63b8ff" d="M1629.26,-140.42C1450.21,-136.44 905.87,-122.52 731,-97 622.99,-81.24 498.43,-42.81 444.81,-25.26"/>
<polygon fill="#63b8ff" stroke="#63b8ff" points="1629.18,-143.92 1639.26,-140.64 1629.33,-136.92 1629.18,-143.92"/>
</a>
</g>
</g>
<!-- Node7 -->
<g id="Node000007" class="node">
<title>Node7</title>
<g id="a_Node000007"><a xlink:href="_config_mode_8cpp.html" target="_top" xlink:title="Implements the System Configuration Mode for knob setup.">
<polygon fill="white" stroke="#666666" points="608,-24.88 472,-24.88 472,-5.63 608,-5.63 608,-24.88"/>
<text text-anchor="middle" x="540" y="-11.38" font-family="Helvetica,sans-Serif" font-size="10.00">src/modes/ConfigMode.cpp</text>
</a>
</g>
</g>
<!-- Node1&#45;&gt;Node7 -->
<g id="edge28_Node000001_Node000007" class="edge">
<title>Node1&#45;&gt;Node7</title>
<g id="a_edge28_Node000001_Node000007"><a xlink:title=" ">
<path fill="none" stroke="#63b8ff" d="M1629.48,-141.78C1497.76,-141.4 1164.36,-136.26 889,-97 769.87,-80.01 631.44,-42.57 570.95,-25.3"/>
<polygon fill="#63b8ff" stroke="#63b8ff" points="1629.33,-145.28 1639.33,-141.8 1629.34,-138.28 1629.33,-145.28"/>
</a>
</g>
</g>
<!-- Node8 -->
<g id="Node000008" class="node">
<title>Node8</title>
<g id="a_Node000008"><a xlink:href="_controls_test_mode_8cpp.html" target="_top" xlink:title="Implements the Controls Test Mode for button interaction diagnostics.">
<polygon fill="white" stroke="#666666" points="789.5,-24.88 626.5,-24.88 626.5,-5.63 789.5,-5.63 789.5,-24.88"/>
<text text-anchor="middle" x="708" y="-11.38" font-family="Helvetica,sans-Serif" font-size="10.00">src/modes/ControlsTestMode.cpp</text>
</a>
</g>
</g>
<!-- Node1&#45;&gt;Node8 -->
<g id="edge29_Node000001_Node000008" class="edge">
<title>Node1&#45;&gt;Node8</title>
<g id="a_edge29_Node000001_Node000008"><a xlink:title=" ">
<path fill="none" stroke="#63b8ff" d="M1629.23,-140.94C1515.54,-138.87 1255.05,-130.54 1039,-97 926.19,-79.49 795.34,-42.48 737.78,-25.33"/>
<polygon fill="#63b8ff" stroke="#63b8ff" points="1629.17,-144.44 1639.22,-141.11 1629.29,-137.44 1629.17,-144.44"/>
</a>
</g>
</g>
<!-- Node9 -->
<g id="Node000009" class="node">
<title>Node9</title>
<g id="a_Node000009"><a xlink:href="_direct_command_mode_8cpp.html" target="_top" xlink:title="Implements behavior for Direct Command Mode.">
<polygon fill="white" stroke="#666666" points="986.38,-24.88 807.62,-24.88 807.62,-5.63 986.38,-5.63 986.38,-24.88"/>
<text text-anchor="middle" x="897" y="-11.38" font-family="Helvetica,sans-Serif" font-size="10.00">src/modes/DirectCommandMode.cpp</text>
</a>
</g>
</g>
<!-- Node1&#45;&gt;Node9 -->
<g id="edge30_Node000001_Node000009" class="edge">
<title>Node1&#45;&gt;Node9</title>
<g id="a_edge30_Node000001_Node000009"><a xlink:title=" ">
<path fill="none" stroke="#63b8ff" d="M1629.26,-140.78C1531.56,-138.47 1327.79,-129.75 1159,-97 1068.82,-79.5 965.7,-42.49 920.41,-25.34"/>
<polygon fill="#63b8ff" stroke="#63b8ff" points="1629.05,-144.28 1639.12,-141 1629.2,-137.28 1629.05,-144.28"/>
</a>
</g>
</g>
<!-- Node10 -->
<g id="Node000010" class="node">
<title>Node10</title>
<g id="a_Node000010"><a xlink:href="_run_mode_8cpp.html" target="_top" xlink:title="Implements the behavior of the Run Mode application state.">
<polygon fill="white" stroke="#666666" points="1129.75,-24.88 1004.25,-24.88 1004.25,-5.63 1129.75,-5.63 1129.75,-24.88"/>
<text text-anchor="middle" x="1067" y="-11.38" font-family="Helvetica,sans-Serif" font-size="10.00">src/modes/RunMode.cpp</text>
</a>
</g>
</g>
<!-- Node1&#45;&gt;Node10 -->
<g id="edge31_Node000001_Node000010" class="edge">
<title>Node1&#45;&gt;Node10</title>
<g id="a_edge31_Node000001_Node000010"><a xlink:title=" ">
<path fill="none" stroke="#63b8ff" d="M1629.61,-141.89C1543.78,-140.96 1377.54,-133.95 1242,-97 1179.37,-79.93 1111.17,-42.36 1081.8,-25.16"/>
<polygon fill="#63b8ff" stroke="#63b8ff" points="1629.39,-145.39 1639.42,-141.98 1629.45,-138.39 1629.39,-145.39"/>
</a>
</g>
</g>
<!-- Node11 -->
<g id="Node000011" class="node">
<title>Node11</title>
<g id="a_Node000011"><a xlink:href="_controls_test_screen_8cpp.html" target="_top" xlink:title="Implements a screen for testing all physical controls: knobs, buttons, and encoder.">
<polygon fill="white" stroke="#666666" points="2495.75,-30.5 2370.25,-30.5 2370.25,0 2495.75,0 2495.75,-30.5"/>
<text text-anchor="start" x="2378.25" y="-17" font-family="Helvetica,sans-Serif" font-size="10.00">src/screens/ControlsTest</text>
<text text-anchor="middle" x="2433" y="-5.75" font-family="Helvetica,sans-Serif" font-size="10.00">Screen.cpp</text>
</a>
</g>
</g>
<!-- Node1&#45;&gt;Node11 -->
<g id="edge33_Node000001_Node000011" class="edge">
<title>Node1&#45;&gt;Node11</title>
<g id="a_edge33_Node000001_Node000011"><a xlink:title=" ">
<path fill="none" stroke="#63b8ff" d="M1714.06,-127.37C1729.13,-119.08 1748.02,-108.1 1764,-97 1781.5,-84.84 1781.18,-74.34 1801,-66.5 1917.16,-20.54 2238.15,-46.83 2362,-30.5 2364.62,-30.15 2367.28,-29.77 2369.97,-29.36"/>
<polygon fill="#63b8ff" stroke="#63b8ff" points="1712.77,-124.09 1705.65,-131.93 1716.11,-130.24 1712.77,-124.09"/>
</a>
</g>
</g>
<!-- Node14 -->
<g id="Node000014" class="node">
<title>Node14</title>
<g id="a_Node000014"><a xlink:href="_button_widget_8cpp.html" target="_top" xlink:title="Implements the ButtonWidget class, representing a physical button with LED indicators.">
<polygon fill="white" stroke="#666666" points="1831.62,-24.88 1684.38,-24.88 1684.38,-5.63 1831.62,-5.63 1831.62,-24.88"/>
<text text-anchor="middle" x="1758" y="-11.38" font-family="Helvetica,sans-Serif" font-size="10.00">src/widgets/ButtonWidget.cpp</text>
</a>
</g>
</g>
<!-- Node1&#45;&gt;Node14 -->
<g id="edge36_Node000001_Node000014" class="edge">
<title>Node1&#45;&gt;Node14</title>
<g id="a_edge36_Node000001_Node000014"><a xlink:title=" ">
<path fill="none" stroke="#63b8ff" d="M1670.29,-124.65C1656.93,-108.95 1642.23,-85.26 1654,-66.5 1667.48,-45.01 1693.03,-32.49 1715.44,-25.32"/>
<polygon fill="#63b8ff" stroke="#63b8ff" points="1667.45,-126.73 1676.77,-131.76 1672.62,-122.01 1667.45,-126.73"/>
</a>
</g>
</g>
<!-- Node16 -->
<g id="Node000016" class="node">
<title>Node16</title>
<g id="a_Node000016"><a xlink:href="_encoder_knob_widget_8cpp.html" target="_top" xlink:title="Implements a UI widget that visually represents the encoder knob and its pressed state.">
<polygon fill="white" stroke="#666666" points="2026.62,-24.88 1849.38,-24.88 1849.38,-5.63 2026.62,-5.63 2026.62,-24.88"/>
<text text-anchor="middle" x="1938" y="-11.38" font-family="Helvetica,sans-Serif" font-size="10.00">src/widgets/EncoderKnobWidget.cpp</text>
</a>
</g>
</g>
<!-- Node1&#45;&gt;Node16 -->
<g id="edge37_Node000001_Node000016" class="edge">
<title>Node1&#45;&gt;Node16</title>
<g id="a_edge37_Node000001_Node000016"><a xlink:title=" ">
<path fill="none" stroke="#63b8ff" d="M1682.3,-121.72C1679.61,-104.96 1678.98,-81.41 1692,-66.5 1698.38,-59.19 1814.82,-37.75 1885.18,-25.37"/>
<polygon fill="#63b8ff" stroke="#63b8ff" points="1678.86,-122.36 1684.27,-131.47 1685.72,-120.97 1678.86,-122.36"/>
</a>
</g>
</g>
<!-- Node17 -->
<g id="Node000017" class="node">
<title>Node17</title>
<g id="a_Node000017"><a xlink:href="_potentiometer_knob_widget_8cpp.html" target="_top" xlink:title="Implements the PotentiometerKnobWidget class, which visualizes a physical knob&#39;s current state.">
<polygon fill="white" stroke="#666666" points="2175,-30.5 2045,-30.5 2045,0 2175,0 2175,-30.5"/>
<text text-anchor="start" x="2053" y="-17" font-family="Helvetica,sans-Serif" font-size="10.00">src/widgets/Potentiometer</text>
<text text-anchor="middle" x="2110" y="-5.75" font-family="Helvetica,sans-Serif" font-size="10.00">KnobWidget.cpp</text>
</a>
</g>
</g>
<!-- Node1&#45;&gt;Node17 -->
<g id="edge39_Node000001_Node000017" class="edge">
<title>Node1&#45;&gt;Node17</title>
<g id="a_edge39_Node000001_Node000017"><a xlink:title=" ">
<path fill="none" stroke="#63b8ff" d="M1692.7,-121.83C1698.87,-104.23 1710.54,-79.36 1730,-66.5 1787.12,-28.75 1968.34,-40.98 2036,-30.5 2038.84,-30.06 2041.75,-29.59 2044.68,-29.1"/>
<polygon fill="#63b8ff" stroke="#63b8ff" points="1689.43,-120.58 1689.74,-131.17 1696.1,-122.7 1689.43,-120.58"/>
</a>
</g>
</g>
<!-- Node19 -->
<g id="Node000019" class="node">
<title>Node19</title>
<g id="a_Node000019"><a xlink:href="_text_input_widget_8cpp.html" target="_top" xlink:title="Implements the TextInputWidget class, allowing user&#45;editable text display with cursor navigation.">
<polygon fill="white" stroke="#666666" points="2352.62,-24.88 2193.38,-24.88 2193.38,-5.63 2352.62,-5.63 2352.62,-24.88"/>
<text text-anchor="middle" x="2273" y="-11.38" font-family="Helvetica,sans-Serif" font-size="10.00">src/widgets/TextInputWidget.cpp</text>
</a>
</g>
</g>
<!-- Node1&#45;&gt;Node19 -->
<g id="edge41_Node000001_Node000019" class="edge">
<title>Node1&#45;&gt;Node19</title>
<g id="a_edge41_Node000001_Node000019"><a xlink:title=" ">
<path fill="none" stroke="#63b8ff" d="M1702.96,-124.42C1721.96,-104.37 1753.02,-73.14 1768,-66.5 1852.84,-28.91 2091.91,-41.84 2184,-30.5 2195.8,-29.05 2208.44,-27.2 2220.38,-25.32"/>
<polygon fill="#63b8ff" stroke="#63b8ff" points="1700.5,-121.92 1696.21,-131.61 1705.6,-126.71 1700.5,-121.92"/>
</a>
</g>
</g>
<!-- Node20 -->
<g id="Node000020" class="node">
<title>Node20</title>
<g id="a_Node000020"><a xlink:href="_shared_control_screen_utility_8h.html" target="_top" xlink:title="Provides utility functions for initializing common screen layouts.">
<polygon fill="white" stroke="#666666" points="1959.75,-97 1810.25,-97 1810.25,-66.5 1959.75,-66.5 1959.75,-97"/>
<text text-anchor="start" x="1818.25" y="-83.5" font-family="Helvetica,sans-Serif" font-size="10.00">include/screens/SharedControl</text>
<text text-anchor="middle" x="1885" y="-72.25" font-family="Helvetica,sans-Serif" font-size="10.00">ScreenUtility.h</text>
</a>
</g>
</g>
<!-- Node1&#45;&gt;Node20 -->
<g id="edge19_Node000001_Node000020" class="edge">
<title>Node1&#45;&gt;Node20</title>
<g id="a_edge19_Node000001_Node000020"><a xlink:title=" ">
<path fill="none" stroke="#63b8ff" d="M1728.44,-129.3C1759.65,-120.02 1802.57,-107.26 1835.58,-97.44"/>
<polygon fill="#63b8ff" stroke="#63b8ff" points="1727.54,-125.92 1718.95,-132.12 1729.54,-132.63 1727.54,-125.92"/>
</a>
</g>
</g>
<!-- Node21 -->
<g id="Node000021" class="node">
<title>Node21</title>
<g id="a_Node000021"><a xlink:href="_config_screen_8cpp.html" target="_top" xlink:title="Implements the configuration screen for knob mapping and diagnostics.">
<polygon fill="white" stroke="#666666" points="2812,-24.88 2664,-24.88 2664,-5.63 2812,-5.63 2812,-24.88"/>
<text text-anchor="middle" x="2738" y="-11.38" font-family="Helvetica,sans-Serif" font-size="10.00">src/screens/ConfigScreen.cpp</text>
</a>
</g>
</g>
<!-- Node1&#45;&gt;Node21 -->
<g id="edge32_Node000001_Node000021" class="edge">
<title>Node1&#45;&gt;Node21</title>
<g id="a_edge32_Node000001_Node000021"><a xlink:title=" ">
<path fill="none" stroke="#63b8ff" d="M1744.51,-141.09C1803.28,-138.62 1896.02,-129.3 1969,-97 1988.8,-88.24 1986.78,-74.25 2007,-66.5 2141.67,-14.9 2511.69,-46.73 2655,-30.5 2666.62,-29.18 2679.09,-27.3 2690.73,-25.33"/>
<polygon fill="#63b8ff" stroke="#63b8ff" points="1744.61,-137.59 1734.74,-141.45 1744.86,-144.58 1744.61,-137.59"/>
</a>
</g>
</g>
<!-- Node22 -->
<g id="Node000022" class="node">
<title>Node22</title>
<g id="a_Node000022"><a xlink:href="_screen_manager_8cpp.html" target="_top" xlink:title="Implements the ScreenManager class for managing the OLED display and screen lifecycle.">
<polygon fill="white" stroke="#666666" points="2134.38,-91.38 2015.62,-91.38 2015.62,-72.12 2134.38,-72.12 2134.38,-91.38"/>
<text text-anchor="middle" x="2075" y="-77.88" font-family="Helvetica,sans-Serif" font-size="10.00">src/ScreenManager.cpp</text>
</a>
</g>
</g>
<!-- Node1&#45;&gt;Node22 -->
<g id="edge26_Node000001_Node000022" class="edge">
<title>Node1&#45;&gt;Node22</title>
<g id="a_edge26_Node000001_Node000022"><a xlink:title=" ">
<path fill="none" stroke="#63b8ff" d="M1744.61,-134.38C1807.87,-126.21 1912.4,-112.08 2002,-97 2011.17,-95.46 2020.95,-93.65 2030.28,-91.86"/>
<polygon fill="#63b8ff" stroke="#63b8ff" points="1744.26,-130.89 1734.79,-135.64 1745.15,-137.84 1744.26,-130.89"/>
</a>
</g>
</g>
<!-- Node23 -->
<g id="Node000023" class="node">
<title>Node23</title>
<g id="a_Node000023"><a xlink:href="_direct_command_screen_8cpp.html" target="_top" xlink:title="Implements a screen for sending raw parameter/value commands to the synthesizer.">
<polygon fill="white" stroke="#666666" points="2293.62,-97 2152.38,-97 2152.38,-66.5 2293.62,-66.5 2293.62,-97"/>
<text text-anchor="start" x="2160.38" y="-83.5" font-family="Helvetica,sans-Serif" font-size="10.00">src/screens/DirectCommand</text>
<text text-anchor="middle" x="2223" y="-72.25" font-family="Helvetica,sans-Serif" font-size="10.00">Screen.cpp</text>
</a>
</g>
</g>
<!-- Node1&#45;&gt;Node23 -->
<g id="edge34_Node000001_Node000023" class="edge">
<title>Node1&#45;&gt;Node23</title>
<g id="a_edge34_Node000001_Node000023"><a xlink:title=" ">
<path fill="none" stroke="#63b8ff" d="M1744.51,-137.46C1831.16,-130.85 2000.24,-116.67 2143,-97 2145.93,-96.6 2148.93,-96.16 2151.95,-95.71"/>
<polygon fill="#63b8ff" stroke="#63b8ff" points="1744.31,-133.96 1734.6,-138.21 1744.84,-140.94 1744.31,-133.96"/>
</a>
</g>
</g>
<!-- Node24 -->
<g id="Node000024" class="node">
<title>Node24</title>
<g id="a_Node000024"><a xlink:href="_run_mode_screen_8cpp.html" target="_top" xlink:title="Implements the screen for displaying and managing widgets during normal controller operation.">
<polygon fill="white" stroke="#666666" points="2472.75,-91.38 2311.25,-91.38 2311.25,-72.12 2472.75,-72.12 2472.75,-91.38"/>
<text text-anchor="middle" x="2392" y="-77.88" font-family="Helvetica,sans-Serif" font-size="10.00">src/screens/RunModeScreen.cpp</text>
</a>
</g>
</g>
<!-- Node1&#45;&gt;Node24 -->
<g id="edge35_Node000001_Node000024" class="edge">
<title>Node1&#45;&gt;Node24</title>
<g id="a_edge35_Node000001_Node000024"><a xlink:title=" ">
<path fill="none" stroke="#63b8ff" d="M1744.49,-139.12C1853.63,-134 2098.24,-120.76 2303,-97 2314.97,-95.61 2327.79,-93.77 2339.87,-91.87"/>
<polygon fill="#63b8ff" stroke="#63b8ff" points="1744.45,-135.62 1734.62,-139.58 1744.77,-142.61 1744.45,-135.62"/>
</a>
</g>
</g>
<!-- Node25 -->
<g id="Node000025" class="node">
<title>Node25</title>
<g id="a_Node000025"><a xlink:href="_knob_widget_8cpp.html" target="_top" xlink:title="Defines the base class for knob&#45;based widgets, providing shared bezel drawing behavior.">
<polygon fill="white" stroke="#666666" points="2631.62,-91.38 2490.38,-91.38 2490.38,-72.12 2631.62,-72.12 2631.62,-91.38"/>
<text text-anchor="middle" x="2561" y="-77.88" font-family="Helvetica,sans-Serif" font-size="10.00">src/widgets/KnobWidget.cpp</text>
</a>
</g>
</g>
<!-- Node1&#45;&gt;Node25 -->
<g id="edge38_Node000001_Node000025" class="edge">
<title>Node1&#45;&gt;Node25</title>
<g id="a_edge38_Node000001_Node000025"><a xlink:title=" ">
<path fill="none" stroke="#63b8ff" d="M1744.66,-140.8C1875.96,-138.41 2207.14,-129.38 2482,-97 2493.07,-95.7 2504.94,-93.81 2516.02,-91.85"/>
<polygon fill="#63b8ff" stroke="#63b8ff" points="1744.77,-137.3 1734.84,-140.98 1744.9,-144.3 1744.77,-137.3"/>
</a>
</g>
</g>
<!-- Node26 -->
<g id="Node000026" class="node">
<title>Node26</title>
<g id="a_Node000026"><a xlink:href="_rectangle_widget_8cpp.html" target="_top" xlink:title="Implements the RectangleWidget class for drawing rectangular shapes with optional fill and highlight ...">
<polygon fill="white" stroke="#666666" points="2812.5,-91.38 2649.5,-91.38 2649.5,-72.12 2812.5,-72.12 2812.5,-91.38"/>
<text text-anchor="middle" x="2731" y="-77.88" font-family="Helvetica,sans-Serif" font-size="10.00">src/widgets/RectangleWidget.cpp</text>
</a>
</g>
</g>
<!-- Node1&#45;&gt;Node26 -->
<g id="edge40_Node000001_Node000026" class="edge">
<title>Node1&#45;&gt;Node26</title>
<g id="a_edge40_Node000001_Node000026"><a xlink:title=" ">
<path fill="none" stroke="#63b8ff" d="M1744.37,-141.14C1892.93,-139.42 2302.2,-131.64 2641,-97 2653.59,-95.71 2667.1,-93.84 2679.73,-91.87"/>
<polygon fill="#63b8ff" stroke="#63b8ff" points="1744.77,-137.64 1734.81,-141.25 1744.85,-144.64 1744.77,-137.64"/>
</a>
</g>
</g>
<!-- Node27 -->
<g id="Node000027" class="node">
<title>Node27</title>
<g id="a_Node000027"><a xlink:href="_text_label_widget_8cpp.html" target="_top" xlink:title="Implements the TextLabelWidget class for displaying static text labels in the UI.">
<polygon fill="white" stroke="#666666" points="2991.38,-91.38 2830.62,-91.38 2830.62,-72.12 2991.38,-72.12 2991.38,-91.38"/>
<text text-anchor="middle" x="2911" y="-77.88" font-family="Helvetica,sans-Serif" font-size="10.00">src/widgets/TextLabelWidget.cpp</text>
</a>
</g>
</g>
<!-- Node1&#45;&gt;Node27 -->
<g id="edge42_Node000001_Node000027" class="edge">
<title>Node1&#45;&gt;Node27</title>
<g id="a_edge42_Node000001_Node000027"><a xlink:title=" ">
<path fill="none" stroke="#63b8ff" d="M1744.82,-141.79C1912.08,-141.73 2410.7,-137.86 2822,-97 2834.61,-95.75 2848.15,-93.86 2860.77,-91.87"/>
<polygon fill="#63b8ff" stroke="#63b8ff" points="1744.87,-138.29 1734.87,-141.78 1744.87,-145.29 1744.87,-138.29"/>
</a>
</g>
</g>
<!-- Node2&#45;&gt;Node3 -->
<g id="edge2_Node000002_Node000003" class="edge">
<title>Node2&#45;&gt;Node3</title>
<g id="a_edge2_Node000002_Node000003"><a xlink:title=" ">
<path fill="none" stroke="#63b8ff" d="M1238.9,-81.41C1047.84,-82.08 550.64,-78.63 139,-30.5 128.34,-29.25 116.92,-27.34 106.32,-25.32"/>
<polygon fill="#63b8ff" stroke="#63b8ff" points="1238.72,-84.91 1248.71,-81.37 1238.69,-77.91 1238.72,-84.91"/>
</a>
</g>
</g>
<!-- Node2&#45;&gt;Node4 -->
<g id="edge3_Node000002_Node000004" class="edge">
<title>Node2&#45;&gt;Node4</title>
<g id="a_edge3_Node000002_Node000004"><a xlink:title=" ">
<path fill="none" stroke="#63b8ff" d="M1238.96,-79.3C1023.54,-75.04 434.8,-60.88 243,-30.5 235.33,-29.28 227.16,-27.36 219.63,-25.31"/>
<polygon fill="#63b8ff" stroke="#63b8ff" points="1238.89,-82.8 1248.96,-79.5 1239.03,-75.8 1238.89,-82.8"/>
</a>
</g>
</g>
<!-- Node2&#45;&gt;Node5 -->
<g id="edge4_Node000002_Node000005" class="edge">
<title>Node2&#45;&gt;Node5</title>
<g id="a_edge4_Node000002_Node000005"><a xlink:title=" ">
<path fill="none" stroke="#63b8ff" d="M1239,-80.88C1075.53,-80.18 691.73,-73.61 373,-30.5 363.73,-29.25 353.81,-27.36 344.6,-25.36"/>
<polygon fill="#63b8ff" stroke="#63b8ff" points="1238.86,-84.38 1248.87,-80.91 1238.88,-77.38 1238.86,-84.38"/>
</a>
</g>
</g>
<!-- Node2&#45;&gt;Node6 -->
<g id="edge5_Node000002_Node000006" class="edge">
<title>Node2&#45;&gt;Node6</title>
<g id="a_edge5_Node000002_Node000006"><a xlink:title=" ">
<path fill="none" stroke="#63b8ff" d="M1238.99,-78.59C1055.82,-73.22 610.44,-57.73 463,-30.5 456.39,-29.28 449.4,-27.38 442.95,-25.36"/>
<polygon fill="#63b8ff" stroke="#63b8ff" points="1238.8,-82.08 1248.9,-78.87 1239,-75.08 1238.8,-82.08"/>
</a>
</g>
</g>
<!-- Node2&#45;&gt;Node7 -->
<g id="edge6_Node000002_Node000007" class="edge">
<title>Node2&#45;&gt;Node7</title>
<g id="a_edge6_Node000002_Node000007"><a xlink:title=" ">
<path fill="none" stroke="#63b8ff" d="M1239.04,-77.93C1108.44,-72.67 841.41,-59.21 617,-30.5 606.35,-29.14 594.94,-27.26 584.25,-25.31"/>
<polygon fill="#63b8ff" stroke="#63b8ff" points="1238.85,-81.43 1248.98,-78.32 1239.12,-74.43 1238.85,-81.43"/>
</a>
</g>
</g>
<!-- Node2&#45;&gt;Node8 -->
<g id="edge7_Node000002_Node000008" class="edge">
<title>Node2&#45;&gt;Node8</title>
<g id="a_edge7_Node000002_Node000008"><a xlink:title=" ">
<path fill="none" stroke="#63b8ff" d="M1238.84,-74.48C1136.57,-66.14 954.31,-50.15 799,-30.5 787.26,-29.01 774.7,-27.2 762.78,-25.36"/>
<polygon fill="#63b8ff" stroke="#63b8ff" points="1238.54,-77.97 1248.79,-75.29 1239.11,-70.99 1238.54,-77.97"/>
</a>
</g>
</g>
<!-- Node2&#45;&gt;Node9 -->
<g id="edge8_Node000002_Node000009" class="edge">
<title>Node2&#45;&gt;Node9</title>
<g id="a_edge8_Node000002_Node000009"><a xlink:title=" ">
<path fill="none" stroke="#63b8ff" d="M1248.25,-69.94C1166.47,-57.44 1033.33,-37.09 956.6,-25.36"/>
<polygon fill="#63b8ff" stroke="#63b8ff" points="1247.52,-73.37 1257.94,-71.42 1248.58,-66.45 1247.52,-73.37"/>
</a>
</g>
</g>
<!-- Node2&#45;&gt;Node10 -->
<g id="edge9_Node000002_Node000010" class="edge">
<title>Node2&#45;&gt;Node10</title>
<g id="a_edge9_Node000002_Node000010"><a xlink:title=" ">
<path fill="none" stroke="#63b8ff" d="M1272.46,-68.84C1223.3,-56.26 1146.86,-36.69 1102.39,-25.31"/>
<polygon fill="#63b8ff" stroke="#63b8ff" points="1271.41,-72.18 1281.96,-71.27 1273.14,-65.4 1271.41,-72.18"/>
</a>
</g>
</g>
<!-- Node2&#45;&gt;Node11 -->
<g id="edge10_Node000002_Node000011" class="edge">
<title>Node2&#45;&gt;Node11</title>
<g id="a_edge10_Node000002_Node000011"><a xlink:title=" ">
<path fill="none" stroke="#63b8ff" d="M1399.09,-78.45C1609.76,-72.14 2175.95,-53.52 2362,-30.5 2364.62,-30.18 2367.29,-29.81 2369.98,-29.41"/>
<polygon fill="#63b8ff" stroke="#63b8ff" points="1399.23,-74.94 1389.34,-78.74 1399.44,-81.94 1399.23,-74.94"/>
</a>
</g>
</g>
<!-- Node12 -->
<g id="Node000012" class="node">
<title>Node12</title>
<g id="a_Node000012"><a xlink:href="_knob_config_dialog_8cpp.html" target="_top" xlink:title=" ">
<polygon fill="white" stroke="#666666" points="1315.75,-24.88 1148.25,-24.88 1148.25,-5.63 1315.75,-5.63 1315.75,-24.88"/>
<text text-anchor="middle" x="1232" y="-11.38" font-family="Helvetica,sans-Serif" font-size="10.00">src/screens/KnobConfigDialog.cpp</text>
</a>
</g>
</g>
<!-- Node2&#45;&gt;Node12 -->
<g id="edge11_Node000002_Node000012" class="edge">
<title>Node2&#45;&gt;Node12</title>
<g id="a_edge11_Node000002_Node000012"><a xlink:title=" ">
<path fill="none" stroke="#63b8ff" d="M1297.84,-65.06C1281.05,-52.61 1258.17,-35.65 1244.27,-25.35"/>
<polygon fill="#63b8ff" stroke="#63b8ff" points="1295.57,-67.74 1305.69,-70.88 1299.74,-62.11 1295.57,-67.74"/>
</a>
</g>
</g>
<!-- Node13 -->
<g id="Node000013" class="node">
<title>Node13</title>
<g id="a_Node000013"><a xlink:href="_shared_control_screen_utility_8cpp.html" target="_top" xlink:title="Provides layout helper utilities for constructing shared UI control screens.">
<polygon fill="white" stroke="#666666" points="2646.12,-30.5 2513.88,-30.5 2513.88,0 2646.12,0 2646.12,-30.5"/>
<text text-anchor="start" x="2521.88" y="-17" font-family="Helvetica,sans-Serif" font-size="10.00">src/screens/SharedControl</text>
<text text-anchor="middle" x="2580" y="-5.75" font-family="Helvetica,sans-Serif" font-size="10.00">ScreenUtility.cpp</text>
</a>
</g>
</g>
<!-- Node2&#45;&gt;Node13 -->
<g id="edge12_Node000002_Node000013" class="edge">
<title>Node2&#45;&gt;Node13</title>
<g id="a_edge12_Node000002_Node000013"><a xlink:title=" ">
<path fill="none" stroke="#63b8ff" d="M1398.94,-78.04C1647.38,-69.52 2395.99,-43.1 2505,-30.5 2507.76,-30.18 2510.58,-29.82 2513.42,-29.42"/>
<polygon fill="#63b8ff" stroke="#63b8ff" points="1398.88,-74.54 1389,-78.38 1399.11,-81.53 1398.88,-74.54"/>
</a>
</g>
</g>
<!-- Node2&#45;&gt;Node14 -->
<g id="edge13_Node000002_Node000014" class="edge">
<title>Node2&#45;&gt;Node14</title>
<g id="a_edge13_Node000002_Node000014"><a xlink:title=" ">
<path fill="none" stroke="#63b8ff" d="M1398.94,-70.16C1471.15,-60.43 1580.32,-45.31 1675,-30.5 1685.26,-28.9 1696.21,-27.09 1706.68,-25.31"/>
<polygon fill="#63b8ff" stroke="#63b8ff" points="1398.61,-66.67 1389.17,-71.47 1399.55,-73.61 1398.61,-66.67"/>
</a>
</g>
</g>
<!-- Node15 -->
<g id="Node000015" class="node">
<title>Node15</title>
<g id="a_Node000015"><a xlink:href="_encoder_attached_numeric_widget_8cpp.html" target="_top" xlink:title="UI widget displaying and controlling a numeric value using an encoder.">
<polygon fill="white" stroke="#666666" points="1478.12,-30.5 1333.88,-30.5 1333.88,0 1478.12,0 1478.12,-30.5"/>
<text text-anchor="start" x="1341.88" y="-17" font-family="Helvetica,sans-Serif" font-size="10.00">src/widgets/EncoderAttached</text>
<text text-anchor="middle" x="1406" y="-5.75" font-family="Helvetica,sans-Serif" font-size="10.00">NumericWidget.cpp</text>
</a>
</g>
</g>
<!-- Node2&#45;&gt;Node15 -->
<g id="edge14_Node000002_Node000015" class="edge">
<title>Node2&#45;&gt;Node15</title>
<g id="a_edge14_Node000002_Node000015"><a xlink:title=" ">
<path fill="none" stroke="#63b8ff" d="M1340.04,-65.15C1354.12,-54.71 1372.53,-41.06 1386.32,-30.84"/>
<polygon fill="#63b8ff" stroke="#63b8ff" points="1338.26,-62.11 1332.31,-70.88 1342.43,-67.74 1338.26,-62.11"/>
</a>
</g>
</g>
<!-- Node2&#45;&gt;Node16 -->
<g id="edge15_Node000002_Node000016" class="edge">
<title>Node2&#45;&gt;Node16</title>
<g id="a_edge15_Node000002_Node000016"><a xlink:title=" ">
<path fill="none" stroke="#63b8ff" d="M1398.7,-74.32C1501.2,-65.77 1684.63,-49.5 1841,-30.5 1853.42,-28.99 1866.7,-27.17 1879.33,-25.35"/>
<polygon fill="#63b8ff" stroke="#63b8ff" points="1398.71,-70.81 1389.03,-75.13 1399.29,-77.79 1398.71,-70.81"/>
</a>
</g>
</g>
<!-- Node2&#45;&gt;Node17 -->
<g id="edge16_Node000002_Node000017" class="edge">
<title>Node2&#45;&gt;Node17</title>
<g id="a_edge16_Node000002_Node000017"><a xlink:title=" ">
<path fill="none" stroke="#63b8ff" d="M1398.98,-78.28C1531.78,-73.49 1805.92,-60.6 2036,-30.5 2038.85,-30.13 2041.76,-29.71 2044.7,-29.27"/>
<polygon fill="#63b8ff" stroke="#63b8ff" points="1399.12,-74.78 1389.25,-78.63 1399.37,-81.77 1399.12,-74.78"/>
</a>
</g>
</g>
<!-- Node18 -->
<g id="Node000018" class="node">
<title>Node18</title>
<g id="a_Node000018"><a xlink:href="_push_button_widget_8cpp.html" target="_top" xlink:title="Implements the PushButtonWidget class, which represents a UI button with encoder interaction support.">
<polygon fill="white" stroke="#666666" points="1665.88,-24.88 1496.12,-24.88 1496.12,-5.63 1665.88,-5.63 1665.88,-24.88"/>
<text text-anchor="middle" x="1581" y="-11.38" font-family="Helvetica,sans-Serif" font-size="10.00">src/widgets/PushButtonWidget.cpp</text>
</a>
</g>
</g>
<!-- Node2&#45;&gt;Node18 -->
<g id="edge17_Node000002_Node000018" class="edge">
<title>Node2&#45;&gt;Node18</title>
<g id="a_edge17_Node000002_Node000018"><a xlink:title=" ">
<path fill="none" stroke="#63b8ff" d="M1367.06,-68.92C1418.16,-56.34 1497.87,-36.71 1544.21,-25.31"/>
<polygon fill="#63b8ff" stroke="#63b8ff" points="1366.33,-65.49 1357.45,-71.28 1368,-72.29 1366.33,-65.49"/>
</a>
</g>
</g>
<!-- Node2&#45;&gt;Node19 -->
<g id="edge18_Node000002_Node000019" class="edge">
<title>Node2&#45;&gt;Node19</title>
<g id="a_edge18_Node000002_Node000019"><a xlink:title=" ">
<path fill="none" stroke="#63b8ff" d="M1398.7,-78.8C1551.45,-74.48 1895.86,-61.86 2184,-30.5 2196.29,-29.16 2209.47,-27.29 2221.82,-25.35"/>
<polygon fill="#63b8ff" stroke="#63b8ff" points="1399.01,-75.29 1389.11,-79.07 1399.2,-82.29 1399.01,-75.29"/>
</a>
</g>
</g>
<!-- Node20&#45;&gt;Node11 -->
<g id="edge21_Node000020_Node000011" class="edge">
<title>Node20&#45;&gt;Node11</title>
<g id="a_edge21_Node000020_Node000011"><a xlink:title=" ">
<path fill="none" stroke="#63b8ff" d="M1971.46,-66.83C1972.31,-66.72 1973.16,-66.61 1974,-66.5 2145.82,-44.8 2190.64,-55.57 2362,-30.5 2364.61,-30.12 2367.27,-29.7 2369.96,-29.26"/>
<polygon fill="#63b8ff" stroke="#63b8ff" points="1971.15,-63.33 1961.71,-68.15 1972.09,-70.27 1971.15,-63.33"/>
</a>
</g>
</g>
<!-- Node20&#45;&gt;Node13 -->
<g id="edge22_Node000020_Node000013" class="edge">
<title>Node20&#45;&gt;Node13</title>
<g id="a_edge22_Node000020_Node000013"><a xlink:title=" ">
<path fill="none" stroke="#63b8ff" d="M1971.45,-66.8C1972.3,-66.69 1973.15,-66.6 1974,-66.5 2209.03,-39.77 2270.39,-60.63 2505,-30.5 2507.76,-30.15 2510.57,-29.75 2513.41,-29.33"/>
<polygon fill="#63b8ff" stroke="#63b8ff" points="1971.18,-63.3 1961.7,-68.03 1972.06,-70.25 1971.18,-63.3"/>
</a>
</g>
</g>
<!-- Node20&#45;&gt;Node21 -->
<g id="edge20_Node000020_Node000021" class="edge">
<title>Node20&#45;&gt;Node21</title>
<g id="a_edge20_Node000020_Node000021"><a xlink:title=" ">
<path fill="none" stroke="#63b8ff" d="M1971.45,-66.78C1972.3,-66.68 1973.15,-66.59 1974,-66.5 2275.39,-34.5 2353.79,-64.2 2655,-30.5 2666.62,-29.2 2679.09,-27.32 2690.73,-25.35"/>
<polygon fill="#63b8ff" stroke="#63b8ff" points="1971.2,-63.28 1961.69,-67.96 1972.04,-70.23 1971.2,-63.28"/>
</a>
</g>
</g>
</g>
</svg>
