<?xml version="1.0" encoding="UTF-8" standalone="no"?>
<!DOCTYPE svg PUBLIC "-//W3C//DTD SVG 1.1//EN"
 "http://www.w3.org/Graphics/SVG/1.1/DTD/svg11.dtd">
<!-- Generated by graphviz version 12.2.1 (20241206.2353)
 -->
<!-- Title: include/Logging.h Pages: 1 -->
<svg width="140pt" height="83pt"
 viewBox="0.00 0.00 139.50 82.50" xmlns="http://www.w3.org/2000/svg" xmlns:xlink="http://www.w3.org/1999/xlink">
<g id="graph0" class="graph" transform="scale(1 1) rotate(0) translate(4 78.5)">
<title>include/Logging.h</title>
<!-- Node1 -->
<g id="Node000001" class="node">
<title>Node1</title>
<g id="a_Node000001"><a xlink:title="Lightweight logging utility for serial output in the JMR800&#45;V2 project.">
<polygon fill="#999999" stroke="#666666" points="111.5,-74.5 19.75,-74.5 19.75,-55.25 111.5,-55.25 111.5,-74.5"/>
<text text-anchor="middle" x="65.62" y="-61" font-family="Helvetica,sans-Serif" font-size="10.00">include/Logging.h</text>
</a>
</g>
</g>
<!-- Node2 -->
<g id="Node000002" class="node">
<title>Node2</title>
<g id="a_Node000002"><a xlink:title=" ">
<polygon fill="#e0e0e0" stroke="#999999" points="57.25,-19.25 0,-19.25 0,0 57.25,0 57.25,-19.25"/>
<text text-anchor="middle" x="28.62" y="-5.75" font-family="Helvetica,sans-Serif" font-size="10.00">Arduino.h</text>
</a>
</g>
</g>
<!-- Node1&#45;&gt;Node2 -->
<g id="edge1_Node000001_Node000002" class="edge">
<title>Node1&#45;&gt;Node2</title>
<g id="a_edge1_Node000001_Node000002"><a xlink:title=" ">
<path fill="none" stroke="#63b8ff" d="M59.52,-55.08C54.56,-47.96 47.42,-37.68 41.25,-28.8"/>
<polygon fill="#63b8ff" stroke="#63b8ff" points="44.31,-27.07 35.73,-20.85 38.56,-31.06 44.31,-27.07"/>
</a>
</g>
</g>
<!-- Node3 -->
<g id="Node000003" class="node">
<title>Node3</title>
<g id="a_Node000003"><a xlink:href="defines_8h.html" target="_top" xlink:title="Hardware pin definitions and global constants for JMR800&#45;V2.">
<polygon fill="white" stroke="#666666" points="131.5,-19.25 75.75,-19.25 75.75,0 131.5,0 131.5,-19.25"/>
<text text-anchor="middle" x="103.62" y="-5.75" font-family="Helvetica,sans-Serif" font-size="10.00">defines.h</text>
</a>
</g>
</g>
<!-- Node1&#45;&gt;Node3 -->
<g id="edge2_Node000001_Node000003" class="edge">
<title>Node1&#45;&gt;Node3</title>
<g id="a_edge2_Node000001_Node000003"><a xlink:title=" ">
<path fill="none" stroke="#63b8ff" d="M71.9,-55.08C76.98,-47.96 84.32,-37.68 90.66,-28.8"/>
<polygon fill="#63b8ff" stroke="#63b8ff" points="93.37,-31.01 96.33,-20.84 87.68,-26.95 93.37,-31.01"/>
</a>
</g>
</g>
</g>
</svg>
