<?xml version="1.0" encoding="UTF-8" standalone="no"?>
<!DOCTYPE svg PUBLIC "-//W3C//DTD SVG 1.1//EN"
 "http://www.w3.org/Graphics/SVG/1.1/DTD/svg11.dtd">
<!-- Generated by graphviz version 12.2.1 (20241206.2353)
 -->
<!-- Title: src/ModeManager.cpp Pages: 1 -->
<svg width="732pt" height="193pt"
 viewBox="0.00 0.00 731.75 193.00" xmlns="http://www.w3.org/2000/svg" xmlns:xlink="http://www.w3.org/1999/xlink">
<g id="graph0" class="graph" transform="scale(1 1) rotate(0) translate(4 189)">
<title>src/ModeManager.cpp</title>
<!-- Node1 -->
<g id="Node000001" class="node">
<title>Node1</title>
<g id="a_Node000001"><a xlink:title="Implements the ModeManager class responsible for managing application modes.">
<polygon fill="#999999" stroke="#666666" points="426.88,-185 314.88,-185 314.88,-165.75 426.88,-165.75 426.88,-185"/>
<text text-anchor="middle" x="370.88" y="-171.5" font-family="Helvetica,sans-Serif" font-size="10.00">src/ModeManager.cpp</text>
</a>
</g>
</g>
<!-- Node2 -->
<g id="Node000002" class="node">
<title>Node2</title>
<g id="a_Node000002"><a xlink:href="_mode_manager_8h.html" target="_top" xlink:title="Declares the ModeManager class for managing application modes in JMR800&#45;V2.">
<polygon fill="white" stroke="#666666" points="179.38,-129.75 94.38,-129.75 94.38,-110.5 179.38,-110.5 179.38,-129.75"/>
<text text-anchor="middle" x="136.88" y="-116.25" font-family="Helvetica,sans-Serif" font-size="10.00">ModeManager.h</text>
</a>
</g>
</g>
<!-- Node1&#45;&gt;Node2 -->
<g id="edge1_Node000001_Node000002" class="edge">
<title>Node1&#45;&gt;Node2</title>
<g id="a_edge1_Node000001_Node000002"><a xlink:title=" ">
<path fill="none" stroke="#63b8ff" d="M330.91,-165.28C291.37,-156.28 230.7,-142.48 187.74,-132.7"/>
<polygon fill="#63b8ff" stroke="#63b8ff" points="188.67,-129.32 178.15,-130.52 187.12,-136.15 188.67,-129.32"/>
</a>
</g>
</g>
<!-- Node6 -->
<g id="Node000006" class="node">
<title>Node6</title>
<g id="a_Node000006"><a xlink:href="_hardware_manager_8h.html" target="_top" xlink:title="Manages hardware input/output for analog controls, digital buttons, encoder, and serial communication...">
<polygon fill="white" stroke="#666666" points="422.38,-129.75 319.38,-129.75 319.38,-110.5 422.38,-110.5 422.38,-129.75"/>
<text text-anchor="middle" x="370.88" y="-116.25" font-family="Helvetica,sans-Serif" font-size="10.00">HardwareManager.h</text>
</a>
</g>
</g>
<!-- Node1&#45;&gt;Node6 -->
<g id="edge5_Node000001_Node000006" class="edge">
<title>Node1&#45;&gt;Node6</title>
<g id="a_edge5_Node000001_Node000006"><a xlink:title=" ">
<path fill="none" stroke="#63b8ff" d="M370.88,-165.58C370.88,-159.07 370.88,-149.92 370.88,-141.62"/>
<polygon fill="#63b8ff" stroke="#63b8ff" points="374.38,-141.62 370.88,-131.62 367.38,-141.62 374.38,-141.62"/>
</a>
</g>
</g>
<!-- Node14 -->
<g id="Node000014" class="node">
<title>Node14</title>
<g id="a_Node000014"><a xlink:href="_logging_8h.html" target="_top" xlink:title="Lightweight logging utility for serial output in the JMR800&#45;V2 project.">
<polygon fill="white" stroke="#666666" points="696.88,-74.5 638.88,-74.5 638.88,-55.25 696.88,-55.25 696.88,-74.5"/>
<text text-anchor="middle" x="667.88" y="-61" font-family="Helvetica,sans-Serif" font-size="10.00">Logging.h</text>
</a>
</g>
</g>
<!-- Node1&#45;&gt;Node14 -->
<g id="edge17_Node000001_Node000014" class="edge">
<title>Node1&#45;&gt;Node14</title>
<g id="a_edge17_Node000001_Node000014"><a xlink:title=" ">
<path fill="none" stroke="#63b8ff" d="M395.69,-165.31C448.32,-146.08 571.31,-101.15 632.29,-78.87"/>
<polygon fill="#63b8ff" stroke="#63b8ff" points="633.31,-82.23 641.5,-75.51 630.91,-75.65 633.31,-82.23"/>
</a>
</g>
</g>
<!-- Node3 -->
<g id="Node000003" class="node">
<title>Node3</title>
<g id="a_Node000003"><a xlink:title=" ">
<polygon fill="#e0e0e0" stroke="#999999" points="158.38,-74.5 115.38,-74.5 115.38,-55.25 158.38,-55.25 158.38,-74.5"/>
<text text-anchor="middle" x="136.88" y="-61" font-family="Helvetica,sans-Serif" font-size="10.00">vector</text>
</a>
</g>
</g>
<!-- Node2&#45;&gt;Node3 -->
<g id="edge2_Node000002_Node000003" class="edge">
<title>Node2&#45;&gt;Node3</title>
<g id="a_edge2_Node000002_Node000003"><a xlink:title=" ">
<path fill="none" stroke="#63b8ff" d="M136.88,-110.33C136.88,-103.82 136.88,-94.67 136.88,-86.37"/>
<polygon fill="#63b8ff" stroke="#63b8ff" points="140.38,-86.37 136.88,-76.37 133.38,-86.37 140.38,-86.37"/>
</a>
</g>
</g>
<!-- Node4 -->
<g id="Node000004" class="node">
<title>Node4</title>
<g id="a_Node000004"><a xlink:href="_app_mode_8h.html" target="_top" xlink:title="Abstract interface for application mode behavior.">
<polygon fill="white" stroke="#666666" points="97.75,-74.5 0,-74.5 0,-55.25 97.75,-55.25 97.75,-74.5"/>
<text text-anchor="middle" x="48.88" y="-61" font-family="Helvetica,sans-Serif" font-size="10.00">modes/AppMode.h</text>
</a>
</g>
</g>
<!-- Node2&#45;&gt;Node4 -->
<g id="edge3_Node000002_Node000004" class="edge">
<title>Node2&#45;&gt;Node4</title>
<g id="a_edge3_Node000002_Node000004"><a xlink:title=" ">
<path fill="none" stroke="#63b8ff" d="M121.95,-110.09C108.67,-102.06 89.01,-90.16 73.42,-80.73"/>
<polygon fill="#63b8ff" stroke="#63b8ff" points="75.54,-77.92 65.17,-75.74 71.91,-83.91 75.54,-77.92"/>
</a>
</g>
</g>
<!-- Node5 -->
<g id="Node000005" class="node">
<title>Node5</title>
<g id="a_Node000005"><a xlink:href="_screen_8h.html" target="_top" xlink:title="Abstract interface for all UI screens in the JMR800&#45;V2 system.">
<polygon fill="white" stroke="#666666" points="95.12,-19.25 2.62,-19.25 2.62,0 95.12,0 95.12,-19.25"/>
<text text-anchor="middle" x="48.88" y="-5.75" font-family="Helvetica,sans-Serif" font-size="10.00">screens/Screen.h</text>
</a>
</g>
</g>
<!-- Node4&#45;&gt;Node5 -->
<g id="edge4_Node000004_Node000005" class="edge">
<title>Node4&#45;&gt;Node5</title>
<g id="a_edge4_Node000004_Node000005"><a xlink:title=" ">
<path fill="none" stroke="#63b8ff" d="M48.88,-55.08C48.88,-48.57 48.88,-39.42 48.88,-31.12"/>
<polygon fill="#63b8ff" stroke="#63b8ff" points="52.38,-31.12 48.88,-21.12 45.38,-31.12 52.38,-31.12"/>
</a>
</g>
</g>
<!-- Node6&#45;&gt;Node3 -->
<g id="edge12_Node000006_Node000003" class="edge">
<title>Node6&#45;&gt;Node3</title>
<g id="a_edge12_Node000006_Node000003"><a xlink:title=" ">
<path fill="none" stroke="#63b8ff" d="M329.88,-110.06C289.82,-101.15 227.1,-87.11 172.88,-74.5 171.72,-74.23 170.54,-73.96 169.35,-73.68"/>
<polygon fill="#63b8ff" stroke="#63b8ff" points="170.58,-70.37 160.04,-71.47 168.96,-77.18 170.58,-70.37"/>
</a>
</g>
</g>
<!-- Node7 -->
<g id="Node000007" class="node">
<title>Node7</title>
<g id="a_Node000007"><a xlink:title=" ">
<polygon fill="#e0e0e0" stroke="#999999" points="432.5,-19.25 375.25,-19.25 375.25,0 432.5,0 432.5,-19.25"/>
<text text-anchor="middle" x="403.88" y="-5.75" font-family="Helvetica,sans-Serif" font-size="10.00">Arduino.h</text>
</a>
</g>
</g>
<!-- Node6&#45;&gt;Node7 -->
<g id="edge6_Node000006_Node000007" class="edge">
<title>Node6&#45;&gt;Node7</title>
<g id="a_edge6_Node000006_Node000007"><a xlink:title=" ">
<path fill="none" stroke="#63b8ff" d="M319.1,-116.38C259.2,-111.25 172.78,-96.63 205.88,-55.25 225.26,-31.01 311.74,-19 363.78,-13.86"/>
<polygon fill="#63b8ff" stroke="#63b8ff" points="363.82,-17.38 373.45,-12.96 363.17,-10.41 363.82,-17.38"/>
</a>
</g>
</g>
<!-- Node8 -->
<g id="Node000008" class="node">
<title>Node8</title>
<g id="a_Node000008"><a xlink:title=" ">
<polygon fill="#e0e0e0" stroke="#999999" points="502.62,-74.5 419.12,-74.5 419.12,-55.25 502.62,-55.25 502.62,-74.5"/>
<text text-anchor="middle" x="460.88" y="-61" font-family="Helvetica,sans-Serif" font-size="10.00">Adafruit_GFX.h</text>
</a>
</g>
</g>
<!-- Node6&#45;&gt;Node8 -->
<g id="edge7_Node000006_Node000008" class="edge">
<title>Node6&#45;&gt;Node8</title>
<g id="a_edge7_Node000006_Node000008"><a xlink:title=" ">
<path fill="none" stroke="#63b8ff" d="M386.14,-110.09C399.72,-102.06 419.83,-90.16 435.77,-80.73"/>
<polygon fill="#63b8ff" stroke="#63b8ff" points="437.41,-83.83 444.23,-75.72 433.84,-77.8 437.41,-83.83"/>
</a>
</g>
</g>
<!-- Node9 -->
<g id="Node000009" class="node">
<title>Node9</title>
<g id="a_Node000009"><a xlink:title=" ">
<polygon fill="#e0e0e0" stroke="#999999" points="620.88,-74.5 520.88,-74.5 520.88,-55.25 620.88,-55.25 620.88,-74.5"/>
<text text-anchor="middle" x="570.88" y="-61" font-family="Helvetica,sans-Serif" font-size="10.00">Adafruit_SH110X.h</text>
</a>
</g>
</g>
<!-- Node6&#45;&gt;Node9 -->
<g id="edge8_Node000006_Node000009" class="edge">
<title>Node6&#45;&gt;Node9</title>
<g id="a_edge8_Node000006_Node000009"><a xlink:title=" ">
<path fill="none" stroke="#63b8ff" d="M404.8,-110.09C438.13,-101.22 489.19,-87.62 525.89,-77.85"/>
<polygon fill="#63b8ff" stroke="#63b8ff" points="526.56,-81.3 535.32,-75.34 524.75,-74.53 526.56,-81.3"/>
</a>
</g>
</g>
<!-- Node10 -->
<g id="Node000010" class="node">
<title>Node10</title>
<g id="a_Node000010"><a xlink:title=" ">
<polygon fill="#e0e0e0" stroke="#999999" points="259.12,-74.5 214.62,-74.5 214.62,-55.25 259.12,-55.25 259.12,-74.5"/>
<text text-anchor="middle" x="236.88" y="-61" font-family="Helvetica,sans-Serif" font-size="10.00">Wire.h</text>
</a>
</g>
</g>
<!-- Node6&#45;&gt;Node10 -->
<g id="edge9_Node000006_Node000010" class="edge">
<title>Node6&#45;&gt;Node10</title>
<g id="a_edge9_Node000006_Node000010"><a xlink:title=" ">
<path fill="none" stroke="#63b8ff" d="M348.14,-110.09C326.65,-101.55 294.14,-88.63 269.81,-78.96"/>
<polygon fill="#63b8ff" stroke="#63b8ff" points="271.26,-75.77 260.68,-75.33 268.68,-82.28 271.26,-75.77"/>
</a>
</g>
</g>
<!-- Node11 -->
<g id="Node000011" class="node">
<title>Node11</title>
<g id="a_Node000011"><a xlink:title=" ">
<polygon fill="#e0e0e0" stroke="#999999" points="322.88,-74.5 276.88,-74.5 276.88,-55.25 322.88,-55.25 322.88,-74.5"/>
<text text-anchor="middle" x="299.88" y="-61" font-family="Helvetica,sans-Serif" font-size="10.00">ADC.h</text>
</a>
</g>
</g>
<!-- Node6&#45;&gt;Node11 -->
<g id="edge10_Node000006_Node000011" class="edge">
<title>Node6&#45;&gt;Node11</title>
<g id="a_edge10_Node000006_Node000011"><a xlink:title=" ">
<path fill="none" stroke="#63b8ff" d="M358.83,-110.09C348.47,-102.32 333.27,-90.92 320.91,-81.65"/>
<polygon fill="#63b8ff" stroke="#63b8ff" points="323.05,-78.88 312.95,-75.68 318.85,-84.48 323.05,-78.88"/>
</a>
</g>
</g>
<!-- Node12 -->
<g id="Node000012" class="node">
<title>Node12</title>
<g id="a_Node000012"><a xlink:title=" ">
<polygon fill="#e0e0e0" stroke="#999999" points="400.62,-74.5 341.12,-74.5 341.12,-55.25 400.62,-55.25 400.62,-74.5"/>
<text text-anchor="middle" x="370.88" y="-61" font-family="Helvetica,sans-Serif" font-size="10.00">Encoder.h</text>
</a>
</g>
</g>
<!-- Node6&#45;&gt;Node12 -->
<g id="edge11_Node000006_Node000012" class="edge">
<title>Node6&#45;&gt;Node12</title>
<g id="a_edge11_Node000006_Node000012"><a xlink:title=" ">
<path fill="none" stroke="#63b8ff" d="M370.88,-110.33C370.88,-103.82 370.88,-94.67 370.88,-86.37"/>
<polygon fill="#63b8ff" stroke="#63b8ff" points="374.38,-86.37 370.88,-76.37 367.38,-86.37 374.38,-86.37"/>
</a>
</g>
</g>
<!-- Node13 -->
<g id="Node000013" class="node">
<title>Node13</title>
<g id="a_Node000013"><a xlink:href="defines_8h.html" target="_top" xlink:title="Hardware pin definitions and global constants for JMR800&#45;V2.">
<polygon fill="white" stroke="#666666" points="723.75,-19.25 668,-19.25 668,0 723.75,0 723.75,-19.25"/>
<text text-anchor="middle" x="695.88" y="-5.75" font-family="Helvetica,sans-Serif" font-size="10.00">defines.h</text>
</a>
</g>
</g>
<!-- Node6&#45;&gt;Node13 -->
<g id="edge13_Node000006_Node000013" class="edge">
<title>Node6&#45;&gt;Node13</title>
<g id="a_edge13_Node000006_Node000013"><a xlink:title=" ">
<path fill="none" stroke="#63b8ff" d="M422.53,-115.94C511.88,-109.89 687.52,-95.47 705.88,-74.5 716.49,-62.37 712.05,-43.75 706.11,-29.74"/>
<polygon fill="#63b8ff" stroke="#63b8ff" points="709.42,-28.55 701.93,-21.06 703.11,-31.59 709.42,-28.55"/>
</a>
</g>
</g>
<!-- Node6&#45;&gt;Node14 -->
<g id="edge14_Node000006_Node000014" class="edge">
<title>Node6&#45;&gt;Node14</title>
<g id="a_edge14_Node000006_Node000014"><a xlink:title=" ">
<path fill="none" stroke="#63b8ff" d="M422.62,-111.03C472.55,-103.04 550.54,-90.07 627.16,-74.96"/>
<polygon fill="#63b8ff" stroke="#63b8ff" points="627.84,-78.39 636.96,-73.01 626.47,-71.53 627.84,-78.39"/>
</a>
</g>
</g>
<!-- Node14&#45;&gt;Node7 -->
<g id="edge15_Node000014_Node000007" class="edge">
<title>Node14&#45;&gt;Node7</title>
<g id="a_edge15_Node000014_Node000007"><a xlink:title=" ">
<path fill="none" stroke="#63b8ff" d="M638.43,-57.11C635.54,-56.47 632.65,-55.84 629.88,-55.25 564.91,-41.47 489.14,-26.79 443.92,-18.18"/>
<polygon fill="#63b8ff" stroke="#63b8ff" points="444.79,-14.78 434.31,-16.35 443.48,-21.66 444.79,-14.78"/>
</a>
</g>
</g>
<!-- Node14&#45;&gt;Node13 -->
<g id="edge16_Node000014_Node000013" class="edge">
<title>Node14&#45;&gt;Node13</title>
<g id="a_edge16_Node000014_Node000013"><a xlink:title=" ">
<path fill="none" stroke="#63b8ff" d="M672.5,-55.08C676.12,-48.19 681.3,-38.34 685.87,-29.66"/>
<polygon fill="#63b8ff" stroke="#63b8ff" points="688.89,-31.43 690.45,-20.95 682.69,-28.17 688.89,-31.43"/>
</a>
</g>
</g>
</g>
</svg>
