<?xml version="1.0" encoding="UTF-8" standalone="no"?>
<!DOCTYPE svg PUBLIC "-//W3C//DTD SVG 1.1//EN"
 "http://www.w3.org/Graphics/SVG/1.1/DTD/svg11.dtd">
<!-- Generated by graphviz version 12.2.1 (20241206.2353)
 -->
<!-- Title: src/screens/ModalDialog.cpp Pages: 1 -->
<svg width="357pt" height="138pt"
 viewBox="0.00 0.00 356.88 137.75" xmlns="http://www.w3.org/2000/svg" xmlns:xlink="http://www.w3.org/1999/xlink">
<g id="graph0" class="graph" transform="scale(1 1) rotate(0) translate(4 133.75)">
<title>src/screens/ModalDialog.cpp</title>
<!-- Node1 -->
<g id="Node000001" class="node">
<title>Node1</title>
<g id="a_Node000001"><a xlink:title="Implements a base modal dialog screen used to temporarily take over UI control.">
<polygon fill="#999999" stroke="#666666" points="201.25,-129.75 58.5,-129.75 58.5,-110.5 201.25,-110.5 201.25,-129.75"/>
<text text-anchor="middle" x="129.88" y="-116.25" font-family="Helvetica,sans-Serif" font-size="10.00">src/screens/ModalDialog.cpp</text>
</a>
</g>
</g>
<!-- Node2 -->
<g id="Node000002" class="node">
<title>Node2</title>
<g id="a_Node000002"><a xlink:href="_modal_dialog_8h.html" target="_top" xlink:title="Abstract base class for modal dialogs in the JMR800&#45;V2 UI.">
<polygon fill="white" stroke="#666666" points="115.75,-74.5 0,-74.5 0,-55.25 115.75,-55.25 115.75,-74.5"/>
<text text-anchor="middle" x="57.88" y="-61" font-family="Helvetica,sans-Serif" font-size="10.00">screens/ModalDialog.h</text>
</a>
</g>
</g>
<!-- Node1&#45;&gt;Node2 -->
<g id="edge1_Node000001_Node000002" class="edge">
<title>Node1&#45;&gt;Node2</title>
<g id="a_edge1_Node000001_Node000002"><a xlink:title=" ">
<path fill="none" stroke="#63b8ff" d="M117.66,-110.09C107.05,-102.24 91.44,-90.7 78.83,-81.37"/>
<polygon fill="#63b8ff" stroke="#63b8ff" points="81.25,-78.81 71.13,-75.67 77.08,-84.44 81.25,-78.81"/>
</a>
</g>
</g>
<!-- Node4 -->
<g id="Node000004" class="node">
<title>Node4</title>
<g id="a_Node000004"><a xlink:href="_rectangle_widget_8h.html" target="_top" xlink:title="Displays a static rectangle, optionally filled, as part of the OLED UI.">
<polygon fill="white" stroke="#666666" points="269.88,-74.5 133.88,-74.5 133.88,-55.25 269.88,-55.25 269.88,-74.5"/>
<text text-anchor="middle" x="201.88" y="-61" font-family="Helvetica,sans-Serif" font-size="10.00">widgets/RectangleWidget.h</text>
</a>
</g>
</g>
<!-- Node1&#45;&gt;Node4 -->
<g id="edge3_Node000001_Node000004" class="edge">
<title>Node1&#45;&gt;Node4</title>
<g id="a_edge3_Node000001_Node000004"><a xlink:title=" ">
<path fill="none" stroke="#63b8ff" d="M142.09,-110.09C152.7,-102.24 168.31,-90.7 180.92,-81.37"/>
<polygon fill="#63b8ff" stroke="#63b8ff" points="182.67,-84.44 188.62,-75.67 178.5,-78.81 182.67,-84.44"/>
</a>
</g>
</g>
<!-- Node3 -->
<g id="Node000003" class="node">
<title>Node3</title>
<g id="a_Node000003"><a xlink:href="_screen_8h.html" target="_top" xlink:title="Abstract interface for all UI screens in the JMR800&#45;V2 system.">
<polygon fill="white" stroke="#666666" points="104.12,-19.25 11.62,-19.25 11.62,0 104.12,0 104.12,-19.25"/>
<text text-anchor="middle" x="57.88" y="-5.75" font-family="Helvetica,sans-Serif" font-size="10.00">screens/Screen.h</text>
</a>
</g>
</g>
<!-- Node2&#45;&gt;Node3 -->
<g id="edge2_Node000002_Node000003" class="edge">
<title>Node2&#45;&gt;Node3</title>
<g id="a_edge2_Node000002_Node000003"><a xlink:title=" ">
<path fill="none" stroke="#63b8ff" d="M57.88,-55.08C57.88,-48.57 57.88,-39.42 57.88,-31.12"/>
<polygon fill="#63b8ff" stroke="#63b8ff" points="61.38,-31.12 57.88,-21.12 54.38,-31.12 61.38,-31.12"/>
</a>
</g>
</g>
<!-- Node5 -->
<g id="Node000005" class="node">
<title>Node5</title>
<g id="a_Node000005"><a xlink:href="_widget_8h.html" target="_top" xlink:title="Abstract base class for UI widgets in the JMR800&#45;V2 OLED interface.">
<polygon fill="white" stroke="#666666" points="230.75,-19.25 139,-19.25 139,0 230.75,0 230.75,-19.25"/>
<text text-anchor="middle" x="184.88" y="-5.75" font-family="Helvetica,sans-Serif" font-size="10.00">widgets/Widget.h</text>
</a>
</g>
</g>
<!-- Node4&#45;&gt;Node5 -->
<g id="edge4_Node000004_Node000005" class="edge">
<title>Node4&#45;&gt;Node5</title>
<g id="a_edge4_Node000004_Node000005"><a xlink:title=" ">
<path fill="none" stroke="#63b8ff" d="M199.07,-55.08C196.94,-48.42 193.93,-38.99 191.23,-30.53"/>
<polygon fill="#63b8ff" stroke="#63b8ff" points="194.58,-29.51 188.2,-21.05 187.91,-31.64 194.58,-29.51"/>
</a>
</g>
</g>
<!-- Node6 -->
<g id="Node000006" class="node">
<title>Node6</title>
<g id="a_Node000006"><a xlink:title=" ">
<polygon fill="#e0e0e0" stroke="#999999" points="348.88,-19.25 248.88,-19.25 248.88,0 348.88,0 348.88,-19.25"/>
<text text-anchor="middle" x="298.88" y="-5.75" font-family="Helvetica,sans-Serif" font-size="10.00">Adafruit_SH110X.h</text>
</a>
</g>
</g>
<!-- Node4&#45;&gt;Node6 -->
<g id="edge5_Node000004_Node000006" class="edge">
<title>Node4&#45;&gt;Node6</title>
<g id="a_edge5_Node000004_Node000006"><a xlink:title=" ">
<path fill="none" stroke="#63b8ff" d="M218.33,-54.84C233.1,-46.73 255.05,-34.68 272.31,-25.21"/>
<polygon fill="#63b8ff" stroke="#63b8ff" points="273.93,-28.31 281.01,-20.43 270.56,-22.18 273.93,-28.31"/>
</a>
</g>
</g>
</g>
</svg>
