<?xml version="1.0" encoding="UTF-8" standalone="no"?>
<!DOCTYPE svg PUBLIC "-//W3C//DTD SVG 1.1//EN"
 "http://www.w3.org/Graphics/SVG/1.1/DTD/svg11.dtd">
<!-- Generated by graphviz version 12.2.1 (20241206.2353)
 -->
<!-- Title: include/widgets/PotentiometerKnobWidget.h Pages: 1 -->
<svg width="280pt" height="149pt"
 viewBox="0.00 0.00 279.62 149.00" xmlns="http://www.w3.org/2000/svg" xmlns:xlink="http://www.w3.org/1999/xlink">
<g id="graph0" class="graph" transform="scale(1 1) rotate(0) translate(4 145)">
<title>include/widgets/PotentiometerKnobWidget.h</title>
<!-- Node1 -->
<g id="Node000001" class="node">
<title>Node1</title>
<g id="a_Node000001"><a xlink:title="Visual representation of a physical potentiometer for the OLED UI.">
<polygon fill="#999999" stroke="#666666" points="233.5,-141 86.25,-141 86.25,-110.5 233.5,-110.5 233.5,-141"/>
<text text-anchor="start" x="94.25" y="-127.5" font-family="Helvetica,sans-Serif" font-size="10.00">include/widgets/Potentiometer</text>
<text text-anchor="middle" x="159.88" y="-116.25" font-family="Helvetica,sans-Serif" font-size="10.00">KnobWidget.h</text>
</a>
</g>
</g>
<!-- Node2 -->
<g id="Node000002" class="node">
<title>Node2</title>
<g id="a_Node000002"><a xlink:href="_knob_widget_8h.html" target="_top" xlink:title="Base class for knob&#45;style widgets in the JMR800&#45;V2 interface.">
<polygon fill="white" stroke="#666666" points="132,-74.5 17.75,-74.5 17.75,-55.25 132,-55.25 132,-74.5"/>
<text text-anchor="middle" x="74.88" y="-61" font-family="Helvetica,sans-Serif" font-size="10.00">widgets/KnobWidget.h</text>
</a>
</g>
</g>
<!-- Node1&#45;&gt;Node2 -->
<g id="edge1_Node000001_Node000002" class="edge">
<title>Node1&#45;&gt;Node2</title>
<g id="a_edge1_Node000001_Node000002"><a xlink:title=" ">
<path fill="none" stroke="#63b8ff" d="M138.86,-110.2C126.17,-101.4 110.01,-90.21 97.1,-81.27"/>
<polygon fill="#63b8ff" stroke="#63b8ff" points="99.44,-78.63 89.22,-75.81 95.45,-84.38 99.44,-78.63"/>
</a>
</g>
</g>
<!-- Node4 -->
<g id="Node000004" class="node">
<title>Node4</title>
<g id="a_Node000004"><a xlink:title=" ">
<polygon fill="#e0e0e0" stroke="#999999" points="209.88,-19.25 109.88,-19.25 109.88,0 209.88,0 209.88,-19.25"/>
<text text-anchor="middle" x="159.88" y="-5.75" font-family="Helvetica,sans-Serif" font-size="10.00">Adafruit_SH110X.h</text>
</a>
</g>
</g>
<!-- Node1&#45;&gt;Node4 -->
<g id="edge5_Node000001_Node000004" class="edge">
<title>Node1&#45;&gt;Node4</title>
<g id="a_edge5_Node000001_Node000004"><a xlink:title=" ">
<path fill="none" stroke="#63b8ff" d="M159.88,-110.3C159.88,-90.25 159.88,-53.9 159.88,-31.07"/>
<polygon fill="#63b8ff" stroke="#63b8ff" points="163.38,-31.21 159.88,-21.21 156.38,-31.21 163.38,-31.21"/>
</a>
</g>
</g>
<!-- Node5 -->
<g id="Node000005" class="node">
<title>Node5</title>
<g id="a_Node000005"><a xlink:title=" ">
<polygon fill="#e0e0e0" stroke="#999999" points="271.62,-74.5 188.12,-74.5 188.12,-55.25 271.62,-55.25 271.62,-74.5"/>
<text text-anchor="middle" x="229.88" y="-61" font-family="Helvetica,sans-Serif" font-size="10.00">Adafruit_GFX.h</text>
</a>
</g>
</g>
<!-- Node1&#45;&gt;Node5 -->
<g id="edge4_Node000001_Node000005" class="edge">
<title>Node1&#45;&gt;Node5</title>
<g id="a_edge4_Node000001_Node000005"><a xlink:title=" ">
<path fill="none" stroke="#63b8ff" d="M177.18,-110.2C187.22,-101.75 199.9,-91.08 210.31,-82.33"/>
<polygon fill="#63b8ff" stroke="#63b8ff" points="212.53,-85.04 217.93,-75.93 208.02,-79.68 212.53,-85.04"/>
</a>
</g>
</g>
<!-- Node3 -->
<g id="Node000003" class="node">
<title>Node3</title>
<g id="a_Node000003"><a xlink:href="_widget_8h.html" target="_top" xlink:title="Abstract base class for UI widgets in the JMR800&#45;V2 OLED interface.">
<polygon fill="white" stroke="#666666" points="91.75,-19.25 0,-19.25 0,0 91.75,0 91.75,-19.25"/>
<text text-anchor="middle" x="45.88" y="-5.75" font-family="Helvetica,sans-Serif" font-size="10.00">widgets/Widget.h</text>
</a>
</g>
</g>
<!-- Node2&#45;&gt;Node3 -->
<g id="edge2_Node000002_Node000003" class="edge">
<title>Node2&#45;&gt;Node3</title>
<g id="a_edge2_Node000002_Node000003"><a xlink:title=" ">
<path fill="none" stroke="#63b8ff" d="M70.09,-55.08C66.33,-48.19 60.97,-38.34 56.24,-29.66"/>
<polygon fill="#63b8ff" stroke="#63b8ff" points="59.35,-28.05 51.49,-20.94 53.2,-31.39 59.35,-28.05"/>
</a>
</g>
</g>
<!-- Node2&#45;&gt;Node4 -->
<g id="edge3_Node000002_Node000004" class="edge">
<title>Node2&#45;&gt;Node4</title>
<g id="a_edge3_Node000002_Node000004"><a xlink:title=" ">
<path fill="none" stroke="#63b8ff" d="M89.29,-54.84C101.99,-46.89 120.75,-35.14 135.73,-25.75"/>
<polygon fill="#63b8ff" stroke="#63b8ff" points="137.49,-28.78 144.1,-20.51 133.77,-22.85 137.49,-28.78"/>
</a>
</g>
</g>
</g>
</svg>
