<?xml version="1.0" encoding="UTF-8" standalone="no"?>
<!DOCTYPE svg PUBLIC "-//W3C//DTD SVG 1.1//EN"
 "http://www.w3.org/Graphics/SVG/1.1/DTD/svg11.dtd">
<!-- Generated by graphviz version 12.2.1 (20241206.2353)
 -->
<!-- Title: src/widgets/PotentiometerKnobWidget.cpp Pages: 1 -->
<svg width="842pt" height="216pt"
 viewBox="0.00 0.00 842.13 215.50" xmlns="http://www.w3.org/2000/svg" xmlns:xlink="http://www.w3.org/1999/xlink">
<g id="graph0" class="graph" transform="scale(1 1) rotate(0) translate(4 211.5)">
<title>src/widgets/PotentiometerKnobWidget.cpp</title>
<!-- Node1 -->
<g id="Node000001" class="node">
<title>Node1</title>
<g id="a_Node000001"><a xlink:title="Implements the PotentiometerKnobWidget class, which visualizes a physical knob&#39;s current state.">
<polygon fill="#999999" stroke="#666666" points="484.13,-207.5 354.13,-207.5 354.13,-177 484.13,-177 484.13,-207.5"/>
<text text-anchor="start" x="362.13" y="-194" font-family="Helvetica,sans-Serif" font-size="10.00">src/widgets/Potentiometer</text>
<text text-anchor="middle" x="419.13" y="-182.75" font-family="Helvetica,sans-Serif" font-size="10.00">KnobWidget.cpp</text>
</a>
</g>
</g>
<!-- Node2 -->
<g id="Node000002" class="node">
<title>Node2</title>
<g id="a_Node000002"><a xlink:href="_potentiometer_knob_widget_8h.html" target="_top" xlink:title="Visual representation of a physical potentiometer for the OLED UI.">
<polygon fill="white" stroke="#666666" points="369.13,-141 233.13,-141 233.13,-110.5 369.13,-110.5 369.13,-141"/>
<text text-anchor="start" x="241.13" y="-127.5" font-family="Helvetica,sans-Serif" font-size="10.00">widgets/PotentiometerKnob</text>
<text text-anchor="middle" x="301.13" y="-116.25" font-family="Helvetica,sans-Serif" font-size="10.00">Widget.h</text>
</a>
</g>
</g>
<!-- Node1&#45;&gt;Node2 -->
<g id="edge1_Node000001_Node000002" class="edge">
<title>Node1&#45;&gt;Node2</title>
<g id="a_edge1_Node000001_Node000002"><a xlink:title=" ">
<path fill="none" stroke="#63b8ff" d="M392.35,-176.61C376.21,-167.79 355.42,-156.43 337.77,-146.78"/>
<polygon fill="#63b8ff" stroke="#63b8ff" points="339.58,-143.78 329.12,-142.05 336.22,-149.92 339.58,-143.78"/>
</a>
</g>
</g>
<!-- Node7 -->
<g id="Node000007" class="node">
<title>Node7</title>
<g id="a_Node000007"><a xlink:href="_screen_manager_8h.html" target="_top" xlink:title="Declares the ScreenManager class responsible for UI screen control on the OLED display.">
<polygon fill="white" stroke="#666666" points="106,-135.38 14.25,-135.38 14.25,-116.12 106,-116.12 106,-135.38"/>
<text text-anchor="middle" x="60.13" y="-121.88" font-family="Helvetica,sans-Serif" font-size="10.00">ScreenManager.h</text>
</a>
</g>
</g>
<!-- Node1&#45;&gt;Node7 -->
<g id="edge7_Node000001_Node000007" class="edge">
<title>Node1&#45;&gt;Node7</title>
<g id="a_edge7_Node000001_Node000007"><a xlink:title=" ">
<path fill="none" stroke="#63b8ff" d="M353.7,-179.49C286.16,-167.36 181.83,-148.62 117.44,-137.05"/>
<polygon fill="#63b8ff" stroke="#63b8ff" points="118.24,-133.64 107.78,-135.31 117,-140.52 118.24,-133.64"/>
</a>
</g>
</g>
<!-- Node9 -->
<g id="Node000009" class="node">
<title>Node9</title>
<g id="a_Node000009"><a xlink:href="_logging_8h.html" target="_top" xlink:title="Lightweight logging utility for serial output in the JMR800&#45;V2 project.">
<polygon fill="white" stroke="#666666" points="834.13,-74.5 776.13,-74.5 776.13,-55.25 834.13,-55.25 834.13,-74.5"/>
<text text-anchor="middle" x="805.13" y="-61" font-family="Helvetica,sans-Serif" font-size="10.00">Logging.h</text>
</a>
</g>
</g>
<!-- Node1&#45;&gt;Node9 -->
<g id="edge10_Node000001_Node000009" class="edge">
<title>Node1&#45;&gt;Node9</title>
<g id="a_edge10_Node000001_Node000009"><a xlink:title=" ">
<path fill="none" stroke="#63b8ff" d="M472.75,-176.52C507.04,-166.89 552.37,-153.77 592.13,-141 655.39,-120.67 728.23,-94.34 770.25,-78.86"/>
<polygon fill="#63b8ff" stroke="#63b8ff" points="771.41,-82.16 779.58,-75.41 768.99,-75.59 771.41,-82.16"/>
</a>
</g>
</g>
<!-- Node12 -->
<g id="Node000012" class="node">
<title>Node12</title>
<g id="a_Node000012"><a xlink:href="_hardware_manager_8h.html" target="_top" xlink:title="Manages hardware input/output for analog controls, digital buttons, encoder, and serial communication...">
<polygon fill="white" stroke="#666666" points="582.63,-135.38 479.63,-135.38 479.63,-116.12 582.63,-116.12 582.63,-135.38"/>
<text text-anchor="middle" x="531.13" y="-121.88" font-family="Helvetica,sans-Serif" font-size="10.00">HardwareManager.h</text>
</a>
</g>
</g>
<!-- Node1&#45;&gt;Node12 -->
<g id="edge13_Node000001_Node000012" class="edge">
<title>Node1&#45;&gt;Node12</title>
<g id="a_edge13_Node000001_Node000012"><a xlink:title=" ">
<path fill="none" stroke="#63b8ff" d="M444.54,-176.61C462.78,-166.11 487.25,-152.02 505.53,-141.49"/>
<polygon fill="#63b8ff" stroke="#63b8ff" points="507.25,-144.54 514.17,-136.52 503.76,-138.47 507.25,-144.54"/>
</a>
</g>
</g>
<!-- Node3 -->
<g id="Node000003" class="node">
<title>Node3</title>
<g id="a_Node000003"><a xlink:href="_knob_widget_8h.html" target="_top" xlink:title="Base class for knob&#45;style widgets in the JMR800&#45;V2 interface.">
<polygon fill="white" stroke="#666666" points="238.25,-74.5 124,-74.5 124,-55.25 238.25,-55.25 238.25,-74.5"/>
<text text-anchor="middle" x="181.13" y="-61" font-family="Helvetica,sans-Serif" font-size="10.00">widgets/KnobWidget.h</text>
</a>
</g>
</g>
<!-- Node2&#45;&gt;Node3 -->
<g id="edge2_Node000002_Node000003" class="edge">
<title>Node2&#45;&gt;Node3</title>
<g id="a_edge2_Node000002_Node000003"><a xlink:title=" ">
<path fill="none" stroke="#63b8ff" d="M271.16,-110.05C252.35,-100.82 228.25,-89 209.72,-79.9"/>
<polygon fill="#63b8ff" stroke="#63b8ff" points="211.41,-76.83 200.89,-75.57 208.32,-83.12 211.41,-76.83"/>
</a>
</g>
</g>
<!-- Node5 -->
<g id="Node000005" class="node">
<title>Node5</title>
<g id="a_Node000005"><a xlink:title=" ">
<polygon fill="#e0e0e0" stroke="#999999" points="316.13,-19.25 216.13,-19.25 216.13,0 316.13,0 316.13,-19.25"/>
<text text-anchor="middle" x="266.13" y="-5.75" font-family="Helvetica,sans-Serif" font-size="10.00">Adafruit_SH110X.h</text>
</a>
</g>
</g>
<!-- Node2&#45;&gt;Node5 -->
<g id="edge6_Node000002_Node000005" class="edge">
<title>Node2&#45;&gt;Node5</title>
<g id="a_edge6_Node000002_Node000005"><a xlink:title=" ">
<path fill="none" stroke="#63b8ff" d="M296.43,-110.26C293.2,-100.23 288.84,-86.58 285.13,-74.5 280.59,-59.75 275.62,-43.03 271.9,-30.4"/>
<polygon fill="#63b8ff" stroke="#63b8ff" points="275.38,-29.8 269.2,-21.19 268.66,-31.77 275.38,-29.8"/>
</a>
</g>
</g>
<!-- Node6 -->
<g id="Node000006" class="node">
<title>Node6</title>
<g id="a_Node000006"><a xlink:title=" ">
<polygon fill="#e0e0e0" stroke="#999999" points="377.88,-74.5 294.38,-74.5 294.38,-55.25 377.88,-55.25 377.88,-74.5"/>
<text text-anchor="middle" x="336.13" y="-61" font-family="Helvetica,sans-Serif" font-size="10.00">Adafruit_GFX.h</text>
</a>
</g>
</g>
<!-- Node2&#45;&gt;Node6 -->
<g id="edge5_Node000002_Node000006" class="edge">
<title>Node2&#45;&gt;Node6</title>
<g id="a_edge5_Node000002_Node000006"><a xlink:title=" ">
<path fill="none" stroke="#63b8ff" d="M309.78,-110.2C314.34,-102.53 319.99,-93.02 324.88,-84.79"/>
<polygon fill="#63b8ff" stroke="#63b8ff" points="327.86,-86.64 329.96,-76.25 321.84,-83.06 327.86,-86.64"/>
</a>
</g>
</g>
<!-- Node4 -->
<g id="Node000004" class="node">
<title>Node4</title>
<g id="a_Node000004"><a xlink:href="_widget_8h.html" target="_top" xlink:title="Abstract base class for UI widgets in the JMR800&#45;V2 OLED interface.">
<polygon fill="white" stroke="#666666" points="198,-19.25 106.25,-19.25 106.25,0 198,0 198,-19.25"/>
<text text-anchor="middle" x="152.13" y="-5.75" font-family="Helvetica,sans-Serif" font-size="10.00">widgets/Widget.h</text>
</a>
</g>
</g>
<!-- Node3&#45;&gt;Node4 -->
<g id="edge3_Node000003_Node000004" class="edge">
<title>Node3&#45;&gt;Node4</title>
<g id="a_edge3_Node000003_Node000004"><a xlink:title=" ">
<path fill="none" stroke="#63b8ff" d="M176.34,-55.08C172.58,-48.19 167.22,-38.34 162.49,-29.66"/>
<polygon fill="#63b8ff" stroke="#63b8ff" points="165.6,-28.05 157.74,-20.94 159.45,-31.39 165.6,-28.05"/>
</a>
</g>
</g>
<!-- Node3&#45;&gt;Node5 -->
<g id="edge4_Node000003_Node000005" class="edge">
<title>Node3&#45;&gt;Node5</title>
<g id="a_edge4_Node000003_Node000005"><a xlink:title=" ">
<path fill="none" stroke="#63b8ff" d="M195.55,-54.84C208.25,-46.89 227,-35.14 241.99,-25.75"/>
<polygon fill="#63b8ff" stroke="#63b8ff" points="243.74,-28.78 250.35,-20.51 240.02,-22.85 243.74,-28.78"/>
</a>
</g>
</g>
<!-- Node7&#45;&gt;Node5 -->
<g id="edge8_Node000007_Node000005" class="edge">
<title>Node7&#45;&gt;Node5</title>
<g id="a_edge8_Node000007_Node000005"><a xlink:title=" ">
<path fill="none" stroke="#63b8ff" d="M44.11,-115.83C22.1,-102.47 -12.83,-76.54 5.13,-55.25 8.36,-51.42 128.18,-32.12 204.33,-20.19"/>
<polygon fill="#63b8ff" stroke="#63b8ff" points="204.86,-23.65 214.2,-18.65 203.78,-16.73 204.86,-23.65"/>
</a>
</g>
</g>
<!-- Node8 -->
<g id="Node000008" class="node">
<title>Node8</title>
<g id="a_Node000008"><a xlink:href="_screen_8h.html" target="_top" xlink:title="Abstract interface for all UI screens in the JMR800&#45;V2 system.">
<polygon fill="white" stroke="#666666" points="106.38,-74.5 13.88,-74.5 13.88,-55.25 106.38,-55.25 106.38,-74.5"/>
<text text-anchor="middle" x="60.13" y="-61" font-family="Helvetica,sans-Serif" font-size="10.00">screens/Screen.h</text>
</a>
</g>
</g>
<!-- Node7&#45;&gt;Node8 -->
<g id="edge9_Node000007_Node000008" class="edge">
<title>Node7&#45;&gt;Node8</title>
<g id="a_edge9_Node000007_Node000008"><a xlink:title=" ">
<path fill="none" stroke="#63b8ff" d="M60.13,-115.81C60.13,-108.03 60.13,-96.45 60.13,-86.41"/>
<polygon fill="#63b8ff" stroke="#63b8ff" points="63.63,-86.41 60.13,-76.41 56.63,-86.41 63.63,-86.41"/>
</a>
</g>
</g>
<!-- Node10 -->
<g id="Node000010" class="node">
<title>Node10</title>
<g id="a_Node000010"><a xlink:title=" ">
<polygon fill="#e0e0e0" stroke="#999999" points="710.75,-19.25 653.5,-19.25 653.5,0 710.75,0 710.75,-19.25"/>
<text text-anchor="middle" x="682.13" y="-5.75" font-family="Helvetica,sans-Serif" font-size="10.00">Arduino.h</text>
</a>
</g>
</g>
<!-- Node9&#45;&gt;Node10 -->
<g id="edge11_Node000009_Node000010" class="edge">
<title>Node9&#45;&gt;Node10</title>
<g id="a_edge11_Node000009_Node000010"><a xlink:title=" ">
<path fill="none" stroke="#63b8ff" d="M784.26,-54.84C764.82,-46.43 735.58,-33.77 713.36,-24.15"/>
<polygon fill="#63b8ff" stroke="#63b8ff" points="715.05,-21.06 704.48,-20.3 712.27,-27.49 715.05,-21.06"/>
</a>
</g>
</g>
<!-- Node11 -->
<g id="Node000011" class="node">
<title>Node11</title>
<g id="a_Node000011"><a xlink:href="defines_8h.html" target="_top" xlink:title="Hardware pin definitions and global constants for JMR800&#45;V2.">
<polygon fill="white" stroke="#666666" points="492,-19.25 436.25,-19.25 436.25,0 492,0 492,-19.25"/>
<text text-anchor="middle" x="464.13" y="-5.75" font-family="Helvetica,sans-Serif" font-size="10.00">defines.h</text>
</a>
</g>
</g>
<!-- Node9&#45;&gt;Node11 -->
<g id="edge12_Node000009_Node000011" class="edge">
<title>Node9&#45;&gt;Node11</title>
<g id="a_edge12_Node000009_Node000011"><a xlink:title=" ">
<path fill="none" stroke="#63b8ff" d="M775.71,-56.96C772.82,-56.35 769.92,-55.77 767.13,-55.25 673,-37.66 561.35,-22.74 503.42,-15.43"/>
<polygon fill="#63b8ff" stroke="#63b8ff" points="504.09,-11.99 493.74,-14.22 503.22,-18.93 504.09,-11.99"/>
</a>
</g>
</g>
<!-- Node12&#45;&gt;Node5 -->
<g id="edge16_Node000012_Node000005" class="edge">
<title>Node12&#45;&gt;Node5</title>
<g id="a_edge16_Node000012_Node000005"><a xlink:title=" ">
<path fill="none" stroke="#63b8ff" d="M513.64,-115.63C486.79,-101.79 433.63,-74.99 387.13,-55.25 359.55,-43.54 327.74,-31.88 303.66,-23.42"/>
<polygon fill="#63b8ff" stroke="#63b8ff" points="304.87,-20.13 294.28,-20.15 302.57,-26.74 304.87,-20.13"/>
</a>
</g>
</g>
<!-- Node12&#45;&gt;Node6 -->
<g id="edge15_Node000012_Node000006" class="edge">
<title>Node12&#45;&gt;Node6</title>
<g id="a_edge15_Node000012_Node000006"><a xlink:title=" ">
<path fill="none" stroke="#63b8ff" d="M501.09,-115.68C467.88,-105.65 414.19,-89.44 377.13,-78.25"/>
<polygon fill="#63b8ff" stroke="#63b8ff" points="378.24,-74.93 367.65,-75.39 376.21,-81.63 378.24,-74.93"/>
</a>
</g>
</g>
<!-- Node12&#45;&gt;Node9 -->
<g id="edge22_Node000012_Node000009" class="edge">
<title>Node12&#45;&gt;Node9</title>
<g id="a_edge22_Node000012_Node000009"><a xlink:title=" ">
<path fill="none" stroke="#63b8ff" d="M574.66,-115.66C619.73,-106.21 692.49,-90.85 764.58,-75.04"/>
<polygon fill="#63b8ff" stroke="#63b8ff" points="765.18,-78.49 774.2,-72.93 763.68,-71.65 765.18,-78.49"/>
</a>
</g>
</g>
<!-- Node12&#45;&gt;Node10 -->
<g id="edge14_Node000012_Node000010" class="edge">
<title>Node12&#45;&gt;Node10</title>
<g id="a_edge14_Node000012_Node000010"><a xlink:title=" ">
<path fill="none" stroke="#63b8ff" d="M535.34,-115.9C542.63,-101.43 558.85,-72.61 580.13,-55.25 598.32,-40.4 622.22,-29.59 642.31,-22.34"/>
<polygon fill="#63b8ff" stroke="#63b8ff" points="643.26,-25.71 651.59,-19.16 640.99,-19.09 643.26,-25.71"/>
</a>
</g>
</g>
<!-- Node12&#45;&gt;Node11 -->
<g id="edge21_Node000012_Node000011" class="edge">
<title>Node12&#45;&gt;Node11</title>
<g id="a_edge21_Node000012_Node000011"><a xlink:title=" ">
<path fill="none" stroke="#63b8ff" d="M509.93,-115.66C493.82,-107.47 472.85,-93.77 463.13,-74.5 456.31,-60.99 457.04,-43.74 459.21,-30.58"/>
<polygon fill="#63b8ff" stroke="#63b8ff" points="462.61,-31.44 461.23,-20.94 455.76,-30.01 462.61,-31.44"/>
</a>
</g>
</g>
<!-- Node13 -->
<g id="Node000013" class="node">
<title>Node13</title>
<g id="a_Node000013"><a xlink:title=" ">
<polygon fill="#e0e0e0" stroke="#999999" points="694.38,-74.5 649.88,-74.5 649.88,-55.25 694.38,-55.25 694.38,-74.5"/>
<text text-anchor="middle" x="672.13" y="-61" font-family="Helvetica,sans-Serif" font-size="10.00">Wire.h</text>
</a>
</g>
</g>
<!-- Node12&#45;&gt;Node13 -->
<g id="edge17_Node000012_Node000013" class="edge">
<title>Node12&#45;&gt;Node13</title>
<g id="a_edge17_Node000012_Node000013"><a xlink:title=" ">
<path fill="none" stroke="#63b8ff" d="M552.85,-115.68C576.2,-105.93 613.57,-90.33 640.25,-79.18"/>
<polygon fill="#63b8ff" stroke="#63b8ff" points="641.34,-82.53 649.21,-75.44 638.64,-76.07 641.34,-82.53"/>
</a>
</g>
</g>
<!-- Node14 -->
<g id="Node000014" class="node">
<title>Node14</title>
<g id="a_Node000014"><a xlink:title=" ">
<polygon fill="#e0e0e0" stroke="#999999" points="758.13,-74.5 712.13,-74.5 712.13,-55.25 758.13,-55.25 758.13,-74.5"/>
<text text-anchor="middle" x="735.13" y="-61" font-family="Helvetica,sans-Serif" font-size="10.00">ADC.h</text>
</a>
</g>
</g>
<!-- Node12&#45;&gt;Node14 -->
<g id="edge18_Node000012_Node000014" class="edge">
<title>Node12&#45;&gt;Node14</title>
<g id="a_edge18_Node000012_Node000014"><a xlink:title=" ">
<path fill="none" stroke="#63b8ff" d="M562.55,-115.68C600.09,-104.85 662.64,-86.8 701.23,-75.66"/>
<polygon fill="#63b8ff" stroke="#63b8ff" points="701.82,-79.13 710.46,-72.99 699.88,-72.4 701.82,-79.13"/>
</a>
</g>
</g>
<!-- Node15 -->
<g id="Node000015" class="node">
<title>Node15</title>
<g id="a_Node000015"><a xlink:title=" ">
<polygon fill="#e0e0e0" stroke="#999999" points="531.88,-74.5 472.38,-74.5 472.38,-55.25 531.88,-55.25 531.88,-74.5"/>
<text text-anchor="middle" x="502.13" y="-61" font-family="Helvetica,sans-Serif" font-size="10.00">Encoder.h</text>
</a>
</g>
</g>
<!-- Node12&#45;&gt;Node15 -->
<g id="edge19_Node000012_Node000015" class="edge">
<title>Node12&#45;&gt;Node15</title>
<g id="a_edge19_Node000012_Node000015"><a xlink:title=" ">
<path fill="none" stroke="#63b8ff" d="M526.72,-115.81C522.72,-107.68 516.68,-95.42 511.59,-85.08"/>
<polygon fill="#63b8ff" stroke="#63b8ff" points="514.8,-83.68 507.24,-76.26 508.52,-86.78 514.8,-83.68"/>
</a>
</g>
</g>
<!-- Node16 -->
<g id="Node000016" class="node">
<title>Node16</title>
<g id="a_Node000016"><a xlink:title=" ">
<polygon fill="#e0e0e0" stroke="#999999" points="631.63,-74.5 588.63,-74.5 588.63,-55.25 631.63,-55.25 631.63,-74.5"/>
<text text-anchor="middle" x="610.13" y="-61" font-family="Helvetica,sans-Serif" font-size="10.00">vector</text>
</a>
</g>
</g>
<!-- Node12&#45;&gt;Node16 -->
<g id="edge20_Node000012_Node000016" class="edge">
<title>Node12&#45;&gt;Node16</title>
<g id="a_edge20_Node000012_Node000016"><a xlink:title=" ">
<path fill="none" stroke="#63b8ff" d="M543.13,-115.81C555.31,-106.73 574.41,-92.49 589.11,-81.54"/>
<polygon fill="#63b8ff" stroke="#63b8ff" points="590.87,-84.59 596.8,-75.81 586.69,-78.97 590.87,-84.59"/>
</a>
</g>
</g>
</g>
</svg>
