<?xml version="1.0" encoding="UTF-8" standalone="no"?>
<!DOCTYPE svg PUBLIC "-//W3C//DTD SVG 1.1//EN"
 "http://www.w3.org/Graphics/SVG/1.1/DTD/svg11.dtd">
<!-- Generated by graphviz version 12.2.1 (20241206.2353)
 -->
<!-- Title: include/widgets/PushButtonWidget.h Pages: 1 -->
<svg width="651pt" height="227pt"
 viewBox="0.00 0.00 651.00 226.75" xmlns="http://www.w3.org/2000/svg" xmlns:xlink="http://www.w3.org/1999/xlink">
<g id="graph0" class="graph" transform="scale(1 1) rotate(0) translate(4 222.75)">
<title>include/widgets/PushButtonWidget.h</title>
<!-- Node1 -->
<g id="Node000001" class="node">
<title>Node1</title>
<g id="a_Node000001"><a xlink:title="Represents an interactive on&#45;screen push button for the JMR800&#45;V2 UI.">
<polygon fill="#999999" stroke="#666666" points="439.88,-218.75 302.38,-218.75 302.38,-188.25 439.88,-188.25 439.88,-218.75"/>
<text text-anchor="start" x="310.38" y="-205.25" font-family="Helvetica,sans-Serif" font-size="10.00">include/widgets/PushButton</text>
<text text-anchor="middle" x="371.12" y="-194" font-family="Helvetica,sans-Serif" font-size="10.00">Widget.h</text>
</a>
</g>
</g>
<!-- Node2 -->
<g id="Node000002" class="node">
<title>Node2</title>
<g id="a_Node000002"><a xlink:href="_direct_command_screen_8h.html" target="_top" xlink:title="UI screen for manually sending raw commands to the synthesizer interface.">
<polygon fill="white" stroke="#666666" points="269.38,-152.25 110.88,-152.25 110.88,-121.75 269.38,-121.75 269.38,-152.25"/>
<text text-anchor="start" x="118.88" y="-138.75" font-family="Helvetica,sans-Serif" font-size="10.00">include/screens/DirectCommand</text>
<text text-anchor="middle" x="190.12" y="-127.5" font-family="Helvetica,sans-Serif" font-size="10.00">Screen.h</text>
</a>
</g>
</g>
<!-- Node1&#45;&gt;Node2 -->
<g id="edge1_Node000001_Node000002" class="edge">
<title>Node1&#45;&gt;Node2</title>
<g id="a_edge1_Node000001_Node000002"><a xlink:title=" ">
<path fill="none" stroke="#63b8ff" d="M319.29,-184.03C291.38,-174.08 257.44,-161.99 231.35,-152.69"/>
<polygon fill="#63b8ff" stroke="#63b8ff" points="318.03,-187.3 328.63,-187.36 320.38,-180.7 318.03,-187.3"/>
</a>
</g>
</g>
<!-- Node7 -->
<g id="Node000007" class="node">
<title>Node7</title>
<g id="a_Node000007"><a xlink:href="_knob_config_dialog_8cpp.html" target="_top" xlink:title=" ">
<polygon fill="white" stroke="#666666" points="454.88,-146.62 287.38,-146.62 287.38,-127.38 454.88,-127.38 454.88,-146.62"/>
<text text-anchor="middle" x="371.12" y="-133.12" font-family="Helvetica,sans-Serif" font-size="10.00">src/screens/KnobConfigDialog.cpp</text>
</a>
</g>
</g>
<!-- Node1&#45;&gt;Node7 -->
<g id="edge6_Node000001_Node000007" class="edge">
<title>Node1&#45;&gt;Node7</title>
<g id="a_edge6_Node000001_Node000007"><a xlink:title=" ">
<path fill="none" stroke="#63b8ff" d="M371.12,-176.59C371.12,-166.01 371.12,-154.5 371.12,-146.82"/>
<polygon fill="#63b8ff" stroke="#63b8ff" points="367.63,-176.35 371.13,-186.35 374.63,-176.35 367.63,-176.35"/>
</a>
</g>
</g>
<!-- Node8 -->
<g id="Node000008" class="node">
<title>Node8</title>
<g id="a_Node000008"><a xlink:href="_push_button_widget_8cpp.html" target="_top" xlink:title="Implements the PushButtonWidget class, which represents a UI button with encoder interaction support.">
<polygon fill="white" stroke="#666666" points="643,-146.62 473.25,-146.62 473.25,-127.38 643,-127.38 643,-146.62"/>
<text text-anchor="middle" x="558.12" y="-133.12" font-family="Helvetica,sans-Serif" font-size="10.00">src/widgets/PushButtonWidget.cpp</text>
</a>
</g>
</g>
<!-- Node1&#45;&gt;Node8 -->
<g id="edge7_Node000001_Node000008" class="edge">
<title>Node1&#45;&gt;Node8</title>
<g id="a_edge7_Node000001_Node000008"><a xlink:title=" ">
<path fill="none" stroke="#63b8ff" d="M424.13,-184.22C459.28,-172.09 503.89,-156.71 531.73,-147.1"/>
<polygon fill="#63b8ff" stroke="#63b8ff" points="423.3,-180.8 414.99,-187.37 425.58,-187.42 423.3,-180.8"/>
</a>
</g>
</g>
<!-- Node3 -->
<g id="Node000003" class="node">
<title>Node3</title>
<g id="a_Node000003"><a xlink:href="_direct_command_mode_8h.html" target="_top" xlink:title="Application mode for sending direct parameter/value commands.">
<polygon fill="white" stroke="#666666" points="184.75,-85.75 31.5,-85.75 31.5,-55.25 184.75,-55.25 184.75,-85.75"/>
<text text-anchor="start" x="39.5" y="-72.25" font-family="Helvetica,sans-Serif" font-size="10.00">include/modes/DirectCommand</text>
<text text-anchor="middle" x="108.12" y="-61" font-family="Helvetica,sans-Serif" font-size="10.00">Mode.h</text>
</a>
</g>
</g>
<!-- Node2&#45;&gt;Node3 -->
<g id="edge2_Node000002_Node000003" class="edge">
<title>Node2&#45;&gt;Node3</title>
<g id="a_edge2_Node000002_Node000003"><a xlink:title=" ">
<path fill="none" stroke="#63b8ff" d="M162.5,-114.27C150.7,-104.98 137.23,-94.4 126.66,-86.08"/>
<polygon fill="#63b8ff" stroke="#63b8ff" points="160.3,-117 170.33,-120.43 164.63,-111.49 160.3,-117"/>
</a>
</g>
</g>
<!-- Node6 -->
<g id="Node000006" class="node">
<title>Node6</title>
<g id="a_Node000006"><a xlink:href="_direct_command_screen_8cpp.html" target="_top" xlink:title="Implements a screen for sending raw parameter/value commands to the synthesizer.">
<polygon fill="white" stroke="#666666" points="343.75,-85.75 202.5,-85.75 202.5,-55.25 343.75,-55.25 343.75,-85.75"/>
<text text-anchor="start" x="210.5" y="-72.25" font-family="Helvetica,sans-Serif" font-size="10.00">src/screens/DirectCommand</text>
<text text-anchor="middle" x="273.12" y="-61" font-family="Helvetica,sans-Serif" font-size="10.00">Screen.cpp</text>
</a>
</g>
</g>
<!-- Node2&#45;&gt;Node6 -->
<g id="edge5_Node000002_Node000006" class="edge">
<title>Node2&#45;&gt;Node6</title>
<g id="a_edge5_Node000002_Node000006"><a xlink:title=" ">
<path fill="none" stroke="#63b8ff" d="M217.74,-114.54C229.77,-105.19 243.55,-94.48 254.37,-86.08"/>
<polygon fill="#63b8ff" stroke="#63b8ff" points="215.9,-111.54 210.15,-120.44 220.2,-117.06 215.9,-111.54"/>
</a>
</g>
</g>
<!-- Node4 -->
<g id="Node000004" class="node">
<title>Node4</title>
<g id="a_Node000004"><a xlink:href="main_8cpp.html" target="_top" xlink:title="Entry point for the JMR800&#45;V2 firmware.">
<polygon fill="white" stroke="#666666" points="72.25,-19.25 0,-19.25 0,0 72.25,0 72.25,-19.25"/>
<text text-anchor="middle" x="36.12" y="-5.75" font-family="Helvetica,sans-Serif" font-size="10.00">src/main.cpp</text>
</a>
</g>
</g>
<!-- Node3&#45;&gt;Node4 -->
<g id="edge3_Node000003_Node000004" class="edge">
<title>Node3&#45;&gt;Node4</title>
<g id="a_edge3_Node000003_Node000004"><a xlink:title=" ">
<path fill="none" stroke="#63b8ff" d="M81.63,-47.83C69.75,-38.12 56.38,-27.19 47.22,-19.7"/>
<polygon fill="#63b8ff" stroke="#63b8ff" points="79.2,-50.37 89.16,-53.99 83.63,-44.95 79.2,-50.37"/>
</a>
</g>
</g>
<!-- Node5 -->
<g id="Node000005" class="node">
<title>Node5</title>
<g id="a_Node000005"><a xlink:href="_direct_command_mode_8cpp.html" target="_top" xlink:title="Implements behavior for Direct Command Mode.">
<polygon fill="white" stroke="#666666" points="269.5,-19.25 90.75,-19.25 90.75,0 269.5,0 269.5,-19.25"/>
<text text-anchor="middle" x="180.12" y="-5.75" font-family="Helvetica,sans-Serif" font-size="10.00">src/modes/DirectCommandMode.cpp</text>
</a>
</g>
</g>
<!-- Node3&#45;&gt;Node5 -->
<g id="edge4_Node000003_Node000005" class="edge">
<title>Node3&#45;&gt;Node5</title>
<g id="a_edge4_Node000003_Node000005"><a xlink:title=" ">
<path fill="none" stroke="#63b8ff" d="M134.62,-47.83C146.5,-38.12 159.87,-27.19 169.03,-19.7"/>
<polygon fill="#63b8ff" stroke="#63b8ff" points="132.62,-44.95 127.09,-53.99 137.05,-50.37 132.62,-44.95"/>
</a>
</g>
</g>
</g>
</svg>
