<?xml version="1.0" encoding="UTF-8" standalone="no"?>
<!DOCTYPE svg PUBLIC "-//W3C//DTD SVG 1.1//EN"
 "http://www.w3.org/Graphics/SVG/1.1/DTD/svg11.dtd">
<!-- Generated by graphviz version 12.2.1 (20241206.2353)
 -->
<!-- Title: src/widgets/PushButtonWidget.cpp Pages: 1 -->
<svg width="847pt" height="193pt"
 viewBox="0.00 0.00 846.88 193.00" xmlns="http://www.w3.org/2000/svg" xmlns:xlink="http://www.w3.org/1999/xlink">
<g id="graph0" class="graph" transform="scale(1 1) rotate(0) translate(4 189)">
<title>src/widgets/PushButtonWidget.cpp</title>
<!-- Node1 -->
<g id="Node000001" class="node">
<title>Node1</title>
<g id="a_Node000001"><a xlink:title="Implements the PushButtonWidget class, which represents a UI button with encoder interaction support.">
<polygon fill="#999999" stroke="#666666" points="303.75,-185 134,-185 134,-165.75 303.75,-165.75 303.75,-185"/>
<text text-anchor="middle" x="218.88" y="-171.5" font-family="Helvetica,sans-Serif" font-size="10.00">src/widgets/PushButtonWidget.cpp</text>
</a>
</g>
</g>
<!-- Node2 -->
<g id="Node000002" class="node">
<title>Node2</title>
<g id="a_Node000002"><a xlink:href="_widget_8h.html" target="_top" xlink:title="Abstract base class for UI widgets in the JMR800&#45;V2 OLED interface.">
<polygon fill="white" stroke="#666666" points="91.75,-74.5 0,-74.5 0,-55.25 91.75,-55.25 91.75,-74.5"/>
<text text-anchor="middle" x="45.88" y="-61" font-family="Helvetica,sans-Serif" font-size="10.00">widgets/Widget.h</text>
</a>
</g>
</g>
<!-- Node1&#45;&gt;Node2 -->
<g id="edge1_Node000001_Node000002" class="edge">
<title>Node1&#45;&gt;Node2</title>
<g id="a_edge1_Node000001_Node000002"><a xlink:title=" ">
<path fill="none" stroke="#63b8ff" d="M145.11,-165.26C119.39,-158.89 91.97,-148.08 71.88,-129.75 59.29,-118.27 52.66,-99.81 49.26,-85.68"/>
<polygon fill="#63b8ff" stroke="#63b8ff" points="52.74,-85.26 47.33,-76.15 45.88,-86.65 52.74,-85.26"/>
</a>
</g>
</g>
<!-- Node3 -->
<g id="Node000003" class="node">
<title>Node3</title>
<g id="a_Node000003"><a xlink:href="_push_button_widget_8h.html" target="_top" xlink:title="Represents an interactive on&#45;screen push button for the JMR800&#45;V2 UI.">
<polygon fill="white" stroke="#666666" points="223.25,-129.75 80.5,-129.75 80.5,-110.5 223.25,-110.5 223.25,-129.75"/>
<text text-anchor="middle" x="151.88" y="-116.25" font-family="Helvetica,sans-Serif" font-size="10.00">widgets/PushButtonWidget.h</text>
</a>
</g>
</g>
<!-- Node1&#45;&gt;Node3 -->
<g id="edge2_Node000001_Node000003" class="edge">
<title>Node1&#45;&gt;Node3</title>
<g id="a_edge2_Node000001_Node000003"><a xlink:title=" ">
<path fill="none" stroke="#63b8ff" d="M207.51,-165.34C197.83,-157.65 183.68,-146.4 172.07,-137.18"/>
<polygon fill="#63b8ff" stroke="#63b8ff" points="174.26,-134.45 164.26,-130.97 169.91,-139.93 174.26,-134.45"/>
</a>
</g>
</g>
<!-- Node6 -->
<g id="Node000006" class="node">
<title>Node6</title>
<g id="a_Node000006"><a xlink:href="_screen_manager_8h.html" target="_top" xlink:title="Declares the ScreenManager class responsible for UI screen control on the OLED display.">
<polygon fill="white" stroke="#666666" points="332.75,-129.75 241,-129.75 241,-110.5 332.75,-110.5 332.75,-129.75"/>
<text text-anchor="middle" x="286.88" y="-116.25" font-family="Helvetica,sans-Serif" font-size="10.00">ScreenManager.h</text>
</a>
</g>
</g>
<!-- Node1&#45;&gt;Node6 -->
<g id="edge6_Node000001_Node000006" class="edge">
<title>Node1&#45;&gt;Node6</title>
<g id="a_edge6_Node000001_Node000006"><a xlink:title=" ">
<path fill="none" stroke="#63b8ff" d="M230.41,-165.34C240.34,-157.57 254.89,-146.17 266.73,-136.9"/>
<polygon fill="#63b8ff" stroke="#63b8ff" points="268.6,-139.88 274.32,-130.96 264.29,-134.37 268.6,-139.88"/>
</a>
</g>
</g>
<!-- Node8 -->
<g id="Node000008" class="node">
<title>Node8</title>
<g id="a_Node000008"><a xlink:href="_hardware_manager_8h.html" target="_top" xlink:title="Manages hardware input/output for analog controls, digital buttons, encoder, and serial communication...">
<polygon fill="white" stroke="#666666" points="615.38,-129.75 512.38,-129.75 512.38,-110.5 615.38,-110.5 615.38,-129.75"/>
<text text-anchor="middle" x="563.88" y="-116.25" font-family="Helvetica,sans-Serif" font-size="10.00">HardwareManager.h</text>
</a>
</g>
</g>
<!-- Node1&#45;&gt;Node8 -->
<g id="edge9_Node000001_Node000008" class="edge">
<title>Node1&#45;&gt;Node8</title>
<g id="a_edge9_Node000001_Node000008"><a xlink:title=" ">
<path fill="none" stroke="#63b8ff" d="M277.79,-165.28C339.88,-155.7 437.32,-140.66 500.9,-130.85"/>
<polygon fill="#63b8ff" stroke="#63b8ff" points="501.12,-134.35 510.47,-129.37 500.06,-127.43 501.12,-134.35"/>
</a>
</g>
</g>
<!-- Node3&#45;&gt;Node2 -->
<g id="edge3_Node000003_Node000002" class="edge">
<title>Node3&#45;&gt;Node2</title>
<g id="a_edge3_Node000003_Node000002"><a xlink:title=" ">
<path fill="none" stroke="#63b8ff" d="M133.89,-110.09C117.52,-101.87 93.09,-89.59 74.11,-80.06"/>
<polygon fill="#63b8ff" stroke="#63b8ff" points="75.8,-76.99 65.3,-75.63 72.66,-83.25 75.8,-76.99"/>
</a>
</g>
</g>
<!-- Node4 -->
<g id="Node000004" class="node">
<title>Node4</title>
<g id="a_Node000004"><a xlink:title=" ">
<polygon fill="#e0e0e0" stroke="#999999" points="193.62,-74.5 110.12,-74.5 110.12,-55.25 193.62,-55.25 193.62,-74.5"/>
<text text-anchor="middle" x="151.88" y="-61" font-family="Helvetica,sans-Serif" font-size="10.00">Adafruit_GFX.h</text>
</a>
</g>
</g>
<!-- Node3&#45;&gt;Node4 -->
<g id="edge4_Node000003_Node000004" class="edge">
<title>Node3&#45;&gt;Node4</title>
<g id="a_edge4_Node000003_Node000004"><a xlink:title=" ">
<path fill="none" stroke="#63b8ff" d="M151.88,-110.33C151.88,-103.82 151.88,-94.67 151.88,-86.37"/>
<polygon fill="#63b8ff" stroke="#63b8ff" points="155.38,-86.37 151.88,-76.37 148.38,-86.37 155.38,-86.37"/>
</a>
</g>
</g>
<!-- Node5 -->
<g id="Node000005" class="node">
<title>Node5</title>
<g id="a_Node000005"><a xlink:title=" ">
<polygon fill="#e0e0e0" stroke="#999999" points="311.88,-74.5 211.88,-74.5 211.88,-55.25 311.88,-55.25 311.88,-74.5"/>
<text text-anchor="middle" x="261.88" y="-61" font-family="Helvetica,sans-Serif" font-size="10.00">Adafruit_SH110X.h</text>
</a>
</g>
</g>
<!-- Node3&#45;&gt;Node5 -->
<g id="edge5_Node000003_Node000005" class="edge">
<title>Node3&#45;&gt;Node5</title>
<g id="a_edge5_Node000003_Node000005"><a xlink:title=" ">
<path fill="none" stroke="#63b8ff" d="M170.54,-110.09C187.6,-101.83 213.12,-89.48 232.85,-79.93"/>
<polygon fill="#63b8ff" stroke="#63b8ff" points="234.29,-83.12 241.76,-75.61 231.24,-76.82 234.29,-83.12"/>
</a>
</g>
</g>
<!-- Node6&#45;&gt;Node5 -->
<g id="edge7_Node000006_Node000005" class="edge">
<title>Node6&#45;&gt;Node5</title>
<g id="a_edge7_Node000006_Node000005"><a xlink:title=" ">
<path fill="none" stroke="#63b8ff" d="M282.75,-110.33C279.55,-103.51 274.99,-93.81 270.95,-85.2"/>
<polygon fill="#63b8ff" stroke="#63b8ff" points="274.15,-83.79 266.74,-76.23 267.82,-86.77 274.15,-83.79"/>
</a>
</g>
</g>
<!-- Node7 -->
<g id="Node000007" class="node">
<title>Node7</title>
<g id="a_Node000007"><a xlink:href="_screen_8h.html" target="_top" xlink:title="Abstract interface for all UI screens in the JMR800&#45;V2 system.">
<polygon fill="white" stroke="#666666" points="422.12,-74.5 329.62,-74.5 329.62,-55.25 422.12,-55.25 422.12,-74.5"/>
<text text-anchor="middle" x="375.88" y="-61" font-family="Helvetica,sans-Serif" font-size="10.00">screens/Screen.h</text>
</a>
</g>
</g>
<!-- Node6&#45;&gt;Node7 -->
<g id="edge8_Node000006_Node000007" class="edge">
<title>Node6&#45;&gt;Node7</title>
<g id="a_edge8_Node000006_Node000007"><a xlink:title=" ">
<path fill="none" stroke="#63b8ff" d="M301.97,-110.09C315.4,-102.06 335.29,-90.16 351.05,-80.73"/>
<polygon fill="#63b8ff" stroke="#63b8ff" points="352.62,-83.87 359.4,-75.73 349.03,-77.86 352.62,-83.87"/>
</a>
</g>
</g>
<!-- Node8&#45;&gt;Node4 -->
<g id="edge11_Node000008_Node000004" class="edge">
<title>Node8&#45;&gt;Node4</title>
<g id="a_edge11_Node000008_Node000004"><a xlink:title=" ">
<path fill="none" stroke="#63b8ff" d="M512.07,-113.45C444.06,-105.85 320.71,-91.5 205.04,-74.76"/>
<polygon fill="#63b8ff" stroke="#63b8ff" points="205.77,-71.33 195.37,-73.35 204.76,-78.25 205.77,-71.33"/>
</a>
</g>
</g>
<!-- Node8&#45;&gt;Node5 -->
<g id="edge12_Node000008_Node000005" class="edge">
<title>Node8&#45;&gt;Node5</title>
<g id="a_edge12_Node000008_Node000005"><a xlink:title=" ">
<path fill="none" stroke="#63b8ff" d="M512.3,-110.03C459.98,-100.81 378.98,-86.52 323.35,-76.71"/>
<polygon fill="#63b8ff" stroke="#63b8ff" points="324.18,-73.31 313.72,-75.02 322.96,-80.2 324.18,-73.31"/>
</a>
</g>
</g>
<!-- Node9 -->
<g id="Node000009" class="node">
<title>Node9</title>
<g id="a_Node000009"><a xlink:title=" ">
<polygon fill="#e0e0e0" stroke="#999999" points="636.5,-19.25 579.25,-19.25 579.25,0 636.5,0 636.5,-19.25"/>
<text text-anchor="middle" x="607.88" y="-5.75" font-family="Helvetica,sans-Serif" font-size="10.00">Arduino.h</text>
</a>
</g>
</g>
<!-- Node8&#45;&gt;Node9 -->
<g id="edge10_Node000008_Node000009" class="edge">
<title>Node8&#45;&gt;Node9</title>
<g id="a_edge10_Node000008_Node000009"><a xlink:title=" ">
<path fill="none" stroke="#63b8ff" d="M567.48,-110.25C574.53,-92.84 590.34,-53.87 599.95,-30.16"/>
<polygon fill="#63b8ff" stroke="#63b8ff" points="603.14,-31.61 603.66,-21.03 596.65,-28.98 603.14,-31.61"/>
</a>
</g>
</g>
<!-- Node10 -->
<g id="Node000010" class="node">
<title>Node10</title>
<g id="a_Node000010"><a xlink:title=" ">
<polygon fill="#e0e0e0" stroke="#999999" points="775.12,-74.5 730.62,-74.5 730.62,-55.25 775.12,-55.25 775.12,-74.5"/>
<text text-anchor="middle" x="752.88" y="-61" font-family="Helvetica,sans-Serif" font-size="10.00">Wire.h</text>
</a>
</g>
</g>
<!-- Node8&#45;&gt;Node10 -->
<g id="edge13_Node000008_Node000010" class="edge">
<title>Node8&#45;&gt;Node10</title>
<g id="a_edge13_Node000008_Node000010"><a xlink:title=" ">
<path fill="none" stroke="#63b8ff" d="M595.94,-110.09C630.19,-100.44 684.25,-85.21 719.14,-75.38"/>
<polygon fill="#63b8ff" stroke="#63b8ff" points="720.04,-78.76 728.72,-72.68 718.14,-72.02 720.04,-78.76"/>
</a>
</g>
</g>
<!-- Node11 -->
<g id="Node000011" class="node">
<title>Node11</title>
<g id="a_Node000011"><a xlink:title=" ">
<polygon fill="#e0e0e0" stroke="#999999" points="838.88,-74.5 792.88,-74.5 792.88,-55.25 838.88,-55.25 838.88,-74.5"/>
<text text-anchor="middle" x="815.88" y="-61" font-family="Helvetica,sans-Serif" font-size="10.00">ADC.h</text>
</a>
</g>
</g>
<!-- Node8&#45;&gt;Node11 -->
<g id="edge14_Node000008_Node000011" class="edge">
<title>Node8&#45;&gt;Node11</title>
<g id="a_edge14_Node000008_Node000011"><a xlink:title=" ">
<path fill="none" stroke="#63b8ff" d="M613,-110.08C655.27,-102.09 718.12,-89.73 781.5,-74.95"/>
<polygon fill="#63b8ff" stroke="#63b8ff" points="782.09,-78.4 791.03,-72.7 780.49,-71.59 782.09,-78.4"/>
</a>
</g>
</g>
<!-- Node12 -->
<g id="Node000012" class="node">
<title>Node12</title>
<g id="a_Node000012"><a xlink:title=" ">
<polygon fill="#e0e0e0" stroke="#999999" points="499.62,-74.5 440.12,-74.5 440.12,-55.25 499.62,-55.25 499.62,-74.5"/>
<text text-anchor="middle" x="469.88" y="-61" font-family="Helvetica,sans-Serif" font-size="10.00">Encoder.h</text>
</a>
</g>
</g>
<!-- Node8&#45;&gt;Node12 -->
<g id="edge15_Node000008_Node000012" class="edge">
<title>Node8&#45;&gt;Node12</title>
<g id="a_edge15_Node000008_Node000012"><a xlink:title=" ">
<path fill="none" stroke="#63b8ff" d="M547.93,-110.09C533.61,-101.98 512.34,-89.93 495.62,-80.46"/>
<polygon fill="#63b8ff" stroke="#63b8ff" points="497.64,-77.58 487.22,-75.7 494.19,-83.67 497.64,-77.58"/>
</a>
</g>
</g>
<!-- Node13 -->
<g id="Node000013" class="node">
<title>Node13</title>
<g id="a_Node000013"><a xlink:title=" ">
<polygon fill="#e0e0e0" stroke="#999999" points="560.38,-74.5 517.38,-74.5 517.38,-55.25 560.38,-55.25 560.38,-74.5"/>
<text text-anchor="middle" x="538.88" y="-61" font-family="Helvetica,sans-Serif" font-size="10.00">vector</text>
</a>
</g>
</g>
<!-- Node8&#45;&gt;Node13 -->
<g id="edge16_Node000008_Node000013" class="edge">
<title>Node8&#45;&gt;Node13</title>
<g id="a_edge16_Node000008_Node000013"><a xlink:title=" ">
<path fill="none" stroke="#63b8ff" d="M559.75,-110.33C556.55,-103.51 551.99,-93.81 547.95,-85.2"/>
<polygon fill="#63b8ff" stroke="#63b8ff" points="551.15,-83.79 543.74,-76.23 544.82,-86.77 551.15,-83.79"/>
</a>
</g>
</g>
<!-- Node14 -->
<g id="Node000014" class="node">
<title>Node14</title>
<g id="a_Node000014"><a xlink:href="defines_8h.html" target="_top" xlink:title="Hardware pin definitions and global constants for JMR800&#45;V2.">
<polygon fill="white" stroke="#666666" points="720.75,-19.25 665,-19.25 665,0 720.75,0 720.75,-19.25"/>
<text text-anchor="middle" x="692.88" y="-5.75" font-family="Helvetica,sans-Serif" font-size="10.00">defines.h</text>
</a>
</g>
</g>
<!-- Node8&#45;&gt;Node14 -->
<g id="edge17_Node000008_Node000014" class="edge">
<title>Node8&#45;&gt;Node14</title>
<g id="a_edge17_Node000008_Node000014"><a xlink:title=" ">
<path fill="none" stroke="#63b8ff" d="M615.64,-112.25C639.97,-106.3 667.23,-95.2 683.88,-74.5 693.66,-62.34 695.46,-44.49 695.06,-30.75"/>
<polygon fill="#63b8ff" stroke="#63b8ff" points="698.58,-30.8 694.37,-21.08 691.6,-31.31 698.58,-30.8"/>
</a>
</g>
</g>
<!-- Node15 -->
<g id="Node000015" class="node">
<title>Node15</title>
<g id="a_Node000015"><a xlink:href="_logging_8h.html" target="_top" xlink:title="Lightweight logging utility for serial output in the JMR800&#45;V2 project.">
<polygon fill="white" stroke="#666666" points="674.88,-74.5 616.88,-74.5 616.88,-55.25 674.88,-55.25 674.88,-74.5"/>
<text text-anchor="middle" x="645.88" y="-61" font-family="Helvetica,sans-Serif" font-size="10.00">Logging.h</text>
</a>
</g>
</g>
<!-- Node8&#45;&gt;Node15 -->
<g id="edge18_Node000008_Node000015" class="edge">
<title>Node8&#45;&gt;Node15</title>
<g id="a_edge18_Node000008_Node000015"><a xlink:title=" ">
<path fill="none" stroke="#63b8ff" d="M577.79,-110.09C590.04,-102.14 608.13,-90.39 622.59,-81"/>
<polygon fill="#63b8ff" stroke="#63b8ff" points="624.15,-84.16 630.63,-75.78 620.33,-78.29 624.15,-84.16"/>
</a>
</g>
</g>
<!-- Node15&#45;&gt;Node9 -->
<g id="edge19_Node000015_Node000009" class="edge">
<title>Node15&#45;&gt;Node9</title>
<g id="a_edge19_Node000015_Node000009"><a xlink:title=" ">
<path fill="none" stroke="#63b8ff" d="M639.6,-55.08C634.52,-47.96 627.18,-37.68 620.84,-28.8"/>
<polygon fill="#63b8ff" stroke="#63b8ff" points="623.82,-26.95 615.17,-20.84 618.13,-31.01 623.82,-26.95"/>
</a>
</g>
</g>
<!-- Node15&#45;&gt;Node14 -->
<g id="edge20_Node000015_Node000014" class="edge">
<title>Node15&#45;&gt;Node14</title>
<g id="a_edge20_Node000015_Node000014"><a xlink:title=" ">
<path fill="none" stroke="#63b8ff" d="M653.64,-55.08C660.06,-47.8 669.39,-37.23 677.34,-28.23"/>
<polygon fill="#63b8ff" stroke="#63b8ff" points="679.95,-30.56 683.94,-20.74 674.7,-25.93 679.95,-30.56"/>
</a>
</g>
</g>
</g>
</svg>
