<?xml version="1.0" encoding="UTF-8" standalone="no"?>
<!DOCTYPE svg PUBLIC "-//W3C//DTD SVG 1.1//EN"
 "http://www.w3.org/Graphics/SVG/1.1/DTD/svg11.dtd">
<!-- Generated by graphviz version 12.2.1 (20241206.2353)
 -->
<!-- Title: src/widgets/RectangleWidget.cpp Pages: 1 -->
<svg width="478pt" height="138pt"
 viewBox="0.00 0.00 477.75 137.75" xmlns="http://www.w3.org/2000/svg" xmlns:xlink="http://www.w3.org/1999/xlink">
<g id="graph0" class="graph" transform="scale(1 1) rotate(0) translate(4 133.75)">
<title>src/widgets/RectangleWidget.cpp</title>
<!-- Node1 -->
<g id="Node000001" class="node">
<title>Node1</title>
<g id="a_Node000001"><a xlink:title="Implements the RectangleWidget class for drawing rectangular shapes with optional fill and highlight ...">
<polygon fill="#999999" stroke="#666666" points="355.38,-129.75 192.38,-129.75 192.38,-110.5 355.38,-110.5 355.38,-129.75"/>
<text text-anchor="middle" x="273.88" y="-116.25" font-family="Helvetica,sans-Serif" font-size="10.00">src/widgets/RectangleWidget.cpp</text>
</a>
</g>
</g>
<!-- Node2 -->
<g id="Node000002" class="node">
<title>Node2</title>
<g id="a_Node000002"><a xlink:href="_rectangle_widget_8h.html" target="_top" xlink:title="Displays a static rectangle, optionally filled, as part of the OLED UI.">
<polygon fill="white" stroke="#666666" points="209.88,-74.5 73.88,-74.5 73.88,-55.25 209.88,-55.25 209.88,-74.5"/>
<text text-anchor="middle" x="141.88" y="-61" font-family="Helvetica,sans-Serif" font-size="10.00">widgets/RectangleWidget.h</text>
</a>
</g>
</g>
<!-- Node1&#45;&gt;Node2 -->
<g id="edge1_Node000001_Node000002" class="edge">
<title>Node1&#45;&gt;Node2</title>
<g id="a_edge1_Node000001_Node000002"><a xlink:title=" ">
<path fill="none" stroke="#63b8ff" d="M251.48,-110.09C230.43,-101.6 198.67,-88.79 174.75,-79.14"/>
<polygon fill="#63b8ff" stroke="#63b8ff" points="176.36,-76.01 165.78,-75.52 173.74,-82.51 176.36,-76.01"/>
</a>
</g>
</g>
<!-- Node5 -->
<g id="Node000005" class="node">
<title>Node5</title>
<g id="a_Node000005"><a xlink:href="_screen_manager_8h.html" target="_top" xlink:title="Declares the ScreenManager class responsible for UI screen control on the OLED display.">
<polygon fill="white" stroke="#666666" points="319.75,-74.5 228,-74.5 228,-55.25 319.75,-55.25 319.75,-74.5"/>
<text text-anchor="middle" x="273.88" y="-61" font-family="Helvetica,sans-Serif" font-size="10.00">ScreenManager.h</text>
</a>
</g>
</g>
<!-- Node1&#45;&gt;Node5 -->
<g id="edge4_Node000001_Node000005" class="edge">
<title>Node1&#45;&gt;Node5</title>
<g id="a_edge4_Node000001_Node000005"><a xlink:title=" ">
<path fill="none" stroke="#63b8ff" d="M273.88,-110.33C273.88,-103.82 273.88,-94.67 273.88,-86.37"/>
<polygon fill="#63b8ff" stroke="#63b8ff" points="277.38,-86.37 273.88,-76.37 270.38,-86.37 277.38,-86.37"/>
</a>
</g>
</g>
<!-- Node7 -->
<g id="Node000007" class="node">
<title>Node7</title>
<g id="a_Node000007"><a xlink:href="_logging_8h.html" target="_top" xlink:title="Lightweight logging utility for serial output in the JMR800&#45;V2 project.">
<polygon fill="white" stroke="#666666" points="395.88,-74.5 337.88,-74.5 337.88,-55.25 395.88,-55.25 395.88,-74.5"/>
<text text-anchor="middle" x="366.88" y="-61" font-family="Helvetica,sans-Serif" font-size="10.00">Logging.h</text>
</a>
</g>
</g>
<!-- Node1&#45;&gt;Node7 -->
<g id="edge7_Node000001_Node000007" class="edge">
<title>Node1&#45;&gt;Node7</title>
<g id="a_edge7_Node000001_Node000007"><a xlink:title=" ">
<path fill="none" stroke="#63b8ff" d="M289.65,-110.09C303.81,-101.98 324.86,-89.93 341.4,-80.46"/>
<polygon fill="#63b8ff" stroke="#63b8ff" points="342.77,-83.71 349.71,-75.7 339.29,-77.64 342.77,-83.71"/>
</a>
</g>
</g>
<!-- Node3 -->
<g id="Node000003" class="node">
<title>Node3</title>
<g id="a_Node000003"><a xlink:href="_widget_8h.html" target="_top" xlink:title="Abstract base class for UI widgets in the JMR800&#45;V2 OLED interface.">
<polygon fill="white" stroke="#666666" points="91.75,-19.25 0,-19.25 0,0 91.75,0 91.75,-19.25"/>
<text text-anchor="middle" x="45.88" y="-5.75" font-family="Helvetica,sans-Serif" font-size="10.00">widgets/Widget.h</text>
</a>
</g>
</g>
<!-- Node2&#45;&gt;Node3 -->
<g id="edge2_Node000002_Node000003" class="edge">
<title>Node2&#45;&gt;Node3</title>
<g id="a_edge2_Node000002_Node000003"><a xlink:title=" ">
<path fill="none" stroke="#63b8ff" d="M125.59,-54.84C110.97,-46.73 89.25,-34.68 72.17,-25.21"/>
<polygon fill="#63b8ff" stroke="#63b8ff" points="74.01,-22.23 63.56,-20.44 70.61,-28.35 74.01,-22.23"/>
</a>
</g>
</g>
<!-- Node4 -->
<g id="Node000004" class="node">
<title>Node4</title>
<g id="a_Node000004"><a xlink:title=" ">
<polygon fill="#e0e0e0" stroke="#999999" points="209.88,-19.25 109.88,-19.25 109.88,0 209.88,0 209.88,-19.25"/>
<text text-anchor="middle" x="159.88" y="-5.75" font-family="Helvetica,sans-Serif" font-size="10.00">Adafruit_SH110X.h</text>
</a>
</g>
</g>
<!-- Node2&#45;&gt;Node4 -->
<g id="edge3_Node000002_Node000004" class="edge">
<title>Node2&#45;&gt;Node4</title>
<g id="a_edge3_Node000002_Node000004"><a xlink:title=" ">
<path fill="none" stroke="#63b8ff" d="M144.85,-55.08C147.13,-48.34 150.36,-38.77 153.24,-30.24"/>
<polygon fill="#63b8ff" stroke="#63b8ff" points="156.47,-31.64 156.35,-21.04 149.84,-29.4 156.47,-31.64"/>
</a>
</g>
</g>
<!-- Node5&#45;&gt;Node4 -->
<g id="edge5_Node000005_Node000004" class="edge">
<title>Node5&#45;&gt;Node4</title>
<g id="a_edge5_Node000005_Node000004"><a xlink:title=" ">
<path fill="none" stroke="#63b8ff" d="M254.54,-54.84C236.77,-46.54 210.16,-34.11 189.67,-24.54"/>
<polygon fill="#63b8ff" stroke="#63b8ff" points="191.22,-21.4 180.68,-20.34 188.26,-27.75 191.22,-21.4"/>
</a>
</g>
</g>
<!-- Node6 -->
<g id="Node000006" class="node">
<title>Node6</title>
<g id="a_Node000006"><a xlink:href="_screen_8h.html" target="_top" xlink:title="Abstract interface for all UI screens in the JMR800&#45;V2 system.">
<polygon fill="white" stroke="#666666" points="320.12,-19.25 227.62,-19.25 227.62,0 320.12,0 320.12,-19.25"/>
<text text-anchor="middle" x="273.88" y="-5.75" font-family="Helvetica,sans-Serif" font-size="10.00">screens/Screen.h</text>
</a>
</g>
</g>
<!-- Node5&#45;&gt;Node6 -->
<g id="edge6_Node000005_Node000006" class="edge">
<title>Node5&#45;&gt;Node6</title>
<g id="a_edge6_Node000005_Node000006"><a xlink:title=" ">
<path fill="none" stroke="#63b8ff" d="M273.88,-55.08C273.88,-48.57 273.88,-39.42 273.88,-31.12"/>
<polygon fill="#63b8ff" stroke="#63b8ff" points="277.38,-31.12 273.88,-21.12 270.38,-31.12 277.38,-31.12"/>
</a>
</g>
</g>
<!-- Node8 -->
<g id="Node000008" class="node">
<title>Node8</title>
<g id="a_Node000008"><a xlink:title=" ">
<polygon fill="#e0e0e0" stroke="#999999" points="395.5,-19.25 338.25,-19.25 338.25,0 395.5,0 395.5,-19.25"/>
<text text-anchor="middle" x="366.88" y="-5.75" font-family="Helvetica,sans-Serif" font-size="10.00">Arduino.h</text>
</a>
</g>
</g>
<!-- Node7&#45;&gt;Node8 -->
<g id="edge8_Node000007_Node000008" class="edge">
<title>Node7&#45;&gt;Node8</title>
<g id="a_edge8_Node000007_Node000008"><a xlink:title=" ">
<path fill="none" stroke="#63b8ff" d="M366.88,-55.08C366.88,-48.57 366.88,-39.42 366.88,-31.12"/>
<polygon fill="#63b8ff" stroke="#63b8ff" points="370.38,-31.12 366.88,-21.12 363.38,-31.12 370.38,-31.12"/>
</a>
</g>
</g>
<!-- Node9 -->
<g id="Node000009" class="node">
<title>Node9</title>
<g id="a_Node000009"><a xlink:href="defines_8h.html" target="_top" xlink:title="Hardware pin definitions and global constants for JMR800&#45;V2.">
<polygon fill="white" stroke="#666666" points="469.75,-19.25 414,-19.25 414,0 469.75,0 469.75,-19.25"/>
<text text-anchor="middle" x="441.88" y="-5.75" font-family="Helvetica,sans-Serif" font-size="10.00">defines.h</text>
</a>
</g>
</g>
<!-- Node7&#45;&gt;Node9 -->
<g id="edge9_Node000007_Node000009" class="edge">
<title>Node7&#45;&gt;Node9</title>
<g id="a_edge9_Node000007_Node000009"><a xlink:title=" ">
<path fill="none" stroke="#63b8ff" d="M379.6,-54.84C390.59,-47.04 406.72,-35.59 419.81,-26.29"/>
<polygon fill="#63b8ff" stroke="#63b8ff" points="421.73,-29.22 427.86,-20.58 417.68,-23.51 421.73,-29.22"/>
</a>
</g>
</g>
</g>
</svg>
