<?xml version="1.0" encoding="UTF-8" standalone="no"?>
<!DOCTYPE svg PUBLIC "-//W3C//DTD SVG 1.1//EN"
 "http://www.w3.org/Graphics/SVG/1.1/DTD/svg11.dtd">
<!-- Generated by graphviz version 12.2.1 (20241206.2353)
 -->
<!-- Title: include/widgets/RectangleWidget.h Pages: 1 -->
<svg width="1219pt" height="172pt"
 viewBox="0.00 0.00 1218.50 171.50" xmlns="http://www.w3.org/2000/svg" xmlns:xlink="http://www.w3.org/1999/xlink">
<g id="graph0" class="graph" transform="scale(1 1) rotate(0) translate(4 167.5)">
<title>include/widgets/RectangleWidget.h</title>
<!-- Node1 -->
<g id="Node000001" class="node">
<title>Node1</title>
<g id="a_Node000001"><a xlink:title="Displays a static rectangle, optionally filled, as part of the OLED UI.">
<polygon fill="#999999" stroke="#666666" points="585.38,-163.5 454.62,-163.5 454.62,-133 585.38,-133 585.38,-163.5"/>
<text text-anchor="start" x="462.62" y="-150" font-family="Helvetica,sans-Serif" font-size="10.00">include/widgets/Rectangle</text>
<text text-anchor="middle" x="520" y="-138.75" font-family="Helvetica,sans-Serif" font-size="10.00">Widget.h</text>
</a>
</g>
</g>
<!-- Node2 -->
<g id="Node000002" class="node">
<title>Node2</title>
<g id="a_Node000002"><a xlink:href="_shared_control_screen_utility_8h.html" target="_top" xlink:title="Provides utility functions for initializing common screen layouts.">
<polygon fill="white" stroke="#666666" points="306.75,-97 157.25,-97 157.25,-66.5 306.75,-66.5 306.75,-97"/>
<text text-anchor="start" x="165.25" y="-83.5" font-family="Helvetica,sans-Serif" font-size="10.00">include/screens/SharedControl</text>
<text text-anchor="middle" x="232" y="-72.25" font-family="Helvetica,sans-Serif" font-size="10.00">ScreenUtility.h</text>
</a>
</g>
</g>
<!-- Node1&#45;&gt;Node2 -->
<g id="edge1_Node000001_Node000002" class="edge">
<title>Node1&#45;&gt;Node2</title>
<g id="a_edge1_Node000001_Node000002"><a xlink:title=" ">
<path fill="none" stroke="#63b8ff" d="M443.29,-130.07C397.81,-119.88 340.77,-107.11 297.43,-97.4"/>
<polygon fill="#63b8ff" stroke="#63b8ff" points="442.29,-133.43 452.81,-132.2 443.82,-126.6 442.29,-133.43"/>
</a>
</g>
</g>
<!-- Node3 -->
<g id="Node000003" class="node">
<title>Node3</title>
<g id="a_Node000003"><a xlink:href="_config_screen_8cpp.html" target="_top" xlink:title="Implements the configuration screen for knob mapping and diagnostics.">
<polygon fill="white" stroke="#666666" points="148,-24.88 0,-24.88 0,-5.63 148,-5.63 148,-24.88"/>
<text text-anchor="middle" x="74" y="-11.38" font-family="Helvetica,sans-Serif" font-size="10.00">src/screens/ConfigScreen.cpp</text>
</a>
</g>
</g>
<!-- Node1&#45;&gt;Node3 -->
<g id="edge5_Node000001_Node000003" class="edge">
<title>Node1&#45;&gt;Node3</title>
<g id="a_edge5_Node000001_Node000003"><a xlink:title=" ">
<path fill="none" stroke="#63b8ff" d="M443.07,-143.02C349.49,-136.81 197.83,-123.05 148,-97 115.31,-79.91 89.67,-42.35 79.17,-25.16"/>
<polygon fill="#63b8ff" stroke="#63b8ff" points="442.75,-146.5 452.96,-143.65 443.2,-139.52 442.75,-146.5"/>
</a>
</g>
</g>
<!-- Node4 -->
<g id="Node000004" class="node">
<title>Node4</title>
<g id="a_Node000004"><a xlink:href="_controls_test_screen_8cpp.html" target="_top" xlink:title="Implements a screen for testing all physical controls: knobs, buttons, and encoder.">
<polygon fill="white" stroke="#666666" points="441.75,-30.5 316.25,-30.5 316.25,0 441.75,0 441.75,-30.5"/>
<text text-anchor="start" x="324.25" y="-17" font-family="Helvetica,sans-Serif" font-size="10.00">src/screens/ControlsTest</text>
<text text-anchor="middle" x="379" y="-5.75" font-family="Helvetica,sans-Serif" font-size="10.00">Screen.cpp</text>
</a>
</g>
</g>
<!-- Node1&#45;&gt;Node4 -->
<g id="edge6_Node000001_Node000004" class="edge">
<title>Node1&#45;&gt;Node4</title>
<g id="a_edge6_Node000001_Node000004"><a xlink:title=" ">
<path fill="none" stroke="#63b8ff" d="M443.18,-143.62C410.23,-137.77 374.64,-124.81 354,-97 339.22,-77.08 354.85,-48.27 367.18,-30.99"/>
<polygon fill="#63b8ff" stroke="#63b8ff" points="442.31,-147.02 452.73,-145.1 443.39,-140.11 442.31,-147.02"/>
</a>
</g>
</g>
<!-- Node6 -->
<g id="Node000006" class="node">
<title>Node6</title>
<g id="a_Node000006"><a xlink:href="_direct_command_screen_8cpp.html" target="_top" xlink:title="Implements a screen for sending raw parameter/value commands to the synthesizer.">
<polygon fill="white" stroke="#666666" points="504.62,-97 363.38,-97 363.38,-66.5 504.62,-66.5 504.62,-97"/>
<text text-anchor="start" x="371.38" y="-83.5" font-family="Helvetica,sans-Serif" font-size="10.00">src/screens/DirectCommand</text>
<text text-anchor="middle" x="434" y="-72.25" font-family="Helvetica,sans-Serif" font-size="10.00">Screen.cpp</text>
</a>
</g>
</g>
<!-- Node1&#45;&gt;Node6 -->
<g id="edge7_Node000001_Node000006" class="edge">
<title>Node1&#45;&gt;Node6</title>
<g id="a_edge7_Node000001_Node000006"><a xlink:title=" ">
<path fill="none" stroke="#63b8ff" d="M491.39,-125.79C478.93,-116.44 464.64,-105.73 453.44,-97.33"/>
<polygon fill="#63b8ff" stroke="#63b8ff" points="489.17,-128.51 499.27,-131.71 493.37,-122.91 489.17,-128.51"/>
</a>
</g>
</g>
<!-- Node7 -->
<g id="Node000007" class="node">
<title>Node7</title>
<g id="a_Node000007"><a xlink:href="_knob_config_dialog_8cpp.html" target="_top" xlink:title=" ">
<polygon fill="white" stroke="#666666" points="689.75,-91.38 522.25,-91.38 522.25,-72.12 689.75,-72.12 689.75,-91.38"/>
<text text-anchor="middle" x="606" y="-77.88" font-family="Helvetica,sans-Serif" font-size="10.00">src/screens/KnobConfigDialog.cpp</text>
</a>
</g>
</g>
<!-- Node1&#45;&gt;Node7 -->
<g id="edge8_Node000001_Node000007" class="edge">
<title>Node1&#45;&gt;Node7</title>
<g id="a_edge8_Node000001_Node000007"><a xlink:title=" ">
<path fill="none" stroke="#63b8ff" d="M548.29,-126.03C563.91,-114.32 582.46,-100.4 594.24,-91.57"/>
<polygon fill="#63b8ff" stroke="#63b8ff" points="546.63,-122.91 540.73,-131.71 550.83,-128.51 546.63,-122.91"/>
</a>
</g>
</g>
<!-- Node8 -->
<g id="Node000008" class="node">
<title>Node8</title>
<g id="a_Node000008"><a xlink:href="_modal_dialog_8cpp.html" target="_top" xlink:title="Implements a base modal dialog screen used to temporarily take over UI control.">
<polygon fill="white" stroke="#666666" points="850.38,-91.38 707.62,-91.38 707.62,-72.12 850.38,-72.12 850.38,-91.38"/>
<text text-anchor="middle" x="779" y="-77.88" font-family="Helvetica,sans-Serif" font-size="10.00">src/screens/ModalDialog.cpp</text>
</a>
</g>
</g>
<!-- Node1&#45;&gt;Node8 -->
<g id="edge9_Node000001_Node000008" class="edge">
<title>Node1&#45;&gt;Node8</title>
<g id="a_edge9_Node000001_Node000008"><a xlink:title=" ">
<path fill="none" stroke="#63b8ff" d="M589.99,-129.82C639.21,-117.56 703.08,-101.66 742.54,-91.83"/>
<polygon fill="#63b8ff" stroke="#63b8ff" points="589.42,-126.35 580.56,-132.17 591.11,-133.15 589.42,-126.35"/>
</a>
</g>
</g>
<!-- Node9 -->
<g id="Node000009" class="node">
<title>Node9</title>
<g id="a_Node000009"><a xlink:href="_run_mode_screen_8cpp.html" target="_top" xlink:title="Implements the screen for displaying and managing widgets during normal controller operation.">
<polygon fill="white" stroke="#666666" points="1029.75,-91.38 868.25,-91.38 868.25,-72.12 1029.75,-72.12 1029.75,-91.38"/>
<text text-anchor="middle" x="949" y="-77.88" font-family="Helvetica,sans-Serif" font-size="10.00">src/screens/RunModeScreen.cpp</text>
</a>
</g>
</g>
<!-- Node1&#45;&gt;Node9 -->
<g id="edge10_Node000001_Node000009" class="edge">
<title>Node1&#45;&gt;Node9</title>
<g id="a_edge10_Node000001_Node000009"><a xlink:title=" ">
<path fill="none" stroke="#63b8ff" d="M596.8,-136.09C665.53,-126.04 769.03,-110.79 859,-97 869.79,-95.35 881.3,-93.55 892.36,-91.81"/>
<polygon fill="#63b8ff" stroke="#63b8ff" points="596.54,-132.59 587.15,-137.5 597.55,-139.51 596.54,-132.59"/>
</a>
</g>
</g>
<!-- Node10 -->
<g id="Node000010" class="node">
<title>Node10</title>
<g id="a_Node000010"><a xlink:href="_rectangle_widget_8cpp.html" target="_top" xlink:title="Implements the RectangleWidget class for drawing rectangular shapes with optional fill and highlight ...">
<polygon fill="white" stroke="#666666" points="1210.5,-91.38 1047.5,-91.38 1047.5,-72.12 1210.5,-72.12 1210.5,-91.38"/>
<text text-anchor="middle" x="1129" y="-77.88" font-family="Helvetica,sans-Serif" font-size="10.00">src/widgets/RectangleWidget.cpp</text>
</a>
</g>
</g>
<!-- Node1&#45;&gt;Node10 -->
<g id="edge11_Node000001_Node000010" class="edge">
<title>Node1&#45;&gt;Node10</title>
<g id="a_edge11_Node000001_Node000010"><a xlink:title=" ">
<path fill="none" stroke="#63b8ff" d="M597.05,-141.26C698.54,-133.02 882.5,-116.95 1039,-97 1050.61,-95.52 1063.03,-93.7 1074.82,-91.87"/>
<polygon fill="#63b8ff" stroke="#63b8ff" points="596.88,-137.76 587.19,-142.05 597.44,-144.74 596.88,-137.76"/>
</a>
</g>
</g>
<!-- Node2&#45;&gt;Node3 -->
<g id="edge2_Node000002_Node000003" class="edge">
<title>Node2&#45;&gt;Node3</title>
<g id="a_edge2_Node000002_Node000003"><a xlink:title=" ">
<path fill="none" stroke="#63b8ff" d="M185.64,-61.82C156.09,-49.76 119.16,-34.69 96.07,-25.26"/>
<polygon fill="#63b8ff" stroke="#63b8ff" points="184.16,-65 194.75,-65.54 186.81,-58.52 184.16,-65"/>
</a>
</g>
</g>
<!-- Node2&#45;&gt;Node4 -->
<g id="edge3_Node000002_Node000004" class="edge">
<title>Node2&#45;&gt;Node4</title>
<g id="a_edge3_Node000002_Node000004"><a xlink:title=" ">
<path fill="none" stroke="#63b8ff" d="M275.61,-61.62C297.98,-51.8 324.8,-40.03 345.52,-30.94"/>
<polygon fill="#63b8ff" stroke="#63b8ff" points="274.49,-58.28 266.74,-65.51 277.31,-64.69 274.49,-58.28"/>
</a>
</g>
</g>
<!-- Node5 -->
<g id="Node000005" class="node">
<title>Node5</title>
<g id="a_Node000005"><a xlink:href="_shared_control_screen_utility_8cpp.html" target="_top" xlink:title="Provides layout helper utilities for constructing shared UI control screens.">
<polygon fill="white" stroke="#666666" points="298.12,-30.5 165.88,-30.5 165.88,0 298.12,0 298.12,-30.5"/>
<text text-anchor="start" x="173.88" y="-17" font-family="Helvetica,sans-Serif" font-size="10.00">src/screens/SharedControl</text>
<text text-anchor="middle" x="232" y="-5.75" font-family="Helvetica,sans-Serif" font-size="10.00">ScreenUtility.cpp</text>
</a>
</g>
</g>
<!-- Node2&#45;&gt;Node5 -->
<g id="edge4_Node000002_Node000005" class="edge">
<title>Node2&#45;&gt;Node5</title>
<g id="a_edge4_Node000002_Node000005"><a xlink:title=" ">
<path fill="none" stroke="#63b8ff" d="M232,-54.81C232,-46.64 232,-37.91 232,-30.83"/>
<polygon fill="#63b8ff" stroke="#63b8ff" points="228.5,-54.6 232,-64.6 235.5,-54.6 228.5,-54.6"/>
</a>
</g>
</g>
</g>
</svg>
