<?xml version="1.0" encoding="UTF-8" standalone="no"?>
<!DOCTYPE svg PUBLIC "-//W3C//DTD SVG 1.1//EN"
 "http://www.w3.org/Graphics/SVG/1.1/DTD/svg11.dtd">
<!-- Generated by graphviz version 12.2.1 (20241206.2353)
 -->
<!-- Title: include/widgets/RectangleWidget.h Pages: 1 -->
<svg width="218pt" height="94pt"
 viewBox="0.00 0.00 217.88 93.75" xmlns="http://www.w3.org/2000/svg" xmlns:xlink="http://www.w3.org/1999/xlink">
<g id="graph0" class="graph" transform="scale(1 1) rotate(0) translate(4 89.75)">
<title>include/widgets/RectangleWidget.h</title>
<!-- Node1 -->
<g id="Node000001" class="node">
<title>Node1</title>
<g id="a_Node000001"><a xlink:title="Displays a static rectangle, optionally filled, as part of the OLED UI.">
<polygon fill="#999999" stroke="#666666" points="168.25,-85.75 37.5,-85.75 37.5,-55.25 168.25,-55.25 168.25,-85.75"/>
<text text-anchor="start" x="45.5" y="-72.25" font-family="Helvetica,sans-Serif" font-size="10.00">include/widgets/Rectangle</text>
<text text-anchor="middle" x="102.88" y="-61" font-family="Helvetica,sans-Serif" font-size="10.00">Widget.h</text>
</a>
</g>
</g>
<!-- Node2 -->
<g id="Node000002" class="node">
<title>Node2</title>
<g id="a_Node000002"><a xlink:href="_widget_8h.html" target="_top" xlink:title="Abstract base class for UI widgets in the JMR800&#45;V2 OLED interface.">
<polygon fill="white" stroke="#666666" points="91.75,-19.25 0,-19.25 0,0 91.75,0 91.75,-19.25"/>
<text text-anchor="middle" x="45.88" y="-5.75" font-family="Helvetica,sans-Serif" font-size="10.00">widgets/Widget.h</text>
</a>
</g>
</g>
<!-- Node1&#45;&gt;Node2 -->
<g id="edge1_Node000001_Node000002" class="edge">
<title>Node1&#45;&gt;Node2</title>
<g id="a_edge1_Node000001_Node000002"><a xlink:title=" ">
<path fill="none" stroke="#63b8ff" d="M88.79,-54.95C80.86,-46.76 70.91,-36.48 62.59,-27.89"/>
<polygon fill="#63b8ff" stroke="#63b8ff" points="65.19,-25.54 55.71,-20.79 60.16,-30.41 65.19,-25.54"/>
</a>
</g>
</g>
<!-- Node3 -->
<g id="Node000003" class="node">
<title>Node3</title>
<g id="a_Node000003"><a xlink:title=" ">
<polygon fill="#e0e0e0" stroke="#999999" points="209.88,-19.25 109.88,-19.25 109.88,0 209.88,0 209.88,-19.25"/>
<text text-anchor="middle" x="159.88" y="-5.75" font-family="Helvetica,sans-Serif" font-size="10.00">Adafruit_SH110X.h</text>
</a>
</g>
</g>
<!-- Node1&#45;&gt;Node3 -->
<g id="edge2_Node000001_Node000003" class="edge">
<title>Node1&#45;&gt;Node3</title>
<g id="a_edge2_Node000001_Node000003"><a xlink:title=" ">
<path fill="none" stroke="#63b8ff" d="M116.96,-54.95C124.89,-46.76 134.84,-36.48 143.16,-27.89"/>
<polygon fill="#63b8ff" stroke="#63b8ff" points="145.59,-30.41 150.04,-20.79 140.56,-25.54 145.59,-30.41"/>
</a>
</g>
</g>
</g>
</svg>
