<?xml version="1.0" encoding="UTF-8" standalone="no"?>
<!DOCTYPE svg PUBLIC "-//W3C//DTD SVG 1.1//EN"
 "http://www.w3.org/Graphics/SVG/1.1/DTD/svg11.dtd">
<!-- Generated by graphviz version 12.2.1 (20241206.2353)
 -->
<!-- Title: include/modes/RunMode.h Pages: 1 -->
<svg width="491pt" height="138pt"
 viewBox="0.00 0.00 491.12 137.75" xmlns="http://www.w3.org/2000/svg" xmlns:xlink="http://www.w3.org/1999/xlink">
<g id="graph0" class="graph" transform="scale(1 1) rotate(0) translate(4 133.75)">
<title>include/modes/RunMode.h</title>
<!-- Node1 -->
<g id="Node000001" class="node">
<title>Node1</title>
<g id="a_Node000001"><a xlink:title="Defines the main runtime mode of the application.">
<polygon fill="#999999" stroke="#666666" points="220.38,-129.75 88.12,-129.75 88.12,-110.5 220.38,-110.5 220.38,-129.75"/>
<text text-anchor="middle" x="154.25" y="-116.25" font-family="Helvetica,sans-Serif" font-size="10.00">include/modes/RunMode.h</text>
</a>
</g>
</g>
<!-- Node2 -->
<g id="Node000002" class="node">
<title>Node2</title>
<g id="a_Node000002"><a xlink:href="_app_mode_8h.html" target="_top" xlink:title="Abstract interface for application mode behavior.">
<polygon fill="white" stroke="#666666" points="136.12,-74.5 38.38,-74.5 38.38,-55.25 136.12,-55.25 136.12,-74.5"/>
<text text-anchor="middle" x="87.25" y="-61" font-family="Helvetica,sans-Serif" font-size="10.00">modes/AppMode.h</text>
</a>
</g>
</g>
<!-- Node1&#45;&gt;Node2 -->
<g id="edge1_Node000001_Node000002" class="edge">
<title>Node1&#45;&gt;Node2</title>
<g id="a_edge1_Node000001_Node000002"><a xlink:title=" ">
<path fill="none" stroke="#63b8ff" d="M142.88,-110.09C133.2,-102.4 119.05,-91.15 107.44,-81.93"/>
<polygon fill="#63b8ff" stroke="#63b8ff" points="109.64,-79.2 99.63,-75.72 105.28,-84.68 109.64,-79.2"/>
</a>
</g>
</g>
<!-- Node4 -->
<g id="Node000004" class="node">
<title>Node4</title>
<g id="a_Node000004"><a xlink:href="_run_mode_screen_8h.html" target="_top" xlink:title="Represents the active runtime screen for interacting with control widgets.">
<polygon fill="white" stroke="#666666" points="308.5,-74.5 174,-74.5 174,-55.25 308.5,-55.25 308.5,-74.5"/>
<text text-anchor="middle" x="241.25" y="-61" font-family="Helvetica,sans-Serif" font-size="10.00">screens/RunModeScreen.h</text>
</a>
</g>
</g>
<!-- Node1&#45;&gt;Node4 -->
<g id="edge3_Node000001_Node000004" class="edge">
<title>Node1&#45;&gt;Node4</title>
<g id="a_edge3_Node000001_Node000004"><a xlink:title=" ">
<path fill="none" stroke="#63b8ff" d="M169.01,-110.09C182.13,-102.06 201.57,-90.16 216.98,-80.73"/>
<polygon fill="#63b8ff" stroke="#63b8ff" points="218.43,-83.95 225.13,-75.74 214.77,-77.98 218.43,-83.95"/>
</a>
</g>
</g>
<!-- Node3 -->
<g id="Node000003" class="node">
<title>Node3</title>
<g id="a_Node000003"><a xlink:href="_screen_8h.html" target="_top" xlink:title="Abstract interface for all UI screens in the JMR800&#45;V2 system.">
<polygon fill="white" stroke="#666666" points="92.5,-19.25 0,-19.25 0,0 92.5,0 92.5,-19.25"/>
<text text-anchor="middle" x="46.25" y="-5.75" font-family="Helvetica,sans-Serif" font-size="10.00">screens/Screen.h</text>
</a>
</g>
</g>
<!-- Node2&#45;&gt;Node3 -->
<g id="edge2_Node000002_Node000003" class="edge">
<title>Node2&#45;&gt;Node3</title>
<g id="a_edge2_Node000002_Node000003"><a xlink:title=" ">
<path fill="none" stroke="#63b8ff" d="M80.48,-55.08C74.93,-47.88 66.91,-37.46 60.02,-28.51"/>
<polygon fill="#63b8ff" stroke="#63b8ff" points="62.96,-26.6 54.09,-20.81 57.42,-30.87 62.96,-26.6"/>
</a>
</g>
</g>
<!-- Node4&#45;&gt;Node3 -->
<g id="edge8_Node000004_Node000003" class="edge">
<title>Node4&#45;&gt;Node3</title>
<g id="a_edge8_Node000004_Node000003"><a xlink:title=" ">
<path fill="none" stroke="#63b8ff" d="M208.17,-54.84C175.81,-46.01 126.33,-32.49 90.58,-22.73"/>
<polygon fill="#63b8ff" stroke="#63b8ff" points="91.52,-19.36 80.95,-20.1 89.68,-26.11 91.52,-19.36"/>
</a>
</g>
</g>
<!-- Node5 -->
<g id="Node000005" class="node">
<title>Node5</title>
<g id="a_Node000005"><a xlink:title=" ">
<polygon fill="#e0e0e0" stroke="#999999" points="194,-19.25 110.5,-19.25 110.5,0 194,0 194,-19.25"/>
<text text-anchor="middle" x="152.25" y="-5.75" font-family="Helvetica,sans-Serif" font-size="10.00">Adafruit_GFX.h</text>
</a>
</g>
</g>
<!-- Node4&#45;&gt;Node5 -->
<g id="edge4_Node000004_Node000005" class="edge">
<title>Node4&#45;&gt;Node5</title>
<g id="a_edge4_Node000004_Node000005"><a xlink:title=" ">
<path fill="none" stroke="#63b8ff" d="M226.15,-54.84C212.73,-46.81 192.84,-34.91 177.08,-25.48"/>
<polygon fill="#63b8ff" stroke="#63b8ff" points="179.1,-22.61 168.72,-20.48 175.5,-28.62 179.1,-22.61"/>
</a>
</g>
</g>
<!-- Node6 -->
<g id="Node000006" class="node">
<title>Node6</title>
<g id="a_Node000006"><a xlink:title=" ">
<polygon fill="#e0e0e0" stroke="#999999" points="312.25,-19.25 212.25,-19.25 212.25,0 312.25,0 312.25,-19.25"/>
<text text-anchor="middle" x="262.25" y="-5.75" font-family="Helvetica,sans-Serif" font-size="10.00">Adafruit_SH110X.h</text>
</a>
</g>
</g>
<!-- Node4&#45;&gt;Node6 -->
<g id="edge5_Node000004_Node000006" class="edge">
<title>Node4&#45;&gt;Node6</title>
<g id="a_edge5_Node000004_Node000006"><a xlink:title=" ">
<path fill="none" stroke="#63b8ff" d="M244.72,-55.08C247.38,-48.34 251.15,-38.77 254.51,-30.24"/>
<polygon fill="#63b8ff" stroke="#63b8ff" points="257.74,-31.6 258.15,-21.02 251.23,-29.04 257.74,-31.6"/>
</a>
</g>
</g>
<!-- Node7 -->
<g id="Node000007" class="node">
<title>Node7</title>
<g id="a_Node000007"><a xlink:title=" ">
<polygon fill="#e0e0e0" stroke="#999999" points="373.75,-19.25 330.75,-19.25 330.75,0 373.75,0 373.75,-19.25"/>
<text text-anchor="middle" x="352.25" y="-5.75" font-family="Helvetica,sans-Serif" font-size="10.00">vector</text>
</a>
</g>
</g>
<!-- Node4&#45;&gt;Node7 -->
<g id="edge6_Node000004_Node000007" class="edge">
<title>Node4&#45;&gt;Node7</title>
<g id="a_edge6_Node000004_Node000007"><a xlink:title=" ">
<path fill="none" stroke="#63b8ff" d="M260.08,-54.84C277.3,-46.58 303.05,-34.23 322.96,-24.68"/>
<polygon fill="#63b8ff" stroke="#63b8ff" points="324.46,-27.84 331.96,-20.36 321.43,-21.53 324.46,-27.84"/>
</a>
</g>
</g>
<!-- Node8 -->
<g id="Node000008" class="node">
<title>Node8</title>
<g id="a_Node000008"><a xlink:href="_widget_8h.html" target="_top" xlink:title="Abstract base class for UI widgets in the JMR800&#45;V2 OLED interface.">
<polygon fill="white" stroke="#666666" points="483.12,-19.25 391.38,-19.25 391.38,0 483.12,0 483.12,-19.25"/>
<text text-anchor="middle" x="437.25" y="-5.75" font-family="Helvetica,sans-Serif" font-size="10.00">widgets/Widget.h</text>
</a>
</g>
</g>
<!-- Node4&#45;&gt;Node8 -->
<g id="edge7_Node000004_Node000008" class="edge">
<title>Node4&#45;&gt;Node8</title>
<g id="a_edge7_Node000004_Node000008"><a xlink:title=" ">
<path fill="none" stroke="#63b8ff" d="M274.5,-54.84C307.16,-45.97 357.19,-32.37 393.16,-22.6"/>
<polygon fill="#63b8ff" stroke="#63b8ff" points="393.65,-26.1 402.38,-20.1 391.81,-19.34 393.65,-26.1"/>
</a>
</g>
</g>
</g>
</svg>
