<?xml version="1.0" encoding="UTF-8" standalone="no"?>
<!DOCTYPE svg PUBLIC "-//W3C//DTD SVG 1.1//EN"
 "http://www.w3.org/Graphics/SVG/1.1/DTD/svg11.dtd">
<!-- Generated by graphviz version 12.2.1 (20241206.2353)
 -->
<!-- Title: include/screens/RunModeScreen.h Pages: 1 -->
<svg width="491pt" height="83pt"
 viewBox="0.00 0.00 491.00 82.50" xmlns="http://www.w3.org/2000/svg" xmlns:xlink="http://www.w3.org/1999/xlink">
<g id="graph0" class="graph" transform="scale(1 1) rotate(0) translate(4 78.5)">
<title>include/screens/RunModeScreen.h</title>
<!-- Node1 -->
<g id="Node000001" class="node">
<title>Node1</title>
<g id="a_Node000001"><a xlink:title="Represents the active runtime screen for interacting with control widgets.">
<polygon fill="#999999" stroke="#666666" points="325.88,-74.5 157.62,-74.5 157.62,-55.25 325.88,-55.25 325.88,-74.5"/>
<text text-anchor="middle" x="241.75" y="-61" font-family="Helvetica,sans-Serif" font-size="10.00">include/screens/RunModeScreen.h</text>
</a>
</g>
</g>
<!-- Node2 -->
<g id="Node000002" class="node">
<title>Node2</title>
<g id="a_Node000002"><a xlink:title=" ">
<polygon fill="#e0e0e0" stroke="#999999" points="83.5,-19.25 0,-19.25 0,0 83.5,0 83.5,-19.25"/>
<text text-anchor="middle" x="41.75" y="-5.75" font-family="Helvetica,sans-Serif" font-size="10.00">Adafruit_GFX.h</text>
</a>
</g>
</g>
<!-- Node1&#45;&gt;Node2 -->
<g id="edge1_Node000001_Node000002" class="edge">
<title>Node1&#45;&gt;Node2</title>
<g id="a_edge1_Node000001_Node000002"><a xlink:title=" ">
<path fill="none" stroke="#63b8ff" d="M207.82,-54.84C174.49,-45.97 123.44,-32.37 86.74,-22.6"/>
<polygon fill="#63b8ff" stroke="#63b8ff" points="87.87,-19.28 77.31,-20.09 86.07,-26.05 87.87,-19.28"/>
</a>
</g>
</g>
<!-- Node3 -->
<g id="Node000003" class="node">
<title>Node3</title>
<g id="a_Node000003"><a xlink:title=" ">
<polygon fill="#e0e0e0" stroke="#999999" points="201.75,-19.25 101.75,-19.25 101.75,0 201.75,0 201.75,-19.25"/>
<text text-anchor="middle" x="151.75" y="-5.75" font-family="Helvetica,sans-Serif" font-size="10.00">Adafruit_SH110X.h</text>
</a>
</g>
</g>
<!-- Node1&#45;&gt;Node3 -->
<g id="edge2_Node000001_Node000003" class="edge">
<title>Node1&#45;&gt;Node3</title>
<g id="a_edge2_Node000001_Node000003"><a xlink:title=" ">
<path fill="none" stroke="#63b8ff" d="M226.48,-54.84C212.91,-46.81 192.8,-34.91 176.85,-25.48"/>
<polygon fill="#63b8ff" stroke="#63b8ff" points="178.78,-22.55 168.39,-20.47 175.22,-28.58 178.78,-22.55"/>
</a>
</g>
</g>
<!-- Node4 -->
<g id="Node000004" class="node">
<title>Node4</title>
<g id="a_Node000004"><a xlink:title=" ">
<polygon fill="#e0e0e0" stroke="#999999" points="263.25,-19.25 220.25,-19.25 220.25,0 263.25,0 263.25,-19.25"/>
<text text-anchor="middle" x="241.75" y="-5.75" font-family="Helvetica,sans-Serif" font-size="10.00">vector</text>
</a>
</g>
</g>
<!-- Node1&#45;&gt;Node4 -->
<g id="edge3_Node000001_Node000004" class="edge">
<title>Node1&#45;&gt;Node4</title>
<g id="a_edge3_Node000001_Node000004"><a xlink:title=" ">
<path fill="none" stroke="#63b8ff" d="M241.75,-55.08C241.75,-48.57 241.75,-39.42 241.75,-31.12"/>
<polygon fill="#63b8ff" stroke="#63b8ff" points="245.25,-31.12 241.75,-21.12 238.25,-31.12 245.25,-31.12"/>
</a>
</g>
</g>
<!-- Node5 -->
<g id="Node000005" class="node">
<title>Node5</title>
<g id="a_Node000005"><a xlink:href="_widget_8h.html" target="_top" xlink:title="Abstract base class for UI widgets in the JMR800&#45;V2 OLED interface.">
<polygon fill="white" stroke="#666666" points="372.62,-19.25 280.88,-19.25 280.88,0 372.62,0 372.62,-19.25"/>
<text text-anchor="middle" x="326.75" y="-5.75" font-family="Helvetica,sans-Serif" font-size="10.00">widgets/Widget.h</text>
</a>
</g>
</g>
<!-- Node1&#45;&gt;Node5 -->
<g id="edge4_Node000001_Node000005" class="edge">
<title>Node1&#45;&gt;Node5</title>
<g id="a_edge4_Node000001_Node000005"><a xlink:title=" ">
<path fill="none" stroke="#63b8ff" d="M256.17,-54.84C268.87,-46.89 287.62,-35.14 302.61,-25.75"/>
<polygon fill="#63b8ff" stroke="#63b8ff" points="304.36,-28.78 310.98,-20.51 300.65,-22.85 304.36,-28.78"/>
</a>
</g>
</g>
<!-- Node6 -->
<g id="Node000006" class="node">
<title>Node6</title>
<g id="a_Node000006"><a xlink:href="_screen_8h.html" target="_top" xlink:title="Abstract interface for all UI screens in the JMR800&#45;V2 system.">
<polygon fill="white" stroke="#666666" points="483,-19.25 390.5,-19.25 390.5,0 483,0 483,-19.25"/>
<text text-anchor="middle" x="436.75" y="-5.75" font-family="Helvetica,sans-Serif" font-size="10.00">screens/Screen.h</text>
</a>
</g>
</g>
<!-- Node1&#45;&gt;Node6 -->
<g id="edge5_Node000001_Node000006" class="edge">
<title>Node1&#45;&gt;Node6</title>
<g id="a_edge5_Node000001_Node000006"><a xlink:title=" ">
<path fill="none" stroke="#63b8ff" d="M274.83,-54.84C307.19,-46.01 356.67,-32.49 392.42,-22.73"/>
<polygon fill="#63b8ff" stroke="#63b8ff" points="393.32,-26.11 402.05,-20.1 391.48,-19.36 393.32,-26.11"/>
</a>
</g>
</g>
</g>
</svg>
