<?xml version="1.0" encoding="UTF-8" standalone="no"?>
<!DOCTYPE svg PUBLIC "-//W3C//DTD SVG 1.1//EN"
 "http://www.w3.org/Graphics/SVG/1.1/DTD/svg11.dtd">
<!-- Generated by graphviz version 12.2.1 (20241206.2353)
 -->
<!-- Title: include/screens/RunModeScreen.h Pages: 1 -->
<svg width="384pt" height="138pt"
 viewBox="0.00 0.00 383.88 137.75" xmlns="http://www.w3.org/2000/svg" xmlns:xlink="http://www.w3.org/1999/xlink">
<g id="graph0" class="graph" transform="scale(1 1) rotate(0) translate(4 133.75)">
<title>include/screens/RunModeScreen.h</title>
<!-- Node1 -->
<g id="Node000001" class="node">
<title>Node1</title>
<g id="a_Node000001"><a xlink:title="Represents the active runtime screen for interacting with control widgets.">
<polygon fill="#999999" stroke="#666666" points="214.25,-129.75 46,-129.75 46,-110.5 214.25,-110.5 214.25,-129.75"/>
<text text-anchor="middle" x="130.12" y="-116.25" font-family="Helvetica,sans-Serif" font-size="10.00">include/screens/RunModeScreen.h</text>
</a>
</g>
</g>
<!-- Node2 -->
<g id="Node000002" class="node">
<title>Node2</title>
<g id="a_Node000002"><a xlink:href="_run_mode_8h.html" target="_top" xlink:title="Defines the main runtime mode of the application.">
<polygon fill="white" stroke="#666666" points="196.25,-74.5 64,-74.5 64,-55.25 196.25,-55.25 196.25,-74.5"/>
<text text-anchor="middle" x="130.12" y="-61" font-family="Helvetica,sans-Serif" font-size="10.00">include/modes/RunMode.h</text>
</a>
</g>
</g>
<!-- Node1&#45;&gt;Node2 -->
<g id="edge1_Node000001_Node000002" class="edge">
<title>Node1&#45;&gt;Node2</title>
<g id="a_edge1_Node000001_Node000002"><a xlink:title=" ">
<path fill="none" stroke="#63b8ff" d="M130.12,-98.88C130.12,-90.59 130.12,-81.42 130.12,-74.86"/>
<polygon fill="#63b8ff" stroke="#63b8ff" points="126.63,-98.82 130.13,-108.82 133.63,-98.82 126.63,-98.82"/>
</a>
</g>
</g>
<!-- Node3 -->
<g id="Node000003" class="node">
<title>Node3</title>
<g id="a_Node000003"><a xlink:href="main_8cpp.html" target="_top" xlink:title="Entry point for the JMR800&#45;V2 firmware.">
<polygon fill="white" stroke="#666666" points="72.25,-19.25 0,-19.25 0,0 72.25,0 72.25,-19.25"/>
<text text-anchor="middle" x="36.12" y="-5.75" font-family="Helvetica,sans-Serif" font-size="10.00">src/main.cpp</text>
</a>
</g>
</g>
<!-- Node1&#45;&gt;Node3 -->
<g id="edge4_Node000001_Node000003" class="edge">
<title>Node1&#45;&gt;Node3</title>
<g id="a_edge4_Node000001_Node000003"><a xlink:title=" ">
<path fill="none" stroke="#63b8ff" d="M95.47,-105.33C81.17,-98.08 65.54,-87.87 55.12,-74.5 42.19,-57.89 38.04,-32.61 36.73,-19.39"/>
<polygon fill="#63b8ff" stroke="#63b8ff" points="93.65,-108.34 104.19,-109.45 96.64,-102.01 93.65,-108.34"/>
</a>
</g>
</g>
<!-- Node5 -->
<g id="Node000005" class="node">
<title>Node5</title>
<g id="a_Node000005"><a xlink:href="_run_mode_screen_8cpp.html" target="_top" xlink:title="Implements the screen for displaying and managing widgets during normal controller operation.">
<polygon fill="white" stroke="#666666" points="375.88,-74.5 214.38,-74.5 214.38,-55.25 375.88,-55.25 375.88,-74.5"/>
<text text-anchor="middle" x="295.12" y="-61" font-family="Helvetica,sans-Serif" font-size="10.00">src/screens/RunModeScreen.cpp</text>
</a>
</g>
</g>
<!-- Node1&#45;&gt;Node5 -->
<g id="edge5_Node000001_Node000005" class="edge">
<title>Node1&#45;&gt;Node5</title>
<g id="a_edge5_Node000001_Node000005"><a xlink:title=" ">
<path fill="none" stroke="#63b8ff" d="M169.06,-106.56C199.14,-96.85 240.05,-83.65 267,-74.95"/>
<polygon fill="#63b8ff" stroke="#63b8ff" points="168,-103.22 159.56,-109.63 170.15,-109.89 168,-103.22"/>
</a>
</g>
</g>
<!-- Node2&#45;&gt;Node3 -->
<g id="edge2_Node000002_Node000003" class="edge">
<title>Node2&#45;&gt;Node3</title>
<g id="a_edge2_Node000002_Node000003"><a xlink:title=" ">
<path fill="none" stroke="#63b8ff" d="M104.47,-49.34C87.76,-39.88 66.49,-27.83 52.15,-19.7"/>
<polygon fill="#63b8ff" stroke="#63b8ff" points="102.44,-52.21 112.86,-54.1 105.89,-46.12 102.44,-52.21"/>
</a>
</g>
</g>
<!-- Node4 -->
<g id="Node000004" class="node">
<title>Node4</title>
<g id="a_Node000004"><a xlink:href="_run_mode_8cpp.html" target="_top" xlink:title="Implements the behavior of the Run Mode application state.">
<polygon fill="white" stroke="#666666" points="215.88,-19.25 90.38,-19.25 90.38,0 215.88,0 215.88,-19.25"/>
<text text-anchor="middle" x="153.12" y="-5.75" font-family="Helvetica,sans-Serif" font-size="10.00">src/modes/RunMode.cpp</text>
</a>
</g>
</g>
<!-- Node2&#45;&gt;Node4 -->
<g id="edge3_Node000002_Node000004" class="edge">
<title>Node2&#45;&gt;Node4</title>
<g id="a_edge3_Node000002_Node000004"><a xlink:title=" ">
<path fill="none" stroke="#63b8ff" d="M138.37,-44.79C142.08,-36.21 146.28,-26.48 149.24,-19.61"/>
<polygon fill="#63b8ff" stroke="#63b8ff" points="135.28,-43.12 134.52,-53.69 141.7,-45.9 135.28,-43.12"/>
</a>
</g>
</g>
</g>
</svg>
