<?xml version="1.0" encoding="UTF-8" standalone="no"?>
<!DOCTYPE svg PUBLIC "-//W3C//DTD SVG 1.1//EN"
 "http://www.w3.org/Graphics/SVG/1.1/DTD/svg11.dtd">
<!-- Generated by graphviz version 12.2.1 (20241206.2353)
 -->
<!-- Title: include/modes/RunMode.h Pages: 1 -->
<svg width="224pt" height="83pt"
 viewBox="0.00 0.00 223.88 82.50" xmlns="http://www.w3.org/2000/svg" xmlns:xlink="http://www.w3.org/1999/xlink">
<g id="graph0" class="graph" transform="scale(1 1) rotate(0) translate(4 78.5)">
<title>include/modes/RunMode.h</title>
<!-- Node1 -->
<g id="Node000001" class="node">
<title>Node1</title>
<g id="a_Node000001"><a xlink:title="Defines the main runtime mode of the application.">
<polygon fill="#999999" stroke="#666666" points="160.25,-74.5 28,-74.5 28,-55.25 160.25,-55.25 160.25,-74.5"/>
<text text-anchor="middle" x="94.12" y="-61" font-family="Helvetica,sans-Serif" font-size="10.00">include/modes/RunMode.h</text>
</a>
</g>
</g>
<!-- Node2 -->
<g id="Node000002" class="node">
<title>Node2</title>
<g id="a_Node000002"><a xlink:href="main_8cpp.html" target="_top" xlink:title="Entry point for the JMR800&#45;V2 firmware.">
<polygon fill="white" stroke="#666666" points="72.25,-19.25 0,-19.25 0,0 72.25,0 72.25,-19.25"/>
<text text-anchor="middle" x="36.12" y="-5.75" font-family="Helvetica,sans-Serif" font-size="10.00">src/main.cpp</text>
</a>
</g>
</g>
<!-- Node1&#45;&gt;Node2 -->
<g id="edge1_Node000001_Node000002" class="edge">
<title>Node1&#45;&gt;Node2</title>
<g id="a_edge1_Node000001_Node000002"><a xlink:title=" ">
<path fill="none" stroke="#63b8ff" d="M75.86,-47.11C65.91,-37.97 53.99,-27.03 45.82,-19.52"/>
<polygon fill="#63b8ff" stroke="#63b8ff" points="73.44,-49.63 83.17,-53.82 78.17,-44.48 73.44,-49.63"/>
</a>
</g>
</g>
<!-- Node3 -->
<g id="Node000003" class="node">
<title>Node3</title>
<g id="a_Node000003"><a xlink:href="_run_mode_8cpp.html" target="_top" xlink:title="Implements the behavior of the Run Mode application state.">
<polygon fill="white" stroke="#666666" points="215.88,-19.25 90.38,-19.25 90.38,0 215.88,0 215.88,-19.25"/>
<text text-anchor="middle" x="153.12" y="-5.75" font-family="Helvetica,sans-Serif" font-size="10.00">src/modes/RunMode.cpp</text>
</a>
</g>
</g>
<!-- Node1&#45;&gt;Node3 -->
<g id="edge2_Node000001_Node000003" class="edge">
<title>Node1&#45;&gt;Node3</title>
<g id="a_edge2_Node000001_Node000003"><a xlink:title=" ">
<path fill="none" stroke="#63b8ff" d="M112.39,-47.39C122.58,-38.19 134.87,-27.1 143.26,-19.52"/>
<polygon fill="#63b8ff" stroke="#63b8ff" points="110.34,-44.53 105.26,-53.83 115.03,-49.73 110.34,-44.53"/>
</a>
</g>
</g>
</g>
</svg>
