<?xml version="1.0" encoding="UTF-8" standalone="no"?>
<!DOCTYPE svg PUBLIC "-//W3C//DTD SVG 1.1//EN"
 "http://www.w3.org/Graphics/SVG/1.1/DTD/svg11.dtd">
<!-- Generated by graphviz version 12.2.1 (20241206.2353)
 -->
<!-- Title: src/modes/RunMode.cpp Pages: 1 -->
<svg width="849pt" height="248pt"
 viewBox="0.00 0.00 848.88 248.25" xmlns="http://www.w3.org/2000/svg" xmlns:xlink="http://www.w3.org/1999/xlink">
<g id="graph0" class="graph" transform="scale(1 1) rotate(0) translate(4 244.25)">
<title>src/modes/RunMode.cpp</title>
<!-- Node1 -->
<g id="Node000001" class="node">
<title>Node1</title>
<g id="a_Node000001"><a xlink:title="Implements the behavior of the Run Mode application state.">
<polygon fill="#999999" stroke="#666666" points="549.62,-240.25 424.12,-240.25 424.12,-221 549.62,-221 549.62,-240.25"/>
<text text-anchor="middle" x="486.88" y="-226.75" font-family="Helvetica,sans-Serif" font-size="10.00">src/modes/RunMode.cpp</text>
</a>
</g>
</g>
<!-- Node2 -->
<g id="Node000002" class="node">
<title>Node2</title>
<g id="a_Node000002"><a xlink:href="_run_mode_8h.html" target="_top" xlink:title="Defines the main runtime mode of the application.">
<polygon fill="white" stroke="#666666" points="342.12,-185 243.62,-185 243.62,-165.75 342.12,-165.75 342.12,-185"/>
<text text-anchor="middle" x="292.88" y="-171.5" font-family="Helvetica,sans-Serif" font-size="10.00">modes/RunMode.h</text>
</a>
</g>
</g>
<!-- Node1&#45;&gt;Node2 -->
<g id="edge1_Node000001_Node000002" class="edge">
<title>Node1&#45;&gt;Node2</title>
<g id="a_edge1_Node000001_Node000002"><a xlink:title=" ">
<path fill="none" stroke="#63b8ff" d="M453.97,-220.59C421.78,-211.76 372.54,-198.24 336.97,-188.48"/>
<polygon fill="#63b8ff" stroke="#63b8ff" points="337.98,-185.12 327.41,-185.85 336.12,-191.88 337.98,-185.12"/>
</a>
</g>
</g>
<!-- Node10 -->
<g id="Node000010" class="node">
<title>Node10</title>
<g id="a_Node000010"><a xlink:href="_screen_manager_8h.html" target="_top" xlink:title="Declares the ScreenManager class responsible for UI screen control on the OLED display.">
<polygon fill="white" stroke="#666666" points="207.75,-129.75 116,-129.75 116,-110.5 207.75,-110.5 207.75,-129.75"/>
<text text-anchor="middle" x="161.88" y="-116.25" font-family="Helvetica,sans-Serif" font-size="10.00">ScreenManager.h</text>
</a>
</g>
</g>
<!-- Node1&#45;&gt;Node10 -->
<g id="edge10_Node000001_Node000010" class="edge">
<title>Node1&#45;&gt;Node10</title>
<g id="a_edge10_Node000001_Node000010"><a xlink:title=" ">
<path fill="none" stroke="#63b8ff" d="M470.59,-220.62C445.53,-207.07 395.7,-181.38 350.88,-165.75 307.56,-150.65 256.89,-138.99 218.93,-131.39"/>
<polygon fill="#63b8ff" stroke="#63b8ff" points="220.05,-128.04 209.56,-129.55 218.7,-134.91 220.05,-128.04"/>
</a>
</g>
</g>
<!-- Node11 -->
<g id="Node000011" class="node">
<title>Node11</title>
<g id="a_Node000011"><a xlink:href="_logging_8h.html" target="_top" xlink:title="Lightweight logging utility for serial output in the JMR800&#45;V2 project.">
<polygon fill="white" stroke="#666666" points="840.88,-74.5 782.88,-74.5 782.88,-55.25 840.88,-55.25 840.88,-74.5"/>
<text text-anchor="middle" x="811.88" y="-61" font-family="Helvetica,sans-Serif" font-size="10.00">Logging.h</text>
</a>
</g>
</g>
<!-- Node1&#45;&gt;Node11 -->
<g id="edge13_Node000001_Node000011" class="edge">
<title>Node1&#45;&gt;Node11</title>
<g id="a_edge13_Node000001_Node000011"><a xlink:title=" ">
<path fill="none" stroke="#63b8ff" d="M504.81,-220.59C558.64,-193.47 719.06,-112.64 784.06,-79.89"/>
<polygon fill="#63b8ff" stroke="#63b8ff" points="785.29,-83.19 792.64,-75.57 782.14,-76.94 785.29,-83.19"/>
</a>
</g>
</g>
<!-- Node14 -->
<g id="Node000014" class="node">
<title>Node14</title>
<g id="a_Node000014"><a xlink:href="_hardware_manager_8h.html" target="_top" xlink:title="Manages hardware input/output for analog controls, digital buttons, encoder, and serial communication...">
<polygon fill="white" stroke="#666666" points="612.38,-129.75 509.38,-129.75 509.38,-110.5 612.38,-110.5 612.38,-129.75"/>
<text text-anchor="middle" x="560.88" y="-116.25" font-family="Helvetica,sans-Serif" font-size="10.00">HardwareManager.h</text>
</a>
</g>
</g>
<!-- Node1&#45;&gt;Node14 -->
<g id="edge16_Node000001_Node000014" class="edge">
<title>Node1&#45;&gt;Node14</title>
<g id="a_edge16_Node000001_Node000014"><a xlink:title=" ">
<path fill="none" stroke="#63b8ff" d="M492.93,-220.75C505.02,-203.02 532.35,-162.94 548.43,-139.38"/>
<polygon fill="#63b8ff" stroke="#63b8ff" points="551.14,-141.61 553.88,-131.38 545.36,-137.67 551.14,-141.61"/>
</a>
</g>
</g>
<!-- Node3 -->
<g id="Node000003" class="node">
<title>Node3</title>
<g id="a_Node000003"><a xlink:href="_app_mode_8h.html" target="_top" xlink:title="Abstract interface for application mode behavior.">
<polygon fill="white" stroke="#666666" points="97.75,-129.75 0,-129.75 0,-110.5 97.75,-110.5 97.75,-129.75"/>
<text text-anchor="middle" x="48.88" y="-116.25" font-family="Helvetica,sans-Serif" font-size="10.00">modes/AppMode.h</text>
</a>
</g>
</g>
<!-- Node2&#45;&gt;Node3 -->
<g id="edge2_Node000002_Node000003" class="edge">
<title>Node2&#45;&gt;Node3</title>
<g id="a_edge2_Node000002_Node000003"><a xlink:title=" ">
<path fill="none" stroke="#63b8ff" d="M251.21,-165.28C209.8,-156.24 146.17,-142.36 101.34,-132.57"/>
<polygon fill="#63b8ff" stroke="#63b8ff" points="102.37,-129.22 91.85,-130.5 100.87,-136.06 102.37,-129.22"/>
</a>
</g>
</g>
<!-- Node5 -->
<g id="Node000005" class="node">
<title>Node5</title>
<g id="a_Node000005"><a xlink:href="_run_mode_screen_8h.html" target="_top" xlink:title="Represents the active runtime screen for interacting with control widgets.">
<polygon fill="white" stroke="#666666" points="360.12,-129.75 225.62,-129.75 225.62,-110.5 360.12,-110.5 360.12,-129.75"/>
<text text-anchor="middle" x="292.88" y="-116.25" font-family="Helvetica,sans-Serif" font-size="10.00">screens/RunModeScreen.h</text>
</a>
</g>
</g>
<!-- Node2&#45;&gt;Node5 -->
<g id="edge4_Node000002_Node000005" class="edge">
<title>Node2&#45;&gt;Node5</title>
<g id="a_edge4_Node000002_Node000005"><a xlink:title=" ">
<path fill="none" stroke="#63b8ff" d="M292.88,-165.58C292.88,-159.07 292.88,-149.92 292.88,-141.62"/>
<polygon fill="#63b8ff" stroke="#63b8ff" points="296.38,-141.62 292.88,-131.62 289.38,-141.62 296.38,-141.62"/>
</a>
</g>
</g>
<!-- Node4 -->
<g id="Node000004" class="node">
<title>Node4</title>
<g id="a_Node000004"><a xlink:href="_screen_8h.html" target="_top" xlink:title="Abstract interface for all UI screens in the JMR800&#45;V2 system.">
<polygon fill="white" stroke="#666666" points="94.12,-74.5 1.62,-74.5 1.62,-55.25 94.12,-55.25 94.12,-74.5"/>
<text text-anchor="middle" x="47.88" y="-61" font-family="Helvetica,sans-Serif" font-size="10.00">screens/Screen.h</text>
</a>
</g>
</g>
<!-- Node3&#45;&gt;Node4 -->
<g id="edge3_Node000003_Node000004" class="edge">
<title>Node3&#45;&gt;Node4</title>
<g id="a_edge3_Node000003_Node000004"><a xlink:title=" ">
<path fill="none" stroke="#63b8ff" d="M48.71,-110.33C48.59,-103.82 48.42,-94.67 48.26,-86.37"/>
<polygon fill="#63b8ff" stroke="#63b8ff" points="51.76,-86.3 48.07,-76.37 44.76,-86.44 51.76,-86.3"/>
</a>
</g>
</g>
<!-- Node5&#45;&gt;Node4 -->
<g id="edge9_Node000005_Node000004" class="edge">
<title>Node5&#45;&gt;Node4</title>
<g id="a_edge9_Node000005_Node000004"><a xlink:title=" ">
<path fill="none" stroke="#63b8ff" d="M251.04,-110.03C209.46,-100.99 145.56,-87.11 100.55,-77.32"/>
<polygon fill="#63b8ff" stroke="#63b8ff" points="101.54,-73.96 91.02,-75.25 100.05,-80.8 101.54,-73.96"/>
</a>
</g>
</g>
<!-- Node6 -->
<g id="Node000006" class="node">
<title>Node6</title>
<g id="a_Node000006"><a xlink:title=" ">
<polygon fill="#e0e0e0" stroke="#999999" points="423.62,-74.5 340.12,-74.5 340.12,-55.25 423.62,-55.25 423.62,-74.5"/>
<text text-anchor="middle" x="381.88" y="-61" font-family="Helvetica,sans-Serif" font-size="10.00">Adafruit_GFX.h</text>
</a>
</g>
</g>
<!-- Node5&#45;&gt;Node6 -->
<g id="edge5_Node000005_Node000006" class="edge">
<title>Node5&#45;&gt;Node6</title>
<g id="a_edge5_Node000005_Node000006"><a xlink:title=" ">
<path fill="none" stroke="#63b8ff" d="M307.97,-110.09C321.4,-102.06 341.29,-90.16 357.05,-80.73"/>
<polygon fill="#63b8ff" stroke="#63b8ff" points="358.62,-83.87 365.4,-75.73 355.03,-77.86 358.62,-83.87"/>
</a>
</g>
</g>
<!-- Node7 -->
<g id="Node000007" class="node">
<title>Node7</title>
<g id="a_Node000007"><a xlink:title=" ">
<polygon fill="#e0e0e0" stroke="#999999" points="211.88,-74.5 111.88,-74.5 111.88,-55.25 211.88,-55.25 211.88,-74.5"/>
<text text-anchor="middle" x="161.88" y="-61" font-family="Helvetica,sans-Serif" font-size="10.00">Adafruit_SH110X.h</text>
</a>
</g>
</g>
<!-- Node5&#45;&gt;Node7 -->
<g id="edge6_Node000005_Node000007" class="edge">
<title>Node5&#45;&gt;Node7</title>
<g id="a_edge6_Node000005_Node000007"><a xlink:title=" ">
<path fill="none" stroke="#63b8ff" d="M270.65,-110.09C249.86,-101.64 218.53,-88.9 194.82,-79.27"/>
<polygon fill="#63b8ff" stroke="#63b8ff" points="196.19,-76.05 185.61,-75.52 193.55,-82.53 196.19,-76.05"/>
</a>
</g>
</g>
<!-- Node8 -->
<g id="Node000008" class="node">
<title>Node8</title>
<g id="a_Node000008"><a xlink:title=" ">
<polygon fill="#e0e0e0" stroke="#999999" points="484.38,-74.5 441.38,-74.5 441.38,-55.25 484.38,-55.25 484.38,-74.5"/>
<text text-anchor="middle" x="462.88" y="-61" font-family="Helvetica,sans-Serif" font-size="10.00">vector</text>
</a>
</g>
</g>
<!-- Node5&#45;&gt;Node8 -->
<g id="edge7_Node000005_Node000008" class="edge">
<title>Node5&#45;&gt;Node8</title>
<g id="a_edge7_Node000005_Node000008"><a xlink:title=" ">
<path fill="none" stroke="#63b8ff" d="M321.71,-110.09C351.75,-100.68 398.72,-85.97 430.13,-76.13"/>
<polygon fill="#63b8ff" stroke="#63b8ff" points="431,-79.53 439.49,-73.2 428.91,-72.85 431,-79.53"/>
</a>
</g>
</g>
<!-- Node9 -->
<g id="Node000009" class="node">
<title>Node9</title>
<g id="a_Node000009"><a xlink:href="_widget_8h.html" target="_top" xlink:title="Abstract base class for UI widgets in the JMR800&#45;V2 OLED interface.">
<polygon fill="white" stroke="#666666" points="321.75,-74.5 230,-74.5 230,-55.25 321.75,-55.25 321.75,-74.5"/>
<text text-anchor="middle" x="275.88" y="-61" font-family="Helvetica,sans-Serif" font-size="10.00">widgets/Widget.h</text>
</a>
</g>
</g>
<!-- Node5&#45;&gt;Node9 -->
<g id="edge8_Node000005_Node000009" class="edge">
<title>Node5&#45;&gt;Node9</title>
<g id="a_edge8_Node000005_Node000009"><a xlink:title=" ">
<path fill="none" stroke="#63b8ff" d="M290.07,-110.33C287.94,-103.67 284.93,-94.24 282.23,-85.78"/>
<polygon fill="#63b8ff" stroke="#63b8ff" points="285.58,-84.76 279.2,-76.3 278.91,-86.89 285.58,-84.76"/>
</a>
</g>
</g>
<!-- Node10&#45;&gt;Node4 -->
<g id="edge12_Node000010_Node000004" class="edge">
<title>Node10&#45;&gt;Node4</title>
<g id="a_edge12_Node000010_Node000004"><a xlink:title=" ">
<path fill="none" stroke="#63b8ff" d="M142.54,-110.09C124.77,-101.79 98.16,-89.36 77.67,-79.79"/>
<polygon fill="#63b8ff" stroke="#63b8ff" points="79.22,-76.65 68.68,-75.59 76.26,-83 79.22,-76.65"/>
</a>
</g>
</g>
<!-- Node10&#45;&gt;Node7 -->
<g id="edge11_Node000010_Node000007" class="edge">
<title>Node10&#45;&gt;Node7</title>
<g id="a_edge11_Node000010_Node000007"><a xlink:title=" ">
<path fill="none" stroke="#63b8ff" d="M161.88,-110.33C161.88,-103.82 161.88,-94.67 161.88,-86.37"/>
<polygon fill="#63b8ff" stroke="#63b8ff" points="165.38,-86.37 161.88,-76.37 158.38,-86.37 165.38,-86.37"/>
</a>
</g>
</g>
<!-- Node12 -->
<g id="Node000012" class="node">
<title>Node12</title>
<g id="a_Node000012"><a xlink:title=" ">
<polygon fill="#e0e0e0" stroke="#999999" points="724.5,-19.25 667.25,-19.25 667.25,0 724.5,0 724.5,-19.25"/>
<text text-anchor="middle" x="695.88" y="-5.75" font-family="Helvetica,sans-Serif" font-size="10.00">Arduino.h</text>
</a>
</g>
</g>
<!-- Node11&#45;&gt;Node12 -->
<g id="edge14_Node000011_Node000012" class="edge">
<title>Node11&#45;&gt;Node12</title>
<g id="a_edge14_Node000011_Node000012"><a xlink:title=" ">
<path fill="none" stroke="#63b8ff" d="M792.2,-54.84C774.03,-46.5 746.79,-34 725.91,-24.41"/>
<polygon fill="#63b8ff" stroke="#63b8ff" points="727.57,-21.33 717.02,-20.33 724.65,-27.69 727.57,-21.33"/>
</a>
</g>
</g>
<!-- Node13 -->
<g id="Node000013" class="node">
<title>Node13</title>
<g id="a_Node000013"><a xlink:href="defines_8h.html" target="_top" xlink:title="Hardware pin definitions and global constants for JMR800&#45;V2.">
<polygon fill="white" stroke="#666666" points="810.75,-19.25 755,-19.25 755,0 810.75,0 810.75,-19.25"/>
<text text-anchor="middle" x="782.88" y="-5.75" font-family="Helvetica,sans-Serif" font-size="10.00">defines.h</text>
</a>
</g>
</g>
<!-- Node11&#45;&gt;Node13 -->
<g id="edge15_Node000011_Node000013" class="edge">
<title>Node11&#45;&gt;Node13</title>
<g id="a_edge15_Node000011_Node000013"><a xlink:title=" ">
<path fill="none" stroke="#63b8ff" d="M807.09,-55.08C803.33,-48.19 797.97,-38.34 793.24,-29.66"/>
<polygon fill="#63b8ff" stroke="#63b8ff" points="796.35,-28.05 788.49,-20.94 790.2,-31.39 796.35,-28.05"/>
</a>
</g>
</g>
<!-- Node14&#45;&gt;Node6 -->
<g id="edge18_Node000014_Node000006" class="edge">
<title>Node14&#45;&gt;Node6</title>
<g id="a_edge18_Node000014_Node000006"><a xlink:title=" ">
<path fill="none" stroke="#63b8ff" d="M530.51,-110.09C501.07,-101.33 456.17,-87.98 423.42,-78.23"/>
<polygon fill="#63b8ff" stroke="#63b8ff" points="424.42,-74.88 413.84,-75.38 422.43,-81.59 424.42,-74.88"/>
</a>
</g>
</g>
<!-- Node14&#45;&gt;Node7 -->
<g id="edge19_Node000014_Node000007" class="edge">
<title>Node14&#45;&gt;Node7</title>
<g id="a_edge19_Node000014_Node000007"><a xlink:title=" ">
<path fill="none" stroke="#63b8ff" d="M509,-112.56C444.58,-104.35 330.99,-89.7 223.47,-74.84"/>
<polygon fill="#63b8ff" stroke="#63b8ff" points="223.96,-71.38 213.58,-73.47 223,-78.31 223.96,-71.38"/>
</a>
</g>
</g>
<!-- Node14&#45;&gt;Node8 -->
<g id="edge23_Node000014_Node000008" class="edge">
<title>Node14&#45;&gt;Node8</title>
<g id="a_edge23_Node000014_Node000008"><a xlink:title=" ">
<path fill="none" stroke="#63b8ff" d="M544.25,-110.09C529.19,-101.91 506.73,-89.71 489.22,-80.19"/>
<polygon fill="#63b8ff" stroke="#63b8ff" points="491.37,-77.37 480.91,-75.68 488.03,-83.52 491.37,-77.37"/>
</a>
</g>
</g>
<!-- Node14&#45;&gt;Node11 -->
<g id="edge25_Node000014_Node000011" class="edge">
<title>Node14&#45;&gt;Node11</title>
<g id="a_edge25_Node000014_Node000011"><a xlink:title=" ">
<path fill="none" stroke="#63b8ff" d="M603.74,-110.03C650.72,-100.06 725.52,-84.19 771.5,-74.44"/>
<polygon fill="#63b8ff" stroke="#63b8ff" points="771.99,-77.91 781.05,-72.41 770.54,-71.07 771.99,-77.91"/>
</a>
</g>
</g>
<!-- Node14&#45;&gt;Node12 -->
<g id="edge17_Node000014_Node000012" class="edge">
<title>Node14&#45;&gt;Node12</title>
<g id="a_edge17_Node000014_Node000012"><a xlink:title=" ">
<path fill="none" stroke="#63b8ff" d="M579.06,-110.15C594.85,-101.95 617.92,-88.92 635.88,-74.5 653.06,-60.7 670,-42.07 681.48,-28.49"/>
<polygon fill="#63b8ff" stroke="#63b8ff" points="684.16,-30.74 687.83,-20.8 678.76,-26.28 684.16,-30.74"/>
</a>
</g>
</g>
<!-- Node14&#45;&gt;Node13 -->
<g id="edge24_Node000014_Node000013" class="edge">
<title>Node14&#45;&gt;Node13</title>
<g id="a_edge24_Node000014_Node000013"><a xlink:title=" ">
<path fill="none" stroke="#63b8ff" d="M612.5,-115.21C649.5,-110.31 699.09,-99.3 735.88,-74.5 752.61,-63.22 765.6,-43.91 773.64,-29.46"/>
<polygon fill="#63b8ff" stroke="#63b8ff" points="776.57,-31.41 778.1,-20.92 770.36,-28.16 776.57,-31.41"/>
</a>
</g>
</g>
<!-- Node15 -->
<g id="Node000015" class="node">
<title>Node15</title>
<g id="a_Node000015"><a xlink:title=" ">
<polygon fill="#e0e0e0" stroke="#999999" points="727.12,-74.5 682.62,-74.5 682.62,-55.25 727.12,-55.25 727.12,-74.5"/>
<text text-anchor="middle" x="704.88" y="-61" font-family="Helvetica,sans-Serif" font-size="10.00">Wire.h</text>
</a>
</g>
</g>
<!-- Node14&#45;&gt;Node15 -->
<g id="edge20_Node000014_Node000015" class="edge">
<title>Node14&#45;&gt;Node15</title>
<g id="a_edge20_Node000014_Node000015"><a xlink:title=" ">
<path fill="none" stroke="#63b8ff" d="M585.3,-110.09C609.03,-101.32 645.25,-87.93 671.6,-78.18"/>
<polygon fill="#63b8ff" stroke="#63b8ff" points="672.64,-81.53 680.81,-74.77 670.22,-74.96 672.64,-81.53"/>
</a>
</g>
</g>
<!-- Node16 -->
<g id="Node000016" class="node">
<title>Node16</title>
<g id="a_Node000016"><a xlink:title=" ">
<polygon fill="#e0e0e0" stroke="#999999" points="548.88,-74.5 502.88,-74.5 502.88,-55.25 548.88,-55.25 548.88,-74.5"/>
<text text-anchor="middle" x="525.88" y="-61" font-family="Helvetica,sans-Serif" font-size="10.00">ADC.h</text>
</a>
</g>
</g>
<!-- Node14&#45;&gt;Node16 -->
<g id="edge21_Node000014_Node000016" class="edge">
<title>Node14&#45;&gt;Node16</title>
<g id="a_edge21_Node000014_Node000016"><a xlink:title=" ">
<path fill="none" stroke="#63b8ff" d="M555.1,-110.33C550.46,-103.28 543.8,-93.15 538.01,-84.33"/>
<polygon fill="#63b8ff" stroke="#63b8ff" points="541.03,-82.56 532.61,-76.12 535.18,-86.4 541.03,-82.56"/>
</a>
</g>
</g>
<!-- Node17 -->
<g id="Node000017" class="node">
<title>Node17</title>
<g id="a_Node000017"><a xlink:title=" ">
<polygon fill="#e0e0e0" stroke="#999999" points="626.62,-74.5 567.12,-74.5 567.12,-55.25 626.62,-55.25 626.62,-74.5"/>
<text text-anchor="middle" x="596.88" y="-61" font-family="Helvetica,sans-Serif" font-size="10.00">Encoder.h</text>
</a>
</g>
</g>
<!-- Node14&#45;&gt;Node17 -->
<g id="edge22_Node000014_Node000017" class="edge">
<title>Node14&#45;&gt;Node17</title>
<g id="a_edge22_Node000014_Node000017"><a xlink:title=" ">
<path fill="none" stroke="#63b8ff" d="M566.82,-110.33C571.59,-103.28 578.44,-93.15 584.4,-84.33"/>
<polygon fill="#63b8ff" stroke="#63b8ff" points="587.25,-86.36 589.95,-76.11 581.45,-82.44 587.25,-86.36"/>
</a>
</g>
</g>
</g>
</svg>
