<?xml version="1.0" encoding="UTF-8" standalone="no"?>
<!DOCTYPE svg PUBLIC "-//W3C//DTD SVG 1.1//EN"
 "http://www.w3.org/Graphics/SVG/1.1/DTD/svg11.dtd">
<!-- Generated by graphviz version 12.2.1 (20241206.2353)
 -->
<!-- Title: src/screens/RunModeScreen.cpp Pages: 1 -->
<svg width="677pt" height="138pt"
 viewBox="0.00 0.00 676.50 137.75" xmlns="http://www.w3.org/2000/svg" xmlns:xlink="http://www.w3.org/1999/xlink">
<g id="graph0" class="graph" transform="scale(1 1) rotate(0) translate(4 133.75)">
<title>src/screens/RunModeScreen.cpp</title>
<!-- Node1 -->
<g id="Node000001" class="node">
<title>Node1</title>
<g id="a_Node000001"><a xlink:title="Implements the screen for displaying and managing widgets during normal controller operation.">
<polygon fill="#999999" stroke="#666666" points="409.62,-129.75 248.12,-129.75 248.12,-110.5 409.62,-110.5 409.62,-129.75"/>
<text text-anchor="middle" x="328.88" y="-116.25" font-family="Helvetica,sans-Serif" font-size="10.00">src/screens/RunModeScreen.cpp</text>
</a>
</g>
</g>
<!-- Node2 -->
<g id="Node000002" class="node">
<title>Node2</title>
<g id="a_Node000002"><a xlink:href="_run_mode_screen_8h.html" target="_top" xlink:title="Represents the active runtime screen for interacting with control widgets.">
<polygon fill="white" stroke="#666666" points="244.12,-74.5 109.62,-74.5 109.62,-55.25 244.12,-55.25 244.12,-74.5"/>
<text text-anchor="middle" x="176.88" y="-61" font-family="Helvetica,sans-Serif" font-size="10.00">screens/RunModeScreen.h</text>
</a>
</g>
</g>
<!-- Node1&#45;&gt;Node2 -->
<g id="edge1_Node000001_Node000002" class="edge">
<title>Node1&#45;&gt;Node2</title>
<g id="a_edge1_Node000001_Node000002"><a xlink:title=" ">
<path fill="none" stroke="#63b8ff" d="M303.09,-110.09C278.52,-101.49 241.29,-88.44 213.62,-78.75"/>
<polygon fill="#63b8ff" stroke="#63b8ff" points="214.81,-75.46 204.21,-75.45 212.5,-82.06 214.81,-75.46"/>
</a>
</g>
</g>
<!-- Node8 -->
<g id="Node000008" class="node">
<title>Node8</title>
<g id="a_Node000008"><a xlink:href="_screen_manager_8h.html" target="_top" xlink:title="Declares the ScreenManager class responsible for UI screen control on the OLED display.">
<polygon fill="white" stroke="#666666" points="91.75,-74.5 0,-74.5 0,-55.25 91.75,-55.25 91.75,-74.5"/>
<text text-anchor="middle" x="45.88" y="-61" font-family="Helvetica,sans-Serif" font-size="10.00">ScreenManager.h</text>
</a>
</g>
</g>
<!-- Node1&#45;&gt;Node8 -->
<g id="edge7_Node000001_Node000008" class="edge">
<title>Node1&#45;&gt;Node8</title>
<g id="a_edge7_Node000001_Node000008"><a xlink:title=" ">
<path fill="none" stroke="#63b8ff" d="M280.55,-110.03C231.42,-100.79 155.33,-86.47 103.19,-76.66"/>
<polygon fill="#63b8ff" stroke="#63b8ff" points="104.09,-73.27 93.61,-74.86 102.79,-80.15 104.09,-73.27"/>
</a>
</g>
</g>
<!-- Node9 -->
<g id="Node000009" class="node">
<title>Node9</title>
<g id="a_Node000009"><a xlink:href="_logging_8h.html" target="_top" xlink:title="Lightweight logging utility for serial output in the JMR800&#45;V2 project.">
<polygon fill="white" stroke="#666666" points="625.88,-74.5 567.88,-74.5 567.88,-55.25 625.88,-55.25 625.88,-74.5"/>
<text text-anchor="middle" x="596.88" y="-61" font-family="Helvetica,sans-Serif" font-size="10.00">Logging.h</text>
</a>
</g>
</g>
<!-- Node1&#45;&gt;Node9 -->
<g id="edge10_Node000001_Node000009" class="edge">
<title>Node1&#45;&gt;Node9</title>
<g id="a_edge10_Node000001_Node000009"><a xlink:title=" ">
<path fill="none" stroke="#63b8ff" d="M377.87,-110.08C422.04,-101.83 489.05,-89.05 556.22,-75.01"/>
<polygon fill="#63b8ff" stroke="#63b8ff" points="556.89,-78.44 565.96,-72.96 555.45,-71.59 556.89,-78.44"/>
</a>
</g>
</g>
<!-- Node12 -->
<g id="Node000012" class="node">
<title>Node12</title>
<g id="a_Node000012"><a xlink:href="_rectangle_widget_8h.html" target="_top" xlink:title="Displays a static rectangle, optionally filled, as part of the OLED UI.">
<polygon fill="white" stroke="#666666" points="549.88,-74.5 413.88,-74.5 413.88,-55.25 549.88,-55.25 549.88,-74.5"/>
<text text-anchor="middle" x="481.88" y="-61" font-family="Helvetica,sans-Serif" font-size="10.00">widgets/RectangleWidget.h</text>
</a>
</g>
</g>
<!-- Node1&#45;&gt;Node12 -->
<g id="edge13_Node000001_Node000012" class="edge">
<title>Node1&#45;&gt;Node12</title>
<g id="a_edge13_Node000001_Node000012"><a xlink:title=" ">
<path fill="none" stroke="#63b8ff" d="M354.83,-110.09C379.67,-101.45 417.37,-88.32 445.26,-78.62"/>
<polygon fill="#63b8ff" stroke="#63b8ff" points="446.07,-82.04 454.36,-75.45 443.77,-75.43 446.07,-82.04"/>
</a>
</g>
</g>
<!-- Node13 -->
<g id="Node000013" class="node">
<title>Node13</title>
<g id="a_Node000013"><a xlink:href="_text_label_widget_8h.html" target="_top" xlink:title="Displays static or dynamic text labels on the OLED UI.">
<polygon fill="white" stroke="#666666" points="395.75,-74.5 262,-74.5 262,-55.25 395.75,-55.25 395.75,-74.5"/>
<text text-anchor="middle" x="328.88" y="-61" font-family="Helvetica,sans-Serif" font-size="10.00">widgets/TextLabelWidget.h</text>
</a>
</g>
</g>
<!-- Node1&#45;&gt;Node13 -->
<g id="edge16_Node000001_Node000013" class="edge">
<title>Node1&#45;&gt;Node13</title>
<g id="a_edge16_Node000001_Node000013"><a xlink:title=" ">
<path fill="none" stroke="#63b8ff" d="M328.88,-110.33C328.88,-103.82 328.88,-94.67 328.88,-86.37"/>
<polygon fill="#63b8ff" stroke="#63b8ff" points="332.38,-86.37 328.88,-76.37 325.38,-86.37 332.38,-86.37"/>
</a>
</g>
</g>
<!-- Node3 -->
<g id="Node000003" class="node">
<title>Node3</title>
<g id="a_Node000003"><a xlink:title=" ">
<polygon fill="#e0e0e0" stroke="#999999" points="258.62,-19.25 175.12,-19.25 175.12,0 258.62,0 258.62,-19.25"/>
<text text-anchor="middle" x="216.88" y="-5.75" font-family="Helvetica,sans-Serif" font-size="10.00">Adafruit_GFX.h</text>
</a>
</g>
</g>
<!-- Node2&#45;&gt;Node3 -->
<g id="edge2_Node000002_Node000003" class="edge">
<title>Node2&#45;&gt;Node3</title>
<g id="a_edge2_Node000002_Node000003"><a xlink:title=" ">
<path fill="none" stroke="#63b8ff" d="M183.48,-55.08C188.83,-47.96 196.55,-37.68 203.22,-28.8"/>
<polygon fill="#63b8ff" stroke="#63b8ff" points="206.01,-30.92 209.22,-20.82 200.41,-26.71 206.01,-30.92"/>
</a>
</g>
</g>
<!-- Node4 -->
<g id="Node000004" class="node">
<title>Node4</title>
<g id="a_Node000004"><a xlink:title=" ">
<polygon fill="#e0e0e0" stroke="#999999" points="376.88,-19.25 276.88,-19.25 276.88,0 376.88,0 376.88,-19.25"/>
<text text-anchor="middle" x="326.88" y="-5.75" font-family="Helvetica,sans-Serif" font-size="10.00">Adafruit_SH110X.h</text>
</a>
</g>
</g>
<!-- Node2&#45;&gt;Node4 -->
<g id="edge3_Node000002_Node000004" class="edge">
<title>Node2&#45;&gt;Node4</title>
<g id="a_edge3_Node000002_Node000004"><a xlink:title=" ">
<path fill="none" stroke="#63b8ff" d="M202.32,-54.84C226.56,-46.24 263.31,-33.19 290.61,-23.5"/>
<polygon fill="#63b8ff" stroke="#63b8ff" points="291.63,-26.85 299.88,-20.21 289.28,-20.26 291.63,-26.85"/>
</a>
</g>
</g>
<!-- Node5 -->
<g id="Node000005" class="node">
<title>Node5</title>
<g id="a_Node000005"><a xlink:title=" ">
<polygon fill="#e0e0e0" stroke="#999999" points="157.38,-19.25 114.38,-19.25 114.38,0 157.38,0 157.38,-19.25"/>
<text text-anchor="middle" x="135.88" y="-5.75" font-family="Helvetica,sans-Serif" font-size="10.00">vector</text>
</a>
</g>
</g>
<!-- Node2&#45;&gt;Node5 -->
<g id="edge4_Node000002_Node000005" class="edge">
<title>Node2&#45;&gt;Node5</title>
<g id="a_edge4_Node000002_Node000005"><a xlink:title=" ">
<path fill="none" stroke="#63b8ff" d="M170.1,-55.08C164.56,-47.88 156.53,-37.46 149.65,-28.51"/>
<polygon fill="#63b8ff" stroke="#63b8ff" points="152.59,-26.6 143.72,-20.81 147.04,-30.87 152.59,-26.6"/>
</a>
</g>
</g>
<!-- Node6 -->
<g id="Node000006" class="node">
<title>Node6</title>
<g id="a_Node000006"><a xlink:href="_widget_8h.html" target="_top" xlink:title="Abstract base class for UI widgets in the JMR800&#45;V2 OLED interface.">
<polygon fill="white" stroke="#666666" points="486.75,-19.25 395,-19.25 395,0 486.75,0 486.75,-19.25"/>
<text text-anchor="middle" x="440.88" y="-5.75" font-family="Helvetica,sans-Serif" font-size="10.00">widgets/Widget.h</text>
</a>
</g>
</g>
<!-- Node2&#45;&gt;Node6 -->
<g id="edge5_Node000002_Node000006" class="edge">
<title>Node2&#45;&gt;Node6</title>
<g id="a_edge5_Node000002_Node000006"><a xlink:title=" ">
<path fill="none" stroke="#63b8ff" d="M221.96,-54.78C266.95,-45.71 336.19,-31.74 384.73,-21.95"/>
<polygon fill="#63b8ff" stroke="#63b8ff" points="385.38,-25.39 394.49,-19.98 384,-18.53 385.38,-25.39"/>
</a>
</g>
</g>
<!-- Node7 -->
<g id="Node000007" class="node">
<title>Node7</title>
<g id="a_Node000007"><a xlink:href="_screen_8h.html" target="_top" xlink:title="Abstract interface for all UI screens in the JMR800&#45;V2 system.">
<polygon fill="white" stroke="#666666" points="95.12,-19.25 2.62,-19.25 2.62,0 95.12,0 95.12,-19.25"/>
<text text-anchor="middle" x="48.88" y="-5.75" font-family="Helvetica,sans-Serif" font-size="10.00">screens/Screen.h</text>
</a>
</g>
</g>
<!-- Node2&#45;&gt;Node7 -->
<g id="edge6_Node000002_Node000007" class="edge">
<title>Node2&#45;&gt;Node7</title>
<g id="a_edge6_Node000002_Node000007"><a xlink:title=" ">
<path fill="none" stroke="#63b8ff" d="M155.16,-54.84C134.84,-46.39 104.23,-33.65 81.07,-24.02"/>
<polygon fill="#63b8ff" stroke="#63b8ff" points="82.67,-20.89 72.09,-20.28 79.98,-27.36 82.67,-20.89"/>
</a>
</g>
</g>
<!-- Node8&#45;&gt;Node4 -->
<g id="edge8_Node000008_Node000004" class="edge">
<title>Node8&#45;&gt;Node4</title>
<g id="a_edge8_Node000008_Node000004"><a xlink:title=" ">
<path fill="none" stroke="#63b8ff" d="M91.96,-55.14C139.98,-46.04 215.37,-31.76 267.74,-21.83"/>
<polygon fill="#63b8ff" stroke="#63b8ff" points="268.22,-25.3 277.39,-20 266.92,-18.42 268.22,-25.3"/>
</a>
</g>
</g>
<!-- Node8&#45;&gt;Node7 -->
<g id="edge9_Node000008_Node000007" class="edge">
<title>Node8&#45;&gt;Node7</title>
<g id="a_edge9_Node000008_Node000007"><a xlink:title=" ">
<path fill="none" stroke="#63b8ff" d="M46.37,-55.08C46.74,-48.49 47.26,-39.21 47.74,-30.82"/>
<polygon fill="#63b8ff" stroke="#63b8ff" points="51.22,-31.3 48.28,-21.12 44.23,-30.91 51.22,-31.3"/>
</a>
</g>
</g>
<!-- Node10 -->
<g id="Node000010" class="node">
<title>Node10</title>
<g id="a_Node000010"><a xlink:title=" ">
<polygon fill="#e0e0e0" stroke="#999999" points="668.5,-19.25 611.25,-19.25 611.25,0 668.5,0 668.5,-19.25"/>
<text text-anchor="middle" x="639.88" y="-5.75" font-family="Helvetica,sans-Serif" font-size="10.00">Arduino.h</text>
</a>
</g>
</g>
<!-- Node9&#45;&gt;Node10 -->
<g id="edge11_Node000009_Node000010" class="edge">
<title>Node9&#45;&gt;Node10</title>
<g id="a_edge11_Node000009_Node000010"><a xlink:title=" ">
<path fill="none" stroke="#63b8ff" d="M603.98,-55.08C609.79,-47.88 618.21,-37.46 625.43,-28.51"/>
<polygon fill="#63b8ff" stroke="#63b8ff" points="628.11,-30.77 631.67,-20.79 622.66,-26.37 628.11,-30.77"/>
</a>
</g>
</g>
<!-- Node11 -->
<g id="Node000011" class="node">
<title>Node11</title>
<g id="a_Node000011"><a xlink:href="defines_8h.html" target="_top" xlink:title="Hardware pin definitions and global constants for JMR800&#45;V2.">
<polygon fill="white" stroke="#666666" points="592.75,-19.25 537,-19.25 537,0 592.75,0 592.75,-19.25"/>
<text text-anchor="middle" x="564.88" y="-5.75" font-family="Helvetica,sans-Serif" font-size="10.00">defines.h</text>
</a>
</g>
</g>
<!-- Node9&#45;&gt;Node11 -->
<g id="edge12_Node000009_Node000011" class="edge">
<title>Node9&#45;&gt;Node11</title>
<g id="a_edge12_Node000009_Node000011"><a xlink:title=" ">
<path fill="none" stroke="#63b8ff" d="M591.59,-55.08C587.4,-48.11 581.4,-38.12 576.14,-29.37"/>
<polygon fill="#63b8ff" stroke="#63b8ff" points="579.2,-27.68 571.05,-20.91 573.2,-31.28 579.2,-27.68"/>
</a>
</g>
</g>
<!-- Node12&#45;&gt;Node4 -->
<g id="edge15_Node000012_Node000004" class="edge">
<title>Node12&#45;&gt;Node4</title>
<g id="a_edge15_Node000012_Node000004"><a xlink:title=" ">
<path fill="none" stroke="#63b8ff" d="M455.58,-54.84C430.42,-46.2 392.22,-33.07 363.97,-23.37"/>
<polygon fill="#63b8ff" stroke="#63b8ff" points="365.32,-20.13 354.73,-20.19 363.05,-26.75 365.32,-20.13"/>
</a>
</g>
</g>
<!-- Node12&#45;&gt;Node6 -->
<g id="edge14_Node000012_Node000006" class="edge">
<title>Node12&#45;&gt;Node6</title>
<g id="a_edge14_Node000012_Node000006"><a xlink:title=" ">
<path fill="none" stroke="#63b8ff" d="M475.1,-55.08C469.56,-47.88 461.53,-37.46 454.65,-28.51"/>
<polygon fill="#63b8ff" stroke="#63b8ff" points="457.59,-26.6 448.72,-20.81 452.04,-30.87 457.59,-26.6"/>
</a>
</g>
</g>
<!-- Node13&#45;&gt;Node3 -->
<g id="edge18_Node000013_Node000003" class="edge">
<title>Node13&#45;&gt;Node3</title>
<g id="a_edge18_Node000013_Node000003"><a xlink:title=" ">
<path fill="none" stroke="#63b8ff" d="M309.88,-54.84C292.42,-46.54 266.28,-34.11 246.15,-24.54"/>
<polygon fill="#63b8ff" stroke="#63b8ff" points="247.87,-21.49 237.33,-20.35 244.86,-27.81 247.87,-21.49"/>
</a>
</g>
</g>
<!-- Node13&#45;&gt;Node4 -->
<g id="edge19_Node000013_Node000004" class="edge">
<title>Node13&#45;&gt;Node4</title>
<g id="a_edge19_Node000013_Node000004"><a xlink:title=" ">
<path fill="none" stroke="#63b8ff" d="M328.54,-55.08C328.3,-48.49 327.95,-39.21 327.63,-30.82"/>
<polygon fill="#63b8ff" stroke="#63b8ff" points="331.14,-30.98 327.27,-21.12 324.15,-31.25 331.14,-30.98"/>
</a>
</g>
</g>
<!-- Node13&#45;&gt;Node6 -->
<g id="edge17_Node000013_Node000006" class="edge">
<title>Node13&#45;&gt;Node6</title>
<g id="a_edge17_Node000013_Node000006"><a xlink:title=" ">
<path fill="none" stroke="#63b8ff" d="M347.87,-54.84C365.33,-46.54 391.47,-34.11 411.6,-24.54"/>
<polygon fill="#63b8ff" stroke="#63b8ff" points="412.89,-27.81 420.42,-20.35 409.88,-21.49 412.89,-27.81"/>
</a>
</g>
</g>
</g>
</svg>
