<?xml version="1.0" encoding="UTF-8" standalone="no"?>
<!DOCTYPE svg PUBLIC "-//W3C//DTD SVG 1.1//EN"
 "http://www.w3.org/Graphics/SVG/1.1/DTD/svg11.dtd">
<!-- Generated by graphviz version 12.2.1 (20241206.2353)
 -->
<!-- Title: src/ScreenManager.cpp Pages: 1 -->
<svg width="368pt" height="138pt"
 viewBox="0.00 0.00 367.62 137.75" xmlns="http://www.w3.org/2000/svg" xmlns:xlink="http://www.w3.org/1999/xlink">
<g id="graph0" class="graph" transform="scale(1 1) rotate(0) translate(4 133.75)">
<title>src/ScreenManager.cpp</title>
<!-- Node1 -->
<g id="Node000001" class="node">
<title>Node1</title>
<g id="a_Node000001"><a xlink:title="Implements the ScreenManager class for managing the OLED display and screen lifecycle.">
<polygon fill="#999999" stroke="#666666" points="306.38,-129.75 187.62,-129.75 187.62,-110.5 306.38,-110.5 306.38,-129.75"/>
<text text-anchor="middle" x="247" y="-116.25" font-family="Helvetica,sans-Serif" font-size="10.00">src/ScreenManager.cpp</text>
</a>
</g>
</g>
<!-- Node2 -->
<g id="Node000002" class="node">
<title>Node2</title>
<g id="a_Node000002"><a xlink:href="_screen_manager_8h.html" target="_top" xlink:title="Declares the ScreenManager class responsible for UI screen control on the OLED display.">
<polygon fill="white" stroke="#666666" points="209.88,-74.5 118.12,-74.5 118.12,-55.25 209.88,-55.25 209.88,-74.5"/>
<text text-anchor="middle" x="164" y="-61" font-family="Helvetica,sans-Serif" font-size="10.00">ScreenManager.h</text>
</a>
</g>
</g>
<!-- Node1&#45;&gt;Node2 -->
<g id="edge1_Node000001_Node000002" class="edge">
<title>Node1&#45;&gt;Node2</title>
<g id="a_edge1_Node000001_Node000002"><a xlink:title=" ">
<path fill="none" stroke="#63b8ff" d="M232.92,-110.09C220.52,-102.14 202.21,-90.39 187.57,-81"/>
<polygon fill="#63b8ff" stroke="#63b8ff" points="189.73,-78.22 179.42,-75.77 185.95,-84.12 189.73,-78.22"/>
</a>
</g>
</g>
<!-- Node5 -->
<g id="Node000005" class="node">
<title>Node5</title>
<g id="a_Node000005"><a xlink:href="defines_8h.html" target="_top" xlink:title="Hardware pin definitions and global constants for JMR800&#45;V2.">
<polygon fill="white" stroke="#666666" points="283.88,-19.25 228.12,-19.25 228.12,0 283.88,0 283.88,-19.25"/>
<text text-anchor="middle" x="256" y="-5.75" font-family="Helvetica,sans-Serif" font-size="10.00">defines.h</text>
</a>
</g>
</g>
<!-- Node1&#45;&gt;Node5 -->
<g id="edge4_Node000001_Node000005" class="edge">
<title>Node1&#45;&gt;Node5</title>
<g id="a_edge4_Node000001_Node000005"><a xlink:title=" ">
<path fill="none" stroke="#63b8ff" d="M247.74,-110.25C249.17,-93 252.35,-54.58 254.33,-30.81"/>
<polygon fill="#63b8ff" stroke="#63b8ff" points="257.79,-31.39 255.13,-21.14 250.81,-30.81 257.79,-31.39"/>
</a>
</g>
</g>
<!-- Node6 -->
<g id="Node000006" class="node">
<title>Node6</title>
<g id="a_Node000006"><a xlink:href="_logging_8h.html" target="_top" xlink:title="Lightweight logging utility for serial output in the JMR800&#45;V2 project.">
<polygon fill="white" stroke="#666666" points="333,-74.5 275,-74.5 275,-55.25 333,-55.25 333,-74.5"/>
<text text-anchor="middle" x="304" y="-61" font-family="Helvetica,sans-Serif" font-size="10.00">Logging.h</text>
</a>
</g>
</g>
<!-- Node1&#45;&gt;Node6 -->
<g id="edge5_Node000001_Node000006" class="edge">
<title>Node1&#45;&gt;Node6</title>
<g id="a_edge5_Node000001_Node000006"><a xlink:title=" ">
<path fill="none" stroke="#63b8ff" d="M256.67,-110.09C264.74,-102.55 276.47,-91.6 286.22,-82.48"/>
<polygon fill="#63b8ff" stroke="#63b8ff" points="288.45,-85.19 293.37,-75.81 283.67,-80.08 288.45,-85.19"/>
</a>
</g>
</g>
<!-- Node3 -->
<g id="Node000003" class="node">
<title>Node3</title>
<g id="a_Node000003"><a xlink:title=" ">
<polygon fill="#e0e0e0" stroke="#999999" points="100,-19.25 0,-19.25 0,0 100,0 100,-19.25"/>
<text text-anchor="middle" x="50" y="-5.75" font-family="Helvetica,sans-Serif" font-size="10.00">Adafruit_SH110X.h</text>
</a>
</g>
</g>
<!-- Node2&#45;&gt;Node3 -->
<g id="edge2_Node000002_Node000003" class="edge">
<title>Node2&#45;&gt;Node3</title>
<g id="a_edge2_Node000002_Node000003"><a xlink:title=" ">
<path fill="none" stroke="#63b8ff" d="M144.66,-54.84C126.89,-46.54 100.28,-34.11 79.8,-24.54"/>
<polygon fill="#63b8ff" stroke="#63b8ff" points="81.35,-21.4 70.8,-20.34 78.38,-27.75 81.35,-21.4"/>
</a>
</g>
</g>
<!-- Node4 -->
<g id="Node000004" class="node">
<title>Node4</title>
<g id="a_Node000004"><a xlink:href="_screen_8h.html" target="_top" xlink:title="Abstract interface for all UI screens in the JMR800&#45;V2 system.">
<polygon fill="white" stroke="#666666" points="210.25,-19.25 117.75,-19.25 117.75,0 210.25,0 210.25,-19.25"/>
<text text-anchor="middle" x="164" y="-5.75" font-family="Helvetica,sans-Serif" font-size="10.00">screens/Screen.h</text>
</a>
</g>
</g>
<!-- Node2&#45;&gt;Node4 -->
<g id="edge3_Node000002_Node000004" class="edge">
<title>Node2&#45;&gt;Node4</title>
<g id="a_edge3_Node000002_Node000004"><a xlink:title=" ">
<path fill="none" stroke="#63b8ff" d="M164,-55.08C164,-48.57 164,-39.42 164,-31.12"/>
<polygon fill="#63b8ff" stroke="#63b8ff" points="167.5,-31.12 164,-21.12 160.5,-31.12 167.5,-31.12"/>
</a>
</g>
</g>
<!-- Node6&#45;&gt;Node5 -->
<g id="edge7_Node000006_Node000005" class="edge">
<title>Node6&#45;&gt;Node5</title>
<g id="a_edge7_Node000006_Node000005"><a xlink:title=" ">
<path fill="none" stroke="#63b8ff" d="M296.07,-55.08C289.44,-47.73 279.78,-37.01 271.61,-27.94"/>
<polygon fill="#63b8ff" stroke="#63b8ff" points="274.41,-25.82 265.11,-20.73 269.21,-30.5 274.41,-25.82"/>
</a>
</g>
</g>
<!-- Node7 -->
<g id="Node000007" class="node">
<title>Node7</title>
<g id="a_Node000007"><a xlink:title=" ">
<polygon fill="#e0e0e0" stroke="#999999" points="359.62,-19.25 302.38,-19.25 302.38,0 359.62,0 359.62,-19.25"/>
<text text-anchor="middle" x="331" y="-5.75" font-family="Helvetica,sans-Serif" font-size="10.00">Arduino.h</text>
</a>
</g>
</g>
<!-- Node6&#45;&gt;Node7 -->
<g id="edge6_Node000006_Node000007" class="edge">
<title>Node6&#45;&gt;Node7</title>
<g id="a_edge6_Node000006_Node000007"><a xlink:title=" ">
<path fill="none" stroke="#63b8ff" d="M308.46,-55.08C311.95,-48.19 316.95,-38.34 321.35,-29.66"/>
<polygon fill="#63b8ff" stroke="#63b8ff" points="324.36,-31.46 325.76,-20.96 318.12,-28.3 324.36,-31.46"/>
</a>
</g>
</g>
</g>
</svg>
