<?xml version="1.0" encoding="UTF-8" standalone="no"?>
<!DOCTYPE svg PUBLIC "-//W3C//DTD SVG 1.1//EN"
 "http://www.w3.org/Graphics/SVG/1.1/DTD/svg11.dtd">
<!-- Generated by graphviz version 12.2.1 (20241206.2353)
 -->
<!-- Title: include/ScreenManager.h Pages: 1 -->
<svg width="218pt" height="83pt"
 viewBox="0.00 0.00 218.25 82.50" xmlns="http://www.w3.org/2000/svg" xmlns:xlink="http://www.w3.org/1999/xlink">
<g id="graph0" class="graph" transform="scale(1 1) rotate(0) translate(4 78.5)">
<title>include/ScreenManager.h</title>
<!-- Node1 -->
<g id="Node000001" class="node">
<title>Node1</title>
<g id="a_Node000001"><a xlink:title="Declares the ScreenManager class responsible for UI screen control on the OLED display.">
<polygon fill="#999999" stroke="#666666" points="169.75,-74.5 44.25,-74.5 44.25,-55.25 169.75,-55.25 169.75,-74.5"/>
<text text-anchor="middle" x="107" y="-61" font-family="Helvetica,sans-Serif" font-size="10.00">include/ScreenManager.h</text>
</a>
</g>
</g>
<!-- Node2 -->
<g id="Node000002" class="node">
<title>Node2</title>
<g id="a_Node000002"><a xlink:title=" ">
<polygon fill="#e0e0e0" stroke="#999999" points="100,-19.25 0,-19.25 0,0 100,0 100,-19.25"/>
<text text-anchor="middle" x="50" y="-5.75" font-family="Helvetica,sans-Serif" font-size="10.00">Adafruit_SH110X.h</text>
</a>
</g>
</g>
<!-- Node1&#45;&gt;Node2 -->
<g id="edge1_Node000001_Node000002" class="edge">
<title>Node1&#45;&gt;Node2</title>
<g id="a_edge1_Node000001_Node000002"><a xlink:title=" ">
<path fill="none" stroke="#63b8ff" d="M97.33,-54.84C89.26,-47.3 77.53,-36.35 67.78,-27.23"/>
<polygon fill="#63b8ff" stroke="#63b8ff" points="70.33,-24.83 60.63,-20.56 65.55,-29.94 70.33,-24.83"/>
</a>
</g>
</g>
<!-- Node3 -->
<g id="Node000003" class="node">
<title>Node3</title>
<g id="a_Node000003"><a xlink:href="_screen_8h.html" target="_top" xlink:title="Abstract interface for all UI screens in the JMR800&#45;V2 system.">
<polygon fill="white" stroke="#666666" points="210.25,-19.25 117.75,-19.25 117.75,0 210.25,0 210.25,-19.25"/>
<text text-anchor="middle" x="164" y="-5.75" font-family="Helvetica,sans-Serif" font-size="10.00">screens/Screen.h</text>
</a>
</g>
</g>
<!-- Node1&#45;&gt;Node3 -->
<g id="edge2_Node000001_Node000003" class="edge">
<title>Node1&#45;&gt;Node3</title>
<g id="a_edge2_Node000001_Node000003"><a xlink:title=" ">
<path fill="none" stroke="#63b8ff" d="M116.67,-54.84C124.74,-47.3 136.47,-36.35 146.22,-27.23"/>
<polygon fill="#63b8ff" stroke="#63b8ff" points="148.45,-29.94 153.37,-20.56 143.67,-24.83 148.45,-29.94"/>
</a>
</g>
</g>
</g>
</svg>
