<?xml version="1.0" encoding="UTF-8" standalone="no"?>
<!DOCTYPE svg PUBLIC "-//W3C//DTD SVG 1.1//EN"
 "http://www.w3.org/Graphics/SVG/1.1/DTD/svg11.dtd">
<!-- Generated by graphviz version 12.2.1 (20241206.2353)
 -->
<!-- Title: include/screens/Screen.h Pages: 1 -->
<svg width="3358pt" height="337pt"
 viewBox="0.00 0.00 3357.88 337.25" xmlns="http://www.w3.org/2000/svg" xmlns:xlink="http://www.w3.org/1999/xlink">
<g id="graph0" class="graph" transform="scale(1 1) rotate(0) translate(4 333.25)">
<title>include/screens/Screen.h</title>
<!-- Node1 -->
<g id="Node000001" class="node">
<title>Node1</title>
<g id="a_Node000001"><a xlink:title="Abstract interface for all UI screens in the JMR800&#45;V2 system.">
<polygon fill="#999999" stroke="#666666" points="2752.25,-329.25 2626,-329.25 2626,-310 2752.25,-310 2752.25,-329.25"/>
<text text-anchor="middle" x="2689.12" y="-315.75" font-family="Helvetica,sans-Serif" font-size="10.00">include/screens/Screen.h</text>
</a>
</g>
</g>
<!-- Node2 -->
<g id="Node000002" class="node">
<title>Node2</title>
<g id="a_Node000002"><a xlink:href="_screen_manager_8h.html" target="_top" xlink:title="Declares the ScreenManager class responsible for UI screen control on the OLED display.">
<polygon fill="white" stroke="#666666" points="1508.88,-146.62 1383.38,-146.62 1383.38,-127.38 1508.88,-127.38 1508.88,-146.62"/>
<text text-anchor="middle" x="1446.12" y="-133.12" font-family="Helvetica,sans-Serif" font-size="10.00">include/ScreenManager.h</text>
</a>
</g>
</g>
<!-- Node1&#45;&gt;Node2 -->
<g id="edge1_Node000001_Node000002" class="edge">
<title>Node1&#45;&gt;Node2</title>
<g id="a_edge1_Node000001_Node000002"><a xlink:title=" ">
<path fill="none" stroke="#63b8ff" d="M2615.33,-307.9C2390.66,-275.25 1717.72,-177.47 1508.74,-147.1"/>
<polygon fill="#63b8ff" stroke="#63b8ff" points="2614.74,-311.35 2625.13,-309.33 2615.74,-304.42 2614.74,-311.35"/>
</a>
</g>
</g>
<!-- Node22 -->
<g id="Node000022" class="node">
<title>Node22</title>
<g id="a_Node000022"><a xlink:href="_app_mode_8h.html" target="_top" xlink:title="Abstract interface for application mode behavior.">
<polygon fill="white" stroke="#666666" points="2922.88,-146.62 2791.38,-146.62 2791.38,-127.38 2922.88,-127.38 2922.88,-146.62"/>
<text text-anchor="middle" x="2857.12" y="-133.12" font-family="Helvetica,sans-Serif" font-size="10.00">include/modes/AppMode.h</text>
</a>
</g>
</g>
<!-- Node1&#45;&gt;Node22 -->
<g id="edge21_Node000001_Node000022" class="edge">
<title>Node1&#45;&gt;Node22</title>
<g id="a_edge21_Node000001_Node000022"><a xlink:title=" ">
<path fill="none" stroke="#63b8ff" d="M2705.01,-301.55C2739.89,-264.05 2822.16,-175.59 2848.71,-147.05"/>
<polygon fill="#63b8ff" stroke="#63b8ff" points="2702.51,-299.1 2698.26,-308.8 2707.63,-303.87 2702.51,-299.1"/>
</a>
</g>
</g>
<!-- Node29 -->
<g id="Node000029" class="node">
<title>Node29</title>
<g id="a_Node000029"><a xlink:href="_config_screen_8h.html" target="_top" xlink:title="Screen for accessing and modifying configuration settings.">
<polygon fill="white" stroke="#666666" points="3095.5,-146.62 2940.75,-146.62 2940.75,-127.38 3095.5,-127.38 3095.5,-146.62"/>
<text text-anchor="middle" x="3018.12" y="-133.12" font-family="Helvetica,sans-Serif" font-size="10.00">include/screens/ConfigScreen.h</text>
</a>
</g>
</g>
<!-- Node1&#45;&gt;Node29 -->
<g id="edge37_Node000001_Node000029" class="edge">
<title>Node1&#45;&gt;Node29</title>
<g id="a_edge37_Node000001_Node000029"><a xlink:title=" ">
<path fill="none" stroke="#63b8ff" d="M2715.33,-304.24C2780.51,-268.45 2948.51,-176.22 3001.71,-147.01"/>
<polygon fill="#63b8ff" stroke="#63b8ff" points="2713.85,-301.06 2706.77,-308.94 2717.22,-307.19 2713.85,-301.06"/>
</a>
</g>
</g>
<!-- Node30 -->
<g id="Node000030" class="node">
<title>Node30</title>
<g id="a_Node000030"><a xlink:href="_controls_test_screen_8h.html" target="_top" xlink:title="Diagnostic screen for visualizing the state of all physical controls.">
<polygon fill="white" stroke="#666666" points="2411.12,-152.25 2287.12,-152.25 2287.12,-121.75 2411.12,-121.75 2411.12,-152.25"/>
<text text-anchor="start" x="2295.12" y="-138.75" font-family="Helvetica,sans-Serif" font-size="10.00">include/screens/Controls</text>
<text text-anchor="middle" x="2349.12" y="-127.5" font-family="Helvetica,sans-Serif" font-size="10.00">TestScreen.h</text>
</a>
</g>
</g>
<!-- Node1&#45;&gt;Node30 -->
<g id="edge40_Node000001_Node000030" class="edge">
<title>Node1&#45;&gt;Node30</title>
<g id="a_edge40_Node000001_Node000030"><a xlink:title=" ">
<path fill="none" stroke="#63b8ff" d="M2662.25,-304.35C2598.81,-270.64 2440.32,-186.44 2376.44,-152.51"/>
<polygon fill="#63b8ff" stroke="#63b8ff" points="2660.45,-307.36 2670.93,-308.96 2663.74,-301.18 2660.45,-307.36"/>
</a>
</g>
</g>
<!-- Node31 -->
<g id="Node000031" class="node">
<title>Node31</title>
<g id="a_Node000031"><a xlink:href="_direct_command_screen_8h.html" target="_top" xlink:title="UI screen for manually sending raw commands to the synthesizer interface.">
<polygon fill="white" stroke="#666666" points="2587.38,-152.25 2428.88,-152.25 2428.88,-121.75 2587.38,-121.75 2587.38,-152.25"/>
<text text-anchor="start" x="2436.88" y="-138.75" font-family="Helvetica,sans-Serif" font-size="10.00">include/screens/DirectCommand</text>
<text text-anchor="middle" x="2508.12" y="-127.5" font-family="Helvetica,sans-Serif" font-size="10.00">Screen.h</text>
</a>
</g>
</g>
<!-- Node1&#45;&gt;Node31 -->
<g id="edge43_Node000001_Node000031" class="edge">
<title>Node1&#45;&gt;Node31</title>
<g id="a_edge43_Node000001_Node000031"><a xlink:title=" ">
<path fill="none" stroke="#63b8ff" d="M2672.52,-302.05C2637.38,-266.99 2556.02,-185.8 2522.73,-152.57"/>
<polygon fill="#63b8ff" stroke="#63b8ff" points="2669.77,-304.26 2679.32,-308.84 2674.72,-299.3 2669.77,-304.26"/>
</a>
</g>
</g>
<!-- Node32 -->
<g id="Node000032" class="node">
<title>Node32</title>
<g id="a_Node000032"><a xlink:href="_modal_dialog_8h.html" target="_top" xlink:title="Abstract base class for modal dialogs in the JMR800&#45;V2 UI.">
<polygon fill="white" stroke="#666666" points="3161.88,-274 3012.38,-274 3012.38,-254.75 3161.88,-254.75 3161.88,-274"/>
<text text-anchor="middle" x="3087.12" y="-260.5" font-family="Helvetica,sans-Serif" font-size="10.00">include/screens/ModalDialog.h</text>
</a>
</g>
</g>
<!-- Node1&#45;&gt;Node32 -->
<g id="edge46_Node000001_Node000032" class="edge">
<title>Node1&#45;&gt;Node32</title>
<g id="a_edge46_Node000001_Node000032"><a xlink:title=" ">
<path fill="none" stroke="#63b8ff" d="M2763.62,-308.66C2837.01,-298.84 2948.15,-283.97 3019.18,-274.47"/>
<polygon fill="#63b8ff" stroke="#63b8ff" points="2763.58,-305.13 2754.13,-309.93 2764.51,-312.07 2763.58,-305.13"/>
</a>
</g>
</g>
<!-- Node36 -->
<g id="Node000036" class="node">
<title>Node36</title>
<g id="a_Node000036"><a xlink:href="_run_mode_screen_8h.html" target="_top" xlink:title="Represents the active runtime screen for interacting with control widgets.">
<polygon fill="white" stroke="#666666" points="2773.25,-146.62 2605,-146.62 2605,-127.38 2773.25,-127.38 2773.25,-146.62"/>
<text text-anchor="middle" x="2689.12" y="-133.12" font-family="Helvetica,sans-Serif" font-size="10.00">include/screens/RunModeScreen.h</text>
</a>
</g>
</g>
<!-- Node1&#45;&gt;Node36 -->
<g id="edge53_Node000001_Node000036" class="edge">
<title>Node1&#45;&gt;Node36</title>
<g id="a_edge53_Node000001_Node000036"><a xlink:title=" ">
<path fill="none" stroke="#63b8ff" d="M2689.12,-298.59C2689.12,-259.59 2689.12,-174.87 2689.12,-147.05"/>
<polygon fill="#63b8ff" stroke="#63b8ff" points="2685.63,-298.4 2689.13,-308.4 2692.63,-298.4 2685.63,-298.4"/>
</a>
</g>
</g>
<!-- Node3 -->
<g id="Node000003" class="node">
<title>Node3</title>
<g id="a_Node000003"><a xlink:href="_screen_manager_8cpp.html" target="_top" xlink:title="Implements the ScreenManager class for managing the OLED display and screen lifecycle.">
<polygon fill="white" stroke="#666666" points="1584.5,-80.12 1465.75,-80.12 1465.75,-60.88 1584.5,-60.88 1584.5,-80.12"/>
<text text-anchor="middle" x="1525.12" y="-66.62" font-family="Helvetica,sans-Serif" font-size="10.00">src/ScreenManager.cpp</text>
</a>
</g>
</g>
<!-- Node2&#45;&gt;Node3 -->
<g id="edge2_Node000002_Node000003" class="edge">
<title>Node2&#45;&gt;Node3</title>
<g id="a_edge2_Node000002_Node000003"><a xlink:title=" ">
<path fill="none" stroke="#63b8ff" d="M1465.77,-119.96C1480.97,-107.55 1501.48,-90.8 1513.98,-80.6"/>
<polygon fill="#63b8ff" stroke="#63b8ff" points="1463.81,-117.04 1458.28,-126.07 1468.24,-122.46 1463.81,-117.04"/>
</a>
</g>
</g>
<!-- Node4 -->
<g id="Node000004" class="node">
<title>Node4</title>
<g id="a_Node000004"><a xlink:href="main_8cpp.html" target="_top" xlink:title="Entry point for the JMR800&#45;V2 firmware.">
<polygon fill="white" stroke="#666666" points="2793.25,-19.25 2721,-19.25 2721,0 2793.25,0 2793.25,-19.25"/>
<text text-anchor="middle" x="2757.12" y="-5.75" font-family="Helvetica,sans-Serif" font-size="10.00">src/main.cpp</text>
</a>
</g>
</g>
<!-- Node2&#45;&gt;Node4 -->
<g id="edge3_Node000002_Node000004" class="edge">
<title>Node2&#45;&gt;Node4</title>
<g id="a_edge3_Node000002_Node000004"><a xlink:title=" ">
<path fill="none" stroke="#63b8ff" d="M1520.53,-130.8C1616.38,-123.33 1777.19,-107.98 1832.12,-85.75 1853.18,-77.23 1851.75,-62.93 1873.12,-55.25 1953.7,-26.29 2564.01,-13.93 2720.6,-11.22"/>
<polygon fill="#63b8ff" stroke="#63b8ff" points="1520.39,-127.3 1510.68,-131.56 1520.92,-134.28 1520.39,-127.3"/>
</a>
</g>
</g>
<!-- Node5 -->
<g id="Node000005" class="node">
<title>Node5</title>
<g id="a_Node000005"><a xlink:href="_config_mode_8cpp.html" target="_top" xlink:title="Implements the System Configuration Mode for knob setup.">
<polygon fill="white" stroke="#666666" points="2293.12,-19.25 2157.12,-19.25 2157.12,0 2293.12,0 2293.12,-19.25"/>
<text text-anchor="middle" x="2225.12" y="-5.75" font-family="Helvetica,sans-Serif" font-size="10.00">src/modes/ConfigMode.cpp</text>
</a>
</g>
</g>
<!-- Node2&#45;&gt;Node5 -->
<g id="edge4_Node000002_Node000005" class="edge">
<title>Node2&#45;&gt;Node5</title>
<g id="a_edge4_Node000002_Node000005"><a xlink:title=" ">
<path fill="none" stroke="#63b8ff" d="M1520.62,-135.42C1593.51,-132.55 1706.49,-121.91 1797.12,-85.75 1818.89,-77.07 1818.25,-63.64 1840.12,-55.25 1896.36,-33.69 2062.18,-20.46 2156.85,-14.46"/>
<polygon fill="#63b8ff" stroke="#63b8ff" points="1520.66,-131.91 1510.79,-135.76 1520.9,-138.91 1520.66,-131.91"/>
</a>
</g>
</g>
<!-- Node6 -->
<g id="Node000006" class="node">
<title>Node6</title>
<g id="a_Node000006"><a xlink:href="_controls_test_mode_8cpp.html" target="_top" xlink:title="Implements the Controls Test Mode for button interaction diagnostics.">
<polygon fill="white" stroke="#666666" points="1022.62,-19.25 859.62,-19.25 859.62,0 1022.62,0 1022.62,-19.25"/>
<text text-anchor="middle" x="941.12" y="-5.75" font-family="Helvetica,sans-Serif" font-size="10.00">src/modes/ControlsTestMode.cpp</text>
</a>
</g>
</g>
<!-- Node2&#45;&gt;Node6 -->
<g id="edge5_Node000002_Node000006" class="edge">
<title>Node2&#45;&gt;Node6</title>
<g id="a_edge5_Node000002_Node000006"><a xlink:title=" ">
<path fill="none" stroke="#63b8ff" d="M1371.91,-134.47C1165.92,-129.86 600.37,-114.61 573.12,-85.75 563.82,-75.89 564.14,-65.4 573.12,-55.25 591.8,-34.18 756.91,-21.06 859.52,-14.87"/>
<polygon fill="#63b8ff" stroke="#63b8ff" points="1371.61,-137.96 1381.69,-134.68 1371.77,-130.96 1371.61,-137.96"/>
</a>
</g>
</g>
<!-- Node7 -->
<g id="Node000007" class="node">
<title>Node7</title>
<g id="a_Node000007"><a xlink:href="_direct_command_mode_8cpp.html" target="_top" xlink:title="Implements behavior for Direct Command Mode.">
<polygon fill="white" stroke="#666666" points="1582.5,-19.25 1403.75,-19.25 1403.75,0 1582.5,0 1582.5,-19.25"/>
<text text-anchor="middle" x="1493.12" y="-5.75" font-family="Helvetica,sans-Serif" font-size="10.00">src/modes/DirectCommandMode.cpp</text>
</a>
</g>
</g>
<!-- Node2&#45;&gt;Node7 -->
<g id="edge6_Node000002_Node000007" class="edge">
<title>Node2&#45;&gt;Node7</title>
<g id="a_edge6_Node000002_Node000007"><a xlink:title=" ">
<path fill="none" stroke="#63b8ff" d="M1371.46,-134.4C1166.93,-129.66 610.96,-114.2 584.12,-85.75 574.82,-75.89 574.78,-65.07 584.12,-55.25 612.08,-25.89 1179.53,-14.92 1403.41,-11.73"/>
<polygon fill="#63b8ff" stroke="#63b8ff" points="1371.38,-137.9 1381.46,-134.63 1371.54,-130.9 1371.38,-137.9"/>
</a>
</g>
</g>
<!-- Node8 -->
<g id="Node000008" class="node">
<title>Node8</title>
<g id="a_Node000008"><a xlink:href="_run_mode_8cpp.html" target="_top" xlink:title="Implements the behavior of the Run Mode application state.">
<polygon fill="white" stroke="#666666" points="1906.88,-19.25 1781.38,-19.25 1781.38,0 1906.88,0 1906.88,-19.25"/>
<text text-anchor="middle" x="1844.12" y="-5.75" font-family="Helvetica,sans-Serif" font-size="10.00">src/modes/RunMode.cpp</text>
</a>
</g>
</g>
<!-- Node2&#45;&gt;Node8 -->
<g id="edge7_Node000002_Node000008" class="edge">
<title>Node2&#45;&gt;Node8</title>
<g id="a_edge7_Node000002_Node000008"><a xlink:title=" ">
<path fill="none" stroke="#63b8ff" d="M1495.04,-123.9C1524.52,-115.5 1562.22,-102.75 1593.12,-85.75 1612.1,-75.31 1611.54,-64.5 1631.12,-55.25 1678.61,-32.81 1737.32,-21.58 1781.07,-16.01"/>
<polygon fill="#63b8ff" stroke="#63b8ff" points="1494.34,-120.46 1485.63,-126.5 1496.2,-127.21 1494.34,-120.46"/>
</a>
</g>
</g>
<!-- Node9 -->
<g id="Node000009" class="node">
<title>Node9</title>
<g id="a_Node000009"><a xlink:href="_config_screen_8cpp.html" target="_top" xlink:title="Implements the configuration screen for knob mapping and diagnostics.">
<polygon fill="white" stroke="#666666" points="3324.12,-80.12 3176.12,-80.12 3176.12,-60.88 3324.12,-60.88 3324.12,-80.12"/>
<text text-anchor="middle" x="3250.12" y="-66.62" font-family="Helvetica,sans-Serif" font-size="10.00">src/screens/ConfigScreen.cpp</text>
</a>
</g>
</g>
<!-- Node2&#45;&gt;Node9 -->
<g id="edge8_Node000002_Node000009" class="edge">
<title>Node2&#45;&gt;Node9</title>
<g id="a_edge8_Node000002_Node000009"><a xlink:title=" ">
<path fill="none" stroke="#63b8ff" d="M1520.83,-134.44C1830.15,-127.9 3002.13,-102.24 3167.12,-85.75 3179.2,-84.54 3192.17,-82.62 3204.18,-80.57"/>
<polygon fill="#63b8ff" stroke="#63b8ff" points="1520.76,-130.94 1510.84,-134.65 1520.91,-137.94 1520.76,-130.94"/>
</a>
</g>
</g>
<!-- Node10 -->
<g id="Node000010" class="node">
<title>Node10</title>
<g id="a_Node000010"><a xlink:href="_controls_test_screen_8cpp.html" target="_top" xlink:title="Implements a screen for testing all physical controls: knobs, buttons, and encoder.">
<polygon fill="white" stroke="#666666" points="2007.88,-85.75 1882.38,-85.75 1882.38,-55.25 2007.88,-55.25 2007.88,-85.75"/>
<text text-anchor="start" x="1890.38" y="-72.25" font-family="Helvetica,sans-Serif" font-size="10.00">src/screens/ControlsTest</text>
<text text-anchor="middle" x="1945.12" y="-61" font-family="Helvetica,sans-Serif" font-size="10.00">Screen.cpp</text>
</a>
</g>
</g>
<!-- Node2&#45;&gt;Node10 -->
<g id="edge9_Node000002_Node000010" class="edge">
<title>Node2&#45;&gt;Node10</title>
<g id="a_edge9_Node000002_Node000010"><a xlink:title=" ">
<path fill="none" stroke="#63b8ff" d="M1520.49,-128.61C1604.94,-119.88 1746.78,-104.18 1868.12,-85.75 1872.69,-85.06 1877.41,-84.29 1882.15,-83.5"/>
<polygon fill="#63b8ff" stroke="#63b8ff" points="1520.31,-125.11 1510.72,-129.62 1521.02,-132.07 1520.31,-125.11"/>
</a>
</g>
</g>
<!-- Node11 -->
<g id="Node000011" class="node">
<title>Node11</title>
<g id="a_Node000011"><a xlink:href="_direct_command_screen_8cpp.html" target="_top" xlink:title="Implements a screen for sending raw parameter/value commands to the synthesizer.">
<polygon fill="white" stroke="#666666" points="2166.75,-85.75 2025.5,-85.75 2025.5,-55.25 2166.75,-55.25 2166.75,-85.75"/>
<text text-anchor="start" x="2033.5" y="-72.25" font-family="Helvetica,sans-Serif" font-size="10.00">src/screens/DirectCommand</text>
<text text-anchor="middle" x="2096.12" y="-61" font-family="Helvetica,sans-Serif" font-size="10.00">Screen.cpp</text>
</a>
</g>
</g>
<!-- Node2&#45;&gt;Node11 -->
<g id="edge10_Node000002_Node000011" class="edge">
<title>Node2&#45;&gt;Node11</title>
<g id="a_edge10_Node000002_Node000011"><a xlink:title=" ">
<path fill="none" stroke="#63b8ff" d="M1520.49,-131.62C1629.69,-124.69 1839.7,-109.51 2017.12,-85.75 2019.75,-85.4 2022.42,-85.02 2025.11,-84.62"/>
<polygon fill="#63b8ff" stroke="#63b8ff" points="1520.55,-128.11 1510.79,-132.23 1520.99,-135.09 1520.55,-128.11"/>
</a>
</g>
</g>
<!-- Node12 -->
<g id="Node000012" class="node">
<title>Node12</title>
<g id="a_Node000012"><a xlink:href="_run_mode_screen_8cpp.html" target="_top" xlink:title="Implements the screen for displaying and managing widgets during normal controller operation.">
<polygon fill="white" stroke="#666666" points="2345.88,-80.12 2184.38,-80.12 2184.38,-60.88 2345.88,-60.88 2345.88,-80.12"/>
<text text-anchor="middle" x="2265.12" y="-66.62" font-family="Helvetica,sans-Serif" font-size="10.00">src/screens/RunModeScreen.cpp</text>
</a>
</g>
</g>
<!-- Node2&#45;&gt;Node12 -->
<g id="edge11_Node000002_Node000012" class="edge">
<title>Node2&#45;&gt;Node12</title>
<g id="a_edge11_Node000002_Node000012"><a xlink:title=" ">
<path fill="none" stroke="#63b8ff" d="M1520.45,-133.1C1652.66,-127.44 1937.28,-113.04 2176.12,-85.75 2188.25,-84.36 2201.25,-82.5 2213.47,-80.58"/>
<polygon fill="#63b8ff" stroke="#63b8ff" points="1520.64,-129.59 1510.79,-133.51 1520.93,-136.58 1520.64,-129.59"/>
</a>
</g>
</g>
<!-- Node13 -->
<g id="Node000013" class="node">
<title>Node13</title>
<g id="a_Node000013"><a xlink:href="_button_widget_8cpp.html" target="_top" xlink:title="Implements the ButtonWidget class, representing a physical button with LED indicators.">
<polygon fill="white" stroke="#666666" points="1787.75,-80.12 1640.5,-80.12 1640.5,-60.88 1787.75,-60.88 1787.75,-80.12"/>
<text text-anchor="middle" x="1714.12" y="-66.62" font-family="Helvetica,sans-Serif" font-size="10.00">src/widgets/ButtonWidget.cpp</text>
</a>
</g>
</g>
<!-- Node2&#45;&gt;Node13 -->
<g id="edge12_Node000002_Node000013" class="edge">
<title>Node2&#45;&gt;Node13</title>
<g id="a_edge12_Node000002_Node000013"><a xlink:title=" ">
<path fill="none" stroke="#63b8ff" d="M1494.96,-124.25C1547.22,-111.67 1628.99,-91.99 1676.49,-80.56"/>
<polygon fill="#63b8ff" stroke="#63b8ff" points="1494.33,-120.8 1485.43,-126.54 1495.97,-127.6 1494.33,-120.8"/>
</a>
</g>
</g>
<!-- Node14 -->
<g id="Node000014" class="node">
<title>Node14</title>
<g id="a_Node000014"><a xlink:href="_encoder_attached_numeric_widget_8cpp.html" target="_top" xlink:title="UI widget displaying and controlling a numeric value using an encoder.">
<polygon fill="white" stroke="#666666" points="144.25,-85.75 0,-85.75 0,-55.25 144.25,-55.25 144.25,-85.75"/>
<text text-anchor="start" x="8" y="-72.25" font-family="Helvetica,sans-Serif" font-size="10.00">src/widgets/EncoderAttached</text>
<text text-anchor="middle" x="72.12" y="-61" font-family="Helvetica,sans-Serif" font-size="10.00">NumericWidget.cpp</text>
</a>
</g>
</g>
<!-- Node2&#45;&gt;Node14 -->
<g id="edge13_Node000002_Node000014" class="edge">
<title>Node2&#45;&gt;Node14</title>
<g id="a_edge13_Node000002_Node000014"><a xlink:title=" ">
<path fill="none" stroke="#63b8ff" d="M1371.56,-136.62C1172.88,-137.52 614.42,-135.06 153.12,-85.75 150.29,-85.45 147.4,-85.1 144.48,-84.73"/>
<polygon fill="#63b8ff" stroke="#63b8ff" points="1371.51,-140.12 1381.49,-136.57 1371.47,-133.12 1371.51,-140.12"/>
</a>
</g>
</g>
<!-- Node15 -->
<g id="Node000015" class="node">
<title>Node15</title>
<g id="a_Node000015"><a xlink:href="_encoder_knob_widget_8cpp.html" target="_top" xlink:title="Implements a UI widget that visually represents the encoder knob and its pressed state.">
<polygon fill="white" stroke="#666666" points="339.75,-80.12 162.5,-80.12 162.5,-60.88 339.75,-60.88 339.75,-80.12"/>
<text text-anchor="middle" x="251.12" y="-66.62" font-family="Helvetica,sans-Serif" font-size="10.00">src/widgets/EncoderKnobWidget.cpp</text>
</a>
</g>
</g>
<!-- Node2&#45;&gt;Node15 -->
<g id="edge14_Node000002_Node000015" class="edge">
<title>Node2&#45;&gt;Node15</title>
<g id="a_edge14_Node000002_Node000015"><a xlink:title=" ">
<path fill="none" stroke="#63b8ff" d="M1371.88,-135.16C1194.48,-132.61 732.18,-122.65 348.12,-85.75 334.57,-84.45 320.02,-82.57 306.41,-80.6"/>
<polygon fill="#63b8ff" stroke="#63b8ff" points="1371.59,-138.66 1381.63,-135.3 1371.68,-131.66 1371.59,-138.66"/>
</a>
</g>
</g>
<!-- Node16 -->
<g id="Node000016" class="node">
<title>Node16</title>
<g id="a_Node000016"><a xlink:href="_knob_widget_8cpp.html" target="_top" xlink:title="Defines the base class for knob&#45;based widgets, providing shared bezel drawing behavior.">
<polygon fill="white" stroke="#666666" points="498.75,-80.12 357.5,-80.12 357.5,-60.88 498.75,-60.88 498.75,-80.12"/>
<text text-anchor="middle" x="428.12" y="-66.62" font-family="Helvetica,sans-Serif" font-size="10.00">src/widgets/KnobWidget.cpp</text>
</a>
</g>
</g>
<!-- Node2&#45;&gt;Node16 -->
<g id="edge15_Node000002_Node000016" class="edge">
<title>Node2&#45;&gt;Node16</title>
<g id="a_edge15_Node000002_Node000016"><a xlink:title=" ">
<path fill="none" stroke="#63b8ff" d="M1371.66,-134.83C1213.24,-131.7 831.26,-120.87 513.12,-85.75 501.23,-84.44 488.46,-82.55 476.54,-80.58"/>
<polygon fill="#63b8ff" stroke="#63b8ff" points="1371.55,-138.32 1381.62,-135.02 1371.69,-131.33 1371.55,-138.32"/>
</a>
</g>
</g>
<!-- Node17 -->
<g id="Node000017" class="node">
<title>Node17</title>
<g id="a_Node000017"><a xlink:href="_potentiometer_knob_widget_8cpp.html" target="_top" xlink:title="Implements the PotentiometerKnobWidget class, which visualizes a physical knob&#39;s current state.">
<polygon fill="white" stroke="#666666" points="723.12,-85.75 593.12,-85.75 593.12,-55.25 723.12,-55.25 723.12,-85.75"/>
<text text-anchor="start" x="601.12" y="-72.25" font-family="Helvetica,sans-Serif" font-size="10.00">src/widgets/Potentiometer</text>
<text text-anchor="middle" x="658.12" y="-61" font-family="Helvetica,sans-Serif" font-size="10.00">KnobWidget.cpp</text>
</a>
</g>
</g>
<!-- Node2&#45;&gt;Node17 -->
<g id="edge16_Node000002_Node000017" class="edge">
<title>Node2&#45;&gt;Node17</title>
<g id="a_edge16_Node000002_Node000017"><a xlink:title=" ">
<path fill="none" stroke="#63b8ff" d="M1371.95,-133.71C1241.89,-129.05 964.45,-116.18 732.12,-85.75 729.27,-85.38 726.36,-84.96 723.43,-84.52"/>
<polygon fill="#63b8ff" stroke="#63b8ff" points="1371.69,-137.2 1381.8,-134.06 1371.93,-130.21 1371.69,-137.2"/>
</a>
</g>
</g>
<!-- Node18 -->
<g id="Node000018" class="node">
<title>Node18</title>
<g id="a_Node000018"><a xlink:href="_push_button_widget_8cpp.html" target="_top" xlink:title="Implements the PushButtonWidget class, which represents a UI button with encoder interaction support.">
<polygon fill="white" stroke="#666666" points="911,-80.12 741.25,-80.12 741.25,-60.88 911,-60.88 911,-80.12"/>
<text text-anchor="middle" x="826.12" y="-66.62" font-family="Helvetica,sans-Serif" font-size="10.00">src/widgets/PushButtonWidget.cpp</text>
</a>
</g>
</g>
<!-- Node2&#45;&gt;Node18 -->
<g id="edge17_Node000002_Node000018" class="edge">
<title>Node2&#45;&gt;Node18</title>
<g id="a_edge17_Node000002_Node000018"><a xlink:title=" ">
<path fill="none" stroke="#63b8ff" d="M1371.71,-130.25C1269.51,-122.04 1080.06,-105.74 919.12,-85.75 907.13,-84.26 894.3,-82.44 882.12,-80.61"/>
<polygon fill="#63b8ff" stroke="#63b8ff" points="1371.37,-133.73 1381.62,-131.04 1371.93,-126.76 1371.37,-133.73"/>
</a>
</g>
</g>
<!-- Node19 -->
<g id="Node000019" class="node">
<title>Node19</title>
<g id="a_Node000019"><a xlink:href="_rectangle_widget_8cpp.html" target="_top" xlink:title="Implements the RectangleWidget class for drawing rectangular shapes with optional fill and highlight ...">
<polygon fill="white" stroke="#666666" points="1091.62,-80.12 928.62,-80.12 928.62,-60.88 1091.62,-60.88 1091.62,-80.12"/>
<text text-anchor="middle" x="1010.12" y="-66.62" font-family="Helvetica,sans-Serif" font-size="10.00">src/widgets/RectangleWidget.cpp</text>
</a>
</g>
</g>
<!-- Node2&#45;&gt;Node19 -->
<g id="edge18_Node000002_Node000019" class="edge">
<title>Node2&#45;&gt;Node19</title>
<g id="a_edge18_Node000002_Node000019"><a xlink:title=" ">
<path fill="none" stroke="#63b8ff" d="M1371.6,-125.46C1301.51,-115.48 1193.64,-99.94 1100.12,-85.75 1089.33,-84.11 1077.82,-82.32 1066.76,-80.58"/>
<polygon fill="#63b8ff" stroke="#63b8ff" points="1371.06,-128.92 1381.45,-126.86 1372.05,-121.99 1371.06,-128.92"/>
</a>
</g>
</g>
<!-- Node20 -->
<g id="Node000020" class="node">
<title>Node20</title>
<g id="a_Node000020"><a xlink:href="_text_input_widget_8cpp.html" target="_top" xlink:title="Implements the TextInputWidget class, allowing user&#45;editable text display with cursor navigation.">
<polygon fill="white" stroke="#666666" points="1268.75,-80.12 1109.5,-80.12 1109.5,-60.88 1268.75,-60.88 1268.75,-80.12"/>
<text text-anchor="middle" x="1189.12" y="-66.62" font-family="Helvetica,sans-Serif" font-size="10.00">src/widgets/TextInputWidget.cpp</text>
</a>
</g>
</g>
<!-- Node2&#45;&gt;Node20 -->
<g id="edge19_Node000002_Node000020" class="edge">
<title>Node2&#45;&gt;Node20</title>
<g id="a_edge19_Node000002_Node000020"><a xlink:title=" ">
<path fill="none" stroke="#63b8ff" d="M1398.98,-124.17C1348.85,-111.59 1270.67,-91.96 1225.22,-80.56"/>
<polygon fill="#63b8ff" stroke="#63b8ff" points="1397.83,-127.49 1408.38,-126.53 1399.53,-120.7 1397.83,-127.49"/>
</a>
</g>
</g>
<!-- Node21 -->
<g id="Node000021" class="node">
<title>Node21</title>
<g id="a_Node000021"><a xlink:href="_text_label_widget_8cpp.html" target="_top" xlink:title="Implements the TextLabelWidget class for displaying static text labels in the UI.">
<polygon fill="white" stroke="#666666" points="1447.5,-80.12 1286.75,-80.12 1286.75,-60.88 1447.5,-60.88 1447.5,-80.12"/>
<text text-anchor="middle" x="1367.12" y="-66.62" font-family="Helvetica,sans-Serif" font-size="10.00">src/widgets/TextLabelWidget.cpp</text>
</a>
</g>
</g>
<!-- Node2&#45;&gt;Node21 -->
<g id="edge20_Node000002_Node000021" class="edge">
<title>Node2&#45;&gt;Node21</title>
<g id="a_edge20_Node000002_Node000021"><a xlink:title=" ">
<path fill="none" stroke="#63b8ff" d="M1426.48,-119.96C1411.28,-107.55 1390.77,-90.8 1378.27,-80.6"/>
<polygon fill="#63b8ff" stroke="#63b8ff" points="1424.01,-122.46 1433.97,-126.07 1428.44,-117.04 1424.01,-122.46"/>
</a>
</g>
</g>
<!-- Node23 -->
<g id="Node000023" class="node">
<title>Node23</title>
<g id="a_Node000023"><a xlink:href="_mode_manager_8h.html" target="_top" xlink:title="Declares the ModeManager class for managing application modes in JMR800&#45;V2.">
<polygon fill="white" stroke="#666666" points="3158.5,-80.12 3039.75,-80.12 3039.75,-60.88 3158.5,-60.88 3158.5,-80.12"/>
<text text-anchor="middle" x="3099.12" y="-66.62" font-family="Helvetica,sans-Serif" font-size="10.00">include/ModeManager.h</text>
</a>
</g>
</g>
<!-- Node22&#45;&gt;Node23 -->
<g id="edge22_Node000022_Node000023" class="edge">
<title>Node22&#45;&gt;Node23</title>
<g id="a_edge22_Node000022_Node000023"><a xlink:title=" ">
<path fill="none" stroke="#63b8ff" d="M2902.11,-124.01C2949.34,-111.42 3022.52,-91.92 3065.14,-80.56"/>
<polygon fill="#63b8ff" stroke="#63b8ff" points="2901.51,-120.55 2892.75,-126.51 2903.31,-127.31 2901.51,-120.55"/>
</a>
</g>
</g>
<!-- Node25 -->
<g id="Node000025" class="node">
<title>Node25</title>
<g id="a_Node000025"><a xlink:href="_config_mode_8h.html" target="_top" xlink:title="Application mode for accessing and modifying system configuration.">
<polygon fill="white" stroke="#666666" points="3021.5,-80.12 2878.75,-80.12 2878.75,-60.88 3021.5,-60.88 3021.5,-80.12"/>
<text text-anchor="middle" x="2950.12" y="-66.62" font-family="Helvetica,sans-Serif" font-size="10.00">include/modes/ConfigMode.h</text>
</a>
</g>
</g>
<!-- Node22&#45;&gt;Node25 -->
<g id="edge25_Node000022_Node000025" class="edge">
<title>Node22&#45;&gt;Node25</title>
<g id="a_edge25_Node000022_Node000025"><a xlink:title=" ">
<path fill="none" stroke="#63b8ff" d="M2879.5,-120.48C2897.47,-108.02 2922.08,-90.95 2937,-80.6"/>
<polygon fill="#63b8ff" stroke="#63b8ff" points="2877.52,-117.59 2871.3,-126.17 2881.51,-123.35 2877.52,-117.59"/>
</a>
</g>
</g>
<!-- Node26 -->
<g id="Node000026" class="node">
<title>Node26</title>
<g id="a_Node000026"><a xlink:href="_controls_test_mode_8h.html" target="_top" xlink:title="Application mode for verifying control inputs in real&#45;time.">
<polygon fill="white" stroke="#666666" points="2501.88,-85.75 2364.38,-85.75 2364.38,-55.25 2501.88,-55.25 2501.88,-85.75"/>
<text text-anchor="start" x="2372.38" y="-72.25" font-family="Helvetica,sans-Serif" font-size="10.00">include/modes/ControlsTest</text>
<text text-anchor="middle" x="2433.12" y="-61" font-family="Helvetica,sans-Serif" font-size="10.00">Mode.h</text>
</a>
</g>
</g>
<!-- Node22&#45;&gt;Node26 -->
<g id="edge28_Node000022_Node000026" class="edge">
<title>Node22&#45;&gt;Node26</title>
<g id="a_edge28_Node000022_Node000026"><a xlink:title=" ">
<path fill="none" stroke="#63b8ff" d="M2800.52,-124.89C2794.32,-123.78 2788.1,-122.71 2782.12,-121.75 2661.73,-102.36 2630.56,-104.85 2510.12,-85.75 2507.57,-85.35 2504.98,-84.92 2502.36,-84.49"/>
<polygon fill="#63b8ff" stroke="#63b8ff" points="2799.63,-128.29 2810.1,-126.65 2800.89,-121.4 2799.63,-128.29"/>
</a>
</g>
</g>
<!-- Node27 -->
<g id="Node000027" class="node">
<title>Node27</title>
<g id="a_Node000027"><a xlink:href="_direct_command_mode_8h.html" target="_top" xlink:title="Application mode for sending direct parameter/value commands.">
<polygon fill="white" stroke="#666666" points="2672.75,-85.75 2519.5,-85.75 2519.5,-55.25 2672.75,-55.25 2672.75,-85.75"/>
<text text-anchor="start" x="2527.5" y="-72.25" font-family="Helvetica,sans-Serif" font-size="10.00">include/modes/DirectCommand</text>
<text text-anchor="middle" x="2596.12" y="-61" font-family="Helvetica,sans-Serif" font-size="10.00">Mode.h</text>
</a>
</g>
</g>
<!-- Node22&#45;&gt;Node27 -->
<g id="edge31_Node000022_Node000027" class="edge">
<title>Node22&#45;&gt;Node27</title>
<g id="a_edge31_Node000022_Node000027"><a xlink:title=" ">
<path fill="none" stroke="#63b8ff" d="M2809.19,-124.15C2765.86,-113.45 2701.93,-97.65 2655.4,-86.15"/>
<polygon fill="#63b8ff" stroke="#63b8ff" points="2808.27,-127.53 2818.81,-126.53 2809.95,-120.74 2808.27,-127.53"/>
</a>
</g>
</g>
<!-- Node28 -->
<g id="Node000028" class="node">
<title>Node28</title>
<g id="a_Node000028"><a xlink:href="_run_mode_8h.html" target="_top" xlink:title="Defines the main runtime mode of the application.">
<polygon fill="white" stroke="#666666" points="2823.25,-80.12 2691,-80.12 2691,-60.88 2823.25,-60.88 2823.25,-80.12"/>
<text text-anchor="middle" x="2757.12" y="-66.62" font-family="Helvetica,sans-Serif" font-size="10.00">include/modes/RunMode.h</text>
</a>
</g>
</g>
<!-- Node22&#45;&gt;Node28 -->
<g id="edge34_Node000022_Node000028" class="edge">
<title>Node22&#45;&gt;Node28</title>
<g id="a_edge34_Node000022_Node000028"><a xlink:title=" ">
<path fill="none" stroke="#63b8ff" d="M2833.61,-120.83C2814.24,-108.34 2787.43,-91.05 2771.23,-80.6"/>
<polygon fill="#63b8ff" stroke="#63b8ff" points="2831.65,-123.73 2841.95,-126.21 2835.44,-117.85 2831.65,-123.73"/>
</a>
</g>
</g>
<!-- Node23&#45;&gt;Node4 -->
<g id="edge24_Node000023_Node000004" class="edge">
<title>Node23&#45;&gt;Node4</title>
<g id="a_edge24_Node000023_Node000004"><a xlink:title=" ">
<path fill="none" stroke="#63b8ff" d="M3045.32,-58.16C3040.19,-57.15 3035.06,-56.16 3030.12,-55.25 2945.59,-39.62 2845.8,-24.03 2793.42,-16.07"/>
<polygon fill="#63b8ff" stroke="#63b8ff" points="3044.51,-61.57 3055,-60.11 3045.88,-54.71 3044.51,-61.57"/>
</a>
</g>
</g>
<!-- Node24 -->
<g id="Node000024" class="node">
<title>Node24</title>
<g id="a_Node000024"><a xlink:href="_mode_manager_8cpp.html" target="_top" xlink:title="Implements the ModeManager class responsible for managing application modes.">
<polygon fill="white" stroke="#666666" points="3155.12,-19.25 3043.12,-19.25 3043.12,0 3155.12,0 3155.12,-19.25"/>
<text text-anchor="middle" x="3099.12" y="-5.75" font-family="Helvetica,sans-Serif" font-size="10.00">src/ModeManager.cpp</text>
</a>
</g>
</g>
<!-- Node23&#45;&gt;Node24 -->
<g id="edge23_Node000023_Node000024" class="edge">
<title>Node23&#45;&gt;Node24</title>
<g id="a_edge23_Node000023_Node000024"><a xlink:title=" ">
<path fill="none" stroke="#63b8ff" d="M3099.12,-49.07C3099.12,-39.04 3099.12,-27.46 3099.12,-19.65"/>
<polygon fill="#63b8ff" stroke="#63b8ff" points="3095.63,-49.04 3099.13,-59.04 3102.63,-49.04 3095.63,-49.04"/>
</a>
</g>
</g>
<!-- Node25&#45;&gt;Node4 -->
<g id="edge26_Node000025_Node000004" class="edge">
<title>Node25&#45;&gt;Node4</title>
<g id="a_edge26_Node000025_Node000004"><a xlink:title=" ">
<path fill="none" stroke="#63b8ff" d="M2909.58,-57.13C2872.91,-45.95 2819.77,-29.74 2786.89,-19.71"/>
<polygon fill="#63b8ff" stroke="#63b8ff" points="2908.36,-60.42 2918.94,-59.99 2910.4,-53.72 2908.36,-60.42"/>
</a>
</g>
</g>
<!-- Node25&#45;&gt;Node5 -->
<g id="edge27_Node000025_Node000005" class="edge">
<title>Node25&#45;&gt;Node5</title>
<g id="a_edge27_Node000025_Node000005"><a xlink:title=" ">
<path fill="none" stroke="#63b8ff" d="M2867.95,-59.08C2855.94,-57.7 2843.72,-56.38 2832.12,-55.25 2637.03,-36.31 2405.96,-21.39 2293.49,-14.6"/>
<polygon fill="#63b8ff" stroke="#63b8ff" points="2867.52,-62.55 2877.86,-60.23 2868.33,-55.6 2867.52,-62.55"/>
</a>
</g>
</g>
<!-- Node26&#45;&gt;Node4 -->
<g id="edge29_Node000026_Node000004" class="edge">
<title>Node26&#45;&gt;Node4</title>
<g id="a_edge29_Node000026_Node000004"><a xlink:title=" ">
<path fill="none" stroke="#63b8ff" d="M2513.17,-54.7C2592.72,-40.17 2674.68,-25.42 2720.71,-17.15"/>
<polygon fill="#63b8ff" stroke="#63b8ff" points="2512.67,-51.23 2503.46,-56.47 2513.92,-58.12 2512.67,-51.23"/>
</a>
</g>
</g>
<!-- Node26&#45;&gt;Node6 -->
<g id="edge30_Node000026_Node000006" class="edge">
<title>Node26&#45;&gt;Node6</title>
<g id="a_edge30_Node000026_Node000006"><a xlink:title=" ">
<path fill="none" stroke="#63b8ff" d="M2352.45,-55.2C2179.41,-40.13 1297.35,-18.86 1022.77,-12.49"/>
<polygon fill="#63b8ff" stroke="#63b8ff" points="2352.09,-58.68 2362.37,-56.15 2352.75,-51.71 2352.09,-58.68"/>
</a>
</g>
</g>
<!-- Node27&#45;&gt;Node4 -->
<g id="edge32_Node000027_Node000004" class="edge">
<title>Node27&#45;&gt;Node4</title>
<g id="a_edge32_Node000027_Node000004"><a xlink:title=" ">
<path fill="none" stroke="#63b8ff" d="M2646.95,-50.91C2675.47,-40.49 2709.76,-27.94 2732.43,-19.65"/>
<polygon fill="#63b8ff" stroke="#63b8ff" points="2645.95,-47.55 2637.76,-54.28 2648.35,-54.13 2645.95,-47.55"/>
</a>
</g>
</g>
<!-- Node27&#45;&gt;Node7 -->
<g id="edge33_Node000027_Node000007" class="edge">
<title>Node27&#45;&gt;Node7</title>
<g id="a_edge33_Node000027_Node000007"><a xlink:title=" ">
<path fill="none" stroke="#63b8ff" d="M2508.16,-55.13C2381.69,-44.21 1806.89,-22.26 1582.82,-13.93"/>
<polygon fill="#63b8ff" stroke="#63b8ff" points="2507.48,-58.58 2517.77,-56.04 2508.14,-51.61 2507.48,-58.58"/>
</a>
</g>
</g>
<!-- Node28&#45;&gt;Node4 -->
<g id="edge35_Node000028_Node000004" class="edge">
<title>Node28&#45;&gt;Node4</title>
<g id="a_edge35_Node000028_Node000004"><a xlink:title=" ">
<path fill="none" stroke="#63b8ff" d="M2757.12,-49.07C2757.12,-39.04 2757.12,-27.46 2757.12,-19.65"/>
<polygon fill="#63b8ff" stroke="#63b8ff" points="2753.63,-49.04 2757.13,-59.04 2760.63,-49.04 2753.63,-49.04"/>
</a>
</g>
</g>
<!-- Node28&#45;&gt;Node8 -->
<g id="edge36_Node000028_Node000008" class="edge">
<title>Node28&#45;&gt;Node8</title>
<g id="a_edge36_Node000028_Node000008"><a xlink:title=" ">
<path fill="none" stroke="#63b8ff" d="M2703.66,-58.43C2696.44,-57.21 2689.12,-56.1 2682.12,-55.25 2532.16,-37.09 2075.26,-19.07 1907.11,-12.88"/>
<polygon fill="#63b8ff" stroke="#63b8ff" points="2702.89,-61.85 2713.35,-60.17 2704.12,-54.96 2702.89,-61.85"/>
</a>
</g>
</g>
<!-- Node29&#45;&gt;Node9 -->
<g id="edge39_Node000029_Node000009" class="edge">
<title>Node29&#45;&gt;Node9</title>
<g id="a_edge39_Node000029_Node000009"><a xlink:title=" ">
<path fill="none" stroke="#63b8ff" d="M3061.83,-123.85C3107.12,-111.26 3176.86,-91.87 3217.54,-80.56"/>
<polygon fill="#63b8ff" stroke="#63b8ff" points="3061.03,-120.44 3052.33,-126.49 3062.9,-127.18 3061.03,-120.44"/>
</a>
</g>
</g>
<!-- Node29&#45;&gt;Node25 -->
<g id="edge38_Node000029_Node000025" class="edge">
<title>Node29&#45;&gt;Node25</title>
<g id="a_edge38_Node000029_Node000025"><a xlink:title=" ">
<path fill="none" stroke="#63b8ff" d="M3000.42,-119.2C2987.33,-106.79 2970.02,-90.37 2959.5,-80.39"/>
<polygon fill="#63b8ff" stroke="#63b8ff" points="2997.91,-121.65 3007.57,-125.99 3002.73,-116.57 2997.91,-121.65"/>
</a>
</g>
</g>
<!-- Node30&#45;&gt;Node10 -->
<g id="edge42_Node000030_Node000010" class="edge">
<title>Node30&#45;&gt;Node10</title>
<g id="a_edge42_Node000030_Node000010"><a xlink:title=" ">
<path fill="none" stroke="#63b8ff" d="M2275.32,-125.91C2207.73,-116.41 2104.99,-101.36 2016.12,-85.75 2013.52,-85.29 2010.87,-84.82 2008.2,-84.32"/>
<polygon fill="#63b8ff" stroke="#63b8ff" points="2274.8,-129.37 2285.19,-127.29 2275.77,-122.43 2274.8,-129.37"/>
</a>
</g>
</g>
<!-- Node30&#45;&gt;Node26 -->
<g id="edge41_Node000030_Node000026" class="edge">
<title>Node30&#45;&gt;Node26</title>
<g id="a_edge41_Node000030_Node000026"><a xlink:title=" ">
<path fill="none" stroke="#63b8ff" d="M2377.07,-114.54C2389.24,-105.19 2403.2,-94.48 2414.14,-86.08"/>
<polygon fill="#63b8ff" stroke="#63b8ff" points="2375.19,-111.58 2369.39,-120.44 2379.45,-117.13 2375.19,-111.58"/>
</a>
</g>
</g>
<!-- Node31&#45;&gt;Node11 -->
<g id="edge45_Node000031_Node000011" class="edge">
<title>Node31&#45;&gt;Node11</title>
<g id="a_edge45_Node000031_Node000011"><a xlink:title=" ">
<path fill="none" stroke="#63b8ff" d="M2417.13,-121.3C2309.43,-104.84 2280.13,-102.93 2175.12,-85.75 2172.51,-85.32 2169.85,-84.88 2167.16,-84.43"/>
<polygon fill="#63b8ff" stroke="#63b8ff" points="2416.6,-124.76 2427.01,-122.82 2417.66,-117.85 2416.6,-124.76"/>
</a>
</g>
</g>
<!-- Node31&#45;&gt;Node27 -->
<g id="edge44_Node000031_Node000027" class="edge">
<title>Node31&#45;&gt;Node27</title>
<g id="a_edge44_Node000031_Node000027"><a xlink:title=" ">
<path fill="none" stroke="#63b8ff" d="M2537.03,-114.82C2549.87,-105.41 2564.66,-94.56 2576.24,-86.08"/>
<polygon fill="#63b8ff" stroke="#63b8ff" points="2535.31,-111.73 2529.31,-120.47 2539.45,-117.38 2535.31,-111.73"/>
</a>
</g>
</g>
<!-- Node33 -->
<g id="Node000033" class="node">
<title>Node33</title>
<g id="a_Node000033"><a xlink:href="_knob_config_dialog_8h.html" target="_top" xlink:title="Modal dialog for editing knob assignments and configuration parameters.">
<polygon fill="white" stroke="#666666" points="3087.25,-218.75 2949,-218.75 2949,-188.25 3087.25,-188.25 3087.25,-218.75"/>
<text text-anchor="start" x="2957" y="-205.25" font-family="Helvetica,sans-Serif" font-size="10.00">include/screens/KnobConfig</text>
<text text-anchor="middle" x="3018.12" y="-194" font-family="Helvetica,sans-Serif" font-size="10.00">Dialog.h</text>
</a>
</g>
</g>
<!-- Node32&#45;&gt;Node33 -->
<g id="edge47_Node000032_Node000033" class="edge">
<title>Node32&#45;&gt;Node33</title>
<g id="a_edge47_Node000032_Node000033"><a xlink:title=" ">
<path fill="none" stroke="#63b8ff" d="M3067.98,-247.04C3057.69,-238.26 3045.11,-227.52 3035.16,-219.03"/>
<polygon fill="#63b8ff" stroke="#63b8ff" points="3065.62,-249.62 3075.49,-253.45 3070.16,-244.3 3065.62,-249.62"/>
</a>
</g>
</g>
<!-- Node34 -->
<g id="Node000034" class="node">
<title>Node34</title>
<g id="a_Node000034"><a xlink:href="_knob_config_dialog_8cpp.html" target="_top" xlink:title=" ">
<polygon fill="white" stroke="#666666" points="3349.88,-146.62 3182.38,-146.62 3182.38,-127.38 3349.88,-127.38 3349.88,-146.62"/>
<text text-anchor="middle" x="3266.12" y="-133.12" font-family="Helvetica,sans-Serif" font-size="10.00">src/screens/KnobConfigDialog.cpp</text>
</a>
</g>
</g>
<!-- Node32&#45;&gt;Node34 -->
<g id="edge51_Node000032_Node000034" class="edge">
<title>Node32&#45;&gt;Node34</title>
<g id="a_edge51_Node000032_Node000034"><a xlink:title=" ">
<path fill="none" stroke="#63b8ff" d="M3161.99,-252.25C3201.45,-244.79 3244.3,-233.6 3257.12,-218.75 3274.74,-198.36 3271.08,-163.45 3268.09,-147.03"/>
<polygon fill="#63b8ff" stroke="#63b8ff" points="3161.41,-248.8 3152.2,-254.03 3162.66,-255.69 3161.41,-248.8"/>
</a>
</g>
</g>
<!-- Node35 -->
<g id="Node000035" class="node">
<title>Node35</title>
<g id="a_Node000035"><a xlink:href="_modal_dialog_8cpp.html" target="_top" xlink:title="Implements a base modal dialog screen used to temporarily take over UI control.">
<polygon fill="white" stroke="#666666" points="3248.5,-213.12 3105.75,-213.12 3105.75,-193.88 3248.5,-193.88 3248.5,-213.12"/>
<text text-anchor="middle" x="3177.12" y="-199.62" font-family="Helvetica,sans-Serif" font-size="10.00">src/screens/ModalDialog.cpp</text>
</a>
</g>
</g>
<!-- Node32&#45;&gt;Node35 -->
<g id="edge52_Node000032_Node000035" class="edge">
<title>Node32&#45;&gt;Node35</title>
<g id="a_edge52_Node000032_Node000035"><a xlink:title=" ">
<path fill="none" stroke="#63b8ff" d="M3109.96,-248.43C3126.79,-237.42 3149.14,-222.81 3163.33,-213.53"/>
<polygon fill="#63b8ff" stroke="#63b8ff" points="3108.51,-245.2 3102.06,-253.6 3112.35,-251.06 3108.51,-245.2"/>
</a>
</g>
</g>
<!-- Node33&#45;&gt;Node9 -->
<g id="edge49_Node000033_Node000009" class="edge">
<title>Node33&#45;&gt;Node9</title>
<g id="a_edge49_Node000033_Node000009"><a xlink:title=" ">
<path fill="none" stroke="#63b8ff" d="M3053.79,-182.36C3104.91,-153.49 3196.94,-101.53 3234.01,-80.6"/>
<polygon fill="#63b8ff" stroke="#63b8ff" points="3052.14,-179.27 3045.16,-187.24 3055.59,-185.37 3052.14,-179.27"/>
</a>
</g>
</g>
<!-- Node33&#45;&gt;Node29 -->
<g id="edge48_Node000033_Node000029" class="edge">
<title>Node33&#45;&gt;Node29</title>
<g id="a_edge48_Node000033_Node000029"><a xlink:title=" ">
<path fill="none" stroke="#63b8ff" d="M3018.12,-176.59C3018.12,-166.01 3018.12,-154.5 3018.12,-146.82"/>
<polygon fill="#63b8ff" stroke="#63b8ff" points="3014.63,-176.35 3018.13,-186.35 3021.63,-176.35 3014.63,-176.35"/>
</a>
</g>
</g>
<!-- Node33&#45;&gt;Node34 -->
<g id="edge50_Node000033_Node000034" class="edge">
<title>Node33&#45;&gt;Node34</title>
<g id="a_edge50_Node000033_Node000034"><a xlink:title=" ">
<path fill="none" stroke="#63b8ff" d="M3085.74,-184.91C3132.79,-172.68 3193.59,-156.87 3231.21,-147.08"/>
<polygon fill="#63b8ff" stroke="#63b8ff" points="3084.97,-181.5 3076.18,-187.4 3086.73,-188.27 3084.97,-181.5"/>
</a>
</g>
</g>
<!-- Node36&#45;&gt;Node4 -->
<g id="edge55_Node000036_Node000004" class="edge">
<title>Node36&#45;&gt;Node4</title>
<g id="a_edge55_Node000036_Node000004"><a xlink:title=" ">
<path fill="none" stroke="#63b8ff" d="M2776.94,-123.49C2798.42,-116.05 2818.98,-104.3 2832.12,-85.75 2839.96,-74.69 2838.83,-67.03 2832.12,-55.25 2822.24,-37.86 2802.61,-26.54 2785.91,-19.65"/>
<polygon fill="#63b8ff" stroke="#63b8ff" points="2775.96,-120.12 2767.46,-126.44 2778.05,-126.81 2775.96,-120.12"/>
</a>
</g>
</g>
<!-- Node36&#45;&gt;Node12 -->
<g id="edge56_Node000036_Node000012" class="edge">
<title>Node36&#45;&gt;Node12</title>
<g id="a_edge56_Node000036_Node000012"><a xlink:title=" ">
<path fill="none" stroke="#63b8ff" d="M2618.89,-125.21C2611.21,-124.04 2603.5,-122.87 2596.12,-121.75 2489.04,-105.55 2462.17,-102.22 2355.12,-85.75 2344.49,-84.11 2333.16,-82.34 2322.25,-80.62"/>
<polygon fill="#63b8ff" stroke="#63b8ff" points="2618.18,-128.64 2628.6,-126.69 2619.24,-121.72 2618.18,-128.64"/>
</a>
</g>
</g>
<!-- Node36&#45;&gt;Node28 -->
<g id="edge54_Node000036_Node000028" class="edge">
<title>Node36&#45;&gt;Node28</title>
<g id="a_edge54_Node000036_Node000028"><a xlink:title=" ">
<path fill="none" stroke="#63b8ff" d="M2706.83,-119.2C2719.92,-106.79 2737.23,-90.37 2747.75,-80.39"/>
<polygon fill="#63b8ff" stroke="#63b8ff" points="2704.52,-116.57 2699.68,-125.99 2709.34,-121.65 2704.52,-116.57"/>
</a>
</g>
</g>
</g>
</svg>
