<?xml version="1.0" encoding="UTF-8" standalone="no"?>
<!DOCTYPE svg PUBLIC "-//W3C//DTD SVG 1.1//EN"
 "http://www.w3.org/Graphics/SVG/1.1/DTD/svg11.dtd">
<!-- Generated by graphviz version 12.2.1 (20241206.2353)
 -->
<!-- Title: include/ScreenManager.h Pages: 1 -->
<svg width="3096pt" height="94pt"
 viewBox="0.00 0.00 3095.75 93.75" xmlns="http://www.w3.org/2000/svg" xmlns:xlink="http://www.w3.org/1999/xlink">
<g id="graph0" class="graph" transform="scale(1 1) rotate(0) translate(4 89.75)">
<title>include/ScreenManager.h</title>
<!-- Node1 -->
<g id="Node000001" class="node">
<title>Node1</title>
<g id="a_Node000001"><a xlink:title="Declares the ScreenManager class responsible for UI screen control on the OLED display.">
<polygon fill="#999999" stroke="#666666" points="1515.12,-85.75 1389.62,-85.75 1389.62,-66.5 1515.12,-66.5 1515.12,-85.75"/>
<text text-anchor="middle" x="1452.38" y="-72.25" font-family="Helvetica,sans-Serif" font-size="10.00">include/ScreenManager.h</text>
</a>
</g>
</g>
<!-- Node2 -->
<g id="Node000002" class="node">
<title>Node2</title>
<g id="a_Node000002"><a xlink:href="_screen_manager_8cpp.html" target="_top" xlink:title="Implements the ScreenManager class for managing the OLED display and screen lifecycle.">
<polygon fill="white" stroke="#666666" points="118.75,-24.88 0,-24.88 0,-5.63 118.75,-5.63 118.75,-24.88"/>
<text text-anchor="middle" x="59.38" y="-11.38" font-family="Helvetica,sans-Serif" font-size="10.00">src/ScreenManager.cpp</text>
</a>
</g>
</g>
<!-- Node1&#45;&gt;Node2 -->
<g id="edge1_Node000001_Node000002" class="edge">
<title>Node1&#45;&gt;Node2</title>
<g id="a_edge1_Node000001_Node000002"><a xlink:title=" ">
<path fill="none" stroke="#63b8ff" d="M1377.71,-74.28C1135.47,-71.27 373.01,-59.67 128.38,-30.5 118.29,-29.3 107.5,-27.38 97.51,-25.33"/>
<polygon fill="#63b8ff" stroke="#63b8ff" points="1377.63,-77.78 1387.67,-74.4 1377.72,-70.78 1377.63,-77.78"/>
</a>
</g>
</g>
<!-- Node3 -->
<g id="Node000003" class="node">
<title>Node3</title>
<g id="a_Node000003"><a xlink:href="main_8cpp.html" target="_top" xlink:title="Entry point for the JMR800&#45;V2 firmware.">
<polygon fill="white" stroke="#666666" points="209.5,-24.88 137.25,-24.88 137.25,-5.63 209.5,-5.63 209.5,-24.88"/>
<text text-anchor="middle" x="173.38" y="-11.38" font-family="Helvetica,sans-Serif" font-size="10.00">src/main.cpp</text>
</a>
</g>
</g>
<!-- Node1&#45;&gt;Node3 -->
<g id="edge2_Node000001_Node000003" class="edge">
<title>Node1&#45;&gt;Node3</title>
<g id="a_edge2_Node000001_Node000003"><a xlink:title=" ">
<path fill="none" stroke="#63b8ff" d="M1377.96,-75.07C1146.78,-74.47 443.11,-69.4 218.38,-30.5 211.59,-29.33 204.42,-27.39 197.83,-25.31"/>
<polygon fill="#63b8ff" stroke="#63b8ff" points="1377.74,-78.56 1387.75,-75.09 1377.75,-71.56 1377.74,-78.56"/>
</a>
</g>
</g>
<!-- Node4 -->
<g id="Node000004" class="node">
<title>Node4</title>
<g id="a_Node000004"><a xlink:href="_config_mode_8cpp.html" target="_top" xlink:title="Implements the System Configuration Mode for knob setup.">
<polygon fill="white" stroke="#666666" points="363.38,-24.88 227.38,-24.88 227.38,-5.63 363.38,-5.63 363.38,-24.88"/>
<text text-anchor="middle" x="295.38" y="-11.38" font-family="Helvetica,sans-Serif" font-size="10.00">src/modes/ConfigMode.cpp</text>
</a>
</g>
</g>
<!-- Node1&#45;&gt;Node4 -->
<g id="edge3_Node000001_Node000004" class="edge">
<title>Node1&#45;&gt;Node4</title>
<g id="a_edge3_Node000001_Node000004"><a xlink:title=" ">
<path fill="none" stroke="#63b8ff" d="M1377.71,-75.67C1201.9,-76.17 748.31,-72.84 372.38,-30.5 361.3,-29.25 349.42,-27.34 338.38,-25.32"/>
<polygon fill="#63b8ff" stroke="#63b8ff" points="1377.64,-79.17 1387.62,-75.64 1377.61,-72.17 1377.64,-79.17"/>
</a>
</g>
</g>
<!-- Node5 -->
<g id="Node000005" class="node">
<title>Node5</title>
<g id="a_Node000005"><a xlink:href="_controls_test_mode_8cpp.html" target="_top" xlink:title="Implements the Controls Test Mode for button interaction diagnostics.">
<polygon fill="white" stroke="#666666" points="544.88,-24.88 381.88,-24.88 381.88,-5.63 544.88,-5.63 544.88,-24.88"/>
<text text-anchor="middle" x="463.38" y="-11.38" font-family="Helvetica,sans-Serif" font-size="10.00">src/modes/ControlsTestMode.cpp</text>
</a>
</g>
</g>
<!-- Node1&#45;&gt;Node5 -->
<g id="edge4_Node000001_Node000005" class="edge">
<title>Node1&#45;&gt;Node5</title>
<g id="a_edge4_Node000001_Node000005"><a xlink:title=" ">
<path fill="none" stroke="#63b8ff" d="M1378.17,-74.09C1224.23,-71.35 859.05,-61.84 554.38,-30.5 541.65,-29.19 527.99,-27.31 515.22,-25.34"/>
<polygon fill="#63b8ff" stroke="#63b8ff" points="1377.76,-77.58 1387.82,-74.25 1377.88,-70.58 1377.76,-77.58"/>
</a>
</g>
</g>
<!-- Node6 -->
<g id="Node000006" class="node">
<title>Node6</title>
<g id="a_Node000006"><a xlink:href="_direct_command_mode_8cpp.html" target="_top" xlink:title="Implements behavior for Direct Command Mode.">
<polygon fill="white" stroke="#666666" points="741.75,-24.88 563,-24.88 563,-5.63 741.75,-5.63 741.75,-24.88"/>
<text text-anchor="middle" x="652.38" y="-11.38" font-family="Helvetica,sans-Serif" font-size="10.00">src/modes/DirectCommandMode.cpp</text>
</a>
</g>
</g>
<!-- Node1&#45;&gt;Node6 -->
<g id="edge5_Node000001_Node000006" class="edge">
<title>Node1&#45;&gt;Node6</title>
<g id="a_edge5_Node000001_Node000006"><a xlink:title=" ">
<path fill="none" stroke="#63b8ff" d="M1378.08,-72.38C1249.79,-67.2 978.52,-54.3 750.38,-30.5 737.12,-29.12 722.91,-27.27 709.54,-25.36"/>
<polygon fill="#63b8ff" stroke="#63b8ff" points="1377.66,-75.87 1387.79,-72.77 1377.94,-68.87 1377.66,-75.87"/>
</a>
</g>
</g>
<!-- Node7 -->
<g id="Node000007" class="node">
<title>Node7</title>
<g id="a_Node000007"><a xlink:href="_run_mode_8cpp.html" target="_top" xlink:title="Implements the behavior of the Run Mode application state.">
<polygon fill="white" stroke="#666666" points="885.12,-24.88 759.62,-24.88 759.62,-5.63 885.12,-5.63 885.12,-24.88"/>
<text text-anchor="middle" x="822.38" y="-11.38" font-family="Helvetica,sans-Serif" font-size="10.00">src/modes/RunMode.cpp</text>
</a>
</g>
</g>
<!-- Node1&#45;&gt;Node7 -->
<g id="edge6_Node000001_Node000007" class="edge">
<title>Node1&#45;&gt;Node7</title>
<g id="a_edge6_Node000001_Node000007"><a xlink:title=" ">
<path fill="none" stroke="#63b8ff" d="M1378.03,-71.92C1270.79,-66.67 1066.67,-54.36 894.38,-30.5 884.53,-29.14 874,-27.28 864.12,-25.36"/>
<polygon fill="#63b8ff" stroke="#63b8ff" points="1377.69,-75.4 1387.84,-72.39 1378.02,-68.41 1377.69,-75.4"/>
</a>
</g>
</g>
<!-- Node8 -->
<g id="Node000008" class="node">
<title>Node8</title>
<g id="a_Node000008"><a xlink:href="_config_screen_8cpp.html" target="_top" xlink:title="Implements the configuration screen for knob mapping and diagnostics.">
<polygon fill="white" stroke="#666666" points="1051.38,-24.88 903.38,-24.88 903.38,-5.63 1051.38,-5.63 1051.38,-24.88"/>
<text text-anchor="middle" x="977.38" y="-11.38" font-family="Helvetica,sans-Serif" font-size="10.00">src/screens/ConfigScreen.cpp</text>
</a>
</g>
</g>
<!-- Node1&#45;&gt;Node8 -->
<g id="edge7_Node000001_Node000008" class="edge">
<title>Node1&#45;&gt;Node8</title>
<g id="a_edge7_Node000001_Node000008"><a xlink:title=" ">
<path fill="none" stroke="#63b8ff" d="M1378.15,-67.94C1299.2,-60 1170.73,-46.24 1060.38,-30.5 1049.81,-28.99 1038.52,-27.19 1027.78,-25.37"/>
<polygon fill="#63b8ff" stroke="#63b8ff" points="1377.63,-71.41 1387.93,-68.92 1378.33,-64.44 1377.63,-71.41"/>
</a>
</g>
</g>
<!-- Node9 -->
<g id="Node000009" class="node">
<title>Node9</title>
<g id="a_Node000009"><a xlink:href="_controls_test_screen_8cpp.html" target="_top" xlink:title="Implements a screen for testing all physical controls: knobs, buttons, and encoder.">
<polygon fill="white" stroke="#666666" points="1195.12,-30.5 1069.62,-30.5 1069.62,0 1195.12,0 1195.12,-30.5"/>
<text text-anchor="start" x="1077.62" y="-17" font-family="Helvetica,sans-Serif" font-size="10.00">src/screens/ControlsTest</text>
<text text-anchor="middle" x="1132.38" y="-5.75" font-family="Helvetica,sans-Serif" font-size="10.00">Screen.cpp</text>
</a>
</g>
</g>
<!-- Node1&#45;&gt;Node9 -->
<g id="edge8_Node000001_Node000009" class="edge">
<title>Node1&#45;&gt;Node9</title>
<g id="a_edge8_Node000001_Node000009"><a xlink:title=" ">
<path fill="none" stroke="#63b8ff" d="M1388.82,-64.11C1338.46,-55.29 1266.35,-42.46 1203.38,-30.5 1200.78,-30.01 1198.14,-29.5 1195.46,-28.98"/>
<polygon fill="#63b8ff" stroke="#63b8ff" points="1387.91,-67.5 1398.36,-65.78 1389.11,-60.61 1387.91,-67.5"/>
</a>
</g>
</g>
<!-- Node10 -->
<g id="Node000010" class="node">
<title>Node10</title>
<g id="a_Node000010"><a xlink:href="_direct_command_screen_8cpp.html" target="_top" xlink:title="Implements a screen for sending raw parameter/value commands to the synthesizer.">
<polygon fill="white" stroke="#666666" points="1354,-30.5 1212.75,-30.5 1212.75,0 1354,0 1354,-30.5"/>
<text text-anchor="start" x="1220.75" y="-17" font-family="Helvetica,sans-Serif" font-size="10.00">src/screens/DirectCommand</text>
<text text-anchor="middle" x="1283.38" y="-5.75" font-family="Helvetica,sans-Serif" font-size="10.00">Screen.cpp</text>
</a>
</g>
</g>
<!-- Node1&#45;&gt;Node10 -->
<g id="edge9_Node000001_Node000010" class="edge">
<title>Node1&#45;&gt;Node10</title>
<g id="a_edge9_Node000001_Node000010"><a xlink:title=" ">
<path fill="none" stroke="#63b8ff" d="M1415.6,-62.31C1389.08,-53.07 1353.23,-40.59 1325.56,-30.94"/>
<polygon fill="#63b8ff" stroke="#63b8ff" points="1414.32,-65.57 1424.91,-65.56 1416.62,-58.96 1414.32,-65.57"/>
</a>
</g>
</g>
<!-- Node11 -->
<g id="Node000011" class="node">
<title>Node11</title>
<g id="a_Node000011"><a xlink:href="_run_mode_screen_8cpp.html" target="_top" xlink:title="Implements the screen for displaying and managing widgets during normal controller operation.">
<polygon fill="white" stroke="#666666" points="1533.12,-24.88 1371.62,-24.88 1371.62,-5.63 1533.12,-5.63 1533.12,-24.88"/>
<text text-anchor="middle" x="1452.38" y="-11.38" font-family="Helvetica,sans-Serif" font-size="10.00">src/screens/RunModeScreen.cpp</text>
</a>
</g>
</g>
<!-- Node1&#45;&gt;Node11 -->
<g id="edge10_Node000001_Node000011" class="edge">
<title>Node1&#45;&gt;Node11</title>
<g id="a_edge10_Node000001_Node000011"><a xlink:title=" ">
<path fill="none" stroke="#63b8ff" d="M1452.38,-54.7C1452.38,-44.67 1452.38,-33.08 1452.38,-25.28"/>
<polygon fill="#63b8ff" stroke="#63b8ff" points="1448.88,-54.67 1452.38,-64.67 1455.88,-54.67 1448.88,-54.67"/>
</a>
</g>
</g>
<!-- Node12 -->
<g id="Node000012" class="node">
<title>Node12</title>
<g id="a_Node000012"><a xlink:href="_button_widget_8cpp.html" target="_top" xlink:title="Implements the ButtonWidget class, representing a physical button with LED indicators.">
<polygon fill="white" stroke="#666666" points="1698,-24.88 1550.75,-24.88 1550.75,-5.63 1698,-5.63 1698,-24.88"/>
<text text-anchor="middle" x="1624.38" y="-11.38" font-family="Helvetica,sans-Serif" font-size="10.00">src/widgets/ButtonWidget.cpp</text>
</a>
</g>
</g>
<!-- Node1&#45;&gt;Node12 -->
<g id="edge11_Node000001_Node000012" class="edge">
<title>Node1&#45;&gt;Node12</title>
<g id="a_edge11_Node000001_Node000012"><a xlink:title=" ">
<path fill="none" stroke="#63b8ff" d="M1489.36,-62.47C1522,-51.29 1568.8,-35.27 1597.85,-25.33"/>
<polygon fill="#63b8ff" stroke="#63b8ff" points="1488.63,-59.01 1480.31,-65.56 1490.9,-65.64 1488.63,-59.01"/>
</a>
</g>
</g>
<!-- Node13 -->
<g id="Node000013" class="node">
<title>Node13</title>
<g id="a_Node000013"><a xlink:href="_encoder_attached_numeric_widget_8cpp.html" target="_top" xlink:title="UI widget displaying and controlling a numeric value using an encoder.">
<polygon fill="white" stroke="#666666" points="1860.5,-30.5 1716.25,-30.5 1716.25,0 1860.5,0 1860.5,-30.5"/>
<text text-anchor="start" x="1724.25" y="-17" font-family="Helvetica,sans-Serif" font-size="10.00">src/widgets/EncoderAttached</text>
<text text-anchor="middle" x="1788.38" y="-5.75" font-family="Helvetica,sans-Serif" font-size="10.00">NumericWidget.cpp</text>
</a>
</g>
</g>
<!-- Node1&#45;&gt;Node13 -->
<g id="edge12_Node000001_Node000013" class="edge">
<title>Node1&#45;&gt;Node13</title>
<g id="a_edge12_Node000001_Node000013"><a xlink:title=" ">
<path fill="none" stroke="#63b8ff" d="M1515.44,-64.1C1567.05,-55.08 1641.94,-41.98 1707.38,-30.5 1710.19,-30.01 1713.06,-29.5 1715.95,-28.99"/>
<polygon fill="#63b8ff" stroke="#63b8ff" points="1514.89,-60.65 1505.64,-65.82 1516.09,-67.54 1514.89,-60.65"/>
</a>
</g>
</g>
<!-- Node14 -->
<g id="Node000014" class="node">
<title>Node14</title>
<g id="a_Node000014"><a xlink:href="_encoder_knob_widget_8cpp.html" target="_top" xlink:title="Implements a UI widget that visually represents the encoder knob and its pressed state.">
<polygon fill="white" stroke="#666666" points="2056,-24.88 1878.75,-24.88 1878.75,-5.63 2056,-5.63 2056,-24.88"/>
<text text-anchor="middle" x="1967.38" y="-11.38" font-family="Helvetica,sans-Serif" font-size="10.00">src/widgets/EncoderKnobWidget.cpp</text>
</a>
</g>
</g>
<!-- Node1&#45;&gt;Node14 -->
<g id="edge13_Node000001_Node000014" class="edge">
<title>Node1&#45;&gt;Node14</title>
<g id="a_edge13_Node000001_Node000014"><a xlink:title=" ">
<path fill="none" stroke="#63b8ff" d="M1526.74,-68.02C1610.22,-59.85 1749.67,-45.6 1869.38,-30.5 1881.66,-28.95 1894.78,-27.15 1907.3,-25.35"/>
<polygon fill="#63b8ff" stroke="#63b8ff" points="1526.46,-64.53 1516.84,-68.99 1527.14,-71.5 1526.46,-64.53"/>
</a>
</g>
</g>
<!-- Node15 -->
<g id="Node000015" class="node">
<title>Node15</title>
<g id="a_Node000015"><a xlink:href="_knob_widget_8cpp.html" target="_top" xlink:title="Defines the base class for knob&#45;based widgets, providing shared bezel drawing behavior.">
<polygon fill="white" stroke="#666666" points="2215,-24.88 2073.75,-24.88 2073.75,-5.63 2215,-5.63 2215,-24.88"/>
<text text-anchor="middle" x="2144.38" y="-11.38" font-family="Helvetica,sans-Serif" font-size="10.00">src/widgets/KnobWidget.cpp</text>
</a>
</g>
</g>
<!-- Node1&#45;&gt;Node15 -->
<g id="edge14_Node000001_Node000015" class="edge">
<title>Node1&#45;&gt;Node15</title>
<g id="a_edge14_Node000001_Node000015"><a xlink:title=" ">
<path fill="none" stroke="#63b8ff" d="M1526.75,-72.25C1642.33,-67.21 1871.93,-54.92 2065.38,-30.5 2076.16,-29.14 2087.71,-27.28 2098.55,-25.36"/>
<polygon fill="#63b8ff" stroke="#63b8ff" points="1526.6,-68.75 1516.76,-72.68 1526.9,-75.75 1526.6,-68.75"/>
</a>
</g>
</g>
<!-- Node16 -->
<g id="Node000016" class="node">
<title>Node16</title>
<g id="a_Node000016"><a xlink:href="_potentiometer_knob_widget_8cpp.html" target="_top" xlink:title="Implements the PotentiometerKnobWidget class, which visualizes a physical knob&#39;s current state.">
<polygon fill="white" stroke="#666666" points="2363.38,-30.5 2233.38,-30.5 2233.38,0 2363.38,0 2363.38,-30.5"/>
<text text-anchor="start" x="2241.38" y="-17" font-family="Helvetica,sans-Serif" font-size="10.00">src/widgets/Potentiometer</text>
<text text-anchor="middle" x="2298.38" y="-5.75" font-family="Helvetica,sans-Serif" font-size="10.00">KnobWidget.cpp</text>
</a>
</g>
</g>
<!-- Node1&#45;&gt;Node16 -->
<g id="edge15_Node000001_Node000016" class="edge">
<title>Node1&#45;&gt;Node16</title>
<g id="a_edge15_Node000001_Node000016"><a xlink:title=" ">
<path fill="none" stroke="#63b8ff" d="M1526.66,-74.1C1664.63,-71.47 1969.59,-62.25 2224.38,-30.5 2227.23,-30.14 2230.14,-29.74 2233.08,-29.31"/>
<polygon fill="#63b8ff" stroke="#63b8ff" points="1526.87,-70.59 1516.94,-74.28 1527,-77.59 1526.87,-70.59"/>
</a>
</g>
</g>
<!-- Node17 -->
<g id="Node000017" class="node">
<title>Node17</title>
<g id="a_Node000017"><a xlink:href="_push_button_widget_8cpp.html" target="_top" xlink:title="Implements the PushButtonWidget class, which represents a UI button with encoder interaction support.">
<polygon fill="white" stroke="#666666" points="2551.25,-24.88 2381.5,-24.88 2381.5,-5.63 2551.25,-5.63 2551.25,-24.88"/>
<text text-anchor="middle" x="2466.38" y="-11.38" font-family="Helvetica,sans-Serif" font-size="10.00">src/widgets/PushButtonWidget.cpp</text>
</a>
</g>
</g>
<!-- Node1&#45;&gt;Node17 -->
<g id="edge16_Node000001_Node000017" class="edge">
<title>Node1&#45;&gt;Node17</title>
<g id="a_edge16_Node000001_Node000017"><a xlink:title=" ">
<path fill="none" stroke="#63b8ff" d="M1526.92,-74.08C1683.75,-71.33 2059.19,-61.75 2372.38,-30.5 2385.51,-29.19 2399.62,-27.31 2412.81,-25.34"/>
<polygon fill="#63b8ff" stroke="#63b8ff" points="1527.01,-70.58 1517.07,-74.25 1527.13,-77.58 1527.01,-70.58"/>
</a>
</g>
</g>
<!-- Node18 -->
<g id="Node000018" class="node">
<title>Node18</title>
<g id="a_Node000018"><a xlink:href="_rectangle_widget_8cpp.html" target="_top" xlink:title="Implements the RectangleWidget class for drawing rectangular shapes with optional fill and highlight ...">
<polygon fill="white" stroke="#666666" points="2731.88,-24.88 2568.88,-24.88 2568.88,-5.63 2731.88,-5.63 2731.88,-24.88"/>
<text text-anchor="middle" x="2650.38" y="-11.38" font-family="Helvetica,sans-Serif" font-size="10.00">src/widgets/RectangleWidget.cpp</text>
</a>
</g>
</g>
<!-- Node1&#45;&gt;Node18 -->
<g id="edge17_Node000001_Node000018" class="edge">
<title>Node1&#45;&gt;Node18</title>
<g id="a_edge17_Node000001_Node000018"><a xlink:title=" ">
<path fill="none" stroke="#63b8ff" d="M1526.68,-75.12C1705.26,-74.47 2172.56,-68.88 2560.38,-30.5 2573.13,-29.24 2586.82,-27.35 2599.58,-25.35"/>
<polygon fill="#63b8ff" stroke="#63b8ff" points="1526.84,-71.62 1516.85,-75.15 1526.86,-78.62 1526.84,-71.62"/>
</a>
</g>
</g>
<!-- Node19 -->
<g id="Node000019" class="node">
<title>Node19</title>
<g id="a_Node000019"><a xlink:href="_text_input_widget_8cpp.html" target="_top" xlink:title="Implements the TextInputWidget class, allowing user&#45;editable text display with cursor navigation.">
<polygon fill="white" stroke="#666666" points="2909,-24.88 2749.75,-24.88 2749.75,-5.63 2909,-5.63 2909,-24.88"/>
<text text-anchor="middle" x="2829.38" y="-11.38" font-family="Helvetica,sans-Serif" font-size="10.00">src/widgets/TextInputWidget.cpp</text>
</a>
</g>
</g>
<!-- Node1&#45;&gt;Node19 -->
<g id="edge18_Node000001_Node000019" class="edge">
<title>Node1&#45;&gt;Node19</title>
<g id="a_edge18_Node000001_Node000019"><a xlink:title=" ">
<path fill="none" stroke="#63b8ff" d="M1527.02,-75.82C1725.3,-76.95 2281.43,-75.52 2741.38,-30.5 2754.01,-29.26 2767.57,-27.36 2780.18,-25.34"/>
<polygon fill="#63b8ff" stroke="#63b8ff" points="1527.14,-72.32 1517.11,-75.76 1527.09,-79.32 1527.14,-72.32"/>
</a>
</g>
</g>
<!-- Node20 -->
<g id="Node000020" class="node">
<title>Node20</title>
<g id="a_Node000020"><a xlink:href="_text_label_widget_8cpp.html" target="_top" xlink:title="Implements the TextLabelWidget class for displaying static text labels in the UI.">
<polygon fill="white" stroke="#666666" points="3087.75,-24.88 2927,-24.88 2927,-5.63 3087.75,-5.63 3087.75,-24.88"/>
<text text-anchor="middle" x="3007.38" y="-11.38" font-family="Helvetica,sans-Serif" font-size="10.00">src/widgets/TextLabelWidget.cpp</text>
</a>
</g>
</g>
<!-- Node1&#45;&gt;Node20 -->
<g id="edge19_Node000001_Node000020" class="edge">
<title>Node1&#45;&gt;Node20</title>
<g id="a_edge19_Node000001_Node000020"><a xlink:title=" ">
<path fill="none" stroke="#63b8ff" d="M1526.98,-74.12C1785.8,-70.44 2644.07,-56.53 2918.38,-30.5 2931.15,-29.29 2944.87,-27.39 2957.62,-25.37"/>
<polygon fill="#63b8ff" stroke="#63b8ff" points="1526.94,-70.62 1516.99,-74.26 1527.04,-77.62 1526.94,-70.62"/>
</a>
</g>
</g>
</g>
</svg>
