<?xml version="1.0" encoding="UTF-8" standalone="no"?>
<!DOCTYPE svg PUBLIC "-//W3C//DTD SVG 1.1//EN"
 "http://www.w3.org/Graphics/SVG/1.1/DTD/svg11.dtd">
<!-- Generated by graphviz version 12.2.1 (20241206.2353)
 -->
<!-- Title: include/screens/SharedControlScreenUtility.h Pages: 1 -->
<svg width="883pt" height="216pt"
 viewBox="0.00 0.00 883.38 215.50" xmlns="http://www.w3.org/2000/svg" xmlns:xlink="http://www.w3.org/1999/xlink">
<g id="graph0" class="graph" transform="scale(1 1) rotate(0) translate(4 211.5)">
<title>include/screens/SharedControlScreenUtility.h</title>
<!-- Node1 -->
<g id="Node000001" class="node">
<title>Node1</title>
<g id="a_Node000001"><a xlink:title="Provides utility functions for initializing common screen layouts.">
<polygon fill="#999999" stroke="#666666" points="373.25,-207.5 223.75,-207.5 223.75,-177 373.25,-177 373.25,-207.5"/>
<text text-anchor="start" x="231.75" y="-194" font-family="Helvetica,sans-Serif" font-size="10.00">include/screens/SharedControl</text>
<text text-anchor="middle" x="298.5" y="-182.75" font-family="Helvetica,sans-Serif" font-size="10.00">ScreenUtility.h</text>
</a>
</g>
</g>
<!-- Node2 -->
<g id="Node000002" class="node">
<title>Node2</title>
<g id="a_Node000002"><a xlink:title=" ">
<polygon fill="#e0e0e0" stroke="#999999" points="43,-135.38 0,-135.38 0,-116.12 43,-116.12 43,-135.38"/>
<text text-anchor="middle" x="21.5" y="-121.88" font-family="Helvetica,sans-Serif" font-size="10.00">vector</text>
</a>
</g>
</g>
<!-- Node1&#45;&gt;Node2 -->
<g id="edge1_Node000001_Node000002" class="edge">
<title>Node1&#45;&gt;Node2</title>
<g id="a_edge1_Node000001_Node000002"><a xlink:title=" ">
<path fill="none" stroke="#63b8ff" d="M223.31,-179C175.35,-170.34 112.16,-157.38 57.5,-141 56.12,-140.59 54.73,-140.14 53.32,-139.68"/>
<polygon fill="#63b8ff" stroke="#63b8ff" points="54.63,-136.43 44.03,-136.32 52.24,-143.01 54.63,-136.43"/>
</a>
</g>
</g>
<!-- Node3 -->
<g id="Node000003" class="node">
<title>Node3</title>
<g id="a_Node000003"><a xlink:href="_widget_8h.html" target="_top" xlink:title="Abstract base class for UI widgets in the JMR800&#45;V2 OLED interface.">
<polygon fill="white" stroke="#666666" points="251.38,-19.25 159.62,-19.25 159.62,0 251.38,0 251.38,-19.25"/>
<text text-anchor="middle" x="205.5" y="-5.75" font-family="Helvetica,sans-Serif" font-size="10.00">widgets/Widget.h</text>
</a>
</g>
</g>
<!-- Node1&#45;&gt;Node3 -->
<g id="edge2_Node000001_Node000003" class="edge">
<title>Node1&#45;&gt;Node3</title>
<g id="a_edge2_Node000001_Node000003"><a xlink:title=" ">
<path fill="none" stroke="#63b8ff" d="M223.47,-182.39C194.49,-175.44 163.16,-163.05 141.5,-141 114.07,-113.09 101.34,-88.79 121.5,-55.25 130.21,-40.76 145.39,-30.72 160.47,-23.89"/>
<polygon fill="#63b8ff" stroke="#63b8ff" points="161.48,-27.26 169.41,-20.24 158.83,-20.78 161.48,-27.26"/>
</a>
</g>
</g>
<!-- Node4 -->
<g id="Node000004" class="node">
<title>Node4</title>
<g id="a_Node000004"><a xlink:href="_text_label_widget_8h.html" target="_top" xlink:title="Displays static or dynamic text labels on the OLED UI.">
<polygon fill="white" stroke="#666666" points="293.38,-135.38 159.62,-135.38 159.62,-116.12 293.38,-116.12 293.38,-135.38"/>
<text text-anchor="middle" x="226.5" y="-121.88" font-family="Helvetica,sans-Serif" font-size="10.00">widgets/TextLabelWidget.h</text>
</a>
</g>
</g>
<!-- Node1&#45;&gt;Node4 -->
<g id="edge3_Node000001_Node000004" class="edge">
<title>Node1&#45;&gt;Node4</title>
<g id="a_edge3_Node000001_Node000004"><a xlink:title=" ">
<path fill="none" stroke="#63b8ff" d="M282.16,-176.61C271.03,-166.64 256.28,-153.43 244.76,-143.11"/>
<polygon fill="#63b8ff" stroke="#63b8ff" points="247.26,-140.65 237.48,-136.58 242.59,-145.86 247.26,-140.65"/>
</a>
</g>
</g>
<!-- Node7 -->
<g id="Node000007" class="node">
<title>Node7</title>
<g id="a_Node000007"><a xlink:href="_rectangle_widget_8h.html" target="_top" xlink:title="Displays a static rectangle, optionally filled, as part of the OLED UI.">
<polygon fill="white" stroke="#666666" points="273.5,-74.5 137.5,-74.5 137.5,-55.25 273.5,-55.25 273.5,-74.5"/>
<text text-anchor="middle" x="205.5" y="-61" font-family="Helvetica,sans-Serif" font-size="10.00">widgets/RectangleWidget.h</text>
</a>
</g>
</g>
<!-- Node1&#45;&gt;Node7 -->
<g id="edge7_Node000001_Node000007" class="edge">
<title>Node1&#45;&gt;Node7</title>
<g id="a_edge7_Node000001_Node000007"><a xlink:title=" ">
<path fill="none" stroke="#63b8ff" d="M223.25,-183.89C195.77,-177.13 167.33,-164.49 150.5,-141 142.6,-129.98 144.67,-122.74 150.5,-110.5 156.33,-98.26 167.34,-88.29 177.99,-80.9"/>
<polygon fill="#63b8ff" stroke="#63b8ff" points="179.66,-83.98 186.23,-75.66 175.91,-78.07 179.66,-83.98"/>
</a>
</g>
</g>
<!-- Node8 -->
<g id="Node000008" class="node">
<title>Node8</title>
<g id="a_Node000008"><a xlink:href="_potentiometer_knob_widget_8h.html" target="_top" xlink:title="Visual representation of a physical potentiometer for the OLED UI.">
<polygon fill="white" stroke="#666666" points="585.5,-141 449.5,-141 449.5,-110.5 585.5,-110.5 585.5,-141"/>
<text text-anchor="start" x="457.5" y="-127.5" font-family="Helvetica,sans-Serif" font-size="10.00">widgets/PotentiometerKnob</text>
<text text-anchor="middle" x="517.5" y="-116.25" font-family="Helvetica,sans-Serif" font-size="10.00">Widget.h</text>
</a>
</g>
</g>
<!-- Node1&#45;&gt;Node8 -->
<g id="edge10_Node000001_Node000008" class="edge">
<title>Node1&#45;&gt;Node8</title>
<g id="a_edge10_Node000001_Node000008"><a xlink:title=" ">
<path fill="none" stroke="#63b8ff" d="M348.47,-176.53C380.71,-167.04 422.83,-154.63 456.97,-144.58"/>
<polygon fill="#63b8ff" stroke="#63b8ff" points="457.69,-148.01 466.29,-141.83 455.71,-141.3 457.69,-148.01"/>
</a>
</g>
</g>
<!-- Node10 -->
<g id="Node000010" class="node">
<title>Node10</title>
<g id="a_Node000010"><a xlink:href="_encoder_knob_widget_8h.html" target="_top" xlink:title="Represents a virtual knob controlled by an encoder input.">
<polygon fill="white" stroke="#666666" points="753.62,-135.38 603.38,-135.38 603.38,-116.12 753.62,-116.12 753.62,-135.38"/>
<text text-anchor="middle" x="678.5" y="-121.88" font-family="Helvetica,sans-Serif" font-size="10.00">widgets/EncoderKnobWidget.h</text>
</a>
</g>
</g>
<!-- Node1&#45;&gt;Node10 -->
<g id="edge16_Node000001_Node000010" class="edge">
<title>Node1&#45;&gt;Node10</title>
<g id="a_edge16_Node000001_Node000010"><a xlink:title=" ">
<path fill="none" stroke="#63b8ff" d="M373.58,-178.51C443.71,-166.6 547.3,-149.02 613.85,-137.72"/>
<polygon fill="#63b8ff" stroke="#63b8ff" points="614.25,-141.21 623.52,-136.08 613.08,-134.3 614.25,-141.21"/>
</a>
</g>
</g>
<!-- Node11 -->
<g id="Node000011" class="node">
<title>Node11</title>
<g id="a_Node000011"><a xlink:href="_button_widget_8h.html" target="_top" xlink:title="Represents an on&#45;screen button widget with LED state indicators.">
<polygon fill="white" stroke="#666666" points="431.62,-135.38 311.38,-135.38 311.38,-116.12 431.62,-116.12 431.62,-135.38"/>
<text text-anchor="middle" x="371.5" y="-121.88" font-family="Helvetica,sans-Serif" font-size="10.00">widgets/ButtonWidget.h</text>
</a>
</g>
</g>
<!-- Node1&#45;&gt;Node11 -->
<g id="edge20_Node000001_Node000011" class="edge">
<title>Node1&#45;&gt;Node11</title>
<g id="a_edge20_Node000001_Node000011"><a xlink:title=" ">
<path fill="none" stroke="#63b8ff" d="M315.06,-176.61C326.35,-166.64 341.3,-153.43 352.98,-143.11"/>
<polygon fill="#63b8ff" stroke="#63b8ff" points="355.2,-145.82 360.38,-136.57 350.57,-140.57 355.2,-145.82"/>
</a>
</g>
</g>
<!-- Node12 -->
<g id="Node000012" class="node">
<title>Node12</title>
<g id="a_Node000012"><a xlink:href="_logging_8h.html" target="_top" xlink:title="Lightweight logging utility for serial output in the JMR800&#45;V2 project.">
<polygon fill="white" stroke="#666666" points="829.5,-135.38 771.5,-135.38 771.5,-116.12 829.5,-116.12 829.5,-135.38"/>
<text text-anchor="middle" x="800.5" y="-121.88" font-family="Helvetica,sans-Serif" font-size="10.00">Logging.h</text>
</a>
</g>
</g>
<!-- Node1&#45;&gt;Node12 -->
<g id="edge24_Node000001_Node000012" class="edge">
<title>Node1&#45;&gt;Node12</title>
<g id="a_edge24_Node000001_Node000012"><a xlink:title=" ">
<path fill="none" stroke="#63b8ff" d="M373.41,-188.9C465.96,-184.69 627.7,-173.04 762.5,-141 764.39,-140.55 766.3,-140.04 768.23,-139.47"/>
<polygon fill="#63b8ff" stroke="#63b8ff" points="769.28,-142.81 777.65,-136.33 767.06,-136.17 769.28,-142.81"/>
</a>
</g>
</g>
<!-- Node4&#45;&gt;Node3 -->
<g id="edge4_Node000004_Node000003" class="edge">
<title>Node4&#45;&gt;Node3</title>
<g id="a_edge4_Node000004_Node000003"><a xlink:title=" ">
<path fill="none" stroke="#63b8ff" d="M188.07,-115.63C166.53,-108.34 141.46,-95.71 128.5,-74.5 115.33,-52.94 141.98,-35.26 167.46,-24.01"/>
<polygon fill="#63b8ff" stroke="#63b8ff" points="168.51,-27.36 176.42,-20.31 165.84,-20.89 168.51,-27.36"/>
</a>
</g>
</g>
<!-- Node5 -->
<g id="Node000005" class="node">
<title>Node5</title>
<g id="a_Node000005"><a xlink:title=" ">
<polygon fill="#e0e0e0" stroke="#999999" points="489.25,-74.5 405.75,-74.5 405.75,-55.25 489.25,-55.25 489.25,-74.5"/>
<text text-anchor="middle" x="447.5" y="-61" font-family="Helvetica,sans-Serif" font-size="10.00">Adafruit_GFX.h</text>
</a>
</g>
</g>
<!-- Node4&#45;&gt;Node5 -->
<g id="edge5_Node000004_Node000005" class="edge">
<title>Node4&#45;&gt;Node5</title>
<g id="a_edge5_Node000004_Node000005"><a xlink:title=" ">
<path fill="none" stroke="#63b8ff" d="M260.55,-115.68C298.59,-105.55 360.34,-89.09 402.38,-77.89"/>
<polygon fill="#63b8ff" stroke="#63b8ff" points="403.19,-81.3 411.95,-75.35 401.39,-74.54 403.19,-81.3"/>
</a>
</g>
</g>
<!-- Node6 -->
<g id="Node000006" class="node">
<title>Node6</title>
<g id="a_Node000006"><a xlink:title=" ">
<polygon fill="#e0e0e0" stroke="#999999" points="497.5,-19.25 397.5,-19.25 397.5,0 497.5,0 497.5,-19.25"/>
<text text-anchor="middle" x="447.5" y="-5.75" font-family="Helvetica,sans-Serif" font-size="10.00">Adafruit_SH110X.h</text>
</a>
</g>
</g>
<!-- Node4&#45;&gt;Node6 -->
<g id="edge6_Node000004_Node000006" class="edge">
<title>Node4&#45;&gt;Node6</title>
<g id="a_edge6_Node000004_Node000006"><a xlink:title=" ">
<path fill="none" stroke="#63b8ff" d="M243.84,-115.79C281.99,-96.09 373.48,-48.85 419.73,-24.96"/>
<polygon fill="#63b8ff" stroke="#63b8ff" points="421.31,-28.09 428.59,-20.39 418.1,-21.87 421.31,-28.09"/>
</a>
</g>
</g>
<!-- Node7&#45;&gt;Node3 -->
<g id="edge8_Node000007_Node000003" class="edge">
<title>Node7&#45;&gt;Node3</title>
<g id="a_edge8_Node000007_Node000003"><a xlink:title=" ">
<path fill="none" stroke="#63b8ff" d="M205.5,-55.08C205.5,-48.57 205.5,-39.42 205.5,-31.12"/>
<polygon fill="#63b8ff" stroke="#63b8ff" points="209,-31.12 205.5,-21.12 202,-31.12 209,-31.12"/>
</a>
</g>
</g>
<!-- Node7&#45;&gt;Node6 -->
<g id="edge9_Node000007_Node000006" class="edge">
<title>Node7&#45;&gt;Node6</title>
<g id="a_edge9_Node000007_Node000006"><a xlink:title=" ">
<path fill="none" stroke="#63b8ff" d="M246.83,-54.78C287.81,-45.76 350.74,-31.92 395.18,-22.14"/>
<polygon fill="#63b8ff" stroke="#63b8ff" points="395.85,-25.57 404.87,-20.01 394.35,-18.74 395.85,-25.57"/>
</a>
</g>
</g>
<!-- Node8&#45;&gt;Node5 -->
<g id="edge14_Node000008_Node000005" class="edge">
<title>Node8&#45;&gt;Node5</title>
<g id="a_edge14_Node000008_Node000005"><a xlink:title=" ">
<path fill="none" stroke="#63b8ff" d="M500.2,-110.2C490.15,-101.75 477.47,-91.08 467.07,-82.33"/>
<polygon fill="#63b8ff" stroke="#63b8ff" points="469.36,-79.68 459.45,-75.93 464.85,-85.04 469.36,-79.68"/>
</a>
</g>
</g>
<!-- Node8&#45;&gt;Node6 -->
<g id="edge15_Node000008_Node000006" class="edge">
<title>Node8&#45;&gt;Node6</title>
<g id="a_edge15_Node000008_Node000006"><a xlink:title=" ">
<path fill="none" stroke="#63b8ff" d="M516.01,-110.19C513.95,-95.41 509.19,-72.32 498.5,-55.25 491.4,-43.91 480.55,-33.85 470.68,-26.16"/>
<polygon fill="#63b8ff" stroke="#63b8ff" points="473.03,-23.54 462.89,-20.44 468.89,-29.18 473.03,-23.54"/>
</a>
</g>
</g>
<!-- Node9 -->
<g id="Node000009" class="node">
<title>Node9</title>
<g id="a_Node000009"><a xlink:href="_knob_widget_8h.html" target="_top" xlink:title="Base class for knob&#45;style widgets in the JMR800&#45;V2 interface.">
<polygon fill="white" stroke="#666666" points="659.62,-74.5 545.38,-74.5 545.38,-55.25 659.62,-55.25 659.62,-74.5"/>
<text text-anchor="middle" x="602.5" y="-61" font-family="Helvetica,sans-Serif" font-size="10.00">widgets/KnobWidget.h</text>
</a>
</g>
</g>
<!-- Node8&#45;&gt;Node9 -->
<g id="edge11_Node000008_Node000009" class="edge">
<title>Node8&#45;&gt;Node9</title>
<g id="a_edge11_Node000008_Node000009"><a xlink:title=" ">
<path fill="none" stroke="#63b8ff" d="M538.51,-110.2C551.2,-101.4 567.37,-90.21 580.27,-81.27"/>
<polygon fill="#63b8ff" stroke="#63b8ff" points="581.92,-84.38 588.15,-75.81 577.94,-78.63 581.92,-84.38"/>
</a>
</g>
</g>
<!-- Node9&#45;&gt;Node3 -->
<g id="edge12_Node000009_Node000003" class="edge">
<title>Node9&#45;&gt;Node3</title>
<g id="a_edge12_Node000009_Node000003"><a xlink:title=" ">
<path fill="none" stroke="#63b8ff" d="M545.2,-56.19C469.83,-46.08 338.16,-28.42 262.8,-18.31"/>
<polygon fill="#63b8ff" stroke="#63b8ff" points="263.53,-14.88 253.15,-17.02 262.6,-21.81 263.53,-14.88"/>
</a>
</g>
</g>
<!-- Node9&#45;&gt;Node6 -->
<g id="edge13_Node000009_Node000006" class="edge">
<title>Node9&#45;&gt;Node6</title>
<g id="a_edge13_Node000009_Node000006"><a xlink:title=" ">
<path fill="none" stroke="#63b8ff" d="M576.21,-54.84C551.04,-46.2 512.85,-33.07 484.59,-23.37"/>
<polygon fill="#63b8ff" stroke="#63b8ff" points="485.95,-20.13 475.35,-20.19 483.67,-26.75 485.95,-20.13"/>
</a>
</g>
</g>
<!-- Node10&#45;&gt;Node5 -->
<g id="edge18_Node000010_Node000005" class="edge">
<title>Node10&#45;&gt;Node5</title>
<g id="a_edge18_Node000010_Node000005"><a xlink:title=" ">
<path fill="none" stroke="#63b8ff" d="M642.91,-115.68C602.98,-105.5 538.05,-88.95 494.1,-77.75"/>
<polygon fill="#63b8ff" stroke="#63b8ff" points="495.15,-74.41 484.59,-75.33 493.42,-81.19 495.15,-74.41"/>
</a>
</g>
</g>
<!-- Node10&#45;&gt;Node6 -->
<g id="edge19_Node000010_Node000006" class="edge">
<title>Node10&#45;&gt;Node6</title>
<g id="a_edge19_Node000010_Node000006"><a xlink:title=" ">
<path fill="none" stroke="#63b8ff" d="M680.16,-115.7C682.3,-100.95 684.07,-71.73 668.5,-55.25 647.07,-32.58 566.67,-20.84 509.03,-15.21"/>
<polygon fill="#63b8ff" stroke="#63b8ff" points="509.62,-11.75 499.33,-14.3 508.97,-18.72 509.62,-11.75"/>
</a>
</g>
</g>
<!-- Node10&#45;&gt;Node9 -->
<g id="edge17_Node000010_Node000009" class="edge">
<title>Node10&#45;&gt;Node9</title>
<g id="a_edge17_Node000010_Node000009"><a xlink:title=" ">
<path fill="none" stroke="#63b8ff" d="M666.96,-115.81C655.35,-106.82 637.21,-92.76 623.12,-81.85"/>
<polygon fill="#63b8ff" stroke="#63b8ff" points="625.4,-79.19 615.35,-75.83 621.11,-84.72 625.4,-79.19"/>
</a>
</g>
</g>
<!-- Node11&#45;&gt;Node3 -->
<g id="edge21_Node000011_Node000003" class="edge">
<title>Node11&#45;&gt;Node3</title>
<g id="a_edge21_Node000011_Node000003"><a xlink:title=" ">
<path fill="none" stroke="#63b8ff" d="M360.9,-115.69C344.58,-101.92 312.07,-75.22 282.5,-55.25 266.38,-44.36 247.48,-33.38 232.44,-25.04"/>
<polygon fill="#63b8ff" stroke="#63b8ff" points="234.51,-22.18 224.06,-20.45 231.15,-28.32 234.51,-22.18"/>
</a>
</g>
</g>
<!-- Node11&#45;&gt;Node5 -->
<g id="edge22_Node000011_Node000005" class="edge">
<title>Node11&#45;&gt;Node5</title>
<g id="a_edge22_Node000011_Node000005"><a xlink:title=" ">
<path fill="none" stroke="#63b8ff" d="M383.04,-115.81C394.65,-106.82 412.79,-92.76 426.88,-81.85"/>
<polygon fill="#63b8ff" stroke="#63b8ff" points="428.89,-84.72 434.65,-75.83 424.6,-79.19 428.89,-84.72"/>
</a>
</g>
</g>
<!-- Node11&#45;&gt;Node6 -->
<g id="edge23_Node000011_Node000006" class="edge">
<title>Node11&#45;&gt;Node6</title>
<g id="a_edge23_Node000011_Node000006"><a xlink:title=" ">
<path fill="none" stroke="#63b8ff" d="M373.17,-115.98C376.11,-102.12 383.2,-74.74 396.5,-55.25 404.04,-44.2 414.94,-34.17 424.72,-26.42"/>
<polygon fill="#63b8ff" stroke="#63b8ff" points="426.52,-29.45 432.41,-20.65 422.32,-23.86 426.52,-29.45"/>
</a>
</g>
</g>
<!-- Node13 -->
<g id="Node000013" class="node">
<title>Node13</title>
<g id="a_Node000013"><a xlink:title=" ">
<polygon fill="#e0e0e0" stroke="#999999" points="801.12,-74.5 743.88,-74.5 743.88,-55.25 801.12,-55.25 801.12,-74.5"/>
<text text-anchor="middle" x="772.5" y="-61" font-family="Helvetica,sans-Serif" font-size="10.00">Arduino.h</text>
</a>
</g>
</g>
<!-- Node12&#45;&gt;Node13 -->
<g id="edge25_Node000012_Node000013" class="edge">
<title>Node12&#45;&gt;Node13</title>
<g id="a_edge25_Node000012_Node000013"><a xlink:title=" ">
<path fill="none" stroke="#63b8ff" d="M796.25,-115.81C792.38,-107.68 786.55,-95.42 781.63,-85.08"/>
<polygon fill="#63b8ff" stroke="#63b8ff" points="784.9,-83.8 777.44,-76.27 778.58,-86.8 784.9,-83.8"/>
</a>
</g>
</g>
<!-- Node14 -->
<g id="Node000014" class="node">
<title>Node14</title>
<g id="a_Node000014"><a xlink:href="defines_8h.html" target="_top" xlink:title="Hardware pin definitions and global constants for JMR800&#45;V2.">
<polygon fill="white" stroke="#666666" points="875.38,-74.5 819.62,-74.5 819.62,-55.25 875.38,-55.25 875.38,-74.5"/>
<text text-anchor="middle" x="847.5" y="-61" font-family="Helvetica,sans-Serif" font-size="10.00">defines.h</text>
</a>
</g>
</g>
<!-- Node12&#45;&gt;Node14 -->
<g id="edge26_Node000012_Node000014" class="edge">
<title>Node12&#45;&gt;Node14</title>
<g id="a_edge26_Node000012_Node000014"><a xlink:title=" ">
<path fill="none" stroke="#63b8ff" d="M807.64,-115.81C814.4,-107.34 824.75,-94.37 833.21,-83.77"/>
<polygon fill="#63b8ff" stroke="#63b8ff" points="835.85,-86.08 839.35,-76.08 830.38,-81.72 835.85,-86.08"/>
</a>
</g>
</g>
</g>
</svg>
