<?xml version="1.0" encoding="UTF-8" standalone="no"?>
<!DOCTYPE svg PUBLIC "-//W3C//DTD SVG 1.1//EN"
 "http://www.w3.org/Graphics/SVG/1.1/DTD/svg11.dtd">
<!-- Generated by graphviz version 12.2.1 (20241206.2353)
 -->
<!-- Title: src/screens/SharedControlScreenUtility.cpp Pages: 1 -->
<svg width="1119pt" height="282pt"
 viewBox="0.00 0.00 1118.76 282.00" xmlns="http://www.w3.org/2000/svg" xmlns:xlink="http://www.w3.org/1999/xlink">
<g id="graph0" class="graph" transform="scale(1 1) rotate(0) translate(4 278)">
<title>src/screens/SharedControlScreenUtility.cpp</title>
<!-- Node1 -->
<g id="Node000001" class="node">
<title>Node1</title>
<g id="a_Node000001"><a xlink:title="Provides layout helper utilities for constructing shared UI control screens.">
<polygon fill="#999999" stroke="#666666" points="688.87,-274 556.62,-274 556.62,-243.5 688.87,-243.5 688.87,-274"/>
<text text-anchor="start" x="564.62" y="-260.5" font-family="Helvetica,sans-Serif" font-size="10.00">src/screens/SharedControl</text>
<text text-anchor="middle" x="622.75" y="-249.25" font-family="Helvetica,sans-Serif" font-size="10.00">ScreenUtility.cpp</text>
</a>
</g>
</g>
<!-- Node2 -->
<g id="Node000002" class="node">
<title>Node2</title>
<g id="a_Node000002"><a xlink:href="_shared_control_screen_utility_8h.html" target="_top" xlink:title="Provides utility functions for initializing common screen layouts.">
<polygon fill="white" stroke="#666666" points="480,-207.5 333.5,-207.5 333.5,-177 480,-177 480,-207.5"/>
<text text-anchor="start" x="341.5" y="-194" font-family="Helvetica,sans-Serif" font-size="10.00">screens/SharedControlScreen</text>
<text text-anchor="middle" x="406.75" y="-182.75" font-family="Helvetica,sans-Serif" font-size="10.00">Utility.h</text>
</a>
</g>
</g>
<!-- Node1&#45;&gt;Node2 -->
<g id="edge1_Node000001_Node000002" class="edge">
<title>Node1&#45;&gt;Node2</title>
<g id="a_edge1_Node000001_Node000002"><a xlink:title=" ">
<path fill="none" stroke="#63b8ff" d="M573.46,-243.03C541.67,-233.54 500.12,-221.13 466.45,-211.08"/>
<polygon fill="#63b8ff" stroke="#63b8ff" points="467.85,-207.84 457.27,-208.34 465.85,-214.55 467.85,-207.84"/>
</a>
</g>
</g>
<!-- Node16 -->
<g id="Node000016" class="node">
<title>Node16</title>
<g id="a_Node000016"><a xlink:href="_hardware_manager_8h.html" target="_top" xlink:title="Manages hardware input/output for analog controls, digital buttons, encoder, and serial communication...">
<polygon fill="white" stroke="#666666" points="910.25,-201.88 807.25,-201.88 807.25,-182.62 910.25,-182.62 910.25,-201.88"/>
<text text-anchor="middle" x="858.75" y="-188.38" font-family="Helvetica,sans-Serif" font-size="10.00">HardwareManager.h</text>
</a>
</g>
</g>
<!-- Node1&#45;&gt;Node16 -->
<g id="edge28_Node000001_Node000016" class="edge">
<title>Node1&#45;&gt;Node16</title>
<g id="a_edge28_Node000001_Node000016"><a xlink:title=" ">
<path fill="none" stroke="#63b8ff" d="M676.6,-243.03C718.32,-231.63 775.43,-216.02 814.51,-205.34"/>
<polygon fill="#63b8ff" stroke="#63b8ff" points="815.34,-208.74 824.06,-202.73 813.49,-201.99 815.34,-208.74"/>
</a>
</g>
</g>
<!-- Node3 -->
<g id="Node000003" class="node">
<title>Node3</title>
<g id="a_Node000003"><a xlink:title=" ">
<polygon fill="#e0e0e0" stroke="#999999" points="697.25,-135.38 654.25,-135.38 654.25,-116.12 697.25,-116.12 697.25,-135.38"/>
<text text-anchor="middle" x="675.75" y="-121.88" font-family="Helvetica,sans-Serif" font-size="10.00">vector</text>
</a>
</g>
</g>
<!-- Node2&#45;&gt;Node3 -->
<g id="edge2_Node000002_Node000003" class="edge">
<title>Node2&#45;&gt;Node3</title>
<g id="a_edge2_Node000002_Node000003"><a xlink:title=" ">
<path fill="none" stroke="#63b8ff" d="M480.25,-180.09C527.86,-171.8 590.82,-158.84 644.75,-141 645.71,-140.68 646.68,-140.34 647.65,-139.99"/>
<polygon fill="#63b8ff" stroke="#63b8ff" points="648.68,-143.35 656.59,-136.31 646.01,-136.88 648.68,-143.35"/>
</a>
</g>
</g>
<!-- Node4 -->
<g id="Node000004" class="node">
<title>Node4</title>
<g id="a_Node000004"><a xlink:href="_widget_8h.html" target="_top" xlink:title="Abstract base class for UI widgets in the JMR800&#45;V2 OLED interface.">
<polygon fill="white" stroke="#666666" points="143.62,-19.25 51.87,-19.25 51.87,0 143.62,0 143.62,-19.25"/>
<text text-anchor="middle" x="97.75" y="-5.75" font-family="Helvetica,sans-Serif" font-size="10.00">widgets/Widget.h</text>
</a>
</g>
</g>
<!-- Node2&#45;&gt;Node4 -->
<g id="edge3_Node000002_Node000004" class="edge">
<title>Node2&#45;&gt;Node4</title>
<g id="a_edge3_Node000002_Node000004"><a xlink:title=" ">
<path fill="none" stroke="#63b8ff" d="M333.34,-191.86C234.24,-191.02 65.15,-183.22 22.75,-141 -4.41,-113.96 -5.99,-88.09 13.75,-55.25 22.46,-40.76 37.64,-30.72 52.71,-23.89"/>
<polygon fill="#63b8ff" stroke="#63b8ff" points="53.73,-27.26 61.66,-20.24 51.08,-20.78 53.73,-27.26"/>
</a>
</g>
</g>
<!-- Node5 -->
<g id="Node000005" class="node">
<title>Node5</title>
<g id="a_Node000005"><a xlink:href="_text_label_widget_8h.html" target="_top" xlink:title="Displays static or dynamic text labels on the OLED UI.">
<polygon fill="white" stroke="#666666" points="175.62,-135.38 41.87,-135.38 41.87,-116.12 175.62,-116.12 175.62,-135.38"/>
<text text-anchor="middle" x="108.75" y="-121.88" font-family="Helvetica,sans-Serif" font-size="10.00">widgets/TextLabelWidget.h</text>
</a>
</g>
</g>
<!-- Node2&#45;&gt;Node5 -->
<g id="edge4_Node000002_Node000005" class="edge">
<title>Node2&#45;&gt;Node5</title>
<g id="a_edge4_Node000002_Node000005"><a xlink:title=" ">
<path fill="none" stroke="#63b8ff" d="M338.75,-176.53C285.05,-164.91 211.17,-148.92 161.78,-138.23"/>
<polygon fill="#63b8ff" stroke="#63b8ff" points="162.7,-134.85 152.18,-136.15 161.22,-141.69 162.7,-134.85"/>
</a>
</g>
</g>
<!-- Node8 -->
<g id="Node000008" class="node">
<title>Node8</title>
<g id="a_Node000008"><a xlink:href="_rectangle_widget_8h.html" target="_top" xlink:title="Displays a static rectangle, optionally filled, as part of the OLED UI.">
<polygon fill="white" stroke="#666666" points="165.75,-74.5 29.75,-74.5 29.75,-55.25 165.75,-55.25 165.75,-74.5"/>
<text text-anchor="middle" x="97.75" y="-61" font-family="Helvetica,sans-Serif" font-size="10.00">widgets/RectangleWidget.h</text>
</a>
</g>
</g>
<!-- Node2&#45;&gt;Node8 -->
<g id="edge8_Node000002_Node000008" class="edge">
<title>Node2&#45;&gt;Node8</title>
<g id="a_edge8_Node000002_Node000008"><a xlink:title=" ">
<path fill="none" stroke="#63b8ff" d="M333.42,-186.52C230.16,-179.11 52.21,-163.25 32.75,-141 23.82,-130.8 26.43,-122.49 32.75,-110.5 39.62,-97.44 52.24,-87.47 64.53,-80.3"/>
<polygon fill="#63b8ff" stroke="#63b8ff" points="66.13,-83.41 73.32,-75.63 62.85,-77.23 66.13,-83.41"/>
</a>
</g>
</g>
<!-- Node9 -->
<g id="Node000009" class="node">
<title>Node9</title>
<g id="a_Node000009"><a xlink:href="_potentiometer_knob_widget_8h.html" target="_top" xlink:title="Visual representation of a physical potentiometer for the OLED UI.">
<polygon fill="white" stroke="#666666" points="635.75,-141 499.75,-141 499.75,-110.5 635.75,-110.5 635.75,-141"/>
<text text-anchor="start" x="507.75" y="-127.5" font-family="Helvetica,sans-Serif" font-size="10.00">widgets/PotentiometerKnob</text>
<text text-anchor="middle" x="567.75" y="-116.25" font-family="Helvetica,sans-Serif" font-size="10.00">Widget.h</text>
</a>
</g>
</g>
<!-- Node2&#45;&gt;Node9 -->
<g id="edge11_Node000002_Node000009" class="edge">
<title>Node2&#45;&gt;Node9</title>
<g id="a_edge11_Node000002_Node000009"><a xlink:title=" ">
<path fill="none" stroke="#63b8ff" d="M443.28,-176.61C466.15,-167.45 495.85,-155.55 520.51,-145.68"/>
<polygon fill="#63b8ff" stroke="#63b8ff" points="521.7,-148.97 529.68,-142 519.09,-142.47 521.7,-148.97"/>
</a>
</g>
</g>
<!-- Node11 -->
<g id="Node000011" class="node">
<title>Node11</title>
<g id="a_Node000011"><a xlink:href="_encoder_knob_widget_8h.html" target="_top" xlink:title="Represents a virtual knob controlled by an encoder input.">
<polygon fill="white" stroke="#666666" points="481.87,-135.38 331.62,-135.38 331.62,-116.12 481.87,-116.12 481.87,-135.38"/>
<text text-anchor="middle" x="406.75" y="-121.88" font-family="Helvetica,sans-Serif" font-size="10.00">widgets/EncoderKnobWidget.h</text>
</a>
</g>
</g>
<!-- Node2&#45;&gt;Node11 -->
<g id="edge17_Node000002_Node000011" class="edge">
<title>Node2&#45;&gt;Node11</title>
<g id="a_edge17_Node000002_Node000011"><a xlink:title=" ">
<path fill="none" stroke="#63b8ff" d="M406.75,-176.61C406.75,-167.83 406.75,-156.52 406.75,-146.9"/>
<polygon fill="#63b8ff" stroke="#63b8ff" points="410.25,-147.09 406.75,-137.09 403.25,-147.09 410.25,-147.09"/>
</a>
</g>
</g>
<!-- Node12 -->
<g id="Node000012" class="node">
<title>Node12</title>
<g id="a_Node000012"><a xlink:href="_button_widget_8h.html" target="_top" xlink:title="Represents an on&#45;screen button widget with LED state indicators.">
<polygon fill="white" stroke="#666666" points="313.87,-135.38 193.62,-135.38 193.62,-116.12 313.87,-116.12 313.87,-135.38"/>
<text text-anchor="middle" x="253.75" y="-121.88" font-family="Helvetica,sans-Serif" font-size="10.00">widgets/ButtonWidget.h</text>
</a>
</g>
</g>
<!-- Node2&#45;&gt;Node12 -->
<g id="edge21_Node000002_Node000012" class="edge">
<title>Node2&#45;&gt;Node12</title>
<g id="a_edge21_Node000002_Node000012"><a xlink:title=" ">
<path fill="none" stroke="#63b8ff" d="M372.03,-176.61C346.07,-165.67 310.85,-150.82 285.61,-140.18"/>
<polygon fill="#63b8ff" stroke="#63b8ff" points="287.09,-137.01 276.52,-136.35 284.37,-143.46 287.09,-137.01"/>
</a>
</g>
</g>
<!-- Node13 -->
<g id="Node000013" class="node">
<title>Node13</title>
<g id="a_Node000013"><a xlink:href="_logging_8h.html" target="_top" xlink:title="Lightweight logging utility for serial output in the JMR800&#45;V2 project.">
<polygon fill="white" stroke="#666666" points="811.75,-135.38 753.75,-135.38 753.75,-116.12 811.75,-116.12 811.75,-135.38"/>
<text text-anchor="middle" x="782.75" y="-121.88" font-family="Helvetica,sans-Serif" font-size="10.00">Logging.h</text>
</a>
</g>
</g>
<!-- Node2&#45;&gt;Node13 -->
<g id="edge25_Node000002_Node000013" class="edge">
<title>Node2&#45;&gt;Node13</title>
<g id="a_edge25_Node000002_Node000013"><a xlink:title=" ">
<path fill="none" stroke="#63b8ff" d="M480.48,-179.31C541.25,-169.37 629.66,-154.68 706.75,-141 718.35,-138.94 730.92,-136.62 742.45,-134.46"/>
<polygon fill="#63b8ff" stroke="#63b8ff" points="742.88,-137.94 752.05,-132.64 741.58,-131.06 742.88,-137.94"/>
</a>
</g>
</g>
<!-- Node5&#45;&gt;Node4 -->
<g id="edge5_Node000005_Node000004" class="edge">
<title>Node5&#45;&gt;Node4</title>
<g id="a_edge5_Node000005_Node000004"><a xlink:title=" ">
<path fill="none" stroke="#63b8ff" d="M77.23,-115.78C57.2,-108.27 32.85,-95.34 20.75,-74.5 8.16,-52.81 34.26,-35.27 59.42,-24.1"/>
<polygon fill="#63b8ff" stroke="#63b8ff" points="60.72,-27.34 68.62,-20.28 58.05,-20.88 60.72,-27.34"/>
</a>
</g>
</g>
<!-- Node6 -->
<g id="Node000006" class="node">
<title>Node6</title>
<g id="a_Node000006"><a xlink:title=" ">
<polygon fill="#e0e0e0" stroke="#999999" points="381.5,-74.5 298,-74.5 298,-55.25 381.5,-55.25 381.5,-74.5"/>
<text text-anchor="middle" x="339.75" y="-61" font-family="Helvetica,sans-Serif" font-size="10.00">Adafruit_GFX.h</text>
</a>
</g>
</g>
<!-- Node5&#45;&gt;Node6 -->
<g id="edge6_Node000005_Node000006" class="edge">
<title>Node5&#45;&gt;Node6</title>
<g id="a_edge6_Node000005_Node000006"><a xlink:title=" ">
<path fill="none" stroke="#63b8ff" d="M144.34,-115.68C184.27,-105.5 249.2,-88.95 293.15,-77.75"/>
<polygon fill="#63b8ff" stroke="#63b8ff" points="293.83,-81.19 302.65,-75.33 292.1,-74.41 293.83,-81.19"/>
</a>
</g>
</g>
<!-- Node7 -->
<g id="Node000007" class="node">
<title>Node7</title>
<g id="a_Node000007"><a xlink:title=" ">
<polygon fill="#e0e0e0" stroke="#999999" points="506.75,-19.25 406.75,-19.25 406.75,0 506.75,0 506.75,-19.25"/>
<text text-anchor="middle" x="456.75" y="-5.75" font-family="Helvetica,sans-Serif" font-size="10.00">Adafruit_SH110X.h</text>
</a>
</g>
</g>
<!-- Node5&#45;&gt;Node7 -->
<g id="edge7_Node000005_Node000007" class="edge">
<title>Node5&#45;&gt;Node7</title>
<g id="a_edge7_Node000005_Node000007"><a xlink:title=" ">
<path fill="none" stroke="#63b8ff" d="M126.58,-115.76C155.71,-101.36 215.59,-72.95 268.75,-55.25 310.86,-41.23 359.66,-29.78 396.99,-21.99"/>
<polygon fill="#63b8ff" stroke="#63b8ff" points="397.61,-25.44 406.7,-20 396.2,-18.58 397.61,-25.44"/>
</a>
</g>
</g>
<!-- Node8&#45;&gt;Node4 -->
<g id="edge9_Node000008_Node000004" class="edge">
<title>Node8&#45;&gt;Node4</title>
<g id="a_edge9_Node000008_Node000004"><a xlink:title=" ">
<path fill="none" stroke="#63b8ff" d="M97.75,-55.08C97.75,-48.57 97.75,-39.42 97.75,-31.12"/>
<polygon fill="#63b8ff" stroke="#63b8ff" points="101.25,-31.12 97.75,-21.12 94.25,-31.12 101.25,-31.12"/>
</a>
</g>
</g>
<!-- Node8&#45;&gt;Node7 -->
<g id="edge10_Node000008_Node000007" class="edge">
<title>Node8&#45;&gt;Node7</title>
<g id="a_edge10_Node000008_Node000007"><a xlink:title=" ">
<path fill="none" stroke="#63b8ff" d="M159.05,-54.78C225.03,-45 329.35,-29.52 395.36,-19.73"/>
<polygon fill="#63b8ff" stroke="#63b8ff" points="395.54,-23.24 404.92,-18.31 394.51,-16.32 395.54,-23.24"/>
</a>
</g>
</g>
<!-- Node9&#45;&gt;Node6 -->
<g id="edge15_Node000009_Node000006" class="edge">
<title>Node9&#45;&gt;Node6</title>
<g id="a_edge15_Node000009_Node000006"><a xlink:title=" ">
<path fill="none" stroke="#63b8ff" d="M510.8,-110.05C472.19,-100.08 421.82,-87.07 385.75,-77.75"/>
<polygon fill="#63b8ff" stroke="#63b8ff" points="387.07,-74.48 376.52,-75.37 385.32,-81.26 387.07,-74.48"/>
</a>
</g>
</g>
<!-- Node9&#45;&gt;Node7 -->
<g id="edge16_Node000009_Node000007" class="edge">
<title>Node9&#45;&gt;Node7</title>
<g id="a_edge16_Node000009_Node000007"><a xlink:title=" ">
<path fill="none" stroke="#63b8ff" d="M564.7,-110.16C560.88,-94.92 553.02,-71.08 538.75,-55.25 526.58,-41.75 509.34,-31.52 493.8,-24.28"/>
<polygon fill="#63b8ff" stroke="#63b8ff" points="495.36,-21.14 484.79,-20.35 492.56,-27.55 495.36,-21.14"/>
</a>
</g>
</g>
<!-- Node10 -->
<g id="Node000010" class="node">
<title>Node10</title>
<g id="a_Node000010"><a xlink:href="_knob_widget_8h.html" target="_top" xlink:title="Base class for knob&#45;style widgets in the JMR800&#45;V2 interface.">
<polygon fill="white" stroke="#666666" points="513.87,-74.5 399.62,-74.5 399.62,-55.25 513.87,-55.25 513.87,-74.5"/>
<text text-anchor="middle" x="456.75" y="-61" font-family="Helvetica,sans-Serif" font-size="10.00">widgets/KnobWidget.h</text>
</a>
</g>
</g>
<!-- Node9&#45;&gt;Node10 -->
<g id="edge12_Node000009_Node000010" class="edge">
<title>Node9&#45;&gt;Node10</title>
<g id="a_edge12_Node000009_Node000010"><a xlink:title=" ">
<path fill="none" stroke="#63b8ff" d="M540.02,-110.05C522.8,-100.91 500.75,-89.22 483.68,-80.16"/>
<polygon fill="#63b8ff" stroke="#63b8ff" points="485.58,-77.21 475.11,-75.61 482.3,-83.39 485.58,-77.21"/>
</a>
</g>
</g>
<!-- Node10&#45;&gt;Node4 -->
<g id="edge13_Node000010_Node000004" class="edge">
<title>Node10&#45;&gt;Node4</title>
<g id="a_edge13_Node000010_Node000004"><a xlink:title=" ">
<path fill="none" stroke="#63b8ff" d="M399.47,-55.38C332.47,-45.44 222.22,-29.09 155.17,-19.14"/>
<polygon fill="#63b8ff" stroke="#63b8ff" points="155.88,-15.71 145.48,-17.7 154.86,-22.63 155.88,-15.71"/>
</a>
</g>
</g>
<!-- Node10&#45;&gt;Node7 -->
<g id="edge14_Node000010_Node000007" class="edge">
<title>Node10&#45;&gt;Node7</title>
<g id="a_edge14_Node000010_Node000007"><a xlink:title=" ">
<path fill="none" stroke="#63b8ff" d="M456.75,-55.08C456.75,-48.57 456.75,-39.42 456.75,-31.12"/>
<polygon fill="#63b8ff" stroke="#63b8ff" points="460.25,-31.12 456.75,-21.12 453.25,-31.12 460.25,-31.12"/>
</a>
</g>
</g>
<!-- Node11&#45;&gt;Node6 -->
<g id="edge19_Node000011_Node000006" class="edge">
<title>Node11&#45;&gt;Node6</title>
<g id="a_edge19_Node000011_Node000006"><a xlink:title=" ">
<path fill="none" stroke="#63b8ff" d="M396.57,-115.81C386.54,-106.99 370.96,-93.3 358.65,-82.48"/>
<polygon fill="#63b8ff" stroke="#63b8ff" points="360.98,-79.87 351.16,-75.9 356.36,-85.13 360.98,-79.87"/>
</a>
</g>
</g>
<!-- Node11&#45;&gt;Node7 -->
<g id="edge20_Node000011_Node000007" class="edge">
<title>Node11&#45;&gt;Node7</title>
<g id="a_edge20_Node000011_Node000007"><a xlink:title=" ">
<path fill="none" stroke="#63b8ff" d="M458.84,-115.65C482.56,-108.62 508.47,-96.24 522.75,-74.5 535.65,-54.85 511.81,-36.65 489.26,-24.74"/>
<polygon fill="#63b8ff" stroke="#63b8ff" points="491,-21.7 480.48,-20.41 487.9,-27.98 491,-21.7"/>
</a>
</g>
</g>
<!-- Node11&#45;&gt;Node10 -->
<g id="edge18_Node000011_Node000010" class="edge">
<title>Node11&#45;&gt;Node10</title>
<g id="a_edge18_Node000011_Node000010"><a xlink:title=" ">
<path fill="none" stroke="#63b8ff" d="M414.34,-115.81C421.61,-107.25 432.78,-94.1 441.83,-83.45"/>
<polygon fill="#63b8ff" stroke="#63b8ff" points="444.3,-85.94 448.1,-76.05 438.96,-81.41 444.3,-85.94"/>
</a>
</g>
</g>
<!-- Node12&#45;&gt;Node4 -->
<g id="edge22_Node000012_Node000004" class="edge">
<title>Node12&#45;&gt;Node4</title>
<g id="a_edge22_Node000012_Node000004"><a xlink:title=" ">
<path fill="none" stroke="#63b8ff" d="M244.99,-116.01C230.91,-102.19 202.04,-74.87 174.75,-55.25 159.05,-43.96 140.3,-33.05 125.24,-24.84"/>
<polygon fill="#63b8ff" stroke="#63b8ff" points="127.28,-21.96 116.81,-20.33 123.98,-28.14 127.28,-21.96"/>
</a>
</g>
</g>
<!-- Node12&#45;&gt;Node6 -->
<g id="edge23_Node000012_Node000006" class="edge">
<title>Node12&#45;&gt;Node6</title>
<g id="a_edge23_Node000012_Node000006"><a xlink:title=" ">
<path fill="none" stroke="#63b8ff" d="M266.81,-115.81C280.2,-106.64 301.27,-92.22 317.33,-81.23"/>
<polygon fill="#63b8ff" stroke="#63b8ff" points="319.04,-84.29 325.32,-75.76 315.09,-78.52 319.04,-84.29"/>
</a>
</g>
</g>
<!-- Node12&#45;&gt;Node7 -->
<g id="edge24_Node000012_Node000007" class="edge">
<title>Node12&#45;&gt;Node7</title>
<g id="a_edge24_Node000012_Node000007"><a xlink:title=" ">
<path fill="none" stroke="#63b8ff" d="M255.67,-116.03C259.4,-101.24 269.03,-71.26 288.75,-55.25 318.64,-30.98 360.46,-19.82 394.9,-14.73"/>
<polygon fill="#63b8ff" stroke="#63b8ff" points="395.31,-18.2 404.77,-13.42 394.39,-11.26 395.31,-18.2"/>
</a>
</g>
</g>
<!-- Node14 -->
<g id="Node000014" class="node">
<title>Node14</title>
<g id="a_Node000014"><a xlink:title=" ">
<polygon fill="#e0e0e0" stroke="#999999" points="816.37,-74.5 759.12,-74.5 759.12,-55.25 816.37,-55.25 816.37,-74.5"/>
<text text-anchor="middle" x="787.75" y="-61" font-family="Helvetica,sans-Serif" font-size="10.00">Arduino.h</text>
</a>
</g>
</g>
<!-- Node13&#45;&gt;Node14 -->
<g id="edge26_Node000013_Node000014" class="edge">
<title>Node13&#45;&gt;Node14</title>
<g id="a_edge26_Node000013_Node000014"><a xlink:title=" ">
<path fill="none" stroke="#63b8ff" d="M783.51,-115.81C784.18,-107.94 785.17,-96.2 786.03,-86.07"/>
<polygon fill="#63b8ff" stroke="#63b8ff" points="789.5,-86.67 786.85,-76.41 782.52,-86.08 789.5,-86.67"/>
</a>
</g>
</g>
<!-- Node15 -->
<g id="Node000015" class="node">
<title>Node15</title>
<g id="a_Node000015"><a xlink:href="defines_8h.html" target="_top" xlink:title="Hardware pin definitions and global constants for JMR800&#45;V2.">
<polygon fill="white" stroke="#666666" points="895.62,-74.5 839.87,-74.5 839.87,-55.25 895.62,-55.25 895.62,-74.5"/>
<text text-anchor="middle" x="867.75" y="-61" font-family="Helvetica,sans-Serif" font-size="10.00">defines.h</text>
</a>
</g>
</g>
<!-- Node13&#45;&gt;Node15 -->
<g id="edge27_Node000013_Node000015" class="edge">
<title>Node13&#45;&gt;Node15</title>
<g id="a_edge27_Node000013_Node000015"><a xlink:title=" ">
<path fill="none" stroke="#63b8ff" d="M795.66,-115.81C808.89,-106.64 829.71,-92.22 845.59,-81.23"/>
<polygon fill="#63b8ff" stroke="#63b8ff" points="847.25,-84.33 853.47,-75.76 843.26,-78.58 847.25,-84.33"/>
</a>
</g>
</g>
<!-- Node16&#45;&gt;Node3 -->
<g id="edge35_Node000016_Node000003" class="edge">
<title>Node16&#45;&gt;Node3</title>
<g id="a_edge35_Node000016_Node000003"><a xlink:title=" ">
<path fill="none" stroke="#63b8ff" d="M830.98,-182.19C801.31,-172.42 753,-156.2 711.75,-141 710.44,-140.52 709.1,-140.02 707.75,-139.51"/>
<polygon fill="#63b8ff" stroke="#63b8ff" points="709.39,-136.39 698.8,-136.05 706.87,-142.92 709.39,-136.39"/>
</a>
</g>
</g>
<!-- Node16&#45;&gt;Node6 -->
<g id="edge30_Node000016_Node000006" class="edge">
<title>Node16&#45;&gt;Node6</title>
<g id="a_edge30_Node000016_Node000006"><a xlink:title=" ">
<path fill="none" stroke="#63b8ff" d="M833.36,-182.25C809.61,-173.34 773.59,-158.51 744.75,-141 726.24,-129.76 726.74,-118.83 706.75,-110.5 579.59,-57.5 533.08,-92.41 392.9,-74.66"/>
<polygon fill="#63b8ff" stroke="#63b8ff" points="393.62,-71.23 383.25,-73.36 392.69,-78.16 393.62,-71.23"/>
</a>
</g>
</g>
<!-- Node16&#45;&gt;Node7 -->
<g id="edge31_Node000016_Node000007" class="edge">
<title>Node16&#45;&gt;Node7</title>
<g id="a_edge31_Node000016_Node000007"><a xlink:title=" ">
<path fill="none" stroke="#63b8ff" d="M910.52,-191.26C995.7,-189.42 1151.21,-177.15 1100.75,-110.5 1031.35,-18.83 666.22,-9.77 518.68,-9.92"/>
<polygon fill="#63b8ff" stroke="#63b8ff" points="518.69,-6.42 508.69,-9.95 518.7,-13.42 518.69,-6.42"/>
</a>
</g>
</g>
<!-- Node16&#45;&gt;Node13 -->
<g id="edge37_Node000016_Node000013" class="edge">
<title>Node16&#45;&gt;Node13</title>
<g id="a_edge37_Node000016_Node000013"><a xlink:title=" ">
<path fill="none" stroke="#63b8ff" d="M848.18,-182.28C836.16,-172.08 816.29,-155.21 801.59,-142.74"/>
<polygon fill="#63b8ff" stroke="#63b8ff" points="804.27,-140.42 794.38,-136.62 799.74,-145.76 804.27,-140.42"/>
</a>
</g>
</g>
<!-- Node16&#45;&gt;Node14 -->
<g id="edge29_Node000016_Node000014" class="edge">
<title>Node16&#45;&gt;Node14</title>
<g id="a_edge29_Node000016_Node000014"><a xlink:title=" ">
<path fill="none" stroke="#63b8ff" d="M855.29,-182.48C849.18,-167.34 835.68,-135.51 820.75,-110.5 815.26,-101.31 808.32,-91.69 802.22,-83.75"/>
<polygon fill="#63b8ff" stroke="#63b8ff" points="805,-81.62 796.06,-75.93 799.5,-85.95 805,-81.62"/>
</a>
</g>
</g>
<!-- Node16&#45;&gt;Node15 -->
<g id="edge36_Node000016_Node000015" class="edge">
<title>Node16&#45;&gt;Node15</title>
<g id="a_edge36_Node000016_Node000015"><a xlink:title=" ">
<path fill="none" stroke="#63b8ff" d="M859.4,-182.23C860.83,-162.26 864.3,-113.89 866.29,-86.21"/>
<polygon fill="#63b8ff" stroke="#63b8ff" points="869.77,-86.54 867,-76.32 862.79,-86.04 869.77,-86.54"/>
</a>
</g>
</g>
<!-- Node17 -->
<g id="Node000017" class="node">
<title>Node17</title>
<g id="a_Node000017"><a xlink:title=" ">
<polygon fill="#e0e0e0" stroke="#999999" points="950,-135.38 905.5,-135.38 905.5,-116.12 950,-116.12 950,-135.38"/>
<text text-anchor="middle" x="927.75" y="-121.88" font-family="Helvetica,sans-Serif" font-size="10.00">Wire.h</text>
</a>
</g>
</g>
<!-- Node16&#45;&gt;Node17 -->
<g id="edge32_Node000016_Node000017" class="edge">
<title>Node16&#45;&gt;Node17</title>
<g id="a_edge32_Node000016_Node000017"><a xlink:title=" ">
<path fill="none" stroke="#63b8ff" d="M868.34,-182.28C879.05,-172.27 896.62,-155.85 909.88,-143.45"/>
<polygon fill="#63b8ff" stroke="#63b8ff" points="912.22,-146.06 917.13,-136.68 907.43,-140.95 912.22,-146.06"/>
</a>
</g>
</g>
<!-- Node18 -->
<g id="Node000018" class="node">
<title>Node18</title>
<g id="a_Node000018"><a xlink:title=" ">
<polygon fill="#e0e0e0" stroke="#999999" points="1013.75,-135.38 967.75,-135.38 967.75,-116.12 1013.75,-116.12 1013.75,-135.38"/>
<text text-anchor="middle" x="990.75" y="-121.88" font-family="Helvetica,sans-Serif" font-size="10.00">ADC.h</text>
</a>
</g>
</g>
<!-- Node16&#45;&gt;Node18 -->
<g id="edge33_Node000016_Node000018" class="edge">
<title>Node16&#45;&gt;Node18</title>
<g id="a_edge33_Node000016_Node000018"><a xlink:title=" ">
<path fill="none" stroke="#63b8ff" d="M877.38,-182.15C899.39,-171.39 936.26,-153.37 961.96,-140.82"/>
<polygon fill="#63b8ff" stroke="#63b8ff" points="963.4,-144.01 970.85,-136.47 960.33,-137.72 963.4,-144.01"/>
</a>
</g>
</g>
<!-- Node19 -->
<g id="Node000019" class="node">
<title>Node19</title>
<g id="a_Node000019"><a xlink:title=" ">
<polygon fill="#e0e0e0" stroke="#999999" points="1091.5,-135.38 1032,-135.38 1032,-116.12 1091.5,-116.12 1091.5,-135.38"/>
<text text-anchor="middle" x="1061.75" y="-121.88" font-family="Helvetica,sans-Serif" font-size="10.00">Encoder.h</text>
</a>
</g>
</g>
<!-- Node16&#45;&gt;Node19 -->
<g id="edge34_Node000016_Node000019" class="edge">
<title>Node16&#45;&gt;Node19</title>
<g id="a_edge34_Node000016_Node000019"><a xlink:title=" ">
<path fill="none" stroke="#63b8ff" d="M890.04,-182.2C923.16,-172.49 976.87,-156.4 1022.75,-141 1024.09,-140.55 1025.46,-140.08 1026.84,-139.61"/>
<polygon fill="#63b8ff" stroke="#63b8ff" points="1027.79,-142.98 1036.05,-136.35 1025.46,-136.38 1027.79,-142.98"/>
</a>
</g>
</g>
</g>
</svg>
