<?xml version="1.0" encoding="UTF-8" standalone="no"?>
<!DOCTYPE svg PUBLIC "-//W3C//DTD SVG 1.1//EN"
 "http://www.w3.org/Graphics/SVG/1.1/DTD/svg11.dtd">
<!-- Generated by graphviz version 12.2.1 (20241206.2353)
 -->
<!-- Title: src/widgets/TextLabelWidget.cpp Pages: 1 -->
<svg width="594pt" height="138pt"
 viewBox="0.00 0.00 593.75 137.75" xmlns="http://www.w3.org/2000/svg" xmlns:xlink="http://www.w3.org/1999/xlink">
<g id="graph0" class="graph" transform="scale(1 1) rotate(0) translate(4 133.75)">
<title>src/widgets/TextLabelWidget.cpp</title>
<!-- Node1 -->
<g id="Node000001" class="node">
<title>Node1</title>
<g id="a_Node000001"><a xlink:title="Implements the TextLabelWidget class for displaying static text labels in the UI.">
<polygon fill="#999999" stroke="#666666" points="356.25,-129.75 195.5,-129.75 195.5,-110.5 356.25,-110.5 356.25,-129.75"/>
<text text-anchor="middle" x="275.88" y="-116.25" font-family="Helvetica,sans-Serif" font-size="10.00">src/widgets/TextLabelWidget.cpp</text>
</a>
</g>
</g>
<!-- Node2 -->
<g id="Node000002" class="node">
<title>Node2</title>
<g id="a_Node000002"><a xlink:href="_widget_8h.html" target="_top" xlink:title="Abstract base class for UI widgets in the JMR800&#45;V2 OLED interface.">
<polygon fill="white" stroke="#666666" points="91.75,-19.25 0,-19.25 0,0 91.75,0 91.75,-19.25"/>
<text text-anchor="middle" x="45.88" y="-5.75" font-family="Helvetica,sans-Serif" font-size="10.00">widgets/Widget.h</text>
</a>
</g>
</g>
<!-- Node1&#45;&gt;Node2 -->
<g id="edge1_Node000001_Node000002" class="edge">
<title>Node1&#45;&gt;Node2</title>
<g id="a_edge1_Node000001_Node000002"><a xlink:title=" ">
<path fill="none" stroke="#63b8ff" d="M195.1,-110.62C143.91,-103.66 83.9,-92.05 64.88,-74.5 52.77,-63.34 48.25,-44.85 46.63,-30.62"/>
<polygon fill="#63b8ff" stroke="#63b8ff" points="50.15,-30.75 45.93,-21.03 43.16,-31.25 50.15,-30.75"/>
</a>
</g>
</g>
<!-- Node3 -->
<g id="Node000003" class="node">
<title>Node3</title>
<g id="a_Node000003"><a xlink:href="_text_label_widget_8h.html" target="_top" xlink:title="Displays static or dynamic text labels on the OLED UI.">
<polygon fill="white" stroke="#666666" points="207.75,-74.5 74,-74.5 74,-55.25 207.75,-55.25 207.75,-74.5"/>
<text text-anchor="middle" x="140.88" y="-61" font-family="Helvetica,sans-Serif" font-size="10.00">widgets/TextLabelWidget.h</text>
</a>
</g>
</g>
<!-- Node1&#45;&gt;Node3 -->
<g id="edge2_Node000001_Node000003" class="edge">
<title>Node1&#45;&gt;Node3</title>
<g id="a_edge2_Node000001_Node000003"><a xlink:title=" ">
<path fill="none" stroke="#63b8ff" d="M252.97,-110.09C231.45,-101.6 198.96,-88.79 174.5,-79.14"/>
<polygon fill="#63b8ff" stroke="#63b8ff" points="175.88,-75.92 165.3,-75.51 173.31,-82.43 175.88,-75.92"/>
</a>
</g>
</g>
<!-- Node6 -->
<g id="Node000006" class="node">
<title>Node6</title>
<g id="a_Node000006"><a xlink:title=" ">
<polygon fill="#e0e0e0" stroke="#999999" points="326.25,-74.5 225.5,-74.5 225.5,-55.25 326.25,-55.25 326.25,-74.5"/>
<text text-anchor="middle" x="275.88" y="-61" font-family="Helvetica,sans-Serif" font-size="10.00">Fonts/TomThumb.h</text>
</a>
</g>
</g>
<!-- Node1&#45;&gt;Node6 -->
<g id="edge6_Node000001_Node000006" class="edge">
<title>Node1&#45;&gt;Node6</title>
<g id="a_edge6_Node000001_Node000006"><a xlink:title=" ">
<path fill="none" stroke="#63b8ff" d="M275.88,-110.33C275.88,-103.82 275.88,-94.67 275.88,-86.37"/>
<polygon fill="#63b8ff" stroke="#63b8ff" points="279.38,-86.37 275.88,-76.37 272.38,-86.37 279.38,-86.37"/>
</a>
</g>
</g>
<!-- Node7 -->
<g id="Node000007" class="node">
<title>Node7</title>
<g id="a_Node000007"><a xlink:href="_logging_8h.html" target="_top" xlink:title="Lightweight logging utility for serial output in the JMR800&#45;V2 project.">
<polygon fill="white" stroke="#666666" points="511.88,-74.5 453.88,-74.5 453.88,-55.25 511.88,-55.25 511.88,-74.5"/>
<text text-anchor="middle" x="482.88" y="-61" font-family="Helvetica,sans-Serif" font-size="10.00">Logging.h</text>
</a>
</g>
</g>
<!-- Node1&#45;&gt;Node7 -->
<g id="edge7_Node000001_Node000007" class="edge">
<title>Node1&#45;&gt;Node7</title>
<g id="a_edge7_Node000001_Node000007"><a xlink:title=" ">
<path fill="none" stroke="#63b8ff" d="M310.99,-110.09C347.52,-100.69 404.64,-86 442.88,-76.16"/>
<polygon fill="#63b8ff" stroke="#63b8ff" points="443.34,-79.66 452.16,-73.78 441.6,-72.88 443.34,-79.66"/>
</a>
</g>
</g>
<!-- Node10 -->
<g id="Node000010" class="node">
<title>Node10</title>
<g id="a_Node000010"><a xlink:href="_screen_manager_8h.html" target="_top" xlink:title="Declares the ScreenManager class responsible for UI screen control on the OLED display.">
<polygon fill="white" stroke="#666666" points="435.75,-74.5 344,-74.5 344,-55.25 435.75,-55.25 435.75,-74.5"/>
<text text-anchor="middle" x="389.88" y="-61" font-family="Helvetica,sans-Serif" font-size="10.00">ScreenManager.h</text>
</a>
</g>
</g>
<!-- Node1&#45;&gt;Node10 -->
<g id="edge10_Node000001_Node000010" class="edge">
<title>Node1&#45;&gt;Node10</title>
<g id="a_edge10_Node000001_Node000010"><a xlink:title=" ">
<path fill="none" stroke="#63b8ff" d="M295.21,-110.09C312.98,-101.79 339.59,-89.36 360.08,-79.79"/>
<polygon fill="#63b8ff" stroke="#63b8ff" points="361.49,-83 369.07,-75.59 358.53,-76.65 361.49,-83"/>
</a>
</g>
</g>
<!-- Node3&#45;&gt;Node2 -->
<g id="edge3_Node000003_Node000002" class="edge">
<title>Node3&#45;&gt;Node2</title>
<g id="a_edge3_Node000003_Node000002"><a xlink:title=" ">
<path fill="none" stroke="#63b8ff" d="M124.76,-54.84C110.29,-46.73 88.8,-34.68 71.89,-25.21"/>
<polygon fill="#63b8ff" stroke="#63b8ff" points="73.82,-22.28 63.39,-20.44 70.4,-28.39 73.82,-22.28"/>
</a>
</g>
</g>
<!-- Node4 -->
<g id="Node000004" class="node">
<title>Node4</title>
<g id="a_Node000004"><a xlink:title=" ">
<polygon fill="#e0e0e0" stroke="#999999" points="193.62,-19.25 110.12,-19.25 110.12,0 193.62,0 193.62,-19.25"/>
<text text-anchor="middle" x="151.88" y="-5.75" font-family="Helvetica,sans-Serif" font-size="10.00">Adafruit_GFX.h</text>
</a>
</g>
</g>
<!-- Node3&#45;&gt;Node4 -->
<g id="edge4_Node000003_Node000004" class="edge">
<title>Node3&#45;&gt;Node4</title>
<g id="a_edge4_Node000003_Node000004"><a xlink:title=" ">
<path fill="none" stroke="#63b8ff" d="M142.69,-55.08C144.05,-48.49 145.97,-39.21 147.7,-30.82"/>
<polygon fill="#63b8ff" stroke="#63b8ff" points="151.12,-31.59 149.71,-21.09 144.26,-30.18 151.12,-31.59"/>
</a>
</g>
</g>
<!-- Node5 -->
<g id="Node000005" class="node">
<title>Node5</title>
<g id="a_Node000005"><a xlink:title=" ">
<polygon fill="#e0e0e0" stroke="#999999" points="318.88,-19.25 218.88,-19.25 218.88,0 318.88,0 318.88,-19.25"/>
<text text-anchor="middle" x="268.88" y="-5.75" font-family="Helvetica,sans-Serif" font-size="10.00">Adafruit_SH110X.h</text>
</a>
</g>
</g>
<!-- Node3&#45;&gt;Node5 -->
<g id="edge5_Node000003_Node000005" class="edge">
<title>Node3&#45;&gt;Node5</title>
<g id="a_edge5_Node000003_Node000005"><a xlink:title=" ">
<path fill="none" stroke="#63b8ff" d="M162.59,-54.84C182.91,-46.39 213.52,-33.65 236.68,-24.02"/>
<polygon fill="#63b8ff" stroke="#63b8ff" points="237.77,-27.36 245.66,-20.28 235.08,-20.89 237.77,-27.36"/>
</a>
</g>
</g>
<!-- Node8 -->
<g id="Node000008" class="node">
<title>Node8</title>
<g id="a_Node000008"><a xlink:title=" ">
<polygon fill="#e0e0e0" stroke="#999999" points="511.5,-19.25 454.25,-19.25 454.25,0 511.5,0 511.5,-19.25"/>
<text text-anchor="middle" x="482.88" y="-5.75" font-family="Helvetica,sans-Serif" font-size="10.00">Arduino.h</text>
</a>
</g>
</g>
<!-- Node7&#45;&gt;Node8 -->
<g id="edge8_Node000007_Node000008" class="edge">
<title>Node7&#45;&gt;Node8</title>
<g id="a_edge8_Node000007_Node000008"><a xlink:title=" ">
<path fill="none" stroke="#63b8ff" d="M482.88,-55.08C482.88,-48.57 482.88,-39.42 482.88,-31.12"/>
<polygon fill="#63b8ff" stroke="#63b8ff" points="486.38,-31.12 482.88,-21.12 479.38,-31.12 486.38,-31.12"/>
</a>
</g>
</g>
<!-- Node9 -->
<g id="Node000009" class="node">
<title>Node9</title>
<g id="a_Node000009"><a xlink:href="defines_8h.html" target="_top" xlink:title="Hardware pin definitions and global constants for JMR800&#45;V2.">
<polygon fill="white" stroke="#666666" points="585.75,-19.25 530,-19.25 530,0 585.75,0 585.75,-19.25"/>
<text text-anchor="middle" x="557.88" y="-5.75" font-family="Helvetica,sans-Serif" font-size="10.00">defines.h</text>
</a>
</g>
</g>
<!-- Node7&#45;&gt;Node9 -->
<g id="edge9_Node000007_Node000009" class="edge">
<title>Node7&#45;&gt;Node9</title>
<g id="a_edge9_Node000007_Node000009"><a xlink:title=" ">
<path fill="none" stroke="#63b8ff" d="M495.6,-54.84C506.59,-47.04 522.72,-35.59 535.81,-26.29"/>
<polygon fill="#63b8ff" stroke="#63b8ff" points="537.73,-29.22 543.86,-20.58 533.68,-23.51 537.73,-29.22"/>
</a>
</g>
</g>
<!-- Node10&#45;&gt;Node5 -->
<g id="edge11_Node000010_Node000005" class="edge">
<title>Node10&#45;&gt;Node5</title>
<g id="a_edge11_Node000010_Node000005"><a xlink:title=" ">
<path fill="none" stroke="#63b8ff" d="M369.35,-54.84C350.31,-46.47 321.72,-33.88 299.9,-24.28"/>
<polygon fill="#63b8ff" stroke="#63b8ff" points="301.45,-21.14 290.89,-20.31 298.63,-27.54 301.45,-21.14"/>
</a>
</g>
</g>
<!-- Node11 -->
<g id="Node000011" class="node">
<title>Node11</title>
<g id="a_Node000011"><a xlink:href="_screen_8h.html" target="_top" xlink:title="Abstract interface for all UI screens in the JMR800&#45;V2 system.">
<polygon fill="white" stroke="#666666" points="436.12,-19.25 343.62,-19.25 343.62,0 436.12,0 436.12,-19.25"/>
<text text-anchor="middle" x="389.88" y="-5.75" font-family="Helvetica,sans-Serif" font-size="10.00">screens/Screen.h</text>
</a>
</g>
</g>
<!-- Node10&#45;&gt;Node11 -->
<g id="edge12_Node000010_Node000011" class="edge">
<title>Node10&#45;&gt;Node11</title>
<g id="a_edge12_Node000010_Node000011"><a xlink:title=" ">
<path fill="none" stroke="#63b8ff" d="M389.88,-55.08C389.88,-48.57 389.88,-39.42 389.88,-31.12"/>
<polygon fill="#63b8ff" stroke="#63b8ff" points="393.38,-31.12 389.88,-21.12 386.38,-31.12 393.38,-31.12"/>
</a>
</g>
</g>
</g>
</svg>
