<?xml version="1.0" encoding="UTF-8" standalone="no"?>
<!DOCTYPE svg PUBLIC "-//W3C//DTD SVG 1.1//EN"
 "http://www.w3.org/Graphics/SVG/1.1/DTD/svg11.dtd">
<!-- Generated by graphviz version 12.2.1 (20241206.2353)
 -->
<!-- Title: include/widgets/TextInputWidget.h Pages: 1 -->
<svg width="352pt" height="94pt"
 viewBox="0.00 0.00 352.38 93.75" xmlns="http://www.w3.org/2000/svg" xmlns:xlink="http://www.w3.org/1999/xlink">
<g id="graph0" class="graph" transform="scale(1 1) rotate(0) translate(4 89.75)">
<title>include/widgets/TextInputWidget.h</title>
<!-- Node1 -->
<g id="Node000001" class="node">
<title>Node1</title>
<g id="a_Node000001"><a xlink:title="Editable text input field for alphanumeric data entry on the OLED interface.">
<polygon fill="#999999" stroke="#666666" points="237.25,-85.75 110.25,-85.75 110.25,-55.25 237.25,-55.25 237.25,-85.75"/>
<text text-anchor="start" x="118.25" y="-72.25" font-family="Helvetica,sans-Serif" font-size="10.00">include/widgets/TextInput</text>
<text text-anchor="middle" x="173.75" y="-61" font-family="Helvetica,sans-Serif" font-size="10.00">Widget.h</text>
</a>
</g>
</g>
<!-- Node2 -->
<g id="Node000002" class="node">
<title>Node2</title>
<g id="a_Node000002"><a xlink:href="_knob_config_dialog_8cpp.html" target="_top" xlink:title=" ">
<polygon fill="white" stroke="#666666" points="167.5,-19.25 0,-19.25 0,0 167.5,0 167.5,-19.25"/>
<text text-anchor="middle" x="83.75" y="-5.75" font-family="Helvetica,sans-Serif" font-size="10.00">src/screens/KnobConfigDialog.cpp</text>
</a>
</g>
</g>
<!-- Node1&#45;&gt;Node2 -->
<g id="edge1_Node000001_Node000002" class="edge">
<title>Node1&#45;&gt;Node2</title>
<g id="a_edge1_Node000001_Node000002"><a xlink:title=" ">
<path fill="none" stroke="#63b8ff" d="M141.93,-48.69C126.76,-38.76 109.41,-27.41 97.62,-19.7"/>
<polygon fill="#63b8ff" stroke="#63b8ff" points="139.95,-51.57 150.24,-54.12 143.78,-45.71 139.95,-51.57"/>
</a>
</g>
</g>
<!-- Node3 -->
<g id="Node000003" class="node">
<title>Node3</title>
<g id="a_Node000003"><a xlink:href="_text_input_widget_8cpp.html" target="_top" xlink:title="Implements the TextInputWidget class, allowing user&#45;editable text display with cursor navigation.">
<polygon fill="white" stroke="#666666" points="344.38,-19.25 185.12,-19.25 185.12,0 344.38,0 344.38,-19.25"/>
<text text-anchor="middle" x="264.75" y="-5.75" font-family="Helvetica,sans-Serif" font-size="10.00">src/widgets/TextInputWidget.cpp</text>
</a>
</g>
</g>
<!-- Node1&#45;&gt;Node3 -->
<g id="edge2_Node000001_Node000003" class="edge">
<title>Node1&#45;&gt;Node3</title>
<g id="a_edge2_Node000001_Node000003"><a xlink:title=" ">
<path fill="none" stroke="#63b8ff" d="M205.48,-48.97C220.92,-38.98 238.7,-27.48 250.72,-19.7"/>
<polygon fill="#63b8ff" stroke="#63b8ff" points="204.01,-45.75 197.52,-54.12 207.81,-51.63 204.01,-45.75"/>
</a>
</g>
</g>
</g>
</svg>
