<?xml version="1.0" encoding="UTF-8" standalone="no"?>
<!DOCTYPE svg PUBLIC "-//W3C//DTD SVG 1.1//EN"
 "http://www.w3.org/Graphics/SVG/1.1/DTD/svg11.dtd">
<!-- Generated by graphviz version 12.2.1 (20241206.2353)
 -->
<!-- Title: include/widgets/TextInputWidget.h Pages: 1 -->
<svg width="226pt" height="94pt"
 viewBox="0.00 0.00 226.38 93.75" xmlns="http://www.w3.org/2000/svg" xmlns:xlink="http://www.w3.org/1999/xlink">
<g id="graph0" class="graph" transform="scale(1 1) rotate(0) translate(4 89.75)">
<title>include/widgets/TextInputWidget.h</title>
<!-- Node1 -->
<g id="Node000001" class="node">
<title>Node1</title>
<g id="a_Node000001"><a xlink:title="Editable text input field for alphanumeric data entry on the OLED interface.">
<polygon fill="#999999" stroke="#666666" points="168.38,-85.75 41.37,-85.75 41.37,-55.25 168.38,-55.25 168.38,-85.75"/>
<text text-anchor="start" x="49.38" y="-72.25" font-family="Helvetica,sans-Serif" font-size="10.00">include/widgets/TextInput</text>
<text text-anchor="middle" x="104.88" y="-61" font-family="Helvetica,sans-Serif" font-size="10.00">Widget.h</text>
</a>
</g>
</g>
<!-- Node2 -->
<g id="Node000002" class="node">
<title>Node2</title>
<g id="a_Node000002"><a xlink:href="_widget_8h.html" target="_top" xlink:title="Abstract base class for UI widgets in the JMR800&#45;V2 OLED interface.">
<polygon fill="white" stroke="#666666" points="91.75,-19.25 0,-19.25 0,0 91.75,0 91.75,-19.25"/>
<text text-anchor="middle" x="45.88" y="-5.75" font-family="Helvetica,sans-Serif" font-size="10.00">widgets/Widget.h</text>
</a>
</g>
</g>
<!-- Node1&#45;&gt;Node2 -->
<g id="edge1_Node000001_Node000002" class="edge">
<title>Node1&#45;&gt;Node2</title>
<g id="a_edge1_Node000001_Node000002"><a xlink:title=" ">
<path fill="none" stroke="#63b8ff" d="M90.29,-54.95C82,-46.67 71.57,-36.27 62.91,-27.62"/>
<polygon fill="#63b8ff" stroke="#63b8ff" points="65.59,-25.36 56.04,-20.77 60.65,-30.31 65.59,-25.36"/>
</a>
</g>
</g>
<!-- Node3 -->
<g id="Node000003" class="node">
<title>Node3</title>
<g id="a_Node000003"><a xlink:href="_i_widget_nav_handler_8h.html" target="_top" xlink:title="Interface for handling horizontal navigation events between UI widgets.">
<polygon fill="white" stroke="#666666" points="218.38,-19.25 109.38,-19.25 109.38,0 218.38,0 218.38,-19.25"/>
<text text-anchor="middle" x="163.88" y="-5.75" font-family="Helvetica,sans-Serif" font-size="10.00">IWidgetNavHandler.h</text>
</a>
</g>
</g>
<!-- Node1&#45;&gt;Node3 -->
<g id="edge2_Node000001_Node000003" class="edge">
<title>Node1&#45;&gt;Node3</title>
<g id="a_edge2_Node000001_Node000003"><a xlink:title=" ">
<path fill="none" stroke="#63b8ff" d="M119.46,-54.95C127.75,-46.67 138.18,-36.27 146.84,-27.62"/>
<polygon fill="#63b8ff" stroke="#63b8ff" points="149.1,-30.31 153.71,-20.77 144.16,-25.36 149.1,-30.31"/>
</a>
</g>
</g>
</g>
</svg>
