<?xml version="1.0" encoding="UTF-8" standalone="no"?>
<!DOCTYPE svg PUBLIC "-//W3C//DTD SVG 1.1//EN"
 "http://www.w3.org/Graphics/SVG/1.1/DTD/svg11.dtd">
<!-- Generated by graphviz version 12.2.1 (20241206.2353)
 -->
<!-- Title: include/widgets/TextLabelWidget.h Pages: 1 -->
<svg width="1226pt" height="227pt"
 viewBox="0.00 0.00 1225.50 226.75" xmlns="http://www.w3.org/2000/svg" xmlns:xlink="http://www.w3.org/1999/xlink">
<g id="graph0" class="graph" transform="scale(1 1) rotate(0) translate(4 222.75)">
<title>include/widgets/TextLabelWidget.h</title>
<!-- Node1 -->
<g id="Node000001" class="node">
<title>Node1</title>
<g id="a_Node000001"><a xlink:title="Displays static or dynamic text labels on the OLED UI.">
<polygon fill="#999999" stroke="#666666" points="617.38,-218.75 488.88,-218.75 488.88,-188.25 617.38,-188.25 617.38,-218.75"/>
<text text-anchor="start" x="496.88" y="-205.25" font-family="Helvetica,sans-Serif" font-size="10.00">include/widgets/TextLabel</text>
<text text-anchor="middle" x="553.12" y="-194" font-family="Helvetica,sans-Serif" font-size="10.00">Widget.h</text>
</a>
</g>
</g>
<!-- Node2 -->
<g id="Node000002" class="node">
<title>Node2</title>
<g id="a_Node000002"><a xlink:href="_controls_test_screen_8h.html" target="_top" xlink:title="Diagnostic screen for visualizing the state of all physical controls.">
<polygon fill="white" stroke="#666666" points="270.12,-152.25 146.12,-152.25 146.12,-121.75 270.12,-121.75 270.12,-152.25"/>
<text text-anchor="start" x="154.12" y="-138.75" font-family="Helvetica,sans-Serif" font-size="10.00">include/screens/Controls</text>
<text text-anchor="middle" x="208.12" y="-127.5" font-family="Helvetica,sans-Serif" font-size="10.00">TestScreen.h</text>
</a>
</g>
</g>
<!-- Node1&#45;&gt;Node2 -->
<g id="edge1_Node000001_Node000002" class="edge">
<title>Node1&#45;&gt;Node2</title>
<g id="a_edge1_Node000001_Node000002"><a xlink:title=" ">
<path fill="none" stroke="#63b8ff" d="M477.26,-188.34C423.37,-178.28 349.3,-164.45 284.12,-152.25 279.64,-151.41 275,-150.54 270.34,-149.67"/>
<polygon fill="#63b8ff" stroke="#63b8ff" points="476.48,-191.76 486.95,-190.15 477.77,-184.88 476.48,-191.76"/>
</a>
</g>
</g>
<!-- Node6 -->
<g id="Node000006" class="node">
<title>Node6</title>
<g id="a_Node000006"><a xlink:href="_controls_test_screen_8cpp.html" target="_top" xlink:title="Implements a screen for testing all physical controls: knobs, buttons, and encoder.">
<polygon fill="white" stroke="#666666" points="316.88,-85.75 191.38,-85.75 191.38,-55.25 316.88,-55.25 316.88,-85.75"/>
<text text-anchor="start" x="199.38" y="-72.25" font-family="Helvetica,sans-Serif" font-size="10.00">src/screens/ControlsTest</text>
<text text-anchor="middle" x="254.12" y="-61" font-family="Helvetica,sans-Serif" font-size="10.00">Screen.cpp</text>
</a>
</g>
</g>
<!-- Node1&#45;&gt;Node6 -->
<g id="edge11_Node000001_Node000006" class="edge">
<title>Node1&#45;&gt;Node6</title>
<g id="a_edge11_Node000001_Node000006"><a xlink:title=" ">
<path fill="none" stroke="#63b8ff" d="M477.41,-199.58C428.5,-194.66 365.23,-182.34 317.12,-152.25 290.9,-135.84 271.22,-104.43 261.3,-86"/>
<polygon fill="#63b8ff" stroke="#63b8ff" points="476.79,-203.04 487.06,-200.47 477.42,-196.07 476.79,-203.04"/>
</a>
</g>
</g>
<!-- Node7 -->
<g id="Node000007" class="node">
<title>Node7</title>
<g id="a_Node000007"><a xlink:href="_shared_control_screen_utility_8h.html" target="_top" xlink:title="Provides utility functions for initializing common screen layouts.">
<polygon fill="white" stroke="#666666" points="475.88,-152.25 326.38,-152.25 326.38,-121.75 475.88,-121.75 475.88,-152.25"/>
<text text-anchor="start" x="334.38" y="-138.75" font-family="Helvetica,sans-Serif" font-size="10.00">include/screens/SharedControl</text>
<text text-anchor="middle" x="401.12" y="-127.5" font-family="Helvetica,sans-Serif" font-size="10.00">ScreenUtility.h</text>
</a>
</g>
</g>
<!-- Node1&#45;&gt;Node7 -->
<g id="edge6_Node000001_Node000007" class="edge">
<title>Node1&#45;&gt;Node7</title>
<g id="a_edge6_Node000001_Node000007"><a xlink:title=" ">
<path fill="none" stroke="#63b8ff" d="M508.35,-183.5C485.15,-173.66 457.26,-161.82 435.74,-152.69"/>
<polygon fill="#63b8ff" stroke="#63b8ff" points="506.67,-186.59 517.24,-187.27 509.4,-180.14 506.67,-186.59"/>
</a>
</g>
</g>
<!-- Node8 -->
<g id="Node000008" class="node">
<title>Node8</title>
<g id="a_Node000008"><a xlink:href="_config_screen_8cpp.html" target="_top" xlink:title="Implements the configuration screen for knob mapping and diagnostics.">
<polygon fill="white" stroke="#666666" points="633.12,-80.12 485.12,-80.12 485.12,-60.88 633.12,-60.88 633.12,-80.12"/>
<text text-anchor="middle" x="559.12" y="-66.62" font-family="Helvetica,sans-Serif" font-size="10.00">src/screens/ConfigScreen.cpp</text>
</a>
</g>
</g>
<!-- Node1&#45;&gt;Node8 -->
<g id="edge10_Node000001_Node000008" class="edge">
<title>Node1&#45;&gt;Node8</title>
<g id="a_edge10_Node000001_Node000008"><a xlink:title=" ">
<path fill="none" stroke="#63b8ff" d="M535.37,-178.72C530.41,-170.72 525.67,-161.48 523.12,-152.25 519.52,-139.18 518.98,-134.66 523.12,-121.75 528.38,-105.4 541.13,-89.86 549.95,-80.5"/>
<polygon fill="#63b8ff" stroke="#63b8ff" points="532.33,-180.46 540.8,-186.83 538.15,-176.57 532.33,-180.46"/>
</a>
</g>
</g>
<!-- Node10 -->
<g id="Node000010" class="node">
<title>Node10</title>
<g id="a_Node000010"><a xlink:href="_direct_command_screen_8cpp.html" target="_top" xlink:title="Implements a screen for sending raw parameter/value commands to the synthesizer.">
<polygon fill="white" stroke="#666666" points="673.75,-152.25 532.5,-152.25 532.5,-121.75 673.75,-121.75 673.75,-152.25"/>
<text text-anchor="start" x="540.5" y="-138.75" font-family="Helvetica,sans-Serif" font-size="10.00">src/screens/DirectCommand</text>
<text text-anchor="middle" x="603.12" y="-127.5" font-family="Helvetica,sans-Serif" font-size="10.00">Screen.cpp</text>
</a>
</g>
</g>
<!-- Node1&#45;&gt;Node10 -->
<g id="edge12_Node000001_Node000010" class="edge">
<title>Node1&#45;&gt;Node10</title>
<g id="a_edge12_Node000001_Node000010"><a xlink:title=" ">
<path fill="none" stroke="#63b8ff" d="M571.48,-178.82C578.3,-170.03 585.82,-160.32 591.82,-152.58"/>
<polygon fill="#63b8ff" stroke="#63b8ff" points="568.76,-176.62 565.4,-186.67 574.29,-180.91 568.76,-176.62"/>
</a>
</g>
</g>
<!-- Node11 -->
<g id="Node000011" class="node">
<title>Node11</title>
<g id="a_Node000011"><a xlink:href="_knob_config_dialog_8cpp.html" target="_top" xlink:title=" ">
<polygon fill="white" stroke="#666666" points="858.88,-146.62 691.38,-146.62 691.38,-127.38 858.88,-127.38 858.88,-146.62"/>
<text text-anchor="middle" x="775.12" y="-133.12" font-family="Helvetica,sans-Serif" font-size="10.00">src/screens/KnobConfigDialog.cpp</text>
</a>
</g>
</g>
<!-- Node1&#45;&gt;Node11 -->
<g id="edge13_Node000001_Node000011" class="edge">
<title>Node1&#45;&gt;Node11</title>
<g id="a_edge13_Node000001_Node000011"><a xlink:title=" ">
<path fill="none" stroke="#63b8ff" d="M614.72,-184.6C656.68,-172.41 710.48,-156.78 743.87,-147.08"/>
<polygon fill="#63b8ff" stroke="#63b8ff" points="613.86,-181.21 605.23,-187.36 615.81,-187.93 613.86,-181.21"/>
</a>
</g>
</g>
<!-- Node12 -->
<g id="Node000012" class="node">
<title>Node12</title>
<g id="a_Node000012"><a xlink:href="_run_mode_screen_8cpp.html" target="_top" xlink:title="Implements the screen for displaying and managing widgets during normal controller operation.">
<polygon fill="white" stroke="#666666" points="1038.88,-146.62 877.38,-146.62 877.38,-127.38 1038.88,-127.38 1038.88,-146.62"/>
<text text-anchor="middle" x="958.12" y="-133.12" font-family="Helvetica,sans-Serif" font-size="10.00">src/screens/RunModeScreen.cpp</text>
</a>
</g>
</g>
<!-- Node1&#45;&gt;Node12 -->
<g id="edge14_Node000001_Node000012" class="edge">
<title>Node1&#45;&gt;Node12</title>
<g id="a_edge14_Node000001_Node000012"><a xlink:title=" ">
<path fill="none" stroke="#63b8ff" d="M629.07,-190.4C708.01,-177.83 829.77,-158.44 900.94,-147.11"/>
<polygon fill="#63b8ff" stroke="#63b8ff" points="628.57,-186.94 619.24,-191.97 629.67,-193.85 628.57,-186.94"/>
</a>
</g>
</g>
<!-- Node13 -->
<g id="Node000013" class="node">
<title>Node13</title>
<g id="a_Node000013"><a xlink:href="_text_label_widget_8cpp.html" target="_top" xlink:title="Implements the TextLabelWidget class for displaying static text labels in the UI.">
<polygon fill="white" stroke="#666666" points="1217.5,-146.62 1056.75,-146.62 1056.75,-127.38 1217.5,-127.38 1217.5,-146.62"/>
<text text-anchor="middle" x="1137.12" y="-133.12" font-family="Helvetica,sans-Serif" font-size="10.00">src/widgets/TextLabelWidget.cpp</text>
</a>
</g>
</g>
<!-- Node1&#45;&gt;Node13 -->
<g id="edge15_Node000001_Node000013" class="edge">
<title>Node1&#45;&gt;Node13</title>
<g id="a_edge15_Node000001_Node000013"><a xlink:title=" ">
<path fill="none" stroke="#63b8ff" d="M628.92,-196.17C726.18,-187.74 900.03,-171.61 1048.12,-152.25 1059.61,-150.75 1071.89,-148.93 1083.55,-147.09"/>
<polygon fill="#63b8ff" stroke="#63b8ff" points="628.9,-192.66 619.24,-197.01 629.5,-199.63 628.9,-192.66"/>
</a>
</g>
</g>
<!-- Node3 -->
<g id="Node000003" class="node">
<title>Node3</title>
<g id="a_Node000003"><a xlink:href="_controls_test_mode_8h.html" target="_top" xlink:title="Application mode for verifying control inputs in real&#45;time.">
<polygon fill="white" stroke="#666666" points="172.88,-85.75 35.38,-85.75 35.38,-55.25 172.88,-55.25 172.88,-85.75"/>
<text text-anchor="start" x="43.38" y="-72.25" font-family="Helvetica,sans-Serif" font-size="10.00">include/modes/ControlsTest</text>
<text text-anchor="middle" x="104.12" y="-61" font-family="Helvetica,sans-Serif" font-size="10.00">Mode.h</text>
</a>
</g>
</g>
<!-- Node2&#45;&gt;Node3 -->
<g id="edge2_Node000002_Node000003" class="edge">
<title>Node2&#45;&gt;Node3</title>
<g id="a_edge2_Node000002_Node000003"><a xlink:title=" ">
<path fill="none" stroke="#63b8ff" d="M174.85,-115.36C159.47,-105.83 141.58,-94.73 127.63,-86.08"/>
<polygon fill="#63b8ff" stroke="#63b8ff" points="172.9,-118.27 183.24,-120.57 176.59,-112.32 172.9,-118.27"/>
</a>
</g>
</g>
<!-- Node2&#45;&gt;Node6 -->
<g id="edge5_Node000002_Node000006" class="edge">
<title>Node2&#45;&gt;Node6</title>
<g id="a_edge5_Node000002_Node000006"><a xlink:title=" ">
<path fill="none" stroke="#63b8ff" d="M225.21,-112.04C231.43,-103.32 238.27,-93.74 243.73,-86.08"/>
<polygon fill="#63b8ff" stroke="#63b8ff" points="222.4,-109.96 219.44,-120.13 228.1,-114.02 222.4,-109.96"/>
</a>
</g>
</g>
<!-- Node4 -->
<g id="Node000004" class="node">
<title>Node4</title>
<g id="a_Node000004"><a xlink:href="main_8cpp.html" target="_top" xlink:title="Entry point for the JMR800&#45;V2 firmware.">
<polygon fill="white" stroke="#666666" points="72.25,-19.25 0,-19.25 0,0 72.25,0 72.25,-19.25"/>
<text text-anchor="middle" x="36.12" y="-5.75" font-family="Helvetica,sans-Serif" font-size="10.00">src/main.cpp</text>
</a>
</g>
</g>
<!-- Node3&#45;&gt;Node4 -->
<g id="edge3_Node000003_Node000004" class="edge">
<title>Node3&#45;&gt;Node4</title>
<g id="a_edge3_Node000003_Node000004"><a xlink:title=" ">
<path fill="none" stroke="#63b8ff" d="M78.77,-47.55C67.63,-37.9 55.17,-27.11 46.61,-19.7"/>
<polygon fill="#63b8ff" stroke="#63b8ff" points="76.32,-50.06 86.17,-53.96 80.9,-44.76 76.32,-50.06"/>
</a>
</g>
</g>
<!-- Node5 -->
<g id="Node000005" class="node">
<title>Node5</title>
<g id="a_Node000005"><a xlink:href="_controls_test_mode_8cpp.html" target="_top" xlink:title="Implements the Controls Test Mode for button interaction diagnostics.">
<polygon fill="white" stroke="#666666" points="253.62,-19.25 90.62,-19.25 90.62,0 253.62,0 253.62,-19.25"/>
<text text-anchor="middle" x="172.12" y="-5.75" font-family="Helvetica,sans-Serif" font-size="10.00">src/modes/ControlsTestMode.cpp</text>
</a>
</g>
</g>
<!-- Node3&#45;&gt;Node5 -->
<g id="edge4_Node000003_Node000005" class="edge">
<title>Node3&#45;&gt;Node5</title>
<g id="a_edge4_Node000003_Node000005"><a xlink:title=" ">
<path fill="none" stroke="#63b8ff" d="M129.48,-47.55C140.62,-37.9 153.08,-27.11 161.64,-19.7"/>
<polygon fill="#63b8ff" stroke="#63b8ff" points="127.35,-44.76 122.08,-53.96 131.93,-50.06 127.35,-44.76"/>
</a>
</g>
</g>
<!-- Node7&#45;&gt;Node6 -->
<g id="edge8_Node000007_Node000006" class="edge">
<title>Node7&#45;&gt;Node6</title>
<g id="a_edge8_Node000007_Node000006"><a xlink:title=" ">
<path fill="none" stroke="#63b8ff" d="M357.52,-116.87C335.15,-107.05 308.32,-95.28 287.6,-86.19"/>
<polygon fill="#63b8ff" stroke="#63b8ff" points="355.82,-119.94 366.38,-120.76 358.63,-113.53 355.82,-119.94"/>
</a>
</g>
</g>
<!-- Node7&#45;&gt;Node8 -->
<g id="edge7_Node000007_Node000008" class="edge">
<title>Node7&#45;&gt;Node8</title>
<g id="a_edge7_Node000007_Node000008"><a xlink:title=" ">
<path fill="none" stroke="#63b8ff" d="M447.49,-117.07C477.03,-105.01 513.96,-89.94 537.05,-80.51"/>
<polygon fill="#63b8ff" stroke="#63b8ff" points="446.31,-113.77 438.38,-120.79 448.96,-120.25 446.31,-113.77"/>
</a>
</g>
</g>
<!-- Node9 -->
<g id="Node000009" class="node">
<title>Node9</title>
<g id="a_Node000009"><a xlink:href="_shared_control_screen_utility_8cpp.html" target="_top" xlink:title="Provides layout helper utilities for constructing shared UI control screens.">
<polygon fill="white" stroke="#666666" points="467.25,-85.75 335,-85.75 335,-55.25 467.25,-55.25 467.25,-85.75"/>
<text text-anchor="start" x="343" y="-72.25" font-family="Helvetica,sans-Serif" font-size="10.00">src/screens/SharedControl</text>
<text text-anchor="middle" x="401.12" y="-61" font-family="Helvetica,sans-Serif" font-size="10.00">ScreenUtility.cpp</text>
</a>
</g>
</g>
<!-- Node7&#45;&gt;Node9 -->
<g id="edge9_Node000007_Node000009" class="edge">
<title>Node7&#45;&gt;Node9</title>
<g id="a_edge9_Node000007_Node000009"><a xlink:title=" ">
<path fill="none" stroke="#63b8ff" d="M401.12,-110.06C401.12,-101.89 401.12,-93.16 401.12,-86.08"/>
<polygon fill="#63b8ff" stroke="#63b8ff" points="397.63,-109.85 401.13,-119.85 404.63,-109.85 397.63,-109.85"/>
</a>
</g>
</g>
</g>
</svg>
