<?xml version="1.0" encoding="UTF-8" standalone="no"?>
<!DOCTYPE svg PUBLIC "-//W3C//DTD SVG 1.1//EN"
 "http://www.w3.org/Graphics/SVG/1.1/DTD/svg11.dtd">
<!-- Generated by graphviz version 12.2.1 (20241206.2353)
 -->
<!-- Title: src/widgets/TextInputWidget.cpp Pages: 1 -->
<svg width="974pt" height="193pt"
 viewBox="0.00 0.00 974.12 193.00" xmlns="http://www.w3.org/2000/svg" xmlns:xlink="http://www.w3.org/1999/xlink">
<g id="graph0" class="graph" transform="scale(1 1) rotate(0) translate(4 189)">
<title>src/widgets/TextInputWidget.cpp</title>
<!-- Node1 -->
<g id="Node000001" class="node">
<title>Node1</title>
<g id="a_Node000001"><a xlink:title="Implements the TextInputWidget class, allowing user&#45;editable text display with cursor navigation.">
<polygon fill="#999999" stroke="#666666" points="364.5,-185 205.25,-185 205.25,-165.75 364.5,-165.75 364.5,-185"/>
<text text-anchor="middle" x="284.88" y="-171.5" font-family="Helvetica,sans-Serif" font-size="10.00">src/widgets/TextInputWidget.cpp</text>
</a>
</g>
</g>
<!-- Node2 -->
<g id="Node000002" class="node">
<title>Node2</title>
<g id="a_Node000002"><a xlink:href="_text_input_widget_8h.html" target="_top" xlink:title="Editable text input field for alphanumeric data entry on the OLED interface.">
<polygon fill="white" stroke="#666666" points="230,-129.75 97.75,-129.75 97.75,-110.5 230,-110.5 230,-129.75"/>
<text text-anchor="middle" x="163.88" y="-116.25" font-family="Helvetica,sans-Serif" font-size="10.00">widgets/TextInputWidget.h</text>
</a>
</g>
</g>
<!-- Node1&#45;&gt;Node2 -->
<g id="edge1_Node000001_Node000002" class="edge">
<title>Node1&#45;&gt;Node2</title>
<g id="a_edge1_Node000001_Node000002"><a xlink:title=" ">
<path fill="none" stroke="#63b8ff" d="M264.35,-165.34C245.31,-156.97 216.72,-144.38 194.9,-134.78"/>
<polygon fill="#63b8ff" stroke="#63b8ff" points="196.45,-131.64 185.89,-130.81 193.63,-138.04 196.45,-131.64"/>
</a>
</g>
</g>
<!-- Node3 -->
<g id="Node000003" class="node">
<title>Node3</title>
<g id="a_Node000003"><a xlink:href="_widget_8h.html" target="_top" xlink:title="Abstract base class for UI widgets in the JMR800&#45;V2 OLED interface.">
<polygon fill="white" stroke="#666666" points="91.75,-74.5 0,-74.5 0,-55.25 91.75,-55.25 91.75,-74.5"/>
<text text-anchor="middle" x="45.88" y="-61" font-family="Helvetica,sans-Serif" font-size="10.00">widgets/Widget.h</text>
</a>
</g>
</g>
<!-- Node1&#45;&gt;Node3 -->
<g id="edge4_Node000001_Node000003" class="edge">
<title>Node1&#45;&gt;Node3</title>
<g id="a_edge4_Node000001_Node000003"><a xlink:title=" ">
<path fill="none" stroke="#63b8ff" d="M205.02,-169.76C167.13,-164.34 122.84,-153.04 88.88,-129.75 72.87,-118.77 61.19,-99.7 54.07,-85.25"/>
<polygon fill="#63b8ff" stroke="#63b8ff" points="57.31,-83.91 49.98,-76.27 50.94,-86.82 57.31,-83.91"/>
</a>
</g>
</g>
<!-- Node4 -->
<g id="Node000004" class="node">
<title>Node4</title>
<g id="a_Node000004"><a xlink:href="_i_widget_nav_handler_8h.html" target="_top" xlink:title="Interface for handling horizontal navigation events between UI widgets.">
<polygon fill="white" stroke="#666666" points="218.38,-74.5 109.38,-74.5 109.38,-55.25 218.38,-55.25 218.38,-74.5"/>
<text text-anchor="middle" x="163.88" y="-61" font-family="Helvetica,sans-Serif" font-size="10.00">IWidgetNavHandler.h</text>
</a>
</g>
</g>
<!-- Node1&#45;&gt;Node4 -->
<g id="edge21_Node000001_Node000004" class="edge">
<title>Node1&#45;&gt;Node4</title>
<g id="a_edge21_Node000001_Node000004"><a xlink:title=" ">
<path fill="none" stroke="#63b8ff" d="M280.16,-165.66C272.73,-152.5 257.21,-127.3 238.88,-110.5 225.57,-98.31 208.41,-87.8 193.87,-80.05"/>
<polygon fill="#63b8ff" stroke="#63b8ff" points="195.67,-77.05 185.18,-75.6 192.48,-83.28 195.67,-77.05"/>
</a>
</g>
</g>
<!-- Node5 -->
<g id="Node000005" class="node">
<title>Node5</title>
<g id="a_Node000005"><a xlink:href="_screen_manager_8h.html" target="_top" xlink:title="Declares the ScreenManager class responsible for UI screen control on the OLED display.">
<polygon fill="white" stroke="#666666" points="851.75,-129.75 760,-129.75 760,-110.5 851.75,-110.5 851.75,-129.75"/>
<text text-anchor="middle" x="805.88" y="-116.25" font-family="Helvetica,sans-Serif" font-size="10.00">ScreenManager.h</text>
</a>
</g>
</g>
<!-- Node1&#45;&gt;Node5 -->
<g id="edge5_Node000001_Node000005" class="edge">
<title>Node1&#45;&gt;Node5</title>
<g id="a_edge5_Node000001_Node000005"><a xlink:title=" ">
<path fill="none" stroke="#63b8ff" d="M364.85,-166.2C470.83,-155.37 655.2,-136.52 748.41,-127"/>
<polygon fill="#63b8ff" stroke="#63b8ff" points="748.49,-130.51 758.08,-126.01 747.78,-123.54 748.49,-130.51"/>
</a>
</g>
</g>
<!-- Node8 -->
<g id="Node000008" class="node">
<title>Node8</title>
<g id="a_Node000008"><a xlink:href="_logging_8h.html" target="_top" xlink:title="Lightweight logging utility for serial output in the JMR800&#45;V2 project.">
<polygon fill="white" stroke="#666666" points="332.88,-74.5 274.88,-74.5 274.88,-55.25 332.88,-55.25 332.88,-74.5"/>
<text text-anchor="middle" x="303.88" y="-61" font-family="Helvetica,sans-Serif" font-size="10.00">Logging.h</text>
</a>
</g>
</g>
<!-- Node1&#45;&gt;Node8 -->
<g id="edge8_Node000001_Node000008" class="edge">
<title>Node1&#45;&gt;Node8</title>
<g id="a_edge8_Node000001_Node000008"><a xlink:title=" ">
<path fill="none" stroke="#63b8ff" d="M286.43,-165.5C289.45,-148.25 296.18,-109.83 300.34,-86.06"/>
<polygon fill="#63b8ff" stroke="#63b8ff" points="303.76,-86.82 302.04,-76.37 296.87,-85.61 303.76,-86.82"/>
</a>
</g>
</g>
<!-- Node11 -->
<g id="Node000011" class="node">
<title>Node11</title>
<g id="a_Node000011"><a xlink:href="_hardware_manager_8h.html" target="_top" xlink:title="Manages hardware input/output for analog controls, digital buttons, encoder, and serial communication...">
<polygon fill="white" stroke="#666666" points="522.38,-129.75 419.38,-129.75 419.38,-110.5 522.38,-110.5 522.38,-129.75"/>
<text text-anchor="middle" x="470.88" y="-116.25" font-family="Helvetica,sans-Serif" font-size="10.00">HardwareManager.h</text>
</a>
</g>
</g>
<!-- Node1&#45;&gt;Node11 -->
<g id="edge11_Node000001_Node000011" class="edge">
<title>Node1&#45;&gt;Node11</title>
<g id="a_edge11_Node000001_Node000011"><a xlink:title=" ">
<path fill="none" stroke="#63b8ff" d="M316.43,-165.34C347.16,-156.54 394.09,-143.11 428.15,-133.36"/>
<polygon fill="#63b8ff" stroke="#63b8ff" points="429.06,-136.74 437.71,-130.62 427.14,-130.01 429.06,-136.74"/>
</a>
</g>
</g>
<!-- Node2&#45;&gt;Node3 -->
<g id="edge2_Node000002_Node000003" class="edge">
<title>Node2&#45;&gt;Node3</title>
<g id="a_edge2_Node000002_Node000003"><a xlink:title=" ">
<path fill="none" stroke="#63b8ff" d="M143.86,-110.09C125.38,-101.75 97.67,-89.25 76.43,-79.66"/>
<polygon fill="#63b8ff" stroke="#63b8ff" points="77.92,-76.5 67.37,-75.58 75.05,-82.88 77.92,-76.5"/>
</a>
</g>
</g>
<!-- Node2&#45;&gt;Node4 -->
<g id="edge3_Node000002_Node000004" class="edge">
<title>Node2&#45;&gt;Node4</title>
<g id="a_edge3_Node000002_Node000004"><a xlink:title=" ">
<path fill="none" stroke="#63b8ff" d="M163.88,-110.33C163.88,-103.82 163.88,-94.67 163.88,-86.37"/>
<polygon fill="#63b8ff" stroke="#63b8ff" points="167.38,-86.37 163.88,-76.37 160.38,-86.37 167.38,-86.37"/>
</a>
</g>
</g>
<!-- Node6 -->
<g id="Node000006" class="node">
<title>Node6</title>
<g id="a_Node000006"><a xlink:title=" ">
<polygon fill="#e0e0e0" stroke="#999999" points="855.88,-74.5 755.88,-74.5 755.88,-55.25 855.88,-55.25 855.88,-74.5"/>
<text text-anchor="middle" x="805.88" y="-61" font-family="Helvetica,sans-Serif" font-size="10.00">Adafruit_SH110X.h</text>
</a>
</g>
</g>
<!-- Node5&#45;&gt;Node6 -->
<g id="edge6_Node000005_Node000006" class="edge">
<title>Node5&#45;&gt;Node6</title>
<g id="a_edge6_Node000005_Node000006"><a xlink:title=" ">
<path fill="none" stroke="#63b8ff" d="M805.88,-110.33C805.88,-103.82 805.88,-94.67 805.88,-86.37"/>
<polygon fill="#63b8ff" stroke="#63b8ff" points="809.38,-86.37 805.88,-76.37 802.38,-86.37 809.38,-86.37"/>
</a>
</g>
</g>
<!-- Node7 -->
<g id="Node000007" class="node">
<title>Node7</title>
<g id="a_Node000007"><a xlink:href="_screen_8h.html" target="_top" xlink:title="Abstract interface for all UI screens in the JMR800&#45;V2 system.">
<polygon fill="white" stroke="#666666" points="966.12,-74.5 873.62,-74.5 873.62,-55.25 966.12,-55.25 966.12,-74.5"/>
<text text-anchor="middle" x="919.88" y="-61" font-family="Helvetica,sans-Serif" font-size="10.00">screens/Screen.h</text>
</a>
</g>
</g>
<!-- Node5&#45;&gt;Node7 -->
<g id="edge7_Node000005_Node000007" class="edge">
<title>Node5&#45;&gt;Node7</title>
<g id="a_edge7_Node000005_Node000007"><a xlink:title=" ">
<path fill="none" stroke="#63b8ff" d="M825.21,-110.09C842.98,-101.79 869.59,-89.36 890.08,-79.79"/>
<polygon fill="#63b8ff" stroke="#63b8ff" points="891.49,-83 899.07,-75.59 888.53,-76.65 891.49,-83"/>
</a>
</g>
</g>
<!-- Node9 -->
<g id="Node000009" class="node">
<title>Node9</title>
<g id="a_Node000009"><a xlink:title=" ">
<polygon fill="#e0e0e0" stroke="#999999" points="485.5,-19.25 428.25,-19.25 428.25,0 485.5,0 485.5,-19.25"/>
<text text-anchor="middle" x="456.88" y="-5.75" font-family="Helvetica,sans-Serif" font-size="10.00">Arduino.h</text>
</a>
</g>
</g>
<!-- Node8&#45;&gt;Node9 -->
<g id="edge9_Node000008_Node000009" class="edge">
<title>Node8&#45;&gt;Node9</title>
<g id="a_edge9_Node000008_Node000009"><a xlink:title=" ">
<path fill="none" stroke="#63b8ff" d="M329.83,-54.84C354.67,-46.2 392.37,-33.07 420.26,-23.37"/>
<polygon fill="#63b8ff" stroke="#63b8ff" points="421.07,-26.79 429.36,-20.2 418.77,-20.18 421.07,-26.79"/>
</a>
</g>
</g>
<!-- Node10 -->
<g id="Node000010" class="node">
<title>Node10</title>
<g id="a_Node000010"><a xlink:href="defines_8h.html" target="_top" xlink:title="Hardware pin definitions and global constants for JMR800&#45;V2.">
<polygon fill="white" stroke="#666666" points="302.75,-19.25 247,-19.25 247,0 302.75,0 302.75,-19.25"/>
<text text-anchor="middle" x="274.88" y="-5.75" font-family="Helvetica,sans-Serif" font-size="10.00">defines.h</text>
</a>
</g>
</g>
<!-- Node8&#45;&gt;Node10 -->
<g id="edge10_Node000008_Node000010" class="edge">
<title>Node8&#45;&gt;Node10</title>
<g id="a_edge10_Node000008_Node000010"><a xlink:title=" ">
<path fill="none" stroke="#63b8ff" d="M299.09,-55.08C295.33,-48.19 289.97,-38.34 285.24,-29.66"/>
<polygon fill="#63b8ff" stroke="#63b8ff" points="288.35,-28.05 280.49,-20.94 282.2,-31.39 288.35,-28.05"/>
</a>
</g>
</g>
<!-- Node11&#45;&gt;Node6 -->
<g id="edge14_Node000011_Node000006" class="edge">
<title>Node11&#45;&gt;Node6</title>
<g id="a_edge14_Node000011_Node000006"><a xlink:title=" ">
<path fill="none" stroke="#63b8ff" d="M522.85,-110.86C582.66,-101.36 680.8,-85.76 744.36,-75.65"/>
<polygon fill="#63b8ff" stroke="#63b8ff" points="744.6,-79.16 753.93,-74.13 743.5,-72.25 744.6,-79.16"/>
</a>
</g>
</g>
<!-- Node11&#45;&gt;Node8 -->
<g id="edge20_Node000011_Node000008" class="edge">
<title>Node11&#45;&gt;Node8</title>
<g id="a_edge20_Node000011_Node000008"><a xlink:title=" ">
<path fill="none" stroke="#63b8ff" d="M442.55,-110.09C415.2,-101.37 373.55,-88.09 343.04,-78.36"/>
<polygon fill="#63b8ff" stroke="#63b8ff" points="344.38,-75.12 333.79,-75.41 342.25,-81.78 344.38,-75.12"/>
</a>
</g>
</g>
<!-- Node11&#45;&gt;Node9 -->
<g id="edge12_Node000011_Node000009" class="edge">
<title>Node11&#45;&gt;Node9</title>
<g id="a_edge12_Node000011_Node000009"><a xlink:title=" ">
<path fill="none" stroke="#63b8ff" d="M497.21,-110.15C524.39,-99.33 560.88,-79.55 545.88,-55.25 535.07,-37.75 515.09,-26.88 496.79,-20.25"/>
<polygon fill="#63b8ff" stroke="#63b8ff" points="498.03,-16.98 487.44,-17.21 495.86,-23.63 498.03,-16.98"/>
</a>
</g>
</g>
<!-- Node11&#45;&gt;Node10 -->
<g id="edge19_Node000011_Node000010" class="edge">
<title>Node11&#45;&gt;Node10</title>
<g id="a_edge19_Node000011_Node000010"><a xlink:title=" ">
<path fill="none" stroke="#63b8ff" d="M419.22,-115.14C364.92,-109.74 284.79,-97.97 265.88,-74.5 255.88,-62.1 259.77,-43.77 265.2,-29.92"/>
<polygon fill="#63b8ff" stroke="#63b8ff" points="268.32,-31.51 269.23,-20.95 261.94,-28.64 268.32,-31.51"/>
</a>
</g>
</g>
<!-- Node12 -->
<g id="Node000012" class="node">
<title>Node12</title>
<g id="a_Node000012"><a xlink:title=" ">
<polygon fill="#e0e0e0" stroke="#999999" points="737.62,-74.5 654.12,-74.5 654.12,-55.25 737.62,-55.25 737.62,-74.5"/>
<text text-anchor="middle" x="695.88" y="-61" font-family="Helvetica,sans-Serif" font-size="10.00">Adafruit_GFX.h</text>
</a>
</g>
</g>
<!-- Node11&#45;&gt;Node12 -->
<g id="edge13_Node000011_Node000012" class="edge">
<title>Node11&#45;&gt;Node12</title>
<g id="a_edge13_Node000011_Node000012"><a xlink:title=" ">
<path fill="none" stroke="#63b8ff" d="M509.3,-110.03C547.16,-101.07 605.17,-87.34 646.44,-77.57"/>
<polygon fill="#63b8ff" stroke="#63b8ff" points="647.21,-80.99 656.14,-75.28 645.6,-74.18 647.21,-80.99"/>
</a>
</g>
</g>
<!-- Node13 -->
<g id="Node000013" class="node">
<title>Node13</title>
<g id="a_Node000013"><a xlink:title=" ">
<polygon fill="#e0e0e0" stroke="#999999" points="395.12,-74.5 350.62,-74.5 350.62,-55.25 395.12,-55.25 395.12,-74.5"/>
<text text-anchor="middle" x="372.88" y="-61" font-family="Helvetica,sans-Serif" font-size="10.00">Wire.h</text>
</a>
</g>
</g>
<!-- Node11&#45;&gt;Node13 -->
<g id="edge15_Node000011_Node000013" class="edge">
<title>Node11&#45;&gt;Node13</title>
<g id="a_edge15_Node000011_Node000013"><a xlink:title=" ">
<path fill="none" stroke="#63b8ff" d="M454.25,-110.09C439.19,-101.91 416.73,-89.71 399.22,-80.19"/>
<polygon fill="#63b8ff" stroke="#63b8ff" points="401.37,-77.37 390.91,-75.68 398.03,-83.52 401.37,-77.37"/>
</a>
</g>
</g>
<!-- Node14 -->
<g id="Node000014" class="node">
<title>Node14</title>
<g id="a_Node000014"><a xlink:title=" ">
<polygon fill="#e0e0e0" stroke="#999999" points="458.88,-74.5 412.88,-74.5 412.88,-55.25 458.88,-55.25 458.88,-74.5"/>
<text text-anchor="middle" x="435.88" y="-61" font-family="Helvetica,sans-Serif" font-size="10.00">ADC.h</text>
</a>
</g>
</g>
<!-- Node11&#45;&gt;Node14 -->
<g id="edge16_Node000011_Node000014" class="edge">
<title>Node11&#45;&gt;Node14</title>
<g id="a_edge16_Node000011_Node000014"><a xlink:title=" ">
<path fill="none" stroke="#63b8ff" d="M465.1,-110.33C460.46,-103.28 453.8,-93.15 448.01,-84.33"/>
<polygon fill="#63b8ff" stroke="#63b8ff" points="451.03,-82.56 442.61,-76.12 445.18,-86.4 451.03,-82.56"/>
</a>
</g>
</g>
<!-- Node15 -->
<g id="Node000015" class="node">
<title>Node15</title>
<g id="a_Node000015"><a xlink:title=" ">
<polygon fill="#e0e0e0" stroke="#999999" points="536.62,-74.5 477.12,-74.5 477.12,-55.25 536.62,-55.25 536.62,-74.5"/>
<text text-anchor="middle" x="506.88" y="-61" font-family="Helvetica,sans-Serif" font-size="10.00">Encoder.h</text>
</a>
</g>
</g>
<!-- Node11&#45;&gt;Node15 -->
<g id="edge17_Node000011_Node000015" class="edge">
<title>Node11&#45;&gt;Node15</title>
<g id="a_edge17_Node000011_Node000015"><a xlink:title=" ">
<path fill="none" stroke="#63b8ff" d="M476.82,-110.33C481.59,-103.28 488.44,-93.15 494.4,-84.33"/>
<polygon fill="#63b8ff" stroke="#63b8ff" points="497.25,-86.36 499.95,-76.11 491.45,-82.44 497.25,-86.36"/>
</a>
</g>
</g>
<!-- Node16 -->
<g id="Node000016" class="node">
<title>Node16</title>
<g id="a_Node000016"><a xlink:title=" ">
<polygon fill="#e0e0e0" stroke="#999999" points="636.38,-74.5 593.38,-74.5 593.38,-55.25 636.38,-55.25 636.38,-74.5"/>
<text text-anchor="middle" x="614.88" y="-61" font-family="Helvetica,sans-Serif" font-size="10.00">vector</text>
</a>
</g>
</g>
<!-- Node11&#45;&gt;Node16 -->
<g id="edge18_Node000011_Node000016" class="edge">
<title>Node11&#45;&gt;Node16</title>
<g id="a_edge18_Node000011_Node000016"><a xlink:title=" ">
<path fill="none" stroke="#63b8ff" d="M495.3,-110.09C519.32,-101.21 556.11,-87.61 582.53,-77.83"/>
<polygon fill="#63b8ff" stroke="#63b8ff" points="583.57,-81.18 591.74,-74.43 581.15,-74.62 583.57,-81.18"/>
</a>
</g>
</g>
</g>
</svg>
