<?xml version="1.0" encoding="UTF-8" standalone="no"?>
<!DOCTYPE svg PUBLIC "-//W3C//DTD SVG 1.1//EN"
 "http://www.w3.org/Graphics/SVG/1.1/DTD/svg11.dtd">
<!-- Generated by graphviz version 12.2.1 (20241206.2353)
 -->
<!-- Title: PotentiometerKnobWidget::drawArrow Pages: 1 -->
<svg width="376pt" height="52pt"
 viewBox="0.00 0.00 375.55 51.88" xmlns="http://www.w3.org/2000/svg" xmlns:xlink="http://www.w3.org/1999/xlink">
<g id="graph0" class="graph" transform="scale(1 1) rotate(0) translate(4 47.88)">
<title>PotentiometerKnobWidget::drawArrow</title>
<!-- Node1 -->
<g id="Node000001" class="node">
<title>Node1</title>
<g id="a_Node000001"><a xlink:title="Draws the indicator arrow based on the knob&#39;s value.">
<polygon fill="#999999" stroke="#666666" points="130,-30.5 0,-30.5 0,0 130,0 130,-30.5"/>
<text text-anchor="start" x="8" y="-17" font-family="Helvetica,sans-Serif" font-size="10.00">PotentiometerKnobWidget</text>
<text text-anchor="middle" x="65" y="-5.75" font-family="Helvetica,sans-Serif" font-size="10.00">::drawArrow</text>
</a>
</g>
</g>
<!-- Node2 -->
<g id="Node000002" class="node">
<title>Node2</title>
<g id="a_Node000002"><a xlink:href="class_screen_manager.html#a218ba351496671649bed8c17be7910b1" target="_top" xlink:title="Provides access to the static OLED display instance.">
<polygon fill="white" stroke="#666666" points="302.75,-43.88 166,-43.88 166,-24.62 302.75,-24.62 302.75,-43.88"/>
<text text-anchor="middle" x="234.38" y="-30.38" font-family="Helvetica,sans-Serif" font-size="10.00">ScreenManager::getDisplay</text>
</a>
</g>
</g>
<!-- Node1&#45;&gt;Node2 -->
<g id="edge1_Node000001_Node000002" class="edge">
<title>Node1&#45;&gt;Node2</title>
<g id="a_edge1_Node000001_Node000002"><a xlink:title=" ">
<path fill="none" stroke="#63b8ff" d="M130.23,-22.54C138.13,-23.44 146.27,-24.36 154.35,-25.28"/>
<polygon fill="#63b8ff" stroke="#63b8ff" points="153.87,-28.75 164.2,-26.4 154.66,-21.79 153.87,-28.75"/>
</a>
</g>
</g>
<!-- Node3 -->
<g id="Node000003" class="node">
<title>Node3</title>
<g id="a_Node000003"><a xlink:href="_logging_8cpp.html#a32abad09d9f828a9805862e18ad5da5f" target="_top" xlink:title="Logs a message with an explicit log level.">
<polygon fill="white" stroke="#666666" points="367.55,-24.88 338.75,-24.88 338.75,-5.63 367.55,-5.63 367.55,-24.88"/>
<text text-anchor="middle" x="353.15" y="-11.38" font-family="Helvetica,sans-Serif" font-size="10.00">log</text>
</a>
</g>
</g>
<!-- Node1&#45;&gt;Node3 -->
<g id="edge3_Node000001_Node000003" class="edge">
<title>Node1&#45;&gt;Node3</title>
<g id="a_edge3_Node000001_Node000003"><a xlink:title=" ">
<path fill="none" stroke="#63b8ff" d="M130.22,-15.25C192.31,-15.25 283.21,-15.25 326.89,-15.25"/>
<polygon fill="#63b8ff" stroke="#63b8ff" points="326.85,-18.75 336.85,-15.25 326.85,-11.75 326.85,-18.75"/>
</a>
</g>
</g>
<!-- Node2&#45;&gt;Node3 -->
<g id="edge2_Node000002_Node000003" class="edge">
<title>Node2&#45;&gt;Node3</title>
<g id="a_edge2_Node000002_Node000003"><a xlink:title=" ">
<path fill="none" stroke="#63b8ff" d="M297.52,-24.14C308.04,-22.43 318.39,-20.74 327.2,-19.31"/>
<polygon fill="#63b8ff" stroke="#63b8ff" points="327.7,-22.77 337.01,-17.71 326.58,-15.87 327.7,-22.77"/>
</a>
</g>
</g>
</g>
</svg>
