<?xml version="1.0" encoding="UTF-8" standalone="no"?>
<!DOCTYPE svg PUBLIC "-//W3C//DTD SVG 1.1//EN"
 "http://www.w3.org/Graphics/SVG/1.1/DTD/svg11.dtd">
<!-- Generated by graphviz version 12.2.1 (20241206.2353)
 -->
<!-- Title: RunModeScreen::draw Pages: 1 -->
<svg width="361pt" height="46pt"
 viewBox="0.00 0.00 361.30 46.25" xmlns="http://www.w3.org/2000/svg" xmlns:xlink="http://www.w3.org/1999/xlink">
<g id="graph0" class="graph" transform="scale(1 1) rotate(0) translate(4 42.25)">
<title>RunModeScreen::draw</title>
<!-- Node1 -->
<g id="Node000001" class="node">
<title>Node1</title>
<g id="a_Node000001"><a xlink:title="Draws all widgets managed by this screen.">
<polygon fill="#999999" stroke="#666666" points="115.75,-19.25 0,-19.25 0,0 115.75,0 115.75,-19.25"/>
<text text-anchor="middle" x="57.88" y="-5.75" font-family="Helvetica,sans-Serif" font-size="10.00">RunModeScreen::draw</text>
</a>
</g>
</g>
<!-- Node2 -->
<g id="Node000002" class="node">
<title>Node2</title>
<g id="a_Node000002"><a xlink:href="class_screen_manager.html#a218ba351496671649bed8c17be7910b1" target="_top" xlink:title="Provides access to the static OLED display instance.">
<polygon fill="white" stroke="#666666" points="288.5,-38.25 151.75,-38.25 151.75,-19 288.5,-19 288.5,-38.25"/>
<text text-anchor="middle" x="220.12" y="-24.75" font-family="Helvetica,sans-Serif" font-size="10.00">ScreenManager::getDisplay</text>
</a>
</g>
</g>
<!-- Node1&#45;&gt;Node2 -->
<g id="edge1_Node000001_Node000002" class="edge">
<title>Node1&#45;&gt;Node2</title>
<g id="a_edge1_Node000001_Node000002"><a xlink:title=" ">
<path fill="none" stroke="#63b8ff" d="M115.82,-16.38C123.74,-17.32 131.99,-18.29 140.22,-19.27"/>
<polygon fill="#63b8ff" stroke="#63b8ff" points="139.55,-22.71 149.89,-20.42 140.38,-15.76 139.55,-22.71"/>
</a>
</g>
</g>
<!-- Node3 -->
<g id="Node000003" class="node">
<title>Node3</title>
<g id="a_Node000003"><a xlink:href="_logging_8cpp.html#a32abad09d9f828a9805862e18ad5da5f" target="_top" xlink:title="Logs a message with an explicit log level.">
<polygon fill="white" stroke="#666666" points="353.3,-19.25 324.5,-19.25 324.5,0 353.3,0 353.3,-19.25"/>
<text text-anchor="middle" x="338.9" y="-5.75" font-family="Helvetica,sans-Serif" font-size="10.00">log</text>
</a>
</g>
</g>
<!-- Node1&#45;&gt;Node3 -->
<g id="edge3_Node000001_Node000003" class="edge">
<title>Node1&#45;&gt;Node3</title>
<g id="a_edge3_Node000001_Node000003"><a xlink:title=" ">
<path fill="none" stroke="#63b8ff" d="M116.01,-9.62C176.36,-9.62 268.76,-9.62 312.83,-9.62"/>
<polygon fill="#63b8ff" stroke="#63b8ff" points="312.64,-13.13 322.64,-9.63 312.64,-6.13 312.64,-13.13"/>
</a>
</g>
</g>
<!-- Node2&#45;&gt;Node3 -->
<g id="edge2_Node000002_Node000003" class="edge">
<title>Node2&#45;&gt;Node3</title>
<g id="a_edge2_Node000002_Node000003"><a xlink:title=" ">
<path fill="none" stroke="#63b8ff" d="M283.27,-18.51C293.79,-16.8 304.14,-15.12 312.95,-13.68"/>
<polygon fill="#63b8ff" stroke="#63b8ff" points="313.45,-17.15 322.76,-12.09 312.33,-10.24 313.45,-17.15"/>
</a>
</g>
</g>
</g>
</svg>
