<?xml version="1.0" encoding="UTF-8" standalone="no"?>
<!DOCTYPE svg PUBLIC "-//W3C//DTD SVG 1.1//EN"
 "http://www.w3.org/Graphics/SVG/1.1/DTD/svg11.dtd">
<!-- Generated by graphviz version 12.2.1 (20241206.2353)
 -->
<!-- Title: ButtonWidget::handleInput Pages: 1 -->
<svg width="306pt" height="101pt"
 viewBox="0.00 0.00 306.25 101.25" xmlns="http://www.w3.org/2000/svg" xmlns:xlink="http://www.w3.org/1999/xlink">
<g id="graph0" class="graph" transform="scale(1 1) rotate(0) translate(4 97.25)">
<title>ButtonWidget::handleInput</title>
<!-- Node1 -->
<g id="Node000001" class="node">
<title>Node1</title>
<g id="a_Node000001"><a xlink:title="Handles user interaction (encoder press, etc.).">
<polygon fill="#999999" stroke="#666666" points="131.5,-56.25 0,-56.25 0,-37 131.5,-37 131.5,-56.25"/>
<text text-anchor="middle" x="65.75" y="-42.75" font-family="Helvetica,sans-Serif" font-size="10.00">ButtonWidget::handleInput</text>
</a>
</g>
</g>
<!-- Node2 -->
<g id="Node000002" class="node">
<title>Node2</title>
<g id="a_Node000002"><a xlink:href="_logging_8cpp.html#a32abad09d9f828a9805862e18ad5da5f" target="_top" xlink:title="Logs a message with an explicit log level.">
<polygon fill="white" stroke="#666666" points="247.28,-93.25 218.47,-93.25 218.47,-74 247.28,-74 247.28,-93.25"/>
<text text-anchor="middle" x="232.88" y="-79.75" font-family="Helvetica,sans-Serif" font-size="10.00">log</text>
</a>
</g>
</g>
<!-- Node1&#45;&gt;Node2 -->
<g id="edge1_Node000001_Node000002" class="edge">
<title>Node1&#45;&gt;Node2</title>
<g id="a_edge1_Node000001_Node000002"><a xlink:title=" ">
<path fill="none" stroke="#63b8ff" d="M111.87,-56.74C142.56,-63.61 182.01,-72.45 207.13,-78.08"/>
<polygon fill="#63b8ff" stroke="#63b8ff" points="206.2,-81.46 216.73,-80.23 207.73,-74.63 206.2,-81.46"/>
</a>
</g>
</g>
<!-- Node3 -->
<g id="Node000003" class="node">
<title>Node3</title>
<g id="a_Node000003"><a xlink:href="class_button_widget.html#a3096fff9b45d94556d37e1fa71b6cac6" target="_top" xlink:title="Sets the red and green LED states.">
<polygon fill="white" stroke="#666666" points="292.62,-56.25 173.12,-56.25 173.12,-37 292.62,-37 292.62,-56.25"/>
<text text-anchor="middle" x="232.88" y="-42.75" font-family="Helvetica,sans-Serif" font-size="10.00">ButtonWidget::setLEDs</text>
</a>
</g>
</g>
<!-- Node1&#45;&gt;Node3 -->
<g id="edge2_Node000001_Node000003" class="edge">
<title>Node1&#45;&gt;Node3</title>
<g id="a_edge2_Node000001_Node000003"><a xlink:title=" ">
<path fill="none" stroke="#63b8ff" d="M131.54,-46.62C141.28,-46.62 151.37,-46.62 161.22,-46.62"/>
<polygon fill="#63b8ff" stroke="#63b8ff" points="161.14,-50.13 171.14,-46.63 161.14,-43.13 161.14,-50.13"/>
</a>
</g>
</g>
<!-- Node4 -->
<g id="Node000004" class="node">
<title>Node4</title>
<g id="a_Node000004"><a xlink:href="class_button_widget.html#abb4b44395073628724d1379a5865d1f9" target="_top" xlink:title="Sets the pressed state of the button (visual feedback only).">
<polygon fill="white" stroke="#666666" points="298.25,-19.25 167.5,-19.25 167.5,0 298.25,0 298.25,-19.25"/>
<text text-anchor="middle" x="232.88" y="-5.75" font-family="Helvetica,sans-Serif" font-size="10.00">ButtonWidget::setPressed</text>
</a>
</g>
</g>
<!-- Node1&#45;&gt;Node4 -->
<g id="edge3_Node000001_Node000004" class="edge">
<title>Node1&#45;&gt;Node4</title>
<g id="a_edge3_Node000001_Node000004"><a xlink:title=" ">
<path fill="none" stroke="#63b8ff" d="M111.87,-36.51C131.62,-32.09 155,-26.85 175.85,-22.18"/>
<polygon fill="#63b8ff" stroke="#63b8ff" points="176.34,-25.66 185.33,-20.05 174.81,-18.83 176.34,-25.66"/>
</a>
</g>
</g>
</g>
</svg>
