<?xml version="1.0" encoding="UTF-8" standalone="no"?>
<!DOCTYPE svg PUBLIC "-//W3C//DTD SVG 1.1//EN"
 "http://www.w3.org/Graphics/SVG/1.1/DTD/svg11.dtd">
<!-- Generated by graphviz version 12.2.1 (20241206.2353)
 -->
<!-- Title: KnobWidget::drawBezel Pages: 1 -->
<svg width="367pt" height="27pt"
 viewBox="0.00 0.00 366.55 27.25" xmlns="http://www.w3.org/2000/svg" xmlns:xlink="http://www.w3.org/1999/xlink">
<g id="graph0" class="graph" transform="scale(1 1) rotate(0) translate(4 23.25)">
<title>KnobWidget::drawBezel</title>
<!-- Node1 -->
<g id="Node000001" class="node">
<title>Node1</title>
<g id="a_Node000001"><a xlink:title="Draws the circular bezel of the knob.">
<polygon fill="#999999" stroke="#666666" points="121,-19.25 0,-19.25 0,0 121,0 121,-19.25"/>
<text text-anchor="middle" x="60.5" y="-5.75" font-family="Helvetica,sans-Serif" font-size="10.00">KnobWidget::drawBezel</text>
</a>
</g>
</g>
<!-- Node2 -->
<g id="Node000002" class="node">
<title>Node2</title>
<g id="a_Node000002"><a xlink:href="class_screen_manager.html#a218ba351496671649bed8c17be7910b1" target="_top" xlink:title="Provides access to the static OLED display instance.">
<polygon fill="white" stroke="#666666" points="293.75,-19.25 157,-19.25 157,0 293.75,0 293.75,-19.25"/>
<text text-anchor="middle" x="225.38" y="-5.75" font-family="Helvetica,sans-Serif" font-size="10.00">ScreenManager::getDisplay</text>
</a>
</g>
</g>
<!-- Node1&#45;&gt;Node2 -->
<g id="edge1_Node000001_Node000002" class="edge">
<title>Node1&#45;&gt;Node2</title>
<g id="a_edge1_Node000001_Node000002"><a xlink:title=" ">
<path fill="none" stroke="#63b8ff" d="M121.22,-9.62C129.06,-9.62 137.19,-9.62 145.28,-9.62"/>
<polygon fill="#63b8ff" stroke="#63b8ff" points="145.16,-13.13 155.16,-9.63 145.16,-6.13 145.16,-13.13"/>
</a>
</g>
</g>
<!-- Node3 -->
<g id="Node000003" class="node">
<title>Node3</title>
<g id="a_Node000003"><a xlink:href="_logging_8cpp.html#a32abad09d9f828a9805862e18ad5da5f" target="_top" xlink:title="Logs a message with an explicit log level.">
<polygon fill="white" stroke="#666666" points="358.55,-19.25 329.75,-19.25 329.75,0 358.55,0 358.55,-19.25"/>
<text text-anchor="middle" x="344.15" y="-5.75" font-family="Helvetica,sans-Serif" font-size="10.00">log</text>
</a>
</g>
</g>
<!-- Node2&#45;&gt;Node3 -->
<g id="edge2_Node000002_Node000003" class="edge">
<title>Node2&#45;&gt;Node3</title>
<g id="a_edge2_Node000002_Node000003"><a xlink:title=" ">
<path fill="none" stroke="#63b8ff" d="M293.97,-9.62C302.52,-9.62 310.8,-9.62 318.06,-9.62"/>
<polygon fill="#63b8ff" stroke="#63b8ff" points="317.98,-13.13 327.98,-9.63 317.98,-6.13 317.98,-13.13"/>
</a>
</g>
</g>
</g>
</svg>
