<?xml version="1.0" encoding="UTF-8" standalone="no"?>
<!DOCTYPE svg PUBLIC "-//W3C//DTD SVG 1.1//EN"
 "http://www.w3.org/Graphics/SVG/1.1/DTD/svg11.dtd">
<!-- Generated by graphviz version 12.2.1 (20241206.2353)
 -->
<!-- Title: KnobWidget Pages: 1 -->
<svg width="262pt" height="138pt"
 viewBox="0.00 0.00 261.62 137.75" xmlns="http://www.w3.org/2000/svg" xmlns:xlink="http://www.w3.org/1999/xlink">
<g id="graph0" class="graph" transform="scale(1 1) rotate(0) translate(4 133.75)">
<title>KnobWidget</title>
<!-- Node1 -->
<g id="Node000001" class="node">
<title>Node1</title>
<g id="a_Node000001"><a xlink:title="Shared base class for rotary&#45;style knob widgets.">
<polygon fill="#999999" stroke="#666666" points="155.25,-74.5 86,-74.5 86,-55.25 155.25,-55.25 155.25,-74.5"/>
<text text-anchor="middle" x="120.62" y="-61" font-family="Helvetica,sans-Serif" font-size="10.00">KnobWidget</text>
</a>
</g>
</g>
<!-- Node3 -->
<g id="Node000003" class="node">
<title>Node3</title>
<g id="a_Node000003"><a xlink:href="class_encoder_knob_widget.html" target="_top" xlink:title="A knob&#45;style widget driven by encoder input rather than analog voltage.">
<polygon fill="white" stroke="#666666" points="105.25,-19.25 0,-19.25 0,0 105.25,0 105.25,-19.25"/>
<text text-anchor="middle" x="52.62" y="-5.75" font-family="Helvetica,sans-Serif" font-size="10.00">EncoderKnobWidget</text>
</a>
</g>
</g>
<!-- Node1&#45;&gt;Node3 -->
<g id="edge2_Node000001_Node000003" class="edge">
<title>Node1&#45;&gt;Node3</title>
<g id="a_edge2_Node000001_Node000003"><a xlink:title=" ">
<path fill="none" stroke="#63b8ff" d="M100.28,-47.94C88.4,-38.64 73.86,-27.26 63.99,-19.52"/>
<polygon fill="#63b8ff" stroke="#63b8ff" points="97.87,-50.5 107.9,-53.91 102.18,-44.99 97.87,-50.5"/>
</a>
</g>
</g>
<!-- Node4 -->
<g id="Node000004" class="node">
<title>Node4</title>
<g id="a_Node000004"><a xlink:href="class_potentiometer_knob_widget.html" target="_top" xlink:title="Widget for displaying and interacting with a hardware potentiometer.">
<polygon fill="white" stroke="#666666" points="253.62,-19.25 123.62,-19.25 123.62,0 253.62,0 253.62,-19.25"/>
<text text-anchor="middle" x="188.62" y="-5.75" font-family="Helvetica,sans-Serif" font-size="10.00">PotentiometerKnobWidget</text>
</a>
</g>
</g>
<!-- Node1&#45;&gt;Node4 -->
<g id="edge3_Node000001_Node000004" class="edge">
<title>Node1&#45;&gt;Node4</title>
<g id="a_edge3_Node000001_Node000004"><a xlink:title=" ">
<path fill="none" stroke="#63b8ff" d="M140.97,-47.94C152.85,-38.64 167.39,-27.26 177.26,-19.52"/>
<polygon fill="#63b8ff" stroke="#63b8ff" points="139.07,-44.99 133.35,-53.91 143.38,-50.5 139.07,-44.99"/>
</a>
</g>
</g>
<!-- Node2 -->
<g id="Node000002" class="node">
<title>Node2</title>
<g id="a_Node000002"><a xlink:href="class_widget.html" target="_top" xlink:title="Base class for all on&#45;screen widgets.">
<polygon fill="white" stroke="#666666" points="144,-129.75 97.25,-129.75 97.25,-110.5 144,-110.5 144,-129.75"/>
<text text-anchor="middle" x="120.62" y="-116.25" font-family="Helvetica,sans-Serif" font-size="10.00">Widget</text>
</a>
</g>
</g>
<!-- Node2&#45;&gt;Node1 -->
<g id="edge1_Node000001_Node000002" class="edge">
<title>Node2&#45;&gt;Node1</title>
<g id="a_edge1_Node000001_Node000002"><a xlink:title=" ">
<path fill="none" stroke="#63b8ff" d="M120.62,-98.88C120.62,-90.59 120.62,-81.42 120.62,-74.86"/>
<polygon fill="#63b8ff" stroke="#63b8ff" points="117.13,-98.82 120.63,-108.82 124.13,-98.82 117.13,-98.82"/>
</a>
</g>
</g>
</g>
</svg>
