<?xml version="1.0" encoding="UTF-8" standalone="no"?>
<!DOCTYPE svg PUBLIC "-//W3C//DTD SVG 1.1//EN"
 "http://www.w3.org/Graphics/SVG/1.1/DTD/svg11.dtd">
<!-- Generated by graphviz version 12.2.1 (20241206.2353)
 -->
<!-- Title: TextInputWidget::TextInputWidget Pages: 1 -->
<svg width="261pt" height="64pt"
 viewBox="0.00 0.00 261.25 64.25" xmlns="http://www.w3.org/2000/svg" xmlns:xlink="http://www.w3.org/1999/xlink">
<g id="graph0" class="graph" transform="scale(1 1) rotate(0) translate(4 60.25)">
<title>TextInputWidget::TextInputWidget</title>
<!-- Node1 -->
<g id="Node000001" class="node">
<title>Node1</title>
<g id="a_Node000001"><a xlink:title="Constructs a new TextInputWidget.">
<polygon fill="#999999" stroke="#666666" points="133.75,-42.88 0,-42.88 0,-12.37 133.75,-12.37 133.75,-42.88"/>
<text text-anchor="start" x="8" y="-29.38" font-family="Helvetica,sans-Serif" font-size="10.00">TextInputWidget::TextInput</text>
<text text-anchor="middle" x="66.88" y="-18.12" font-family="Helvetica,sans-Serif" font-size="10.00">Widget</text>
</a>
</g>
</g>
<!-- Node2 -->
<g id="Node000002" class="node">
<title>Node2</title>
<g id="a_Node000002"><a xlink:href="_logging_8cpp.html#a32abad09d9f828a9805862e18ad5da5f" target="_top" xlink:title="Logs a message with an explicit log level.">
<polygon fill="white" stroke="#666666" points="225.9,-56.25 197.1,-56.25 197.1,-37 225.9,-37 225.9,-56.25"/>
<text text-anchor="middle" x="211.5" y="-42.75" font-family="Helvetica,sans-Serif" font-size="10.00">log</text>
</a>
</g>
</g>
<!-- Node1&#45;&gt;Node2 -->
<g id="edge1_Node000001_Node000002" class="edge">
<title>Node1&#45;&gt;Node2</title>
<g id="a_edge1_Node000001_Node000002"><a xlink:title=" ">
<path fill="none" stroke="#63b8ff" d="M134.18,-36.46C152.41,-38.89 171.07,-41.37 185.39,-43.28"/>
<polygon fill="#63b8ff" stroke="#63b8ff" points="184.84,-46.74 195.22,-44.59 185.77,-39.8 184.84,-46.74"/>
</a>
</g>
</g>
<!-- Node3 -->
<g id="Node000003" class="node">
<title>Node3</title>
<g id="a_Node000003"><a xlink:href="class_widget.html#a5726db3aa94844c547974fb48594a305" target="_top" xlink:title="Constructs a widget at a specified screen location.">
<polygon fill="white" stroke="#666666" points="253.25,-19.25 169.75,-19.25 169.75,0 253.25,0 253.25,-19.25"/>
<text text-anchor="middle" x="211.5" y="-5.75" font-family="Helvetica,sans-Serif" font-size="10.00">Widget::Widget</text>
</a>
</g>
</g>
<!-- Node1&#45;&gt;Node3 -->
<g id="edge2_Node000001_Node000003" class="edge">
<title>Node1&#45;&gt;Node3</title>
<g id="a_edge2_Node000001_Node000003"><a xlink:title=" ">
<path fill="none" stroke="#63b8ff" d="M134.18,-19.26C142.29,-18.23 150.49,-17.2 158.36,-16.21"/>
<polygon fill="#63b8ff" stroke="#63b8ff" points="158.6,-19.7 168.09,-14.98 157.73,-12.76 158.6,-19.7"/>
</a>
</g>
</g>
</g>
</svg>
