<?xml version="1.0" encoding="UTF-8" standalone="no"?>
<!DOCTYPE svg PUBLIC "-//W3C//DTD SVG 1.1//EN"
 "http://www.w3.org/Graphics/SVG/1.1/DTD/svg11.dtd">
<!-- Generated by graphviz version 12.2.1 (20241206.2353)
 -->
<!-- Title: SharedControlScreenUtility::initializeControllerScreenLayout Pages: 1 -->
<svg width="318pt" height="76pt"
 viewBox="0.00 0.00 318.25 75.88" xmlns="http://www.w3.org/2000/svg" xmlns:xlink="http://www.w3.org/1999/xlink">
<g id="graph0" class="graph" transform="scale(1 1) rotate(0) translate(4 71.88)">
<title>SharedControlScreenUtility::initializeControllerScreenLayout</title>
<!-- Node1 -->
<g id="Node000001" class="node">
<title>Node1</title>
<g id="a_Node000001"><a xlink:title="Initializes a screen layout with standard controller widgets.">
<polygon fill="#999999" stroke="#666666" points="310.25,-51.5 151,-51.5 151,-21 310.25,-21 310.25,-51.5"/>
<text text-anchor="start" x="159" y="-38" font-family="Helvetica,sans-Serif" font-size="10.00">SharedControlScreenUtility</text>
<text text-anchor="middle" x="230.62" y="-26.75" font-family="Helvetica,sans-Serif" font-size="10.00">::initializeControllerScreenLayout</text>
</a>
</g>
</g>
<!-- Node2 -->
<g id="Node000002" class="node">
<title>Node2</title>
<g id="a_Node000002"><a xlink:href="class_config_screen.html#a82716504d10aed05efd3eebe514555ae" target="_top" xlink:title="Called when this screen becomes active.">
<polygon fill="white" stroke="#666666" points="115,-67.88 0,-67.88 0,-48.62 115,-48.62 115,-67.88"/>
<text text-anchor="middle" x="57.5" y="-54.38" font-family="Helvetica,sans-Serif" font-size="10.00">ConfigScreen::onEnter</text>
</a>
</g>
</g>
<!-- Node1&#45;&gt;Node2 -->
<g id="edge1_Node000001_Node000002" class="edge">
<title>Node1&#45;&gt;Node2</title>
<g id="a_edge1_Node000001_Node000002"><a xlink:title=" ">
<path fill="none" stroke="#63b8ff" d="M139.39,-47.85C131.19,-48.91 123.05,-49.95 115.27,-50.95"/>
<polygon fill="#63b8ff" stroke="#63b8ff" points="139.6,-51.35 149.07,-46.61 138.71,-44.41 139.6,-51.35"/>
</a>
</g>
</g>
<!-- Node3 -->
<g id="Node000003" class="node">
<title>Node3</title>
<g id="a_Node000003"><a xlink:href="class_controls_test_screen.html#adaf9a1358cb371d5c88dabfb8feaf147" target="_top" xlink:title="Called when the test screen becomes active.">
<polygon fill="white" stroke="#666666" points="108.62,-30.5 6.38,-30.5 6.38,0 108.62,0 108.62,-30.5"/>
<text text-anchor="start" x="14.38" y="-17" font-family="Helvetica,sans-Serif" font-size="10.00">ControlsTestScreen</text>
<text text-anchor="middle" x="57.5" y="-5.75" font-family="Helvetica,sans-Serif" font-size="10.00">::onEnter</text>
</a>
</g>
</g>
<!-- Node1&#45;&gt;Node3 -->
<g id="edge2_Node000001_Node000003" class="edge">
<title>Node1&#45;&gt;Node3</title>
<g id="a_edge2_Node000001_Node000003"><a xlink:title=" ">
<path fill="none" stroke="#63b8ff" d="M139.25,-25.16C128.82,-23.88 118.48,-22.61 108.87,-21.43"/>
<polygon fill="#63b8ff" stroke="#63b8ff" points="138.72,-28.62 149.07,-26.36 139.57,-21.67 138.72,-28.62"/>
</a>
</g>
</g>
</g>
</svg>
