<?xml version="1.0" encoding="UTF-8" standalone="no"?>
<!DOCTYPE svg PUBLIC "-//W3C//DTD SVG 1.1//EN"
 "http://www.w3.org/Graphics/SVG/1.1/DTD/svg11.dtd">
<!-- Generated by graphviz version 12.2.1 (20241206.2353)
 -->
<!-- Title: EncoderKnobWidget::draw Pages: 1 -->
<svg width="535pt" height="46pt"
 viewBox="0.00 0.00 534.80 46.25" xmlns="http://www.w3.org/2000/svg" xmlns:xlink="http://www.w3.org/1999/xlink">
<g id="graph0" class="graph" transform="scale(1 1) rotate(0) translate(4 42.25)">
<title>EncoderKnobWidget::draw</title>
<!-- Node1 -->
<g id="Node000001" class="node">
<title>Node1</title>
<g id="a_Node000001"><a xlink:title="Renders the knob to the screen, including press state.">
<polygon fill="#999999" stroke="#666666" points="132.25,-19.25 0,-19.25 0,0 132.25,0 132.25,-19.25"/>
<text text-anchor="middle" x="66.12" y="-5.75" font-family="Helvetica,sans-Serif" font-size="10.00">EncoderKnobWidget::draw</text>
</a>
</g>
</g>
<!-- Node2 -->
<g id="Node000002" class="node">
<title>Node2</title>
<g id="a_Node000002"><a xlink:href="class_knob_widget.html#a1ea672f659869822805fc74d5ddb086b" target="_top" xlink:title="Draws the circular bezel of the knob.">
<polygon fill="white" stroke="#666666" points="289.25,-38.25 168.25,-38.25 168.25,-19 289.25,-19 289.25,-38.25"/>
<text text-anchor="middle" x="228.75" y="-24.75" font-family="Helvetica,sans-Serif" font-size="10.00">KnobWidget::drawBezel</text>
</a>
</g>
</g>
<!-- Node1&#45;&gt;Node2 -->
<g id="edge1_Node000001_Node000002" class="edge">
<title>Node1&#45;&gt;Node2</title>
<g id="a_edge1_Node000001_Node000002"><a xlink:title=" ">
<path fill="none" stroke="#63b8ff" d="M132.46,-17.35C140.43,-18.3 148.6,-19.26 156.65,-20.21"/>
<polygon fill="#63b8ff" stroke="#63b8ff" points="156.07,-23.67 166.41,-21.37 156.89,-16.72 156.07,-23.67"/>
</a>
</g>
</g>
<!-- Node3 -->
<g id="Node000003" class="node">
<title>Node3</title>
<g id="a_Node000003"><a xlink:href="class_screen_manager.html#a218ba351496671649bed8c17be7910b1" target="_top" xlink:title="Provides access to the static OLED display instance.">
<polygon fill="white" stroke="#666666" points="462,-19.25 325.25,-19.25 325.25,0 462,0 462,-19.25"/>
<text text-anchor="middle" x="393.62" y="-5.75" font-family="Helvetica,sans-Serif" font-size="10.00">ScreenManager::getDisplay</text>
</a>
</g>
</g>
<!-- Node1&#45;&gt;Node3 -->
<g id="edge4_Node000001_Node000003" class="edge">
<title>Node1&#45;&gt;Node3</title>
<g id="a_edge4_Node000001_Node000003"><a xlink:title=" ">
<path fill="none" stroke="#63b8ff" d="M132.6,-9.62C184.88,-9.62 258.31,-9.62 313.81,-9.62"/>
<polygon fill="#63b8ff" stroke="#63b8ff" points="313.5,-13.13 323.5,-9.63 313.5,-6.13 313.5,-13.13"/>
</a>
</g>
</g>
<!-- Node2&#45;&gt;Node3 -->
<g id="edge2_Node000002_Node000003" class="edge">
<title>Node2&#45;&gt;Node3</title>
<g id="a_edge2_Node000002_Node000003"><a xlink:title=" ">
<path fill="none" stroke="#63b8ff" d="M289.47,-21.66C297.31,-20.74 305.44,-19.8 313.53,-18.85"/>
<polygon fill="#63b8ff" stroke="#63b8ff" points="313.89,-22.33 323.42,-17.7 313.08,-15.38 313.89,-22.33"/>
</a>
</g>
</g>
<!-- Node4 -->
<g id="Node000004" class="node">
<title>Node4</title>
<g id="a_Node000004"><a xlink:href="_logging_8cpp.html#a32abad09d9f828a9805862e18ad5da5f" target="_top" xlink:title="Logs a message with an explicit log level.">
<polygon fill="white" stroke="#666666" points="526.8,-19.25 498,-19.25 498,0 526.8,0 526.8,-19.25"/>
<text text-anchor="middle" x="512.4" y="-5.75" font-family="Helvetica,sans-Serif" font-size="10.00">log</text>
</a>
</g>
</g>
<!-- Node3&#45;&gt;Node4 -->
<g id="edge3_Node000003_Node000004" class="edge">
<title>Node3&#45;&gt;Node4</title>
<g id="a_edge3_Node000003_Node000004"><a xlink:title=" ">
<path fill="none" stroke="#63b8ff" d="M462.22,-9.62C470.77,-9.62 479.05,-9.62 486.31,-9.62"/>
<polygon fill="#63b8ff" stroke="#63b8ff" points="486.23,-13.13 496.23,-9.63 486.23,-6.13 486.23,-13.13"/>
</a>
</g>
</g>
</g>
</svg>
