<?xml version="1.0" encoding="UTF-8" standalone="no"?>
<!DOCTYPE svg PUBLIC "-//W3C//DTD SVG 1.1//EN"
 "http://www.w3.org/Graphics/SVG/1.1/DTD/svg11.dtd">
<!-- Generated by graphviz version 12.2.1 (20241206.2353)
 -->
<!-- Title: ScreenManager::getDisplay Pages: 1 -->
<svg width="508pt" height="423pt"
 viewBox="0.00 0.00 507.50 422.88" xmlns="http://www.w3.org/2000/svg" xmlns:xlink="http://www.w3.org/1999/xlink">
<g id="graph0" class="graph" transform="scale(1 1) rotate(0) translate(4 418.88)">
<title>ScreenManager::getDisplay</title>
<!-- Node1 -->
<g id="Node000001" class="node">
<title>Node1</title>
<g id="a_Node000001"><a xlink:title="Provides access to the static OLED display instance.">
<polygon fill="#999999" stroke="#666666" points="499.5,-216.88 362.75,-216.88 362.75,-197.62 499.5,-197.62 499.5,-216.88"/>
<text text-anchor="middle" x="431.12" y="-203.38" font-family="Helvetica,sans-Serif" font-size="10.00">ScreenManager::getDisplay</text>
</a>
</g>
</g>
<!-- Node2 -->
<g id="Node000002" class="node">
<title>Node2</title>
<g id="a_Node000002"><a xlink:href="class_button_widget.html#ab5ca6a4e7b7fbe2aab24c09ad9905139" target="_top" xlink:title="Draws the button, including LED and press state.">
<polygon fill="white" stroke="#666666" points="298.62,-414.88 196.38,-414.88 196.38,-395.62 298.62,-395.62 298.62,-414.88"/>
<text text-anchor="middle" x="247.5" y="-401.38" font-family="Helvetica,sans-Serif" font-size="10.00">ButtonWidget::draw</text>
</a>
</g>
</g>
<!-- Node1&#45;&gt;Node2 -->
<g id="edge1_Node000001_Node000002" class="edge">
<title>Node1&#45;&gt;Node2</title>
<g id="a_edge1_Node000001_Node000002"><a xlink:title=" ">
<path fill="none" stroke="#63b8ff" d="M424.18,-227.89C412.25,-265.5 381.71,-345.11 326.75,-386.25 318.58,-392.37 308.71,-396.54 298.77,-399.38"/>
<polygon fill="#63b8ff" stroke="#63b8ff" points="427.42,-229.29 426.97,-218.7 420.72,-227.26 427.42,-229.29"/>
</a>
</g>
</g>
<!-- Node3 -->
<g id="Node000003" class="node">
<title>Node3</title>
<g id="a_Node000003"><a xlink:href="class_encoder_attached_numeric_widget.html#a489ddff472eab2aee9fa299653de9a6f" target="_top" xlink:title="Draws the current value on screen using the format string.">
<polygon fill="white" stroke="#666666" points="326.75,-377.5 168.25,-377.5 168.25,-347 326.75,-347 326.75,-377.5"/>
<text text-anchor="start" x="176.25" y="-364" font-family="Helvetica,sans-Serif" font-size="10.00">EncoderAttachedNumericWidget</text>
<text text-anchor="middle" x="247.5" y="-352.75" font-family="Helvetica,sans-Serif" font-size="10.00">::draw</text>
</a>
</g>
</g>
<!-- Node1&#45;&gt;Node3 -->
<g id="edge2_Node000001_Node000003" class="edge">
<title>Node1&#45;&gt;Node3</title>
<g id="a_edge2_Node000001_Node000003"><a xlink:title=" ">
<path fill="none" stroke="#63b8ff" d="M418.7,-226.92C401.84,-254.34 367.84,-303.96 326.75,-333.25 319.44,-338.46 311.07,-342.85 302.6,-346.51"/>
<polygon fill="#63b8ff" stroke="#63b8ff" points="421.56,-228.95 423.7,-218.57 415.56,-225.35 421.56,-228.95"/>
</a>
</g>
</g>
<!-- Node4 -->
<g id="Node000004" class="node">
<title>Node4</title>
<g id="a_Node000004"><a xlink:href="class_encoder_knob_widget.html#a7045a68b4b12b989555d8e6d30980d8c" target="_top" xlink:title="Renders the knob to the screen, including press state.">
<polygon fill="white" stroke="#666666" points="132.25,-309.88 0,-309.88 0,-290.62 132.25,-290.62 132.25,-309.88"/>
<text text-anchor="middle" x="66.12" y="-296.38" font-family="Helvetica,sans-Serif" font-size="10.00">EncoderKnobWidget::draw</text>
</a>
</g>
</g>
<!-- Node1&#45;&gt;Node4 -->
<g id="edge3_Node000001_Node000004" class="edge">
<title>Node1&#45;&gt;Node4</title>
<g id="a_edge3_Node000001_Node000004"><a xlink:title=" ">
<path fill="none" stroke="#63b8ff" d="M416.44,-226.07C398.7,-248.68 365.43,-285.41 326.75,-300.25 257.31,-326.89 169.53,-319.19 115.9,-310.35"/>
<polygon fill="#63b8ff" stroke="#63b8ff" points="419.09,-228.37 422.34,-218.28 413.51,-224.14 419.09,-228.37"/>
</a>
</g>
</g>
<!-- Node5 -->
<g id="Node000005" class="node">
<title>Node5</title>
<g id="a_Node000005"><a xlink:href="class_potentiometer_knob_widget.html#a66fb95b36cbfe0876a2dd59d03dd719a" target="_top" xlink:title="Draws the knob and arrow on the screen.">
<polygon fill="white" stroke="#666666" points="131.12,-73.5 1.12,-73.5 1.12,-43 131.12,-43 131.12,-73.5"/>
<text text-anchor="start" x="9.12" y="-60" font-family="Helvetica,sans-Serif" font-size="10.00">PotentiometerKnobWidget</text>
<text text-anchor="middle" x="66.12" y="-48.75" font-family="Helvetica,sans-Serif" font-size="10.00">::draw</text>
</a>
</g>
</g>
<!-- Node1&#45;&gt;Node5 -->
<g id="edge4_Node000001_Node000005" class="edge">
<title>Node1&#45;&gt;Node5</title>
<g id="a_edge4_Node000001_Node000005"><a xlink:title=" ">
<path fill="none" stroke="#63b8ff" d="M421,-187.41C406.06,-157.53 373.32,-101.85 326.75,-77.25 266.31,-45.32 186.66,-44.49 131.6,-49.15"/>
<polygon fill="#63b8ff" stroke="#63b8ff" points="417.7,-188.63 425.19,-196.12 424.01,-185.59 417.7,-188.63"/>
</a>
</g>
</g>
<!-- Node6 -->
<g id="Node000006" class="node">
<title>Node6</title>
<g id="a_Node000006"><a xlink:href="class_push_button_widget.html#ad5eb19b7381acc42d781733e941e2ead" target="_top" xlink:title="Renders the button with its current state and label.">
<polygon fill="white" stroke="#666666" points="309.88,-253.88 185.12,-253.88 185.12,-234.62 309.88,-234.62 309.88,-253.88"/>
<text text-anchor="middle" x="247.5" y="-240.38" font-family="Helvetica,sans-Serif" font-size="10.00">PushButtonWidget::draw</text>
</a>
</g>
</g>
<!-- Node1&#45;&gt;Node6 -->
<g id="edge5_Node000001_Node000006" class="edge">
<title>Node1&#45;&gt;Node6</title>
<g id="a_edge5_Node000001_Node000006"><a xlink:title=" ">
<path fill="none" stroke="#63b8ff" d="M369.39,-219.62C346.21,-224.35 320.09,-229.67 298.07,-234.15"/>
<polygon fill="#63b8ff" stroke="#63b8ff" points="369.91,-223.09 379.01,-217.66 368.51,-216.23 369.91,-223.09"/>
</a>
</g>
</g>
<!-- Node7 -->
<g id="Node000007" class="node">
<title>Node7</title>
<g id="a_Node000007"><a xlink:href="class_rectangle_widget.html#a25cc6f187189efc0e6ad641b1b5a2c67" target="_top" xlink:title="Draws the rectangle on the display.">
<polygon fill="white" stroke="#666666" points="306.5,-216.88 188.5,-216.88 188.5,-197.62 306.5,-197.62 306.5,-216.88"/>
<text text-anchor="middle" x="247.5" y="-203.38" font-family="Helvetica,sans-Serif" font-size="10.00">RectangleWidget::draw</text>
</a>
</g>
</g>
<!-- Node1&#45;&gt;Node7 -->
<g id="edge6_Node000001_Node000007" class="edge">
<title>Node1&#45;&gt;Node7</title>
<g id="a_edge6_Node000001_Node000007"><a xlink:title=" ">
<path fill="none" stroke="#63b8ff" d="M351.23,-207.25C336.36,-207.25 321.05,-207.25 306.94,-207.25"/>
<polygon fill="#63b8ff" stroke="#63b8ff" points="350.98,-210.75 360.98,-207.25 350.98,-203.75 350.98,-210.75"/>
</a>
</g>
</g>
<!-- Node8 -->
<g id="Node000008" class="node">
<title>Node8</title>
<g id="a_Node000008"><a xlink:href="class_run_mode_screen.html#ab34cbc56fa990ff0793a7df9443dc618" target="_top" xlink:title="Draws all widgets managed by this screen.">
<polygon fill="white" stroke="#666666" points="305.38,-179.88 189.62,-179.88 189.62,-160.62 305.38,-160.62 305.38,-179.88"/>
<text text-anchor="middle" x="247.5" y="-166.38" font-family="Helvetica,sans-Serif" font-size="10.00">RunModeScreen::draw</text>
</a>
</g>
</g>
<!-- Node1&#45;&gt;Node8 -->
<g id="edge7_Node000001_Node000008" class="edge">
<title>Node1&#45;&gt;Node8</title>
<g id="a_edge7_Node000001_Node000008"><a xlink:title=" ">
<path fill="none" stroke="#63b8ff" d="M369.39,-194.88C346.21,-190.15 320.09,-184.83 298.07,-180.35"/>
<polygon fill="#63b8ff" stroke="#63b8ff" points="368.51,-198.27 379.01,-196.84 369.91,-191.41 368.51,-198.27"/>
</a>
</g>
</g>
<!-- Node9 -->
<g id="Node000009" class="node">
<title>Node9</title>
<g id="a_Node000009"><a xlink:href="class_text_input_widget.html#a9c5e9795803adb1ceb1175cea7d839d1" target="_top" xlink:title="Draws the text field and highlights the active cursor position.">
<polygon fill="white" stroke="#666666" points="304.62,-142.88 190.38,-142.88 190.38,-123.62 304.62,-123.62 304.62,-142.88"/>
<text text-anchor="middle" x="247.5" y="-129.38" font-family="Helvetica,sans-Serif" font-size="10.00">TextInputWidget::draw</text>
</a>
</g>
</g>
<!-- Node1&#45;&gt;Node9 -->
<g id="edge8_Node000001_Node000009" class="edge">
<title>Node1&#45;&gt;Node9</title>
<g id="a_edge8_Node000001_Node000009"><a xlink:title=" ">
<path fill="none" stroke="#63b8ff" d="M404.91,-191.07C384.52,-178.62 354.72,-161.82 326.75,-151.25 318.67,-148.2 309.91,-145.56 301.28,-143.33"/>
<polygon fill="#63b8ff" stroke="#63b8ff" points="403.02,-194.02 413.36,-196.33 406.72,-188.08 403.02,-194.02"/>
</a>
</g>
</g>
<!-- Node10 -->
<g id="Node000010" class="node">
<title>Node10</title>
<g id="a_Node000010"><a xlink:href="class_text_label_widget.html#aefc0918093d259dd4c1c449a26c28920" target="_top" xlink:title="Draws the label text to the OLED display.">
<polygon fill="white" stroke="#666666" points="305.38,-105.88 189.62,-105.88 189.62,-86.62 305.38,-86.62 305.38,-105.88"/>
<text text-anchor="middle" x="247.5" y="-92.38" font-family="Helvetica,sans-Serif" font-size="10.00">TextLabelWidget::draw</text>
</a>
</g>
</g>
<!-- Node1&#45;&gt;Node10 -->
<g id="edge9_Node000001_Node000010" class="edge">
<title>Node1&#45;&gt;Node10</title>
<g id="a_edge9_Node000001_Node000010"><a xlink:title=" ">
<path fill="none" stroke="#63b8ff" d="M414.96,-188.84C396.4,-167.57 362.95,-133.07 326.75,-114.25 320.19,-110.84 313,-108.07 305.71,-105.83"/>
<polygon fill="#63b8ff" stroke="#63b8ff" points="412.06,-190.83 421.2,-196.18 417.39,-186.29 412.06,-190.83"/>
</a>
</g>
</g>
<!-- Node11 -->
<g id="Node000011" class="node">
<title>Node11</title>
<g id="a_Node000011"><a xlink:href="class_potentiometer_knob_widget.html#a78e74e9ad1d6d40107427faeac7d1b47" target="_top" xlink:title="Draws the indicator arrow based on the knob&#39;s value.">
<polygon fill="white" stroke="#666666" points="312.5,-30.5 182.5,-30.5 182.5,0 312.5,0 312.5,-30.5"/>
<text text-anchor="start" x="190.5" y="-17" font-family="Helvetica,sans-Serif" font-size="10.00">PotentiometerKnobWidget</text>
<text text-anchor="middle" x="247.5" y="-5.75" font-family="Helvetica,sans-Serif" font-size="10.00">::drawArrow</text>
</a>
</g>
</g>
<!-- Node1&#45;&gt;Node11 -->
<g id="edge10_Node000001_Node000011" class="edge">
<title>Node1&#45;&gt;Node11</title>
<g id="a_edge10_Node000001_Node000011"><a xlink:title=" ">
<path fill="none" stroke="#63b8ff" d="M422.25,-186.68C408.15,-152.44 375.45,-83.66 326.75,-44.25 320.22,-38.96 312.63,-34.59 304.8,-30.97"/>
<polygon fill="#63b8ff" stroke="#63b8ff" points="418.95,-187.84 425.9,-195.83 425.45,-185.25 418.95,-187.84"/>
</a>
</g>
</g>
<!-- Node12 -->
<g id="Node000012" class="node">
<title>Node12</title>
<g id="a_Node000012"><a xlink:href="class_knob_widget.html#a1ea672f659869822805fc74d5ddb086b" target="_top" xlink:title="Draws the circular bezel of the knob.">
<polygon fill="white" stroke="#666666" points="308,-290.88 187,-290.88 187,-271.62 308,-271.62 308,-290.88"/>
<text text-anchor="middle" x="247.5" y="-277.38" font-family="Helvetica,sans-Serif" font-size="10.00">KnobWidget::drawBezel</text>
</a>
</g>
</g>
<!-- Node1&#45;&gt;Node12 -->
<g id="edge12_Node000001_Node000012" class="edge">
<title>Node1&#45;&gt;Node12</title>
<g id="a_edge12_Node000001_Node000012"><a xlink:title=" ">
<path fill="none" stroke="#63b8ff" d="M404.91,-223.43C384.52,-235.88 354.72,-252.68 326.75,-263.25 318.67,-266.3 309.91,-268.94 301.28,-271.17"/>
<polygon fill="#63b8ff" stroke="#63b8ff" points="406.72,-226.42 413.36,-218.17 403.02,-220.48 406.72,-226.42"/>
</a>
</g>
</g>
<!-- Node11&#45;&gt;Node5 -->
<g id="edge11_Node000011_Node000005" class="edge">
<title>Node11&#45;&gt;Node5</title>
<g id="a_edge11_Node000011_Node000005"><a xlink:title=" ">
<path fill="none" stroke="#63b8ff" d="M171.28,-33.28C158.06,-36.45 144.42,-39.72 131.53,-42.81"/>
<polygon fill="#63b8ff" stroke="#63b8ff" points="171.87,-36.74 180.78,-31.01 170.24,-29.93 171.87,-36.74"/>
</a>
</g>
</g>
<!-- Node12&#45;&gt;Node4 -->
<g id="edge13_Node000012_Node000004" class="edge">
<title>Node12&#45;&gt;Node4</title>
<g id="a_edge13_Node000012_Node000004"><a xlink:title=" ">
<path fill="none" stroke="#63b8ff" d="M175.54,-288.77C161.33,-290.27 146.47,-291.85 132.46,-293.33"/>
<polygon fill="#63b8ff" stroke="#63b8ff" points="175.69,-292.27 185.27,-287.74 174.95,-285.31 175.69,-292.27"/>
</a>
</g>
</g>
<!-- Node12&#45;&gt;Node5 -->
<g id="edge14_Node000012_Node000005" class="edge">
<title>Node12&#45;&gt;Node5</title>
<g id="a_edge14_Node000012_Node000005"><a xlink:title=" ">
<path fill="none" stroke="#63b8ff" d="M176.44,-268.69C173.56,-267.08 170.81,-265.28 168.25,-263.25 104.76,-213.02 78.24,-112.67 70.09,-73.97"/>
<polygon fill="#63b8ff" stroke="#63b8ff" points="174.74,-271.76 185.28,-272.8 177.69,-265.42 174.74,-271.76"/>
</a>
</g>
</g>
</g>
</svg>
