<?xml version="1.0" encoding="UTF-8" standalone="no"?>
<!DOCTYPE svg PUBLIC "-//W3C//DTD SVG 1.1//EN"
 "http://www.w3.org/Graphics/SVG/1.1/DTD/svg11.dtd">
<!-- Generated by graphviz version 12.2.1 (20241206.2353)
 -->
<!-- Title: DirectCommandScreen::onEnter Pages: 1 -->
<svg width="345pt" height="61pt"
 viewBox="0.00 0.00 344.80 60.50" xmlns="http://www.w3.org/2000/svg" xmlns:xlink="http://www.w3.org/1999/xlink">
<g id="graph0" class="graph" transform="scale(1 1) rotate(0) translate(4 56.5)">
<title>DirectCommandScreen::onEnter</title>
<!-- Node1 -->
<g id="Node000001" class="node">
<title>Node1</title>
<g id="a_Node000001"><a xlink:title="Called when this screen becomes the active UI.">
<polygon fill="#999999" stroke="#666666" points="118,-30.5 0,-30.5 0,0 118,0 118,-30.5"/>
<text text-anchor="start" x="8" y="-17" font-family="Helvetica,sans-Serif" font-size="10.00">DirectCommandScreen</text>
<text text-anchor="middle" x="59" y="-5.75" font-family="Helvetica,sans-Serif" font-size="10.00">::onEnter</text>
</a>
</g>
</g>
<!-- Node2 -->
<g id="Node000002" class="node">
<title>Node2</title>
<g id="a_Node000002"><a xlink:href="class_direct_command_screen.html#a524740a08589165be8d927f91013e8a5" target="_top" xlink:title="Adds a widget to the screen layout.">
<polygon fill="white" stroke="#666666" points="272,-52.5 154,-52.5 154,-22 272,-22 272,-52.5"/>
<text text-anchor="start" x="162" y="-39" font-family="Helvetica,sans-Serif" font-size="10.00">DirectCommandScreen</text>
<text text-anchor="middle" x="213" y="-27.75" font-family="Helvetica,sans-Serif" font-size="10.00">::addWidget</text>
</a>
</g>
</g>
<!-- Node1&#45;&gt;Node2 -->
<g id="edge1_Node000001_Node000002" class="edge">
<title>Node1&#45;&gt;Node2</title>
<g id="a_edge1_Node000001_Node000002"><a xlink:title=" ">
<path fill="none" stroke="#63b8ff" d="M118.33,-23.69C126.19,-24.83 134.3,-26 142.33,-27.17"/>
<polygon fill="#63b8ff" stroke="#63b8ff" points="141.68,-30.61 152.07,-28.58 142.68,-23.68 141.68,-30.61"/>
</a>
</g>
</g>
<!-- Node3 -->
<g id="Node000003" class="node">
<title>Node3</title>
<g id="a_Node000003"><a xlink:href="_logging_8cpp.html#a32abad09d9f828a9805862e18ad5da5f" target="_top" xlink:title="Logs a message with an explicit log level.">
<polygon fill="white" stroke="#666666" points="336.8,-24.88 308,-24.88 308,-5.63 336.8,-5.63 336.8,-24.88"/>
<text text-anchor="middle" x="322.4" y="-11.38" font-family="Helvetica,sans-Serif" font-size="10.00">log</text>
</a>
</g>
</g>
<!-- Node1&#45;&gt;Node3 -->
<g id="edge3_Node000001_Node000003" class="edge">
<title>Node1&#45;&gt;Node3</title>
<g id="a_edge3_Node000001_Node000003"><a xlink:title=" ">
<path fill="none" stroke="#63b8ff" d="M118.49,-13.77C161.07,-12.91 220.11,-12.2 272,-13.25 279.88,-13.41 288.47,-13.71 296.24,-14.03"/>
<polygon fill="#63b8ff" stroke="#63b8ff" points="295.91,-17.52 306.05,-14.47 296.22,-10.53 295.91,-17.52"/>
</a>
</g>
</g>
<!-- Node2&#45;&gt;Node3 -->
<g id="edge2_Node000002_Node000003" class="edge">
<title>Node2&#45;&gt;Node3</title>
<g id="a_edge2_Node000002_Node000003"><a xlink:title=" ">
<path fill="none" stroke="#63b8ff" d="M272.41,-25.28C280.86,-23.55 289.15,-21.86 296.44,-20.36"/>
<polygon fill="#63b8ff" stroke="#63b8ff" points="297.03,-23.81 306.13,-18.38 295.63,-16.96 297.03,-23.81"/>
</a>
</g>
</g>
</g>
</svg>
