<?xml version="1.0" encoding="UTF-8" standalone="no"?>
<!DOCTYPE svg PUBLIC "-//W3C//DTD SVG 1.1//EN"
 "http://www.w3.org/Graphics/SVG/1.1/DTD/svg11.dtd">
<!-- Generated by graphviz version 12.2.1 (20241206.2353)
 -->
<!-- Title: Screen Pages: 1 -->
<svg width="534pt" height="138pt"
 viewBox="0.00 0.00 534.00 137.75" xmlns="http://www.w3.org/2000/svg" xmlns:xlink="http://www.w3.org/1999/xlink">
<g id="graph0" class="graph" transform="scale(1 1) rotate(0) translate(4 133.75)">
<title>Screen</title>
<!-- Node1 -->
<g id="Node000001" class="node">
<title>Node1</title>
<g id="a_Node000001"><a xlink:title="Base class for user interface screens.">
<polygon fill="#999999" stroke="#666666" points="296,-129.75 249.25,-129.75 249.25,-110.5 296,-110.5 296,-129.75"/>
<text text-anchor="middle" x="272.62" y="-116.25" font-family="Helvetica,sans-Serif" font-size="10.00">Screen</text>
</a>
</g>
</g>
<!-- Node2 -->
<g id="Node000002" class="node">
<title>Node2</title>
<g id="a_Node000002"><a xlink:href="class_config_screen.html" target="_top" xlink:title="User interface screen for updating device configuration settings.">
<polygon fill="white" stroke="#666666" points="75.25,-74.5 0,-74.5 0,-55.25 75.25,-55.25 75.25,-74.5"/>
<text text-anchor="middle" x="37.62" y="-61" font-family="Helvetica,sans-Serif" font-size="10.00">ConfigScreen</text>
</a>
</g>
</g>
<!-- Node1&#45;&gt;Node2 -->
<g id="edge1_Node000001_Node000002" class="edge">
<title>Node1&#45;&gt;Node2</title>
<g id="a_edge1_Node000001_Node000002"><a xlink:title=" ">
<path fill="none" stroke="#63b8ff" d="M237.65,-111.2C194.15,-101.34 120.17,-84.58 75.4,-74.44"/>
<polygon fill="#63b8ff" stroke="#63b8ff" points="236.8,-114.6 247.32,-113.39 238.34,-107.77 236.8,-114.6"/>
</a>
</g>
</g>
<!-- Node3 -->
<g id="Node000003" class="node">
<title>Node3</title>
<g id="a_Node000003"><a xlink:href="class_controls_test_screen.html" target="_top" xlink:title="Debug or test screen for monitoring live control states.">
<polygon fill="white" stroke="#666666" points="195.75,-74.5 93.5,-74.5 93.5,-55.25 195.75,-55.25 195.75,-74.5"/>
<text text-anchor="middle" x="144.62" y="-61" font-family="Helvetica,sans-Serif" font-size="10.00">ControlsTestScreen</text>
</a>
</g>
</g>
<!-- Node1&#45;&gt;Node3 -->
<g id="edge2_Node000001_Node000003" class="edge">
<title>Node1&#45;&gt;Node3</title>
<g id="a_edge2_Node000001_Node000003"><a xlink:title=" ">
<path fill="none" stroke="#63b8ff" d="M240.55,-105.78C217.42,-96.16 186.8,-83.42 166.44,-74.95"/>
<polygon fill="#63b8ff" stroke="#63b8ff" points="238.94,-108.9 249.51,-109.51 241.63,-102.44 238.94,-108.9"/>
</a>
</g>
</g>
<!-- Node4 -->
<g id="Node000004" class="node">
<title>Node4</title>
<g id="a_Node000004"><a xlink:href="class_direct_command_screen.html" target="_top" xlink:title="UI screen for direct entry and sending of PG&#45;800&#45;style commands.">
<polygon fill="white" stroke="#666666" points="331.62,-74.5 213.62,-74.5 213.62,-55.25 331.62,-55.25 331.62,-74.5"/>
<text text-anchor="middle" x="272.62" y="-61" font-family="Helvetica,sans-Serif" font-size="10.00">DirectCommandScreen</text>
</a>
</g>
</g>
<!-- Node1&#45;&gt;Node4 -->
<g id="edge3_Node000001_Node000004" class="edge">
<title>Node1&#45;&gt;Node4</title>
<g id="a_edge3_Node000001_Node000004"><a xlink:title=" ">
<path fill="none" stroke="#63b8ff" d="M272.62,-98.88C272.62,-90.59 272.62,-81.42 272.62,-74.86"/>
<polygon fill="#63b8ff" stroke="#63b8ff" points="269.13,-98.82 272.63,-108.82 276.13,-98.82 269.13,-98.82"/>
</a>
</g>
</g>
<!-- Node5 -->
<g id="Node000005" class="node">
<title>Node5</title>
<g id="a_Node000005"><a xlink:href="class_modal_dialog.html" target="_top" xlink:title="Base class for modal overlays requiring user dismissal or confirmation.">
<polygon fill="white" stroke="#666666" points="419.62,-74.5 349.62,-74.5 349.62,-55.25 419.62,-55.25 419.62,-74.5"/>
<text text-anchor="middle" x="384.62" y="-61" font-family="Helvetica,sans-Serif" font-size="10.00">ModalDialog</text>
</a>
</g>
</g>
<!-- Node1&#45;&gt;Node5 -->
<g id="edge4_Node000001_Node000005" class="edge">
<title>Node1&#45;&gt;Node5</title>
<g id="a_edge4_Node000001_Node000005"><a xlink:title=" ">
<path fill="none" stroke="#63b8ff" d="M301.79,-105.26C321.9,-95.7 348.04,-83.27 365.53,-74.95"/>
<polygon fill="#63b8ff" stroke="#63b8ff" points="300.52,-101.99 292.99,-109.44 303.53,-108.31 300.52,-101.99"/>
</a>
</g>
</g>
<!-- Node7 -->
<g id="Node000007" class="node">
<title>Node7</title>
<g id="a_Node000007"><a xlink:href="class_run_mode_screen.html" target="_top" xlink:title="UI screen that manages and displays control widgets during runtime.">
<polygon fill="white" stroke="#666666" points="526,-74.5 437.25,-74.5 437.25,-55.25 526,-55.25 526,-74.5"/>
<text text-anchor="middle" x="481.62" y="-61" font-family="Helvetica,sans-Serif" font-size="10.00">RunModeScreen</text>
</a>
</g>
</g>
<!-- Node1&#45;&gt;Node7 -->
<g id="edge6_Node000001_Node000007" class="edge">
<title>Node1&#45;&gt;Node7</title>
<g id="a_edge6_Node000001_Node000007"><a xlink:title=" ">
<path fill="none" stroke="#63b8ff" d="M307.31,-110.29C345.67,-100.51 407.18,-84.84 445.95,-74.97"/>
<polygon fill="#63b8ff" stroke="#63b8ff" points="306.49,-106.89 297.66,-112.75 308.21,-113.67 306.49,-106.89"/>
</a>
</g>
</g>
<!-- Node6 -->
<g id="Node000006" class="node">
<title>Node6</title>
<g id="a_Node000006"><a xlink:href="class_knob_config_dialog.html" target="_top" xlink:title="Modal dialog for configuring a knob’s control parameters.">
<polygon fill="white" stroke="#666666" points="432,-19.25 337.25,-19.25 337.25,0 432,0 432,-19.25"/>
<text text-anchor="middle" x="384.62" y="-5.75" font-family="Helvetica,sans-Serif" font-size="10.00">KnobConfigDialog</text>
</a>
</g>
</g>
<!-- Node5&#45;&gt;Node6 -->
<g id="edge5_Node000005_Node000006" class="edge">
<title>Node5&#45;&gt;Node6</title>
<g id="a_edge5_Node000005_Node000006"><a xlink:title=" ">
<path fill="none" stroke="#63b8ff" d="M384.62,-43.63C384.62,-35.34 384.62,-26.17 384.62,-19.61"/>
<polygon fill="#63b8ff" stroke="#63b8ff" points="381.13,-43.57 384.63,-53.57 388.13,-43.57 381.13,-43.57"/>
</a>
</g>
</g>
</g>
</svg>
