<?xml version="1.0" encoding="UTF-8" standalone="no"?>
<!DOCTYPE svg PUBLIC "-//W3C//DTD SVG 1.1//EN"
 "http://www.w3.org/Graphics/SVG/1.1/DTD/svg11.dtd">
<!-- Generated by graphviz version 12.2.1 (20241206.2353)
 -->
<!-- Title: ConfigScreen Pages: 1 -->
<svg width="247pt" height="212pt"
 viewBox="0.00 0.00 247.38 212.25" xmlns="http://www.w3.org/2000/svg" xmlns:xlink="http://www.w3.org/1999/xlink">
<g id="graph0" class="graph" transform="scale(1 1) rotate(0) translate(4 208.25)">
<title>ConfigScreen</title>
<!-- Node1 -->
<g id="Node000001" class="node">
<title>Node1</title>
<g id="a_Node000001"><a xlink:title="User interface screen for updating device configuration settings.">
<polygon fill="#999999" stroke="#666666" points="75.25,-19.25 0,-19.25 0,0 75.25,0 75.25,-19.25"/>
<text text-anchor="middle" x="37.62" y="-5.75" font-family="Helvetica,sans-Serif" font-size="10.00">ConfigScreen</text>
</a>
</g>
</g>
<!-- Node2 -->
<g id="Node000002" class="node">
<title>Node2</title>
<g id="a_Node000002"><a xlink:href="class_screen.html" target="_top" xlink:title="Base class for user interface screens.">
<polygon fill="white" stroke="#666666" points="57,-204.25 10.25,-204.25 10.25,-185 57,-185 57,-204.25"/>
<text text-anchor="middle" x="33.62" y="-190.75" font-family="Helvetica,sans-Serif" font-size="10.00">Screen</text>
</a>
</g>
</g>
<!-- Node2&#45;&gt;Node1 -->
<g id="edge1_Node000001_Node000002" class="edge">
<title>Node2&#45;&gt;Node1</title>
<g id="a_edge1_Node000001_Node000002"><a xlink:title=" ">
<path fill="none" stroke="#63b8ff" d="M34.07,-173.2C34.94,-133.41 36.83,-46.98 37.43,-19.33"/>
<polygon fill="#63b8ff" stroke="#63b8ff" points="30.58,-172.96 33.86,-183.04 37.57,-173.12 30.58,-172.96"/>
</a>
</g>
</g>
<!-- Node4 -->
<g id="Node000004" class="node">
<title>Node4</title>
<g id="a_Node000004"><a xlink:href="class_modal_dialog.html" target="_top" xlink:title="Base class for modal overlays requiring user dismissal or confirmation.">
<polygon fill="white" stroke="#666666" points="119.62,-148 49.62,-148 49.62,-128.75 119.62,-128.75 119.62,-148"/>
<text text-anchor="middle" x="84.62" y="-134.5" font-family="Helvetica,sans-Serif" font-size="10.00">ModalDialog</text>
</a>
</g>
</g>
<!-- Node2&#45;&gt;Node4 -->
<g id="edge4_Node000004_Node000002" class="edge">
<title>Node2&#45;&gt;Node4</title>
<g id="a_edge4_Node000004_Node000002"><a xlink:title=" ">
<path fill="none" stroke="#63b8ff" d="M49.82,-176.4C58.65,-167.01 69.21,-155.78 76.36,-148.17"/>
<polygon fill="#63b8ff" stroke="#63b8ff" points="47.38,-173.88 43.08,-183.56 52.48,-178.68 47.38,-173.88"/>
</a>
</g>
</g>
<!-- Node3 -->
<g id="Node000003" class="node">
<title>Node3</title>
<g id="a_Node000003"><a xlink:href="class_knob_config_dialog.html" target="_top" xlink:title="Modal dialog for configuring a knob’s control parameters.">
<polygon fill="white" stroke="#666666" points="144,-91.75 49.25,-91.75 49.25,-72.5 144,-72.5 144,-91.75"/>
<text text-anchor="middle" x="96.62" y="-78.25" font-family="Helvetica,sans-Serif" font-size="10.00">KnobConfigDialog</text>
</a>
</g>
</g>
<!-- Node3&#45;&gt;Node1 -->
<g id="edge2_Node000001_Node000003" class="edge">
<title>Node3&#45;&gt;Node1</title>
<g id="a_edge2_Node000001_Node000003"><a xlink:title=" ">
<path fill="none" stroke="#9a32cd" stroke-dasharray="5,2" d="M81.88,-63.51C70.23,-49.59 54.45,-30.73 45.22,-19.7"/>
<polygon fill="#9a32cd" stroke="#9a32cd" points="79.08,-65.61 88.18,-71.04 84.45,-61.12 79.08,-65.61"/>
</a>
</g>
<text text-anchor="start" x="77.14" y="-42" font-family="Helvetica,sans-Serif" font-size="10.00" fill="grey">knobConfigDialog</text>
</g>
<!-- Node4&#45;&gt;Node3 -->
<g id="edge3_Node000003_Node000004" class="edge">
<title>Node4&#45;&gt;Node3</title>
<g id="a_edge3_Node000003_Node000004"><a xlink:title=" ">
<path fill="none" stroke="#63b8ff" d="M89.09,-117.19C91.02,-108.48 93.17,-98.74 94.68,-91.92"/>
<polygon fill="#63b8ff" stroke="#63b8ff" points="85.68,-116.42 86.93,-126.94 92.51,-117.93 85.68,-116.42"/>
</a>
</g>
</g>
<!-- Node5 -->
<g id="Node000005" class="node">
<title>Node5</title>
<g id="a_Node000005"><a xlink:href="class_i_widget_nav_handler.html" target="_top" xlink:title="Interface for responding to widget navigation events.">
<polygon fill="white" stroke="#666666" points="239.38,-148 137.88,-148 137.88,-128.75 239.38,-128.75 239.38,-148"/>
<text text-anchor="middle" x="188.62" y="-134.5" font-family="Helvetica,sans-Serif" font-size="10.00">IWidgetNavHandler</text>
</a>
</g>
</g>
<!-- Node5&#45;&gt;Node3 -->
<g id="edge5_Node000003_Node000005" class="edge">
<title>Node5&#45;&gt;Node3</title>
<g id="a_edge5_Node000003_Node000005"><a xlink:title=" ">
<path fill="none" stroke="#63b8ff" d="M163.82,-122.75C147.24,-112.97 125.96,-100.43 111.84,-92.1"/>
<polygon fill="#63b8ff" stroke="#63b8ff" points="161.74,-125.58 172.13,-127.65 165.29,-119.55 161.74,-125.58"/>
</a>
</g>
</g>
</g>
</svg>
