<?xml version="1.0" encoding="UTF-8" standalone="no"?>
<!DOCTYPE svg PUBLIC "-//W3C//DTD SVG 1.1//EN"
 "http://www.w3.org/Graphics/SVG/1.1/DTD/svg11.dtd">
<!-- Generated by graphviz version 12.2.1 (20241206.2353)
 -->
<!-- Title: RectangleWidget::draw Pages: 1 -->
<svg width="364pt" height="46pt"
 viewBox="0.00 0.00 363.55 46.25" xmlns="http://www.w3.org/2000/svg" xmlns:xlink="http://www.w3.org/1999/xlink">
<g id="graph0" class="graph" transform="scale(1 1) rotate(0) translate(4 42.25)">
<title>RectangleWidget::draw</title>
<!-- Node1 -->
<g id="Node000001" class="node">
<title>Node1</title>
<g id="a_Node000001"><a xlink:title="Draws the rectangle on the display.">
<polygon fill="#999999" stroke="#666666" points="118,-19.25 0,-19.25 0,0 118,0 118,-19.25"/>
<text text-anchor="middle" x="59" y="-5.75" font-family="Helvetica,sans-Serif" font-size="10.00">RectangleWidget::draw</text>
</a>
</g>
</g>
<!-- Node2 -->
<g id="Node000002" class="node">
<title>Node2</title>
<g id="a_Node000002"><a xlink:href="class_screen_manager.html#a218ba351496671649bed8c17be7910b1" target="_top" xlink:title="Provides access to the static OLED display instance.">
<polygon fill="white" stroke="#666666" points="290.75,-38.25 154,-38.25 154,-19 290.75,-19 290.75,-38.25"/>
<text text-anchor="middle" x="222.38" y="-24.75" font-family="Helvetica,sans-Serif" font-size="10.00">ScreenManager::getDisplay</text>
</a>
</g>
</g>
<!-- Node1&#45;&gt;Node2 -->
<g id="edge1_Node000001_Node000002" class="edge">
<title>Node1&#45;&gt;Node2</title>
<g id="a_edge1_Node000001_Node000002"><a xlink:title=" ">
<path fill="none" stroke="#63b8ff" d="M118.26,-16.48C126.05,-17.4 134.15,-18.36 142.23,-19.31"/>
<polygon fill="#63b8ff" stroke="#63b8ff" points="141.75,-22.77 152.09,-20.47 142.57,-15.82 141.75,-22.77"/>
</a>
</g>
</g>
<!-- Node3 -->
<g id="Node000003" class="node">
<title>Node3</title>
<g id="a_Node000003"><a xlink:href="_logging_8cpp.html#a32abad09d9f828a9805862e18ad5da5f" target="_top" xlink:title="Logs a message with an explicit log level.">
<polygon fill="white" stroke="#666666" points="355.55,-19.25 326.75,-19.25 326.75,0 355.55,0 355.55,-19.25"/>
<text text-anchor="middle" x="341.15" y="-5.75" font-family="Helvetica,sans-Serif" font-size="10.00">log</text>
</a>
</g>
</g>
<!-- Node1&#45;&gt;Node3 -->
<g id="edge3_Node000001_Node000003" class="edge">
<title>Node1&#45;&gt;Node3</title>
<g id="a_edge3_Node000001_Node000003"><a xlink:title=" ">
<path fill="none" stroke="#63b8ff" d="M118.39,-9.62C179.09,-9.62 271.25,-9.62 315.17,-9.62"/>
<polygon fill="#63b8ff" stroke="#63b8ff" points="314.94,-13.13 324.94,-9.63 314.94,-6.13 314.94,-13.13"/>
</a>
</g>
</g>
<!-- Node2&#45;&gt;Node3 -->
<g id="edge2_Node000002_Node000003" class="edge">
<title>Node2&#45;&gt;Node3</title>
<g id="a_edge2_Node000002_Node000003"><a xlink:title=" ">
<path fill="none" stroke="#63b8ff" d="M285.52,-18.51C296.04,-16.8 306.39,-15.12 315.2,-13.68"/>
<polygon fill="#63b8ff" stroke="#63b8ff" points="315.7,-17.15 325.01,-12.09 314.58,-10.24 315.7,-17.15"/>
</a>
</g>
</g>
</g>
</svg>
