<?xml version="1.0" encoding="UTF-8" standalone="no"?>
<!DOCTYPE svg PUBLIC "-//W3C//DTD SVG 1.1//EN"
 "http://www.w3.org/Graphics/SVG/1.1/DTD/svg11.dtd">
<!-- Generated by graphviz version 12.2.1 (20241206.2353)
 -->
<!-- Title: PotentiometerKnobWidget::handleInput Pages: 1 -->
<svg width="304pt" height="76pt"
 viewBox="0.00 0.00 304.00 75.88" xmlns="http://www.w3.org/2000/svg" xmlns:xlink="http://www.w3.org/1999/xlink">
<g id="graph0" class="graph" transform="scale(1 1) rotate(0) translate(4 71.88)">
<title>PotentiometerKnobWidget::handleInput</title>
<!-- Node1 -->
<g id="Node000001" class="node">
<title>Node1</title>
<g id="a_Node000001"><a xlink:title="Handles user interaction (optional override).">
<polygon fill="#999999" stroke="#666666" points="130,-51.5 0,-51.5 0,-21 130,-21 130,-51.5"/>
<text text-anchor="start" x="8" y="-38" font-family="Helvetica,sans-Serif" font-size="10.00">PotentiometerKnobWidget</text>
<text text-anchor="middle" x="65" y="-26.75" font-family="Helvetica,sans-Serif" font-size="10.00">::handleInput</text>
</a>
</g>
</g>
<!-- Node2 -->
<g id="Node000002" class="node">
<title>Node2</title>
<g id="a_Node000002"><a xlink:href="_logging_8cpp.html#a32abad09d9f828a9805862e18ad5da5f" target="_top" xlink:title="Logs a message with an explicit log level.">
<polygon fill="white" stroke="#666666" points="245.4,-67.88 216.6,-67.88 216.6,-48.62 245.4,-48.62 245.4,-67.88"/>
<text text-anchor="middle" x="231" y="-54.38" font-family="Helvetica,sans-Serif" font-size="10.00">log</text>
</a>
</g>
</g>
<!-- Node1&#45;&gt;Node2 -->
<g id="edge1_Node000001_Node000002" class="edge">
<title>Node1&#45;&gt;Node2</title>
<g id="a_edge1_Node000001_Node000002"><a xlink:title=" ">
<path fill="none" stroke="#63b8ff" d="M130.35,-44.88C156.38,-48.37 184.91,-52.2 204.74,-54.86"/>
<polygon fill="#63b8ff" stroke="#63b8ff" points="204.26,-58.33 214.64,-56.19 205.2,-51.39 204.26,-58.33"/>
</a>
</g>
</g>
<!-- Node3 -->
<g id="Node000003" class="node">
<title>Node3</title>
<g id="a_Node000003"><a xlink:href="class_potentiometer_knob_widget.html#a8525e457fa6b3c6169f1a2ceff7added" target="_top" xlink:title="Sets the current analog value of the knob.">
<polygon fill="white" stroke="#666666" points="296,-30.5 166,-30.5 166,0 296,0 296,-30.5"/>
<text text-anchor="start" x="174" y="-17" font-family="Helvetica,sans-Serif" font-size="10.00">PotentiometerKnobWidget</text>
<text text-anchor="middle" x="231" y="-5.75" font-family="Helvetica,sans-Serif" font-size="10.00">::setValue</text>
</a>
</g>
</g>
<!-- Node1&#45;&gt;Node3 -->
<g id="edge2_Node000001_Node000003" class="edge">
<title>Node1&#45;&gt;Node3</title>
<g id="a_edge2_Node000001_Node000003"><a xlink:title=" ">
<path fill="none" stroke="#63b8ff" d="M130.35,-28.01C138.21,-27 146.31,-25.97 154.33,-24.94"/>
<polygon fill="#63b8ff" stroke="#63b8ff" points="154.59,-28.43 164.07,-23.69 153.71,-21.49 154.59,-28.43"/>
</a>
</g>
</g>
</g>
</svg>
