<?xml version="1.0" encoding="UTF-8" standalone="no"?>
<!DOCTYPE svg PUBLIC "-//W3C//DTD SVG 1.1//EN"
 "http://www.w3.org/Graphics/SVG/1.1/DTD/svg11.dtd">
<!-- Generated by graphviz version 12.2.1 (20241206.2353)
 -->
<!-- Title: RectangleWidget::RectangleWidget Pages: 1 -->
<svg width="269pt" height="64pt"
 viewBox="0.00 0.00 268.75 64.25" xmlns="http://www.w3.org/2000/svg" xmlns:xlink="http://www.w3.org/1999/xlink">
<g id="graph0" class="graph" transform="scale(1 1) rotate(0) translate(4 60.25)">
<title>RectangleWidget::RectangleWidget</title>
<!-- Node1 -->
<g id="Node000001" class="node">
<title>Node1</title>
<g id="a_Node000001"><a xlink:title="Constructs a rectangle widget with position, size, and style.">
<polygon fill="#999999" stroke="#666666" points="141.25,-42.88 0,-42.88 0,-12.37 141.25,-12.37 141.25,-42.88"/>
<text text-anchor="start" x="8" y="-29.38" font-family="Helvetica,sans-Serif" font-size="10.00">RectangleWidget::Rectangle</text>
<text text-anchor="middle" x="70.62" y="-18.12" font-family="Helvetica,sans-Serif" font-size="10.00">Widget</text>
</a>
</g>
</g>
<!-- Node2 -->
<g id="Node000002" class="node">
<title>Node2</title>
<g id="a_Node000002"><a xlink:href="_logging_8cpp.html#a32abad09d9f828a9805862e18ad5da5f" target="_top" xlink:title="Logs a message with an explicit log level.">
<polygon fill="white" stroke="#666666" points="233.4,-56.25 204.6,-56.25 204.6,-37 233.4,-37 233.4,-56.25"/>
<text text-anchor="middle" x="219" y="-42.75" font-family="Helvetica,sans-Serif" font-size="10.00">log</text>
</a>
</g>
</g>
<!-- Node1&#45;&gt;Node2 -->
<g id="edge1_Node000001_Node000002" class="edge">
<title>Node1&#45;&gt;Node2</title>
<g id="a_edge1_Node000001_Node000002"><a xlink:title=" ">
<path fill="none" stroke="#63b8ff" d="M141.38,-36.68C159.84,-39.07 178.58,-41.51 192.91,-43.37"/>
<polygon fill="#63b8ff" stroke="#63b8ff" points="192.38,-46.83 202.74,-44.64 193.28,-39.89 192.38,-46.83"/>
</a>
</g>
</g>
<!-- Node3 -->
<g id="Node000003" class="node">
<title>Node3</title>
<g id="a_Node000003"><a xlink:href="class_widget.html#a5726db3aa94844c547974fb48594a305" target="_top" xlink:title="Constructs a widget at a specified screen location.">
<polygon fill="white" stroke="#666666" points="260.75,-19.25 177.25,-19.25 177.25,0 260.75,0 260.75,-19.25"/>
<text text-anchor="middle" x="219" y="-5.75" font-family="Helvetica,sans-Serif" font-size="10.00">Widget::Widget</text>
</a>
</g>
</g>
<!-- Node1&#45;&gt;Node3 -->
<g id="edge2_Node000001_Node000003" class="edge">
<title>Node1&#45;&gt;Node3</title>
<g id="a_edge2_Node000001_Node000003"><a xlink:title=" ">
<path fill="none" stroke="#63b8ff" d="M141.38,-19.05C149.6,-18.04 157.87,-17.02 165.78,-16.05"/>
<polygon fill="#63b8ff" stroke="#63b8ff" points="166.07,-19.54 175.57,-14.84 165.21,-12.59 166.07,-19.54"/>
</a>
</g>
</g>
</g>
</svg>
