<?xml version="1.0" encoding="UTF-8" standalone="no"?>
<!DOCTYPE svg PUBLIC "-//W3C//DTD SVG 1.1//EN"
 "http://www.w3.org/Graphics/SVG/1.1/DTD/svg11.dtd">
<!-- Generated by graphviz version 12.2.1 (20241206.2353)
 -->
<!-- Title: ConfigMode Pages: 1 -->
<svg width="311pt" height="285pt"
 viewBox="0.00 0.00 311.38 284.75" xmlns="http://www.w3.org/2000/svg" xmlns:xlink="http://www.w3.org/1999/xlink">
<g id="graph0" class="graph" transform="scale(1 1) rotate(0) translate(4 280.75)">
<title>ConfigMode</title>
<!-- Node1 -->
<g id="Node000001" class="node">
<title>Node1</title>
<g id="a_Node000001"><a xlink:title="Mode that enables editing of system configuration parameters.">
<polygon fill="#999999" stroke="#666666" points="78.88,-19.25 10.38,-19.25 10.38,0 78.88,0 78.88,-19.25"/>
<text text-anchor="middle" x="44.62" y="-5.75" font-family="Helvetica,sans-Serif" font-size="10.00">ConfigMode</text>
</a>
</g>
</g>
<!-- Node2 -->
<g id="Node000002" class="node">
<title>Node2</title>
<g id="a_Node000002"><a xlink:href="class_app_mode.html" target="_top" xlink:title="Base class for defining behavior of application modes.">
<polygon fill="white" stroke="#666666" points="57.25,-91.75 0,-91.75 0,-72.5 57.25,-72.5 57.25,-91.75"/>
<text text-anchor="middle" x="28.62" y="-78.25" font-family="Helvetica,sans-Serif" font-size="10.00">AppMode</text>
</a>
</g>
</g>
<!-- Node2&#45;&gt;Node1 -->
<g id="edge1_Node000001_Node000002" class="edge">
<title>Node2&#45;&gt;Node1</title>
<g id="a_edge1_Node000001_Node000002"><a xlink:title=" ">
<path fill="none" stroke="#63b8ff" d="M33.18,-61.05C36.27,-47.44 40.21,-30.1 42.56,-19.7"/>
<polygon fill="#63b8ff" stroke="#63b8ff" points="29.79,-60.19 30.99,-70.72 36.61,-61.74 29.79,-60.19"/>
</a>
</g>
</g>
<!-- Node3 -->
<g id="Node000003" class="node">
<title>Node3</title>
<g id="a_Node000003"><a xlink:href="class_config_screen.html" target="_top" xlink:title="User interface screen for updating device configuration settings.">
<polygon fill="white" stroke="#666666" points="150.25,-91.75 75,-91.75 75,-72.5 150.25,-72.5 150.25,-91.75"/>
<text text-anchor="middle" x="112.62" y="-78.25" font-family="Helvetica,sans-Serif" font-size="10.00">ConfigScreen</text>
</a>
</g>
</g>
<!-- Node3&#45;&gt;Node1 -->
<g id="edge2_Node000001_Node000003" class="edge">
<title>Node3&#45;&gt;Node1</title>
<g id="a_edge2_Node000001_Node000003"><a xlink:title=" ">
<path fill="none" stroke="#9a32cd" stroke-dasharray="5,2" d="M96.4,-64.3C82.91,-50.32 64.23,-30.95 53.38,-19.7"/>
<polygon fill="#9a32cd" stroke="#9a32cd" points="93.5,-66.34 102.96,-71.11 98.54,-61.48 93.5,-66.34"/>
</a>
</g>
<text text-anchor="start" x="89.72" y="-42" font-family="Helvetica,sans-Serif" font-size="10.00" fill="grey">theConfigScreen</text>
</g>
<!-- Node4 -->
<g id="Node000004" class="node">
<title>Node4</title>
<g id="a_Node000004"><a xlink:href="class_screen.html" target="_top" xlink:title="Base class for user interface screens.">
<polygon fill="white" stroke="#666666" points="121,-276.75 74.25,-276.75 74.25,-257.5 121,-257.5 121,-276.75"/>
<text text-anchor="middle" x="97.62" y="-263.25" font-family="Helvetica,sans-Serif" font-size="10.00">Screen</text>
</a>
</g>
</g>
<!-- Node4&#45;&gt;Node3 -->
<g id="edge3_Node000003_Node000004" class="edge">
<title>Node4&#45;&gt;Node3</title>
<g id="a_edge3_Node000003_Node000004"><a xlink:title=" ">
<path fill="none" stroke="#63b8ff" d="M98.36,-245.84C99.33,-221.75 101.32,-180.39 104.62,-145 106.4,-126.02 109.51,-103.89 111.29,-91.92"/>
<polygon fill="#63b8ff" stroke="#63b8ff" points="94.86,-245.66 97.98,-255.78 101.86,-245.92 94.86,-245.66"/>
</a>
</g>
</g>
<!-- Node6 -->
<g id="Node000006" class="node">
<title>Node6</title>
<g id="a_Node000006"><a xlink:href="class_modal_dialog.html" target="_top" xlink:title="Base class for modal overlays requiring user dismissal or confirmation.">
<polygon fill="white" stroke="#666666" points="183.62,-220.5 113.62,-220.5 113.62,-201.25 183.62,-201.25 183.62,-220.5"/>
<text text-anchor="middle" x="148.62" y="-207" font-family="Helvetica,sans-Serif" font-size="10.00">ModalDialog</text>
</a>
</g>
</g>
<!-- Node4&#45;&gt;Node6 -->
<g id="edge6_Node000006_Node000004" class="edge">
<title>Node4&#45;&gt;Node6</title>
<g id="a_edge6_Node000006_Node000004"><a xlink:title=" ">
<path fill="none" stroke="#63b8ff" d="M113.82,-248.9C122.65,-239.51 133.21,-228.28 140.36,-220.67"/>
<polygon fill="#63b8ff" stroke="#63b8ff" points="111.38,-246.38 107.08,-256.06 116.48,-251.18 111.38,-246.38"/>
</a>
</g>
</g>
<!-- Node5 -->
<g id="Node000005" class="node">
<title>Node5</title>
<g id="a_Node000005"><a xlink:href="class_knob_config_dialog.html" target="_top" xlink:title="Modal dialog for configuring a knob’s control parameters.">
<polygon fill="white" stroke="#666666" points="208,-164.25 113.25,-164.25 113.25,-145 208,-145 208,-164.25"/>
<text text-anchor="middle" x="160.62" y="-150.75" font-family="Helvetica,sans-Serif" font-size="10.00">KnobConfigDialog</text>
</a>
</g>
</g>
<!-- Node5&#45;&gt;Node3 -->
<g id="edge4_Node000003_Node000005" class="edge">
<title>Node5&#45;&gt;Node3</title>
<g id="a_edge4_Node000003_Node000005"><a xlink:title=" ">
<path fill="none" stroke="#9a32cd" stroke-dasharray="5,2" d="M148.08,-135.2C138.66,-121.37 126.17,-103.02 118.81,-92.2"/>
<polygon fill="#9a32cd" stroke="#9a32cd" points="145.17,-137.15 153.69,-143.45 150.96,-133.21 145.17,-137.15"/>
</a>
</g>
<text text-anchor="start" x="145.34" y="-114.5" font-family="Helvetica,sans-Serif" font-size="10.00" fill="grey">knobConfigDialog</text>
</g>
<!-- Node6&#45;&gt;Node5 -->
<g id="edge5_Node000005_Node000006" class="edge">
<title>Node6&#45;&gt;Node5</title>
<g id="a_edge5_Node000005_Node000006"><a xlink:title=" ">
<path fill="none" stroke="#63b8ff" d="M153.09,-189.69C155.02,-180.98 157.17,-171.24 158.68,-164.42"/>
<polygon fill="#63b8ff" stroke="#63b8ff" points="149.68,-188.92 150.93,-199.44 156.51,-190.43 149.68,-188.92"/>
</a>
</g>
</g>
<!-- Node7 -->
<g id="Node000007" class="node">
<title>Node7</title>
<g id="a_Node000007"><a xlink:href="class_i_widget_nav_handler.html" target="_top" xlink:title="Interface for responding to widget navigation events.">
<polygon fill="white" stroke="#666666" points="303.38,-220.5 201.88,-220.5 201.88,-201.25 303.38,-201.25 303.38,-220.5"/>
<text text-anchor="middle" x="252.62" y="-207" font-family="Helvetica,sans-Serif" font-size="10.00">IWidgetNavHandler</text>
</a>
</g>
</g>
<!-- Node7&#45;&gt;Node5 -->
<g id="edge7_Node000005_Node000007" class="edge">
<title>Node7&#45;&gt;Node5</title>
<g id="a_edge7_Node000005_Node000007"><a xlink:title=" ">
<path fill="none" stroke="#63b8ff" d="M227.82,-195.25C211.24,-185.47 189.96,-172.93 175.84,-164.6"/>
<polygon fill="#63b8ff" stroke="#63b8ff" points="225.74,-198.08 236.13,-200.15 229.29,-192.05 225.74,-198.08"/>
</a>
</g>
</g>
</g>
</svg>
