<?xml version="1.0" encoding="UTF-8" standalone="no"?>
<!DOCTYPE svg PUBLIC "-//W3C//DTD SVG 1.1//EN"
 "http://www.w3.org/Graphics/SVG/1.1/DTD/svg11.dtd">
<!-- Generated by graphviz version 12.2.1 (20241206.2353)
 -->
<!-- Title: ButtonWidget::ButtonWidget Pages: 1 -->
<svg width="268pt" height="64pt"
 viewBox="0.00 0.00 268.00 64.25" xmlns="http://www.w3.org/2000/svg" xmlns:xlink="http://www.w3.org/1999/xlink">
<g id="graph0" class="graph" transform="scale(1 1) rotate(0) translate(4 60.25)">
<title>ButtonWidget::ButtonWidget</title>
<!-- Node1 -->
<g id="Node000001" class="node">
<title>Node1</title>
<g id="a_Node000001"><a xlink:title="Constructs a ButtonWidget with a given ID and position.">
<polygon fill="#999999" stroke="#666666" points="140.5,-37.25 0,-37.25 0,-18 140.5,-18 140.5,-37.25"/>
<text text-anchor="middle" x="70.25" y="-23.75" font-family="Helvetica,sans-Serif" font-size="10.00">ButtonWidget::ButtonWidget</text>
</a>
</g>
</g>
<!-- Node2 -->
<g id="Node000002" class="node">
<title>Node2</title>
<g id="a_Node000002"><a xlink:href="_logging_8cpp.html#a32abad09d9f828a9805862e18ad5da5f" target="_top" xlink:title="Logs a message with an explicit log level.">
<polygon fill="white" stroke="#666666" points="232.65,-56.25 203.85,-56.25 203.85,-37 232.65,-37 232.65,-56.25"/>
<text text-anchor="middle" x="218.25" y="-42.75" font-family="Helvetica,sans-Serif" font-size="10.00">log</text>
</a>
</g>
</g>
<!-- Node1&#45;&gt;Node2 -->
<g id="edge1_Node000001_Node000002" class="edge">
<title>Node1&#45;&gt;Node2</title>
<g id="a_edge1_Node000001_Node000002"><a xlink:title=" ">
<path fill="none" stroke="#63b8ff" d="M140.83,-36.68C159.23,-39.07 177.93,-41.51 192.22,-43.37"/>
<polygon fill="#63b8ff" stroke="#63b8ff" points="191.66,-46.82 202.03,-44.64 192.57,-39.88 191.66,-46.82"/>
</a>
</g>
</g>
<!-- Node3 -->
<g id="Node000003" class="node">
<title>Node3</title>
<g id="a_Node000003"><a xlink:href="class_widget.html#a5726db3aa94844c547974fb48594a305" target="_top" xlink:title="Constructs a widget at a specified screen location.">
<polygon fill="white" stroke="#666666" points="260,-19.25 176.5,-19.25 176.5,0 260,0 260,-19.25"/>
<text text-anchor="middle" x="218.25" y="-5.75" font-family="Helvetica,sans-Serif" font-size="10.00">Widget::Widget</text>
</a>
</g>
</g>
<!-- Node1&#45;&gt;Node3 -->
<g id="edge2_Node000001_Node000003" class="edge">
<title>Node1&#45;&gt;Node3</title>
<g id="a_edge2_Node000001_Node000003"><a xlink:title=" ">
<path fill="none" stroke="#63b8ff" d="M140.83,-19.05C148.83,-18.06 156.88,-17.07 164.6,-16.12"/>
<polygon fill="#63b8ff" stroke="#63b8ff" points="165.02,-19.59 174.52,-14.89 164.17,-12.64 165.02,-19.59"/>
</a>
</g>
</g>
</g>
</svg>
