<?xml version="1.0" encoding="UTF-8" standalone="no"?>
<!DOCTYPE svg PUBLIC "-//W3C//DTD SVG 1.1//EN"
 "http://www.w3.org/Graphics/SVG/1.1/DTD/svg11.dtd">
<!-- Generated by graphviz version 12.2.1 (20241206.2353)
 -->
<!-- Title: ConfigScreen::highlightActiveKnob Pages: 1 -->
<svg width="342pt" height="88pt"
 viewBox="0.00 0.00 341.50 87.50" xmlns="http://www.w3.org/2000/svg" xmlns:xlink="http://www.w3.org/1999/xlink">
<g id="graph0" class="graph" transform="scale(1 1) rotate(0) translate(4 83.5)">
<title>ConfigScreen::highlightActiveKnob</title>
<!-- Node1 -->
<g id="Node000001" class="node">
<title>Node1</title>
<g id="a_Node000001"><a xlink:title="Highlights a knob widget to indicate it is active.">
<polygon fill="#999999" stroke="#666666" points="167.5,-48.88 0,-48.88 0,-29.62 167.5,-29.62 167.5,-48.88"/>
<text text-anchor="middle" x="83.75" y="-35.38" font-family="Helvetica,sans-Serif" font-size="10.00">ConfigScreen::highlightActiveKnob</text>
</a>
</g>
</g>
<!-- Node2 -->
<g id="Node000002" class="node">
<title>Node2</title>
<g id="a_Node000002"><a xlink:href="class_potentiometer_knob_widget.html#a986371b22e82396d24153e47eb33f10e" target="_top" xlink:title="Returns the identifier of the associated knob.">
<polygon fill="white" stroke="#666666" points="333.5,-79.5 203.5,-79.5 203.5,-49 333.5,-49 333.5,-79.5"/>
<text text-anchor="start" x="211.5" y="-66" font-family="Helvetica,sans-Serif" font-size="10.00">PotentiometerKnobWidget</text>
<text text-anchor="middle" x="268.5" y="-54.75" font-family="Helvetica,sans-Serif" font-size="10.00">::getKnobId</text>
</a>
</g>
</g>
<!-- Node1&#45;&gt;Node2 -->
<g id="edge1_Node000001_Node000002" class="edge">
<title>Node1&#45;&gt;Node2</title>
<g id="a_edge1_Node000001_Node000002"><a xlink:title=" ">
<path fill="none" stroke="#63b8ff" d="M158.55,-49.35C169.51,-50.85 180.81,-52.39 191.81,-53.9"/>
<polygon fill="#63b8ff" stroke="#63b8ff" points="191.24,-57.35 201.62,-55.24 192.19,-50.41 191.24,-57.35"/>
</a>
</g>
</g>
<!-- Node3 -->
<g id="Node000003" class="node">
<title>Node3</title>
<g id="a_Node000003"><a xlink:href="class_potentiometer_knob_widget.html#a52a99165c59f2618e344252fe2212b60" target="_top" xlink:title="Enables or disables highlight (blink when true).">
<polygon fill="white" stroke="#666666" points="333.5,-30.5 203.5,-30.5 203.5,0 333.5,0 333.5,-30.5"/>
<text text-anchor="start" x="211.5" y="-17" font-family="Helvetica,sans-Serif" font-size="10.00">PotentiometerKnobWidget</text>
<text text-anchor="middle" x="268.5" y="-5.75" font-family="Helvetica,sans-Serif" font-size="10.00">::setHighlighted</text>
</a>
</g>
</g>
<!-- Node1&#45;&gt;Node3 -->
<g id="edge2_Node000001_Node000003" class="edge">
<title>Node1&#45;&gt;Node3</title>
<g id="a_edge2_Node000001_Node000003"><a xlink:title=" ">
<path fill="none" stroke="#63b8ff" d="M161.72,-29.14C171.72,-27.83 181.95,-26.49 191.92,-25.18"/>
<polygon fill="#63b8ff" stroke="#63b8ff" points="192.08,-28.69 201.54,-23.91 191.16,-21.74 192.08,-28.69"/>
</a>
</g>
</g>
</g>
</svg>
