<?xml version="1.0" encoding="UTF-8" standalone="no"?>
<!DOCTYPE svg PUBLIC "-//W3C//DTD SVG 1.1//EN"
 "http://www.w3.org/Graphics/SVG/1.1/DTD/svg11.dtd">
<!-- Generated by graphviz version 12.2.1 (20241206.2353)
 -->
<!-- Title: AppMode Pages: 1 -->
<svg width="395pt" height="83pt"
 viewBox="0.00 0.00 395.25 82.50" xmlns="http://www.w3.org/2000/svg" xmlns:xlink="http://www.w3.org/1999/xlink">
<g id="graph0" class="graph" transform="scale(1 1) rotate(0) translate(4 78.5)">
<title>AppMode</title>
<!-- Node1 -->
<g id="Node000001" class="node">
<title>Node1</title>
<g id="a_Node000001"><a xlink:title="Base class for defining behavior of application modes.">
<polygon fill="#999999" stroke="#666666" points="222.88,-74.5 165.62,-74.5 165.62,-55.25 222.88,-55.25 222.88,-74.5"/>
<text text-anchor="middle" x="194.25" y="-61" font-family="Helvetica,sans-Serif" font-size="10.00">AppMode</text>
</a>
</g>
</g>
<!-- Node2 -->
<g id="Node000002" class="node">
<title>Node2</title>
<g id="a_Node000002"><a xlink:href="class_config_mode.html" target="_top" xlink:title="Mode that enables editing of system configuration parameters.">
<polygon fill="white" stroke="#666666" points="68.5,-19.25 0,-19.25 0,0 68.5,0 68.5,-19.25"/>
<text text-anchor="middle" x="34.25" y="-5.75" font-family="Helvetica,sans-Serif" font-size="10.00">ConfigMode</text>
</a>
</g>
</g>
<!-- Node1&#45;&gt;Node2 -->
<g id="edge1_Node000001_Node000002" class="edge">
<title>Node1&#45;&gt;Node2</title>
<g id="a_edge1_Node000001_Node000002"><a xlink:title=" ">
<path fill="none" stroke="#63b8ff" d="M156.49,-51.31C127.33,-41.6 87.66,-28.4 61.52,-19.7"/>
<polygon fill="#63b8ff" stroke="#63b8ff" points="155.08,-54.53 165.67,-54.36 157.29,-47.89 155.08,-54.53"/>
</a>
</g>
</g>
<!-- Node3 -->
<g id="Node000003" class="node">
<title>Node3</title>
<g id="a_Node000003"><a xlink:href="class_controls_test_mode.html" target="_top" xlink:title="Mode used for debugging and validating physical control input.">
<polygon fill="white" stroke="#666666" points="182,-19.25 86.5,-19.25 86.5,0 182,0 182,-19.25"/>
<text text-anchor="middle" x="134.25" y="-5.75" font-family="Helvetica,sans-Serif" font-size="10.00">ControlsTestMode</text>
</a>
</g>
</g>
<!-- Node1&#45;&gt;Node3 -->
<g id="edge2_Node000001_Node000003" class="edge">
<title>Node1&#45;&gt;Node3</title>
<g id="a_edge2_Node000001_Node000003"><a xlink:title=" ">
<path fill="none" stroke="#63b8ff" d="M175.67,-47.39C165.31,-38.19 152.82,-27.1 144.28,-19.52"/>
<polygon fill="#63b8ff" stroke="#63b8ff" points="173.14,-49.82 182.94,-53.84 177.78,-44.58 173.14,-49.82"/>
</a>
</g>
</g>
<!-- Node4 -->
<g id="Node000004" class="node">
<title>Node4</title>
<g id="a_Node000004"><a xlink:href="class_direct_command_mode.html" target="_top" xlink:title="Mode for direct interaction with PG&#45;800&#45;style command interface.">
<polygon fill="white" stroke="#666666" points="310.88,-19.25 199.62,-19.25 199.62,0 310.88,0 310.88,-19.25"/>
<text text-anchor="middle" x="255.25" y="-5.75" font-family="Helvetica,sans-Serif" font-size="10.00">DirectCommandMode</text>
</a>
</g>
</g>
<!-- Node1&#45;&gt;Node4 -->
<g id="edge3_Node000001_Node000004" class="edge">
<title>Node1&#45;&gt;Node4</title>
<g id="a_edge3_Node000001_Node000004"><a xlink:title=" ">
<path fill="none" stroke="#63b8ff" d="M213.14,-47.39C223.67,-38.19 236.37,-27.1 245.06,-19.52"/>
<polygon fill="#63b8ff" stroke="#63b8ff" points="210.97,-44.63 205.74,-53.85 215.57,-49.91 210.97,-44.63"/>
</a>
</g>
</g>
<!-- Node5 -->
<g id="Node000005" class="node">
<title>Node5</title>
<g id="a_Node000005"><a xlink:href="class_run_mode.html" target="_top" xlink:title="Application mode for normal runtime operation.">
<polygon fill="white" stroke="#666666" points="387.25,-19.25 329.25,-19.25 329.25,0 387.25,0 387.25,-19.25"/>
<text text-anchor="middle" x="358.25" y="-5.75" font-family="Helvetica,sans-Serif" font-size="10.00">RunMode</text>
</a>
</g>
</g>
<!-- Node1&#45;&gt;Node5 -->
<g id="edge4_Node000001_Node000005" class="edge">
<title>Node1&#45;&gt;Node5</title>
<g id="a_edge4_Node000001_Node000005"><a xlink:title=" ">
<path fill="none" stroke="#63b8ff" d="M232.95,-51.31C262.84,-41.6 303.5,-28.4 330.29,-19.7"/>
<polygon fill="#63b8ff" stroke="#63b8ff" points="231.94,-47.96 223.51,-54.37 234.1,-54.62 231.94,-47.96"/>
</a>
</g>
</g>
</g>
</svg>
