<?xml version="1.0" encoding="UTF-8" standalone="no"?>
<!DOCTYPE svg PUBLIC "-//W3C//DTD SVG 1.1//EN"
 "http://www.w3.org/Graphics/SVG/1.1/DTD/svg11.dtd">
<!-- Generated by graphviz version 12.2.1 (20241206.2353)
 -->
<!-- Title: KnobWidget::KnobWidget Pages: 1 -->
<svg width="256pt" height="64pt"
 viewBox="0.00 0.00 256.00 64.25" xmlns="http://www.w3.org/2000/svg" xmlns:xlink="http://www.w3.org/1999/xlink">
<g id="graph0" class="graph" transform="scale(1 1) rotate(0) translate(4 60.25)">
<title>KnobWidget::KnobWidget</title>
<!-- Node1 -->
<g id="Node000001" class="node">
<title>Node1</title>
<g id="a_Node000001"><a xlink:title="Constructs a knob widget at the specified position.">
<polygon fill="#999999" stroke="#666666" points="128.5,-37.25 0,-37.25 0,-18 128.5,-18 128.5,-37.25"/>
<text text-anchor="middle" x="64.25" y="-23.75" font-family="Helvetica,sans-Serif" font-size="10.00">KnobWidget::KnobWidget</text>
</a>
</g>
</g>
<!-- Node2 -->
<g id="Node000002" class="node">
<title>Node2</title>
<g id="a_Node000002"><a xlink:href="_logging_8cpp.html#a32abad09d9f828a9805862e18ad5da5f" target="_top" xlink:title="Logs a message with an explicit log level.">
<polygon fill="white" stroke="#666666" points="220.65,-56.25 191.85,-56.25 191.85,-37 220.65,-37 220.65,-56.25"/>
<text text-anchor="middle" x="206.25" y="-42.75" font-family="Helvetica,sans-Serif" font-size="10.00">log</text>
</a>
</g>
</g>
<!-- Node1&#45;&gt;Node2 -->
<g id="edge1_Node000001_Node000002" class="edge">
<title>Node1&#45;&gt;Node2</title>
<g id="a_edge1_Node000001_Node000002"><a xlink:title=" ">
<path fill="none" stroke="#63b8ff" d="M128.7,-36.24C147.12,-38.74 166.16,-41.32 180.64,-43.29"/>
<polygon fill="#63b8ff" stroke="#63b8ff" points="179.74,-46.69 190.12,-44.57 180.68,-39.76 179.74,-46.69"/>
</a>
</g>
</g>
<!-- Node3 -->
<g id="Node000003" class="node">
<title>Node3</title>
<g id="a_Node000003"><a xlink:href="class_widget.html#a5726db3aa94844c547974fb48594a305" target="_top" xlink:title="Constructs a widget at a specified screen location.">
<polygon fill="white" stroke="#666666" points="248,-19.25 164.5,-19.25 164.5,0 248,0 248,-19.25"/>
<text text-anchor="middle" x="206.25" y="-5.75" font-family="Helvetica,sans-Serif" font-size="10.00">Widget::Widget</text>
</a>
</g>
</g>
<!-- Node1&#45;&gt;Node3 -->
<g id="edge2_Node000001_Node000003" class="edge">
<title>Node1&#45;&gt;Node3</title>
<g id="a_edge2_Node000001_Node000003"><a xlink:title=" ">
<path fill="none" stroke="#63b8ff" d="M128.7,-19.47C136.77,-18.43 144.95,-17.38 152.82,-16.37"/>
<polygon fill="#63b8ff" stroke="#63b8ff" points="153.1,-19.86 162.57,-15.11 152.21,-12.92 153.1,-19.86"/>
</a>
</g>
</g>
</g>
</svg>
