<?xml version="1.0" encoding="UTF-8" standalone="no"?>
<!DOCTYPE svg PUBLIC "-//W3C//DTD SVG 1.1//EN"
 "http://www.w3.org/Graphics/SVG/1.1/DTD/svg11.dtd">
<!-- Generated by graphviz version 12.2.1 (20241206.2353)
 -->
<!-- Title: RunModeScreen::onEnter Pages: 1 -->
<svg width="379pt" height="46pt"
 viewBox="0.00 0.00 378.55 46.25" xmlns="http://www.w3.org/2000/svg" xmlns:xlink="http://www.w3.org/1999/xlink">
<g id="graph0" class="graph" transform="scale(1 1) rotate(0) translate(4 42.25)">
<title>RunModeScreen::onEnter</title>
<!-- Node1 -->
<g id="Node000001" class="node">
<title>Node1</title>
<g id="a_Node000001"><a xlink:title="Called when the screen becomes active.">
<polygon fill="#999999" stroke="#666666" points="128.5,-19.25 0,-19.25 0,0 128.5,0 128.5,-19.25"/>
<text text-anchor="middle" x="64.25" y="-5.75" font-family="Helvetica,sans-Serif" font-size="10.00">RunModeScreen::onEnter</text>
</a>
</g>
</g>
<!-- Node2 -->
<g id="Node000002" class="node">
<title>Node2</title>
<g id="a_Node000002"><a xlink:href="class_run_mode_screen.html#a858ca240bf5385a21634b570d1a4885b" target="_top" xlink:title="Adds a widget to the screen&#39;s layout.">
<polygon fill="white" stroke="#666666" points="305.75,-38.25 164.5,-38.25 164.5,-19 305.75,-19 305.75,-38.25"/>
<text text-anchor="middle" x="235.12" y="-24.75" font-family="Helvetica,sans-Serif" font-size="10.00">RunModeScreen::addWidget</text>
</a>
</g>
</g>
<!-- Node1&#45;&gt;Node2 -->
<g id="edge1_Node000001_Node000002" class="edge">
<title>Node1&#45;&gt;Node2</title>
<g id="a_edge1_Node000001_Node000002"><a xlink:title=" ">
<path fill="none" stroke="#63b8ff" d="M128.61,-16.75C136.5,-17.64 144.65,-18.56 152.76,-19.47"/>
<polygon fill="#63b8ff" stroke="#63b8ff" points="152.34,-22.95 162.67,-20.59 153.13,-15.99 152.34,-22.95"/>
</a>
</g>
</g>
<!-- Node3 -->
<g id="Node000003" class="node">
<title>Node3</title>
<g id="a_Node000003"><a xlink:href="_logging_8cpp.html#a32abad09d9f828a9805862e18ad5da5f" target="_top" xlink:title="Logs a message with an explicit log level.">
<polygon fill="white" stroke="#666666" points="370.55,-19.25 341.75,-19.25 341.75,0 370.55,0 370.55,-19.25"/>
<text text-anchor="middle" x="356.15" y="-5.75" font-family="Helvetica,sans-Serif" font-size="10.00">log</text>
</a>
</g>
</g>
<!-- Node1&#45;&gt;Node3 -->
<g id="edge3_Node000001_Node000003" class="edge">
<title>Node1&#45;&gt;Node3</title>
<g id="a_edge3_Node000001_Node000003"><a xlink:title=" ">
<path fill="none" stroke="#63b8ff" d="M128.87,-9.62C191.96,-9.62 285.44,-9.62 329.9,-9.62"/>
<polygon fill="#63b8ff" stroke="#63b8ff" points="329.8,-13.13 339.8,-9.63 329.8,-6.13 329.8,-13.13"/>
</a>
</g>
</g>
<!-- Node2&#45;&gt;Node3 -->
<g id="edge2_Node000002_Node000003" class="edge">
<title>Node2&#45;&gt;Node3</title>
<g id="a_edge2_Node000002_Node000003"><a xlink:title=" ">
<path fill="none" stroke="#63b8ff" d="M299.47,-18.51C310.46,-16.76 321.28,-15.03 330.41,-13.57"/>
<polygon fill="#63b8ff" stroke="#63b8ff" points="330.87,-17.05 340.19,-12.01 329.76,-10.13 330.87,-17.05"/>
</a>
</g>
</g>
</g>
</svg>
