<?xml version="1.0" encoding="UTF-8" standalone="no"?>
<!DOCTYPE svg PUBLIC "-//W3C//DTD SVG 1.1//EN"
 "http://www.w3.org/Graphics/SVG/1.1/DTD/svg11.dtd">
<!-- Generated by graphviz version 12.2.1 (20241206.2353)
 -->
<!-- Title: DirectCommandScreen Pages: 1 -->
<svg width="347pt" height="171pt"
 viewBox="0.00 0.00 347.25 171.25" xmlns="http://www.w3.org/2000/svg" xmlns:xlink="http://www.w3.org/1999/xlink">
<g id="graph0" class="graph" transform="scale(1 1) rotate(0) translate(4 167.25)">
<title>DirectCommandScreen</title>
<!-- Node1 -->
<g id="Node000001" class="node">
<title>Node1</title>
<g id="a_Node000001"><a xlink:title="UI screen for direct entry and sending of PG&#45;800&#45;style commands.">
<polygon fill="#999999" stroke="#666666" points="203.38,-19.25 85.38,-19.25 85.38,0 203.38,0 203.38,-19.25"/>
<text text-anchor="middle" x="144.38" y="-5.75" font-family="Helvetica,sans-Serif" font-size="10.00">DirectCommandScreen</text>
</a>
</g>
</g>
<!-- Node2 -->
<g id="Node000002" class="node">
<title>Node2</title>
<g id="a_Node000002"><a xlink:href="class_screen.html" target="_top" xlink:title="Base class for user interface screens.">
<polygon fill="white" stroke="#666666" points="46.75,-107 0,-107 0,-87.75 46.75,-87.75 46.75,-107"/>
<text text-anchor="middle" x="23.38" y="-93.5" font-family="Helvetica,sans-Serif" font-size="10.00">Screen</text>
</a>
</g>
</g>
<!-- Node2&#45;&gt;Node1 -->
<g id="edge1_Node000001_Node000002" class="edge">
<title>Node2&#45;&gt;Node1</title>
<g id="a_edge1_Node000001_Node000002"><a xlink:title=" ">
<path fill="none" stroke="#63b8ff" d="M45.02,-81.04C70.28,-63.13 111.22,-34.12 131.77,-19.56"/>
<polygon fill="#63b8ff" stroke="#63b8ff" points="43.24,-78.01 37.1,-86.65 47.29,-83.72 43.24,-78.01"/>
</a>
</g>
</g>
<!-- Node3 -->
<g id="Node000003" class="node">
<title>Node3</title>
<g id="a_Node000003"><a xlink:href="class_encoder_attached_numeric_widget.html" target="_top" xlink:title="Numeric display widget controlled by rotary encoder input.">
<polygon fill="white" stroke="#666666" points="223.62,-107 65.12,-107 65.12,-87.75 223.62,-87.75 223.62,-107"/>
<text text-anchor="middle" x="144.38" y="-93.5" font-family="Helvetica,sans-Serif" font-size="10.00">EncoderAttachedNumericWidget</text>
</a>
</g>
</g>
<!-- Node3&#45;&gt;Node1 -->
<g id="edge2_Node000001_Node000003" class="edge">
<title>Node3&#45;&gt;Node1</title>
<g id="a_edge2_Node000001_Node000003"><a xlink:title=" ">
<path fill="none" stroke="#9a32cd" stroke-dasharray="5,2" d="M144.38,-76.04C144.38,-58.11 144.38,-32.83 144.38,-19.56"/>
<polygon fill="#9a32cd" stroke="#9a32cd" points="140.88,-76.01 144.38,-86.01 147.88,-76.01 140.88,-76.01"/>
</a>
</g>
<text text-anchor="start" x="147.38" y="-57.25" font-family="Helvetica,sans-Serif" font-size="10.00" fill="grey">byteWidget</text>
<text text-anchor="start" x="147.38" y="-42" font-family="Helvetica,sans-Serif" font-size="10.00" fill="grey">cmdWidget</text>
</g>
<!-- Node4 -->
<g id="Node000004" class="node">
<title>Node4</title>
<g id="a_Node000004"><a xlink:href="class_widget.html" target="_top" xlink:title="Base class for all on&#45;screen widgets.">
<polygon fill="white" stroke="#666666" points="239.75,-163.25 193,-163.25 193,-144 239.75,-144 239.75,-163.25"/>
<text text-anchor="middle" x="216.38" y="-149.75" font-family="Helvetica,sans-Serif" font-size="10.00">Widget</text>
</a>
</g>
</g>
<!-- Node4&#45;&gt;Node3 -->
<g id="edge3_Node000003_Node000004" class="edge">
<title>Node4&#45;&gt;Node3</title>
<g id="a_edge3_Node000003_Node000004"><a xlink:title=" ">
<path fill="none" stroke="#63b8ff" d="M195.42,-136.84C182.6,-127.17 166.66,-115.17 156.04,-107.17"/>
<polygon fill="#63b8ff" stroke="#63b8ff" points="193.18,-139.53 203.28,-142.76 197.4,-133.94 193.18,-139.53"/>
</a>
</g>
</g>
<!-- Node5 -->
<g id="Node000005" class="node">
<title>Node5</title>
<g id="a_Node000005"><a xlink:href="class_push_button_widget.html" target="_top" xlink:title="On&#45;screen momentary button with press state and optional encoder focus (like an OK or Cancel button).">
<polygon fill="white" stroke="#666666" points="339.25,-107 241.5,-107 241.5,-87.75 339.25,-87.75 339.25,-107"/>
<text text-anchor="middle" x="290.38" y="-93.5" font-family="Helvetica,sans-Serif" font-size="10.00">PushButtonWidget</text>
</a>
</g>
</g>
<!-- Node4&#45;&gt;Node5 -->
<g id="edge5_Node000005_Node000004" class="edge">
<title>Node4&#45;&gt;Node5</title>
<g id="a_edge5_Node000005_Node000004"><a xlink:title=" ">
<path fill="none" stroke="#63b8ff" d="M237.85,-136.88C250.94,-127.28 267.21,-115.36 278.14,-107.35"/>
<polygon fill="#63b8ff" stroke="#63b8ff" points="235.81,-134.04 229.82,-142.77 239.95,-139.68 235.81,-134.04"/>
</a>
</g>
</g>
<!-- Node5&#45;&gt;Node1 -->
<g id="edge4_Node000001_Node000005" class="edge">
<title>Node5&#45;&gt;Node1</title>
<g id="a_edge4_Node000001_Node000005"><a xlink:title=" ">
<path fill="none" stroke="#9a32cd" stroke-dasharray="5,2" d="M269.85,-80.66C252.85,-68.05 227.77,-50.34 204.38,-37.25 192.54,-30.63 178.74,-24.41 167.36,-19.65"/>
<polygon fill="#9a32cd" stroke="#9a32cd" points="267.55,-83.31 277.65,-86.52 271.76,-77.72 267.55,-83.31"/>
</a>
</g>
<text text-anchor="start" x="257.3" y="-49.62" font-family="Helvetica,sans-Serif" font-size="10.00" fill="grey">pushWidget</text>
</g>
</g>
</svg>
