<?xml version="1.0" encoding="UTF-8" standalone="no"?>
<!DOCTYPE svg PUBLIC "-//W3C//DTD SVG 1.1//EN"
 "http://www.w3.org/Graphics/SVG/1.1/DTD/svg11.dtd">
<!-- Generated by graphviz version 12.2.1 (20241206.2353)
 -->
<!-- Title: HardwareManager::loop Pages: 1 -->
<svg width="755pt" height="76pt"
 viewBox="0.00 0.00 755.25 75.88" xmlns="http://www.w3.org/2000/svg" xmlns:xlink="http://www.w3.org/1999/xlink">
<g id="graph0" class="graph" transform="scale(1 1) rotate(0) translate(4 71.88)">
<title>HardwareManager::loop</title>
<!-- Node1 -->
<g id="Node000001" class="node">
<title>Node1</title>
<g id="a_Node000001"><a xlink:title="Main polling loop, throttled to a fixed interval.">
<polygon fill="#999999" stroke="#666666" points="119.5,-40.25 0,-40.25 0,-21 119.5,-21 119.5,-40.25"/>
<text text-anchor="middle" x="59.75" y="-26.75" font-family="Helvetica,sans-Serif" font-size="10.00">HardwareManager::loop</text>
</a>
</g>
</g>
<!-- Node2 -->
<g id="Node000002" class="node">
<title>Node2</title>
<g id="a_Node000002"><a xlink:href="class_hardware_manager.html#a4a7cab7ae0b5071b0557905000f46806" target="_top" xlink:title="Reads all analog and digital inputs.">
<polygon fill="white" stroke="#666666" points="315.5,-45.88 155.5,-45.88 155.5,-15.37 315.5,-15.37 315.5,-45.88"/>
<text text-anchor="start" x="163.5" y="-32.38" font-family="Helvetica,sans-Serif" font-size="10.00">HardwareManager::gatherControl</text>
<text text-anchor="middle" x="235.5" y="-21.12" font-family="Helvetica,sans-Serif" font-size="10.00">Settings</text>
</a>
</g>
</g>
<!-- Node1&#45;&gt;Node2 -->
<g id="edge1_Node000001_Node000002" class="edge">
<title>Node1&#45;&gt;Node2</title>
<g id="a_edge1_Node000001_Node000002"><a xlink:title=" ">
<path fill="none" stroke="#63b8ff" d="M119.57,-30.62C127.43,-30.62 135.62,-30.62 143.86,-30.62"/>
<polygon fill="#63b8ff" stroke="#63b8ff" points="143.58,-34.13 153.58,-30.63 143.58,-27.13 143.58,-34.13"/>
</a>
</g>
</g>
<!-- Node3 -->
<g id="Node000003" class="node">
<title>Node3</title>
<g id="a_Node000003"><a xlink:href="class_hardware_manager.html#ab2810a18f676cb33b5696d59a61caf1b" target="_top" xlink:title="Reads and stores current potentiometer values.">
<polygon fill="white" stroke="#666666" points="540.75,-67.88 351.5,-67.88 351.5,-37.38 540.75,-37.38 540.75,-67.88"/>
<text text-anchor="start" x="359.5" y="-54.38" font-family="Helvetica,sans-Serif" font-size="10.00">HardwareManager::gatherPotentiometer</text>
<text text-anchor="middle" x="446.12" y="-43.12" font-family="Helvetica,sans-Serif" font-size="10.00">Values</text>
</a>
</g>
</g>
<!-- Node2&#45;&gt;Node3 -->
<g id="edge2_Node000002_Node000003" class="edge">
<title>Node2&#45;&gt;Node3</title>
<g id="a_edge2_Node000002_Node000003"><a xlink:title=" ">
<path fill="none" stroke="#63b8ff" d="M315.97,-39.01C323.79,-39.83 331.82,-40.68 339.85,-41.52"/>
<polygon fill="#63b8ff" stroke="#63b8ff" points="339.38,-44.99 349.69,-42.56 340.11,-38.03 339.38,-44.99"/>
</a>
</g>
</g>
<!-- Node5 -->
<g id="Node000005" class="node">
<title>Node5</title>
<g id="a_Node000005"><a xlink:href="class_hardware_manager.html#a04393ce5c07558f919f4473049543260" target="_top" xlink:title="Reads and updates encoder state.">
<polygon fill="white" stroke="#666666" points="529.5,-19.25 362.75,-19.25 362.75,0 529.5,0 529.5,-19.25"/>
<text text-anchor="middle" x="446.12" y="-5.75" font-family="Helvetica,sans-Serif" font-size="10.00">HardwareManager::updateEncoder</text>
</a>
</g>
</g>
<!-- Node2&#45;&gt;Node5 -->
<g id="edge4_Node000002_Node000005" class="edge">
<title>Node2&#45;&gt;Node5</title>
<g id="a_edge4_Node000002_Node000005"><a xlink:title=" ">
<path fill="none" stroke="#63b8ff" d="M315.97,-22.63C327.49,-21.47 339.43,-20.26 351.2,-19.08"/>
<polygon fill="#63b8ff" stroke="#63b8ff" points="351.31,-22.59 360.91,-18.1 350.61,-15.62 351.31,-22.59"/>
</a>
</g>
</g>
<!-- Node4 -->
<g id="Node000004" class="node">
<title>Node4</title>
<g id="a_Node000004"><a xlink:href="class_hardware_manager.html#aef067455e10624433ddd360794012151" target="_top" xlink:title="Sets the MUX address lines.">
<polygon fill="white" stroke="#666666" points="747.25,-62.25 576.75,-62.25 576.75,-43 747.25,-43 747.25,-62.25"/>
<text text-anchor="middle" x="662" y="-48.75" font-family="Helvetica,sans-Serif" font-size="10.00">HardwareManager::setAddressPins</text>
</a>
</g>
</g>
<!-- Node3&#45;&gt;Node4 -->
<g id="edge3_Node000003_Node000004" class="edge">
<title>Node3&#45;&gt;Node4</title>
<g id="a_edge3_Node000003_Node000004"><a xlink:title=" ">
<path fill="none" stroke="#63b8ff" d="M541.24,-52.62C549.08,-52.62 557,-52.62 564.85,-52.62"/>
<polygon fill="#63b8ff" stroke="#63b8ff" points="564.75,-56.13 574.75,-52.63 564.75,-49.13 564.75,-56.13"/>
</a>
</g>
</g>
<!-- Node6 -->
<g id="Node000006" class="node">
<title>Node6</title>
<g id="a_Node000006"><a xlink:href="_logging_8cpp.html#a32abad09d9f828a9805862e18ad5da5f" target="_top" xlink:title="Logs a message with an explicit log level.">
<polygon fill="white" stroke="#666666" points="676.4,-19.25 647.6,-19.25 647.6,0 676.4,0 676.4,-19.25"/>
<text text-anchor="middle" x="662" y="-5.75" font-family="Helvetica,sans-Serif" font-size="10.00">log</text>
</a>
</g>
</g>
<!-- Node5&#45;&gt;Node6 -->
<g id="edge5_Node000005_Node000006" class="edge">
<title>Node5&#45;&gt;Node6</title>
<g id="a_edge5_Node000005_Node000006"><a xlink:title=" ">
<path fill="none" stroke="#63b8ff" d="M529.81,-9.62C567.6,-9.62 609.64,-9.62 635.7,-9.62"/>
<polygon fill="#63b8ff" stroke="#63b8ff" points="635.61,-13.13 645.61,-9.63 635.61,-6.13 635.61,-13.13"/>
</a>
</g>
</g>
</g>
</svg>
