<?xml version="1.0" encoding="UTF-8" standalone="no"?>
<!DOCTYPE svg PUBLIC "-//W3C//DTD SVG 1.1//EN"
 "http://www.w3.org/Graphics/SVG/1.1/DTD/svg11.dtd">
<!-- Generated by graphviz version 12.2.1 (20241206.2353)
 -->
<!-- Title: HardwareManager::gatherPotentiometerValues Pages: 1 -->
<svg width="549pt" height="39pt"
 viewBox="0.00 0.00 548.75 38.50" xmlns="http://www.w3.org/2000/svg" xmlns:xlink="http://www.w3.org/1999/xlink">
<g id="graph0" class="graph" transform="scale(1 1) rotate(0) translate(4 34.5)">
<title>HardwareManager::gatherPotentiometerValues</title>
<!-- Node1 -->
<g id="Node000001" class="node">
<title>Node1</title>
<g id="a_Node000001"><a xlink:title="Reads and stores current potentiometer values.">
<polygon fill="#999999" stroke="#666666" points="540.75,-30.5 351.5,-30.5 351.5,0 540.75,0 540.75,-30.5"/>
<text text-anchor="start" x="359.5" y="-17" font-family="Helvetica,sans-Serif" font-size="10.00">HardwareManager::gatherPotentiometer</text>
<text text-anchor="middle" x="446.12" y="-5.75" font-family="Helvetica,sans-Serif" font-size="10.00">Values</text>
</a>
</g>
</g>
<!-- Node2 -->
<g id="Node000002" class="node">
<title>Node2</title>
<g id="a_Node000002"><a xlink:href="class_hardware_manager.html#a4a7cab7ae0b5071b0557905000f46806" target="_top" xlink:title="Reads all analog and digital inputs.">
<polygon fill="white" stroke="#666666" points="315.5,-30.5 155.5,-30.5 155.5,0 315.5,0 315.5,-30.5"/>
<text text-anchor="start" x="163.5" y="-17" font-family="Helvetica,sans-Serif" font-size="10.00">HardwareManager::gatherControl</text>
<text text-anchor="middle" x="235.5" y="-5.75" font-family="Helvetica,sans-Serif" font-size="10.00">Settings</text>
</a>
</g>
</g>
<!-- Node1&#45;&gt;Node2 -->
<g id="edge1_Node000001_Node000002" class="edge">
<title>Node1&#45;&gt;Node2</title>
<g id="a_edge1_Node000001_Node000002"><a xlink:title=" ">
<path fill="none" stroke="#63b8ff" d="M339.82,-15.25C331.78,-15.25 323.74,-15.25 315.9,-15.25"/>
<polygon fill="#63b8ff" stroke="#63b8ff" points="339.67,-18.75 349.67,-15.25 339.67,-11.75 339.67,-18.75"/>
</a>
</g>
</g>
<!-- Node3 -->
<g id="Node000003" class="node">
<title>Node3</title>
<g id="a_Node000003"><a xlink:href="class_hardware_manager.html#a6f45e846ef082a37a2bd2d3edf9efb5b" target="_top" xlink:title="Main polling loop, throttled to a fixed interval.">
<polygon fill="white" stroke="#666666" points="119.5,-24.88 0,-24.88 0,-5.63 119.5,-5.63 119.5,-24.88"/>
<text text-anchor="middle" x="59.75" y="-11.38" font-family="Helvetica,sans-Serif" font-size="10.00">HardwareManager::loop</text>
</a>
</g>
</g>
<!-- Node2&#45;&gt;Node3 -->
<g id="edge2_Node000002_Node000003" class="edge">
<title>Node2&#45;&gt;Node3</title>
<g id="a_edge2_Node000002_Node000003"><a xlink:title=" ">
<path fill="none" stroke="#63b8ff" d="M143.78,-15.25C135.67,-15.25 127.61,-15.25 119.87,-15.25"/>
<polygon fill="#63b8ff" stroke="#63b8ff" points="143.74,-18.75 153.74,-15.25 143.74,-11.75 143.74,-18.75"/>
</a>
</g>
</g>
</g>
</svg>
