<?xml version="1.0" encoding="UTF-8" standalone="no"?>
<!DOCTYPE svg PUBLIC "-//W3C//DTD SVG 1.1//EN"
 "http://www.w3.org/Graphics/SVG/1.1/DTD/svg11.dtd">
<!-- Generated by graphviz version 12.2.1 (20241206.2353)
 -->
<!-- Title: HardwareManager::gatherControlSettings Pages: 1 -->
<svg width="600pt" height="76pt"
 viewBox="0.00 0.00 599.75 75.88" xmlns="http://www.w3.org/2000/svg" xmlns:xlink="http://www.w3.org/1999/xlink">
<g id="graph0" class="graph" transform="scale(1 1) rotate(0) translate(4 71.88)">
<title>HardwareManager::gatherControlSettings</title>
<!-- Node1 -->
<g id="Node000001" class="node">
<title>Node1</title>
<g id="a_Node000001"><a xlink:title="Reads all analog and digital inputs.">
<polygon fill="#999999" stroke="#666666" points="160,-45.88 0,-45.88 0,-15.37 160,-15.37 160,-45.88"/>
<text text-anchor="start" x="8" y="-32.38" font-family="Helvetica,sans-Serif" font-size="10.00">HardwareManager::gatherControl</text>
<text text-anchor="middle" x="80" y="-21.12" font-family="Helvetica,sans-Serif" font-size="10.00">Settings</text>
</a>
</g>
</g>
<!-- Node2 -->
<g id="Node000002" class="node">
<title>Node2</title>
<g id="a_Node000002"><a xlink:href="class_hardware_manager.html#ab2810a18f676cb33b5696d59a61caf1b" target="_top" xlink:title="Reads and stores current potentiometer values.">
<polygon fill="white" stroke="#666666" points="385.25,-67.88 196,-67.88 196,-37.38 385.25,-37.38 385.25,-67.88"/>
<text text-anchor="start" x="204" y="-54.38" font-family="Helvetica,sans-Serif" font-size="10.00">HardwareManager::gatherPotentiometer</text>
<text text-anchor="middle" x="290.62" y="-43.12" font-family="Helvetica,sans-Serif" font-size="10.00">Values</text>
</a>
</g>
</g>
<!-- Node1&#45;&gt;Node2 -->
<g id="edge1_Node000001_Node000002" class="edge">
<title>Node1&#45;&gt;Node2</title>
<g id="a_edge1_Node000001_Node000002"><a xlink:title=" ">
<path fill="none" stroke="#63b8ff" d="M160.47,-39.01C168.29,-39.83 176.32,-40.68 184.35,-41.52"/>
<polygon fill="#63b8ff" stroke="#63b8ff" points="183.88,-44.99 194.19,-42.56 184.61,-38.03 183.88,-44.99"/>
</a>
</g>
</g>
<!-- Node4 -->
<g id="Node000004" class="node">
<title>Node4</title>
<g id="a_Node000004"><a xlink:href="class_hardware_manager.html#a04393ce5c07558f919f4473049543260" target="_top" xlink:title="Reads and updates encoder state.">
<polygon fill="white" stroke="#666666" points="374,-19.25 207.25,-19.25 207.25,0 374,0 374,-19.25"/>
<text text-anchor="middle" x="290.62" y="-5.75" font-family="Helvetica,sans-Serif" font-size="10.00">HardwareManager::updateEncoder</text>
</a>
</g>
</g>
<!-- Node1&#45;&gt;Node4 -->
<g id="edge3_Node000001_Node000004" class="edge">
<title>Node1&#45;&gt;Node4</title>
<g id="a_edge3_Node000001_Node000004"><a xlink:title=" ">
<path fill="none" stroke="#63b8ff" d="M160.47,-22.63C171.99,-21.47 183.93,-20.26 195.7,-19.08"/>
<polygon fill="#63b8ff" stroke="#63b8ff" points="195.81,-22.59 205.41,-18.1 195.11,-15.62 195.81,-22.59"/>
</a>
</g>
</g>
<!-- Node3 -->
<g id="Node000003" class="node">
<title>Node3</title>
<g id="a_Node000003"><a xlink:href="class_hardware_manager.html#aef067455e10624433ddd360794012151" target="_top" xlink:title="Sets the MUX address lines.">
<polygon fill="white" stroke="#666666" points="591.75,-62.25 421.25,-62.25 421.25,-43 591.75,-43 591.75,-62.25"/>
<text text-anchor="middle" x="506.5" y="-48.75" font-family="Helvetica,sans-Serif" font-size="10.00">HardwareManager::setAddressPins</text>
</a>
</g>
</g>
<!-- Node2&#45;&gt;Node3 -->
<g id="edge2_Node000002_Node000003" class="edge">
<title>Node2&#45;&gt;Node3</title>
<g id="a_edge2_Node000002_Node000003"><a xlink:title=" ">
<path fill="none" stroke="#63b8ff" d="M385.74,-52.62C393.58,-52.62 401.5,-52.62 409.35,-52.62"/>
<polygon fill="#63b8ff" stroke="#63b8ff" points="409.25,-56.13 419.25,-52.63 409.25,-49.13 409.25,-56.13"/>
</a>
</g>
</g>
<!-- Node5 -->
<g id="Node000005" class="node">
<title>Node5</title>
<g id="a_Node000005"><a xlink:href="_logging_8cpp.html#a32abad09d9f828a9805862e18ad5da5f" target="_top" xlink:title="Logs a message with an explicit log level.">
<polygon fill="white" stroke="#666666" points="520.9,-19.25 492.1,-19.25 492.1,0 520.9,0 520.9,-19.25"/>
<text text-anchor="middle" x="506.5" y="-5.75" font-family="Helvetica,sans-Serif" font-size="10.00">log</text>
</a>
</g>
</g>
<!-- Node4&#45;&gt;Node5 -->
<g id="edge4_Node000004_Node000005" class="edge">
<title>Node4&#45;&gt;Node5</title>
<g id="a_edge4_Node000004_Node000005"><a xlink:title=" ">
<path fill="none" stroke="#63b8ff" d="M374.31,-9.62C412.1,-9.62 454.14,-9.62 480.2,-9.62"/>
<polygon fill="#63b8ff" stroke="#63b8ff" points="480.11,-13.13 490.11,-9.63 480.11,-6.13 480.11,-13.13"/>
</a>
</g>
</g>
</g>
</svg>
