<?xml version="1.0" encoding="UTF-8" standalone="no"?>
<!DOCTYPE svg PUBLIC "-//W3C//DTD SVG 1.1//EN"
 "http://www.w3.org/Graphics/SVG/1.1/DTD/svg11.dtd">
<!-- Generated by graphviz version 12.2.1 (20241206.2353)
 -->
<!-- Title: ButtonWidget::draw Pages: 1 -->
<svg width="348pt" height="27pt"
 viewBox="0.00 0.00 347.80 27.25" xmlns="http://www.w3.org/2000/svg" xmlns:xlink="http://www.w3.org/1999/xlink">
<g id="graph0" class="graph" transform="scale(1 1) rotate(0) translate(4 23.25)">
<title>ButtonWidget::draw</title>
<!-- Node1 -->
<g id="Node000001" class="node">
<title>Node1</title>
<g id="a_Node000001"><a xlink:title="Draws the button, including LED and press state.">
<polygon fill="#999999" stroke="#666666" points="102.25,-19.25 0,-19.25 0,0 102.25,0 102.25,-19.25"/>
<text text-anchor="middle" x="51.12" y="-5.75" font-family="Helvetica,sans-Serif" font-size="10.00">ButtonWidget::draw</text>
</a>
</g>
</g>
<!-- Node2 -->
<g id="Node000002" class="node">
<title>Node2</title>
<g id="a_Node000002"><a xlink:href="class_screen_manager.html#a218ba351496671649bed8c17be7910b1" target="_top" xlink:title="Provides access to the static OLED display instance.">
<polygon fill="white" stroke="#666666" points="275,-19.25 138.25,-19.25 138.25,0 275,0 275,-19.25"/>
<text text-anchor="middle" x="206.62" y="-5.75" font-family="Helvetica,sans-Serif" font-size="10.00">ScreenManager::getDisplay</text>
</a>
</g>
</g>
<!-- Node1&#45;&gt;Node2 -->
<g id="edge1_Node000001_Node000002" class="edge">
<title>Node1&#45;&gt;Node2</title>
<g id="a_edge1_Node000001_Node000002"><a xlink:title=" ">
<path fill="none" stroke="#63b8ff" d="M102.39,-9.62C110.2,-9.62 118.43,-9.62 126.7,-9.62"/>
<polygon fill="#63b8ff" stroke="#63b8ff" points="126.44,-13.13 136.44,-9.63 126.44,-6.13 126.44,-13.13"/>
</a>
</g>
</g>
<!-- Node3 -->
<g id="Node000003" class="node">
<title>Node3</title>
<g id="a_Node000003"><a xlink:href="_logging_8cpp.html#a32abad09d9f828a9805862e18ad5da5f" target="_top" xlink:title="Logs a message with an explicit log level.">
<polygon fill="white" stroke="#666666" points="339.8,-19.25 311,-19.25 311,0 339.8,0 339.8,-19.25"/>
<text text-anchor="middle" x="325.4" y="-5.75" font-family="Helvetica,sans-Serif" font-size="10.00">log</text>
</a>
</g>
</g>
<!-- Node2&#45;&gt;Node3 -->
<g id="edge2_Node000002_Node000003" class="edge">
<title>Node2&#45;&gt;Node3</title>
<g id="a_edge2_Node000002_Node000003"><a xlink:title=" ">
<path fill="none" stroke="#63b8ff" d="M275.22,-9.62C283.77,-9.62 292.05,-9.62 299.31,-9.62"/>
<polygon fill="#63b8ff" stroke="#63b8ff" points="299.23,-13.13 309.23,-9.63 299.23,-6.13 299.23,-13.13"/>
</a>
</g>
</g>
</g>
</svg>
