<?xml version="1.0" encoding="UTF-8" standalone="no"?>
<!DOCTYPE svg PUBLIC "-//W3C//DTD SVG 1.1//EN"
 "http://www.w3.org/Graphics/SVG/1.1/DTD/svg11.dtd">
<!-- Generated by graphviz version 12.2.1 (20241206.2353)
 -->
<!-- Title: PotentiometerKnobWidget::draw Pages: 1 -->
<svg width="542pt" height="110pt"
 viewBox="0.00 0.00 541.55 110.22" xmlns="http://www.w3.org/2000/svg" xmlns:xlink="http://www.w3.org/1999/xlink">
<g id="graph0" class="graph" transform="scale(1 1) rotate(0) translate(4 106.22)">
<title>PotentiometerKnobWidget::draw</title>
<!-- Node1 -->
<g id="Node000001" class="node">
<title>Node1</title>
<g id="a_Node000001"><a xlink:title="Draws the knob and arrow on the screen.">
<polygon fill="#999999" stroke="#666666" points="130,-70.69 0,-70.69 0,-40.19 130,-40.19 130,-70.69"/>
<text text-anchor="start" x="8" y="-57.19" font-family="Helvetica,sans-Serif" font-size="10.00">PotentiometerKnobWidget</text>
<text text-anchor="middle" x="65" y="-45.94" font-family="Helvetica,sans-Serif" font-size="10.00">::draw</text>
</a>
</g>
</g>
<!-- Node2 -->
<g id="Node000002" class="node">
<title>Node2</title>
<g id="a_Node000002"><a xlink:href="class_potentiometer_knob_widget.html#a78e74e9ad1d6d40107427faeac7d1b47" target="_top" xlink:title="Draws the indicator arrow based on the knob&#39;s value.">
<polygon fill="white" stroke="#666666" points="296,-49.69 166,-49.69 166,-19.19 296,-19.19 296,-49.69"/>
<text text-anchor="start" x="174" y="-36.19" font-family="Helvetica,sans-Serif" font-size="10.00">PotentiometerKnobWidget</text>
<text text-anchor="middle" x="231" y="-24.94" font-family="Helvetica,sans-Serif" font-size="10.00">::drawArrow</text>
</a>
</g>
</g>
<!-- Node1&#45;&gt;Node2 -->
<g id="edge1_Node000001_Node000002" class="edge">
<title>Node1&#45;&gt;Node2</title>
<g id="a_edge1_Node000001_Node000002"><a xlink:title=" ">
<path fill="none" stroke="#63b8ff" d="M130.35,-47.2C138.21,-46.19 146.31,-45.15 154.33,-44.13"/>
<polygon fill="#63b8ff" stroke="#63b8ff" points="154.59,-47.62 164.07,-42.88 153.71,-40.68 154.59,-47.62"/>
</a>
</g>
</g>
<!-- Node3 -->
<g id="Node000003" class="node">
<title>Node3</title>
<g id="a_Node000003"><a xlink:href="class_screen_manager.html#a218ba351496671649bed8c17be7910b1" target="_top" xlink:title="Provides access to the static OLED display instance.">
<polygon fill="white" stroke="#666666" points="468.75,-84.06 332,-84.06 332,-64.81 468.75,-64.81 468.75,-84.06"/>
<text text-anchor="middle" x="400.37" y="-70.56" font-family="Helvetica,sans-Serif" font-size="10.00">ScreenManager::getDisplay</text>
</a>
</g>
</g>
<!-- Node1&#45;&gt;Node3 -->
<g id="edge7_Node000001_Node000003" class="edge">
<title>Node1&#45;&gt;Node3</title>
<g id="a_edge7_Node000001_Node000003"><a xlink:title=" ">
<path fill="none" stroke="#63b8ff" d="M95.68,-71.18C115.09,-80.57 141.33,-91.57 166,-96.44 229.08,-108.86 303.17,-97.58 350.67,-87.11"/>
<polygon fill="#63b8ff" stroke="#63b8ff" points="351.41,-90.53 360.38,-84.89 349.85,-83.71 351.41,-90.53"/>
</a>
</g>
</g>
<!-- Node4 -->
<g id="Node000004" class="node">
<title>Node4</title>
<g id="a_Node000004"><a xlink:href="_logging_8cpp.html#a32abad09d9f828a9805862e18ad5da5f" target="_top" xlink:title="Logs a message with an explicit log level.">
<polygon fill="white" stroke="#666666" points="533.55,-44.06 504.75,-44.06 504.75,-24.81 533.55,-24.81 533.55,-44.06"/>
<text text-anchor="middle" x="519.15" y="-30.56" font-family="Helvetica,sans-Serif" font-size="10.00">log</text>
</a>
</g>
</g>
<!-- Node1&#45;&gt;Node4 -->
<g id="edge8_Node000001_Node000004" class="edge">
<title>Node1&#45;&gt;Node4</title>
<g id="a_edge8_Node000001_Node000004"><a xlink:title=" ">
<path fill="none" stroke="#63b8ff" d="M92.52,-39.76C112.08,-29.15 139.75,-16.07 166,-10.44 286.82,15.5 435.81,-14.32 493.61,-28.14"/>
<polygon fill="#63b8ff" stroke="#63b8ff" points="492.51,-31.48 503.05,-30.46 494.18,-24.68 492.51,-31.48"/>
</a>
</g>
</g>
<!-- Node5 -->
<g id="Node000005" class="node">
<title>Node5</title>
<g id="a_Node000005"><a xlink:href="class_knob_widget.html#a1ea672f659869822805fc74d5ddb086b" target="_top" xlink:title="Draws the circular bezel of the knob.">
<polygon fill="white" stroke="#666666" points="291.5,-87.06 170.5,-87.06 170.5,-67.81 291.5,-67.81 291.5,-87.06"/>
<text text-anchor="middle" x="231" y="-73.56" font-family="Helvetica,sans-Serif" font-size="10.00">KnobWidget::drawBezel</text>
</a>
</g>
</g>
<!-- Node1&#45;&gt;Node5 -->
<g id="edge5_Node000001_Node000005" class="edge">
<title>Node1&#45;&gt;Node5</title>
<g id="a_edge5_Node000001_Node000005"><a xlink:title=" ">
<path fill="none" stroke="#63b8ff" d="M130.35,-64.07C139.66,-65.32 149.29,-66.61 158.73,-67.88"/>
<polygon fill="#63b8ff" stroke="#63b8ff" points="158.24,-71.34 168.62,-69.2 159.17,-64.4 158.24,-71.34"/>
</a>
</g>
</g>
<!-- Node2&#45;&gt;Node3 -->
<g id="edge2_Node000002_Node000003" class="edge">
<title>Node2&#45;&gt;Node3</title>
<g id="a_edge2_Node000002_Node000003"><a xlink:title=" ">
<path fill="none" stroke="#63b8ff" d="M296.23,-49.79C312.63,-53.7 330.08,-57.87 345.87,-61.65"/>
<polygon fill="#63b8ff" stroke="#63b8ff" points="345.03,-65.05 355.57,-63.97 346.65,-58.24 345.03,-65.05"/>
</a>
</g>
</g>
<!-- Node2&#45;&gt;Node4 -->
<g id="edge4_Node000002_Node000004" class="edge">
<title>Node2&#45;&gt;Node4</title>
<g id="a_edge4_Node000002_Node000004"><a xlink:title=" ">
<path fill="none" stroke="#63b8ff" d="M296.22,-34.44C358.31,-34.44 449.21,-34.44 492.89,-34.44"/>
<polygon fill="#63b8ff" stroke="#63b8ff" points="492.85,-37.94 502.85,-34.44 492.85,-30.94 492.85,-37.94"/>
</a>
</g>
</g>
<!-- Node3&#45;&gt;Node4 -->
<g id="edge3_Node000003_Node000004" class="edge">
<title>Node3&#45;&gt;Node4</title>
<g id="a_edge3_Node000003_Node000004"><a xlink:title=" ">
<path fill="none" stroke="#63b8ff" d="M430.84,-64.34C450.22,-57.7 475.29,-49.12 493.59,-42.85"/>
<polygon fill="#63b8ff" stroke="#63b8ff" points="494.49,-46.24 502.82,-39.69 492.23,-39.62 494.49,-46.24"/>
</a>
</g>
</g>
<!-- Node5&#45;&gt;Node3 -->
<g id="edge6_Node000005_Node000003" class="edge">
<title>Node5&#45;&gt;Node3</title>
<g id="a_edge6_Node000005_Node000003"><a xlink:title=" ">
<path fill="none" stroke="#63b8ff" d="M291.95,-76.36C301.09,-76.2 310.64,-76.03 320.11,-75.86"/>
<polygon fill="#63b8ff" stroke="#63b8ff" points="320.14,-79.36 330.08,-75.68 320.02,-72.36 320.14,-79.36"/>
</a>
</g>
</g>
</g>
</svg>
