<?xml version="1.0" encoding="UTF-8" standalone="no"?>
<!DOCTYPE svg PUBLIC "-//W3C//DTD SVG 1.1//EN"
 "http://www.w3.org/Graphics/SVG/1.1/DTD/svg11.dtd">
<!-- Generated by graphviz version 12.2.1 (20241206.2353)
 -->
<!-- Title: HardwareManager::init Pages: 1 -->
<svg width="306pt" height="113pt"
 viewBox="0.00 0.00 305.50 112.88" xmlns="http://www.w3.org/2000/svg" xmlns:xlink="http://www.w3.org/1999/xlink">
<g id="graph0" class="graph" transform="scale(1 1) rotate(0) translate(4 108.88)">
<title>HardwareManager::init</title>
<!-- Node1 -->
<g id="Node000001" class="node">
<title>Node1</title>
<g id="a_Node000001"><a xlink:title="Initializes hardware peripherals: GPIO, ADC, encoder, etc.">
<polygon fill="#999999" stroke="#666666" points="114.25,-67.88 0,-67.88 0,-48.62 114.25,-48.62 114.25,-67.88"/>
<text text-anchor="middle" x="57.12" y="-54.38" font-family="Helvetica,sans-Serif" font-size="10.00">HardwareManager::init</text>
</a>
</g>
</g>
<!-- Node2 -->
<g id="Node000002" class="node">
<title>Node2</title>
<g id="a_Node000002"><a xlink:href="class_hardware_manager.html#aaf70a4835af8352a2af86b9679b89d41" target="_top" xlink:title="Loads the knob configuration from EEPROM or persistent storage.">
<polygon fill="white" stroke="#666666" points="297.5,-104.88 150.25,-104.88 150.25,-85.62 297.5,-85.62 297.5,-104.88"/>
<text text-anchor="middle" x="223.88" y="-91.38" font-family="Helvetica,sans-Serif" font-size="10.00">HardwareManager::loadKnobs</text>
</a>
</g>
</g>
<!-- Node1&#45;&gt;Node2 -->
<g id="edge1_Node000001_Node000002" class="edge">
<title>Node1&#45;&gt;Node2</title>
<g id="a_edge1_Node000001_Node000002"><a xlink:title=" ">
<path fill="none" stroke="#63b8ff" d="M103.14,-68.36C122.76,-72.77 145.96,-77.98 166.69,-82.63"/>
<polygon fill="#63b8ff" stroke="#63b8ff" points="165.91,-86.04 176.43,-84.82 167.44,-79.21 165.91,-86.04"/>
</a>
</g>
</g>
<!-- Node3 -->
<g id="Node000003" class="node">
<title>Node3</title>
<g id="a_Node000003"><a xlink:href="_logging_8cpp.html#a32abad09d9f828a9805862e18ad5da5f" target="_top" xlink:title="Logs a message with an explicit log level.">
<polygon fill="white" stroke="#666666" points="238.28,-67.88 209.47,-67.88 209.47,-48.62 238.28,-48.62 238.28,-67.88"/>
<text text-anchor="middle" x="223.88" y="-54.38" font-family="Helvetica,sans-Serif" font-size="10.00">log</text>
</a>
</g>
</g>
<!-- Node1&#45;&gt;Node3 -->
<g id="edge2_Node000001_Node000003" class="edge">
<title>Node1&#45;&gt;Node3</title>
<g id="a_edge2_Node000001_Node000003"><a xlink:title=" ">
<path fill="none" stroke="#63b8ff" d="M114.36,-58.25C142.7,-58.25 175.65,-58.25 197.73,-58.25"/>
<polygon fill="#63b8ff" stroke="#63b8ff" points="197.57,-61.75 207.57,-58.25 197.57,-54.75 197.57,-61.75"/>
</a>
</g>
</g>
<!-- Node4 -->
<g id="Node000004" class="node">
<title>Node4</title>
<g id="a_Node000004"><a xlink:href="class_hardware_manager.html#ae436f35ee0851ca0dad3f0f0c9ad83ea" target="_top" xlink:title="ISR for clocking out serial bits.">
<polygon fill="white" stroke="#666666" points="294.88,-30.5 152.88,-30.5 152.88,0 294.88,0 294.88,-30.5"/>
<text text-anchor="start" x="160.88" y="-17" font-family="Helvetica,sans-Serif" font-size="10.00">HardwareManager::onPG800</text>
<text text-anchor="middle" x="223.88" y="-5.75" font-family="Helvetica,sans-Serif" font-size="10.00">ClockFall</text>
</a>
</g>
</g>
<!-- Node1&#45;&gt;Node4 -->
<g id="edge3_Node000001_Node000004" class="edge">
<title>Node1&#45;&gt;Node4</title>
<g id="a_edge3_Node000001_Node000004"><a xlink:title=" ">
<path fill="none" stroke="#63b8ff" d="M96.75,-48.17C113.13,-43.89 132.76,-38.77 151.6,-33.85"/>
<polygon fill="#63b8ff" stroke="#63b8ff" points="152.31,-37.28 161.1,-31.37 150.54,-30.51 152.31,-37.28"/>
</a>
</g>
</g>
</g>
</svg>
