<?xml version="1.0" encoding="UTF-8" standalone="no"?>
<!DOCTYPE svg PUBLIC "-//W3C//DTD SVG 1.1//EN"
 "http://www.w3.org/Graphics/SVG/1.1/DTD/svg11.dtd">
<!-- Generated by graphviz version 12.2.1 (20241206.2353)
 -->
<!-- Title: TextInputWidget::handleInput Pages: 1 -->
<svg width="324pt" height="88pt"
 viewBox="0.00 0.00 323.50 87.50" xmlns="http://www.w3.org/2000/svg" xmlns:xlink="http://www.w3.org/1999/xlink">
<g id="graph0" class="graph" transform="scale(1 1) rotate(0) translate(4 83.5)">
<title>TextInputWidget::handleInput</title>
<!-- Node1 -->
<g id="Node000001" class="node">
<title>Node1</title>
<g id="a_Node000001"><a xlink:title="Processes input events to move cursor or change characters.">
<polygon fill="#999999" stroke="#666666" points="143.5,-48.88 0,-48.88 0,-29.62 143.5,-29.62 143.5,-48.88"/>
<text text-anchor="middle" x="71.75" y="-35.38" font-family="Helvetica,sans-Serif" font-size="10.00">TextInputWidget::handleInput</text>
</a>
</g>
</g>
<!-- Node2 -->
<g id="Node000002" class="node">
<title>Node2</title>
<g id="a_Node000002"><a xlink:href="class_text_input_widget.html#ac94b7d1986f7d97a48d318e28fb152dd" target="_top" xlink:title="Advances the cursor to the next character position.">
<polygon fill="white" stroke="#666666" points="312.5,-79.5 182.5,-79.5 182.5,-49 312.5,-49 312.5,-79.5"/>
<text text-anchor="start" x="190.5" y="-66" font-family="Helvetica,sans-Serif" font-size="10.00">TextInputWidget::advance</text>
<text text-anchor="middle" x="247.5" y="-54.75" font-family="Helvetica,sans-Serif" font-size="10.00">CurrentPosition</text>
</a>
</g>
</g>
<!-- Node1&#45;&gt;Node2 -->
<g id="edge1_Node000001_Node000002" class="edge">
<title>Node1&#45;&gt;Node2</title>
<g id="a_edge1_Node000001_Node000002"><a xlink:title=" ">
<path fill="none" stroke="#63b8ff" d="M142.92,-49.35C152.16,-50.68 161.66,-52.04 170.99,-53.38"/>
<polygon fill="#63b8ff" stroke="#63b8ff" points="170.35,-56.83 180.75,-54.79 171.35,-49.9 170.35,-56.83"/>
</a>
</g>
</g>
<!-- Node3 -->
<g id="Node000003" class="node">
<title>Node3</title>
<g id="a_Node000003"><a xlink:href="class_text_input_widget.html#a9531b8ecaa365b40af28009e786b9535" target="_top" xlink:title="Moves the cursor to the previous character position.">
<polygon fill="white" stroke="#666666" points="315.5,-30.5 179.5,-30.5 179.5,0 315.5,0 315.5,-30.5"/>
<text text-anchor="start" x="187.5" y="-17" font-family="Helvetica,sans-Serif" font-size="10.00">TextInputWidget::backtrack</text>
<text text-anchor="middle" x="247.5" y="-5.75" font-family="Helvetica,sans-Serif" font-size="10.00">CurrentPosition</text>
</a>
</g>
</g>
<!-- Node1&#45;&gt;Node3 -->
<g id="edge2_Node000001_Node000003" class="edge">
<title>Node1&#45;&gt;Node3</title>
<g id="a_edge2_Node000001_Node000003"><a xlink:title=" ">
<path fill="none" stroke="#63b8ff" d="M143.92,-29.42C151.82,-28.33 159.9,-27.21 167.88,-26.11"/>
<polygon fill="#63b8ff" stroke="#63b8ff" points="168.15,-29.61 177.58,-24.77 167.19,-22.67 168.15,-29.61"/>
</a>
</g>
</g>
</g>
</svg>
