<?xml version="1.0" encoding="UTF-8" standalone="no"?>
<!DOCTYPE svg PUBLIC "-//W3C//DTD SVG 1.1//EN"
 "http://www.w3.org/Graphics/SVG/1.1/DTD/svg11.dtd">
<!-- Generated by graphviz version 12.2.1 (20241206.2353)
 -->
<!-- Title: ConfigScreen::onEnter Pages: 1 -->
<svg width="383pt" height="55pt"
 viewBox="0.00 0.00 383.05 54.88" xmlns="http://www.w3.org/2000/svg" xmlns:xlink="http://www.w3.org/1999/xlink">
<g id="graph0" class="graph" transform="scale(1 1) rotate(0) translate(4 50.88)">
<title>ConfigScreen::onEnter</title>
<!-- Node1 -->
<g id="Node000001" class="node">
<title>Node1</title>
<g id="a_Node000001"><a xlink:title="Called when this screen becomes active.">
<polygon fill="#999999" stroke="#666666" points="115,-19.25 0,-19.25 0,0 115,0 115,-19.25"/>
<text text-anchor="middle" x="57.5" y="-5.75" font-family="Helvetica,sans-Serif" font-size="10.00">ConfigScreen::onEnter</text>
</a>
</g>
</g>
<!-- Node2 -->
<g id="Node000002" class="node">
<title>Node2</title>
<g id="a_Node000002"><a xlink:href="class_shared_control_screen_utility.html#a05bc2d607c34ecb7cda4bad96b5274be" target="_top" xlink:title="Initializes a screen layout with standard controller widgets.">
<polygon fill="white" stroke="#666666" points="310.25,-46.88 151,-46.88 151,-16.38 310.25,-16.38 310.25,-46.88"/>
<text text-anchor="start" x="159" y="-33.38" font-family="Helvetica,sans-Serif" font-size="10.00">SharedControlScreenUtility</text>
<text text-anchor="middle" x="230.62" y="-22.12" font-family="Helvetica,sans-Serif" font-size="10.00">::initializeControllerScreenLayout</text>
</a>
</g>
</g>
<!-- Node1&#45;&gt;Node2 -->
<g id="edge1_Node000001_Node000002" class="edge">
<title>Node1&#45;&gt;Node2</title>
<g id="a_edge1_Node000001_Node000002"><a xlink:title=" ">
<path fill="none" stroke="#63b8ff" d="M115.48,-16.95C123.15,-17.94 131.16,-18.97 139.23,-20"/>
<polygon fill="#63b8ff" stroke="#63b8ff" points="138.78,-23.47 149.14,-21.28 139.67,-16.53 138.78,-23.47"/>
</a>
</g>
</g>
<!-- Node3 -->
<g id="Node000003" class="node">
<title>Node3</title>
<g id="a_Node000003"><a xlink:href="_logging_8cpp.html#a32abad09d9f828a9805862e18ad5da5f" target="_top" xlink:title="Logs a message with an explicit log level.">
<polygon fill="white" stroke="#666666" points="375.05,-19.25 346.25,-19.25 346.25,0 375.05,0 375.05,-19.25"/>
<text text-anchor="middle" x="360.65" y="-5.75" font-family="Helvetica,sans-Serif" font-size="10.00">log</text>
</a>
</g>
</g>
<!-- Node1&#45;&gt;Node3 -->
<g id="edge3_Node000001_Node000003" class="edge">
<title>Node1&#45;&gt;Node3</title>
<g id="a_edge3_Node000001_Node000003"><a xlink:title=" ">
<path fill="none" stroke="#63b8ff" d="M115.24,-8.2C127.06,-7.96 139.44,-7.75 151,-7.62 221.77,-6.86 239.49,-6.19 310.25,-7.62 318.13,-7.78 326.72,-8.09 334.49,-8.41"/>
<polygon fill="#63b8ff" stroke="#63b8ff" points="334.16,-11.9 344.3,-8.85 334.47,-4.9 334.16,-11.9"/>
</a>
</g>
</g>
<!-- Node2&#45;&gt;Node3 -->
<g id="edge2_Node000002_Node000003" class="edge">
<title>Node2&#45;&gt;Node3</title>
<g id="a_edge2_Node000002_Node000003"><a xlink:title=" ">
<path fill="none" stroke="#63b8ff" d="M310.52,-18.07C319.11,-16.59 327.33,-15.18 334.5,-13.95"/>
<polygon fill="#63b8ff" stroke="#63b8ff" points="335.04,-17.4 344.31,-12.26 333.86,-10.51 335.04,-17.4"/>
</a>
</g>
</g>
</g>
</svg>
