<?xml version="1.0" encoding="UTF-8" standalone="no"?>
<!DOCTYPE svg PUBLIC "-//W3C//DTD SVG 1.1//EN"
 "http://www.w3.org/Graphics/SVG/1.1/DTD/svg11.dtd">
<!-- Generated by graphviz version 12.2.1 (20241206.2353)
 -->
<!-- Title: KnobWidget::KnobWidget Pages: 1 -->
<svg width="309pt" height="88pt"
 viewBox="0.00 0.00 308.50 87.50" xmlns="http://www.w3.org/2000/svg" xmlns:xlink="http://www.w3.org/1999/xlink">
<g id="graph0" class="graph" transform="scale(1 1) rotate(0) translate(4 83.5)">
<title>KnobWidget::KnobWidget</title>
<!-- Node1 -->
<g id="Node000001" class="node">
<title>Node1</title>
<g id="a_Node000001"><a xlink:title="Constructs a knob widget at the specified position.">
<polygon fill="#999999" stroke="#666666" points="300.5,-48.88 172,-48.88 172,-29.62 300.5,-29.62 300.5,-48.88"/>
<text text-anchor="middle" x="236.25" y="-35.38" font-family="Helvetica,sans-Serif" font-size="10.00">KnobWidget::KnobWidget</text>
</a>
</g>
</g>
<!-- Node2 -->
<g id="Node000002" class="node">
<title>Node2</title>
<g id="a_Node000002"><a xlink:href="class_encoder_knob_widget.html#ade97b68046dd611b9f84de6fafc556a4" target="_top" xlink:title="Constructs a new encoder knob widget.">
<polygon fill="white" stroke="#666666" points="123.62,-79.5 12.38,-79.5 12.38,-49 123.62,-49 123.62,-79.5"/>
<text text-anchor="start" x="20.38" y="-66" font-family="Helvetica,sans-Serif" font-size="10.00">EncoderKnobWidget::</text>
<text text-anchor="middle" x="68" y="-54.75" font-family="Helvetica,sans-Serif" font-size="10.00">EncoderKnobWidget</text>
</a>
</g>
</g>
<!-- Node1&#45;&gt;Node2 -->
<g id="edge1_Node000001_Node000002" class="edge">
<title>Node1&#45;&gt;Node2</title>
<g id="a_edge1_Node000001_Node000002"><a xlink:title=" ">
<path fill="none" stroke="#63b8ff" d="M160.69,-50.46C148.35,-52.32 135.75,-54.21 124,-55.98"/>
<polygon fill="#63b8ff" stroke="#63b8ff" points="161.06,-53.95 170.43,-49 160.02,-47.02 161.06,-53.95"/>
</a>
</g>
</g>
<!-- Node3 -->
<g id="Node000003" class="node">
<title>Node3</title>
<g id="a_Node000003"><a xlink:href="class_potentiometer_knob_widget.html#af7263c973f911d8ee2951c659b46bebc" target="_top" xlink:title="Constructs a new potentiometer knob widget.">
<polygon fill="white" stroke="#666666" points="136,-30.5 0,-30.5 0,0 136,0 136,-30.5"/>
<text text-anchor="start" x="8" y="-17" font-family="Helvetica,sans-Serif" font-size="10.00">PotentiometerKnobWidget</text>
<text text-anchor="middle" x="68" y="-5.75" font-family="Helvetica,sans-Serif" font-size="10.00">::PotentiometerKnobWidget</text>
</a>
</g>
</g>
<!-- Node1&#45;&gt;Node3 -->
<g id="edge2_Node000001_Node000003" class="edge">
<title>Node1&#45;&gt;Node3</title>
<g id="a_edge2_Node000001_Node000003"><a xlink:title=" ">
<path fill="none" stroke="#63b8ff" d="M160.59,-28.47C152.5,-27.3 144.3,-26.12 136.3,-24.97"/>
<polygon fill="#63b8ff" stroke="#63b8ff" points="160.03,-31.93 170.43,-29.89 161.03,-25 160.03,-31.93"/>
</a>
</g>
</g>
</g>
</svg>
