<?xml version="1.0" encoding="UTF-8" standalone="no"?>
<!DOCTYPE svg PUBLIC "-//W3C//DTD SVG 1.1//EN"
 "http://www.w3.org/Graphics/SVG/1.1/DTD/svg11.dtd">
<!-- Generated by graphviz version 12.2.1 (20241206.2353)
 -->
<!-- Title: PushButtonWidget::draw Pages: 1 -->
<svg width="370pt" height="27pt"
 viewBox="0.00 0.00 370.30 27.25" xmlns="http://www.w3.org/2000/svg" xmlns:xlink="http://www.w3.org/1999/xlink">
<g id="graph0" class="graph" transform="scale(1 1) rotate(0) translate(4 23.25)">
<title>PushButtonWidget::draw</title>
<!-- Node1 -->
<g id="Node000001" class="node">
<title>Node1</title>
<g id="a_Node000001"><a xlink:title="Renders the button with its current state and label.">
<polygon fill="#999999" stroke="#666666" points="124.75,-19.25 0,-19.25 0,0 124.75,0 124.75,-19.25"/>
<text text-anchor="middle" x="62.38" y="-5.75" font-family="Helvetica,sans-Serif" font-size="10.00">PushButtonWidget::draw</text>
</a>
</g>
</g>
<!-- Node2 -->
<g id="Node000002" class="node">
<title>Node2</title>
<g id="a_Node000002"><a xlink:href="class_screen_manager.html#a218ba351496671649bed8c17be7910b1" target="_top" xlink:title="Provides access to the static OLED display instance.">
<polygon fill="white" stroke="#666666" points="297.5,-19.25 160.75,-19.25 160.75,0 297.5,0 297.5,-19.25"/>
<text text-anchor="middle" x="229.12" y="-5.75" font-family="Helvetica,sans-Serif" font-size="10.00">ScreenManager::getDisplay</text>
</a>
</g>
</g>
<!-- Node1&#45;&gt;Node2 -->
<g id="edge1_Node000001_Node000002" class="edge">
<title>Node1&#45;&gt;Node2</title>
<g id="a_edge1_Node000001_Node000002"><a xlink:title=" ">
<path fill="none" stroke="#63b8ff" d="M125.19,-9.62C133.01,-9.62 141.09,-9.62 149.13,-9.62"/>
<polygon fill="#63b8ff" stroke="#63b8ff" points="148.93,-13.13 158.93,-9.63 148.93,-6.13 148.93,-13.13"/>
</a>
</g>
</g>
<!-- Node3 -->
<g id="Node000003" class="node">
<title>Node3</title>
<g id="a_Node000003"><a xlink:href="_logging_8cpp.html#a32abad09d9f828a9805862e18ad5da5f" target="_top" xlink:title="Logs a message with an explicit log level.">
<polygon fill="white" stroke="#666666" points="362.3,-19.25 333.5,-19.25 333.5,0 362.3,0 362.3,-19.25"/>
<text text-anchor="middle" x="347.9" y="-5.75" font-family="Helvetica,sans-Serif" font-size="10.00">log</text>
</a>
</g>
</g>
<!-- Node2&#45;&gt;Node3 -->
<g id="edge2_Node000002_Node000003" class="edge">
<title>Node2&#45;&gt;Node3</title>
<g id="a_edge2_Node000002_Node000003"><a xlink:title=" ">
<path fill="none" stroke="#63b8ff" d="M297.72,-9.62C306.27,-9.62 314.55,-9.62 321.81,-9.62"/>
<polygon fill="#63b8ff" stroke="#63b8ff" points="321.73,-13.13 331.73,-9.63 321.73,-6.13 321.73,-13.13"/>
</a>
</g>
</g>
</g>
</svg>
