<?xml version="1.0" encoding="UTF-8" standalone="no"?>
<!DOCTYPE svg PUBLIC "-//W3C//DTD SVG 1.1//EN"
 "http://www.w3.org/Graphics/SVG/1.1/DTD/svg11.dtd">
<!-- Generated by graphviz version 12.2.1 (20241206.2353)
 -->
<!-- Title: PotentiometerKnobWidget::PotentiometerKnobWidget Pages: 1 -->
<svg width="428pt" height="64pt"
 viewBox="0.00 0.00 428.00 64.25" xmlns="http://www.w3.org/2000/svg" xmlns:xlink="http://www.w3.org/1999/xlink">
<g id="graph0" class="graph" transform="scale(1 1) rotate(0) translate(4 60.25)">
<title>PotentiometerKnobWidget::PotentiometerKnobWidget</title>
<!-- Node1 -->
<g id="Node000001" class="node">
<title>Node1</title>
<g id="a_Node000001"><a xlink:title="Constructs a new potentiometer knob widget.">
<polygon fill="#999999" stroke="#666666" points="136,-43.88 0,-43.88 0,-13.37 136,-13.37 136,-43.88"/>
<text text-anchor="start" x="8" y="-30.38" font-family="Helvetica,sans-Serif" font-size="10.00">PotentiometerKnobWidget</text>
<text text-anchor="middle" x="68" y="-19.12" font-family="Helvetica,sans-Serif" font-size="10.00">::PotentiometerKnobWidget</text>
</a>
</g>
</g>
<!-- Node2 -->
<g id="Node000002" class="node">
<title>Node2</title>
<g id="a_Node000002"><a xlink:href="class_knob_widget.html#a54866044c705214fe786da2dcb73d585" target="_top" xlink:title="Constructs a knob widget at the specified position.">
<polygon fill="white" stroke="#666666" points="300.5,-19.25 172,-19.25 172,0 300.5,0 300.5,-19.25"/>
<text text-anchor="middle" x="236.25" y="-5.75" font-family="Helvetica,sans-Serif" font-size="10.00">KnobWidget::KnobWidget</text>
</a>
</g>
</g>
<!-- Node1&#45;&gt;Node2 -->
<g id="edge1_Node000001_Node000002" class="edge">
<title>Node1&#45;&gt;Node2</title>
<g id="a_edge1_Node000001_Node000002"><a xlink:title=" ">
<path fill="none" stroke="#63b8ff" d="M136.14,-20.95C144.1,-20.04 152.27,-19.11 160.33,-18.19"/>
<polygon fill="#63b8ff" stroke="#63b8ff" points="160.59,-21.68 170.13,-17.07 159.79,-14.73 160.59,-21.68"/>
</a>
</g>
</g>
<!-- Node3 -->
<g id="Node000003" class="node">
<title>Node3</title>
<g id="a_Node000003"><a xlink:href="_logging_8cpp.html#a32abad09d9f828a9805862e18ad5da5f" target="_top" xlink:title="Logs a message with an explicit log level.">
<polygon fill="white" stroke="#666666" points="392.65,-56.25 363.85,-56.25 363.85,-37 392.65,-37 392.65,-56.25"/>
<text text-anchor="middle" x="378.25" y="-42.75" font-family="Helvetica,sans-Serif" font-size="10.00">log</text>
</a>
</g>
</g>
<!-- Node1&#45;&gt;Node3 -->
<g id="edge4_Node000001_Node000003" class="edge">
<title>Node1&#45;&gt;Node3</title>
<g id="a_edge4_Node000001_Node000003"><a xlink:title=" ">
<path fill="none" stroke="#63b8ff" d="M136.27,-32.55C204.09,-36.51 305.25,-42.42 351.95,-45.15"/>
<polygon fill="#63b8ff" stroke="#63b8ff" points="351.65,-48.64 361.84,-45.73 352.06,-41.65 351.65,-48.64"/>
</a>
</g>
</g>
<!-- Node2&#45;&gt;Node3 -->
<g id="edge2_Node000002_Node000003" class="edge">
<title>Node2&#45;&gt;Node3</title>
<g id="a_edge2_Node000002_Node000003"><a xlink:title=" ">
<path fill="none" stroke="#63b8ff" d="M275.51,-19.74C299.98,-26.2 331.03,-34.41 352.35,-40.05"/>
<polygon fill="#63b8ff" stroke="#63b8ff" points="351.35,-43.4 361.92,-42.57 353.14,-36.63 351.35,-43.4"/>
</a>
</g>
</g>
<!-- Node4 -->
<g id="Node000004" class="node">
<title>Node4</title>
<g id="a_Node000004"><a xlink:href="class_widget.html#a5726db3aa94844c547974fb48594a305" target="_top" xlink:title="Constructs a widget at a specified screen location.">
<polygon fill="white" stroke="#666666" points="420,-19.25 336.5,-19.25 336.5,0 420,0 420,-19.25"/>
<text text-anchor="middle" x="378.25" y="-5.75" font-family="Helvetica,sans-Serif" font-size="10.00">Widget::Widget</text>
</a>
</g>
</g>
<!-- Node2&#45;&gt;Node4 -->
<g id="edge3_Node000002_Node000004" class="edge">
<title>Node2&#45;&gt;Node4</title>
<g id="a_edge3_Node000002_Node000004"><a xlink:title=" ">
<path fill="none" stroke="#63b8ff" d="M300.7,-9.62C308.77,-9.62 316.95,-9.62 324.82,-9.62"/>
<polygon fill="#63b8ff" stroke="#63b8ff" points="324.56,-13.13 334.56,-9.63 324.56,-6.13 324.56,-13.13"/>
</a>
</g>
</g>
</g>
</svg>
