<?xml version="1.0" encoding="UTF-8" standalone="no"?>
<!DOCTYPE svg PUBLIC "-//W3C//DTD SVG 1.1//EN"
 "http://www.w3.org/Graphics/SVG/1.1/DTD/svg11.dtd">
<!-- Generated by graphviz version 12.2.1 (20241206.2353)
 -->
<!-- Title: TextInputWidget Pages: 1 -->
<svg width="174pt" height="100pt"
 viewBox="0.00 0.00 174.12 99.75" xmlns="http://www.w3.org/2000/svg" xmlns:xlink="http://www.w3.org/1999/xlink">
<g id="graph0" class="graph" transform="scale(1 1) rotate(0) translate(4 95.75)">
<title>TextInputWidget</title>
<!-- Node1 -->
<g id="Node000001" class="node">
<title>Node1</title>
<g id="a_Node000001"><a xlink:title="Widget that displays and allows editing of a fixed&#45;length text string.">
<polygon fill="#999999" stroke="#666666" points="113,-19.25 25.75,-19.25 25.75,0 113,0 113,-19.25"/>
<text text-anchor="middle" x="69.38" y="-5.75" font-family="Helvetica,sans-Serif" font-size="10.00">TextInputWidget</text>
</a>
</g>
</g>
<!-- Node2 -->
<g id="Node000002" class="node">
<title>Node2</title>
<g id="a_Node000002"><a xlink:href="class_widget.html" target="_top" xlink:title="Base class for all on&#45;screen widgets.">
<polygon fill="white" stroke="#666666" points="46.75,-91.75 0,-91.75 0,-72.5 46.75,-72.5 46.75,-91.75"/>
<text text-anchor="middle" x="23.38" y="-78.25" font-family="Helvetica,sans-Serif" font-size="10.00">Widget</text>
</a>
</g>
</g>
<!-- Node2&#45;&gt;Node1 -->
<g id="edge1_Node000001_Node000002" class="edge">
<title>Node2&#45;&gt;Node1</title>
<g id="a_edge1_Node000001_Node000002"><a xlink:title=" ">
<path fill="none" stroke="#63b8ff" d="M35.4,-62.7C44.42,-48.87 56.39,-30.52 63.45,-19.7"/>
<polygon fill="#63b8ff" stroke="#63b8ff" points="32.56,-60.64 30.03,-70.93 38.42,-64.47 32.56,-60.64"/>
</a>
</g>
</g>
<!-- Node3 -->
<g id="Node000003" class="node">
<title>Node3</title>
<g id="a_Node000003"><a xlink:href="class_i_widget_nav_handler.html" target="_top" xlink:title="Interface for responding to widget navigation events.">
<polygon fill="white" stroke="#666666" points="166.12,-91.75 64.62,-91.75 64.62,-72.5 166.12,-72.5 166.12,-91.75"/>
<text text-anchor="middle" x="115.38" y="-78.25" font-family="Helvetica,sans-Serif" font-size="10.00">IWidgetNavHandler</text>
</a>
</g>
</g>
<!-- Node3&#45;&gt;Node1 -->
<g id="edge2_Node000001_Node000003" class="edge">
<title>Node3&#45;&gt;Node1</title>
<g id="a_edge2_Node000001_Node000003"><a xlink:title=" ">
<path fill="none" stroke="#9a32cd" stroke-dasharray="5,2" d="M103.35,-62.7C94.33,-48.87 82.36,-30.52 75.3,-19.7"/>
<polygon fill="#9a32cd" stroke="#9a32cd" points="100.33,-64.47 108.72,-70.93 106.19,-60.64 100.33,-64.47"/>
</a>
</g>
<text text-anchor="start" x="100.85" y="-42" font-family="Helvetica,sans-Serif" font-size="10.00" fill="grey">navHandler</text>
</g>
</g>
</svg>
