<?xml version="1.0" encoding="UTF-8" standalone="no"?>
<!DOCTYPE svg PUBLIC "-//W3C//DTD SVG 1.1//EN"
 "http://www.w3.org/Graphics/SVG/1.1/DTD/svg11.dtd">
<!-- Generated by graphviz version 12.2.1 (20241206.2353)
 -->
<!-- Title: Widget::Widget Pages: 1 -->
<svg width="464pt" height="309pt"
 viewBox="0.00 0.00 464.00 308.88" xmlns="http://www.w3.org/2000/svg" xmlns:xlink="http://www.w3.org/1999/xlink">
<g id="graph0" class="graph" transform="scale(1 1) rotate(0) translate(4 304.88)">
<title>Widget::Widget</title>
<!-- Node1 -->
<g id="Node000001" class="node">
<title>Node1</title>
<g id="a_Node000001"><a xlink:title="Constructs a widget at a specified screen location.">
<polygon fill="#999999" stroke="#666666" points="456,-171.88 372.5,-171.88 372.5,-152.62 456,-152.62 456,-171.88"/>
<text text-anchor="middle" x="414.25" y="-158.38" font-family="Helvetica,sans-Serif" font-size="10.00">Widget::Widget</text>
</a>
</g>
</g>
<!-- Node2 -->
<g id="Node000002" class="node">
<title>Node2</title>
<g id="a_Node000002"><a xlink:href="class_button_widget.html#a50cf99bdf5dca20ec5d7b5d46dde2c92" target="_top" xlink:title="Constructs a ButtonWidget with a given ID and position.">
<polygon fill="white" stroke="#666666" points="324.5,-300.88 184,-300.88 184,-281.62 324.5,-281.62 324.5,-300.88"/>
<text text-anchor="middle" x="254.25" y="-287.38" font-family="Helvetica,sans-Serif" font-size="10.00">ButtonWidget::ButtonWidget</text>
</a>
</g>
</g>
<!-- Node1&#45;&gt;Node2 -->
<g id="edge1_Node000001_Node000002" class="edge">
<title>Node1&#45;&gt;Node2</title>
<g id="a_edge1_Node000001_Node000002"><a xlink:title=" ">
<path fill="none" stroke="#63b8ff" d="M404.71,-182.5C393.06,-207.57 369.76,-249.7 336.5,-272.25 331.1,-275.91 325.09,-278.87 318.85,-281.26"/>
<polygon fill="#63b8ff" stroke="#63b8ff" points="407.76,-184.26 408.62,-173.7 401.36,-181.41 407.76,-184.26"/>
</a>
</g>
</g>
<!-- Node3 -->
<g id="Node000003" class="node">
<title>Node3</title>
<g id="a_Node000003"><a xlink:href="class_encoder_attached_numeric_widget.html#a56bc880d6c9530fc1ca7ed8bf1b3493f" target="_top" xlink:title="Constructs the numeric widget.">
<polygon fill="white" stroke="#666666" points="336.5,-263.5 172,-263.5 172,-233 336.5,-233 336.5,-263.5"/>
<text text-anchor="start" x="180" y="-250" font-family="Helvetica,sans-Serif" font-size="10.00">EncoderAttachedNumericWidget</text>
<text text-anchor="middle" x="254.25" y="-238.75" font-family="Helvetica,sans-Serif" font-size="10.00">::EncoderAttachedNumericWidget</text>
</a>
</g>
</g>
<!-- Node1&#45;&gt;Node3 -->
<g id="edge2_Node000001_Node000003" class="edge">
<title>Node1&#45;&gt;Node3</title>
<g id="a_edge2_Node000001_Node000003"><a xlink:title=" ">
<path fill="none" stroke="#63b8ff" d="M395.6,-179.92C380.91,-193.74 358.86,-212.52 336.5,-224.25 330.51,-227.39 324.05,-230.18 317.48,-232.64"/>
<polygon fill="#63b8ff" stroke="#63b8ff" points="397.89,-182.58 402.65,-173.12 393.02,-177.55 397.89,-182.58"/>
</a>
</g>
</g>
<!-- Node4 -->
<g id="Node000004" class="node">
<title>Node4</title>
<g id="a_Node000004"><a xlink:href="class_knob_widget.html#a54866044c705214fe786da2dcb73d585" target="_top" xlink:title="Constructs a knob widget at the specified position.">
<polygon fill="white" stroke="#666666" points="318.5,-214.88 190,-214.88 190,-195.62 318.5,-195.62 318.5,-214.88"/>
<text text-anchor="middle" x="254.25" y="-201.38" font-family="Helvetica,sans-Serif" font-size="10.00">KnobWidget::KnobWidget</text>
</a>
</g>
</g>
<!-- Node1&#45;&gt;Node4 -->
<g id="edge3_Node000001_Node000004" class="edge">
<title>Node1&#45;&gt;Node4</title>
<g id="a_edge3_Node000001_Node000004"><a xlink:title=" ">
<path fill="none" stroke="#63b8ff" d="M372.14,-175.71C360.66,-179.31 348.14,-183.07 336.5,-186.25 325.04,-189.38 312.59,-192.45 300.95,-195.18"/>
<polygon fill="#63b8ff" stroke="#63b8ff" points="372.86,-179.16 381.33,-172.8 370.74,-172.49 372.86,-179.16"/>
</a>
</g>
</g>
<!-- Node7 -->
<g id="Node000007" class="node">
<title>Node7</title>
<g id="a_Node000007"><a xlink:href="class_push_button_widget.html#aaf19414c33a6a03a71272dca1e3dae38" target="_top" xlink:title="Constructs a labeled push button at a specific screen location.">
<polygon fill="white" stroke="#666666" points="331.62,-177.5 176.88,-177.5 176.88,-147 331.62,-147 331.62,-177.5"/>
<text text-anchor="start" x="184.88" y="-164" font-family="Helvetica,sans-Serif" font-size="10.00">PushButtonWidget::PushButton</text>
<text text-anchor="middle" x="254.25" y="-152.75" font-family="Helvetica,sans-Serif" font-size="10.00">Widget</text>
</a>
</g>
</g>
<!-- Node1&#45;&gt;Node7 -->
<g id="edge6_Node000001_Node000007" class="edge">
<title>Node1&#45;&gt;Node7</title>
<g id="a_edge6_Node000001_Node000007"><a xlink:title=" ">
<path fill="none" stroke="#63b8ff" d="M360.77,-162.25C351.52,-162.25 341.73,-162.25 331.98,-162.25"/>
<polygon fill="#63b8ff" stroke="#63b8ff" points="360.64,-165.75 370.64,-162.25 360.64,-158.75 360.64,-165.75"/>
</a>
</g>
</g>
<!-- Node8 -->
<g id="Node000008" class="node">
<title>Node8</title>
<g id="a_Node000008"><a xlink:href="class_rectangle_widget.html#a6b463e597e289c86bbb865155332c18b" target="_top" xlink:title="Constructs a rectangle widget with position, size, and style.">
<polygon fill="white" stroke="#666666" points="324.88,-128.5 183.62,-128.5 183.62,-98 324.88,-98 324.88,-128.5"/>
<text text-anchor="start" x="191.62" y="-115" font-family="Helvetica,sans-Serif" font-size="10.00">RectangleWidget::Rectangle</text>
<text text-anchor="middle" x="254.25" y="-103.75" font-family="Helvetica,sans-Serif" font-size="10.00">Widget</text>
</a>
</g>
</g>
<!-- Node1&#45;&gt;Node8 -->
<g id="edge7_Node000001_Node000008" class="edge">
<title>Node1&#45;&gt;Node8</title>
<g id="a_edge7_Node000001_Node000008"><a xlink:title=" ">
<path fill="none" stroke="#63b8ff" d="M370.43,-148.82C359.38,-145.37 347.5,-141.66 336.5,-138.25 326.77,-135.23 316.39,-132.03 306.4,-128.95"/>
<polygon fill="#63b8ff" stroke="#63b8ff" points="369.11,-152.08 379.7,-151.72 371.2,-145.4 369.11,-152.08"/>
</a>
</g>
</g>
<!-- Node9 -->
<g id="Node000009" class="node">
<title>Node9</title>
<g id="a_Node000009"><a xlink:href="class_text_input_widget.html#ab138864d0e1b9af462b32ec31786ba07" target="_top" xlink:title="Constructs a new TextInputWidget.">
<polygon fill="white" stroke="#666666" points="321.12,-79.5 187.38,-79.5 187.38,-49 321.12,-49 321.12,-79.5"/>
<text text-anchor="start" x="195.38" y="-66" font-family="Helvetica,sans-Serif" font-size="10.00">TextInputWidget::TextInput</text>
<text text-anchor="middle" x="254.25" y="-54.75" font-family="Helvetica,sans-Serif" font-size="10.00">Widget</text>
</a>
</g>
</g>
<!-- Node1&#45;&gt;Node9 -->
<g id="edge8_Node000001_Node000009" class="edge">
<title>Node1&#45;&gt;Node9</title>
<g id="a_edge8_Node000001_Node000009"><a xlink:title=" ">
<path fill="none" stroke="#63b8ff" d="M398,-143.47C383.7,-127.01 360.91,-103.54 336.5,-89.25 330.39,-85.67 323.71,-82.56 316.89,-79.86"/>
<polygon fill="#63b8ff" stroke="#63b8ff" points="395.28,-145.68 404.41,-151.07 400.64,-141.17 395.28,-145.68"/>
</a>
</g>
</g>
<!-- Node10 -->
<g id="Node000010" class="node">
<title>Node10</title>
<g id="a_Node000010"><a xlink:href="class_text_label_widget.html#a116478484ebaffe3189fd2149499d927" target="_top" xlink:title="Constructs a text label widget.">
<polygon fill="white" stroke="#666666" points="322.62,-30.5 185.88,-30.5 185.88,0 322.62,0 322.62,-30.5"/>
<text text-anchor="start" x="193.88" y="-17" font-family="Helvetica,sans-Serif" font-size="10.00">TextLabelWidget::TextLabel</text>
<text text-anchor="middle" x="254.25" y="-5.75" font-family="Helvetica,sans-Serif" font-size="10.00">Widget</text>
</a>
</g>
</g>
<!-- Node1&#45;&gt;Node10 -->
<g id="edge9_Node000001_Node000010" class="edge">
<title>Node1&#45;&gt;Node10</title>
<g id="a_edge9_Node000001_Node000010"><a xlink:title=" ">
<path fill="none" stroke="#63b8ff" d="M405.68,-141.78C394.61,-114.64 371.45,-67.03 336.5,-40.25 331.81,-36.66 326.61,-33.58 321.16,-30.94"/>
<polygon fill="#63b8ff" stroke="#63b8ff" points="402.36,-142.9 409.25,-150.95 408.88,-140.36 402.36,-142.9"/>
</a>
</g>
</g>
<!-- Node5 -->
<g id="Node000005" class="node">
<title>Node5</title>
<g id="a_Node000005"><a xlink:href="class_encoder_knob_widget.html#ade97b68046dd611b9f84de6fafc556a4" target="_top" xlink:title="Constructs a new encoder knob widget.">
<polygon fill="white" stroke="#666666" points="123.62,-244.5 12.38,-244.5 12.38,-214 123.62,-214 123.62,-244.5"/>
<text text-anchor="start" x="20.38" y="-231" font-family="Helvetica,sans-Serif" font-size="10.00">EncoderKnobWidget::</text>
<text text-anchor="middle" x="68" y="-219.75" font-family="Helvetica,sans-Serif" font-size="10.00">EncoderKnobWidget</text>
</a>
</g>
</g>
<!-- Node4&#45;&gt;Node5 -->
<g id="edge4_Node000004_Node000005" class="edge">
<title>Node4&#45;&gt;Node5</title>
<g id="a_edge4_Node000004_Node000005"><a xlink:title=" ">
<path fill="none" stroke="#63b8ff" d="M178.42,-215C160.24,-217.36 141.14,-219.85 124.07,-222.08"/>
<polygon fill="#63b8ff" stroke="#63b8ff" points="178.62,-218.5 188.08,-213.74 177.71,-211.56 178.62,-218.5"/>
</a>
</g>
</g>
<!-- Node6 -->
<g id="Node000006" class="node">
<title>Node6</title>
<g id="a_Node000006"><a xlink:href="class_potentiometer_knob_widget.html#af7263c973f911d8ee2951c659b46bebc" target="_top" xlink:title="Constructs a new potentiometer knob widget.">
<polygon fill="white" stroke="#666666" points="136,-195.5 0,-195.5 0,-165 136,-165 136,-195.5"/>
<text text-anchor="start" x="8" y="-182" font-family="Helvetica,sans-Serif" font-size="10.00">PotentiometerKnobWidget</text>
<text text-anchor="middle" x="68" y="-170.75" font-family="Helvetica,sans-Serif" font-size="10.00">::PotentiometerKnobWidget</text>
</a>
</g>
</g>
<!-- Node4&#45;&gt;Node6 -->
<g id="edge5_Node000004_Node000006" class="edge">
<title>Node4&#45;&gt;Node6</title>
<g id="a_edge5_Node000004_Node000006"><a xlink:title=" ">
<path fill="none" stroke="#63b8ff" d="M178.55,-195.11C164.62,-193.22 150.13,-191.26 136.44,-189.4"/>
<polygon fill="#63b8ff" stroke="#63b8ff" points="177.7,-198.53 188.08,-196.41 178.65,-191.6 177.7,-198.53"/>
</a>
</g>
</g>
</g>
</svg>
