<?xml version="1.0" encoding="UTF-8" standalone="no"?>
<!DOCTYPE svg PUBLIC "-//W3C//DTD SVG 1.1//EN"
 "http://www.w3.org/Graphics/SVG/1.1/DTD/svg11.dtd">
<!-- Generated by graphviz version 12.2.1 (20241206.2353)
 -->
<!-- Title: EncoderKnobWidget::EncoderKnobWidget Pages: 1 -->
<svg width="403pt" height="64pt"
 viewBox="0.00 0.00 403.25 64.25" xmlns="http://www.w3.org/2000/svg" xmlns:xlink="http://www.w3.org/1999/xlink">
<g id="graph0" class="graph" transform="scale(1 1) rotate(0) translate(4 60.25)">
<title>EncoderKnobWidget::EncoderKnobWidget</title>
<!-- Node1 -->
<g id="Node000001" class="node">
<title>Node1</title>
<g id="a_Node000001"><a xlink:title="Constructs a new encoder knob widget.">
<polygon fill="#999999" stroke="#666666" points="111.25,-43.88 0,-43.88 0,-13.37 111.25,-13.37 111.25,-43.88"/>
<text text-anchor="start" x="8" y="-30.38" font-family="Helvetica,sans-Serif" font-size="10.00">EncoderKnobWidget::</text>
<text text-anchor="middle" x="55.62" y="-19.12" font-family="Helvetica,sans-Serif" font-size="10.00">EncoderKnobWidget</text>
</a>
</g>
</g>
<!-- Node2 -->
<g id="Node000002" class="node">
<title>Node2</title>
<g id="a_Node000002"><a xlink:href="class_knob_widget.html#a54866044c705214fe786da2dcb73d585" target="_top" xlink:title="Constructs a knob widget at the specified position.">
<polygon fill="white" stroke="#666666" points="275.75,-19.25 147.25,-19.25 147.25,0 275.75,0 275.75,-19.25"/>
<text text-anchor="middle" x="211.5" y="-5.75" font-family="Helvetica,sans-Serif" font-size="10.00">KnobWidget::KnobWidget</text>
</a>
</g>
</g>
<!-- Node1&#45;&gt;Node2 -->
<g id="edge1_Node000001_Node000002" class="edge">
<title>Node1&#45;&gt;Node2</title>
<g id="a_edge1_Node000001_Node000002"><a xlink:title=" ">
<path fill="none" stroke="#63b8ff" d="M111.74,-21.82C119.48,-20.86 127.54,-19.87 135.57,-18.88"/>
<polygon fill="#63b8ff" stroke="#63b8ff" points="135.86,-22.37 145.36,-17.67 135.01,-15.42 135.86,-22.37"/>
</a>
</g>
</g>
<!-- Node3 -->
<g id="Node000003" class="node">
<title>Node3</title>
<g id="a_Node000003"><a xlink:href="_logging_8cpp.html#a32abad09d9f828a9805862e18ad5da5f" target="_top" xlink:title="Logs a message with an explicit log level.">
<polygon fill="white" stroke="#666666" points="367.9,-56.25 339.1,-56.25 339.1,-37 367.9,-37 367.9,-56.25"/>
<text text-anchor="middle" x="353.5" y="-42.75" font-family="Helvetica,sans-Serif" font-size="10.00">log</text>
</a>
</g>
</g>
<!-- Node1&#45;&gt;Node3 -->
<g id="edge4_Node000001_Node000003" class="edge">
<title>Node1&#45;&gt;Node3</title>
<g id="a_edge4_Node000001_Node000003"><a xlink:title=" ">
<path fill="none" stroke="#63b8ff" d="M111.58,-31.97C176.02,-35.89 280.02,-42.22 327.46,-45.1"/>
<polygon fill="#63b8ff" stroke="#63b8ff" points="327.05,-48.58 337.25,-45.7 327.48,-41.6 327.05,-48.58"/>
</a>
</g>
</g>
<!-- Node2&#45;&gt;Node3 -->
<g id="edge2_Node000002_Node000003" class="edge">
<title>Node2&#45;&gt;Node3</title>
<g id="a_edge2_Node000002_Node000003"><a xlink:title=" ">
<path fill="none" stroke="#63b8ff" d="M250.76,-19.74C275.23,-26.2 306.28,-34.41 327.6,-40.05"/>
<polygon fill="#63b8ff" stroke="#63b8ff" points="326.6,-43.4 337.17,-42.57 328.39,-36.63 326.6,-43.4"/>
</a>
</g>
</g>
<!-- Node4 -->
<g id="Node000004" class="node">
<title>Node4</title>
<g id="a_Node000004"><a xlink:href="class_widget.html#a5726db3aa94844c547974fb48594a305" target="_top" xlink:title="Constructs a widget at a specified screen location.">
<polygon fill="white" stroke="#666666" points="395.25,-19.25 311.75,-19.25 311.75,0 395.25,0 395.25,-19.25"/>
<text text-anchor="middle" x="353.5" y="-5.75" font-family="Helvetica,sans-Serif" font-size="10.00">Widget::Widget</text>
</a>
</g>
</g>
<!-- Node2&#45;&gt;Node4 -->
<g id="edge3_Node000002_Node000004" class="edge">
<title>Node2&#45;&gt;Node4</title>
<g id="a_edge3_Node000002_Node000004"><a xlink:title=" ">
<path fill="none" stroke="#63b8ff" d="M275.95,-9.62C284.02,-9.62 292.2,-9.62 300.07,-9.62"/>
<polygon fill="#63b8ff" stroke="#63b8ff" points="299.81,-13.13 309.81,-9.63 299.81,-6.13 299.81,-13.13"/>
</a>
</g>
</g>
</g>
</svg>
