<?xml version="1.0" encoding="UTF-8" standalone="no"?>
<!DOCTYPE svg PUBLIC "-//W3C//DTD SVG 1.1//EN"
 "http://www.w3.org/Graphics/SVG/1.1/DTD/svg11.dtd">
<!-- Generated by graphviz version 12.2.1 (20241206.2353)
 -->
<!-- Title: DirectCommandMode Pages: 1 -->
<svg width="349pt" height="244pt"
 viewBox="0.00 0.00 348.50 243.75" xmlns="http://www.w3.org/2000/svg" xmlns:xlink="http://www.w3.org/1999/xlink">
<g id="graph0" class="graph" transform="scale(1 1) rotate(0) translate(4 239.75)">
<title>DirectCommandMode</title>
<!-- Node1 -->
<g id="Node000001" class="node">
<title>Node1</title>
<g id="a_Node000001"><a xlink:title="Mode for direct interaction with PG&#45;800&#45;style command interface.">
<polygon fill="#999999" stroke="#666666" points="111.25,-19.25 0,-19.25 0,0 111.25,0 111.25,-19.25"/>
<text text-anchor="middle" x="55.62" y="-5.75" font-family="Helvetica,sans-Serif" font-size="10.00">DirectCommandMode</text>
</a>
</g>
</g>
<!-- Node2 -->
<g id="Node000002" class="node">
<title>Node2</title>
<g id="a_Node000002"><a xlink:href="class_app_mode.html" target="_top" xlink:title="Base class for defining behavior of application modes.">
<polygon fill="white" stroke="#666666" points="68.25,-91.75 11,-91.75 11,-72.5 68.25,-72.5 68.25,-91.75"/>
<text text-anchor="middle" x="39.62" y="-78.25" font-family="Helvetica,sans-Serif" font-size="10.00">AppMode</text>
</a>
</g>
</g>
<!-- Node2&#45;&gt;Node1 -->
<g id="edge1_Node000001_Node000002" class="edge">
<title>Node2&#45;&gt;Node1</title>
<g id="a_edge1_Node000001_Node000002"><a xlink:title=" ">
<path fill="none" stroke="#63b8ff" d="M44.18,-61.05C47.27,-47.44 51.21,-30.1 53.56,-19.7"/>
<polygon fill="#63b8ff" stroke="#63b8ff" points="40.79,-60.19 41.99,-70.72 47.61,-61.74 40.79,-60.19"/>
</a>
</g>
</g>
<!-- Node3 -->
<g id="Node000003" class="node">
<title>Node3</title>
<g id="a_Node000003"><a xlink:href="class_direct_command_screen.html" target="_top" xlink:title="UI screen for direct entry and sending of PG&#45;800&#45;style commands.">
<polygon fill="white" stroke="#666666" points="204.62,-91.75 86.62,-91.75 86.62,-72.5 204.62,-72.5 204.62,-91.75"/>
<text text-anchor="middle" x="145.62" y="-78.25" font-family="Helvetica,sans-Serif" font-size="10.00">DirectCommandScreen</text>
</a>
</g>
</g>
<!-- Node3&#45;&gt;Node1 -->
<g id="edge2_Node000001_Node000003" class="edge">
<title>Node3&#45;&gt;Node1</title>
<g id="a_edge2_Node000001_Node000003"><a xlink:title=" ">
<path fill="none" stroke="#9a32cd" stroke-dasharray="5,2" d="M125.65,-65.48C107.7,-51.42 81.97,-31.26 67.22,-19.7"/>
<polygon fill="#9a32cd" stroke="#9a32cd" points="123,-67.85 133.03,-71.26 127.32,-62.34 123,-67.85"/>
</a>
</g>
<text text-anchor="start" x="114.33" y="-42" font-family="Helvetica,sans-Serif" font-size="10.00" fill="grey">screen</text>
</g>
<!-- Node4 -->
<g id="Node000004" class="node">
<title>Node4</title>
<g id="a_Node000004"><a xlink:href="class_screen.html" target="_top" xlink:title="Base class for user interface screens.">
<polygon fill="white" stroke="#666666" points="48,-179.5 1.25,-179.5 1.25,-160.25 48,-160.25 48,-179.5"/>
<text text-anchor="middle" x="24.62" y="-166" font-family="Helvetica,sans-Serif" font-size="10.00">Screen</text>
</a>
</g>
</g>
<!-- Node4&#45;&gt;Node3 -->
<g id="edge3_Node000003_Node000004" class="edge">
<title>Node4&#45;&gt;Node3</title>
<g id="a_edge3_Node000003_Node000004"><a xlink:title=" ">
<path fill="none" stroke="#63b8ff" d="M46.27,-153.54C71.53,-135.63 112.47,-106.62 133.02,-92.06"/>
<polygon fill="#63b8ff" stroke="#63b8ff" points="44.49,-150.51 38.35,-159.15 48.54,-156.22 44.49,-150.51"/>
</a>
</g>
</g>
<!-- Node5 -->
<g id="Node000005" class="node">
<title>Node5</title>
<g id="a_Node000005"><a xlink:href="class_encoder_attached_numeric_widget.html" target="_top" xlink:title="Numeric display widget controlled by rotary encoder input.">
<polygon fill="white" stroke="#666666" points="224.88,-179.5 66.38,-179.5 66.38,-160.25 224.88,-160.25 224.88,-179.5"/>
<text text-anchor="middle" x="145.62" y="-166" font-family="Helvetica,sans-Serif" font-size="10.00">EncoderAttachedNumericWidget</text>
</a>
</g>
</g>
<!-- Node5&#45;&gt;Node3 -->
<g id="edge4_Node000003_Node000005" class="edge">
<title>Node5&#45;&gt;Node3</title>
<g id="a_edge4_Node000003_Node000005"><a xlink:title=" ">
<path fill="none" stroke="#9a32cd" stroke-dasharray="5,2" d="M145.62,-148.54C145.62,-130.61 145.62,-105.33 145.62,-92.06"/>
<polygon fill="#9a32cd" stroke="#9a32cd" points="142.13,-148.51 145.63,-158.51 149.13,-148.51 142.13,-148.51"/>
</a>
</g>
<text text-anchor="start" x="148.62" y="-129.75" font-family="Helvetica,sans-Serif" font-size="10.00" fill="grey">byteWidget</text>
<text text-anchor="start" x="148.62" y="-114.5" font-family="Helvetica,sans-Serif" font-size="10.00" fill="grey">cmdWidget</text>
</g>
<!-- Node6 -->
<g id="Node000006" class="node">
<title>Node6</title>
<g id="a_Node000006"><a xlink:href="class_widget.html" target="_top" xlink:title="Base class for all on&#45;screen widgets.">
<polygon fill="white" stroke="#666666" points="241,-235.75 194.25,-235.75 194.25,-216.5 241,-216.5 241,-235.75"/>
<text text-anchor="middle" x="217.62" y="-222.25" font-family="Helvetica,sans-Serif" font-size="10.00">Widget</text>
</a>
</g>
</g>
<!-- Node6&#45;&gt;Node5 -->
<g id="edge5_Node000005_Node000006" class="edge">
<title>Node6&#45;&gt;Node5</title>
<g id="a_edge5_Node000005_Node000006"><a xlink:title=" ">
<path fill="none" stroke="#63b8ff" d="M196.67,-209.34C183.85,-199.67 167.91,-187.67 157.29,-179.67"/>
<polygon fill="#63b8ff" stroke="#63b8ff" points="194.43,-212.03 204.53,-215.26 198.65,-206.44 194.43,-212.03"/>
</a>
</g>
</g>
<!-- Node7 -->
<g id="Node000007" class="node">
<title>Node7</title>
<g id="a_Node000007"><a xlink:href="class_push_button_widget.html" target="_top" xlink:title="On&#45;screen momentary button with press state and optional encoder focus (like an OK or Cancel button).">
<polygon fill="white" stroke="#666666" points="340.5,-179.5 242.75,-179.5 242.75,-160.25 340.5,-160.25 340.5,-179.5"/>
<text text-anchor="middle" x="291.62" y="-166" font-family="Helvetica,sans-Serif" font-size="10.00">PushButtonWidget</text>
</a>
</g>
</g>
<!-- Node6&#45;&gt;Node7 -->
<g id="edge7_Node000007_Node000006" class="edge">
<title>Node6&#45;&gt;Node7</title>
<g id="a_edge7_Node000007_Node000006"><a xlink:title=" ">
<path fill="none" stroke="#63b8ff" d="M239.1,-209.38C252.19,-199.78 268.46,-187.86 279.39,-179.85"/>
<polygon fill="#63b8ff" stroke="#63b8ff" points="237.06,-206.54 231.07,-215.27 241.2,-212.18 237.06,-206.54"/>
</a>
</g>
</g>
<!-- Node7&#45;&gt;Node3 -->
<g id="edge6_Node000003_Node000007" class="edge">
<title>Node7&#45;&gt;Node3</title>
<g id="a_edge6_Node000003_Node000007"><a xlink:title=" ">
<path fill="none" stroke="#9a32cd" stroke-dasharray="5,2" d="M271.1,-153.16C254.1,-140.55 229.02,-122.84 205.62,-109.75 193.79,-103.13 179.99,-96.91 168.61,-92.15"/>
<polygon fill="#9a32cd" stroke="#9a32cd" points="268.8,-155.81 278.9,-159.02 273.01,-150.22 268.8,-155.81"/>
</a>
</g>
<text text-anchor="start" x="258.55" y="-122.12" font-family="Helvetica,sans-Serif" font-size="10.00" fill="grey">pushWidget</text>
</g>
</g>
</svg>
