<?xml version="1.0" encoding="UTF-8" standalone="no"?>
<!DOCTYPE svg PUBLIC "-//W3C//DTD SVG 1.1//EN"
 "http://www.w3.org/Graphics/SVG/1.1/DTD/svg11.dtd">
<!-- Generated by graphviz version 12.2.1 (20241206.2353)
 -->
<!-- Title: KnobConfigDialog Pages: 1 -->
<svg width="198pt" height="138pt"
 viewBox="0.00 0.00 197.75 137.75" xmlns="http://www.w3.org/2000/svg" xmlns:xlink="http://www.w3.org/1999/xlink">
<g id="graph0" class="graph" transform="scale(1 1) rotate(0) translate(4 133.75)">
<title>KnobConfigDialog</title>
<!-- Node1 -->
<g id="Node000001" class="node">
<title>Node1</title>
<g id="a_Node000001"><a xlink:title="Modal dialog for configuring a knob’s control parameters.">
<polygon fill="#999999" stroke="#666666" points="134.38,-19.25 39.62,-19.25 39.62,0 134.38,0 134.38,-19.25"/>
<text text-anchor="middle" x="87" y="-5.75" font-family="Helvetica,sans-Serif" font-size="10.00">KnobConfigDialog</text>
</a>
</g>
</g>
<!-- Node2 -->
<g id="Node000002" class="node">
<title>Node2</title>
<g id="a_Node000002"><a xlink:href="class_modal_dialog.html" target="_top" xlink:title="Base class for modal overlays requiring user dismissal or confirmation.">
<polygon fill="white" stroke="#666666" points="70,-74.5 0,-74.5 0,-55.25 70,-55.25 70,-74.5"/>
<text text-anchor="middle" x="35" y="-61" font-family="Helvetica,sans-Serif" font-size="10.00">ModalDialog</text>
</a>
</g>
</g>
<!-- Node2&#45;&gt;Node1 -->
<g id="edge1_Node000001_Node000002" class="edge">
<title>Node2&#45;&gt;Node1</title>
<g id="a_edge1_Node000001_Node000002"><a xlink:title=" ">
<path fill="none" stroke="#63b8ff" d="M51.41,-47.07C60.29,-37.98 70.91,-27.1 78.23,-19.61"/>
<polygon fill="#63b8ff" stroke="#63b8ff" points="49.13,-44.4 44.64,-54 54.13,-49.29 49.13,-44.4"/>
</a>
</g>
</g>
<!-- Node3 -->
<g id="Node000003" class="node">
<title>Node3</title>
<g id="a_Node000003"><a xlink:href="class_screen.html" target="_top" xlink:title="Base class for user interface screens.">
<polygon fill="white" stroke="#666666" points="58.38,-129.75 11.62,-129.75 11.62,-110.5 58.38,-110.5 58.38,-129.75"/>
<text text-anchor="middle" x="35" y="-116.25" font-family="Helvetica,sans-Serif" font-size="10.00">Screen</text>
</a>
</g>
</g>
<!-- Node3&#45;&gt;Node2 -->
<g id="edge2_Node000002_Node000003" class="edge">
<title>Node3&#45;&gt;Node2</title>
<g id="a_edge2_Node000002_Node000003"><a xlink:title=" ">
<path fill="none" stroke="#63b8ff" d="M35,-98.88C35,-90.59 35,-81.42 35,-74.86"/>
<polygon fill="#63b8ff" stroke="#63b8ff" points="31.5,-98.82 35,-108.82 38.5,-98.82 31.5,-98.82"/>
</a>
</g>
</g>
<!-- Node4 -->
<g id="Node000004" class="node">
<title>Node4</title>
<g id="a_Node000004"><a xlink:href="class_i_widget_nav_handler.html" target="_top" xlink:title="Interface for responding to widget navigation events.">
<polygon fill="white" stroke="#666666" points="189.75,-74.5 88.25,-74.5 88.25,-55.25 189.75,-55.25 189.75,-74.5"/>
<text text-anchor="middle" x="139" y="-61" font-family="Helvetica,sans-Serif" font-size="10.00">IWidgetNavHandler</text>
</a>
</g>
</g>
<!-- Node4&#45;&gt;Node1 -->
<g id="edge3_Node000001_Node000004" class="edge">
<title>Node4&#45;&gt;Node1</title>
<g id="a_edge3_Node000001_Node000004"><a xlink:title=" ">
<path fill="none" stroke="#63b8ff" d="M122.59,-47.07C113.71,-37.98 103.09,-27.1 95.77,-19.61"/>
<polygon fill="#63b8ff" stroke="#63b8ff" points="119.87,-49.29 129.36,-54 124.87,-44.4 119.87,-49.29"/>
</a>
</g>
</g>
</g>
</svg>
