<?xml version="1.0" encoding="UTF-8" standalone="no"?>
<!DOCTYPE svg PUBLIC "-//W3C//DTD SVG 1.1//EN"
 "http://www.w3.org/Graphics/SVG/1.1/DTD/svg11.dtd">
<!-- Generated by graphviz version 12.2.1 (20241206.2353)
 -->
<!-- Title: HardwareManager::saveKnobs Pages: 1 -->
<svg width="356pt" height="64pt"
 viewBox="0.00 0.00 355.75 64.25" xmlns="http://www.w3.org/2000/svg" xmlns:xlink="http://www.w3.org/1999/xlink">
<g id="graph0" class="graph" transform="scale(1 1) rotate(0) translate(4 60.25)">
<title>HardwareManager::saveKnobs</title>
<!-- Node1 -->
<g id="Node000001" class="node">
<title>Node1</title>
<g id="a_Node000001"><a xlink:title="Saves the current knob configuration to EEPROM.">
<polygon fill="#999999" stroke="#666666" points="150.25,-37.25 0,-37.25 0,-18 150.25,-18 150.25,-37.25"/>
<text text-anchor="middle" x="75.12" y="-23.75" font-family="Helvetica,sans-Serif" font-size="10.00">HardwareManager::saveKnobs</text>
</a>
</g>
</g>
<!-- Node2 -->
<g id="Node000002" class="node">
<title>Node2</title>
<g id="a_Node000002"><a xlink:href="class_hardware_manager.html#a8ccfd2a833eb6826587dba7a4d97c331" target="_top" xlink:title="Detects change in knob value.">
<polygon fill="white" stroke="#666666" points="347.75,-56.25 186.25,-56.25 186.25,-37 347.75,-37 347.75,-56.25"/>
<text text-anchor="middle" x="267" y="-42.75" font-family="Helvetica,sans-Serif" font-size="10.00">HardwareManager::knobChanged</text>
</a>
</g>
</g>
<!-- Node1&#45;&gt;Node2 -->
<g id="edge1_Node000001_Node000002" class="edge">
<title>Node1&#45;&gt;Node2</title>
<g id="a_edge1_Node000001_Node000002"><a xlink:title=" ">
<path fill="none" stroke="#63b8ff" d="M150.62,-35.08C158.46,-35.86 166.5,-36.67 174.5,-37.47"/>
<polygon fill="#63b8ff" stroke="#63b8ff" points="173.96,-40.93 184.26,-38.45 174.66,-33.97 173.96,-40.93"/>
</a>
</g>
</g>
<!-- Node3 -->
<g id="Node000003" class="node">
<title>Node3</title>
<g id="a_Node000003"><a xlink:href="_logging_8cpp.html#a32abad09d9f828a9805862e18ad5da5f" target="_top" xlink:title="Logs a message with an explicit log level.">
<polygon fill="white" stroke="#666666" points="281.4,-19.25 252.6,-19.25 252.6,0 281.4,0 281.4,-19.25"/>
<text text-anchor="middle" x="267" y="-5.75" font-family="Helvetica,sans-Serif" font-size="10.00">log</text>
</a>
</g>
</g>
<!-- Node1&#45;&gt;Node3 -->
<g id="edge2_Node000001_Node000003" class="edge">
<title>Node1&#45;&gt;Node3</title>
<g id="a_edge2_Node000001_Node000003"><a xlink:title=" ">
<path fill="none" stroke="#63b8ff" d="M150.62,-20.56C182.53,-17.54 217.68,-14.21 240.69,-12.02"/>
<polygon fill="#63b8ff" stroke="#63b8ff" points="241,-15.51 250.62,-11.08 240.34,-8.54 241,-15.51"/>
</a>
</g>
</g>
</g>
</svg>
