<?xml version="1.0" encoding="UTF-8" standalone="no"?>
<!DOCTYPE svg PUBLIC "-//W3C//DTD SVG 1.1//EN"
 "http://www.w3.org/Graphics/SVG/1.1/DTD/svg11.dtd">
<!-- Generated by graphviz version 12.2.1 (20241206.2353)
 -->
<!-- Title: HardwareManager::setButtonLights Pages: 1 -->
<svg width="326pt" height="76pt"
 viewBox="0.00 0.00 325.75 75.88" xmlns="http://www.w3.org/2000/svg" xmlns:xlink="http://www.w3.org/1999/xlink">
<g id="graph0" class="graph" transform="scale(1 1) rotate(0) translate(4 71.88)">
<title>HardwareManager::setButtonLights</title>
<!-- Node1 -->
<g id="Node000001" class="node">
<title>Node1</title>
<g id="a_Node000001"><a xlink:title="Sets the LED colors for a button.">
<polygon fill="#999999" stroke="#666666" points="143.5,-51.5 0,-51.5 0,-21 143.5,-21 143.5,-51.5"/>
<text text-anchor="start" x="8" y="-38" font-family="Helvetica,sans-Serif" font-size="10.00">HardwareManager::setButton</text>
<text text-anchor="middle" x="71.75" y="-26.75" font-family="Helvetica,sans-Serif" font-size="10.00">Lights</text>
</a>
</g>
</g>
<!-- Node2 -->
<g id="Node000002" class="node">
<title>Node2</title>
<g id="a_Node000002"><a xlink:href="_logging_8cpp.html#a32abad09d9f828a9805862e18ad5da5f" target="_top" xlink:title="Logs a message with an explicit log level.">
<polygon fill="white" stroke="#666666" points="263.02,-67.88 234.22,-67.88 234.22,-48.62 263.02,-48.62 263.02,-67.88"/>
<text text-anchor="middle" x="248.62" y="-54.38" font-family="Helvetica,sans-Serif" font-size="10.00">log</text>
</a>
</g>
</g>
<!-- Node1&#45;&gt;Node2 -->
<g id="edge1_Node000001_Node000002" class="edge">
<title>Node1&#45;&gt;Node2</title>
<g id="a_edge1_Node000001_Node000002"><a xlink:title=" ">
<path fill="none" stroke="#63b8ff" d="M143.88,-45.2C171.89,-48.72 202.21,-52.54 222.8,-55.13"/>
<polygon fill="#63b8ff" stroke="#63b8ff" points="222.12,-58.57 232.47,-56.34 222.99,-51.62 222.12,-58.57"/>
</a>
</g>
</g>
<!-- Node3 -->
<g id="Node000003" class="node">
<title>Node3</title>
<g id="a_Node000003"><a xlink:href="class_hardware_manager.html#a69487280dacad30fc7fa1fd58e9e48ca" target="_top" xlink:title="Pushes current LED state to shift registers.">
<polygon fill="white" stroke="#666666" points="317.75,-30.5 179.5,-30.5 179.5,0 317.75,0 317.75,-30.5"/>
<text text-anchor="start" x="187.5" y="-17" font-family="Helvetica,sans-Serif" font-size="10.00">HardwareManager::writeLed</text>
<text text-anchor="middle" x="248.62" y="-5.75" font-family="Helvetica,sans-Serif" font-size="10.00">RegistersToHardware</text>
</a>
</g>
</g>
<!-- Node1&#45;&gt;Node3 -->
<g id="edge2_Node000001_Node000003" class="edge">
<title>Node1&#45;&gt;Node3</title>
<g id="a_edge2_Node000001_Node000003"><a xlink:title=" ">
<path fill="none" stroke="#63b8ff" d="M143.88,-27.71C151.78,-26.76 159.87,-25.79 167.88,-24.83"/>
<polygon fill="#63b8ff" stroke="#63b8ff" points="168.09,-28.33 177.6,-23.66 167.26,-21.38 168.09,-28.33"/>
</a>
</g>
</g>
</g>
</svg>
