<?xml version="1.0" encoding="UTF-8" standalone="no"?>
<!DOCTYPE svg PUBLIC "-//W3C//DTD SVG 1.1//EN"
 "http://www.w3.org/Graphics/SVG/1.1/DTD/svg11.dtd">
<!-- Generated by graphviz version 12.2.1 (20241206.2353)
 -->
<!-- Title: RunMode Pages: 1 -->
<svg width="172pt" height="156pt"
 viewBox="0.00 0.00 172.00 156.00" xmlns="http://www.w3.org/2000/svg" xmlns:xlink="http://www.w3.org/1999/xlink">
<g id="graph0" class="graph" transform="scale(1 1) rotate(0) translate(4 152)">
<title>RunMode</title>
<!-- Node1 -->
<g id="Node000001" class="node">
<title>Node1</title>
<g id="a_Node000001"><a xlink:title="Application mode for normal runtime operation.">
<polygon fill="#999999" stroke="#666666" points="88.62,-19.25 30.62,-19.25 30.62,0 88.62,0 88.62,-19.25"/>
<text text-anchor="middle" x="59.62" y="-5.75" font-family="Helvetica,sans-Serif" font-size="10.00">RunMode</text>
</a>
</g>
</g>
<!-- Node2 -->
<g id="Node000002" class="node">
<title>Node2</title>
<g id="a_Node000002"><a xlink:href="class_app_mode.html" target="_top" xlink:title="Base class for defining behavior of application modes.">
<polygon fill="white" stroke="#666666" points="57.25,-91.75 0,-91.75 0,-72.5 57.25,-72.5 57.25,-91.75"/>
<text text-anchor="middle" x="28.62" y="-78.25" font-family="Helvetica,sans-Serif" font-size="10.00">AppMode</text>
</a>
</g>
</g>
<!-- Node2&#45;&gt;Node1 -->
<g id="edge1_Node000001_Node000002" class="edge">
<title>Node2&#45;&gt;Node1</title>
<g id="a_edge1_Node000001_Node000002"><a xlink:title=" ">
<path fill="none" stroke="#63b8ff" d="M37.09,-61.88C43.12,-48.15 50.97,-30.31 55.63,-19.7"/>
<polygon fill="#63b8ff" stroke="#63b8ff" points="33.98,-60.25 33.16,-70.81 40.39,-63.07 33.98,-60.25"/>
</a>
</g>
</g>
<!-- Node3 -->
<g id="Node000003" class="node">
<title>Node3</title>
<g id="a_Node000003"><a xlink:href="class_run_mode_screen.html" target="_top" xlink:title="UI screen that manages and displays control widgets during runtime.">
<polygon fill="white" stroke="#666666" points="164,-91.75 75.25,-91.75 75.25,-72.5 164,-72.5 164,-91.75"/>
<text text-anchor="middle" x="119.62" y="-78.25" font-family="Helvetica,sans-Serif" font-size="10.00">RunModeScreen</text>
</a>
</g>
</g>
<!-- Node3&#45;&gt;Node1 -->
<g id="edge2_Node000001_Node000003" class="edge">
<title>Node3&#45;&gt;Node1</title>
<g id="a_edge2_Node000001_Node000003"><a xlink:title=" ">
<path fill="none" stroke="#9a32cd" stroke-dasharray="5,2" d="M104.63,-63.51C92.79,-49.59 76.74,-30.73 67.35,-19.7"/>
<polygon fill="#9a32cd" stroke="#9a32cd" points="101.9,-65.7 111.05,-71.04 107.23,-61.16 101.9,-65.7"/>
</a>
</g>
<text text-anchor="start" x="99.76" y="-42" font-family="Helvetica,sans-Serif" font-size="10.00" fill="grey">screen</text>
</g>
<!-- Node4 -->
<g id="Node000004" class="node">
<title>Node4</title>
<g id="a_Node000004"><a xlink:href="class_screen.html" target="_top" xlink:title="Base class for user interface screens.">
<polygon fill="white" stroke="#666666" points="143,-148 96.25,-148 96.25,-128.75 143,-128.75 143,-148"/>
<text text-anchor="middle" x="119.62" y="-134.5" font-family="Helvetica,sans-Serif" font-size="10.00">Screen</text>
</a>
</g>
</g>
<!-- Node4&#45;&gt;Node3 -->
<g id="edge3_Node000003_Node000004" class="edge">
<title>Node4&#45;&gt;Node3</title>
<g id="a_edge3_Node000003_Node000004"><a xlink:title=" ">
<path fill="none" stroke="#63b8ff" d="M119.62,-117.19C119.62,-108.48 119.62,-98.74 119.62,-91.92"/>
<polygon fill="#63b8ff" stroke="#63b8ff" points="116.13,-116.9 119.63,-126.9 123.13,-116.9 116.13,-116.9"/>
</a>
</g>
</g>
</g>
</svg>
