<?xml version="1.0" encoding="UTF-8" standalone="no"?>
<!DOCTYPE svg PUBLIC "-//W3C//DTD SVG 1.1//EN"
 "http://www.w3.org/Graphics/SVG/1.1/DTD/svg11.dtd">
<!-- Generated by graphviz version 12.2.1 (20241206.2353)
 -->
<!-- Title: KnobWidget::drawBezel Pages: 1 -->
<svg width="297pt" height="76pt"
 viewBox="0.00 0.00 297.25 75.88" xmlns="http://www.w3.org/2000/svg" xmlns:xlink="http://www.w3.org/1999/xlink">
<g id="graph0" class="graph" transform="scale(1 1) rotate(0) translate(4 71.88)">
<title>KnobWidget::drawBezel</title>
<!-- Node1 -->
<g id="Node000001" class="node">
<title>Node1</title>
<g id="a_Node000001"><a xlink:title="Draws the circular bezel of the knob.">
<polygon fill="#999999" stroke="#666666" points="289.25,-45.88 168.25,-45.88 168.25,-26.62 289.25,-26.62 289.25,-45.88"/>
<text text-anchor="middle" x="228.75" y="-32.38" font-family="Helvetica,sans-Serif" font-size="10.00">KnobWidget::drawBezel</text>
</a>
</g>
</g>
<!-- Node2 -->
<g id="Node000002" class="node">
<title>Node2</title>
<g id="a_Node000002"><a xlink:href="class_encoder_knob_widget.html#a7045a68b4b12b989555d8e6d30980d8c" target="_top" xlink:title="Renders the knob to the screen, including press state.">
<polygon fill="white" stroke="#666666" points="132.25,-67.88 0,-67.88 0,-48.62 132.25,-48.62 132.25,-67.88"/>
<text text-anchor="middle" x="66.12" y="-54.38" font-family="Helvetica,sans-Serif" font-size="10.00">EncoderKnobWidget::draw</text>
</a>
</g>
</g>
<!-- Node1&#45;&gt;Node2 -->
<g id="edge1_Node000001_Node000002" class="edge">
<title>Node1&#45;&gt;Node2</title>
<g id="a_edge1_Node000001_Node000002"><a xlink:title=" ">
<path fill="none" stroke="#63b8ff" d="M156.73,-45.98C148.72,-47.07 140.59,-48.19 132.65,-49.28"/>
<polygon fill="#63b8ff" stroke="#63b8ff" points="157.01,-49.47 166.44,-44.65 156.06,-42.54 157.01,-49.47"/>
</a>
</g>
</g>
<!-- Node3 -->
<g id="Node000003" class="node">
<title>Node3</title>
<g id="a_Node000003"><a xlink:href="class_potentiometer_knob_widget.html#a66fb95b36cbfe0876a2dd59d03dd719a" target="_top" xlink:title="Draws the knob and arrow on the screen.">
<polygon fill="white" stroke="#666666" points="131.12,-30.5 1.12,-30.5 1.12,0 131.12,0 131.12,-30.5"/>
<text text-anchor="start" x="9.12" y="-17" font-family="Helvetica,sans-Serif" font-size="10.00">PotentiometerKnobWidget</text>
<text text-anchor="middle" x="66.12" y="-5.75" font-family="Helvetica,sans-Serif" font-size="10.00">::draw</text>
</a>
</g>
</g>
<!-- Node1&#45;&gt;Node3 -->
<g id="edge2_Node000001_Node000003" class="edge">
<title>Node1&#45;&gt;Node3</title>
<g id="a_edge2_Node000001_Node000003"><a xlink:title=" ">
<path fill="none" stroke="#63b8ff" d="M156.66,-26.96C148.31,-25.86 139.82,-24.75 131.56,-23.67"/>
<polygon fill="#63b8ff" stroke="#63b8ff" points="156.07,-30.41 166.44,-28.23 156.98,-23.47 156.07,-30.41"/>
</a>
</g>
</g>
</g>
</svg>
