<?xml version="1.0" encoding="UTF-8" standalone="no"?>
<!DOCTYPE svg PUBLIC "-//W3C//DTD SVG 1.1//EN"
 "http://www.w3.org/Graphics/SVG/1.1/DTD/svg11.dtd">
<!-- Generated by graphviz version 12.2.1 (20241206.2353)
 -->
<!-- Title: include/defines.h Pages: 1 -->
<svg width="2820pt" height="216pt"
 viewBox="0.00 0.00 2820.00 215.50" xmlns="http://www.w3.org/2000/svg" xmlns:xlink="http://www.w3.org/1999/xlink">
<g id="graph0" class="graph" transform="scale(1 1) rotate(0) translate(4 211.5)">
<title>include/defines.h</title>
<!-- Node1 -->
<g id="Node000001" class="node">
<title>Node1</title>
<g id="a_Node000001"><a xlink:title="Hardware pin definitions and global constants for JMR800&#45;V2.">
<polygon fill="#999999" stroke="#666666" points="889.75,-207.5 800.25,-207.5 800.25,-188.25 889.75,-188.25 889.75,-207.5"/>
<text text-anchor="middle" x="845" y="-194" font-family="Helvetica,sans-Serif" font-size="10.00">include/defines.h</text>
</a>
</g>
</g>
<!-- Node2 -->
<g id="Node000002" class="node">
<title>Node2</title>
<g id="a_Node000002"><a xlink:href="_hardware_manager_8h.html" target="_top" xlink:title="Manages hardware input/output for analog controls, digital buttons, encoder, and serial communication...">
<polygon fill="white" stroke="#666666" points="913.38,-91.38 776.62,-91.38 776.62,-72.12 913.38,-72.12 913.38,-91.38"/>
<text text-anchor="middle" x="845" y="-77.88" font-family="Helvetica,sans-Serif" font-size="10.00">include/HardwareManager.h</text>
</a>
</g>
</g>
<!-- Node1&#45;&gt;Node2 -->
<g id="edge1_Node000001_Node000002" class="edge">
<title>Node1&#45;&gt;Node2</title>
<g id="a_edge1_Node000001_Node000002"><a xlink:title=" ">
<path fill="none" stroke="#63b8ff" d="M845,-176.5C845,-151.38 845,-109.79 845,-91.66"/>
<polygon fill="#63b8ff" stroke="#63b8ff" points="841.5,-176.41 845,-186.41 848.5,-176.41 841.5,-176.41"/>
</a>
</g>
</g>
<!-- Node3 -->
<g id="Node000003" class="node">
<title>Node3</title>
<g id="a_Node000003"><a xlink:href="_hardware_manager_8cpp.html" target="_top" xlink:title="Implements the HardwareManager class which controls all low&#45;level hardware interfaces.">
<polygon fill="white" stroke="#666666" points="130,-24.88 0,-24.88 0,-5.63 130,-5.63 130,-24.88"/>
<text text-anchor="middle" x="65" y="-11.38" font-family="Helvetica,sans-Serif" font-size="10.00">src/HardwareManager.cpp</text>
</a>
</g>
</g>
<!-- Node1&#45;&gt;Node3 -->
<g id="edge45_Node000001_Node000003" class="edge">
<title>Node1&#45;&gt;Node3</title>
<g id="a_edge45_Node000001_Node000003"><a xlink:title=" ">
<path fill="none" stroke="#63b8ff" d="M788.52,-187.09C739.39,-178.44 666.36,-165.2 603,-152.25 493.21,-129.81 465.7,-124.22 357,-97 261.33,-73.04 149.16,-40.86 95.98,-25.36"/>
<polygon fill="#63b8ff" stroke="#63b8ff" points="787.91,-190.54 798.36,-188.82 789.12,-183.65 787.91,-190.54"/>
</a>
</g>
</g>
<!-- Node6 -->
<g id="Node000006" class="node">
<title>Node6</title>
<g id="a_Node000006"><a xlink:href="main_8cpp.html" target="_top" xlink:title="Entry point for the JMR800&#45;V2 firmware.">
<polygon fill="white" stroke="#666666" points="220.12,-24.88 147.88,-24.88 147.88,-5.63 220.12,-5.63 220.12,-24.88"/>
<text text-anchor="middle" x="184" y="-11.38" font-family="Helvetica,sans-Serif" font-size="10.00">src/main.cpp</text>
</a>
</g>
</g>
<!-- Node1&#45;&gt;Node6 -->
<g id="edge47_Node000001_Node000006" class="edge">
<title>Node1&#45;&gt;Node6</title>
<g id="a_edge47_Node000001_Node000006"><a xlink:title=" ">
<path fill="none" stroke="#63b8ff" d="M798.13,-184.95C694.91,-158.52 440.32,-92.47 229,-30.5 223.5,-28.89 217.64,-27.09 212.03,-25.33"/>
<polygon fill="#63b8ff" stroke="#63b8ff" points="797.07,-188.29 807.62,-187.38 798.8,-181.51 797.07,-188.29"/>
</a>
</g>
</g>
<!-- Node20 -->
<g id="Node000020" class="node">
<title>Node20</title>
<g id="a_Node000020"><a xlink:href="_logging_8h.html" target="_top" xlink:title="Lightweight logging utility for serial output in the JMR800&#45;V2 project.">
<polygon fill="white" stroke="#666666" points="1735.88,-152.25 1644.12,-152.25 1644.12,-133 1735.88,-133 1735.88,-152.25"/>
<text text-anchor="middle" x="1690" y="-138.75" font-family="Helvetica,sans-Serif" font-size="10.00">include/Logging.h</text>
</a>
</g>
</g>
<!-- Node1&#45;&gt;Node20 -->
<g id="edge19_Node000001_Node000020" class="edge">
<title>Node1&#45;&gt;Node20</title>
<g id="a_edge19_Node000001_Node000020"><a xlink:title=" ">
<path fill="none" stroke="#63b8ff" d="M901.39,-193.32C1058.6,-183.41 1499.63,-155.62 1643.78,-146.54"/>
<polygon fill="#63b8ff" stroke="#63b8ff" points="901.4,-189.81 891.64,-193.94 901.84,-196.8 901.4,-189.81"/>
</a>
</g>
</g>
<!-- Node23 -->
<g id="Node000023" class="node">
<title>Node23</title>
<g id="a_Node000023"><a xlink:href="_screen_manager_8cpp.html" target="_top" xlink:title="Implements the ScreenManager class for managing the OLED display and screen lifecycle.">
<polygon fill="white" stroke="#666666" points="2671.38,-91.38 2552.62,-91.38 2552.62,-72.12 2671.38,-72.12 2671.38,-91.38"/>
<text text-anchor="middle" x="2612" y="-77.88" font-family="Helvetica,sans-Serif" font-size="10.00">src/ScreenManager.cpp</text>
</a>
</g>
</g>
<!-- Node1&#45;&gt;Node23 -->
<g id="edge46_Node000001_Node000023" class="edge">
<title>Node1&#45;&gt;Node23</title>
<g id="a_edge46_Node000001_Node000023"><a xlink:title=" ">
<path fill="none" stroke="#63b8ff" d="M901.29,-196.5C1115.47,-194.46 1899.79,-181.3 2539,-97 2549.11,-95.67 2559.94,-93.8 2570.07,-91.85"/>
<polygon fill="#63b8ff" stroke="#63b8ff" points="901.53,-193 891.56,-196.59 901.6,-200 901.53,-193"/>
</a>
</g>
</g>
<!-- Node2&#45;&gt;Node3 -->
<g id="edge2_Node000002_Node000003" class="edge">
<title>Node2&#45;&gt;Node3</title>
<g id="a_edge2_Node000002_Node000003"><a xlink:title=" ">
<path fill="none" stroke="#63b8ff" d="M765.08,-78.16C633.89,-73.23 364.88,-60.18 139,-30.5 128.75,-29.15 117.78,-27.28 107.51,-25.34"/>
<polygon fill="#63b8ff" stroke="#63b8ff" points="764.94,-81.66 775.06,-78.53 765.2,-74.67 764.94,-81.66"/>
</a>
</g>
</g>
<!-- Node4 -->
<g id="Node000004" class="node">
<title>Node4</title>
<g id="a_Node000004"><a xlink:href="_logging_8cpp.html" target="_top" xlink:title="Implements a simple logging utility for emitting serial debug messages with verbosity filtering.">
<polygon fill="white" stroke="#666666" points="1545.5,-24.88 1460.5,-24.88 1460.5,-5.63 1545.5,-5.63 1545.5,-24.88"/>
<text text-anchor="middle" x="1503" y="-11.38" font-family="Helvetica,sans-Serif" font-size="10.00">src/Logging.cpp</text>
</a>
</g>
</g>
<!-- Node2&#45;&gt;Node4 -->
<g id="edge3_Node000002_Node000004" class="edge">
<title>Node2&#45;&gt;Node4</title>
<g id="a_edge3_Node000002_Node000004"><a xlink:title=" ">
<path fill="none" stroke="#63b8ff" d="M900.46,-69.7C907.69,-68.49 915.01,-67.38 922,-66.5 1156.24,-36.97 1219.31,-70.48 1452,-30.5 1459.34,-29.24 1467.14,-27.35 1474.37,-25.36"/>
<polygon fill="#63b8ff" stroke="#63b8ff" points="899.98,-66.23 890.74,-71.4 901.19,-73.12 899.98,-66.23"/>
</a>
</g>
</g>
<!-- Node5 -->
<g id="Node000005" class="node">
<title>Node5</title>
<g id="a_Node000005"><a xlink:href="_mode_manager_8cpp.html" target="_top" xlink:title="Implements the ModeManager class responsible for managing application modes.">
<polygon fill="white" stroke="#666666" points="1676,-24.88 1564,-24.88 1564,-5.63 1676,-5.63 1676,-24.88"/>
<text text-anchor="middle" x="1620" y="-11.38" font-family="Helvetica,sans-Serif" font-size="10.00">src/ModeManager.cpp</text>
</a>
</g>
</g>
<!-- Node2&#45;&gt;Node5 -->
<g id="edge4_Node000002_Node000005" class="edge">
<title>Node2&#45;&gt;Node5</title>
<g id="a_edge4_Node000002_Node000005"><a xlink:title=" ">
<path fill="none" stroke="#63b8ff" d="M899.92,-69.71C907.32,-68.48 914.83,-67.36 922,-66.5 1201.32,-32.83 1275.21,-68.3 1554,-30.5 1563.41,-29.22 1573.47,-27.33 1582.83,-25.33"/>
<polygon fill="#63b8ff" stroke="#63b8ff" points="899.57,-66.22 890.32,-71.39 900.77,-73.12 899.57,-66.22"/>
</a>
</g>
</g>
<!-- Node2&#45;&gt;Node6 -->
<g id="edge5_Node000002_Node000006" class="edge">
<title>Node2&#45;&gt;Node6</title>
<g id="a_edge5_Node000002_Node000006"><a xlink:title=" ">
<path fill="none" stroke="#63b8ff" d="M765.1,-76.48C622.44,-68.47 329.46,-50.24 229,-30.5 222.41,-29.2 215.42,-27.28 208.97,-25.25"/>
<polygon fill="#63b8ff" stroke="#63b8ff" points="764.66,-79.96 774.84,-77.02 765.05,-72.97 764.66,-79.96"/>
</a>
</g>
</g>
<!-- Node7 -->
<g id="Node000007" class="node">
<title>Node7</title>
<g id="a_Node000007"><a xlink:href="_config_mode_8cpp.html" target="_top" xlink:title="Implements the System Configuration Mode for knob setup.">
<polygon fill="white" stroke="#666666" points="1830,-24.88 1694,-24.88 1694,-5.63 1830,-5.63 1830,-24.88"/>
<text text-anchor="middle" x="1762" y="-11.38" font-family="Helvetica,sans-Serif" font-size="10.00">src/modes/ConfigMode.cpp</text>
</a>
</g>
</g>
<!-- Node2&#45;&gt;Node7 -->
<g id="edge6_Node000002_Node000007" class="edge">
<title>Node2&#45;&gt;Node7</title>
<g id="a_edge6_Node000002_Node000007"><a xlink:title=" ">
<path fill="none" stroke="#63b8ff" d="M899.63,-69.69C907.12,-68.46 914.74,-67.34 922,-66.5 1259.24,-27.52 1347.76,-69.48 1685,-30.5 1695.94,-29.24 1707.66,-27.34 1718.58,-25.35"/>
<polygon fill="#63b8ff" stroke="#63b8ff" points="899.16,-66.22 889.91,-71.39 900.36,-73.12 899.16,-66.22"/>
</a>
</g>
</g>
<!-- Node8 -->
<g id="Node000008" class="node">
<title>Node8</title>
<g id="a_Node000008"><a xlink:href="_controls_test_mode_8cpp.html" target="_top" xlink:title="Implements the Controls Test Mode for button interaction diagnostics.">
<polygon fill="white" stroke="#666666" points="2011.5,-24.88 1848.5,-24.88 1848.5,-5.63 2011.5,-5.63 2011.5,-24.88"/>
<text text-anchor="middle" x="1930" y="-11.38" font-family="Helvetica,sans-Serif" font-size="10.00">src/modes/ControlsTestMode.cpp</text>
</a>
</g>
</g>
<!-- Node2&#45;&gt;Node8 -->
<g id="edge7_Node000002_Node000008" class="edge">
<title>Node2&#45;&gt;Node8</title>
<g id="a_edge7_Node000002_Node000008"><a xlink:title=" ">
<path fill="none" stroke="#63b8ff" d="M899.08,-69.73C906.75,-68.46 914.56,-67.33 922,-66.5 1327.35,-21.27 1433.06,-70.12 1839,-30.5 1851.89,-29.24 1865.74,-27.35 1878.64,-25.36"/>
<polygon fill="#63b8ff" stroke="#63b8ff" points="898.75,-66.24 889.5,-71.4 899.95,-73.13 898.75,-66.24"/>
</a>
</g>
</g>
<!-- Node9 -->
<g id="Node000009" class="node">
<title>Node9</title>
<g id="a_Node000009"><a xlink:href="_direct_command_mode_8cpp.html" target="_top" xlink:title="Implements behavior for Direct Command Mode.">
<polygon fill="white" stroke="#666666" points="2208.38,-24.88 2029.62,-24.88 2029.62,-5.63 2208.38,-5.63 2208.38,-24.88"/>
<text text-anchor="middle" x="2119" y="-11.38" font-family="Helvetica,sans-Serif" font-size="10.00">src/modes/DirectCommandMode.cpp</text>
</a>
</g>
</g>
<!-- Node2&#45;&gt;Node9 -->
<g id="edge8_Node000002_Node000009" class="edge">
<title>Node2&#45;&gt;Node9</title>
<g id="a_edge8_Node000002_Node000009"><a xlink:title=" ">
<path fill="none" stroke="#63b8ff" d="M898.8,-69.73C906.56,-68.45 914.46,-67.32 922,-66.5 1407.87,-13.89 1534.21,-73.73 2021,-30.5 2034.96,-29.26 2049.96,-27.37 2063.93,-25.36"/>
<polygon fill="#63b8ff" stroke="#63b8ff" points="898.34,-66.26 889.09,-71.43 899.54,-73.16 898.34,-66.26"/>
</a>
</g>
</g>
<!-- Node10 -->
<g id="Node000010" class="node">
<title>Node10</title>
<g id="a_Node000010"><a xlink:href="_run_mode_8cpp.html" target="_top" xlink:title="Implements the behavior of the Run Mode application state.">
<polygon fill="white" stroke="#666666" points="2351.75,-24.88 2226.25,-24.88 2226.25,-5.63 2351.75,-5.63 2351.75,-24.88"/>
<text text-anchor="middle" x="2289" y="-11.38" font-family="Helvetica,sans-Serif" font-size="10.00">src/modes/RunMode.cpp</text>
</a>
</g>
</g>
<!-- Node2&#45;&gt;Node10 -->
<g id="edge9_Node000002_Node000010" class="edge">
<title>Node2&#45;&gt;Node10</title>
<g id="a_edge9_Node000002_Node000010"><a xlink:title=" ">
<path fill="none" stroke="#63b8ff" d="M898.79,-69.7C906.55,-68.42 914.46,-67.3 922,-66.5 1494.58,-5.93 1644.8,-94.62 2217,-30.5 2227.51,-29.32 2238.77,-27.41 2249.2,-25.36"/>
<polygon fill="#63b8ff" stroke="#63b8ff" points="898.33,-66.22 889.08,-71.39 899.54,-73.12 898.33,-66.22"/>
</a>
</g>
</g>
<!-- Node11 -->
<g id="Node000011" class="node">
<title>Node11</title>
<g id="a_Node000011"><a xlink:href="_controls_test_screen_8cpp.html" target="_top" xlink:title="Implements a screen for testing all physical controls: knobs, buttons, and encoder.">
<polygon fill="white" stroke="#666666" points="2645.75,-30.5 2520.25,-30.5 2520.25,0 2645.75,0 2645.75,-30.5"/>
<text text-anchor="start" x="2528.25" y="-17" font-family="Helvetica,sans-Serif" font-size="10.00">src/screens/ControlsTest</text>
<text text-anchor="middle" x="2583" y="-5.75" font-family="Helvetica,sans-Serif" font-size="10.00">Screen.cpp</text>
</a>
</g>
</g>
<!-- Node2&#45;&gt;Node11 -->
<g id="edge10_Node000002_Node000011" class="edge">
<title>Node2&#45;&gt;Node11</title>
<g id="a_edge10_Node000002_Node000011"><a xlink:title=" ">
<path fill="none" stroke="#63b8ff" d="M898.51,-69.71C906.36,-68.42 914.37,-67.29 922,-66.5 1624.67,6.01 1808.79,-107.36 2511,-30.5 2513.91,-30.18 2516.88,-29.8 2519.88,-29.38"/>
<polygon fill="#63b8ff" stroke="#63b8ff" points="897.93,-66.26 888.68,-71.42 899.13,-73.15 897.93,-66.26"/>
</a>
</g>
</g>
<!-- Node12 -->
<g id="Node000012" class="node">
<title>Node12</title>
<g id="a_Node000012"><a xlink:href="_knob_config_dialog_8cpp.html" target="_top" xlink:title=" ">
<polygon fill="white" stroke="#666666" points="914.75,-24.88 747.25,-24.88 747.25,-5.63 914.75,-5.63 914.75,-24.88"/>
<text text-anchor="middle" x="831" y="-11.38" font-family="Helvetica,sans-Serif" font-size="10.00">src/screens/KnobConfigDialog.cpp</text>
</a>
</g>
</g>
<!-- Node2&#45;&gt;Node12 -->
<g id="edge11_Node000002_Node000012" class="edge">
<title>Node2&#45;&gt;Node12</title>
<g id="a_edge11_Node000002_Node000012"><a xlink:title=" ">
<path fill="none" stroke="#63b8ff" d="M840.64,-60.65C838.05,-48.75 834.91,-34.26 832.93,-25.14"/>
<polygon fill="#63b8ff" stroke="#63b8ff" points="837.19,-61.27 842.73,-70.3 844.03,-59.79 837.19,-61.27"/>
</a>
</g>
</g>
<!-- Node13 -->
<g id="Node000013" class="node">
<title>Node13</title>
<g id="a_Node000013"><a xlink:href="_shared_control_screen_utility_8cpp.html" target="_top" xlink:title="Provides layout helper utilities for constructing shared UI control screens.">
<polygon fill="white" stroke="#666666" points="2502.12,-30.5 2369.88,-30.5 2369.88,0 2502.12,0 2502.12,-30.5"/>
<text text-anchor="start" x="2377.88" y="-17" font-family="Helvetica,sans-Serif" font-size="10.00">src/screens/SharedControl</text>
<text text-anchor="middle" x="2436" y="-5.75" font-family="Helvetica,sans-Serif" font-size="10.00">ScreenUtility.cpp</text>
</a>
</g>
</g>
<!-- Node2&#45;&gt;Node13 -->
<g id="edge12_Node000002_Node000013" class="edge">
<title>Node2&#45;&gt;Node13</title>
<g id="a_edge12_Node000002_Node000013"><a xlink:title=" ">
<path fill="none" stroke="#63b8ff" d="M898.79,-69.68C906.55,-68.41 914.46,-67.29 922,-66.5 1558.3,-0.08 1724.86,-98.43 2361,-30.5 2363.77,-30.2 2366.59,-29.86 2369.43,-29.48"/>
<polygon fill="#63b8ff" stroke="#63b8ff" points="898.33,-66.21 889.08,-71.37 899.53,-73.1 898.33,-66.21"/>
</a>
</g>
</g>
<!-- Node14 -->
<g id="Node000014" class="node">
<title>Node14</title>
<g id="a_Node000014"><a xlink:href="_button_widget_8cpp.html" target="_top" xlink:title="Implements the ButtonWidget class, representing a physical button with LED indicators.">
<polygon fill="white" stroke="#666666" points="385.62,-24.88 238.38,-24.88 238.38,-5.63 385.62,-5.63 385.62,-24.88"/>
<text text-anchor="middle" x="312" y="-11.38" font-family="Helvetica,sans-Serif" font-size="10.00">src/widgets/ButtonWidget.cpp</text>
</a>
</g>
</g>
<!-- Node2&#45;&gt;Node14 -->
<g id="edge13_Node000002_Node000014" class="edge">
<title>Node2&#45;&gt;Node14</title>
<g id="a_edge13_Node000002_Node000014"><a xlink:title=" ">
<path fill="none" stroke="#63b8ff" d="M765.21,-73.35C674.93,-64.63 523.59,-48.96 394,-30.5 383.41,-28.99 372.1,-27.17 361.35,-25.33"/>
<polygon fill="#63b8ff" stroke="#63b8ff" points="764.66,-76.81 774.95,-74.28 765.33,-69.84 764.66,-76.81"/>
</a>
</g>
</g>
<!-- Node15 -->
<g id="Node000015" class="node">
<title>Node15</title>
<g id="a_Node000015"><a xlink:href="_encoder_attached_numeric_widget_8cpp.html" target="_top" xlink:title="UI widget displaying and controlling a numeric value using an encoder.">
<polygon fill="white" stroke="#666666" points="1077.12,-30.5 932.88,-30.5 932.88,0 1077.12,0 1077.12,-30.5"/>
<text text-anchor="start" x="940.88" y="-17" font-family="Helvetica,sans-Serif" font-size="10.00">src/widgets/EncoderAttached</text>
<text text-anchor="middle" x="1005" y="-5.75" font-family="Helvetica,sans-Serif" font-size="10.00">NumericWidget.cpp</text>
</a>
</g>
</g>
<!-- Node2&#45;&gt;Node15 -->
<g id="edge14_Node000002_Node000015" class="edge">
<title>Node2&#45;&gt;Node15</title>
<g id="a_edge14_Node000002_Node000015"><a xlink:title=" ">
<path fill="none" stroke="#63b8ff" d="M878.2,-67.37C904.59,-56.73 941.48,-41.86 968.66,-30.9"/>
<polygon fill="#63b8ff" stroke="#63b8ff" points="876.95,-64.09 868.99,-71.08 879.57,-70.59 876.95,-64.09"/>
</a>
</g>
</g>
<!-- Node16 -->
<g id="Node000016" class="node">
<title>Node16</title>
<g id="a_Node000016"><a xlink:href="_encoder_knob_widget_8cpp.html" target="_top" xlink:title="Implements a UI widget that visually represents the encoder knob and its pressed state.">
<polygon fill="white" stroke="#666666" points="580.62,-24.88 403.38,-24.88 403.38,-5.63 580.62,-5.63 580.62,-24.88"/>
<text text-anchor="middle" x="492" y="-11.38" font-family="Helvetica,sans-Serif" font-size="10.00">src/widgets/EncoderKnobWidget.cpp</text>
</a>
</g>
</g>
<!-- Node2&#45;&gt;Node16 -->
<g id="edge15_Node000002_Node000016" class="edge">
<title>Node2&#45;&gt;Node16</title>
<g id="a_edge15_Node000002_Node000016"><a xlink:title=" ">
<path fill="none" stroke="#63b8ff" d="M784.13,-69.63C715.59,-57.1 605.51,-36.99 541.86,-25.36"/>
<polygon fill="#63b8ff" stroke="#63b8ff" points="783.22,-73.02 793.68,-71.37 784.48,-66.13 783.22,-73.02"/>
</a>
</g>
</g>
<!-- Node17 -->
<g id="Node000017" class="node">
<title>Node17</title>
<g id="a_Node000017"><a xlink:href="_potentiometer_knob_widget_8cpp.html" target="_top" xlink:title="Implements the PotentiometerKnobWidget class, which visualizes a physical knob&#39;s current state.">
<polygon fill="white" stroke="#666666" points="729,-30.5 599,-30.5 599,0 729,0 729,-30.5"/>
<text text-anchor="start" x="607" y="-17" font-family="Helvetica,sans-Serif" font-size="10.00">src/widgets/Potentiometer</text>
<text text-anchor="middle" x="664" y="-5.75" font-family="Helvetica,sans-Serif" font-size="10.00">KnobWidget.cpp</text>
</a>
</g>
</g>
<!-- Node2&#45;&gt;Node17 -->
<g id="edge16_Node000002_Node000017" class="edge">
<title>Node2&#45;&gt;Node17</title>
<g id="a_edge16_Node000002_Node000017"><a xlink:title=" ">
<path fill="none" stroke="#63b8ff" d="M808.64,-67.79C778.7,-57.13 736.27,-42 705.11,-30.9"/>
<polygon fill="#63b8ff" stroke="#63b8ff" points="807.43,-71.08 818.03,-71.14 809.78,-64.48 807.43,-71.08"/>
</a>
</g>
</g>
<!-- Node18 -->
<g id="Node000018" class="node">
<title>Node18</title>
<g id="a_Node000018"><a xlink:href="_push_button_widget_8cpp.html" target="_top" xlink:title="Implements the PushButtonWidget class, which represents a UI button with encoder interaction support.">
<polygon fill="white" stroke="#666666" points="1264.88,-24.88 1095.12,-24.88 1095.12,-5.63 1264.88,-5.63 1264.88,-24.88"/>
<text text-anchor="middle" x="1180" y="-11.38" font-family="Helvetica,sans-Serif" font-size="10.00">src/widgets/PushButtonWidget.cpp</text>
</a>
</g>
</g>
<!-- Node2&#45;&gt;Node18 -->
<g id="edge17_Node000002_Node000018" class="edge">
<title>Node2&#45;&gt;Node18</title>
<g id="a_edge17_Node000002_Node000018"><a xlink:title=" ">
<path fill="none" stroke="#63b8ff" d="M903.58,-69.47C968.67,-56.94 1072.52,-36.94 1132.68,-25.36"/>
<polygon fill="#63b8ff" stroke="#63b8ff" points="902.93,-66.03 893.77,-71.36 904.25,-72.91 902.93,-66.03"/>
</a>
</g>
</g>
<!-- Node19 -->
<g id="Node000019" class="node">
<title>Node19</title>
<g id="a_Node000019"><a xlink:href="_text_input_widget_8cpp.html" target="_top" xlink:title="Implements the TextInputWidget class, allowing user&#45;editable text display with cursor navigation.">
<polygon fill="white" stroke="#666666" points="1442.62,-24.88 1283.38,-24.88 1283.38,-5.63 1442.62,-5.63 1442.62,-24.88"/>
<text text-anchor="middle" x="1363" y="-11.38" font-family="Helvetica,sans-Serif" font-size="10.00">src/widgets/TextInputWidget.cpp</text>
</a>
</g>
</g>
<!-- Node2&#45;&gt;Node19 -->
<g id="edge18_Node000002_Node000019" class="edge">
<title>Node2&#45;&gt;Node19</title>
<g id="a_edge18_Node000002_Node000019"><a xlink:title=" ">
<path fill="none" stroke="#63b8ff" d="M901.81,-69.7C908.6,-68.54 915.45,-67.44 922,-66.5 1077.67,-44.17 1118.07,-50.94 1274,-30.5 1285.48,-28.99 1297.76,-27.17 1309.42,-25.33"/>
<polygon fill="#63b8ff" stroke="#63b8ff" points="901.23,-66.25 891.99,-71.43 902.45,-73.14 901.23,-66.25"/>
</a>
</g>
</g>
<!-- Node20&#45;&gt;Node2 -->
<g id="edge20_Node000020_Node000002" class="edge">
<title>Node20&#45;&gt;Node2</title>
<g id="a_edge20_Node000020_Node000002"><a xlink:title=" ">
<path fill="none" stroke="#63b8ff" d="M1632.51,-140.74C1504.46,-138.22 1186.22,-129 922,-97 911.2,-95.69 899.63,-93.81 888.83,-91.84"/>
<polygon fill="#63b8ff" stroke="#63b8ff" points="1632.36,-144.23 1642.43,-140.92 1632.5,-137.24 1632.36,-144.23"/>
</a>
</g>
</g>
<!-- Node20&#45;&gt;Node3 -->
<g id="edge25_Node000020_Node000003" class="edge">
<title>Node20&#45;&gt;Node3</title>
<g id="a_edge25_Node000020_Node000003"><a xlink:title=" ">
<path fill="none" stroke="#63b8ff" d="M1632.44,-140.55C1426.48,-136.52 726.65,-121.35 504,-97 354.75,-80.68 179.95,-42.81 103.77,-25.36"/>
<polygon fill="#63b8ff" stroke="#63b8ff" points="1632.29,-144.05 1642.35,-140.74 1632.42,-137.05 1632.29,-144.05"/>
</a>
</g>
</g>
<!-- Node20&#45;&gt;Node4 -->
<g id="edge26_Node000020_Node000004" class="edge">
<title>Node20&#45;&gt;Node4</title>
<g id="a_edge26_Node000020_Node000004"><a xlink:title=" ">
<path fill="none" stroke="#63b8ff" d="M1742.74,-129.66C1786.42,-117.34 1837.51,-95.83 1812,-66.5 1774.16,-22.99 1611.48,-42.14 1555,-30.5 1548.03,-29.06 1540.62,-27.22 1533.64,-25.35"/>
<polygon fill="#63b8ff" stroke="#63b8ff" points="1742.06,-126.22 1733.31,-132.19 1743.88,-132.97 1742.06,-126.22"/>
</a>
</g>
</g>
<!-- Node20&#45;&gt;Node5 -->
<g id="edge27_Node000020_Node000005" class="edge">
<title>Node20&#45;&gt;Node5</title>
<g id="a_edge27_Node000020_Node000005"><a xlink:title=" ">
<path fill="none" stroke="#63b8ff" d="M1747.33,-135C1805.25,-125.97 1881.94,-106.16 1850,-66.5 1802.92,-8.04 1758.33,-46.54 1685,-30.5 1677.33,-28.82 1669.14,-27.03 1661.26,-25.3"/>
<polygon fill="#63b8ff" stroke="#63b8ff" points="1746.92,-131.52 1737.54,-136.44 1747.94,-138.45 1746.92,-131.52"/>
</a>
</g>
</g>
<!-- Node20&#45;&gt;Node6 -->
<g id="edge29_Node000020_Node000006" class="edge">
<title>Node20&#45;&gt;Node6</title>
<g id="a_edge29_Node000020_Node000006"><a xlink:title=" ">
<path fill="none" stroke="#63b8ff" d="M1632.3,-141.36C1436.53,-140.15 798.57,-133.44 597,-97 554.19,-89.26 546.42,-76.14 504,-66.5 383.8,-39.17 349.34,-57.21 229,-30.5 222.76,-29.11 216.14,-27.25 209.96,-25.33"/>
<polygon fill="#63b8ff" stroke="#63b8ff" points="1632.21,-144.86 1642.23,-141.42 1632.25,-137.86 1632.21,-144.86"/>
</a>
</g>
</g>
<!-- Node20&#45;&gt;Node7 -->
<g id="edge30_Node000020_Node000007" class="edge">
<title>Node20&#45;&gt;Node7</title>
<g id="a_edge30_Node000020_Node000007"><a xlink:title=" ">
<path fill="none" stroke="#63b8ff" d="M1747.34,-134.9C1793.53,-128.16 1853.15,-116.03 1868,-97 1893.19,-64.72 1832.87,-38.47 1793.25,-25.35"/>
<polygon fill="#63b8ff" stroke="#63b8ff" points="1747.13,-131.39 1737.72,-136.25 1748.1,-138.33 1747.13,-131.39"/>
</a>
</g>
</g>
<!-- Node20&#45;&gt;Node8 -->
<g id="edge31_Node000020_Node000008" class="edge">
<title>Node20&#45;&gt;Node8</title>
<g id="a_edge31_Node000020_Node000008"><a xlink:title=" ">
<path fill="none" stroke="#63b8ff" d="M1747.58,-140.61C1789.4,-137.18 1845.39,-126.72 1885,-97 1909.78,-78.41 1922.77,-41.95 1927.67,-25.14"/>
<polygon fill="#63b8ff" stroke="#63b8ff" points="1747.42,-137.11 1737.69,-141.3 1747.91,-144.09 1747.42,-137.11"/>
</a>
</g>
</g>
<!-- Node20&#45;&gt;Node9 -->
<g id="edge32_Node000020_Node000009" class="edge">
<title>Node20&#45;&gt;Node9</title>
<g id="a_edge32_Node000020_Node000009"><a xlink:title=" ">
<path fill="none" stroke="#63b8ff" d="M1747.41,-132.9C1792.63,-125.36 1856.99,-113.12 1912,-97 1982.52,-76.33 2062.71,-41.71 2099.13,-25.34"/>
<polygon fill="#63b8ff" stroke="#63b8ff" points="1746.85,-129.45 1737.55,-134.52 1747.99,-136.35 1746.85,-129.45"/>
</a>
</g>
</g>
<!-- Node20&#45;&gt;Node10 -->
<g id="edge33_Node000020_Node000010" class="edge">
<title>Node20&#45;&gt;Node10</title>
<g id="a_edge33_Node000020_Node000010"><a xlink:title=" ">
<path fill="none" stroke="#63b8ff" d="M1747.36,-133.97C1803.96,-126.05 1892.81,-112.67 1969,-97 2075.35,-75.12 2199.6,-41.39 2256.97,-25.34"/>
<polygon fill="#63b8ff" stroke="#63b8ff" points="1747.06,-130.47 1737.64,-135.31 1748.03,-137.41 1747.06,-130.47"/>
</a>
</g>
</g>
<!-- Node20&#45;&gt;Node11 -->
<g id="edge35_Node000020_Node000011" class="edge">
<title>Node20&#45;&gt;Node11</title>
<g id="a_edge35_Node000020_Node000011"><a xlink:title=" ">
<path fill="none" stroke="#63b8ff" d="M1747.18,-135.27C1881.12,-120.08 2225.48,-79.27 2511,-30.5 2513.89,-30.01 2516.84,-29.49 2519.82,-28.95"/>
<polygon fill="#63b8ff" stroke="#63b8ff" points="1747.06,-131.76 1737.51,-136.36 1747.84,-138.71 1747.06,-131.76"/>
</a>
</g>
</g>
<!-- Node20&#45;&gt;Node14 -->
<g id="edge38_Node000020_Node000014" class="edge">
<title>Node20&#45;&gt;Node14</title>
<g id="a_edge38_Node000020_Node000014"><a xlink:title=" ">
<path fill="none" stroke="#63b8ff" d="M1632.47,-142.05C1444.37,-142.97 849.01,-142.16 663,-97 631.6,-89.38 627.84,-76.16 597,-66.5 594.22,-65.63 445.43,-39.57 363.98,-25.33"/>
<polygon fill="#63b8ff" stroke="#63b8ff" points="1632.25,-145.55 1642.23,-142 1632.21,-138.55 1632.25,-145.55"/>
</a>
</g>
</g>
<!-- Node20&#45;&gt;Node16 -->
<g id="edge39_Node000020_Node000016" class="edge">
<title>Node20&#45;&gt;Node16</title>
<g id="a_edge39_Node000020_Node000016"><a xlink:title=" ">
<path fill="none" stroke="#63b8ff" d="M1632.35,-140.6C1436.32,-136.89 802.72,-122.99 715,-97 689.31,-89.39 687.59,-77.13 663,-66.5 620.11,-47.96 568.33,-33.8 533.06,-25.32"/>
<polygon fill="#63b8ff" stroke="#63b8ff" points="1632.23,-144.1 1642.3,-140.79 1632.37,-137.1 1632.23,-144.1"/>
</a>
</g>
</g>
<!-- Node20&#45;&gt;Node17 -->
<g id="edge41_Node000020_Node000017" class="edge">
<title>Node20&#45;&gt;Node17</title>
<g id="a_edge41_Node000020_Node000017"><a xlink:title=" ">
<path fill="none" stroke="#63b8ff" d="M1632.52,-140.85C1443.51,-138.03 848.74,-126.87 768,-97 730.27,-83.04 695.26,-50.11 677.07,-30.89"/>
<polygon fill="#63b8ff" stroke="#63b8ff" points="1632.28,-144.35 1642.33,-141 1632.39,-137.35 1632.28,-144.35"/>
</a>
</g>
</g>
<!-- Node20&#45;&gt;Node19 -->
<g id="edge43_Node000020_Node000019" class="edge">
<title>Node20&#45;&gt;Node19</title>
<g id="a_edge43_Node000020_Node000019"><a xlink:title=" ">
<path fill="none" stroke="#63b8ff" d="M1738.78,-128.48C1754.37,-121.72 1769.93,-111.7 1779,-97 1786.12,-85.46 1788.05,-76.59 1779,-66.5 1730.06,-11.9 1523.66,-40.36 1451,-30.5 1439.8,-28.98 1427.84,-27.17 1416.45,-25.35"/>
<polygon fill="#63b8ff" stroke="#63b8ff" points="1737.52,-125.22 1729.47,-132.11 1740.06,-131.74 1737.52,-125.22"/>
</a>
</g>
</g>
<!-- Node21 -->
<g id="Node000021" class="node">
<title>Node21</title>
<g id="a_Node000021"><a xlink:href="_shared_control_screen_utility_8h.html" target="_top" xlink:title="Provides utility functions for initializing common screen layouts.">
<polygon fill="white" stroke="#666666" points="2496.75,-97 2347.25,-97 2347.25,-66.5 2496.75,-66.5 2496.75,-97"/>
<text text-anchor="start" x="2355.25" y="-83.5" font-family="Helvetica,sans-Serif" font-size="10.00">include/screens/SharedControl</text>
<text text-anchor="middle" x="2422" y="-72.25" font-family="Helvetica,sans-Serif" font-size="10.00">ScreenUtility.h</text>
</a>
</g>
</g>
<!-- Node20&#45;&gt;Node21 -->
<g id="edge21_Node000020_Node000021" class="edge">
<title>Node20&#45;&gt;Node21</title>
<g id="a_edge21_Node000020_Node000021"><a xlink:title=" ">
<path fill="none" stroke="#63b8ff" d="M1747.41,-138.43C1856.43,-132.14 2100.84,-117.02 2306,-97 2319.23,-95.71 2333.28,-94.15 2346.87,-92.53"/>
<polygon fill="#63b8ff" stroke="#63b8ff" points="1747.34,-134.92 1737.56,-138.99 1747.74,-141.91 1747.34,-134.92"/>
</a>
</g>
</g>
<!-- Node22 -->
<g id="Node000022" class="node">
<title>Node22</title>
<g id="a_Node000022"><a xlink:href="_config_screen_8cpp.html" target="_top" xlink:title="Implements the configuration screen for knob mapping and diagnostics.">
<polygon fill="white" stroke="#666666" points="2812,-24.88 2664,-24.88 2664,-5.63 2812,-5.63 2812,-24.88"/>
<text text-anchor="middle" x="2738" y="-11.38" font-family="Helvetica,sans-Serif" font-size="10.00">src/screens/ConfigScreen.cpp</text>
</a>
</g>
</g>
<!-- Node20&#45;&gt;Node22 -->
<g id="edge34_Node000020_Node000022" class="edge">
<title>Node20&#45;&gt;Node22</title>
<g id="a_edge34_Node000020_Node000022"><a xlink:title=" ">
<path fill="none" stroke="#63b8ff" d="M1747.8,-140.51C1922.24,-136.84 2435.77,-123.88 2506,-97 2526.23,-89.26 2524.64,-76.21 2544,-66.5 2570.12,-53.4 2645.51,-35.85 2694.25,-25.34"/>
<polygon fill="#63b8ff" stroke="#63b8ff" points="1747.76,-137.01 1737.83,-140.71 1747.9,-144 1747.76,-137.01"/>
</a>
</g>
</g>
<!-- Node20&#45;&gt;Node23 -->
<g id="edge28_Node000020_Node000023" class="edge">
<title>Node20&#45;&gt;Node23</title>
<g id="a_edge28_Node000020_Node000023"><a xlink:title=" ">
<path fill="none" stroke="#63b8ff" d="M1747.58,-139.65C1912.6,-133.84 2385.21,-115.96 2539,-97 2549.38,-95.72 2560.5,-93.82 2570.85,-91.83"/>
<polygon fill="#63b8ff" stroke="#63b8ff" points="1747.62,-136.15 1737.75,-140 1747.87,-143.15 1747.62,-136.15"/>
</a>
</g>
</g>
<!-- Node24 -->
<g id="Node000024" class="node">
<title>Node24</title>
<g id="a_Node000024"><a xlink:href="_direct_command_screen_8cpp.html" target="_top" xlink:title="Implements a screen for sending raw parameter/value commands to the synthesizer.">
<polygon fill="white" stroke="#666666" points="1072.62,-97 931.38,-97 931.38,-66.5 1072.62,-66.5 1072.62,-97"/>
<text text-anchor="start" x="939.38" y="-83.5" font-family="Helvetica,sans-Serif" font-size="10.00">src/screens/DirectCommand</text>
<text text-anchor="middle" x="1002" y="-72.25" font-family="Helvetica,sans-Serif" font-size="10.00">Screen.cpp</text>
</a>
</g>
</g>
<!-- Node20&#45;&gt;Node24 -->
<g id="edge36_Node000020_Node000024" class="edge">
<title>Node20&#45;&gt;Node24</title>
<g id="a_edge36_Node000020_Node000024"><a xlink:title=" ">
<path fill="none" stroke="#63b8ff" d="M1632.71,-139.44C1524.54,-134.87 1282.94,-122.54 1081,-97 1078.37,-96.67 1075.7,-96.31 1073,-95.92"/>
<polygon fill="#63b8ff" stroke="#63b8ff" points="1632.35,-142.93 1642.49,-139.85 1632.64,-135.94 1632.35,-142.93"/>
</a>
</g>
</g>
<!-- Node25 -->
<g id="Node000025" class="node">
<title>Node25</title>
<g id="a_Node000025"><a xlink:href="_run_mode_screen_8cpp.html" target="_top" xlink:title="Implements the screen for displaying and managing widgets during normal controller operation.">
<polygon fill="white" stroke="#666666" points="1251.75,-91.38 1090.25,-91.38 1090.25,-72.12 1251.75,-72.12 1251.75,-91.38"/>
<text text-anchor="middle" x="1171" y="-77.88" font-family="Helvetica,sans-Serif" font-size="10.00">src/screens/RunModeScreen.cpp</text>
</a>
</g>
</g>
<!-- Node20&#45;&gt;Node25 -->
<g id="edge37_Node000020_Node000025" class="edge">
<title>Node20&#45;&gt;Node25</title>
<g id="a_edge37_Node000020_Node000025"><a xlink:title=" ">
<path fill="none" stroke="#63b8ff" d="M1632.37,-136.67C1549.75,-129.32 1392.94,-114.53 1260,-97 1248.52,-95.49 1236.24,-93.66 1224.58,-91.82"/>
<polygon fill="#63b8ff" stroke="#63b8ff" points="1631.99,-140.15 1642.26,-137.54 1632.61,-133.17 1631.99,-140.15"/>
</a>
</g>
</g>
<!-- Node26 -->
<g id="Node000026" class="node">
<title>Node26</title>
<g id="a_Node000026"><a xlink:href="_knob_widget_8cpp.html" target="_top" xlink:title="Defines the base class for knob&#45;based widgets, providing shared bezel drawing behavior.">
<polygon fill="white" stroke="#666666" points="1410.62,-91.38 1269.38,-91.38 1269.38,-72.12 1410.62,-72.12 1410.62,-91.38"/>
<text text-anchor="middle" x="1340" y="-77.88" font-family="Helvetica,sans-Serif" font-size="10.00">src/widgets/KnobWidget.cpp</text>
</a>
</g>
</g>
<!-- Node20&#45;&gt;Node26 -->
<g id="edge40_Node000020_Node000026" class="edge">
<title>Node20&#45;&gt;Node26</title>
<g id="a_edge40_Node000020_Node000026"><a xlink:title=" ">
<path fill="none" stroke="#63b8ff" d="M1632.69,-132.45C1577.81,-123.6 1492.7,-109.71 1419,-97 1409.52,-95.37 1399.42,-93.58 1389.71,-91.84"/>
<polygon fill="#63b8ff" stroke="#63b8ff" points="1632.01,-135.88 1642.44,-134.02 1633.12,-128.97 1632.01,-135.88"/>
</a>
</g>
</g>
<!-- Node27 -->
<g id="Node000027" class="node">
<title>Node27</title>
<g id="a_Node000027"><a xlink:href="_rectangle_widget_8cpp.html" target="_top" xlink:title="Implements the RectangleWidget class for drawing rectangular shapes with optional fill and highlight ...">
<polygon fill="white" stroke="#666666" points="1591.5,-91.38 1428.5,-91.38 1428.5,-72.12 1591.5,-72.12 1591.5,-91.38"/>
<text text-anchor="middle" x="1510" y="-77.88" font-family="Helvetica,sans-Serif" font-size="10.00">src/widgets/RectangleWidget.cpp</text>
</a>
</g>
</g>
<!-- Node20&#45;&gt;Node27 -->
<g id="edge42_Node000020_Node000027" class="edge">
<title>Node20&#45;&gt;Node27</title>
<g id="a_edge42_Node000020_Node000027"><a xlink:title=" ">
<path fill="none" stroke="#63b8ff" d="M1651.74,-129.11C1617.56,-117.93 1568.3,-101.82 1537.76,-91.83"/>
<polygon fill="#63b8ff" stroke="#63b8ff" points="1650.24,-132.3 1660.83,-132.08 1652.41,-125.65 1650.24,-132.3"/>
</a>
</g>
</g>
<!-- Node28 -->
<g id="Node000028" class="node">
<title>Node28</title>
<g id="a_Node000028"><a xlink:href="_text_label_widget_8cpp.html" target="_top" xlink:title="Implements the TextLabelWidget class for displaying static text labels in the UI.">
<polygon fill="white" stroke="#666666" points="1770.38,-91.38 1609.62,-91.38 1609.62,-72.12 1770.38,-72.12 1770.38,-91.38"/>
<text text-anchor="middle" x="1690" y="-77.88" font-family="Helvetica,sans-Serif" font-size="10.00">src/widgets/TextLabelWidget.cpp</text>
</a>
</g>
</g>
<!-- Node20&#45;&gt;Node28 -->
<g id="edge44_Node000020_Node000028" class="edge">
<title>Node20&#45;&gt;Node28</title>
<g id="a_edge44_Node000020_Node000028"><a xlink:title=" ">
<path fill="none" stroke="#63b8ff" d="M1690,-121.2C1690,-111.17 1690,-99.58 1690,-91.78"/>
<polygon fill="#63b8ff" stroke="#63b8ff" points="1686.5,-121.17 1690,-131.17 1693.5,-121.17 1686.5,-121.17"/>
</a>
</g>
</g>
<!-- Node21&#45;&gt;Node11 -->
<g id="edge23_Node000021_Node000011" class="edge">
<title>Node21&#45;&gt;Node11</title>
<g id="a_edge23_Node000021_Node000011"><a xlink:title=" ">
<path fill="none" stroke="#63b8ff" d="M2469.1,-61.88C2493.73,-52.01 2523.43,-40.11 2546.33,-30.94"/>
<polygon fill="#63b8ff" stroke="#63b8ff" points="2467.92,-58.58 2459.94,-65.55 2470.52,-65.08 2467.92,-58.58"/>
</a>
</g>
</g>
<!-- Node21&#45;&gt;Node13 -->
<g id="edge24_Node000021_Node000013" class="edge">
<title>Node21&#45;&gt;Node13</title>
<g id="a_edge24_Node000021_Node000013"><a xlink:title=" ">
<path fill="none" stroke="#63b8ff" d="M2427.57,-55.09C2429.36,-46.84 2431.28,-37.99 2432.84,-30.83"/>
<polygon fill="#63b8ff" stroke="#63b8ff" points="2424.2,-54.12 2425.5,-64.63 2431.04,-55.6 2424.2,-54.12"/>
</a>
</g>
</g>
<!-- Node21&#45;&gt;Node22 -->
<g id="edge22_Node000021_Node000022" class="edge">
<title>Node21&#45;&gt;Node22</title>
<g id="a_edge22_Node000021_Node000022"><a xlink:title=" ">
<path fill="none" stroke="#63b8ff" d="M2505.14,-63.78C2565.48,-51.46 2644.76,-35.28 2693.51,-25.33"/>
<polygon fill="#63b8ff" stroke="#63b8ff" points="2504.68,-60.3 2495.58,-65.73 2506.08,-67.16 2504.68,-60.3"/>
</a>
</g>
</g>
</g>
</svg>
