<?xml version="1.0" encoding="UTF-8" standalone="no"?>
<!DOCTYPE svg PUBLIC "-//W3C//DTD SVG 1.1//EN"
 "http://www.w3.org/Graphics/SVG/1.1/DTD/svg11.dtd">
<!-- Generated by graphviz version 12.2.1 (20241206.2353)
 -->
<!-- Title: Graphical Class Hierarchy Pages: 1 -->
<svg width="415pt" height="249pt"
 viewBox="0.00 0.00 415.25 249.25" xmlns="http://www.w3.org/2000/svg" xmlns:xlink="http://www.w3.org/1999/xlink">
<g id="graph0" class="graph" transform="scale(1 1) rotate(0) translate(4 245.25)">
<title>Graphical Class Hierarchy</title>
<!-- Node0 -->
<g id="Node000000" class="node">
<title>Node0</title>
<g id="a_Node000000"><a xlink:href="class_widget.html" target="_top" xlink:title="Base class for all on&#45;screen widgets.">
<polygon fill="white" stroke="#666666" points="46.75,-130.25 0,-130.25 0,-111 46.75,-111 46.75,-130.25"/>
<text text-anchor="middle" x="23.38" y="-116.75" font-family="Helvetica,sans-Serif" font-size="10.00">Widget</text>
</a>
</g>
</g>
<!-- Node1 -->
<g id="Node000001" class="node">
<title>Node1</title>
<g id="a_Node000001"><a xlink:href="class_button_widget.html" target="_top" xlink:title="A UI element that represents a hardware button and its LED status.">
<polygon fill="white" stroke="#666666" points="199.62,-241.25 124.38,-241.25 124.38,-222 199.62,-222 199.62,-241.25"/>
<text text-anchor="middle" x="162" y="-227.75" font-family="Helvetica,sans-Serif" font-size="10.00">ButtonWidget</text>
</a>
</g>
</g>
<!-- Node0&#45;&gt;Node1 -->
<g id="edge12_Node000000_Node000001" class="edge">
<title>Node0&#45;&gt;Node1</title>
<g id="a_edge12_Node000000_Node000001"><a xlink:title=" ">
<path fill="none" stroke="#63b8ff" d="M31.75,-141.13C40.54,-162.56 57.32,-195.54 82.75,-213.62 94.68,-222.11 109.99,-226.66 123.89,-229.08"/>
<polygon fill="#63b8ff" stroke="#63b8ff" points="35.09,-140.06 28.23,-131.99 28.56,-142.58 35.09,-140.06"/>
</a>
</g>
</g>
<!-- Node2 -->
<g id="Node000002" class="node">
<title>Node2</title>
<g id="a_Node000002"><a xlink:href="class_encoder_attached_numeric_widget.html" target="_top" xlink:title="Numeric display widget controlled by rotary encoder input.">
<polygon fill="white" stroke="#666666" points="241.25,-204.25 82.75,-204.25 82.75,-185 241.25,-185 241.25,-204.25"/>
<text text-anchor="middle" x="162" y="-190.75" font-family="Helvetica,sans-Serif" font-size="10.00">EncoderAttachedNumericWidget</text>
</a>
</g>
</g>
<!-- Node0&#45;&gt;Node2 -->
<g id="edge13_Node000000_Node000002" class="edge">
<title>Node0&#45;&gt;Node2</title>
<g id="a_edge13_Node000000_Node000002"><a xlink:title=" ">
<path fill="none" stroke="#63b8ff" d="M39.13,-139.3C49.92,-151.71 65.62,-167.37 82.75,-176.62 88.64,-179.81 95.07,-182.43 101.63,-184.59"/>
<polygon fill="#63b8ff" stroke="#63b8ff" points="41.94,-137.22 32.86,-131.77 36.56,-141.69 41.94,-137.22"/>
</a>
</g>
</g>
<!-- Node3 -->
<g id="Node000003" class="node">
<title>Node3</title>
<g id="a_Node000003"><a xlink:href="class_knob_widget.html" target="_top" xlink:title="Shared base class for rotary&#45;style knob widgets.">
<polygon fill="white" stroke="#666666" points="196.62,-167.25 127.38,-167.25 127.38,-148 196.62,-148 196.62,-167.25"/>
<text text-anchor="middle" x="162" y="-153.75" font-family="Helvetica,sans-Serif" font-size="10.00">KnobWidget</text>
</a>
</g>
</g>
<!-- Node0&#45;&gt;Node3 -->
<g id="edge14_Node000000_Node000003" class="edge">
<title>Node0&#45;&gt;Node3</title>
<g id="a_edge14_Node000000_Node000003"><a xlink:title=" ">
<path fill="none" stroke="#63b8ff" d="M58.13,-132.17C66.15,-134.76 74.72,-137.4 82.75,-139.62 97.12,-143.61 113.15,-147.41 126.94,-150.48"/>
<polygon fill="#63b8ff" stroke="#63b8ff" points="59.28,-128.87 48.68,-129.06 57.09,-135.51 59.28,-128.87"/>
</a>
</g>
</g>
<!-- Node6 -->
<g id="Node000006" class="node">
<title>Node6</title>
<g id="a_Node000006"><a xlink:href="class_push_button_widget.html" target="_top" xlink:title="On&#45;screen momentary button with press state and optional encoder focus (like an OK or Cancel button).">
<polygon fill="white" stroke="#666666" points="210.88,-130.25 113.12,-130.25 113.12,-111 210.88,-111 210.88,-130.25"/>
<text text-anchor="middle" x="162" y="-116.75" font-family="Helvetica,sans-Serif" font-size="10.00">PushButtonWidget</text>
</a>
</g>
</g>
<!-- Node0&#45;&gt;Node6 -->
<g id="edge17_Node000000_Node000006" class="edge">
<title>Node0&#45;&gt;Node6</title>
<g id="a_edge17_Node000000_Node000006"><a xlink:title=" ">
<path fill="none" stroke="#63b8ff" d="M58.49,-120.62C74.91,-120.62 94.88,-120.62 112.81,-120.62"/>
<polygon fill="#63b8ff" stroke="#63b8ff" points="58.76,-117.13 48.76,-120.63 58.76,-124.13 58.76,-117.13"/>
</a>
</g>
</g>
<!-- Node7 -->
<g id="Node000007" class="node">
<title>Node7</title>
<g id="a_Node000007"><a xlink:href="class_rectangle_widget.html" target="_top" xlink:title="Renders a static rectangle on the OLED screen.">
<polygon fill="white" stroke="#666666" points="207.5,-93.25 116.5,-93.25 116.5,-74 207.5,-74 207.5,-93.25"/>
<text text-anchor="middle" x="162" y="-79.75" font-family="Helvetica,sans-Serif" font-size="10.00">RectangleWidget</text>
</a>
</g>
</g>
<!-- Node0&#45;&gt;Node7 -->
<g id="edge18_Node000000_Node000007" class="edge">
<title>Node0&#45;&gt;Node7</title>
<g id="a_edge18_Node000000_Node000007"><a xlink:title=" ">
<path fill="none" stroke="#63b8ff" d="M58.13,-109.08C66.15,-106.49 74.72,-103.85 82.75,-101.62 93.5,-98.65 105.17,-95.77 116.14,-93.23"/>
<polygon fill="#63b8ff" stroke="#63b8ff" points="57.09,-105.74 48.68,-112.19 59.28,-112.38 57.09,-105.74"/>
</a>
</g>
</g>
<!-- Node8 -->
<g id="Node000008" class="node">
<title>Node8</title>
<g id="a_Node000008"><a xlink:href="class_text_input_widget.html" target="_top" xlink:title="Widget that displays and allows editing of a fixed&#45;length text string.">
<polygon fill="white" stroke="#666666" points="205.62,-56.25 118.38,-56.25 118.38,-37 205.62,-37 205.62,-56.25"/>
<text text-anchor="middle" x="162" y="-42.75" font-family="Helvetica,sans-Serif" font-size="10.00">TextInputWidget</text>
</a>
</g>
</g>
<!-- Node0&#45;&gt;Node8 -->
<g id="edge19_Node000000_Node000008" class="edge">
<title>Node0&#45;&gt;Node8</title>
<g id="a_edge19_Node000000_Node000008"><a xlink:title=" ">
<path fill="none" stroke="#63b8ff" d="M39.13,-101.95C49.92,-89.54 65.62,-73.88 82.75,-64.62 93.54,-58.79 106.16,-54.84 118.08,-52.17"/>
<polygon fill="#63b8ff" stroke="#63b8ff" points="36.56,-99.56 32.86,-109.48 41.94,-104.03 36.56,-99.56"/>
</a>
</g>
</g>
<!-- Node9 -->
<g id="Node000009" class="node">
<title>Node9</title>
<g id="a_Node000009"><a xlink:href="class_text_label_widget.html" target="_top" xlink:title="Widget for displaying text labels with optional font size and style.">
<polygon fill="white" stroke="#666666" points="206.38,-19.25 117.62,-19.25 117.62,0 206.38,0 206.38,-19.25"/>
<text text-anchor="middle" x="162" y="-5.75" font-family="Helvetica,sans-Serif" font-size="10.00">TextLabelWidget</text>
</a>
</g>
</g>
<!-- Node0&#45;&gt;Node9 -->
<g id="edge20_Node000000_Node000009" class="edge">
<title>Node0&#45;&gt;Node9</title>
<g id="a_edge20_Node000000_Node000009"><a xlink:title=" ">
<path fill="none" stroke="#63b8ff" d="M31.75,-100.12C40.54,-78.69 57.32,-45.71 82.75,-27.62 92.86,-20.43 105.4,-16.07 117.45,-13.43"/>
<polygon fill="#63b8ff" stroke="#63b8ff" points="28.56,-98.67 28.23,-109.26 35.09,-101.19 28.56,-98.67"/>
</a>
</g>
</g>
<!-- Node4 -->
<g id="Node000004" class="node">
<title>Node4</title>
<g id="a_Node000004"><a xlink:href="class_encoder_knob_widget.html" target="_top" xlink:title="A knob&#45;style widget driven by encoder input rather than analog voltage.">
<polygon fill="white" stroke="#666666" points="394.88,-185.25 289.62,-185.25 289.62,-166 394.88,-166 394.88,-185.25"/>
<text text-anchor="middle" x="342.25" y="-171.75" font-family="Helvetica,sans-Serif" font-size="10.00">EncoderKnobWidget</text>
</a>
</g>
</g>
<!-- Node3&#45;&gt;Node4 -->
<g id="edge15_Node000003_Node000004" class="edge">
<title>Node3&#45;&gt;Node4</title>
<g id="a_edge15_Node000003_Node000004"><a xlink:title=" ">
<path fill="none" stroke="#63b8ff" d="M208.17,-162.19C232.85,-164.68 263.51,-167.77 289.19,-170.37"/>
<polygon fill="#63b8ff" stroke="#63b8ff" points="208.75,-158.73 198.45,-161.21 208.05,-165.69 208.75,-158.73"/>
</a>
</g>
</g>
<!-- Node5 -->
<g id="Node000005" class="node">
<title>Node5</title>
<g id="a_Node000005"><a xlink:href="class_potentiometer_knob_widget.html" target="_top" xlink:title="Widget for displaying and interacting with a hardware potentiometer.">
<polygon fill="white" stroke="#666666" points="407.25,-148.25 277.25,-148.25 277.25,-129 407.25,-129 407.25,-148.25"/>
<text text-anchor="middle" x="342.25" y="-134.75" font-family="Helvetica,sans-Serif" font-size="10.00">PotentiometerKnobWidget</text>
</a>
</g>
</g>
<!-- Node3&#45;&gt;Node5 -->
<g id="edge16_Node000003_Node000005" class="edge">
<title>Node3&#45;&gt;Node5</title>
<g id="a_edge16_Node000003_Node000005"><a xlink:title=" ">
<path fill="none" stroke="#63b8ff" d="M208.32,-152.79C229.09,-150.58 254.08,-147.92 276.75,-145.5"/>
<polygon fill="#63b8ff" stroke="#63b8ff" points="208.02,-149.31 198.45,-153.85 208.77,-156.27 208.02,-149.31"/>
</a>
</g>
</g>
</g>
</svg>
