<?xml version="1.0" encoding="UTF-8" standalone="no"?>
<!DOCTYPE svg PUBLIC "-//W3C//DTD SVG 1.1//EN"
 "http://www.w3.org/Graphics/SVG/1.1/DTD/svg11.dtd">
<!-- Generated by graphviz version 12.2.1 (20241206.2353)
 -->
<!-- Title: Graphical Class Hierarchy Pages: 1 -->
<svg width="340pt" height="212pt"
 viewBox="0.00 0.00 339.50 212.25" xmlns="http://www.w3.org/2000/svg" xmlns:xlink="http://www.w3.org/1999/xlink">
<g id="graph0" class="graph" transform="scale(1 1) rotate(0) translate(4 208.25)">
<title>Graphical Class Hierarchy</title>
<!-- Node0 -->
<g id="Node000000" class="node">
<title>Node0</title>
<g id="a_Node000000"><a xlink:href="class_i_widget_nav_handler.html" target="_top" xlink:title="Interface for responding to widget navigation events.">
<polygon fill="white" stroke="#666666" points="192.5,-204.25 91,-204.25 91,-185 192.5,-185 192.5,-204.25"/>
<text text-anchor="middle" x="141.75" y="-190.75" font-family="Helvetica,sans-Serif" font-size="10.00">IWidgetNavHandler</text>
</a>
</g>
</g>
<!-- Node1 -->
<g id="Node000001" class="node">
<title>Node1</title>
<g id="a_Node000001"><a xlink:href="class_knob_config_dialog.html" target="_top" xlink:title="Modal dialog for configuring a knob’s control parameters.">
<polygon fill="white" stroke="#666666" points="331.5,-130.25 236.75,-130.25 236.75,-111 331.5,-111 331.5,-130.25"/>
<text text-anchor="middle" x="284.12" y="-116.75" font-family="Helvetica,sans-Serif" font-size="10.00">KnobConfigDialog</text>
</a>
</g>
</g>
<!-- Node0&#45;&gt;Node1 -->
<g id="edge5_Node000000_Node000001" class="edge">
<title>Node0&#45;&gt;Node1</title>
<g id="a_edge5_Node000000_Node000001"><a xlink:title=" ">
<path fill="none" stroke="#63b8ff" d="M191.6,-180.63C194.74,-179.38 197.81,-178.04 200.75,-176.62 227.55,-163.71 255.52,-142.87 270.99,-130.59"/>
<polygon fill="#63b8ff" stroke="#63b8ff" points="190.42,-177.34 182.23,-184.07 192.83,-183.91 190.42,-177.34"/>
</a>
</g>
</g>
<!-- Node3 -->
<g id="Node000003" class="node">
<title>Node3</title>
<g id="a_Node000003"><a xlink:href="class_screen.html" target="_top" xlink:title="Base class for user interface screens.">
<polygon fill="white" stroke="#666666" points="46.75,-93.25 0,-93.25 0,-74 46.75,-74 46.75,-93.25"/>
<text text-anchor="middle" x="23.38" y="-79.75" font-family="Helvetica,sans-Serif" font-size="10.00">Screen</text>
</a>
</g>
</g>
<!-- Node4 -->
<g id="Node000004" class="node">
<title>Node4</title>
<g id="a_Node000004"><a xlink:href="class_config_screen.html" target="_top" xlink:title="User interface screen for updating device configuration settings.">
<polygon fill="white" stroke="#666666" points="179.38,-167.25 104.12,-167.25 104.12,-148 179.38,-148 179.38,-167.25"/>
<text text-anchor="middle" x="141.75" y="-153.75" font-family="Helvetica,sans-Serif" font-size="10.00">ConfigScreen</text>
</a>
</g>
</g>
<!-- Node3&#45;&gt;Node4 -->
<g id="edge6_Node000003_Node000004" class="edge">
<title>Node3&#45;&gt;Node4</title>
<g id="a_edge6_Node000003_Node000004"><a xlink:title=" ">
<path fill="none" stroke="#63b8ff" d="M39.35,-101.9C50.25,-114.13 65.98,-129.73 82.75,-139.62 89.2,-143.43 96.53,-146.5 103.76,-148.97"/>
<polygon fill="#63b8ff" stroke="#63b8ff" points="42.18,-99.82 33.01,-94.51 36.87,-104.38 42.18,-99.82"/>
</a>
</g>
</g>
<!-- Node5 -->
<g id="Node000005" class="node">
<title>Node5</title>
<g id="a_Node000005"><a xlink:href="class_controls_test_screen.html" target="_top" xlink:title="Debug or test screen for monitoring live control states.">
<polygon fill="white" stroke="#666666" points="192.88,-130.25 90.62,-130.25 90.62,-111 192.88,-111 192.88,-130.25"/>
<text text-anchor="middle" x="141.75" y="-116.75" font-family="Helvetica,sans-Serif" font-size="10.00">ControlsTestScreen</text>
</a>
</g>
</g>
<!-- Node3&#45;&gt;Node5 -->
<g id="edge7_Node000003_Node000005" class="edge">
<title>Node3&#45;&gt;Node5</title>
<g id="a_edge7_Node000003_Node000005"><a xlink:title=" ">
<path fill="none" stroke="#63b8ff" d="M57.77,-94.58C65.93,-97.24 74.65,-100.05 82.75,-102.62 90.89,-105.21 99.68,-107.96 107.9,-110.52"/>
<polygon fill="#63b8ff" stroke="#63b8ff" points="59.12,-91.34 48.52,-91.57 56.94,-97.99 59.12,-91.34"/>
</a>
</g>
</g>
<!-- Node6 -->
<g id="Node000006" class="node">
<title>Node6</title>
<g id="a_Node000006"><a xlink:href="class_direct_command_screen.html" target="_top" xlink:title="UI screen for direct entry and sending of PG&#45;800&#45;style commands.">
<polygon fill="white" stroke="#666666" points="200.75,-93.25 82.75,-93.25 82.75,-74 200.75,-74 200.75,-93.25"/>
<text text-anchor="middle" x="141.75" y="-79.75" font-family="Helvetica,sans-Serif" font-size="10.00">DirectCommandScreen</text>
</a>
</g>
</g>
<!-- Node3&#45;&gt;Node6 -->
<g id="edge8_Node000003_Node000006" class="edge">
<title>Node3&#45;&gt;Node6</title>
<g id="a_edge8_Node000003_Node000006"><a xlink:title=" ">
<path fill="none" stroke="#63b8ff" d="M58.6,-83.62C66.09,-83.62 74.22,-83.62 82.35,-83.62"/>
<polygon fill="#63b8ff" stroke="#63b8ff" points="58.6,-80.13 48.6,-83.63 58.6,-87.13 58.6,-80.13"/>
</a>
</g>
</g>
<!-- Node2 -->
<g id="Node000002" class="node">
<title>Node2</title>
<g id="a_Node000002"><a xlink:href="class_modal_dialog.html" target="_top" xlink:title="Base class for modal overlays requiring user dismissal or confirmation.">
<polygon fill="white" stroke="#666666" points="176.75,-56.25 106.75,-56.25 106.75,-37 176.75,-37 176.75,-56.25"/>
<text text-anchor="middle" x="141.75" y="-42.75" font-family="Helvetica,sans-Serif" font-size="10.00">ModalDialog</text>
</a>
</g>
</g>
<!-- Node3&#45;&gt;Node2 -->
<g id="edge9_Node000003_Node000002" class="edge">
<title>Node3&#45;&gt;Node2</title>
<g id="a_edge9_Node000003_Node000002"><a xlink:title=" ">
<path fill="none" stroke="#63b8ff" d="M57.77,-72.67C65.93,-70.01 74.65,-67.2 82.75,-64.62 90.89,-62.04 99.68,-59.29 107.9,-56.73"/>
<polygon fill="#63b8ff" stroke="#63b8ff" points="56.94,-69.26 48.52,-75.68 59.12,-75.91 56.94,-69.26"/>
</a>
</g>
</g>
<!-- Node7 -->
<g id="Node000007" class="node">
<title>Node7</title>
<g id="a_Node000007"><a xlink:href="class_run_mode_screen.html" target="_top" xlink:title="UI screen that manages and displays control widgets during runtime.">
<polygon fill="white" stroke="#666666" points="186.12,-19.25 97.38,-19.25 97.38,0 186.12,0 186.12,-19.25"/>
<text text-anchor="middle" x="141.75" y="-5.75" font-family="Helvetica,sans-Serif" font-size="10.00">RunModeScreen</text>
</a>
</g>
</g>
<!-- Node3&#45;&gt;Node7 -->
<g id="edge11_Node000003_Node000007" class="edge">
<title>Node3&#45;&gt;Node7</title>
<g id="a_edge11_Node000003_Node000007"><a xlink:title=" ">
<path fill="none" stroke="#63b8ff" d="M39.35,-65.35C50.25,-53.12 65.98,-37.52 82.75,-27.62 88.02,-24.52 93.88,-21.9 99.79,-19.7"/>
<polygon fill="#63b8ff" stroke="#63b8ff" points="36.87,-62.87 33.01,-72.74 42.18,-67.43 36.87,-62.87"/>
</a>
</g>
</g>
<!-- Node2&#45;&gt;Node1 -->
<g id="edge10_Node000002_Node000001" class="edge">
<title>Node2&#45;&gt;Node1</title>
<g id="a_edge10_Node000002_Node000001"><a xlink:title=" ">
<path fill="none" stroke="#63b8ff" d="M187.64,-59.08C192.14,-60.77 196.58,-62.62 200.75,-64.62 227.55,-77.54 255.52,-98.38 270.99,-110.66"/>
<polygon fill="#63b8ff" stroke="#63b8ff" points="189.16,-55.91 178.56,-55.95 186.87,-62.52 189.16,-55.91"/>
</a>
</g>
</g>
</g>
</svg>
