<?xml version="1.0" encoding="UTF-8" standalone="no"?>
<!DOCTYPE svg PUBLIC "-//W3C//DTD SVG 1.1//EN"
 "http://www.w3.org/Graphics/SVG/1.1/DTD/svg11.dtd">
<!-- Generated by graphviz version 12.2.1 (20241206.2353)
 -->
<!-- Title: Graphical Class Hierarchy Pages: 1 -->
<svg width="213pt" height="138pt"
 viewBox="0.00 0.00 212.50 138.25" xmlns="http://www.w3.org/2000/svg" xmlns:xlink="http://www.w3.org/1999/xlink">
<g id="graph0" class="graph" transform="scale(1 1) rotate(0) translate(4 134.25)">
<title>Graphical Class Hierarchy</title>
<!-- Node0 -->
<g id="Node000000" class="node">
<title>Node0</title>
<g id="a_Node000000"><a xlink:href="class_app_mode.html" target="_top" xlink:title="Base class for defining behavior of application modes.">
<polygon fill="white" stroke="#666666" points="57.25,-74.25 0,-74.25 0,-55 57.25,-55 57.25,-74.25"/>
<text text-anchor="middle" x="28.62" y="-60.75" font-family="Helvetica,sans-Serif" font-size="10.00">AppMode</text>
</a>
</g>
</g>
<!-- Node1 -->
<g id="Node000001" class="node">
<title>Node1</title>
<g id="a_Node000001"><a xlink:href="class_config_mode.html" target="_top" xlink:title="Mode that enables editing of system configuration parameters.">
<polygon fill="white" stroke="#666666" points="183.12,-130.25 114.62,-130.25 114.62,-111 183.12,-111 183.12,-130.25"/>
<text text-anchor="middle" x="148.88" y="-116.75" font-family="Helvetica,sans-Serif" font-size="10.00">ConfigMode</text>
</a>
</g>
</g>
<!-- Node0&#45;&gt;Node1 -->
<g id="edge1_Node000000_Node000001" class="edge">
<title>Node0&#45;&gt;Node1</title>
<g id="a_edge1_Node000000_Node000001"><a xlink:title=" ">
<path fill="none" stroke="#63b8ff" d="M53.71,-80.72C65.33,-88.04 79.67,-96.42 93.25,-102.62 99.88,-105.65 107.17,-108.42 114.21,-110.82"/>
<polygon fill="#63b8ff" stroke="#63b8ff" points="55.86,-77.94 45.56,-75.47 52.07,-83.83 55.86,-77.94"/>
</a>
</g>
</g>
<!-- Node2 -->
<g id="Node000002" class="node">
<title>Node2</title>
<g id="a_Node000002"><a xlink:href="class_controls_test_mode.html" target="_top" xlink:title="Mode used for debugging and validating physical control input.">
<polygon fill="white" stroke="#666666" points="196.62,-93.25 101.12,-93.25 101.12,-74 196.62,-74 196.62,-93.25"/>
<text text-anchor="middle" x="148.88" y="-79.75" font-family="Helvetica,sans-Serif" font-size="10.00">ControlsTestMode</text>
</a>
</g>
</g>
<!-- Node0&#45;&gt;Node2 -->
<g id="edge2_Node000000_Node000002" class="edge">
<title>Node0&#45;&gt;Node2</title>
<g id="a_edge2_Node000000_Node000002"><a xlink:title=" ">
<path fill="none" stroke="#63b8ff" d="M68.72,-70.91C78.93,-72.55 90.05,-74.33 100.63,-76.03"/>
<polygon fill="#63b8ff" stroke="#63b8ff" points="69.57,-67.5 59.14,-69.37 68.46,-74.41 69.57,-67.5"/>
</a>
</g>
</g>
<!-- Node3 -->
<g id="Node000003" class="node">
<title>Node3</title>
<g id="a_Node000003"><a xlink:href="class_direct_command_mode.html" target="_top" xlink:title="Mode for direct interaction with PG&#45;800&#45;style command interface.">
<polygon fill="white" stroke="#666666" points="204.5,-56.25 93.25,-56.25 93.25,-37 204.5,-37 204.5,-56.25"/>
<text text-anchor="middle" x="148.88" y="-42.75" font-family="Helvetica,sans-Serif" font-size="10.00">DirectCommandMode</text>
</a>
</g>
</g>
<!-- Node0&#45;&gt;Node3 -->
<g id="edge3_Node000000_Node000003" class="edge">
<title>Node0&#45;&gt;Node3</title>
<g id="a_edge3_Node000000_Node000003"><a xlink:title=" ">
<path fill="none" stroke="#63b8ff" d="M68.94,-58.64C76.7,-57.46 84.97,-56.2 93.13,-54.96"/>
<polygon fill="#63b8ff" stroke="#63b8ff" points="68.5,-55.17 59.14,-60.13 69.56,-62.09 68.5,-55.17"/>
</a>
</g>
</g>
<!-- Node4 -->
<g id="Node000004" class="node">
<title>Node4</title>
<g id="a_Node000004"><a xlink:href="class_run_mode.html" target="_top" xlink:title="Application mode for normal runtime operation.">
<polygon fill="white" stroke="#666666" points="177.88,-19.25 119.88,-19.25 119.88,0 177.88,0 177.88,-19.25"/>
<text text-anchor="middle" x="148.88" y="-5.75" font-family="Helvetica,sans-Serif" font-size="10.00">RunMode</text>
</a>
</g>
</g>
<!-- Node0&#45;&gt;Node4 -->
<g id="edge4_Node000000_Node000004" class="edge">
<title>Node0&#45;&gt;Node4</title>
<g id="a_edge4_Node000000_Node000004"><a xlink:title=" ">
<path fill="none" stroke="#63b8ff" d="M54.58,-48.49C66.06,-41.49 80.04,-33.56 93.25,-27.62 101.54,-23.9 110.84,-20.55 119.38,-17.78"/>
<polygon fill="#63b8ff" stroke="#63b8ff" points="52.75,-45.5 46.12,-53.77 56.45,-51.44 52.75,-45.5"/>
</a>
</g>
</g>
</g>
</svg>
