<?xml version="1.0" encoding="UTF-8" standalone="no"?>
<!DOCTYPE svg PUBLIC "-//W3C//DTD SVG 1.1//EN"
 "http://www.w3.org/Graphics/SVG/1.1/DTD/svg11.dtd">
<!-- Generated by graphviz version 12.2.1 (20241206.2353)
 -->
<!-- Title: src/main.cpp Pages: 1 -->
<svg width="2080pt" height="315pt"
 viewBox="0.00 0.00 2079.75 314.75" xmlns="http://www.w3.org/2000/svg" xmlns:xlink="http://www.w3.org/1999/xlink">
<g id="graph0" class="graph" transform="scale(1 1) rotate(0) translate(4 310.75)">
<title>src/main.cpp</title>
<!-- Node1 -->
<g id="Node000001" class="node">
<title>Node1</title>
<g id="a_Node000001"><a xlink:title="Entry point for the JMR800&#45;V2 firmware.">
<polygon fill="#999999" stroke="#666666" points="664,-306.75 591.75,-306.75 591.75,-287.5 664,-287.5 664,-306.75"/>
<text text-anchor="middle" x="627.88" y="-293.25" font-family="Helvetica,sans-Serif" font-size="10.00">src/main.cpp</text>
</a>
</g>
</g>
<!-- Node2 -->
<g id="Node000002" class="node">
<title>Node2</title>
<g id="a_Node000002"><a xlink:title=" ">
<polygon fill="#e0e0e0" stroke="#999999" points="243.5,-135.38 186.25,-135.38 186.25,-116.12 243.5,-116.12 243.5,-135.38"/>
<text text-anchor="middle" x="214.88" y="-121.88" font-family="Helvetica,sans-Serif" font-size="10.00">Arduino.h</text>
</a>
</g>
</g>
<!-- Node1&#45;&gt;Node2 -->
<g id="edge1_Node000001_Node000002" class="edge">
<title>Node1&#45;&gt;Node2</title>
<g id="a_edge1_Node000001_Node000002"><a xlink:title=" ">
<path fill="none" stroke="#63b8ff" d="M591.42,-294.03C492.97,-287.5 225.84,-263.77 176.88,-196.25 164.59,-179.31 180.33,-157.96 195.12,-143.42"/>
<polygon fill="#63b8ff" stroke="#63b8ff" points="197.38,-146.1 202.39,-136.76 192.65,-140.94 197.38,-146.1"/>
</a>
</g>
</g>
<!-- Node3 -->
<g id="Node000003" class="node">
<title>Node3</title>
<g id="a_Node000003"><a xlink:title=" ">
<polygon fill="#e0e0e0" stroke="#999999" points="91.5,-251.5 40.25,-251.5 40.25,-232.25 91.5,-232.25 91.5,-251.5"/>
<text text-anchor="middle" x="65.88" y="-238" font-family="Helvetica,sans-Serif" font-size="10.00">stdarg.h</text>
</a>
</g>
</g>
<!-- Node1&#45;&gt;Node3 -->
<g id="edge2_Node000001_Node000003" class="edge">
<title>Node1&#45;&gt;Node3</title>
<g id="a_edge2_Node000001_Node000003"><a xlink:title=" ">
<path fill="none" stroke="#63b8ff" d="M591.3,-294.6C505.9,-290.69 286.9,-278.64 105.88,-251.5 104.86,-251.35 103.83,-251.19 102.8,-251.01"/>
<polygon fill="#63b8ff" stroke="#63b8ff" points="103.57,-247.6 93.1,-249.2 102.28,-254.48 103.57,-247.6"/>
</a>
</g>
</g>
<!-- Node4 -->
<g id="Node000004" class="node">
<title>Node4</title>
<g id="a_Node000004"><a xlink:title=" ">
<polygon fill="#e0e0e0" stroke="#999999" points="1126.62,-74.5 1043.12,-74.5 1043.12,-55.25 1126.62,-55.25 1126.62,-74.5"/>
<text text-anchor="middle" x="1084.88" y="-61" font-family="Helvetica,sans-Serif" font-size="10.00">Adafruit_GFX.h</text>
</a>
</g>
</g>
<!-- Node1&#45;&gt;Node4 -->
<g id="edge3_Node000001_Node000004" class="edge">
<title>Node1&#45;&gt;Node4</title>
<g id="a_edge3_Node000001_Node000004"><a xlink:title=" ">
<path fill="none" stroke="#63b8ff" d="M629.41,-287.23C635.22,-256.65 658.79,-155.31 722.88,-110.5 771.55,-76.47 943.25,-68.35 1031.55,-66.44"/>
<polygon fill="#63b8ff" stroke="#63b8ff" points="1031.48,-69.94 1041.41,-66.25 1031.34,-62.94 1031.48,-69.94"/>
</a>
</g>
</g>
<!-- Node5 -->
<g id="Node000005" class="node">
<title>Node5</title>
<g id="a_Node000005"><a xlink:title=" ">
<polygon fill="#e0e0e0" stroke="#999999" points="715.88,-74.5 615.88,-74.5 615.88,-55.25 715.88,-55.25 715.88,-74.5"/>
<text text-anchor="middle" x="665.88" y="-61" font-family="Helvetica,sans-Serif" font-size="10.00">Adafruit_SH110X.h</text>
</a>
</g>
</g>
<!-- Node1&#45;&gt;Node5 -->
<g id="edge4_Node000001_Node000005" class="edge">
<title>Node1&#45;&gt;Node5</title>
<g id="a_edge4_Node000001_Node000005"><a xlink:title=" ">
<path fill="none" stroke="#63b8ff" d="M591.29,-294.93C505.37,-291.66 293.09,-280.78 228.88,-251.5 195.89,-236.46 183.43,-229.45 168.88,-196.25 165.44,-188.41 168.36,-185.54 168.88,-177 170.66,-147.28 155.53,-131.25 176.88,-110.5 192.01,-95.79 476.32,-77.14 604.32,-69.44"/>
<polygon fill="#63b8ff" stroke="#63b8ff" points="604.19,-72.96 613.96,-68.87 603.77,-65.97 604.19,-72.96"/>
</a>
</g>
</g>
<!-- Node6 -->
<g id="Node000006" class="node">
<title>Node6</title>
<g id="a_Node000006"><a xlink:href="defines_8h.html" target="_top" xlink:title="Hardware pin definitions and global constants for JMR800&#45;V2.">
<polygon fill="white" stroke="#666666" points="523.75,-135.38 468,-135.38 468,-116.12 523.75,-116.12 523.75,-135.38"/>
<text text-anchor="middle" x="495.88" y="-121.88" font-family="Helvetica,sans-Serif" font-size="10.00">defines.h</text>
</a>
</g>
</g>
<!-- Node1&#45;&gt;Node6 -->
<g id="edge5_Node000001_Node000006" class="edge">
<title>Node1&#45;&gt;Node6</title>
<g id="a_edge5_Node000001_Node000006"><a xlink:title=" ">
<path fill="none" stroke="#63b8ff" d="M622.66,-287C610.7,-266.42 579.86,-215.21 547.88,-177 537.78,-164.94 525.11,-152.65 514.8,-143.24"/>
<polygon fill="#63b8ff" stroke="#63b8ff" points="517.39,-140.86 507.61,-136.8 512.73,-146.08 517.39,-140.86"/>
</a>
</g>
</g>
<!-- Node7 -->
<g id="Node000007" class="node">
<title>Node7</title>
<g id="a_Node000007"><a xlink:href="_hardware_manager_8h.html" target="_top" xlink:title="Manages hardware input/output for analog controls, digital buttons, encoder, and serial communication...">
<polygon fill="white" stroke="#666666" points="528.38,-251.5 425.38,-251.5 425.38,-232.25 528.38,-232.25 528.38,-251.5"/>
<text text-anchor="middle" x="476.88" y="-238" font-family="Helvetica,sans-Serif" font-size="10.00">HardwareManager.h</text>
</a>
</g>
</g>
<!-- Node1&#45;&gt;Node7 -->
<g id="edge6_Node000001_Node000007" class="edge">
<title>Node1&#45;&gt;Node7</title>
<g id="a_edge6_Node000001_Node000007"><a xlink:title=" ">
<path fill="none" stroke="#63b8ff" d="M602.26,-287.09C577.86,-278.49 540.86,-265.44 513.38,-255.75"/>
<polygon fill="#63b8ff" stroke="#63b8ff" points="514.64,-252.48 504.04,-252.46 512.31,-259.08 514.64,-252.48"/>
</a>
</g>
</g>
<!-- Node12 -->
<g id="Node000012" class="node">
<title>Node12</title>
<g id="a_Node000012"><a xlink:href="_logging_8h.html" target="_top" xlink:title="Lightweight logging utility for serial output in the JMR800&#45;V2 project.">
<polygon fill="white" stroke="#666666" points="243.88,-196.25 185.88,-196.25 185.88,-177 243.88,-177 243.88,-196.25"/>
<text text-anchor="middle" x="214.88" y="-182.75" font-family="Helvetica,sans-Serif" font-size="10.00">Logging.h</text>
</a>
</g>
</g>
<!-- Node1&#45;&gt;Node12 -->
<g id="edge27_Node000001_Node000012" class="edge">
<title>Node1&#45;&gt;Node12</title>
<g id="a_edge27_Node000001_Node000012"><a xlink:title=" ">
<path fill="none" stroke="#63b8ff" d="M591.4,-289.54C549.14,-281.64 477.53,-267.46 416.88,-251.5 358.48,-236.13 291.9,-214.2 251.66,-200.45"/>
<polygon fill="#63b8ff" stroke="#63b8ff" points="252.81,-197.15 242.22,-197.21 250.54,-203.77 252.81,-197.15"/>
</a>
</g>
</g>
<!-- Node13 -->
<g id="Node000013" class="node">
<title>Node13</title>
<g id="a_Node000013"><a xlink:href="_screen_manager_8h.html" target="_top" xlink:title="Declares the ScreenManager class responsible for UI screen control on the OLED display.">
<polygon fill="white" stroke="#666666" points="91.75,-135.38 0,-135.38 0,-116.12 91.75,-116.12 91.75,-135.38"/>
<text text-anchor="middle" x="45.88" y="-121.88" font-family="Helvetica,sans-Serif" font-size="10.00">ScreenManager.h</text>
</a>
</g>
</g>
<!-- Node1&#45;&gt;Node13 -->
<g id="edge18_Node000001_Node000013" class="edge">
<title>Node1&#45;&gt;Node13</title>
<g id="a_edge18_Node000001_Node000013"><a xlink:title=" ">
<path fill="none" stroke="#63b8ff" d="M591.5,-296.21C467.82,-296.13 69.05,-292.64 30.88,-251.5 4.26,-222.82 22.31,-173.08 35.49,-145.88"/>
<polygon fill="#63b8ff" stroke="#63b8ff" points="38.56,-147.57 40.01,-137.07 32.33,-144.37 38.56,-147.57"/>
</a>
</g>
</g>
<!-- Node15 -->
<g id="Node000015" class="node">
<title>Node15</title>
<g id="a_Node000015"><a xlink:href="_run_mode_screen_8h.html" target="_top" xlink:title="Represents the active runtime screen for interacting with control widgets.">
<polygon fill="white" stroke="#666666" points="1551.12,-135.38 1416.62,-135.38 1416.62,-116.12 1551.12,-116.12 1551.12,-135.38"/>
<text text-anchor="middle" x="1483.88" y="-121.88" font-family="Helvetica,sans-Serif" font-size="10.00">screens/RunModeScreen.h</text>
</a>
</g>
</g>
<!-- Node1&#45;&gt;Node15 -->
<g id="edge21_Node000001_Node000015" class="edge">
<title>Node1&#45;&gt;Node15</title>
<g id="a_edge21_Node000001_Node000015"><a xlink:title=" ">
<path fill="none" stroke="#63b8ff" d="M664.4,-293.56C796.48,-283.95 1248.51,-247.92 1382.88,-196.25 1414.83,-183.96 1446.49,-159.68 1465.62,-143.33"/>
<polygon fill="#63b8ff" stroke="#63b8ff" points="1467.84,-146.04 1473.05,-136.81 1463.23,-140.78 1467.84,-146.04"/>
</a>
</g>
</g>
<!-- Node17 -->
<g id="Node000017" class="node">
<title>Node17</title>
<g id="a_Node000017"><a xlink:href="_mode_manager_8h.html" target="_top" xlink:title="Declares the ModeManager class for managing application modes in JMR800&#45;V2.">
<polygon fill="white" stroke="#666666" points="1885.38,-251.5 1800.38,-251.5 1800.38,-232.25 1885.38,-232.25 1885.38,-251.5"/>
<text text-anchor="middle" x="1842.88" y="-238" font-family="Helvetica,sans-Serif" font-size="10.00">ModeManager.h</text>
</a>
</g>
</g>
<!-- Node1&#45;&gt;Node17 -->
<g id="edge28_Node000001_Node000017" class="edge">
<title>Node1&#45;&gt;Node17</title>
<g id="a_edge28_Node000001_Node000017"><a xlink:title=" ">
<path fill="none" stroke="#63b8ff" d="M664.17,-296.39C806.4,-297.1 1339.67,-296.49 1788.82,-251.55"/>
<polygon fill="#63b8ff" stroke="#63b8ff" points="1788.98,-255.05 1798.58,-250.56 1788.28,-248.09 1788.98,-255.05"/>
</a>
</g>
</g>
<!-- Node19 -->
<g id="Node000019" class="node">
<title>Node19</title>
<g id="a_Node000019"><a xlink:href="_run_mode_8h.html" target="_top" xlink:title="Defines the main runtime mode of the application.">
<polygon fill="white" stroke="#666666" points="1782.12,-251.5 1683.62,-251.5 1683.62,-232.25 1782.12,-232.25 1782.12,-251.5"/>
<text text-anchor="middle" x="1732.88" y="-238" font-family="Helvetica,sans-Serif" font-size="10.00">modes/RunMode.h</text>
</a>
</g>
</g>
<!-- Node1&#45;&gt;Node19 -->
<g id="edge32_Node000001_Node000019" class="edge">
<title>Node1&#45;&gt;Node19</title>
<g id="a_edge32_Node000001_Node000019"><a xlink:title=" ">
<path fill="none" stroke="#63b8ff" d="M664.14,-295.96C797.17,-295.05 1271.14,-289.27 1672,-251.67"/>
<polygon fill="#63b8ff" stroke="#63b8ff" points="1672.11,-255.18 1681.74,-250.75 1671.45,-248.21 1672.11,-255.18"/>
</a>
</g>
</g>
<!-- Node20 -->
<g id="Node000020" class="node">
<title>Node20</title>
<g id="a_Node000020"><a xlink:href="_controls_test_mode_8h.html" target="_top" xlink:title="Application mode for verifying control inputs in real&#45;time.">
<polygon fill="white" stroke="#666666" points="1665.88,-251.5 1529.88,-251.5 1529.88,-232.25 1665.88,-232.25 1665.88,-251.5"/>
<text text-anchor="middle" x="1597.88" y="-238" font-family="Helvetica,sans-Serif" font-size="10.00">modes/ControlsTestMode.h</text>
</a>
</g>
</g>
<!-- Node1&#45;&gt;Node20 -->
<g id="edge35_Node000001_Node000020" class="edge">
<title>Node1&#45;&gt;Node20</title>
<g id="a_edge35_Node000001_Node000020"><a xlink:title=" ">
<path fill="none" stroke="#63b8ff" d="M664.08,-295.12C784.06,-291.61 1179.78,-278.67 1518.21,-251.66"/>
<polygon fill="#63b8ff" stroke="#63b8ff" points="1518.27,-255.17 1527.95,-250.88 1517.71,-248.19 1518.27,-255.17"/>
</a>
</g>
</g>
<!-- Node23 -->
<g id="Node000023" class="node">
<title>Node23</title>
<g id="a_Node000023"><a xlink:href="_direct_command_mode_8h.html" target="_top" xlink:title="Application mode for sending direct parameter/value commands.">
<polygon fill="white" stroke="#666666" points="1511.75,-251.5 1360,-251.5 1360,-232.25 1511.75,-232.25 1511.75,-251.5"/>
<text text-anchor="middle" x="1435.88" y="-238" font-family="Helvetica,sans-Serif" font-size="10.00">modes/DirectCommandMode.h</text>
</a>
</g>
</g>
<!-- Node1&#45;&gt;Node23 -->
<g id="edge47_Node000001_Node000023" class="edge">
<title>Node1&#45;&gt;Node23</title>
<g id="a_edge47_Node000001_Node000023"><a xlink:title=" ">
<path fill="none" stroke="#63b8ff" d="M664.14,-294.3C769.51,-288.91 1084.72,-272.12 1345.88,-251.5 1346.73,-251.43 1347.58,-251.36 1348.44,-251.3"/>
<polygon fill="#63b8ff" stroke="#63b8ff" points="1348.6,-254.79 1358.27,-250.47 1348.02,-247.82 1348.6,-254.79"/>
</a>
</g>
</g>
<!-- Node27 -->
<g id="Node000027" class="node">
<title>Node27</title>
<g id="a_Node000027"><a xlink:href="_config_mode_8h.html" target="_top" xlink:title="Application mode for accessing and modifying system configuration.">
<polygon fill="white" stroke="#666666" points="2012.38,-251.5 1903.38,-251.5 1903.38,-232.25 2012.38,-232.25 2012.38,-251.5"/>
<text text-anchor="middle" x="1957.88" y="-238" font-family="Helvetica,sans-Serif" font-size="10.00">modes/ConfigMode.h</text>
</a>
</g>
</g>
<!-- Node1&#45;&gt;Node27 -->
<g id="edge63_Node000001_Node000027" class="edge">
<title>Node1&#45;&gt;Node27</title>
<g id="a_edge63_Node000001_Node000027"><a xlink:title=" ">
<path fill="none" stroke="#63b8ff" d="M664.5,-296.18C814.96,-296.14 1400.45,-293.22 1891.71,-251.69"/>
<polygon fill="#63b8ff" stroke="#63b8ff" points="1891.76,-255.19 1901.43,-250.86 1891.17,-248.22 1891.76,-255.19"/>
</a>
</g>
</g>
<!-- Node7&#45;&gt;Node2 -->
<g id="edge7_Node000007_Node000002" class="edge">
<title>Node7&#45;&gt;Node2</title>
<g id="a_edge7_Node000007_Node000002"><a xlink:title=" ">
<path fill="none" stroke="#63b8ff" d="M425.07,-235.54C386.31,-229.91 332.96,-218.6 290.88,-196.25 266.06,-183.07 243.07,-159.88 229.02,-143.94"/>
<polygon fill="#63b8ff" stroke="#63b8ff" points="231.97,-142 222.81,-136.67 226.64,-146.55 231.97,-142"/>
</a>
</g>
</g>
<!-- Node7&#45;&gt;Node4 -->
<g id="edge8_Node000007_Node000004" class="edge">
<title>Node7&#45;&gt;Node4</title>
<g id="a_edge8_Node000007_Node000004"><a xlink:title=" ">
<path fill="none" stroke="#63b8ff" d="M492.48,-231.85C507.12,-223.21 529.46,-209.54 547.88,-196.25 596.45,-161.18 596.61,-133.61 651.88,-110.5 719.19,-82.35 931.32,-71.28 1031.5,-67.53"/>
<polygon fill="#63b8ff" stroke="#63b8ff" points="1031.47,-71.04 1041.34,-67.18 1031.22,-64.04 1031.47,-71.04"/>
</a>
</g>
</g>
<!-- Node7&#45;&gt;Node5 -->
<g id="edge9_Node000007_Node000005" class="edge">
<title>Node7&#45;&gt;Node5</title>
<g id="a_edge9_Node000007_Node000005"><a xlink:title=" ">
<path fill="none" stroke="#63b8ff" d="M471.51,-231.75C458.69,-208.62 429.45,-146.94 458.88,-110.5 476.93,-88.14 550.17,-76.44 604.43,-70.73"/>
<polygon fill="#63b8ff" stroke="#63b8ff" points="604.59,-74.23 614.19,-69.75 603.89,-67.27 604.59,-74.23"/>
</a>
</g>
</g>
<!-- Node7&#45;&gt;Node6 -->
<g id="edge14_Node000007_Node000006" class="edge">
<title>Node7&#45;&gt;Node6</title>
<g id="a_edge14_Node000007_Node000006"><a xlink:title=" ">
<path fill="none" stroke="#63b8ff" d="M495.47,-231.83C508.59,-224.31 525.16,-212.27 532.88,-196.25 541.72,-177.89 527.72,-157.35 514.48,-143.39"/>
<polygon fill="#63b8ff" stroke="#63b8ff" points="517.22,-141.18 507.63,-136.69 512.33,-146.18 517.22,-141.18"/>
</a>
</g>
</g>
<!-- Node8 -->
<g id="Node000008" class="node">
<title>Node8</title>
<g id="a_Node000008"><a xlink:title=" ">
<polygon fill="#e0e0e0" stroke="#999999" points="524.12,-196.25 479.62,-196.25 479.62,-177 524.12,-177 524.12,-196.25"/>
<text text-anchor="middle" x="501.88" y="-182.75" font-family="Helvetica,sans-Serif" font-size="10.00">Wire.h</text>
</a>
</g>
</g>
<!-- Node7&#45;&gt;Node8 -->
<g id="edge10_Node000007_Node000008" class="edge">
<title>Node7&#45;&gt;Node8</title>
<g id="a_edge10_Node000007_Node000008"><a xlink:title=" ">
<path fill="none" stroke="#63b8ff" d="M481,-232.08C484.2,-225.26 488.76,-215.56 492.8,-206.95"/>
<polygon fill="#63b8ff" stroke="#63b8ff" points="495.93,-208.52 497.01,-197.98 489.6,-205.54 495.93,-208.52"/>
</a>
</g>
</g>
<!-- Node9 -->
<g id="Node000009" class="node">
<title>Node9</title>
<g id="a_Node000009"><a xlink:title=" ">
<polygon fill="#e0e0e0" stroke="#999999" points="345.88,-196.25 299.88,-196.25 299.88,-177 345.88,-177 345.88,-196.25"/>
<text text-anchor="middle" x="322.88" y="-182.75" font-family="Helvetica,sans-Serif" font-size="10.00">ADC.h</text>
</a>
</g>
</g>
<!-- Node7&#45;&gt;Node9 -->
<g id="edge11_Node000007_Node000009" class="edge">
<title>Node7&#45;&gt;Node9</title>
<g id="a_edge11_Node000007_Node000009"><a xlink:title=" ">
<path fill="none" stroke="#63b8ff" d="M450.75,-231.84C424.84,-222.88 385.02,-209.11 356.71,-199.32"/>
<polygon fill="#63b8ff" stroke="#63b8ff" points="358.12,-196.11 347.53,-196.15 355.84,-202.73 358.12,-196.11"/>
</a>
</g>
</g>
<!-- Node10 -->
<g id="Node000010" class="node">
<title>Node10</title>
<g id="a_Node000010"><a xlink:title=" ">
<polygon fill="#e0e0e0" stroke="#999999" points="423.62,-196.25 364.12,-196.25 364.12,-177 423.62,-177 423.62,-196.25"/>
<text text-anchor="middle" x="393.88" y="-182.75" font-family="Helvetica,sans-Serif" font-size="10.00">Encoder.h</text>
</a>
</g>
</g>
<!-- Node7&#45;&gt;Node10 -->
<g id="edge12_Node000007_Node000010" class="edge">
<title>Node7&#45;&gt;Node10</title>
<g id="a_edge12_Node000007_Node000010"><a xlink:title=" ">
<path fill="none" stroke="#63b8ff" d="M462.8,-231.84C450.39,-223.89 432.08,-212.14 417.45,-202.75"/>
<polygon fill="#63b8ff" stroke="#63b8ff" points="419.6,-199.97 409.3,-197.52 415.82,-205.87 419.6,-199.97"/>
</a>
</g>
</g>
<!-- Node11 -->
<g id="Node000011" class="node">
<title>Node11</title>
<g id="a_Node000011"><a xlink:title=" ">
<polygon fill="#e0e0e0" stroke="#999999" points="1744.38,-74.5 1701.38,-74.5 1701.38,-55.25 1744.38,-55.25 1744.38,-74.5"/>
<text text-anchor="middle" x="1722.88" y="-61" font-family="Helvetica,sans-Serif" font-size="10.00">vector</text>
</a>
</g>
</g>
<!-- Node7&#45;&gt;Node11 -->
<g id="edge13_Node000007_Node000011" class="edge">
<title>Node7&#45;&gt;Node11</title>
<g id="a_edge13_Node000007_Node000011"><a xlink:title=" ">
<path fill="none" stroke="#63b8ff" d="M528.68,-240.9C667.57,-240.4 1059.64,-235.34 1382.88,-196.25 1510.97,-180.76 1558.91,-210.1 1667.88,-141 1689.26,-127.44 1705.07,-102.34 1714.12,-84.9"/>
<polygon fill="#63b8ff" stroke="#63b8ff" points="1717.17,-86.63 1718.42,-76.11 1710.88,-83.56 1717.17,-86.63"/>
</a>
</g>
</g>
<!-- Node7&#45;&gt;Node12 -->
<g id="edge15_Node000007_Node000012" class="edge">
<title>Node7&#45;&gt;Node12</title>
<g id="a_edge15_Node000007_Node000012"><a xlink:title=" ">
<path fill="none" stroke="#63b8ff" d="M432.13,-231.78C382.58,-221.71 303.39,-205.61 255.54,-195.89"/>
<polygon fill="#63b8ff" stroke="#63b8ff" points="256.35,-192.48 245.86,-193.92 254.96,-199.34 256.35,-192.48"/>
</a>
</g>
</g>
<!-- Node12&#45;&gt;Node2 -->
<g id="edge16_Node000012_Node000002" class="edge">
<title>Node12&#45;&gt;Node2</title>
<g id="a_edge16_Node000012_Node000002"><a xlink:title=" ">
<path fill="none" stroke="#63b8ff" d="M214.88,-176.68C214.88,-168.9 214.88,-157.33 214.88,-147.28"/>
<polygon fill="#63b8ff" stroke="#63b8ff" points="218.38,-147.29 214.88,-137.29 211.38,-147.29 218.38,-147.29"/>
</a>
</g>
</g>
<!-- Node12&#45;&gt;Node6 -->
<g id="edge17_Node000012_Node000006" class="edge">
<title>Node12&#45;&gt;Node6</title>
<g id="a_edge17_Node000012_Node000006"><a xlink:title=" ">
<path fill="none" stroke="#63b8ff" d="M244.15,-179.49C294.91,-168.86 399.29,-146.99 456.4,-135.02"/>
<polygon fill="#63b8ff" stroke="#63b8ff" points="456.95,-138.48 466.02,-133.01 455.52,-131.63 456.95,-138.48"/>
</a>
</g>
</g>
<!-- Node13&#45;&gt;Node5 -->
<g id="edge19_Node000013_Node000005" class="edge">
<title>Node13&#45;&gt;Node5</title>
<g id="a_edge19_Node000013_Node000005"><a xlink:title=" ">
<path fill="none" stroke="#63b8ff" d="M79.96,-115.7C88.38,-113.73 97.41,-111.83 105.88,-110.5 285.61,-82.17 500.78,-71.43 604.29,-67.69"/>
<polygon fill="#63b8ff" stroke="#63b8ff" points="604.37,-71.19 614.24,-67.34 604.12,-64.19 604.37,-71.19"/>
</a>
</g>
</g>
<!-- Node14 -->
<g id="Node000014" class="node">
<title>Node14</title>
<g id="a_Node000014"><a xlink:href="_screen_8h.html" target="_top" xlink:title="Abstract interface for all UI screens in the JMR800&#45;V2 system.">
<polygon fill="white" stroke="#666666" points="1663.12,-19.25 1570.62,-19.25 1570.62,0 1663.12,0 1663.12,-19.25"/>
<text text-anchor="middle" x="1616.88" y="-5.75" font-family="Helvetica,sans-Serif" font-size="10.00">screens/Screen.h</text>
</a>
</g>
</g>
<!-- Node13&#45;&gt;Node14 -->
<g id="edge20_Node000013_Node000014" class="edge">
<title>Node13&#45;&gt;Node14</title>
<g id="a_edge20_Node000013_Node000014"><a xlink:title=" ">
<path fill="none" stroke="#63b8ff" d="M80.94,-115.66C89.09,-113.76 97.75,-111.91 105.88,-110.5 326.6,-72.27 383.52,-72.48 606.88,-55.25 968.6,-27.34 1404.65,-15.41 1559.18,-11.85"/>
<polygon fill="#63b8ff" stroke="#63b8ff" points="1558.82,-15.36 1568.73,-11.63 1558.66,-8.36 1558.82,-15.36"/>
</a>
</g>
</g>
<!-- Node15&#45;&gt;Node4 -->
<g id="edge22_Node000015_Node000004" class="edge">
<title>Node15&#45;&gt;Node4</title>
<g id="a_edge22_Node000015_Node000004"><a xlink:title=" ">
<path fill="none" stroke="#63b8ff" d="M1422.41,-115.68C1344.7,-104.21 1212.19,-84.66 1138.43,-73.78"/>
<polygon fill="#63b8ff" stroke="#63b8ff" points="1139.02,-70.33 1128.61,-72.33 1138,-77.25 1139.02,-70.33"/>
</a>
</g>
</g>
<!-- Node15&#45;&gt;Node5 -->
<g id="edge23_Node000015_Node000005" class="edge">
<title>Node15&#45;&gt;Node5</title>
<g id="a_edge23_Node000015_Node000005"><a xlink:title=" ">
<path fill="none" stroke="#63b8ff" d="M1416.24,-119.88C1260.3,-108.66 877.46,-81.1 727.52,-70.31"/>
<polygon fill="#63b8ff" stroke="#63b8ff" points="728.02,-66.84 717.8,-69.61 727.52,-73.82 728.02,-66.84"/>
</a>
</g>
</g>
<!-- Node15&#45;&gt;Node11 -->
<g id="edge24_Node000015_Node000011" class="edge">
<title>Node15&#45;&gt;Node11</title>
<g id="a_edge24_Node000015_Node000011"><a xlink:title=" ">
<path fill="none" stroke="#63b8ff" d="M1520.69,-115.68C1566.97,-104.28 1645.69,-84.89 1690.02,-73.97"/>
<polygon fill="#63b8ff" stroke="#63b8ff" points="1690.69,-77.41 1699.56,-71.62 1689.02,-70.61 1690.69,-77.41"/>
</a>
</g>
</g>
<!-- Node15&#45;&gt;Node14 -->
<g id="edge26_Node000015_Node000014" class="edge">
<title>Node15&#45;&gt;Node14</title>
<g id="a_edge26_Node000015_Node000014"><a xlink:title=" ">
<path fill="none" stroke="#63b8ff" d="M1494.31,-115.79C1516.65,-96.63 1569.37,-51.39 1597.84,-26.96"/>
<polygon fill="#63b8ff" stroke="#63b8ff" points="1600.03,-29.69 1605.34,-20.52 1595.47,-24.38 1600.03,-29.69"/>
</a>
</g>
</g>
<!-- Node16 -->
<g id="Node000016" class="node">
<title>Node16</title>
<g id="a_Node000016"><a xlink:href="_widget_8h.html" target="_top" xlink:title="Abstract base class for UI widgets in the JMR800&#45;V2 OLED interface.">
<polygon fill="white" stroke="#666666" points="1415.75,-74.5 1324,-74.5 1324,-55.25 1415.75,-55.25 1415.75,-74.5"/>
<text text-anchor="middle" x="1369.88" y="-61" font-family="Helvetica,sans-Serif" font-size="10.00">widgets/Widget.h</text>
</a>
</g>
</g>
<!-- Node15&#45;&gt;Node16 -->
<g id="edge25_Node000015_Node000016" class="edge">
<title>Node15&#45;&gt;Node16</title>
<g id="a_edge25_Node000015_Node000016"><a xlink:title=" ">
<path fill="none" stroke="#63b8ff" d="M1466.56,-115.81C1448.23,-106.34 1419.03,-91.26 1397.51,-80.15"/>
<polygon fill="#63b8ff" stroke="#63b8ff" points="1399.19,-77.07 1388.7,-75.6 1395.98,-83.29 1399.19,-77.07"/>
</a>
</g>
</g>
<!-- Node17&#45;&gt;Node11 -->
<g id="edge29_Node000017_Node000011" class="edge">
<title>Node17&#45;&gt;Node11</title>
<g id="a_edge29_Node000017_Node000011"><a xlink:title=" ">
<path fill="none" stroke="#63b8ff" d="M1836.76,-231.96C1817.99,-204.58 1760.92,-121.36 1735.42,-84.17"/>
<polygon fill="#63b8ff" stroke="#63b8ff" points="1738.52,-82.5 1729.98,-76.23 1732.75,-86.46 1738.52,-82.5"/>
</a>
</g>
</g>
<!-- Node18 -->
<g id="Node000018" class="node">
<title>Node18</title>
<g id="a_Node000018"><a xlink:href="_app_mode_8h.html" target="_top" xlink:title="Abstract interface for application mode behavior.">
<polygon fill="white" stroke="#666666" points="2071.75,-196.25 1974,-196.25 1974,-177 2071.75,-177 2071.75,-196.25"/>
<text text-anchor="middle" x="2022.88" y="-182.75" font-family="Helvetica,sans-Serif" font-size="10.00">modes/AppMode.h</text>
</a>
</g>
</g>
<!-- Node17&#45;&gt;Node18 -->
<g id="edge30_Node000017_Node000018" class="edge">
<title>Node17&#45;&gt;Node18</title>
<g id="a_edge30_Node000017_Node000018"><a xlink:title=" ">
<path fill="none" stroke="#63b8ff" d="M1873.41,-231.84C1903.15,-223.04 1948.56,-209.61 1981.53,-199.86"/>
<polygon fill="#63b8ff" stroke="#63b8ff" points="1982.14,-203.32 1990.74,-197.13 1980.16,-196.61 1982.14,-203.32"/>
</a>
</g>
</g>
<!-- Node18&#45;&gt;Node14 -->
<g id="edge31_Node000018_Node000014" class="edge">
<title>Node18&#45;&gt;Node14</title>
<g id="a_edge31_Node000018_Node000014"><a xlink:title=" ">
<path fill="none" stroke="#63b8ff" d="M2027.32,-176.74C2038.47,-153.08 2064.38,-88.13 2030.88,-55.25 2005.95,-30.79 1782.83,-17.83 1674.88,-12.95"/>
<polygon fill="#63b8ff" stroke="#63b8ff" points="1675.21,-9.46 1665.06,-12.51 1674.9,-16.45 1675.21,-9.46"/>
</a>
</g>
</g>
<!-- Node19&#45;&gt;Node15 -->
<g id="edge34_Node000019_Node000015" class="edge">
<title>Node19&#45;&gt;Node15</title>
<g id="a_edge34_Node000019_Node000015"><a xlink:title=" ">
<path fill="none" stroke="#63b8ff" d="M1713.34,-231.92C1669.99,-212.05 1565.52,-164.17 1513.85,-140.49"/>
<polygon fill="#63b8ff" stroke="#63b8ff" points="1515.59,-137.44 1505.04,-136.45 1512.68,-143.8 1515.59,-137.44"/>
</a>
</g>
</g>
<!-- Node19&#45;&gt;Node18 -->
<g id="edge33_Node000019_Node000018" class="edge">
<title>Node19&#45;&gt;Node18</title>
<g id="a_edge33_Node000019_Node000018"><a xlink:title=" ">
<path fill="none" stroke="#63b8ff" d="M1782.4,-231.78C1832.24,-222.63 1909.17,-208.5 1962.54,-198.7"/>
<polygon fill="#63b8ff" stroke="#63b8ff" points="1962.86,-202.2 1972.07,-196.95 1961.6,-195.32 1962.86,-202.2"/>
</a>
</g>
</g>
<!-- Node20&#45;&gt;Node18 -->
<g id="edge36_Node000020_Node000018" class="edge">
<title>Node20&#45;&gt;Node18</title>
<g id="a_edge36_Node000020_Node000018"><a xlink:title=" ">
<path fill="none" stroke="#63b8ff" d="M1666.12,-233.21C1737.6,-225.04 1853.45,-211.42 1962.55,-196.67"/>
<polygon fill="#63b8ff" stroke="#63b8ff" points="1962.83,-200.17 1972.26,-195.35 1961.88,-193.23 1962.83,-200.17"/>
</a>
</g>
</g>
<!-- Node21 -->
<g id="Node000021" class="node">
<title>Node21</title>
<g id="a_Node000021"><a xlink:href="_controls_test_screen_8h.html" target="_top" xlink:title="Diagnostic screen for visualizing the state of all physical controls.">
<polygon fill="white" stroke="#666666" points="1373.88,-196.25 1225.88,-196.25 1225.88,-177 1373.88,-177 1373.88,-196.25"/>
<text text-anchor="middle" x="1299.88" y="-182.75" font-family="Helvetica,sans-Serif" font-size="10.00">screens/ControlsTestScreen.h</text>
</a>
</g>
</g>
<!-- Node20&#45;&gt;Node21 -->
<g id="edge37_Node000020_Node000021" class="edge">
<title>Node20&#45;&gt;Node21</title>
<g id="a_edge37_Node000020_Node000021"><a xlink:title=" ">
<path fill="none" stroke="#63b8ff" d="M1546.99,-231.78C1495.77,-222.63 1416.72,-208.5 1361.87,-198.7"/>
<polygon fill="#63b8ff" stroke="#63b8ff" points="1362.5,-195.26 1352.04,-196.95 1361.27,-202.15 1362.5,-195.26"/>
</a>
</g>
</g>
<!-- Node21&#45;&gt;Node4 -->
<g id="edge38_Node000021_Node000004" class="edge">
<title>Node21&#45;&gt;Node4</title>
<g id="a_edge38_Node000021_Node000004"><a xlink:title=" ">
<path fill="none" stroke="#63b8ff" d="M1297.17,-176.68C1291.92,-160.82 1278.77,-127.84 1255.88,-110.5 1222,-84.84 1174.72,-73.89 1138.46,-69.23"/>
<polygon fill="#63b8ff" stroke="#63b8ff" points="1138.94,-65.77 1128.61,-68.11 1138.15,-72.72 1138.94,-65.77"/>
</a>
</g>
</g>
<!-- Node21&#45;&gt;Node5 -->
<g id="edge39_Node000021_Node000005" class="edge">
<title>Node21&#45;&gt;Node5</title>
<g id="a_edge39_Node000021_Node000005"><a xlink:title=" ">
<path fill="none" stroke="#63b8ff" d="M1225.62,-179.74C1213.67,-178.81 1201.43,-177.87 1189.88,-177 1134.33,-172.82 733.65,-175.45 689.88,-141 673.42,-128.05 668.06,-103.76 666.41,-86.3"/>
<polygon fill="#63b8ff" stroke="#63b8ff" points="669.91,-86.11 665.84,-76.33 662.92,-86.51 669.91,-86.11"/>
</a>
</g>
</g>
<!-- Node21&#45;&gt;Node11 -->
<g id="edge40_Node000021_Node000011" class="edge">
<title>Node21&#45;&gt;Node11</title>
<g id="a_edge40_Node000021_Node000011"><a xlink:title=" ">
<path fill="none" stroke="#63b8ff" d="M1374.11,-180.33C1457.22,-173.59 1586.13,-160.42 1630.88,-141 1661.64,-127.65 1690.45,-100.94 1707.37,-83.23"/>
<polygon fill="#63b8ff" stroke="#63b8ff" points="1709.82,-85.74 1714.05,-76.02 1704.69,-80.98 1709.82,-85.74"/>
</a>
</g>
</g>
<!-- Node21&#45;&gt;Node14 -->
<g id="edge46_Node000021_Node000014" class="edge">
<title>Node21&#45;&gt;Node14</title>
<g id="a_edge46_Node000021_Node000014"><a xlink:title=" ">
<path fill="none" stroke="#63b8ff" d="M1374.07,-180.68C1440.48,-174.89 1531.61,-163.13 1559.88,-141 1594.95,-113.54 1608.89,-60.08 1614.07,-30.87"/>
<polygon fill="#63b8ff" stroke="#63b8ff" points="1617.5,-31.58 1615.6,-21.16 1610.59,-30.49 1617.5,-31.58"/>
</a>
</g>
</g>
<!-- Node21&#45;&gt;Node16 -->
<g id="edge41_Node000021_Node000016" class="edge">
<title>Node21&#45;&gt;Node16</title>
<g id="a_edge41_Node000021_Node000016"><a xlink:title=" ">
<path fill="none" stroke="#63b8ff" d="M1322.29,-176.54C1337.1,-169.27 1355.46,-157.53 1364.88,-141 1374.37,-124.33 1374.62,-102.08 1373.11,-86.13"/>
<polygon fill="#63b8ff" stroke="#63b8ff" points="1376.6,-85.89 1371.85,-76.42 1369.66,-86.78 1376.6,-85.89"/>
</a>
</g>
</g>
<!-- Node22 -->
<g id="Node000022" class="node">
<title>Node22</title>
<g id="a_Node000022"><a xlink:href="_text_label_widget_8h.html" target="_top" xlink:title="Displays static or dynamic text labels on the OLED UI.">
<polygon fill="white" stroke="#666666" points="1246.75,-135.38 1113,-135.38 1113,-116.12 1246.75,-116.12 1246.75,-135.38"/>
<text text-anchor="middle" x="1179.88" y="-121.88" font-family="Helvetica,sans-Serif" font-size="10.00">widgets/TextLabelWidget.h</text>
</a>
</g>
</g>
<!-- Node21&#45;&gt;Node22 -->
<g id="edge42_Node000021_Node000022" class="edge">
<title>Node21&#45;&gt;Node22</title>
<g id="a_edge42_Node000021_Node000022"><a xlink:title=" ">
<path fill="none" stroke="#63b8ff" d="M1281.39,-176.55C1261.86,-166.98 1230.84,-151.75 1208.22,-140.66"/>
<polygon fill="#63b8ff" stroke="#63b8ff" points="1210.06,-137.66 1199.54,-136.4 1206.98,-143.95 1210.06,-137.66"/>
</a>
</g>
</g>
<!-- Node22&#45;&gt;Node4 -->
<g id="edge44_Node000022_Node000004" class="edge">
<title>Node22&#45;&gt;Node4</title>
<g id="a_edge44_Node000022_Node000004"><a xlink:title=" ">
<path fill="none" stroke="#63b8ff" d="M1165.45,-115.81C1150.52,-106.56 1126.94,-91.95 1109.14,-80.92"/>
<polygon fill="#63b8ff" stroke="#63b8ff" points="1111.07,-77.99 1100.73,-75.7 1107.38,-83.94 1111.07,-77.99"/>
</a>
</g>
</g>
<!-- Node22&#45;&gt;Node5 -->
<g id="edge45_Node000022_Node000005" class="edge">
<title>Node22&#45;&gt;Node5</title>
<g id="a_edge45_Node000022_Node000005"><a xlink:title=" ">
<path fill="none" stroke="#63b8ff" d="M1112.68,-116.2C1097.3,-114.29 1081.03,-112.29 1065.88,-110.5 946,-96.32 805.76,-80.96 727.23,-72.46"/>
<polygon fill="#63b8ff" stroke="#63b8ff" points="727.92,-69.02 717.61,-71.42 727.17,-75.98 727.92,-69.02"/>
</a>
</g>
</g>
<!-- Node22&#45;&gt;Node16 -->
<g id="edge43_Node000022_Node000016" class="edge">
<title>Node22&#45;&gt;Node16</title>
<g id="a_edge43_Node000022_Node000016"><a xlink:title=" ">
<path fill="none" stroke="#63b8ff" d="M1209.15,-115.68C1241.5,-105.65 1293.81,-89.44 1329.92,-78.25"/>
<polygon fill="#63b8ff" stroke="#63b8ff" points="1330.61,-81.71 1339.12,-75.4 1328.54,-75.02 1330.61,-81.71"/>
</a>
</g>
</g>
<!-- Node23&#45;&gt;Node18 -->
<g id="edge48_Node000023_Node000018" class="edge">
<title>Node23&#45;&gt;Node18</title>
<g id="a_edge48_Node000023_Node000018"><a xlink:title=" ">
<path fill="none" stroke="#63b8ff" d="M1511.87,-233.09C1514.91,-232.8 1517.92,-232.52 1520.88,-232.25 1714.81,-214.57 1766.85,-218.93 1962.53,-196.57"/>
<polygon fill="#63b8ff" stroke="#63b8ff" points="1962.74,-200.07 1972.28,-195.45 1961.94,-193.12 1962.74,-200.07"/>
</a>
</g>
</g>
<!-- Node24 -->
<g id="Node000024" class="node">
<title>Node24</title>
<g id="a_Node000024"><a xlink:href="_direct_command_screen_8h.html" target="_top" xlink:title="UI screen for manually sending raw commands to the synthesizer interface.">
<polygon fill="white" stroke="#666666" points="1180.75,-196.25 1017,-196.25 1017,-177 1180.75,-177 1180.75,-196.25"/>
<text text-anchor="middle" x="1098.88" y="-182.75" font-family="Helvetica,sans-Serif" font-size="10.00">screens/DirectCommandScreen.h</text>
</a>
</g>
</g>
<!-- Node23&#45;&gt;Node24 -->
<g id="edge49_Node000023_Node000024" class="edge">
<title>Node23&#45;&gt;Node24</title>
<g id="a_edge49_Node000023_Node000024"><a xlink:title=" ">
<path fill="none" stroke="#63b8ff" d="M1378.33,-231.78C1320.01,-222.57 1229.78,-208.31 1167.72,-198.5"/>
<polygon fill="#63b8ff" stroke="#63b8ff" points="1168.39,-195.07 1157.96,-196.96 1167.3,-201.98 1168.39,-195.07"/>
</a>
</g>
</g>
<!-- Node24&#45;&gt;Node4 -->
<g id="edge50_Node000024_Node000004" class="edge">
<title>Node24&#45;&gt;Node4</title>
<g id="a_edge50_Node000024_Node000004"><a xlink:title=" ">
<path fill="none" stroke="#63b8ff" d="M1097.82,-176.62C1095.59,-157.55 1090.35,-112.66 1087.26,-86.26"/>
<polygon fill="#63b8ff" stroke="#63b8ff" points="1090.75,-86.01 1086.12,-76.48 1083.8,-86.82 1090.75,-86.01"/>
</a>
</g>
</g>
<!-- Node24&#45;&gt;Node5 -->
<g id="edge51_Node000024_Node000005" class="edge">
<title>Node24&#45;&gt;Node5</title>
<g id="a_edge51_Node000024_Node000005"><a xlink:title=" ">
<path fill="none" stroke="#63b8ff" d="M1016.66,-183.98C885.38,-180.48 640.43,-170.11 613.88,-141 596.63,-122.1 621.76,-97.19 642.71,-81.35"/>
<polygon fill="#63b8ff" stroke="#63b8ff" points="644.57,-84.33 650.65,-75.65 640.49,-78.64 644.57,-84.33"/>
</a>
</g>
</g>
<!-- Node24&#45;&gt;Node11 -->
<g id="edge52_Node000024_Node000011" class="edge">
<title>Node24&#45;&gt;Node11</title>
<g id="a_edge52_Node000024_Node000011"><a xlink:title=" ">
<path fill="none" stroke="#63b8ff" d="M1181.04,-179.17C1303.75,-169.31 1524.34,-150.61 1559.88,-141 1563.36,-140.06 1647.07,-101.18 1693.14,-79.73"/>
<polygon fill="#63b8ff" stroke="#63b8ff" points="1694.47,-82.97 1702.06,-75.58 1691.51,-76.63 1694.47,-82.97"/>
</a>
</g>
</g>
<!-- Node24&#45;&gt;Node14 -->
<g id="edge54_Node000024_Node000014" class="edge">
<title>Node24&#45;&gt;Node14</title>
<g id="a_edge54_Node000024_Node000014"><a xlink:title=" ">
<path fill="none" stroke="#63b8ff" d="M1168.33,-176.55C1197.41,-170.17 1230.32,-159.34 1255.88,-141 1293.46,-114.03 1275.62,-79.72 1314.88,-55.25 1354.55,-30.52 1483,-18.68 1559,-13.71"/>
<polygon fill="#63b8ff" stroke="#63b8ff" points="1559,-17.22 1568.76,-13.09 1558.56,-10.23 1559,-17.22"/>
</a>
</g>
</g>
<!-- Node24&#45;&gt;Node16 -->
<g id="edge53_Node000024_Node000016" class="edge">
<title>Node24&#45;&gt;Node16</title>
<g id="a_edge53_Node000024_Node000016"><a xlink:title=" ">
<path fill="none" stroke="#63b8ff" d="M1177.46,-176.51C1213.01,-170.08 1254.63,-159.23 1288.88,-141 1316.02,-126.55 1340.93,-100.74 1355.76,-83.46"/>
<polygon fill="#63b8ff" stroke="#63b8ff" points="1358.24,-85.95 1361.95,-76.03 1352.86,-81.48 1358.24,-85.95"/>
</a>
</g>
</g>
<!-- Node25 -->
<g id="Node000025" class="node">
<title>Node25</title>
<g id="a_Node000025"><a xlink:href="_encoder_attached_numeric_widget_8h.html" target="_top" xlink:title="Widget for displaying and adjusting numeric values using an encoder.">
<polygon fill="white" stroke="#666666" points="1057.12,-141 892.62,-141 892.62,-110.5 1057.12,-110.5 1057.12,-141"/>
<text text-anchor="start" x="900.62" y="-127.5" font-family="Helvetica,sans-Serif" font-size="10.00">widgets/EncoderAttachedNumeric</text>
<text text-anchor="middle" x="974.88" y="-116.25" font-family="Helvetica,sans-Serif" font-size="10.00">Widget.h</text>
</a>
</g>
</g>
<!-- Node24&#45;&gt;Node25 -->
<g id="edge55_Node000024_Node000025" class="edge">
<title>Node24&#45;&gt;Node25</title>
<g id="a_edge55_Node000024_Node000025"><a xlink:title=" ">
<path fill="none" stroke="#63b8ff" d="M1079.77,-176.55C1062.84,-168.52 1037.54,-156.5 1016.03,-146.29"/>
<polygon fill="#63b8ff" stroke="#63b8ff" points="1017.73,-143.22 1007.19,-142.09 1014.72,-149.54 1017.73,-143.22"/>
</a>
</g>
</g>
<!-- Node26 -->
<g id="Node000026" class="node">
<title>Node26</title>
<g id="a_Node000026"><a xlink:href="_push_button_widget_8h.html" target="_top" xlink:title="Represents an interactive on&#45;screen push button for the JMR800&#45;V2 UI.">
<polygon fill="white" stroke="#666666" points="874.25,-135.38 731.5,-135.38 731.5,-116.12 874.25,-116.12 874.25,-135.38"/>
<text text-anchor="middle" x="802.88" y="-121.88" font-family="Helvetica,sans-Serif" font-size="10.00">widgets/PushButtonWidget.h</text>
</a>
</g>
</g>
<!-- Node24&#45;&gt;Node26 -->
<g id="edge59_Node000024_Node000026" class="edge">
<title>Node24&#45;&gt;Node26</title>
<g id="a_edge59_Node000024_Node000026"><a xlink:title=" ">
<path fill="none" stroke="#63b8ff" d="M1053.27,-176.55C1001.23,-166.2 916.07,-149.26 859.74,-138.06"/>
<polygon fill="#63b8ff" stroke="#63b8ff" points="860.5,-134.64 850.01,-136.13 859.14,-141.51 860.5,-134.64"/>
</a>
</g>
</g>
<!-- Node25&#45;&gt;Node4 -->
<g id="edge57_Node000025_Node000004" class="edge">
<title>Node25&#45;&gt;Node4</title>
<g id="a_edge57_Node000025_Node000004"><a xlink:title=" ">
<path fill="none" stroke="#63b8ff" d="M1002.35,-110.05C1019.42,-100.91 1041.27,-89.22 1058.19,-80.16"/>
<polygon fill="#63b8ff" stroke="#63b8ff" points="1059.51,-83.42 1066.67,-75.62 1056.2,-77.25 1059.51,-83.42"/>
</a>
</g>
</g>
<!-- Node25&#45;&gt;Node5 -->
<g id="edge58_Node000025_Node000005" class="edge">
<title>Node25&#45;&gt;Node5</title>
<g id="a_edge58_Node000025_Node000005"><a xlink:title=" ">
<path fill="none" stroke="#63b8ff" d="M897.7,-110.05C844.13,-99.84 773.86,-86.45 724.78,-77.1"/>
<polygon fill="#63b8ff" stroke="#63b8ff" points="725.68,-73.71 715.2,-75.27 724.37,-80.58 725.68,-73.71"/>
</a>
</g>
</g>
<!-- Node25&#45;&gt;Node16 -->
<g id="edge56_Node000025_Node000016" class="edge">
<title>Node25&#45;&gt;Node16</title>
<g id="a_edge56_Node000025_Node000016"><a xlink:title=" ">
<path fill="none" stroke="#63b8ff" d="M1057.2,-112.48C1133.61,-101.09 1245.37,-84.43 1312.53,-74.42"/>
<polygon fill="#63b8ff" stroke="#63b8ff" points="1312.85,-77.91 1322.23,-72.98 1311.82,-70.99 1312.85,-77.91"/>
</a>
</g>
</g>
<!-- Node26&#45;&gt;Node4 -->
<g id="edge61_Node000026_Node000004" class="edge">
<title>Node26&#45;&gt;Node4</title>
<g id="a_edge61_Node000026_Node000004"><a xlink:title=" ">
<path fill="none" stroke="#63b8ff" d="M846.32,-115.68C896.23,-105.26 978.12,-88.16 1031.77,-76.96"/>
<polygon fill="#63b8ff" stroke="#63b8ff" points="1032.21,-80.45 1041.28,-74.98 1030.78,-73.59 1032.21,-80.45"/>
</a>
</g>
</g>
<!-- Node26&#45;&gt;Node5 -->
<g id="edge62_Node000026_Node000005" class="edge">
<title>Node26&#45;&gt;Node5</title>
<g id="a_edge62_Node000026_Node000005"><a xlink:title=" ">
<path fill="none" stroke="#63b8ff" d="M781.77,-115.68C759.18,-105.97 723.09,-90.46 697.19,-79.33"/>
<polygon fill="#63b8ff" stroke="#63b8ff" points="698.74,-76.19 688.17,-75.46 695.98,-82.62 698.74,-76.19"/>
</a>
</g>
</g>
<!-- Node26&#45;&gt;Node16 -->
<g id="edge60_Node000026_Node000016" class="edge">
<title>Node26&#45;&gt;Node16</title>
<g id="a_edge60_Node000026_Node000016"><a xlink:title=" ">
<path fill="none" stroke="#63b8ff" d="M850.74,-115.65C861.61,-113.78 873.12,-111.94 883.88,-110.5 1038.15,-89.88 1221.26,-75.88 1312.39,-69.61"/>
<polygon fill="#63b8ff" stroke="#63b8ff" points="1312.58,-73.1 1322.32,-68.93 1312.11,-66.12 1312.58,-73.1"/>
</a>
</g>
</g>
<!-- Node27&#45;&gt;Node18 -->
<g id="edge64_Node000027_Node000018" class="edge">
<title>Node27&#45;&gt;Node18</title>
<g id="a_edge64_Node000027_Node000018"><a xlink:title=" ">
<path fill="none" stroke="#63b8ff" d="M1968.9,-231.84C1978.3,-224.15 1992.02,-212.9 2003.28,-203.68"/>
<polygon fill="#63b8ff" stroke="#63b8ff" points="2005.32,-206.53 2010.84,-197.48 2000.89,-201.11 2005.32,-206.53"/>
</a>
</g>
</g>
<!-- Node28 -->
<g id="Node000028" class="node">
<title>Node28</title>
<g id="a_Node000028"><a xlink:href="_config_screen_8h.html" target="_top" xlink:title="Screen for accessing and modifying configuration settings.">
<polygon fill="white" stroke="#666666" points="1956.38,-196.25 1835.38,-196.25 1835.38,-177 1956.38,-177 1956.38,-196.25"/>
<text text-anchor="middle" x="1895.88" y="-182.75" font-family="Helvetica,sans-Serif" font-size="10.00">screens/ConfigScreen.h</text>
</a>
</g>
</g>
<!-- Node27&#45;&gt;Node28 -->
<g id="edge65_Node000027_Node000028" class="edge">
<title>Node27&#45;&gt;Node28</title>
<g id="a_edge65_Node000027_Node000028"><a xlink:title=" ">
<path fill="none" stroke="#63b8ff" d="M1947.36,-231.84C1938.49,-224.22 1925.56,-213.12 1914.89,-203.95"/>
<polygon fill="#63b8ff" stroke="#63b8ff" points="1917.25,-201.37 1907.39,-197.51 1912.69,-206.68 1917.25,-201.37"/>
</a>
</g>
</g>
<!-- Node28&#45;&gt;Node4 -->
<g id="edge66_Node000028_Node000004" class="edge">
<title>Node28&#45;&gt;Node4</title>
<g id="a_edge66_Node000028_Node000004"><a xlink:title=" ">
<path fill="none" stroke="#63b8ff" d="M1858.12,-176.55C1783.11,-158.63 1617.59,-119.63 1559.88,-110.5 1407.98,-86.48 1226.56,-73.83 1138.34,-68.69"/>
<polygon fill="#63b8ff" stroke="#63b8ff" points="1138.73,-65.21 1128.55,-68.13 1138.33,-72.2 1138.73,-65.21"/>
</a>
</g>
</g>
<!-- Node28&#45;&gt;Node5 -->
<g id="edge67_Node000028_Node000005" class="edge">
<title>Node28&#45;&gt;Node5</title>
<g id="a_edge67_Node000028_Node000005"><a xlink:title=" ">
<path fill="none" stroke="#63b8ff" d="M1834.96,-184.75C1601.26,-181.2 772.53,-166.84 722.88,-141 710.75,-134.69 690.19,-104.65 677.36,-84.52"/>
<polygon fill="#63b8ff" stroke="#63b8ff" points="680.36,-82.72 672.09,-76.1 674.43,-86.44 680.36,-82.72"/>
</a>
</g>
</g>
<!-- Node28&#45;&gt;Node11 -->
<g id="edge68_Node000028_Node000011" class="edge">
<title>Node28&#45;&gt;Node11</title>
<g id="a_edge68_Node000028_Node000011"><a xlink:title=" ">
<path fill="none" stroke="#63b8ff" d="M1888.84,-176.72C1876.44,-161.51 1849.34,-130.26 1820.88,-110.5 1800.63,-96.44 1775.24,-85.03 1755.38,-77.26"/>
<polygon fill="#63b8ff" stroke="#63b8ff" points="1756.7,-74.02 1746.11,-73.76 1754.22,-80.57 1756.7,-74.02"/>
</a>
</g>
</g>
<!-- Node28&#45;&gt;Node14 -->
<g id="edge70_Node000028_Node000014" class="edge">
<title>Node28&#45;&gt;Node14</title>
<g id="a_edge70_Node000028_Node000014"><a xlink:title=" ">
<path fill="none" stroke="#63b8ff" d="M1936.65,-176.56C1969.46,-168.35 2011.73,-155.36 2021.88,-141 2032.18,-126.41 2020.14,-61.31 2013.88,-55.25 1989.99,-32.11 1779.03,-18.59 1674.73,-13.27"/>
<polygon fill="#63b8ff" stroke="#63b8ff" points="1675.14,-9.79 1664.98,-12.78 1674.79,-16.78 1675.14,-9.79"/>
</a>
</g>
</g>
<!-- Node28&#45;&gt;Node16 -->
<g id="edge69_Node000028_Node000016" class="edge">
<title>Node28&#45;&gt;Node16</title>
<g id="a_edge69_Node000028_Node000016"><a xlink:title=" ">
<path fill="none" stroke="#63b8ff" d="M1877.61,-176.59C1844.46,-160.61 1771.79,-127.42 1706.88,-110.5 1610.64,-85.42 1495.09,-74.02 1427.34,-69.16"/>
<polygon fill="#63b8ff" stroke="#63b8ff" points="1427.81,-65.68 1417.59,-68.48 1427.32,-72.67 1427.81,-65.68"/>
</a>
</g>
</g>
<!-- Node29 -->
<g id="Node000029" class="node">
<title>Node29</title>
<g id="a_Node000029"><a xlink:href="_knob_config_dialog_8h.html" target="_top" xlink:title="Modal dialog for editing knob assignments and configuration parameters.">
<polygon fill="white" stroke="#666666" points="2013.12,-135.38 1872.62,-135.38 1872.62,-116.12 2013.12,-116.12 2013.12,-135.38"/>
<text text-anchor="middle" x="1942.88" y="-121.88" font-family="Helvetica,sans-Serif" font-size="10.00">screens/KnobConfigDialog.h</text>
</a>
</g>
</g>
<!-- Node28&#45;&gt;Node29 -->
<g id="edge71_Node000028_Node000029" class="edge">
<title>Node28&#45;&gt;Node29</title>
<g id="a_edge71_Node000028_Node000029"><a xlink:title=" ">
<path fill="none" stroke="#63b8ff" d="M1903.01,-176.68C1909.78,-168.21 1920.13,-155.24 1928.59,-144.64"/>
<polygon fill="#63b8ff" stroke="#63b8ff" points="1931.22,-146.96 1934.73,-136.96 1925.75,-142.59 1931.22,-146.96"/>
</a>
</g>
</g>
<!-- Node29&#45;&gt;Node11 -->
<g id="edge72_Node000029_Node000011" class="edge">
<title>Node29&#45;&gt;Node11</title>
<g id="a_edge72_Node000029_Node000011"><a xlink:title=" ">
<path fill="none" stroke="#63b8ff" d="M1907.8,-115.71C1871.86,-106.4 1814.09,-91.29 1755.72,-75.25"/>
<polygon fill="#63b8ff" stroke="#63b8ff" points="1756.84,-71.93 1746.27,-72.64 1754.98,-78.68 1756.84,-71.93"/>
</a>
</g>
</g>
<!-- Node29&#45;&gt;Node16 -->
<g id="edge73_Node000029_Node000016" class="edge">
<title>Node29&#45;&gt;Node16</title>
<g id="a_edge73_Node000029_Node000016"><a xlink:title=" ">
<path fill="none" stroke="#63b8ff" d="M1872.33,-117.5C1757.72,-105.73 1533.28,-82.66 1427.56,-71.8"/>
<polygon fill="#63b8ff" stroke="#63b8ff" points="1427.99,-68.33 1417.69,-70.79 1427.28,-75.29 1427.99,-68.33"/>
</a>
</g>
</g>
<!-- Node30 -->
<g id="Node000030" class="node">
<title>Node30</title>
<g id="a_Node000030"><a xlink:href="_modal_dialog_8h.html" target="_top" xlink:title="Abstract base class for modal dialogs in the JMR800&#45;V2 UI.">
<polygon fill="white" stroke="#666666" points="1877.75,-74.5 1762,-74.5 1762,-55.25 1877.75,-55.25 1877.75,-74.5"/>
<text text-anchor="middle" x="1819.88" y="-61" font-family="Helvetica,sans-Serif" font-size="10.00">screens/ModalDialog.h</text>
</a>
</g>
</g>
<!-- Node29&#45;&gt;Node30 -->
<g id="edge74_Node000029_Node000030" class="edge">
<title>Node29&#45;&gt;Node30</title>
<g id="a_edge74_Node000029_Node000030"><a xlink:title=" ">
<path fill="none" stroke="#63b8ff" d="M1923.93,-115.68C1903.91,-106.1 1872.11,-90.88 1848.93,-79.78"/>
<polygon fill="#63b8ff" stroke="#63b8ff" points="1850.54,-76.67 1840.01,-75.51 1847.52,-82.99 1850.54,-76.67"/>
</a>
</g>
</g>
<!-- Node31 -->
<g id="Node000031" class="node">
<title>Node31</title>
<g id="a_Node000031"><a xlink:href="_i_widget_nav_handler_8h.html" target="_top" xlink:title="Interface for handling horizontal navigation events between UI widgets.">
<polygon fill="white" stroke="#666666" points="2004.38,-74.5 1895.38,-74.5 1895.38,-55.25 2004.38,-55.25 2004.38,-74.5"/>
<text text-anchor="middle" x="1949.88" y="-61" font-family="Helvetica,sans-Serif" font-size="10.00">IWidgetNavHandler.h</text>
</a>
</g>
</g>
<!-- Node29&#45;&gt;Node31 -->
<g id="edge76_Node000029_Node000031" class="edge">
<title>Node29&#45;&gt;Node31</title>
<g id="a_edge76_Node000029_Node000031"><a xlink:title=" ">
<path fill="none" stroke="#63b8ff" d="M1943.94,-115.81C1944.87,-107.94 1946.27,-96.2 1947.47,-86.07"/>
<polygon fill="#63b8ff" stroke="#63b8ff" points="1950.92,-86.75 1948.62,-76.4 1943.97,-85.92 1950.92,-86.75"/>
</a>
</g>
</g>
<!-- Node30&#45;&gt;Node14 -->
<g id="edge75_Node000030_Node000014" class="edge">
<title>Node30&#45;&gt;Node14</title>
<g id="a_edge75_Node000030_Node000014"><a xlink:title=" ">
<path fill="none" stroke="#63b8ff" d="M1785.44,-54.84C1751.61,-45.97 1699.79,-32.37 1662.54,-22.6"/>
<polygon fill="#63b8ff" stroke="#63b8ff" points="1663.5,-19.24 1652.94,-20.09 1661.73,-26.01 1663.5,-19.24"/>
</a>
</g>
</g>
</g>
</svg>
